<svg width="87" height="87" viewBox="0 0 87 87" fill="none" xmlns="http://www.w3.org/2000/svg">
<path d="M75.4642 53.0457L77.3567 67.8292C77.5161 69.1162 79.5728 69.1928 79.4022 67.8809L77.4988 53.0866C77.3394 51.7996 75.2828 51.723 75.4534 53.0349L75.4642 53.0457Z" fill="#10100E"/>
<path d="M40.5689 43.9075L32.2015 54.5005C31.4178 55.4953 32.8937 56.7901 33.6774 55.7953L42.0446 45.1975C42.8238 44.2078 41.3527 42.9126 40.5642 43.9078L40.5689 43.9075Z" fill="#10100E"/>
<path d="M24.7437 17.092L10.4533 21.3593C9.1844 21.7383 10.0666 23.5886 11.3177 23.2133L25.6081 18.946C26.877 18.567 25.9948 16.7166 24.7437 17.092Z" fill="#10100E"/>
</svg>
