<svg width="136" height="69" viewBox="0 0 136 69" fill="none" xmlns="http://www.w3.org/2000/svg">
<path fill-rule="evenodd" clip-rule="evenodd" d="M135 61.9663C118.199 76.6795 72.2873 61.7071 38.9864 46.6898L2 6.47261C47.1761 19.4065 92.5013 24.6 120.374 1L135 61.9663Z" fill="white"/>
<path d="M135 61.9663C118.199 76.6795 72.2873 61.7071 38.9864 46.6898L2 6.47261C47.1761 19.4065 92.5013 24.6 120.374 1L135 61.9663" stroke="#EBEBEB"/>
<path fill-rule="evenodd" clip-rule="evenodd" d="M42.3524 34L31 20.3977L32.6476 19L44 32.6023L42.3524 34Z" fill="#BCD5FF"/>
<path fill-rule="evenodd" clip-rule="evenodd" d="M63.1488 41L51 22.1179L52.8517 21L65 39.8821L63.1488 41Z" fill="#BCD5FF"/>
<path fill-rule="evenodd" clip-rule="evenodd" d="M112.814 52L104 19.5541L106.186 19L115 51.4459L112.814 52Z" fill="#BCD5FF"/>
</svg>
