<svg width="600" height="493" viewBox="0 0 600 493" fill="none" xmlns="http://www.w3.org/2000/svg">
<mask id="mask0_1037_16" style="mask-type:alpha" maskUnits="userSpaceOnUse" x="0" y="0" width="600" height="493">
<rect width="600" height="493" fill="white"/>
</mask>
<g mask="url(#mask0_1037_16)">
<circle cx="19.5" cy="465.5" r="2.5" fill="#8DC6BC"/>
<circle cx="544.5" cy="465.5" r="2.5" fill="#8DC6BC"/>
<circle cx="579.5" cy="465.5" r="2.5" fill="#8DC6BC"/>
<circle cx="54.5" cy="465.5" r="2.5" fill="#8DC6BC"/>
<circle cx="89.5" cy="465.5" r="2.5" fill="#8DC6BC"/>
<circle cx="124.5" cy="465.5" r="2.5" fill="#8DC6BC"/>
<circle cx="159.5" cy="465.5" r="2.5" fill="#8DC6BC"/>
<circle cx="194.5" cy="465.5" r="2.5" fill="#8DC6BC"/>
<circle cx="229.5" cy="465.5" r="2.5" fill="#8DC6BC"/>
<circle cx="264.5" cy="465.5" r="2.5" fill="#8DC6BC"/>
<circle cx="299.5" cy="465.5" r="2.5" fill="#8DC6BC"/>
<circle cx="334.5" cy="465.5" r="2.5" fill="#8DC6BC"/>
<circle cx="369.5" cy="465.5" r="2.5" fill="#8DC6BC"/>
<circle cx="404.5" cy="465.5" r="2.5" fill="#8DC6BC"/>
<circle cx="509.5" cy="465.5" r="2.5" fill="#8DC6BC"/>
<circle cx="474.5" cy="465.5" r="2.5" fill="#8DC6BC"/>
<circle cx="439.5" cy="465.5" r="2.5" fill="#8DC6BC"/>
<circle cx="19.5" cy="431.5" r="2.5" fill="#8DC6BC"/>
<circle cx="544.5" cy="431.5" r="2.5" fill="#8DC6BC"/>
<circle cx="579.5" cy="431.5" r="2.5" fill="#8DC6BC"/>
<circle cx="54.5" cy="431.5" r="2.5" fill="#8DC6BC"/>
<circle cx="89.5" cy="431.5" r="2.5" fill="#8DC6BC"/>
<circle cx="124.5" cy="431.5" r="2.5" fill="#8DC6BC"/>
<circle cx="159.5" cy="431.5" r="2.5" fill="#8DC6BC"/>
<circle cx="194.5" cy="431.5" r="2.5" fill="#8DC6BC"/>
<circle cx="229.5" cy="431.5" r="2.5" fill="#8DC6BC"/>
<circle cx="264.5" cy="431.5" r="2.5" fill="#8DC6BC"/>
<circle cx="299.5" cy="431.5" r="2.5" fill="#8DC6BC"/>
<circle cx="334.5" cy="431.5" r="2.5" fill="#8DC6BC"/>
<circle cx="369.5" cy="431.5" r="2.5" fill="#8DC6BC"/>
<circle cx="404.5" cy="431.5" r="2.5" fill="#8DC6BC"/>
<circle cx="509.5" cy="431.5" r="2.5" fill="#8DC6BC"/>
<circle cx="474.5" cy="431.5" r="2.5" fill="#8DC6BC"/>
<circle cx="439.5" cy="431.5" r="2.5" fill="#8DC6BC"/>
<circle cx="19.5" cy="397.5" r="2.5" fill="#8DC6BC"/>
<circle cx="544.5" cy="397.5" r="2.5" fill="#8DC6BC"/>
<circle cx="579.5" cy="397.5" r="2.5" fill="#8DC6BC"/>
<circle cx="54.5" cy="397.5" r="2.5" fill="#8DC6BC"/>
<circle cx="89.5" cy="397.5" r="2.5" fill="#8DC6BC"/>
<circle cx="124.5" cy="397.5" r="2.5" fill="#8DC6BC"/>
<circle cx="159.5" cy="397.5" r="2.5" fill="#8DC6BC"/>
<circle cx="194.5" cy="397.5" r="2.5" fill="#8DC6BC"/>
<circle cx="229.5" cy="397.5" r="2.5" fill="#8DC6BC"/>
<circle cx="264.5" cy="397.5" r="2.5" fill="#8DC6BC"/>
<circle cx="299.5" cy="397.5" r="2.5" fill="#8DC6BC"/>
<circle cx="334.5" cy="397.5" r="2.5" fill="#8DC6BC"/>
<circle cx="369.5" cy="397.5" r="2.5" fill="#8DC6BC"/>
<circle cx="404.5" cy="397.5" r="2.5" fill="#8DC6BC"/>
<circle cx="509.5" cy="397.5" r="2.5" fill="#8DC6BC"/>
<circle cx="474.5" cy="397.5" r="2.5" fill="#8DC6BC"/>
<circle cx="439.5" cy="397.5" r="2.5" fill="#8DC6BC"/>
<circle cx="19.5" cy="363.5" r="2.5" fill="#8DC6BC"/>
<circle cx="544.5" cy="363.5" r="2.5" fill="#8DC6BC"/>
<circle cx="579.5" cy="363.5" r="2.5" fill="#8DC6BC"/>
<circle cx="54.5" cy="363.5" r="2.5" fill="#8DC6BC"/>
<circle cx="89.5" cy="363.5" r="2.5" fill="#8DC6BC"/>
<circle cx="124.5" cy="363.5" r="2.5" fill="#8DC6BC"/>
<circle cx="159.5" cy="363.5" r="2.5" fill="#8DC6BC"/>
<circle cx="194.5" cy="363.5" r="2.5" fill="#8DC6BC"/>
<circle cx="229.5" cy="363.5" r="2.5" fill="#8DC6BC"/>
<circle cx="264.5" cy="363.5" r="2.5" fill="#8DC6BC"/>
<circle cx="299.5" cy="363.5" r="2.5" fill="#8DC6BC"/>
<circle cx="334.5" cy="363.5" r="2.5" fill="#8DC6BC"/>
<circle cx="369.5" cy="363.5" r="2.5" fill="#8DC6BC"/>
<circle cx="404.5" cy="363.5" r="2.5" fill="#8DC6BC"/>
<circle cx="509.5" cy="363.5" r="2.5" fill="#8DC6BC"/>
<circle cx="474.5" cy="363.5" r="2.5" fill="#8DC6BC"/>
<circle cx="439.5" cy="363.5" r="2.5" fill="#8DC6BC"/>
<circle cx="19.5" cy="329.5" r="2.5" fill="#8DC6BC"/>
<circle cx="544.5" cy="329.5" r="2.5" fill="#8DC6BC"/>
<circle cx="579.5" cy="329.5" r="2.5" fill="#8DC6BC"/>
<circle cx="54.5" cy="329.5" r="2.5" fill="#8DC6BC"/>
<circle cx="89.5" cy="329.5" r="2.5" fill="#8DC6BC"/>
<circle cx="124.5" cy="329.5" r="2.5" fill="#8DC6BC"/>
<circle cx="159.5" cy="329.5" r="2.5" fill="#8DC6BC"/>
<circle cx="194.5" cy="329.5" r="2.5" fill="#8DC6BC"/>
<circle cx="229.5" cy="329.5" r="2.5" fill="#8DC6BC"/>
<circle cx="264.5" cy="329.5" r="2.5" fill="#8DC6BC"/>
<circle cx="299.5" cy="329.5" r="2.5" fill="#8DC6BC"/>
<circle cx="334.5" cy="329.5" r="2.5" fill="#8DC6BC"/>
<circle cx="369.5" cy="329.5" r="2.5" fill="#8DC6BC"/>
<circle cx="404.5" cy="329.5" r="2.5" fill="#8DC6BC"/>
<circle cx="509.5" cy="329.5" r="2.5" fill="#8DC6BC"/>
<circle cx="474.5" cy="329.5" r="2.5" fill="#8DC6BC"/>
<circle cx="439.5" cy="329.5" r="2.5" fill="#8DC6BC"/>
<circle cx="19.5" cy="295.5" r="2.5" fill="#8DC6BC"/>
<circle cx="544.5" cy="295.5" r="2.5" fill="#8DC6BC"/>
<circle cx="579.5" cy="295.5" r="2.5" fill="#8DC6BC"/>
<circle cx="54.5" cy="295.5" r="2.5" fill="#8DC6BC"/>
<circle cx="89.5" cy="295.5" r="2.5" fill="#8DC6BC"/>
<circle cx="124.5" cy="295.5" r="2.5" fill="#8DC6BC"/>
<circle cx="159.5" cy="295.5" r="2.5" fill="#8DC6BC"/>
<circle cx="194.5" cy="295.5" r="2.5" fill="#8DC6BC"/>
<circle cx="229.5" cy="295.5" r="2.5" fill="#8DC6BC"/>
<circle cx="264.5" cy="295.5" r="2.5" fill="#8DC6BC"/>
<circle cx="299.5" cy="295.5" r="2.5" fill="#8DC6BC"/>
<circle cx="334.5" cy="295.5" r="2.5" fill="#8DC6BC"/>
<circle cx="369.5" cy="295.5" r="2.5" fill="#8DC6BC"/>
<circle cx="404.5" cy="295.5" r="2.5" fill="#8DC6BC"/>
<circle cx="509.5" cy="295.5" r="2.5" fill="#8DC6BC"/>
<circle cx="474.5" cy="295.5" r="2.5" fill="#8DC6BC"/>
<circle cx="439.5" cy="295.5" r="2.5" fill="#8DC6BC"/>
<circle cx="19.5" cy="261.5" r="2.5" fill="#8DC6BC"/>
<circle cx="544.5" cy="261.5" r="2.5" fill="#8DC6BC"/>
<circle cx="579.5" cy="261.5" r="2.5" fill="#8DC6BC"/>
<circle cx="54.5" cy="261.5" r="2.5" fill="#8DC6BC"/>
<circle cx="89.5" cy="261.5" r="2.5" fill="#8DC6BC"/>
<circle cx="124.5" cy="261.5" r="2.5" fill="#8DC6BC"/>
<circle cx="159.5" cy="261.5" r="2.5" fill="#8DC6BC"/>
<circle cx="194.5" cy="261.5" r="2.5" fill="#8DC6BC"/>
<circle cx="229.5" cy="261.5" r="2.5" fill="#8DC6BC"/>
<circle cx="264.5" cy="261.5" r="2.5" fill="#8DC6BC"/>
<circle cx="299.5" cy="261.5" r="2.5" fill="#8DC6BC"/>
<circle cx="334.5" cy="261.5" r="2.5" fill="#8DC6BC"/>
<circle cx="369.5" cy="261.5" r="2.5" fill="#8DC6BC"/>
<circle cx="404.5" cy="261.5" r="2.5" fill="#8DC6BC"/>
<circle cx="509.5" cy="261.5" r="2.5" fill="#8DC6BC"/>
<circle cx="474.5" cy="261.5" r="2.5" fill="#8DC6BC"/>
<circle cx="439.5" cy="261.5" r="2.5" fill="#8DC6BC"/>
<circle cx="19.5" cy="227.5" r="2.5" fill="#8DC6BC"/>
<circle cx="544.5" cy="227.5" r="2.5" fill="#8DC6BC"/>
<circle cx="579.5" cy="227.5" r="2.5" fill="#8DC6BC"/>
<circle cx="54.5" cy="227.5" r="2.5" fill="#8DC6BC"/>
<circle cx="89.5" cy="227.5" r="2.5" fill="#8DC6BC"/>
<circle cx="124.5" cy="227.5" r="2.5" fill="#8DC6BC"/>
<circle cx="159.5" cy="227.5" r="2.5" fill="#8DC6BC"/>
<circle cx="194.5" cy="227.5" r="2.5" fill="#8DC6BC"/>
<circle cx="229.5" cy="227.5" r="2.5" fill="#8DC6BC"/>
<circle cx="264.5" cy="227.5" r="2.5" fill="#8DC6BC"/>
<circle cx="299.5" cy="227.5" r="2.5" fill="#8DC6BC"/>
<circle cx="334.5" cy="227.5" r="2.5" fill="#8DC6BC"/>
<circle cx="369.5" cy="227.5" r="2.5" fill="#8DC6BC"/>
<circle cx="404.5" cy="227.5" r="2.5" fill="#8DC6BC"/>
<circle cx="509.5" cy="227.5" r="2.5" fill="#8DC6BC"/>
<circle cx="474.5" cy="227.5" r="2.5" fill="#8DC6BC"/>
<circle cx="439.5" cy="227.5" r="2.5" fill="#8DC6BC"/>
<circle cx="19.5" cy="193.5" r="2.5" fill="#8DC6BC"/>
<circle cx="544.5" cy="193.5" r="2.5" fill="#8DC6BC"/>
<circle cx="579.5" cy="193.5" r="2.5" fill="#8DC6BC"/>
<circle cx="54.5" cy="193.5" r="2.5" fill="#8DC6BC"/>
<circle cx="89.5" cy="193.5" r="2.5" fill="#8DC6BC"/>
<circle cx="124.5" cy="193.5" r="2.5" fill="#8DC6BC"/>
<circle cx="159.5" cy="193.5" r="2.5" fill="#8DC6BC"/>
<circle cx="194.5" cy="193.5" r="2.5" fill="#8DC6BC"/>
<circle cx="229.5" cy="193.5" r="2.5" fill="#8DC6BC"/>
<circle cx="264.5" cy="193.5" r="2.5" fill="#8DC6BC"/>
<circle cx="299.5" cy="193.5" r="2.5" fill="#8DC6BC"/>
<circle cx="334.5" cy="193.5" r="2.5" fill="#8DC6BC"/>
<circle cx="369.5" cy="193.5" r="2.5" fill="#8DC6BC"/>
<circle cx="404.5" cy="193.5" r="2.5" fill="#8DC6BC"/>
<circle cx="509.5" cy="193.5" r="2.5" fill="#8DC6BC"/>
<circle cx="474.5" cy="193.5" r="2.5" fill="#8DC6BC"/>
<circle cx="439.5" cy="193.5" r="2.5" fill="#8DC6BC"/>
<circle cx="19.5" cy="159.5" r="2.5" fill="#8DC6BC"/>
<circle cx="544.5" cy="159.5" r="2.5" fill="#8DC6BC"/>
<circle cx="579.5" cy="159.5" r="2.5" fill="#8DC6BC"/>
<circle cx="54.5" cy="159.5" r="2.5" fill="#8DC6BC"/>
<circle cx="89.5" cy="159.5" r="2.5" fill="#8DC6BC"/>
<circle cx="124.5" cy="159.5" r="2.5" fill="#8DC6BC"/>
<circle cx="159.5" cy="159.5" r="2.5" fill="#8DC6BC"/>
<circle cx="194.5" cy="159.5" r="2.5" fill="#8DC6BC"/>
<circle cx="229.5" cy="159.5" r="2.5" fill="#8DC6BC"/>
<circle cx="264.5" cy="159.5" r="2.5" fill="#8DC6BC"/>
<circle cx="299.5" cy="159.5" r="2.5" fill="#8DC6BC"/>
<circle cx="334.5" cy="159.5" r="2.5" fill="#8DC6BC"/>
<circle cx="369.5" cy="159.5" r="2.5" fill="#8DC6BC"/>
<circle cx="404.5" cy="159.5" r="2.5" fill="#8DC6BC"/>
<circle cx="509.5" cy="159.5" r="2.5" fill="#8DC6BC"/>
<circle cx="474.5" cy="159.5" r="2.5" fill="#8DC6BC"/>
<circle cx="439.5" cy="159.5" r="2.5" fill="#8DC6BC"/>
<circle cx="19.5" cy="125.5" r="2.5" fill="#8DC6BC"/>
<circle cx="544.5" cy="125.5" r="2.5" fill="#8DC6BC"/>
<circle cx="579.5" cy="125.5" r="2.5" fill="#8DC6BC"/>
<circle cx="54.5" cy="125.5" r="2.5" fill="#8DC6BC"/>
<circle cx="89.5" cy="125.5" r="2.5" fill="#8DC6BC"/>
<circle cx="124.5" cy="125.5" r="2.5" fill="#8DC6BC"/>
<circle cx="159.5" cy="125.5" r="2.5" fill="#8DC6BC"/>
<circle cx="194.5" cy="125.5" r="2.5" fill="#8DC6BC"/>
<circle cx="229.5" cy="125.5" r="2.5" fill="#8DC6BC"/>
<circle cx="264.5" cy="125.5" r="2.5" fill="#8DC6BC"/>
<circle cx="299.5" cy="125.5" r="2.5" fill="#8DC6BC"/>
<circle cx="334.5" cy="125.5" r="2.5" fill="#8DC6BC"/>
<circle cx="369.5" cy="125.5" r="2.5" fill="#8DC6BC"/>
<circle cx="404.5" cy="125.5" r="2.5" fill="#8DC6BC"/>
<circle cx="509.5" cy="125.5" r="2.5" fill="#8DC6BC"/>
<circle cx="474.5" cy="125.5" r="2.5" fill="#8DC6BC"/>
<circle cx="439.5" cy="125.5" r="2.5" fill="#8DC6BC"/>
<circle cx="19.5" cy="91.5" r="2.5" fill="#8DC6BC"/>
<circle cx="544.5" cy="91.5" r="2.5" fill="#8DC6BC"/>
<circle cx="579.5" cy="91.5" r="2.5" fill="#8DC6BC"/>
<circle cx="54.5" cy="91.5" r="2.5" fill="#8DC6BC"/>
<circle cx="89.5" cy="91.5" r="2.5" fill="#8DC6BC"/>
<circle cx="124.5" cy="91.5" r="2.5" fill="#8DC6BC"/>
<circle cx="159.5" cy="91.5" r="2.5" fill="#8DC6BC"/>
<circle cx="194.5" cy="91.5" r="2.5" fill="#8DC6BC"/>
<circle cx="229.5" cy="91.5" r="2.5" fill="#8DC6BC"/>
<circle cx="264.5" cy="91.5" r="2.5" fill="#8DC6BC"/>
<circle cx="299.5" cy="91.5" r="2.5" fill="#8DC6BC"/>
<circle cx="334.5" cy="91.5" r="2.5" fill="#8DC6BC"/>
<circle cx="369.5" cy="91.5" r="2.5" fill="#8DC6BC"/>
<circle cx="404.5" cy="91.5" r="2.5" fill="#8DC6BC"/>
<circle cx="509.5" cy="91.5" r="2.5" fill="#8DC6BC"/>
<circle cx="474.5" cy="91.5" r="2.5" fill="#8DC6BC"/>
<circle cx="439.5" cy="91.5" r="2.5" fill="#8DC6BC"/>
<circle cx="19.5" cy="57.5" r="2.5" fill="#8DC6BC"/>
<circle cx="544.5" cy="57.5" r="2.5" fill="#8DC6BC"/>
<circle cx="579.5" cy="57.5" r="2.5" fill="#8DC6BC"/>
<circle cx="54.5" cy="57.5" r="2.5" fill="#8DC6BC"/>
<circle cx="89.5" cy="57.5" r="2.5" fill="#8DC6BC"/>
<circle cx="124.5" cy="57.5" r="2.5" fill="#8DC6BC"/>
<circle cx="159.5" cy="57.5" r="2.5" fill="#8DC6BC"/>
<circle cx="194.5" cy="57.5" r="2.5" fill="#8DC6BC"/>
<circle cx="229.5" cy="57.5" r="2.5" fill="#8DC6BC"/>
<circle cx="264.5" cy="57.5" r="2.5" fill="#8DC6BC"/>
<circle cx="299.5" cy="57.5" r="2.5" fill="#8DC6BC"/>
<circle cx="334.5" cy="57.5" r="2.5" fill="#8DC6BC"/>
<circle cx="369.5" cy="57.5" r="2.5" fill="#8DC6BC"/>
<circle cx="404.5" cy="57.5" r="2.5" fill="#8DC6BC"/>
<circle cx="509.5" cy="57.5" r="2.5" fill="#8DC6BC"/>
<circle cx="474.5" cy="57.5" r="2.5" fill="#8DC6BC"/>
<circle cx="439.5" cy="57.5" r="2.5" fill="#8DC6BC"/>
<circle cx="19.5" cy="23.5" r="2.5" fill="#8DC6BC"/>
<circle cx="544.5" cy="23.5" r="2.5" fill="#8DC6BC"/>
<circle cx="579.5" cy="23.5" r="2.5" fill="#8DC6BC"/>
<circle cx="54.5" cy="23.5" r="2.5" fill="#8DC6BC"/>
<circle cx="89.5" cy="23.5" r="2.5" fill="#8DC6BC"/>
<circle cx="124.5" cy="23.5" r="2.5" fill="#8DC6BC"/>
<circle cx="159.5" cy="23.5" r="2.5" fill="#8DC6BC"/>
<circle cx="194.5" cy="23.5" r="2.5" fill="#8DC6BC"/>
<circle cx="229.5" cy="23.5" r="2.5" fill="#8DC6BC"/>
<circle cx="264.5" cy="23.5" r="2.5" fill="#8DC6BC"/>
<circle cx="299.5" cy="23.5" r="2.5" fill="#8DC6BC"/>
<circle cx="334.5" cy="23.5" r="2.5" fill="#8DC6BC"/>
<circle cx="369.5" cy="23.5" r="2.5" fill="#8DC6BC"/>
<circle cx="404.5" cy="23.5" r="2.5" fill="#8DC6BC"/>
<circle cx="509.5" cy="23.5" r="2.5" fill="#8DC6BC"/>
<circle cx="474.5" cy="23.5" r="2.5" fill="#8DC6BC"/>
<circle cx="439.5" cy="23.5" r="2.5" fill="#8DC6BC"/>
</g>
</svg>
