<svg width="145" height="105" viewBox="0 0 145 105" fill="none" xmlns="http://www.w3.org/2000/svg">
<path d="M49.2904 85.244C45.9363 89.5687 49.0258 96.1627 54.3301 97.4408C60.0742 98.8238 64.5148 93.1987 64.3535 88.1344C64.1713 82.5202 58.0973 78.395 52.4936 79.8151C46.8899 81.2353 44.7292 87.8406 47.8376 92.3764C48.6691 93.5954 50.4546 92.1347 49.6273 90.9327C47.29 87.5165 49.4741 82.5522 53.6605 81.8719C57.8468 81.1916 62.1065 84.4105 62.0172 88.589C61.9501 91.8557 59.3648 95.6829 55.5772 95.3571C51.4303 94.9943 48.7157 89.7731 51.2087 86.5414C52.1108 85.3744 50.1873 84.071 49.2914 85.233L49.2904 85.244Z" fill="#10100E"/>
<path d="M93.4306 14.2413C90.2628 18.3258 93.1807 24.5535 98.1903 25.7605C103.615 27.0667 107.809 21.7541 107.657 16.9712C107.485 11.6689 101.748 7.77285 96.4558 9.1141C91.1634 10.4553 89.1227 16.6937 92.0585 20.9775C92.8438 22.1288 94.53 20.7492 93.7487 19.614C91.5413 16.3876 93.6041 11.6991 97.5579 11.0566C101.512 10.4141 105.535 13.4542 105.45 17.4005C105.387 20.4858 102.945 24.1003 99.3682 23.7926C95.4516 23.4499 92.8878 18.5189 95.2423 15.4667C96.0943 14.3645 94.2777 13.1335 93.4315 14.2309L93.4306 14.2413Z" fill="#10100E"/>
<path d="M16.7674 17.3796L25.4563 36.013C26.0991 37.3916 27.9055 36.5556 27.2603 35.1718L18.5714 16.5384C17.9261 15.1547 16.1221 15.9959 16.7674 17.3796Z" fill="#10100E"/>
<path d="M13.2407 29.2884L30.988 21.0127C32.3829 20.3623 31.5433 18.5616 30.1483 19.2121L12.401 27.4878C11.0008 28.1408 11.8404 29.9414 13.2407 29.2884Z" fill="#10100E"/>
<path d="M124.24 73.796C121.072 77.8805 123.99 84.1082 129 85.3152C134.425 86.6214 138.619 81.3088 138.466 76.5259C138.294 71.2235 132.558 67.3275 127.265 68.6688C121.973 70.01 119.932 76.2484 122.868 80.5322C123.653 81.6835 125.34 80.3039 124.558 79.1687C122.351 75.9423 124.414 71.2538 128.367 70.6113C132.321 69.9688 136.344 73.0089 136.26 76.9552C136.197 80.0404 133.755 83.655 130.178 83.3473C126.261 83.0046 123.697 78.0735 126.052 75.0214C126.904 73.9192 125.087 72.6882 124.241 73.7856L124.24 73.796Z" fill="#10100E"/>
<path d="M58.8164 80.3818C58.8164 80.3818 72.362 40.9122 95.1893 20.3234" stroke="black" stroke-width="2"/>
</svg>
