<svg width="122" height="110" viewBox="0 0 122 110" fill="none" xmlns="http://www.w3.org/2000/svg">
<mask id="mask0_1049_1685" style="mask-type:alpha" maskUnits="userSpaceOnUse" x="0" y="0" width="122" height="110">
<rect y="110" width="110" height="122" transform="rotate(-90 0 110)" fill="white"/>
</mask>
<g mask="url(#mask0_1049_1685)">
<circle cx="20" cy="101" r="2" transform="rotate(-90 20 101)" fill="black"/>
<circle cx="20" cy="63" r="2" transform="rotate(-90 20 63)" fill="black"/>
<circle cx="20" cy="25" r="2" transform="rotate(-90 20 25)" fill="black"/>
<circle cx="58" cy="101" r="2" transform="rotate(-90 58 101)" fill="black"/>
<circle cx="58" cy="63" r="2" transform="rotate(-90 58 63)" fill="black"/>
<circle cx="58" cy="25" r="2" transform="rotate(-90 58 25)" fill="black"/>
<circle cx="96" cy="101" r="2" transform="rotate(-90 96 101)" fill="black"/>
<circle cx="96" cy="63" r="2" transform="rotate(-90 96 63)" fill="black"/>
<circle cx="96" cy="25" r="2" transform="rotate(-90 96 25)" fill="black"/>
</g>
</svg>
