<svg width="639" height="525" viewBox="0 0 639 525" fill="none" xmlns="http://www.w3.org/2000/svg">
<mask id="mask0_1185_17067" style="mask-type:alpha" maskUnits="userSpaceOnUse" x="0" y="0" width="639" height="525">
<rect width="639" height="525" fill="white"/>
</mask>
<g mask="url(#mask0_1185_17067)">
<ellipse cx="17.584" cy="495.155" rx="1.5" ry="1.49878" fill="#FF3294"/>
<ellipse cx="577.076" cy="495.155" rx="1.5" ry="1.49878" fill="#FF3294"/>
<ellipse cx="614.375" cy="495.155" rx="1.5" ry="1.49878" fill="#FF3294"/>
<ellipse cx="54.8828" cy="495.155" rx="1.5" ry="1.49878" fill="#FF3294"/>
<ellipse cx="92.1836" cy="495.155" rx="1.5" ry="1.49878" fill="#FF3294"/>
<ellipse cx="129.482" cy="495.155" rx="1.5" ry="1.49878" fill="#FF3294"/>
<ellipse cx="166.781" cy="495.155" rx="1.5" ry="1.49878" fill="#FF3294"/>
<ellipse cx="204.082" cy="495.155" rx="1.5" ry="1.49878" fill="#FF3294"/>
<ellipse cx="241.381" cy="495.155" rx="1.5" ry="1.49878" fill="#FF3294"/>
<ellipse cx="278.68" cy="495.155" rx="1.5" ry="1.49878" fill="#FF3294"/>
<ellipse cx="315.98" cy="495.155" rx="1.5" ry="1.49878" fill="#FF3294"/>
<ellipse cx="353.279" cy="495.155" rx="1.5" ry="1.49878" fill="#FF3294"/>
<ellipse cx="390.578" cy="495.155" rx="1.5" ry="1.49878" fill="#FF3294"/>
<ellipse cx="427.879" cy="495.155" rx="1.5" ry="1.49878" fill="#FF3294"/>
<ellipse cx="539.775" cy="495.155" rx="1.5" ry="1.49878" fill="#FF3294"/>
<ellipse cx="502.477" cy="495.155" rx="1.5" ry="1.49878" fill="#FF3294"/>
<ellipse cx="465.178" cy="495.155" rx="1.5" ry="1.49878" fill="#FF3294"/>
<ellipse cx="17.584" cy="458.95" rx="1.5" ry="1.49878" fill="#FF3294"/>
<ellipse cx="577.076" cy="458.95" rx="1.5" ry="1.49878" fill="#FF3294"/>
<ellipse cx="614.375" cy="458.95" rx="1.5" ry="1.49878" fill="#FF3294"/>
<ellipse cx="54.8828" cy="458.95" rx="1.5" ry="1.49878" fill="#FF3294"/>
<ellipse cx="92.1836" cy="458.95" rx="1.5" ry="1.49878" fill="#FF3294"/>
<ellipse cx="129.482" cy="458.95" rx="1.5" ry="1.49878" fill="#FF3294"/>
<ellipse cx="166.781" cy="458.95" rx="1.5" ry="1.49878" fill="#FF3294"/>
<ellipse cx="204.082" cy="458.95" rx="1.5" ry="1.49878" fill="#FF3294"/>
<ellipse cx="241.381" cy="458.95" rx="1.5" ry="1.49878" fill="#FF3294"/>
<ellipse cx="278.68" cy="458.95" rx="1.5" ry="1.49878" fill="#FF3294"/>
<ellipse cx="315.98" cy="458.95" rx="1.5" ry="1.49878" fill="#FF3294"/>
<ellipse cx="353.279" cy="458.95" rx="1.5" ry="1.49878" fill="#FF3294"/>
<ellipse cx="390.578" cy="458.95" rx="1.5" ry="1.49878" fill="#FF3294"/>
<ellipse cx="427.879" cy="458.95" rx="1.5" ry="1.49878" fill="#FF3294"/>
<ellipse cx="539.775" cy="458.95" rx="1.5" ry="1.49878" fill="#FF3294"/>
<ellipse cx="502.477" cy="458.95" rx="1.5" ry="1.49878" fill="#FF3294"/>
<ellipse cx="465.178" cy="458.95" rx="1.5" ry="1.49878" fill="#FF3294"/>
<ellipse cx="17.584" cy="422.746" rx="1.5" ry="1.49878" fill="#FF3294"/>
<ellipse cx="577.076" cy="422.746" rx="1.5" ry="1.49878" fill="#FF3294"/>
<ellipse cx="614.375" cy="422.746" rx="1.5" ry="1.49878" fill="#FF3294"/>
<ellipse cx="54.8828" cy="422.746" rx="1.5" ry="1.49878" fill="#FF3294"/>
<ellipse cx="92.1836" cy="422.746" rx="1.5" ry="1.49878" fill="#FF3294"/>
<ellipse cx="129.482" cy="422.746" rx="1.5" ry="1.49878" fill="#FF3294"/>
<ellipse cx="166.781" cy="422.746" rx="1.5" ry="1.49878" fill="#FF3294"/>
<ellipse cx="204.082" cy="422.746" rx="1.5" ry="1.49878" fill="#FF3294"/>
<ellipse cx="241.381" cy="422.746" rx="1.5" ry="1.49878" fill="#FF3294"/>
<ellipse cx="278.68" cy="422.746" rx="1.5" ry="1.49878" fill="#FF3294"/>
<ellipse cx="315.98" cy="422.746" rx="1.5" ry="1.49878" fill="#FF3294"/>
<ellipse cx="353.279" cy="422.746" rx="1.5" ry="1.49878" fill="#FF3294"/>
<ellipse cx="390.578" cy="422.746" rx="1.5" ry="1.49878" fill="#FF3294"/>
<ellipse cx="427.879" cy="422.746" rx="1.5" ry="1.49878" fill="#FF3294"/>
<ellipse cx="539.775" cy="422.746" rx="1.5" ry="1.49878" fill="#FF3294"/>
<ellipse cx="502.477" cy="422.746" rx="1.5" ry="1.49878" fill="#FF3294"/>
<ellipse cx="465.178" cy="422.746" rx="1.5" ry="1.49878" fill="#FF3294"/>
<ellipse cx="17.584" cy="386.542" rx="1.5" ry="1.49878" fill="#FF3294"/>
<ellipse cx="577.076" cy="386.542" rx="1.5" ry="1.49878" fill="#FF3294"/>
<ellipse cx="614.375" cy="386.542" rx="1.5" ry="1.49878" fill="#FF3294"/>
<ellipse cx="54.8828" cy="386.542" rx="1.5" ry="1.49878" fill="#FF3294"/>
<ellipse cx="92.1836" cy="386.542" rx="1.5" ry="1.49878" fill="#FF3294"/>
<ellipse cx="129.482" cy="386.542" rx="1.5" ry="1.49878" fill="#FF3294"/>
<ellipse cx="166.781" cy="386.542" rx="1.5" ry="1.49878" fill="#FF3294"/>
<ellipse cx="204.082" cy="386.542" rx="1.5" ry="1.49878" fill="#FF3294"/>
<ellipse cx="241.381" cy="386.542" rx="1.5" ry="1.49878" fill="#FF3294"/>
<ellipse cx="278.68" cy="386.542" rx="1.5" ry="1.49878" fill="#FF3294"/>
<ellipse cx="315.98" cy="386.542" rx="1.5" ry="1.49878" fill="#FF3294"/>
<ellipse cx="353.279" cy="386.542" rx="1.5" ry="1.49878" fill="#FF3294"/>
<ellipse cx="390.578" cy="386.542" rx="1.5" ry="1.49878" fill="#FF3294"/>
<ellipse cx="427.879" cy="386.542" rx="1.5" ry="1.49878" fill="#FF3294"/>
<ellipse cx="539.775" cy="386.542" rx="1.5" ry="1.49878" fill="#FF3294"/>
<ellipse cx="502.477" cy="386.542" rx="1.5" ry="1.49878" fill="#FF3294"/>
<ellipse cx="465.178" cy="386.542" rx="1.5" ry="1.49878" fill="#FF3294"/>
<ellipse cx="17.584" cy="350.338" rx="1.5" ry="1.49878" fill="#FF3294"/>
<ellipse cx="577.076" cy="350.338" rx="1.5" ry="1.49878" fill="#FF3294"/>
<ellipse cx="614.375" cy="350.338" rx="1.5" ry="1.49878" fill="#FF3294"/>
<ellipse cx="54.8828" cy="350.338" rx="1.5" ry="1.49878" fill="#FF3294"/>
<ellipse cx="92.1836" cy="350.338" rx="1.5" ry="1.49878" fill="#FF3294"/>
<ellipse cx="129.482" cy="350.338" rx="1.5" ry="1.49878" fill="#FF3294"/>
<ellipse cx="166.781" cy="350.338" rx="1.5" ry="1.49878" fill="#FF3294"/>
<ellipse cx="204.082" cy="350.338" rx="1.5" ry="1.49878" fill="#FF3294"/>
<ellipse cx="241.381" cy="350.338" rx="1.5" ry="1.49878" fill="#FF3294"/>
<ellipse cx="278.68" cy="350.338" rx="1.5" ry="1.49878" fill="#FF3294"/>
<ellipse cx="315.98" cy="350.338" rx="1.5" ry="1.49878" fill="#FF3294"/>
<ellipse cx="353.279" cy="350.338" rx="1.5" ry="1.49878" fill="#FF3294"/>
<ellipse cx="390.578" cy="350.338" rx="1.5" ry="1.49878" fill="#FF3294"/>
<ellipse cx="427.879" cy="350.338" rx="1.5" ry="1.49878" fill="#FF3294"/>
<ellipse cx="539.775" cy="350.338" rx="1.5" ry="1.49878" fill="#FF3294"/>
<ellipse cx="502.477" cy="350.338" rx="1.5" ry="1.49878" fill="#FF3294"/>
<ellipse cx="465.178" cy="350.338" rx="1.5" ry="1.49878" fill="#FF3294"/>
<ellipse cx="17.584" cy="314.133" rx="1.5" ry="1.49878" fill="#FF3294"/>
<ellipse cx="577.076" cy="314.133" rx="1.5" ry="1.49878" fill="#FF3294"/>
<ellipse cx="614.375" cy="314.133" rx="1.5" ry="1.49878" fill="#FF3294"/>
<ellipse cx="54.8828" cy="314.133" rx="1.5" ry="1.49878" fill="#FF3294"/>
<ellipse cx="92.1836" cy="314.133" rx="1.5" ry="1.49878" fill="#FF3294"/>
<ellipse cx="129.482" cy="314.133" rx="1.5" ry="1.49878" fill="#FF3294"/>
<ellipse cx="166.781" cy="314.133" rx="1.5" ry="1.49878" fill="#FF3294"/>
<ellipse cx="204.082" cy="314.133" rx="1.5" ry="1.49878" fill="#FF3294"/>
<ellipse cx="241.381" cy="314.133" rx="1.5" ry="1.49878" fill="#FF3294"/>
<ellipse cx="278.68" cy="314.133" rx="1.5" ry="1.49878" fill="#FF3294"/>
<ellipse cx="315.98" cy="314.133" rx="1.5" ry="1.49878" fill="#FF3294"/>
<ellipse cx="353.279" cy="314.133" rx="1.5" ry="1.49878" fill="#FF3294"/>
<ellipse cx="390.578" cy="314.133" rx="1.5" ry="1.49878" fill="#FF3294"/>
<ellipse cx="427.879" cy="314.133" rx="1.5" ry="1.49878" fill="#FF3294"/>
<ellipse cx="539.775" cy="314.133" rx="1.5" ry="1.49878" fill="#FF3294"/>
<ellipse cx="502.477" cy="314.133" rx="1.5" ry="1.49878" fill="#FF3294"/>
<ellipse cx="465.178" cy="314.133" rx="1.5" ry="1.49878" fill="#FF3294"/>
<ellipse cx="17.584" cy="277.929" rx="1.5" ry="1.49878" fill="#FF3294"/>
<ellipse cx="577.076" cy="277.929" rx="1.5" ry="1.49878" fill="#FF3294"/>
<ellipse cx="614.375" cy="277.929" rx="1.5" ry="1.49878" fill="#FF3294"/>
<ellipse cx="54.8828" cy="277.929" rx="1.5" ry="1.49878" fill="#FF3294"/>
<ellipse cx="92.1836" cy="277.929" rx="1.5" ry="1.49878" fill="#FF3294"/>
<ellipse cx="129.482" cy="277.929" rx="1.5" ry="1.49878" fill="#FF3294"/>
<ellipse cx="166.781" cy="277.929" rx="1.5" ry="1.49878" fill="#FF3294"/>
<ellipse cx="204.082" cy="277.929" rx="1.5" ry="1.49878" fill="#FF3294"/>
<ellipse cx="241.381" cy="277.929" rx="1.5" ry="1.49878" fill="#FF3294"/>
<ellipse cx="278.68" cy="277.929" rx="1.5" ry="1.49878" fill="#FF3294"/>
<ellipse cx="315.98" cy="277.929" rx="1.5" ry="1.49878" fill="#FF3294"/>
<ellipse cx="353.279" cy="277.929" rx="1.5" ry="1.49878" fill="#FF3294"/>
<ellipse cx="390.578" cy="277.929" rx="1.5" ry="1.49878" fill="#FF3294"/>
<ellipse cx="427.879" cy="277.929" rx="1.5" ry="1.49878" fill="#FF3294"/>
<ellipse cx="539.775" cy="277.929" rx="1.5" ry="1.49878" fill="#FF3294"/>
<ellipse cx="502.477" cy="277.929" rx="1.5" ry="1.49878" fill="#FF3294"/>
<ellipse cx="465.178" cy="277.929" rx="1.5" ry="1.49878" fill="#FF3294"/>
<ellipse cx="17.584" cy="241.725" rx="1.5" ry="1.49878" fill="#FF3294"/>
<ellipse cx="577.076" cy="241.725" rx="1.5" ry="1.49878" fill="#FF3294"/>
<ellipse cx="614.375" cy="241.725" rx="1.5" ry="1.49878" fill="#FF3294"/>
<ellipse cx="54.8828" cy="241.725" rx="1.5" ry="1.49878" fill="#FF3294"/>
<ellipse cx="92.1836" cy="241.725" rx="1.5" ry="1.49878" fill="#FF3294"/>
<ellipse cx="129.482" cy="241.725" rx="1.5" ry="1.49878" fill="#FF3294"/>
<ellipse cx="166.781" cy="241.725" rx="1.5" ry="1.49878" fill="#FF3294"/>
<ellipse cx="204.082" cy="241.725" rx="1.5" ry="1.49878" fill="#FF3294"/>
<ellipse cx="241.381" cy="241.725" rx="1.5" ry="1.49878" fill="#FF3294"/>
<ellipse cx="278.68" cy="241.725" rx="1.5" ry="1.49878" fill="#FF3294"/>
<ellipse cx="315.98" cy="241.725" rx="1.5" ry="1.49878" fill="#FF3294"/>
<ellipse cx="353.279" cy="241.725" rx="1.5" ry="1.49878" fill="#FF3294"/>
<ellipse cx="390.578" cy="241.725" rx="1.5" ry="1.49878" fill="#FF3294"/>
<ellipse cx="427.879" cy="241.725" rx="1.5" ry="1.49878" fill="#FF3294"/>
<ellipse cx="539.775" cy="241.725" rx="1.5" ry="1.49878" fill="#FF3294"/>
<ellipse cx="502.477" cy="241.725" rx="1.5" ry="1.49878" fill="#FF3294"/>
<ellipse cx="465.178" cy="241.725" rx="1.5" ry="1.49878" fill="#FF3294"/>
<ellipse cx="17.584" cy="205.52" rx="1.5" ry="1.49878" fill="#FF3294"/>
<ellipse cx="577.076" cy="205.52" rx="1.5" ry="1.49878" fill="#FF3294"/>
<ellipse cx="614.375" cy="205.52" rx="1.5" ry="1.49878" fill="#FF3294"/>
<ellipse cx="54.8828" cy="205.52" rx="1.5" ry="1.49878" fill="#FF3294"/>
<ellipse cx="92.1836" cy="205.52" rx="1.5" ry="1.49878" fill="#FF3294"/>
<ellipse cx="129.482" cy="205.52" rx="1.5" ry="1.49878" fill="#FF3294"/>
<ellipse cx="166.781" cy="205.52" rx="1.5" ry="1.49878" fill="#FF3294"/>
<ellipse cx="204.082" cy="205.52" rx="1.5" ry="1.49878" fill="#FF3294"/>
<ellipse cx="241.381" cy="205.52" rx="1.5" ry="1.49878" fill="#FF3294"/>
<ellipse cx="278.68" cy="205.52" rx="1.5" ry="1.49878" fill="#FF3294"/>
<ellipse cx="315.98" cy="205.52" rx="1.5" ry="1.49878" fill="#FF3294"/>
<ellipse cx="353.279" cy="205.52" rx="1.5" ry="1.49878" fill="#FF3294"/>
<ellipse cx="390.578" cy="205.52" rx="1.5" ry="1.49878" fill="#FF3294"/>
<ellipse cx="427.879" cy="205.52" rx="1.5" ry="1.49878" fill="#FF3294"/>
<ellipse cx="539.775" cy="205.52" rx="1.5" ry="1.49878" fill="#FF3294"/>
<ellipse cx="502.477" cy="205.52" rx="1.5" ry="1.49878" fill="#FF3294"/>
<ellipse cx="465.178" cy="205.52" rx="1.5" ry="1.49878" fill="#FF3294"/>
<ellipse cx="17.584" cy="169.316" rx="1.5" ry="1.49878" fill="#FF3294"/>
<ellipse cx="577.076" cy="169.316" rx="1.5" ry="1.49878" fill="#FF3294"/>
<ellipse cx="614.375" cy="169.316" rx="1.5" ry="1.49878" fill="#FF3294"/>
<ellipse cx="54.8828" cy="169.316" rx="1.5" ry="1.49878" fill="#FF3294"/>
<ellipse cx="92.1836" cy="169.316" rx="1.5" ry="1.49878" fill="#FF3294"/>
<ellipse cx="129.482" cy="169.316" rx="1.5" ry="1.49878" fill="#FF3294"/>
<ellipse cx="166.781" cy="169.316" rx="1.5" ry="1.49878" fill="#FF3294"/>
<ellipse cx="204.082" cy="169.316" rx="1.5" ry="1.49878" fill="#FF3294"/>
<ellipse cx="241.381" cy="169.316" rx="1.5" ry="1.49878" fill="#FF3294"/>
<ellipse cx="278.68" cy="169.316" rx="1.5" ry="1.49878" fill="#FF3294"/>
<ellipse cx="315.98" cy="169.316" rx="1.5" ry="1.49878" fill="#FF3294"/>
<ellipse cx="353.279" cy="169.316" rx="1.5" ry="1.49878" fill="#FF3294"/>
<ellipse cx="390.578" cy="169.316" rx="1.5" ry="1.49878" fill="#FF3294"/>
<ellipse cx="427.879" cy="169.316" rx="1.5" ry="1.49878" fill="#FF3294"/>
<ellipse cx="539.775" cy="169.316" rx="1.5" ry="1.49878" fill="#FF3294"/>
<ellipse cx="502.477" cy="169.316" rx="1.5" ry="1.49878" fill="#FF3294"/>
<ellipse cx="465.178" cy="169.316" rx="1.5" ry="1.49878" fill="#FF3294"/>
<ellipse cx="17.584" cy="133.112" rx="1.5" ry="1.49878" fill="#FF3294"/>
<ellipse cx="577.076" cy="133.112" rx="1.5" ry="1.49878" fill="#FF3294"/>
<ellipse cx="614.375" cy="133.112" rx="1.5" ry="1.49878" fill="#FF3294"/>
<ellipse cx="54.8828" cy="133.112" rx="1.5" ry="1.49878" fill="#FF3294"/>
<ellipse cx="92.1836" cy="133.112" rx="1.5" ry="1.49878" fill="#FF3294"/>
<ellipse cx="129.482" cy="133.112" rx="1.5" ry="1.49878" fill="#FF3294"/>
<ellipse cx="166.781" cy="133.112" rx="1.5" ry="1.49878" fill="#FF3294"/>
<ellipse cx="204.082" cy="133.112" rx="1.5" ry="1.49878" fill="#FF3294"/>
<ellipse cx="241.381" cy="133.112" rx="1.5" ry="1.49878" fill="#FF3294"/>
<ellipse cx="278.68" cy="133.112" rx="1.5" ry="1.49878" fill="#FF3294"/>
<ellipse cx="315.98" cy="133.112" rx="1.5" ry="1.49878" fill="#FF3294"/>
<ellipse cx="353.279" cy="133.112" rx="1.5" ry="1.49878" fill="#FF3294"/>
<ellipse cx="390.578" cy="133.112" rx="1.5" ry="1.49878" fill="#FF3294"/>
<ellipse cx="427.879" cy="133.112" rx="1.5" ry="1.49878" fill="#FF3294"/>
<ellipse cx="539.775" cy="133.112" rx="1.5" ry="1.49878" fill="#FF3294"/>
<ellipse cx="502.477" cy="133.112" rx="1.5" ry="1.49878" fill="#FF3294"/>
<ellipse cx="465.178" cy="133.112" rx="1.5" ry="1.49878" fill="#FF3294"/>
<ellipse cx="17.584" cy="96.9075" rx="1.5" ry="1.49878" fill="#FF3294"/>
<ellipse cx="577.076" cy="96.9075" rx="1.5" ry="1.49878" fill="#FF3294"/>
<ellipse cx="614.375" cy="96.9075" rx="1.5" ry="1.49878" fill="#FF3294"/>
<ellipse cx="54.8828" cy="96.9075" rx="1.5" ry="1.49878" fill="#FF3294"/>
<ellipse cx="92.1836" cy="96.9075" rx="1.5" ry="1.49878" fill="#FF3294"/>
<ellipse cx="129.482" cy="96.9075" rx="1.5" ry="1.49878" fill="#FF3294"/>
<ellipse cx="166.781" cy="96.9075" rx="1.5" ry="1.49878" fill="#FF3294"/>
<ellipse cx="204.082" cy="96.9075" rx="1.5" ry="1.49878" fill="#FF3294"/>
<ellipse cx="241.381" cy="96.9075" rx="1.5" ry="1.49878" fill="#FF3294"/>
<ellipse cx="278.68" cy="96.9075" rx="1.5" ry="1.49878" fill="#FF3294"/>
<ellipse cx="315.98" cy="96.9075" rx="1.5" ry="1.49878" fill="#FF3294"/>
<ellipse cx="353.279" cy="96.9075" rx="1.5" ry="1.49878" fill="#FF3294"/>
<ellipse cx="390.578" cy="96.9075" rx="1.5" ry="1.49878" fill="#FF3294"/>
<ellipse cx="427.879" cy="96.9075" rx="1.5" ry="1.49878" fill="#FF3294"/>
<ellipse cx="539.775" cy="96.9075" rx="1.5" ry="1.49878" fill="#FF3294"/>
<ellipse cx="502.477" cy="96.9075" rx="1.5" ry="1.49878" fill="#FF3294"/>
<ellipse cx="465.178" cy="96.9075" rx="1.5" ry="1.49878" fill="#FF3294"/>
<ellipse cx="17.584" cy="60.7031" rx="1.5" ry="1.49878" fill="#FF3294"/>
<ellipse cx="577.076" cy="60.7031" rx="1.5" ry="1.49878" fill="#FF3294"/>
<ellipse cx="614.375" cy="60.7031" rx="1.5" ry="1.49878" fill="#FF3294"/>
<ellipse cx="54.8828" cy="60.7031" rx="1.5" ry="1.49878" fill="#FF3294"/>
<ellipse cx="92.1836" cy="60.7031" rx="1.5" ry="1.49878" fill="#FF3294"/>
<ellipse cx="129.482" cy="60.7031" rx="1.5" ry="1.49878" fill="#FF3294"/>
<ellipse cx="166.781" cy="60.7031" rx="1.5" ry="1.49878" fill="#FF3294"/>
<ellipse cx="204.082" cy="60.7031" rx="1.5" ry="1.49878" fill="#FF3294"/>
<ellipse cx="241.381" cy="60.7031" rx="1.5" ry="1.49878" fill="#FF3294"/>
<ellipse cx="278.68" cy="60.7031" rx="1.5" ry="1.49878" fill="#FF3294"/>
<ellipse cx="315.98" cy="60.7031" rx="1.5" ry="1.49878" fill="#FF3294"/>
<ellipse cx="353.279" cy="60.7031" rx="1.5" ry="1.49878" fill="#FF3294"/>
<ellipse cx="390.578" cy="60.7031" rx="1.5" ry="1.49878" fill="#FF3294"/>
<ellipse cx="427.879" cy="60.7031" rx="1.5" ry="1.49878" fill="#FF3294"/>
<ellipse cx="539.775" cy="60.7031" rx="1.5" ry="1.49878" fill="#FF3294"/>
<ellipse cx="502.477" cy="60.7031" rx="1.5" ry="1.49878" fill="#FF3294"/>
<ellipse cx="465.178" cy="60.7031" rx="1.5" ry="1.49878" fill="#FF3294"/>
<ellipse cx="17.584" cy="24.4988" rx="1.5" ry="1.49878" fill="#FF3294"/>
<ellipse cx="577.076" cy="24.4988" rx="1.5" ry="1.49878" fill="#FF3294"/>
<ellipse cx="614.375" cy="24.4988" rx="1.5" ry="1.49878" fill="#FF3294"/>
<ellipse cx="54.8828" cy="24.4988" rx="1.5" ry="1.49878" fill="#FF3294"/>
<ellipse cx="92.1836" cy="24.4988" rx="1.5" ry="1.49878" fill="#FF3294"/>
<ellipse cx="129.482" cy="24.4988" rx="1.5" ry="1.49878" fill="#FF3294"/>
<ellipse cx="166.781" cy="24.4988" rx="1.5" ry="1.49878" fill="#FF3294"/>
<ellipse cx="204.082" cy="24.4988" rx="1.5" ry="1.49878" fill="#FF3294"/>
<ellipse cx="241.381" cy="24.4988" rx="1.5" ry="1.49878" fill="#FF3294"/>
<ellipse cx="278.68" cy="24.4988" rx="1.5" ry="1.49878" fill="#FF3294"/>
<ellipse cx="315.98" cy="24.4988" rx="1.5" ry="1.49878" fill="#FF3294"/>
<ellipse cx="353.279" cy="24.4988" rx="1.5" ry="1.49878" fill="#FF3294"/>
<ellipse cx="390.578" cy="24.4988" rx="1.5" ry="1.49878" fill="#FF3294"/>
<ellipse cx="427.879" cy="24.4988" rx="1.5" ry="1.49878" fill="#FF3294"/>
<ellipse cx="539.775" cy="24.4988" rx="1.5" ry="1.49878" fill="#FF3294"/>
<ellipse cx="502.477" cy="24.4988" rx="1.5" ry="1.49878" fill="#FF3294"/>
<ellipse cx="465.178" cy="24.4988" rx="1.5" ry="1.49878" fill="#FF3294"/>
</g>
</svg>
