<svg width="122" height="110" viewBox="0 0 122 110" fill="none" xmlns="http://www.w3.org/2000/svg">
<mask id="mask0_1079_45" style="mask-type:alpha" maskUnits="userSpaceOnUse" x="0" y="0" width="122" height="111">
<rect y="110" width="110" height="122" transform="rotate(-90 0 110)" fill="white"/>
</mask>
<g mask="url(#mask0_1079_45)">
<circle cx="20" cy="101" r="2" transform="rotate(-90 20 101)" fill="white"/>
<circle cx="20" cy="63.0005" r="2" transform="rotate(-90 20 63.0005)" fill="white"/>
<circle cx="20" cy="25.0005" r="2" transform="rotate(-90 20 25.0005)" fill="white"/>
<circle cx="58" cy="101" r="2" transform="rotate(-90 58 101)" fill="white"/>
<circle cx="58" cy="63.0005" r="2" transform="rotate(-90 58 63.0005)" fill="white"/>
<circle cx="58" cy="25.0005" r="2" transform="rotate(-90 58 25.0005)" fill="white"/>
<circle cx="96" cy="101" r="2" transform="rotate(-90 96 101)" fill="white"/>
<circle cx="96" cy="63.0005" r="2" transform="rotate(-90 96 63.0005)" fill="white"/>
<circle cx="96" cy="25.0005" r="2" transform="rotate(-90 96 25.0005)" fill="white"/>
</g>
</svg>
