<svg width="70" height="76" viewBox="0 0 70 76" fill="none" xmlns="http://www.w3.org/2000/svg">
<path fill-rule="evenodd" clip-rule="evenodd" d="M24.9295 37.7393C25.0738 37.8392 25.1378 37.8836 25.2348 37.9503C25.0655 38.2163 24.8997 38.4766 24.732 38.7405C24.8222 38.8 24.8895 38.8445 24.9749 38.9006C24.8031 39.1597 24.6379 39.4089 24.4643 39.6701C24.5445 39.7254 24.6088 39.7696 24.6803 39.8188C24.6025 39.9996 24.5419 40.2035 24.4398 40.3566C24.3684 40.4632 24.2349 40.4924 24.1383 40.569C24.0356 40.6507 24.3038 40.9097 24.22 41.0818C24.1398 41.2454 24.0284 41.3741 23.8845 41.5167C24.0101 41.606 24.0712 41.6499 24.1749 41.724C24.005 41.9908 23.8399 42.2502 23.6728 42.5128C23.758 42.5676 23.827 42.6115 23.8953 42.6553C23.7042 43.0009 23.5137 43.3461 23.3108 43.7139C23.4278 43.7934 23.493 43.8379 23.5591 43.8827C23.3745 44.2353 23.1884 44.5902 22.9942 44.9618C23.1277 45.0558 23.19 45.0998 23.2391 45.1342C23.048 45.4925 22.8616 45.842 22.6673 46.2056C22.7874 46.2821 22.8562 46.3261 22.9225 46.3684C22.7319 46.7155 22.5425 47.0619 22.3409 47.4299C22.4577 47.5084 22.5236 47.5525 22.6005 47.6043C22.4105 47.944 22.2202 48.2834 22.0225 48.637C22.1357 48.7425 22.2093 48.811 22.3324 48.9259C22.0925 49.1007 21.7845 49.177 21.8149 49.6577C21.874 49.6954 21.943 49.7397 22.0252 49.7923C21.8422 50.023 21.6619 50.2521 21.4675 50.4979C21.6063 50.6278 21.6798 50.6969 21.8146 50.8233C21.3954 50.9709 21.1978 51.3583 21.1329 51.8971C21.2012 51.9418 21.269 51.986 21.3657 52.0487C21.3275 52.1044 21.315 52.1845 21.2668 52.1838C20.9929 52.1785 20.8945 52.3414 20.9339 52.7575C20.9381 52.8027 20.9021 52.8343 20.8686 52.8409C20.8185 52.8499 20.7082 52.7919 20.7031 52.8309C20.681 53.0113 20.6923 53.2424 20.4755 53.1554C20.2507 53.0652 20.0033 52.8019 19.7673 52.7026C19.7141 52.6803 19.6202 52.4879 19.5669 52.4069C19.3632 52.3916 19.191 52.3786 18.9322 52.3591C19.0604 51.9652 19.1582 51.6655 19.2669 51.3328C19.0127 51.2732 18.9944 51.4322 18.972 51.6282C18.9564 51.763 18.7917 51.7704 18.7002 51.8306C18.3212 51.3547 18.4967 51.1908 18.5517 51.0419C18.9224 50.0403 19.1236 48.8768 19.3674 47.7554C19.6293 46.5501 19.776 45.2346 20.0797 44.0714C20.2822 43.2946 20.4158 42.4532 20.639 41.7008C20.891 40.8526 21.0442 39.9081 21.3312 39.0973C21.5164 38.5733 21.5994 37.9532 21.7929 37.4332C21.9765 36.9399 22.1323 36.4024 22.2638 35.856C22.406 35.2641 22.5698 34.6949 22.7503 34.144C23.0876 33.1142 23.4043 32.0635 23.7553 31.0468C23.9861 30.3786 24.1841 29.6696 24.3969 28.9796C24.7078 27.9718 25.078 27.0259 25.373 26.0004C25.6292 25.1099 26.0228 24.3567 26.3094 23.495C26.5478 22.7796 26.824 22.1056 27.0805 21.4103C27.5407 20.161 27.9998 18.9105 28.478 17.6803C28.7854 16.8905 29.1289 16.136 29.4025 15.311C29.8117 14.0784 30.358 12.995 30.804 11.8053C31.0703 11.0937 31.3385 10.3868 31.6391 9.71181C32.0072 8.88671 32.2832 7.95914 32.6735 7.15978C33.2567 5.96434 33.7445 4.66683 34.2714 3.4112C34.668 2.46676 35.1225 1.58481 35.3759 0.487961C35.411 0.337156 35.551 0.286805 35.6342 0.198696C36.1074 0.683119 35.6506 0.776488 35.969 1.22468C36.0082 1.11902 36.0268 1.01236 36.0778 0.946843C36.1315 0.877675 36.2163 0.848235 36.3339 0.770839C36.4286 0.9979 36.4935 1.15338 36.559 1.30995C36.6794 1.35379 36.7835 1.25758 36.9693 1.57312C37.0624 1.73078 36.9996 2.00136 37.2724 2.06091C37.2792 2.08701 37.2929 2.11883 37.2913 2.13778C37.2778 2.27064 37.2734 2.4126 37.2434 2.52953C37.0895 3.13249 36.9868 3.79243 36.7561 4.31109C36.4404 5.02137 36.2283 5.83643 35.9328 6.56494C35.4889 7.65885 35.04 8.74717 34.6081 9.8538C34.3343 10.5554 34.0869 11.2851 33.8262 12.0062C33.9095 12.0595 33.9787 12.1041 34.048 12.1488C34.0514 12.178 34.0658 12.2206 34.0561 12.2308C34.0389 12.2491 33.5741 12.8025 33.5513 12.8499C33.4183 13.1249 33.2845 13.3994 33.144 13.6882C33.2698 13.7727 33.3358 13.817 33.5021 13.9284C33.3807 13.9571 33.3245 13.9795 33.2594 13.9828C33.188 13.9866 33.0601 13.9219 33.0404 13.9752C32.9095 14.3259 32.801 14.7002 32.685 15.0697C32.7709 15.1277 32.8363 15.1716 33.0049 15.2857C32.8801 15.3123 32.8228 15.3327 32.7576 15.3361C32.6865 15.3401 32.5601 15.2773 32.5403 15.3307C32.4096 15.6811 32.3011 16.0546 32.1845 16.4229C32.2715 16.4822 32.3369 16.5266 32.5076 16.6426C32.3792 16.6674 32.3213 16.6862 32.2559 16.6893C32.1848 16.6929 32.0601 16.6331 32.0402 16.6866C31.9096 17.036 31.8011 17.409 31.6845 17.7769C31.7727 17.8373 31.8372 17.8813 32.0106 17.9997C31.8787 18.023 31.8242 18.0702 31.7535 18.0364C31.6227 17.974 31.5742 17.9862 31.5341 18.1089C31.3118 18.7901 31.0615 19.4425 30.816 20.1169C30.9048 20.1755 30.9721 20.2195 31.0431 20.2662C31.1503 20.6758 30.5418 20.0677 30.6821 20.5925C30.7383 20.8027 30.533 20.9152 30.4351 21.0938C30.5473 21.1712 30.6112 21.2151 30.6728 21.2577C30.6788 21.3003 30.6915 21.352 30.6887 21.391C30.6876 21.4067 30.287 21.645 30.2797 21.6648C30.1029 22.1471 29.9261 22.6289 29.7461 23.1203C29.8489 23.1865 29.9182 23.2311 29.9891 23.2765C29.6535 23.5067 29.5442 23.6726 29.4238 24.1365C29.4943 24.1817 29.5632 24.2261 29.6314 24.2695C29.6286 24.3122 29.6443 24.3921 29.6203 24.3975C29.0451 24.5261 29.0633 25.3568 28.7864 25.8373C28.6405 26.0907 28.5998 26.4679 28.5113 26.7896C28.5928 26.8445 28.6584 26.8888 28.7275 26.9353C28.7148 26.9851 28.7203 27.0552 28.6925 27.0584C28.2381 27.1136 28.1351 27.6333 28.0302 28.0804C27.8953 28.6572 27.5727 29.0419 27.5606 29.7409C27.6079 29.7727 27.6743 29.8168 27.8058 29.9046L27.1922 30.3083C27.2698 30.4569 27.3153 30.5439 27.3731 30.6543C27.4422 30.9945 26.851 30.6864 27.2002 31.3778C27.1167 31.4327 27.0097 31.4844 26.9247 31.5666C26.8822 31.6081 26.838 31.727 26.867 31.7736C26.994 31.9771 26.9614 32.0277 26.8906 32.1071C26.7921 32.2165 26.4471 32.1016 26.7494 32.6181C26.7656 32.6459 26.702 32.7103 26.6697 32.7499C26.5715 32.8709 26.263 32.7915 26.5507 33.2777C26.4376 33.3846 26.3243 33.4911 26.2144 33.5944C26.2538 33.73 26.3509 33.9329 26.3203 33.985C26.2463 34.1122 26.1135 34.1704 26.0042 34.2559C26.3002 34.7649 25.9523 34.6819 25.8758 34.8219C25.8961 34.8847 25.9003 34.92 25.9125 34.9326C25.934 34.9547 25.9604 34.9603 25.9849 34.9785C26.0255 35.0085 26.0659 35.0431 26.1703 35.127L25.6053 35.4988C25.7495 35.5993 25.8125 35.6429 25.8786 35.6891C26.0164 36.0489 25.5225 35.7496 25.7081 36.1851C25.893 36.6191 25.534 36.4603 25.4633 36.62C25.3885 36.7899 25.3155 36.962 25.2308 37.1581C25.2197 37.125 25.225 37.1601 25.2371 37.1723C25.2588 37.1942 25.285 37.2 25.3091 37.2179C25.3493 37.2479 25.3896 37.2829 25.4938 37.3679L24.9295 37.7393Z" fill="black"/>
<path fill-rule="evenodd" clip-rule="evenodd" d="M62.9028 49.1955C64.8236 48.656 64.3152 48.4484 64.4367 48.7255C64.6056 48.7351 64.776 48.7446 65.0289 48.7591C65.0195 49.033 65.0137 49.2059 65.0075 49.3805C65.0554 49.412 65.1224 49.4562 65.1899 49.5005C65.1893 49.5423 65.2077 49.6189 65.1859 49.6291C64.6453 49.8791 64.394 50.533 63.8526 50.7905C63.3097 51.0491 62.777 51.3441 62.3642 51.7896C62.0276 52.152 61.6499 52.4441 61.2684 52.7374C61.1506 52.8276 60.9107 52.6829 60.8715 52.9507C60.8423 53.1512 60.6009 53.1649 60.4537 53.2617L59.9686 53.5809C59.8215 53.6777 59.674 53.7734 59.5277 53.8714C59.3818 53.9684 59.2367 54.0672 59.0948 54.1704C59.0843 54.1778 59.0998 54.2235 59.1122 54.3234C59.2739 54.2686 59.4103 54.2221 59.5465 54.1752C59.5709 54.2137 59.5951 54.2518 59.6194 54.2898C59.4712 54.3986 59.3249 54.5103 59.1738 54.6144C59.0146 54.7248 58.8519 54.8295 58.6884 54.9334C58.6607 54.9512 58.6217 54.981 58.5883 54.9565C58.1342 54.6207 57.9867 54.7961 57.9192 55.1657C57.8936 55.3041 57.7258 55.3126 57.6229 55.3803C56.2408 56.2897 54.8556 57.1945 53.481 58.1149C53.3314 58.2152 53.0589 58.1794 53.1434 58.5813C53.1468 58.5992 53.1171 58.6193 53.1015 58.6089C52.7828 58.3949 52.9317 58.9291 52.7301 58.8377C52.47 58.72 52.4073 58.8115 52.396 59.0557C52.3928 59.1306 52.2373 59.1028 52.137 59.0805C51.9966 59.0488 51.9232 58.9257 51.9315 58.7699C51.8922 58.7432 51.8424 58.6942 51.8162 58.6954C51.781 58.6975 51.7349 58.7278 51.7452 58.7643C51.7762 58.8745 51.8596 59.0094 51.8714 59.1045C51.8873 59.2312 51.8925 59.386 51.8344 59.4266C51.7341 59.4963 51.4956 59.4072 51.4701 59.5291C51.4294 59.7255 51.3452 59.7597 51.1639 59.74C51.0405 59.7268 51.0265 59.9638 50.9267 60.0342C50.5253 60.318 50.1092 60.58 49.7083 60.8438C49.5803 60.7374 49.4721 60.6474 49.3644 60.5581C49.3718 60.689 49.3795 60.8201 49.3934 61.0651C49.2795 61.2659 48.7638 61.1304 48.9818 61.8522C48.8516 61.7692 48.7309 61.6922 48.6236 61.6238C48.4048 62.051 48.086 62.3016 47.5952 62.2896C47.4611 62.8448 46.9131 62.7985 46.6345 63.142C46.5338 62.9725 46.4295 62.7738 46.4137 62.7738C46.2151 62.7707 46.404 63.0099 46.4775 63.2054L46.0102 63.5129C46.0722 63.6585 46.1214 63.7742 46.1737 63.8966C46.1395 63.8895 46.1046 63.8984 46.0719 63.872C45.8177 63.6682 45.6046 63.6562 45.5676 63.8463C45.4816 64.2923 45.1144 64.3277 44.8664 64.5346C44.6527 64.7127 44.4067 64.8445 44.2559 65.1293C44.4163 65.0651 44.5769 65.0013 44.7371 64.9368C44.4515 65.2068 44.3509 65.8024 43.7187 65.3682C43.5817 65.5293 43.4918 65.688 43.3588 65.7825C42.9454 66.0757 42.5157 66.3448 42.1013 66.6174C42.1753 66.7867 42.2255 66.9021 42.3012 67.0745C42.0866 66.9038 41.9118 66.7646 41.7371 66.6255C41.8685 66.8904 41.9663 67.1906 41.7245 67.0979C41.4687 66.9999 41.4762 67.1776 41.3866 67.3075C41.2226 67.5446 40.9415 67.637 40.7787 67.91C40.9111 67.8727 41.0435 67.8353 41.183 67.7966C41.2029 67.8666 41.2384 67.9466 41.2263 67.955C40.907 68.1741 40.6018 68.4167 40.2528 68.5886C39.9953 68.7152 39.6238 68.6506 39.4287 68.8898C39.3972 68.9289 39.3733 68.9779 39.3996 69.1053C39.5342 69.0529 39.6686 69.0002 39.8031 68.9474C39.4848 69.2672 39.2577 69.7088 38.7021 69.6741C38.4562 69.6588 38.3182 69.8972 38.1822 70.1229C38.2898 70.1098 38.3975 70.0967 38.5087 70.0832C38.5252 70.1396 38.5616 70.2199 38.5495 70.2283C38.407 70.331 38.2572 70.4225 38.1093 70.517C37.7824 70.1919 38.033 70.8293 37.7503 70.6602C37.5664 70.5506 37.6532 71.036 37.3023 70.846C37.1116 70.7432 36.9806 71.0173 36.8925 71.2411C37.0294 71.2022 37.1668 71.1639 37.3123 71.1226C37.3242 71.1966 37.352 71.2727 37.3361 71.2841C37.12 71.4357 36.8847 71.5595 36.6802 71.7279C36.2809 72.0559 35.843 72.3388 35.5303 72.7766C35.3617 73.0125 35.1519 73.1764 34.9645 73.3786C34.8034 73.5518 34.7065 73.8119 34.9701 74.3755C34.8935 74.4259 34.7638 74.599 34.7015 74.5372C34.4294 74.2662 34.2086 74.3645 33.9862 74.1238C33.7761 73.8961 33.6551 73.8629 33.4727 73.8129C33.1045 73.7118 32.7577 73.2833 32.5701 72.7665C32.4302 72.68 32.2889 72.5931 32.1505 72.5075C32.1106 72.4412 32.0504 72.3695 32.043 72.3251C31.9585 71.8376 32.024 71.5165 32.2439 71.2769C32.604 70.8845 32.8496 70.3391 33.3194 70.0901C33.3666 69.61 33.7722 69.6151 34.0011 69.3809C34.1804 69.1981 34.3256 68.9682 34.5152 68.8003C34.7002 68.6358 35.0177 68.6214 35.1054 68.364C35.2321 67.9941 35.5018 67.8528 35.7777 67.7267C36.1325 67.5647 36.256 67.1062 36.5818 66.9139C36.915 66.7163 37.3221 66.6011 37.5349 66.2553C37.9455 65.5878 38.7238 65.4712 39.1954 64.9166C39.78 64.229 40.646 63.9538 41.2376 63.2986C42.0341 62.4157 43.1167 61.9758 44.0176 61.259C44.128 61.1714 44.2536 61.1057 44.3691 61.025C44.4664 60.9572 44.6118 60.9414 44.5311 60.6746C44.7692 60.9224 44.6787 60.5371 44.8599 60.6128C44.9709 60.6591 44.9972 60.3947 45.0874 60.3048C45.1886 60.2049 45.3189 60.145 45.4365 60.0676L45.7452 59.8645L46.0981 59.6323L46.451 59.4001L46.7597 59.197C46.8773 59.1196 46.9844 59.0243 47.1152 58.9691C47.2701 58.9043 47.3446 58.7205 47.6178 58.8245C47.7493 58.8747 47.7675 58.5541 47.8823 58.4687C48.2365 58.207 48.6212 57.9905 48.9756 57.7291C49.1078 57.6323 49.3514 57.6679 49.272 57.2931C49.2196 57.0472 49.6303 57.5469 49.5533 57.178C49.5289 57.0616 49.7021 56.9256 49.7655 56.9793C50.1236 57.2815 49.8744 56.629 50.1111 56.8044C50.4465 57.0526 50.2678 56.6187 50.3728 56.5675C50.432 56.5384 50.5087 56.5372 50.5771 56.5228C50.6972 56.4982 50.9348 56.5302 50.9168 56.4383C50.8429 56.0632 51.1747 56.2601 51.2324 56.0596C51.2918 55.8514 51.5204 55.8095 51.6809 55.7039C54.5618 53.807 57.4495 51.9197 60.3187 50.0046C60.7012 49.7492 61.2265 49.6835 61.3621 49.0767C61.7831 49.2891 61.7274 48.7823 61.9379 48.6692C62.5899 48.3186 63.1848 47.8774 63.8443 47.4435C63.9138 47.5974 64.0322 47.8065 64.0126 47.8255C63.7393 48.088 63.5516 48.4595 63.2153 48.6465C62.5377 49.0237 61.9118 49.4825 61.2677 49.9124C61.2446 49.9281 61.2578 49.9988 61.2539 50.0441C61.303 50.0545 61.3585 50.0782 61.3999 50.0735C61.5034 50.0613 61.705 50.2123 61.648 49.9262C61.633 49.852 61.7544 49.8435 61.8132 49.8048C62.6647 49.2445 63.5161 48.6844 62.9028 49.1955C61.3952 50.2504 61.3759 50.2175 61.3568 50.185C61.1713 50.2004 60.9722 50.1914 60.8053 50.2406C60.7168 50.2669 60.2716 50.6068 60.1921 50.6319C60.1242 50.6531 60.0075 50.6678 60.0207 50.7404C60.0855 51.0999 59.8566 51.0842 59.7198 51.1752C57.6356 52.5563 55.5473 53.9313 53.4521 55.2953C53.3293 55.3757 53.2762 55.5994 53.0022 55.4255C52.95 55.3922 52.858 55.4199 52.8644 55.4631C52.9237 55.8445 52.6425 55.7862 52.5121 55.9185C52.2448 56.1892 51.8124 56.2243 51.684 56.7015C51.6477 56.8363 51.4413 56.8123 51.2997 56.8346C51.0269 56.8774 50.7734 56.946 50.6973 57.276C50.6707 57.3913 50.4141 57.1937 50.5144 57.4744C50.2121 57.2609 50.0532 57.4321 50.0237 57.6008C49.9749 57.8829 49.6392 57.6302 49.5855 57.8488C49.5758 57.8876 49.534 57.9048 49.5421 57.9502C49.5802 58.166 49.5029 58.162 49.3395 58.1201C49.1811 58.0796 49.0184 58.1458 48.9686 58.2819C48.9042 58.4586 48.7991 58.6311 48.6759 58.6549C48.4845 58.6921 48.4122 58.8599 48.2816 58.9609C47.258 59.7489 46.0576 60.2687 45.1564 61.2459C44.4836 61.975 43.4896 62.2402 42.8322 63.0174C42.234 63.7239 41.2926 63.9492 40.6955 64.6869C40.2248 65.2686 39.4325 65.4042 38.9997 66.0667C38.7989 66.374 38.401 66.4366 38.1405 66.6771C37.9017 66.898 37.5575 66.9451 37.4057 67.3278C37.2641 67.6845 36.8549 67.754 36.5678 67.9561C36.5236 67.9875 36.5006 68.051 36.468 68.0997C36.6081 68.1823 36.665 68.1496 36.7169 68.1098C37.2109 67.7326 37.7584 67.4428 38.1722 66.9371C38.6694 66.33 39.4736 66.1574 39.9604 65.505C40.4121 64.8996 41.2836 64.8669 41.6354 64.1009C41.6848 63.9932 42.0167 64.3418 41.8836 63.9587C42.1729 64.1902 42.0566 63.8186 42.1464 63.7538C42.8501 63.2472 43.6944 62.9458 44.2112 62.1646C44.2805 62.0599 44.4026 61.9311 44.5274 62.0007C44.8104 62.1584 44.625 61.7435 44.7882 61.755C44.9236 61.7645 45.0007 61.6353 45.1036 61.5676C45.692 61.1804 46.287 60.8031 46.8643 60.3997C47.0128 60.2959 47.2733 60.3246 47.219 59.9465C47.2131 59.9044 47.3614 59.9567 47.4279 59.9458C47.5162 59.9313 47.6779 59.9349 47.6623 59.8662C47.6014 59.5949 47.7748 59.7527 47.8595 59.7289C47.9437 59.705 47.9118 59.4799 47.9878 59.4299C48.1106 59.3491 48.1724 59.1304 48.4503 59.3393C48.401 59.0786 48.5472 59.0454 48.6587 58.9748C48.7718 58.9032 48.8464 58.7456 49.0891 58.9411C49.0014 58.6352 49.181 58.633 49.2919 58.5591C50.0245 58.0706 50.7843 57.6232 51.4901 57.0954C52.1845 56.5756 53.077 56.343 53.5489 55.4984C53.7503 55.6121 53.8042 55.4442 53.9138 55.3951C54.0556 55.3323 54.1163 55.1373 54.2459 55.0506C54.396 54.9504 54.4921 54.7374 54.7941 54.9131C54.7278 54.4987 55.0251 54.5417 55.1886 54.4323C57.1212 53.1414 59.0663 51.8691 61.0066 50.5897C61.1484 50.4964 61.2788 50.3857 62.9028 49.1955Z" fill="black"/>
<path fill-rule="evenodd" clip-rule="evenodd" d="M35.2574 49.7983C35.3603 50.1214 35.4043 50.2588 35.4611 50.4366L35.8829 50.159C35.8695 50.1312 35.856 50.1034 35.8427 50.0761C35.7875 50.0814 35.73 50.0825 35.6776 50.0926C35.6264 50.1023 35.5809 50.1215 35.5207 50.1404C35.4568 50.0288 35.3625 49.902 35.3696 49.8701C35.4032 49.7094 35.4382 49.5417 35.5195 49.4361C35.7017 49.1993 35.9171 49.0049 36.1076 48.7786C36.2021 48.6657 36.271 48.5194 36.348 48.394C36.7381 48.7015 36.3987 48.7369 36.5256 48.9568C36.9782 48.979 36.9003 48.288 37.2598 48.1882C36.9965 48.2168 36.7074 48.2049 36.6384 48.5905C36.602 48.4768 36.526 48.3276 36.5375 48.2571C36.5609 48.1126 36.6225 47.9997 36.6857 47.8942C36.7893 47.7222 37.0868 47.8107 37.0715 47.4745C37.0598 47.2122 37.3678 47.3312 37.3272 46.9883C37.3067 46.8158 37.5571 46.8046 37.7007 46.7101C37.9103 47.2857 37.5857 47.217 37.469 47.3831C37.3636 47.5327 37.2941 47.7273 37.286 48C37.5679 47.7318 37.9058 47.5297 38.1158 47.1759C38.3151 46.8395 38.4557 46.4327 38.6866 46.1127C38.4648 46.2257 38.2428 46.3389 38.0211 46.4519L37.9499 46.3437C38.2935 45.918 38.6374 45.4921 38.9812 45.0667C39.0168 45.11 39.0524 45.1538 39.0878 45.1971C38.955 45.4386 38.8225 45.6803 38.69 45.9216C38.9103 45.8438 39.2413 45.929 39.2109 45.4938C39.63 45.266 39.7374 44.5955 40.3072 44.5616L40.6978 45.1552C40.6689 45.2692 40.4465 45.1041 40.506 45.3637C40.534 45.4866 40.2622 45.3681 40.4148 45.6736C40.4562 45.7563 40.4565 45.9294 40.4332 45.9222C40.0486 45.806 40.0489 46.2642 39.8018 46.346C39.7247 46.3715 39.6159 46.3411 39.5018 46.3354C39.5746 46.4721 39.6657 46.6437 39.7571 46.8161C39.4947 46.6876 39.6373 47.2486 39.2904 46.9691C39.3513 47.1103 39.4012 47.2255 39.4687 47.3821C39.2353 47.3727 38.9363 47.242 38.8908 47.5669C38.9567 47.6128 39.0201 47.657 39.1784 47.7676C38.8557 47.8737 38.5769 47.9661 38.2885 48.0614C38.3242 48.3489 38.357 48.6162 38.383 48.8255C38.242 48.9135 37.9673 48.6222 38.0036 48.9863C38.0321 49.271 37.9177 49.4848 37.8094 49.6613C37.74 49.7747 37.5784 49.7884 37.4354 49.799C37.3337 49.8062 37.3811 50.0089 37.1751 49.9059C36.9596 49.7982 37.211 50.1556 37.2223 50.2863C37.2325 50.4078 37.2285 50.5589 37.1648 50.5886C36.9085 50.7065 36.853 51.1 36.5549 51.1543C36.5394 51.1569 36.5075 51.1281 36.4835 51.1139C36.5759 51.7976 36.0576 51.8126 35.9681 52.2727C35.8932 52.6569 35.4299 52.5277 35.4854 53.0356C35.0337 53.7269 34.4844 54.3016 34.1834 55.1732C33.7487 55.3301 33.7183 55.9851 33.4102 56.309C33.1259 56.6088 32.8853 57.0067 32.7325 57.4549C32.4556 58.2656 31.8635 58.7134 31.6903 59.6321C31.436 59.6748 31.4668 59.9848 31.491 60.3165C31.5043 60.4999 31.3743 60.5896 31.3199 60.6992C30.9298 60.5214 30.5526 60.1889 30.2474 60.1887C30.0906 59.8686 29.932 59.5455 29.7437 59.1617C30.0198 58.5182 30.2403 57.7564 30.6654 57.2136C30.8621 56.9621 30.9133 56.5258 31.106 56.2689C31.3456 55.9492 31.5135 55.5405 31.7711 55.253C32.0462 54.9452 32.2153 54.5183 32.4418 54.1588C32.5814 53.9369 32.7251 53.7004 32.8826 53.5127C33.1497 53.1951 33.2796 52.7203 33.5733 52.4368C33.7501 52.2665 33.8281 51.9619 33.9653 51.735C34.0586 51.5797 34.3244 51.6538 34.3069 51.3435C34.2918 51.0796 34.6634 51.2362 34.5362 50.8417C34.8408 50.7677 34.9383 50.4165 35.1283 50.1895C35.1779 50.1306 35.187 50.0194 35.2574 49.7983Z" fill="black"/>
</svg>
