<svg width="61" height="58" viewBox="0 0 61 58" fill="none" xmlns="http://www.w3.org/2000/svg">
<path fill-rule="evenodd" clip-rule="evenodd" d="M30.6367 35.2212C30.7084 35.1056 30.7402 35.0543 30.7881 34.9766C31.0022 35.1039 31.2119 35.2286 31.4244 35.3547C31.4669 35.2825 31.4987 35.2286 31.5387 35.1603C31.7477 35.2896 31.9486 35.4142 32.1593 35.5449C32.199 35.4807 32.2306 35.4292 32.2659 35.3719C32.4099 35.4291 32.5712 35.4724 32.6947 35.5493C32.7807 35.603 32.809 35.7074 32.8728 35.7817C32.9407 35.8607 33.1309 35.6442 33.2685 35.7063C33.3992 35.7658 33.5041 35.8506 33.6212 35.9606C33.6854 35.8599 33.717 35.8109 33.7702 35.7278C33.9851 35.8556 34.194 35.9797 34.4055 36.1054C34.4445 36.0372 34.4757 35.982 34.507 35.9274C34.7841 36.0701 35.0608 36.2123 35.3557 36.3638C35.4126 36.2701 35.4445 36.2179 35.4765 36.165C35.7588 36.3025 36.043 36.441 36.3404 36.5856C36.4079 36.4787 36.4395 36.4287 36.4642 36.3893C36.7512 36.5318 37.0311 36.6708 37.3224 36.8156C37.3768 36.7195 37.4081 36.6645 37.4383 36.6114C37.7165 36.7537 37.9941 36.8951 38.2891 37.0456C38.3453 36.952 38.3768 36.8993 38.4139 36.8376C38.6864 36.9797 38.9586 37.1219 39.2422 37.2696C39.3195 37.1783 39.3697 37.119 39.4539 37.0197C39.6001 37.2045 39.6726 37.445 40.0454 37.4107C40.0723 37.3634 40.1038 37.3081 40.1413 37.2424C40.3286 37.3812 40.5146 37.5181 40.7141 37.6655C40.8094 37.5536 40.86 37.4943 40.9527 37.3855C41.0853 37.7119 41.3953 37.8589 41.8174 37.8982C41.8493 37.8434 41.8808 37.7892 41.9256 37.7118C41.9705 37.7406 42.0334 37.7487 42.0349 37.7866C42.0423 38.0021 42.1733 38.0759 42.4955 38.0359C42.5305 38.0316 42.5567 38.0592 42.5632 38.0854C42.5723 38.1246 42.5318 38.2126 42.5625 38.2158C42.7038 38.2292 42.8832 38.2153 42.8246 38.3876C42.764 38.5664 42.5695 38.7666 42.5022 38.9543C42.4871 38.9966 42.3413 39.0746 42.2806 39.1183C42.2773 39.2788 42.2744 39.4145 42.2702 39.6184C41.9582 39.5262 41.7208 39.4558 41.4572 39.3776C41.4216 39.5787 41.5461 39.5896 41.6997 39.603C41.8052 39.6123 41.8179 39.7416 41.8687 39.8123C41.5143 40.1207 41.3794 39.9862 41.2611 39.9462C40.4658 39.6766 39.5517 39.5437 38.6684 39.3764C37.7192 39.1967 36.6891 39.11 35.7708 38.8966C35.1576 38.7542 34.4971 38.6675 33.902 38.5084C33.231 38.3287 32.4894 38.2289 31.8462 38.0208C31.4305 37.8866 30.9443 37.8348 30.5313 37.694C30.1396 37.5604 29.7147 37.4496 29.2838 37.3581C28.817 37.2592 28.3671 37.1427 27.9307 37.0128C27.1148 36.7701 26.2836 36.5439 25.4773 36.2901C24.9475 36.1231 24.3872 35.9829 23.8411 35.8306C23.0435 35.6081 22.2916 35.3376 21.4809 35.128C20.7769 34.946 20.174 34.6529 19.4911 34.4462C18.9242 34.2744 18.3879 34.0719 17.8358 33.8854C16.8439 33.5508 15.8512 33.217 14.8734 32.8677C14.2456 32.6433 13.6437 32.3896 12.9901 32.1925C12.0133 31.8976 11.1469 31.4916 10.202 31.1668C9.6368 30.9729 9.07526 30.7774 8.53712 30.5558C7.87931 30.2844 7.14563 30.0875 6.50691 29.798C5.55173 29.3655 4.52114 29.0102 3.52149 28.6233C2.76958 28.332 2.06386 27.9939 1.19938 27.8184C1.08051 27.7942 1.03539 27.6852 0.963281 27.6216C1.32029 27.2391 1.41232 27.5962 1.74769 27.3362C1.66378 27.3076 1.57997 27.2953 1.52682 27.2566C1.4707 27.2159 1.4442 27.1499 1.37897 27.0591C1.5517 26.9797 1.66996 26.9252 1.78906 26.8704C1.81808 26.7747 1.73879 26.695 1.97651 26.542C2.09529 26.4654 2.30856 26.5089 2.34335 26.2931C2.36338 26.2872 2.38757 26.2757 2.40239 26.2766C2.50637 26.2843 2.61705 26.2847 2.70934 26.3057C3.18517 26.4136 3.70319 26.48 4.11667 26.6501C4.68289 26.8828 5.32628 27.0319 5.90584 27.2483C6.7761 27.5735 7.64222 27.9029 8.52186 28.2183C9.07953 28.4183 9.65802 28.5969 10.2304 28.7862C10.2683 28.7196 10.3001 28.6642 10.3319 28.6088C10.3545 28.6054 10.3871 28.5932 10.3954 28.6006C10.4104 28.6137 10.8608 28.9671 10.8987 28.984C11.1183 29.0826 11.3377 29.1818 11.5684 29.286C11.6288 29.1853 11.6606 29.1324 11.7402 28.9992C11.7677 29.0941 11.7875 29.1378 11.7929 29.1888C11.7989 29.2449 11.7539 29.3469 11.7962 29.3612C12.0747 29.4565 12.3706 29.5337 12.6631 29.6168C12.7047 29.548 12.7361 29.4957 12.8177 29.3606C12.8438 29.4581 12.862 29.5028 12.8675 29.5539C12.8736 29.6097 12.83 29.7105 12.8724 29.725C13.1507 29.82 13.446 29.8973 13.7377 29.9809C13.7801 29.9112 13.8119 29.8588 13.8949 29.7221C13.9197 29.8225 13.9368 29.8676 13.942 29.9189C13.9478 29.9748 13.9065 30.0741 13.949 30.0887C14.2265 30.1837 14.5214 30.2609 14.8127 30.3445C14.856 30.2739 14.8875 30.2223 14.9723 30.0833C14.9961 30.1865 15.0351 30.2283 15.0118 30.2847C14.9687 30.3888 14.9803 30.4267 15.0775 30.4556C15.6172 30.6155 16.1355 30.7981 16.6709 30.9765C16.7127 30.9054 16.7441 30.8516 16.7775 30.7947C17.0917 30.7015 16.6442 31.1932 17.0467 31.0714C17.2079 31.0226 17.3042 31.1816 17.4473 31.2547C17.5029 31.1648 17.5344 31.1136 17.5649 31.0642C17.5978 31.0586 17.6375 31.0475 17.668 31.0489C17.6803 31.0493 17.8827 31.3591 17.8984 31.3645C18.2813 31.493 18.6638 31.6215 19.0539 31.7524C19.101 31.67 19.1328 31.6146 19.1652 31.5579C19.3586 31.8167 19.4923 31.8991 19.8585 31.9836C19.8907 31.9272 19.9224 31.8721 19.9533 31.8175C19.9866 31.8187 20.0481 31.8047 20.0534 31.8234C20.1778 32.2729 20.8237 32.2405 21.2094 32.4478C21.4127 32.5569 21.7081 32.5807 21.9623 32.6433C22.0015 32.578 22.0332 32.5255 22.0665 32.4702C22.1057 32.4791 22.1601 32.4732 22.1638 32.495C22.226 32.8511 22.6349 32.9208 22.9873 32.9935C23.442 33.087 23.7551 33.3323 24.2996 33.3266C24.3224 33.2887 24.3539 33.2355 24.4167 33.1303L24.7569 33.6039C24.8693 33.5396 24.9351 33.502 25.0186 33.4542C25.2804 33.3924 25.0657 33.864 25.589 33.5744C25.6353 33.6388 25.68 33.7218 25.7477 33.7869C25.7818 33.8193 25.8762 33.8515 25.9112 33.8277C26.0642 33.7234 26.105 33.7479 26.1698 33.8019C26.2591 33.8769 26.1843 34.1507 26.5735 33.9018C26.5945 33.8884 26.6473 33.937 26.6795 33.9616C26.7779 34.0362 26.7291 34.2804 27.0954 34.0436C27.1833 34.1302 27.271 34.217 27.3561 34.3011C27.46 34.2672 27.6138 34.1864 27.6557 34.2094C27.7578 34.2648 27.8087 34.3679 27.8799 34.452C28.2635 34.2083 28.2137 34.4836 28.3259 34.5406C28.3739 34.5234 28.4012 34.5193 28.4105 34.5094C28.4267 34.4921 28.43 34.4712 28.4431 34.4515C28.4648 34.4189 28.49 34.3864 28.5509 34.3025L28.8642 34.7386C28.9363 34.623 28.9676 34.5726 29.0007 34.5196C29.275 34.4034 29.063 34.7983 29.394 34.6429C29.724 34.488 29.6156 34.7738 29.7429 34.8258C29.8783 34.881 30.0153 34.9346 30.1716 34.9969C30.1463 35.0064 30.1734 35.0015 30.1824 34.9917C30.1985 34.9742 30.2019 34.9534 30.2149 34.9341C30.2365 34.9019 30.262 34.8693 30.3238 34.7856L30.6367 35.2212Z" fill="white"/>
<path fill-rule="evenodd" clip-rule="evenodd" d="M38.8499 7.45318C38.3486 5.95466 38.2086 6.35894 38.4191 6.25735C38.4195 6.12438 38.4197 5.99018 38.4202 5.791C38.6338 5.79243 38.7687 5.79326 38.9048 5.79431C38.9273 5.75601 38.9588 5.70231 38.9905 5.6483C39.023 5.64786 39.0819 5.6317 39.0907 5.64865C39.3082 6.06823 39.8278 6.25164 40.0512 6.6717C40.2754 7.09288 40.5277 7.50529 40.8919 7.82022C41.1882 8.07696 41.4316 8.36752 41.6761 8.66112C41.7513 8.75177 41.6488 8.94352 41.8589 8.96854C42.0162 8.98713 42.037 9.17663 42.1187 9.29028L42.3877 9.66473C42.4692 9.77827 42.5499 9.89221 42.6325 10.005C42.7142 10.1177 42.7972 10.2296 42.8835 10.339C42.8897 10.347 42.9246 10.3339 43.0018 10.3219C42.9524 10.196 42.9104 10.0898 42.8681 9.98364C42.897 9.96365 42.9257 9.94382 42.9542 9.92387C43.0452 10.038 43.1384 10.1506 43.2258 10.2671C43.3185 10.3899 43.4069 10.5156 43.4946 10.6419C43.5096 10.6633 43.5345 10.6933 43.5168 10.72C43.2747 11.0844 43.4175 11.1966 43.708 11.2416C43.8168 11.2587 43.8305 11.3905 43.8876 11.4699C44.654 12.5368 45.4169 13.6061 46.1915 14.6669C46.276 14.7824 46.2596 14.9974 46.5689 14.9222C46.5827 14.9191 46.5995 14.9421 46.5921 14.9546C46.439 15.2098 46.8486 15.0811 46.786 15.2416C46.7054 15.4487 46.7792 15.496 46.9698 15.4996C47.0282 15.5004 47.0132 15.6233 47 15.7026C46.9814 15.8137 46.8886 15.8741 46.767 15.8709C46.7479 15.9025 46.7119 15.9427 46.7139 15.9632C46.717 15.9909 46.7426 16.0265 46.7705 16.0176C46.855 15.9908 46.9564 15.9223 47.03 15.911C47.1279 15.8957 47.2482 15.8882 47.2823 15.9331C47.3408 16.0103 47.2815 16.1999 47.3775 16.2172C47.5321 16.245 47.5623 16.3104 47.5546 16.4534C47.5496 16.5507 47.7347 16.5566 47.7936 16.6335C48.0316 16.9429 48.2531 17.2643 48.4755 17.5738C48.398 17.6768 48.3326 17.7638 48.2676 17.8504C48.3692 17.8418 48.471 17.8329 48.661 17.8166C48.8221 17.9017 48.7385 18.3102 49.2911 18.1231C49.232 18.2273 49.1772 18.3238 49.1285 18.4097C49.4703 18.5724 49.6788 18.8176 49.6903 19.2038C50.1281 19.2972 50.1153 19.729 50.3945 19.9406C50.2668 20.0235 50.1166 20.1098 50.1172 20.1222C50.1232 20.2784 50.3014 20.1247 50.4505 20.0627L50.7096 20.4234C50.8203 20.3715 50.9083 20.3303 51.0014 20.2865C50.9973 20.3135 51.0057 20.3408 50.9865 20.367C50.8386 20.5714 50.8383 20.7391 50.9879 20.7641C51.3387 20.822 51.3818 21.1099 51.5533 21.3005C51.701 21.4646 51.814 21.6551 52.0421 21.7675C51.9853 21.6428 51.9288 21.5179 51.8718 21.3934C52.0941 21.612 52.5619 21.6781 52.2508 22.1847C52.3819 22.2889 52.5093 22.3561 52.5885 22.4586C52.8342 22.7773 53.0619 23.1093 53.2916 23.4292C53.4202 23.3673 53.5079 23.3253 53.6389 23.262C53.5151 23.4345 53.4142 23.5749 53.3133 23.7154C53.514 23.6063 53.7435 23.5229 53.6816 23.715C53.6161 23.9182 53.7541 23.9085 53.859 23.9761C54.0505 24.0998 54.1344 24.3189 54.3537 24.441C54.3191 24.3377 54.2844 24.2344 54.2483 24.1255C54.302 24.1083 54.3628 24.0787 54.3698 24.088C54.5539 24.3343 54.7556 24.569 54.9042 24.8397C55.0137 25.0394 54.9791 25.3329 55.1735 25.481C55.2053 25.505 55.2445 25.5226 55.3425 25.4992C55.296 25.3945 55.2493 25.29 55.2025 25.1854C55.4649 25.4287 55.8183 25.5977 55.8148 26.0352C55.8133 26.2289 56.0047 26.3323 56.1861 26.4343C56.1714 26.35 56.1567 26.2655 56.1414 26.1784C56.1846 26.1642 56.2456 26.1339 56.2527 26.1432C56.3386 26.253 56.4162 26.3688 56.496 26.483C56.2568 26.7471 56.7423 26.5362 56.6227 26.7622C56.5451 26.9092 56.9193 26.8303 56.7862 27.1103C56.7143 27.2625 56.9332 27.3596 57.1111 27.424C57.075 27.3171 57.0395 27.21 57.0012 27.0964C57.0582 27.0855 57.1163 27.062 57.1259 27.0743C57.253 27.2408 57.3593 27.4231 57.499 27.5803C57.7712 27.8871 58.01 28.2252 58.364 28.4615C58.5548 28.589 58.6913 28.7504 58.8566 28.8933C58.9982 29.0162 59.2047 29.0867 59.6323 28.8673C59.6747 28.9263 59.815 29.0246 59.7695 29.0749C59.5701 29.2948 59.656 29.4662 59.478 29.6463C59.3097 29.8164 59.289 29.9123 59.2578 30.0568C59.1947 30.3485 58.8759 30.6305 58.4815 30.7892C58.4202 30.9011 58.3585 31.0141 58.2978 31.1248C58.2479 31.1576 58.1946 31.2065 58.1603 31.2133C57.7845 31.2903 57.5317 31.2458 57.336 31.0782C57.0152 30.8035 56.5803 30.6223 56.3666 30.2583C55.9909 30.2317 55.9777 29.9127 55.7857 29.7378C55.6359 29.6008 55.4507 29.4916 55.312 29.3462C55.1761 29.2043 55.1515 28.9551 54.9474 28.8917C54.6542 28.8001 54.5328 28.5912 54.4229 28.377C54.2818 28.1016 53.9197 28.0144 53.7562 27.7624C53.5883 27.5047 53.4814 27.1871 53.2032 27.0274C52.6663 26.7191 52.5425 26.1097 52.0909 25.7509C51.5309 25.3062 51.28 24.6314 50.745 24.1805C50.024 23.5735 49.6358 22.7318 49.0397 22.0391C48.9668 21.9542 48.9103 21.8569 48.8426 21.7678C48.7858 21.6928 48.7673 21.5788 48.5631 21.6481C48.7458 21.4555 48.4498 21.535 48.501 21.3909C48.5324 21.3027 48.3254 21.2877 48.2517 21.2187C48.1696 21.1414 48.1175 21.0402 48.0522 20.9494L47.8811 20.7111L47.6854 20.4387L47.4897 20.1663L47.3185 19.928C47.2533 19.8372 47.1746 19.7551 47.1261 19.6534C47.0691 19.533 46.9229 19.4785 46.9923 19.2614C47.0257 19.1569 46.7755 19.1496 46.7041 19.0612C46.4854 18.7884 46.3006 18.4906 46.0822 18.2177C46.0012 18.1159 46.0185 17.9235 45.7302 17.9941C45.541 18.0407 45.9126 17.7069 45.6287 17.7754C45.5391 17.7972 45.4259 17.664 45.465 17.613C45.6851 17.3248 45.1878 17.5349 45.3143 17.345C45.4933 17.076 45.1631 17.2259 45.1188 17.1445C45.0936 17.0985 45.0895 17.0383 45.0753 16.9848C45.0511 16.8909 45.066 16.7033 44.9952 16.7195C44.7063 16.7858 44.8456 16.5206 44.6871 16.4796C44.5225 16.4374 44.4802 16.2586 44.3912 16.1347C42.7927 13.9109 41.2014 11.6815 39.5892 9.46733C39.3742 9.17211 39.3008 8.76053 38.8227 8.66713C38.9702 8.33148 38.5781 8.38632 38.4811 8.22328C38.1807 7.71827 37.812 7.26014 37.4464 6.75105C37.5632 6.69305 37.721 6.59544 37.7366 6.61038C37.9525 6.81958 38.2496 6.95908 38.4094 7.21941C38.7317 7.74394 39.1154 8.22611 39.4772 8.72316C39.4904 8.74097 39.5449 8.72909 39.5803 8.73112C39.5864 8.69231 39.6024 8.6482 39.597 8.61574C39.5831 8.53463 39.6922 8.37281 39.4719 8.42388C39.4147 8.43728 39.403 8.34197 39.3704 8.29663C38.8982 7.63929 38.4261 6.98206 38.8499 7.45318C39.7349 8.61555 39.7101 8.63144 39.6856 8.64716C39.7055 8.79269 39.7069 8.94939 39.7523 9.07961C39.7765 9.14858 40.0599 9.49124 40.0828 9.5532C40.1022 9.60612 40.1186 9.69752 40.1745 9.68556C40.4516 9.62684 40.4491 9.80717 40.5257 9.91274C41.689 11.5214 42.8477 13.1333 43.9981 14.751C44.0659 14.8459 44.2423 14.8827 44.1185 15.1019C44.0949 15.1437 44.1202 15.2154 44.1536 15.2094C44.448 15.1546 44.4145 15.3769 44.523 15.4765C44.7451 15.6808 44.7907 16.02 45.1676 16.1106C45.274 16.1362 45.2641 16.299 45.2874 16.4098C45.3323 16.6234 45.3964 16.8212 45.6565 16.8739C45.7474 16.8923 45.6044 17.0983 45.8187 17.0134C45.6653 17.2557 45.8053 17.3769 45.9379 17.3964C46.1595 17.4286 45.9771 17.6981 46.1495 17.7356C46.1801 17.7424 46.1952 17.7749 46.2302 17.7675C46.3966 17.7328 46.3967 17.7937 46.371 17.9231C46.3462 18.0485 46.4047 18.175 46.5127 18.2112C46.653 18.2579 46.7917 18.3368 46.8154 18.4332C46.8525 18.5829 46.9861 18.6361 47.0703 18.7366C47.727 19.5242 48.1824 20.4567 48.9812 21.144C49.5773 21.6571 49.8257 22.4329 50.4586 22.9328C51.0338 23.3878 51.2491 24.1231 51.8485 24.5765C52.3212 24.934 52.4604 25.5539 52.9943 25.8798C53.242 26.031 53.3076 26.3425 53.5058 26.5421C53.688 26.725 53.7391 26.9946 54.0434 27.1056C54.3271 27.2092 54.3985 27.5294 54.568 27.7507C54.5943 27.7848 54.6447 27.8015 54.684 27.8261C54.7423 27.7141 54.7145 27.6701 54.6813 27.6302C54.3668 27.25 54.118 26.8258 53.7069 26.5114C53.2133 26.1338 53.0448 25.5052 52.5164 25.1366C52.0261 24.7947 51.9637 24.1102 51.3526 23.8503C51.2667 23.8137 51.524 23.5452 51.2314 23.6582C51.3993 23.4257 51.115 23.5252 51.0608 23.456C50.6366 22.9138 50.3663 22.2565 49.7364 21.8672C49.6519 21.815 49.5465 21.7218 49.5954 21.6221C49.7061 21.3962 49.391 21.551 49.3931 21.4225C49.3948 21.3158 49.291 21.258 49.2339 21.1785C48.9076 20.7243 48.5887 20.2647 48.2502 19.8196C48.1632 19.7051 48.1745 19.4996 47.8825 19.5505C47.8499 19.5561 47.8844 19.4384 47.873 19.3863C47.8581 19.3172 47.854 19.19 47.8012 19.2037C47.5926 19.2576 47.7081 19.1178 47.686 19.0517C47.6638 18.986 47.4899 19.016 47.4478 18.9573C47.3797 18.8625 47.2069 18.8187 47.3577 18.5957C47.1569 18.6401 47.1248 18.5259 47.0652 18.4398C47.0047 18.3524 46.8788 18.2972 47.0207 18.1021C46.7863 18.1777 46.777 18.0365 46.7148 17.9509C46.3035 17.3856 45.9231 16.7979 45.4824 16.2545C45.0484 15.7198 44.8295 15.0231 44.1521 14.6705C44.2321 14.5097 44.0991 14.471 44.0562 14.3859C44.0013 14.2757 43.847 14.2322 43.7741 14.1322C43.6897 14.0164 43.5198 13.9455 43.6438 13.7042C43.324 13.7653 43.3449 13.5307 43.2528 13.4045C42.1662 11.9131 41.0935 10.4114 40.0154 8.9137C39.9368 8.80429 39.8451 8.70412 38.8499 7.45318Z" fill="white"/>
<path fill-rule="evenodd" clip-rule="evenodd" d="M40.4896 29.1762C40.7367 29.0883 40.8418 29.0507 40.9778 29.0022L40.7439 28.6766C40.7228 28.6878 40.7017 28.6989 40.681 28.71C40.6875 28.7533 40.6908 28.7984 40.7009 28.8395C40.7106 28.8795 40.7274 28.9149 40.7447 28.9618C40.6606 29.0144 40.5659 29.0913 40.5408 29.0865C40.4143 29.0635 40.2822 29.0397 40.1966 28.9781C40.0045 28.84 39.8441 28.6748 39.6599 28.53C39.568 28.4581 39.4512 28.4072 39.3504 28.3493C39.5732 28.0359 39.6151 28.302 39.7809 28.1974C39.779 27.8411 39.2445 27.9174 39.1515 27.6369C39.1849 27.8433 39.188 28.0708 39.491 28.1167C39.404 28.1478 39.2912 28.2109 39.2358 28.2033C39.1223 28.1881 39.0318 28.1421 38.947 28.0947C38.8088 28.017 38.865 27.7812 38.604 27.8005C38.4003 27.8154 38.4799 27.5706 38.2147 27.61C38.0813 27.6299 38.062 27.4332 37.9824 27.3225C38.4215 27.1451 38.3818 27.4018 38.516 27.49C38.6369 27.5695 38.7914 27.6199 39.0039 27.6204C38.7833 27.4046 38.6116 27.1433 38.3273 26.9859C38.0571 26.8365 37.7345 26.7348 37.4756 26.5603C37.5729 26.7322 37.6705 26.9043 37.7678 27.0761L37.6866 27.1345C37.3407 26.8736 36.9947 26.6125 36.649 26.3514C36.6812 26.3224 36.7137 26.2936 36.746 26.2647C36.9395 26.3639 37.1333 26.4629 37.3267 26.5618C37.2568 26.3902 37.3091 26.1281 36.9717 26.1615C36.7766 25.8369 36.2502 25.7671 36.1996 25.3198L36.6452 24.9998C36.7351 25.02 36.616 25.1985 36.8155 25.1461C36.9101 25.1214 36.8293 25.3376 37.0606 25.211C37.1232 25.1767 37.258 25.1727 37.2533 25.1912C37.1792 25.4961 37.5359 25.4858 37.61 25.6783C37.6331 25.7385 37.614 25.8246 37.6144 25.9145C37.7177 25.8543 37.8475 25.7789 37.9778 25.7033C37.8889 25.9124 38.3195 25.788 38.1166 26.0669C38.224 26.0159 38.3115 25.9742 38.4305 25.9177C38.4331 26.1014 38.3441 26.3394 38.5989 26.368C38.6318 26.3152 38.6635 26.2644 38.7429 26.1375C38.8392 26.3889 38.9229 26.6062 39.0092 26.8308C39.2315 26.7965 39.4382 26.7649 39.6 26.7399C39.6745 26.8488 39.4594 27.0712 39.7413 27.0347C39.9617 27.0061 40.1329 27.0914 40.2749 27.1727C40.366 27.2248 40.3836 27.3515 40.3979 27.4638C40.4078 27.5436 40.5636 27.5019 40.4921 27.6661C40.4174 27.8379 40.685 27.6325 40.7862 27.6207C40.8804 27.6101 40.9981 27.6099 41.0239 27.6594C41.1266 27.8583 41.4352 27.8934 41.4901 28.1266C41.4928 28.1387 41.4717 28.1644 41.4616 28.1836C41.9899 28.0961 42.0236 28.5032 42.3855 28.5636C42.6877 28.6141 42.6068 28.9812 42.9997 28.9266C43.5569 29.2666 44.0275 29.686 44.7187 29.9037C44.8592 30.2421 45.3704 30.2517 45.6355 30.4869C45.8809 30.7039 46.2008 30.8844 46.5561 30.9948C47.1989 31.1949 47.5725 31.6507 48.2949 31.7669C48.339 31.9659 48.5789 31.9349 48.8361 31.9087C48.9783 31.8942 49.0536 31.9944 49.1412 32.0349C49.0193 32.3455 48.7765 32.6492 48.7893 32.8892C48.5468 33.0195 48.302 33.1512 48.0112 33.3076C47.4987 33.1045 46.8964 32.9478 46.4559 32.6253C46.2518 32.4762 45.91 32.4454 45.7019 32.2995C45.4429 32.118 45.1177 31.9949 44.883 31.7986C44.6318 31.589 44.2923 31.4654 44.0029 31.2951C43.8242 31.1902 43.6341 31.0823 43.4813 30.9626C43.2229 30.7595 42.8477 30.6677 42.6147 30.443C42.4746 30.3077 42.2342 30.2529 42.0518 30.15C41.9269 30.08 41.9733 29.8695 41.7326 29.89C41.5278 29.9076 41.634 29.612 41.3323 29.7206C41.2618 29.4827 40.9843 29.4137 40.7996 29.2692C40.7516 29.2315 40.6647 29.2268 40.4896 29.1762Z" fill="white"/>
</svg>
