<svg width="164" height="148" viewBox="0 0 164 148" fill="none" xmlns="http://www.w3.org/2000/svg">
<path d="M47.3008 93.5136C42.4333 96.0157 42.4466 103.298 46.7138 106.698C51.3352 110.379 57.737 107.157 59.731 102.499C61.9386 97.334 58.177 91.0283 52.4982 89.9472C46.8194 88.8661 42.0695 93.9394 42.9698 99.3638C43.2083 100.82 45.4438 100.251 45.202 98.8117C44.5275 94.7279 48.6049 91.1518 52.6865 92.3044C56.7682 93.4571 59.2684 98.1746 57.4215 101.924C55.9802 104.856 52.0196 107.232 48.7246 105.336C45.1196 103.255 44.8659 97.3756 48.491 95.5002C49.8018 94.8238 48.6094 92.8296 47.3063 93.5041L47.3008 93.5136Z" fill="#10100E"/>
<path d="M117.312 47.8178C112.715 50.1809 112.728 57.0582 116.758 60.2693C121.122 63.7458 127.169 60.7033 129.052 56.3042C131.137 51.4259 127.584 45.4705 122.221 44.4495C116.857 43.4284 112.371 48.2199 113.222 53.343C113.447 54.7183 115.558 54.1806 115.33 52.8215C114.693 48.9646 118.544 45.5871 122.399 46.6757C126.254 47.7644 128.615 52.2198 126.871 55.7608C125.509 58.5302 121.769 60.7742 118.657 58.9835C115.252 57.0178 115.012 51.4652 118.436 49.694C119.674 49.0552 118.548 47.1718 117.317 47.8088L117.312 47.8178Z" fill="#10100E"/>
<path d="M46.5054 18.2628V38.8225C46.5054 40.3435 48.4958 40.3493 48.4958 38.8225V18.2628C48.4958 16.736 46.5054 16.736 46.5054 18.2628Z" fill="#10100E"/>
<path d="M38.276 27.5659H57.8579C59.3971 27.5659 59.3971 25.5791 57.8579 25.5791H38.276C36.7309 25.5791 36.7309 27.5659 38.276 27.5659Z" fill="#10100E"/>
<path d="M120.066 114.813C115.469 117.176 115.482 124.054 119.512 127.265C123.877 130.741 129.923 127.699 131.806 123.3C133.891 118.421 130.338 112.466 124.975 111.445C119.612 110.424 115.126 115.215 115.976 120.339C116.201 121.714 118.312 121.176 118.084 119.817C117.447 115.96 121.298 112.583 125.153 113.671C129.008 114.76 131.369 119.215 129.625 122.756C128.263 125.526 124.523 127.77 121.411 125.979C118.006 124.013 117.767 118.461 121.19 116.69C122.428 116.051 121.302 114.167 120.071 114.804L120.066 114.813Z" fill="#10100E"/>
<path d="M57.989 93.1333C57.989 93.1333 86.9461 63.0863 116.336 54.0737" stroke="black" stroke-width="2"/>
</svg>
