<svg width="237" height="201" viewBox="0 0 237 201" fill="none" xmlns="http://www.w3.org/2000/svg">
<path d="M34.2133 185.613C34.4696 169.194 44.3817 151.652 62.4617 149.074C76.3006 147.101 93.3551 151.238 104.353 158.48C109.873 162.115 117.519 170.671 109.873 176.213C99.3517 183.837 80.7052 170.5 75.6533 156.027C68.1471 134.522 74.6819 112.334 89.9329 95.8111C108.852 75.3142 142.38 55.6597 170.495 67.4042C183.605 72.8807 190.398 81.0953 194.898 94.2156C198.479 104.661 200.921 117.878 192.557 127.19C178.792 142.515 160.208 129.735 151.5 116.145C133.855 88.6072 143.367 47.8853 171.096 30.8203C195.419 15.8519 224.257 9.30019 252.235 5.55799" stroke="black" stroke-width="3" stroke-linecap="round"/>
</svg>
