<svg width="137" height="161" viewBox="0 0 137 161" fill="none" xmlns="http://www.w3.org/2000/svg">
<path d="M44.4267 49.1413C41.2715 44.6693 34.0624 45.6959 31.2893 50.3948C28.2874 55.4835 32.3684 61.3747 37.2585 62.7011C42.6807 64.1683 48.4015 59.5658 48.6818 53.7917C48.962 48.0177 43.277 44.0202 38.0307 45.6666C36.6218 46.1054 37.4967 48.2399 38.8881 47.8002C42.8383 46.5639 46.9471 50.1039 46.3737 54.3063C45.8003 58.5086 41.4766 61.641 37.5069 60.334C34.4025 59.3147 31.4984 55.7234 32.9174 52.1966C34.4768 48.337 40.2634 47.2675 42.6251 50.5964C43.4773 51.8003 45.2862 50.3419 44.4369 49.1454L44.4267 49.1413Z" fill="#10100E"/>
<path d="M99.4217 112.112C96.4418 107.888 89.6332 108.858 87.0142 113.296C84.179 118.102 88.0333 123.665 92.6517 124.918C97.7727 126.304 103.176 121.957 103.44 116.504C103.705 111.05 98.3359 107.275 93.381 108.83C92.0504 109.244 92.8767 111.26 94.1908 110.845C97.9215 109.677 101.802 113.021 101.261 116.99C100.719 120.959 96.6355 123.917 92.8863 122.683C89.9544 121.72 87.2116 118.328 88.5518 114.997C90.0245 111.352 95.4897 110.342 97.7202 113.486C98.5251 114.623 100.233 113.246 99.4313 112.116L99.4217 112.112Z" fill="#10100E"/>
<path d="M118.835 37.8808L98.4749 40.7422C96.9687 40.9538 97.24 42.9257 98.7519 42.7133L119.112 39.8519C120.624 39.6394 120.346 37.6683 118.835 37.8808Z" fill="#10100E"/>
<path d="M108.477 31.0263L111.202 50.4177C111.416 51.9419 113.383 51.6654 113.169 50.1412L110.444 30.7498C110.229 29.2198 108.262 29.4963 108.477 31.0263Z" fill="#10100E"/>
<path d="M33.4612 124.163C30.4814 119.94 23.6727 120.909 21.0537 125.347C18.2185 130.153 22.0729 135.717 26.6913 136.97C31.8123 138.355 37.2152 134.008 37.4799 128.555C37.7446 123.102 32.3755 119.327 27.4206 120.882C26.09 121.296 26.9163 123.312 28.2303 122.897C31.9611 121.729 35.8416 125.072 35.3001 129.041C34.7585 133.01 30.6751 135.968 26.9259 134.734C23.9939 133.771 21.2512 130.38 22.5913 127.049C24.0641 123.404 29.5293 122.393 31.7597 125.537C32.5646 126.674 34.273 125.297 33.4709 124.167L33.4612 124.163Z" fill="#10100E"/>
<path d="M46.291 59.6726C46.291 59.6726 80.0756 84.1661 93.0908 112.016" stroke="black" stroke-width="2"/>
</svg>
