<svg width="8" height="8" viewBox="0 0 8 8" fill="none" xmlns="http://www.w3.org/2000/svg">
<path fill-rule="evenodd" clip-rule="evenodd" d="M7.99405 4.29844C8.02334 4.46058 7.94221 4.72904 7.80012 5.00547C7.64699 5.30423 7.53658 5.63382 7.43241 5.96022C7.33016 6.27971 7.15543 6.50829 6.90773 6.71136C6.5069 7.04042 6.09359 7.32536 5.64235 7.56936C5.28856 7.7602 4.92134 7.80592 4.55891 7.88726C4.09423 7.99039 3.6142 7.9973 3.138 7.99996C2.92486 8.00155 2.72805 7.96062 2.52931 7.86333C2.35986 7.77987 2.16832 7.72352 1.98351 7.71023C1.52651 7.67887 1.20201 7.43168 0.943748 7.03245C0.689328 6.6396 0.433469 6.24622 0.153607 5.87569C0.0167963 5.69442 -0.00672556 5.50676 0.00143508 5.29572C0.0115159 5.01929 0.0455985 4.74233 0.0355177 4.46802C0.0206366 4.0656 0.139206 3.69189 0.233773 3.32137C0.32786 2.95244 0.365783 2.54045 0.649005 2.25658C0.630764 1.8414 0.920226 1.67235 1.15976 1.45706C1.28793 1.34117 1.39162 1.19179 1.50875 1.05995C1.77709 0.756942 2.09728 0.555998 2.47027 0.459248C2.79141 0.375787 3.04391 0.0935088 3.39098 0.0770293C3.72364 0.0610814 4.05535 0.015364 4.38802 0.000479324C4.48738 -0.00430505 4.59875 0.0270592 4.6866 0.0796873C4.89397 0.204613 5.10903 0.271594 5.34521 0.285415C5.71916 0.307211 5.96158 0.648496 6.29136 0.783522C6.38641 0.821797 6.46226 0.914827 6.5501 0.976492C6.74308 1.11099 6.99414 1.19604 7.11895 1.38423C7.31 1.67448 7.41753 2.03278 7.55434 2.36556C7.58842 2.44795 7.57498 2.56597 7.62395 2.6287C7.79724 2.8509 7.83084 3.13425 7.90093 3.3942C7.96525 3.63288 7.95661 3.89549 7.99405 4.29844Z" fill="#17BD37"/>
</svg>
