<svg width="665" height="341" viewBox="0 0 665 341" fill="none" xmlns="http://www.w3.org/2000/svg">
<g opacity="0.5">
<mask id="mask0_1349_107" style="mask-type:alpha" maskUnits="userSpaceOnUse" x="0" y="0" width="665" height="341">
<rect x="665" y="341" width="665" height="341" transform="rotate(-180 665 341)" fill="#C4C4C4"/>
</mask>
<g mask="url(#mask0_1349_107)">
<rect x="622.143" y="510.351" width="0.7" height="541" transform="rotate(-165 622.143 510.351)" fill="white"/>
<rect x="598.961" y="504.139" width="0.7" height="541" transform="rotate(-165 598.961 504.139)" fill="white"/>
<rect x="618.279" y="509.315" width="0.7" height="541" transform="rotate(-165 618.279 509.315)" fill="white"/>
<rect x="595.098" y="503.104" width="0.7" height="541" transform="rotate(-165 595.098 503.104)" fill="white"/>
<rect x="614.416" y="508.28" width="0.7" height="541" transform="rotate(-165 614.416 508.28)" fill="white"/>
<rect x="591.232" y="502.068" width="0.7" height="541" transform="rotate(-165 591.232 502.068)" fill="white"/>
<rect x="610.551" y="507.245" width="0.7" height="541" transform="rotate(-165 610.551 507.245)" fill="white"/>
<rect x="587.369" y="501.033" width="0.7" height="541" transform="rotate(-165 587.369 501.033)" fill="white"/>
<rect x="606.688" y="506.209" width="0.7" height="541" transform="rotate(-165 606.688 506.209)" fill="white"/>
<rect x="583.506" y="499.998" width="0.7" height="541" transform="rotate(-165 583.506 499.998)" fill="white"/>
<rect x="602.824" y="505.174" width="0.7" height="541" transform="rotate(-165 602.824 505.174)" fill="white"/>
<rect x="579.643" y="498.963" width="0.7" height="541" transform="rotate(-165 579.643 498.963)" fill="white"/>
<rect x="575.777" y="497.927" width="0.7" height="541" transform="rotate(-165 575.777 497.927)" fill="white"/>
<rect x="552.596" y="491.716" width="0.7" height="541" transform="rotate(-165 552.596 491.716)" fill="white"/>
<rect x="571.914" y="496.892" width="0.7" height="541" transform="rotate(-165 571.914 496.892)" fill="white"/>
<rect x="548.732" y="490.681" width="0.7" height="541" transform="rotate(-165 548.732 490.681)" fill="white"/>
<rect x="568.051" y="495.857" width="0.7" height="541" transform="rotate(-165 568.051 495.857)" fill="white"/>
<rect x="544.869" y="489.645" width="0.7" height="541" transform="rotate(-165 544.869 489.645)" fill="white"/>
<rect x="564.188" y="494.822" width="0.7" height="541" transform="rotate(-165 564.188 494.822)" fill="white"/>
<rect x="541.006" y="488.61" width="0.7" height="541" transform="rotate(-165 541.006 488.61)" fill="white"/>
<rect x="560.324" y="493.786" width="0.7" height="541" transform="rotate(-165 560.324 493.786)" fill="white"/>
<rect x="537.141" y="487.575" width="0.7" height="541" transform="rotate(-165 537.141 487.575)" fill="white"/>
<rect x="556.459" y="492.751" width="0.7" height="541" transform="rotate(-165 556.459 492.751)" fill="white"/>
<rect x="533.277" y="486.54" width="0.7" height="541" transform="rotate(-165 533.277 486.54)" fill="white"/>
<rect x="529.414" y="485.504" width="0.7" height="541" transform="rotate(-165 529.414 485.504)" fill="white"/>
<rect x="506.232" y="479.292" width="0.7" height="541" transform="rotate(-165 506.232 479.292)" fill="white"/>
<rect x="525.551" y="484.469" width="0.7" height="541" transform="rotate(-165 525.551 484.469)" fill="white"/>
<rect x="502.367" y="478.257" width="0.7" height="541" transform="rotate(-165 502.367 478.257)" fill="white"/>
<rect x="521.686" y="483.434" width="0.7" height="541" transform="rotate(-165 521.686 483.434)" fill="white"/>
<rect x="498.504" y="477.222" width="0.7" height="541" transform="rotate(-165 498.504 477.222)" fill="white"/>
<rect x="517.822" y="482.398" width="0.7" height="541" transform="rotate(-165 517.822 482.398)" fill="white"/>
<rect x="494.641" y="476.187" width="0.7" height="541" transform="rotate(-165 494.641 476.187)" fill="white"/>
<rect x="513.959" y="481.363" width="0.7" height="541" transform="rotate(-165 513.959 481.363)" fill="white"/>
<rect x="490.777" y="475.151" width="0.7" height="541" transform="rotate(-165 490.777 475.151)" fill="white"/>
<rect x="510.096" y="480.328" width="0.7" height="541" transform="rotate(-165 510.096 480.328)" fill="white"/>
<rect x="486.912" y="474.116" width="0.7" height="541" transform="rotate(-165 486.912 474.116)" fill="white"/>
<rect x="483.049" y="473.081" width="0.7" height="541" transform="rotate(-165 483.049 473.081)" fill="white"/>
<rect x="459.867" y="466.869" width="0.7" height="541" transform="rotate(-165 459.867 466.869)" fill="white"/>
<rect x="479.186" y="472.045" width="0.7" height="541" transform="rotate(-165 479.186 472.045)" fill="white"/>
<rect x="456.004" y="465.834" width="0.7" height="541" transform="rotate(-165 456.004 465.834)" fill="white"/>
<rect x="475.322" y="471.01" width="0.7" height="541" transform="rotate(-165 475.322 471.01)" fill="white"/>
<rect x="452.141" y="464.798" width="0.7" height="541" transform="rotate(-165 452.141 464.798)" fill="white"/>
<rect x="471.459" y="469.975" width="0.7" height="541" transform="rotate(-165 471.459 469.975)" fill="white"/>
<rect x="448.275" y="463.763" width="0.7" height="541" transform="rotate(-165 448.275 463.763)" fill="white"/>
<rect x="467.594" y="468.939" width="0.7" height="541" transform="rotate(-165 467.594 468.939)" fill="white"/>
<rect x="444.412" y="462.728" width="0.7" height="541" transform="rotate(-165 444.412 462.728)" fill="white"/>
<rect x="463.73" y="467.904" width="0.7" height="541" transform="rotate(-165 463.73 467.904)" fill="white"/>
<rect x="440.549" y="461.693" width="0.7" height="541" transform="rotate(-165 440.549 461.693)" fill="white"/>
<rect x="436.686" y="460.657" width="0.7" height="541" transform="rotate(-165 436.686 460.657)" fill="white"/>
<rect x="413.502" y="454.446" width="0.7" height="541" transform="rotate(-165 413.502 454.446)" fill="white"/>
<rect x="432.82" y="459.622" width="0.7" height="541" transform="rotate(-165 432.82 459.622)" fill="white"/>
<rect x="409.639" y="453.411" width="0.7" height="541" transform="rotate(-165 409.639 453.411)" fill="white"/>
<rect x="428.957" y="458.587" width="0.7" height="541" transform="rotate(-165 428.957 458.587)" fill="white"/>
<rect x="405.775" y="452.375" width="0.7" height="541" transform="rotate(-165 405.775 452.375)" fill="white"/>
<rect x="425.094" y="457.552" width="0.7" height="541" transform="rotate(-165 425.094 457.552)" fill="white"/>
<rect x="401.912" y="451.34" width="0.7" height="541" transform="rotate(-165 401.912 451.34)" fill="white"/>
<rect x="421.23" y="456.517" width="0.7" height="541" transform="rotate(-165 421.23 456.517)" fill="white"/>
<rect x="398.049" y="450.305" width="0.7" height="541" transform="rotate(-165 398.049 450.305)" fill="white"/>
<rect x="417.367" y="455.481" width="0.7" height="541" transform="rotate(-165 417.367 455.481)" fill="white"/>
<rect x="394.184" y="449.27" width="0.7" height="541" transform="rotate(-165 394.184 449.27)" fill="white"/>
<rect x="390.32" y="448.234" width="0.7" height="541" transform="rotate(-165 390.32 448.234)" fill="white"/>
<rect x="367.139" y="442.022" width="0.7" height="541" transform="rotate(-165 367.139 442.022)" fill="white"/>
<rect x="386.457" y="447.199" width="0.7" height="541" transform="rotate(-165 386.457 447.199)" fill="white"/>
<rect x="363.275" y="440.987" width="0.7" height="541" transform="rotate(-165 363.275 440.987)" fill="white"/>
<rect x="382.594" y="446.164" width="0.7" height="541" transform="rotate(-165 382.594 446.164)" fill="white"/>
<rect x="359.41" y="439.952" width="0.7" height="541" transform="rotate(-165 359.41 439.952)" fill="white"/>
<rect x="378.729" y="445.128" width="0.7" height="541" transform="rotate(-165 378.729 445.128)" fill="white"/>
<rect x="355.547" y="438.917" width="0.7" height="541" transform="rotate(-165 355.547 438.917)" fill="white"/>
<rect x="374.865" y="444.093" width="0.7" height="541" transform="rotate(-165 374.865 444.093)" fill="white"/>
<rect x="351.684" y="437.881" width="0.7" height="541" transform="rotate(-165 351.684 437.881)" fill="white"/>
<rect x="371.002" y="443.058" width="0.7" height="541" transform="rotate(-165 371.002 443.058)" fill="white"/>
<rect x="347.82" y="436.846" width="0.7" height="541" transform="rotate(-165 347.82 436.846)" fill="white"/>
<rect x="343.955" y="435.811" width="0.7" height="541" transform="rotate(-165 343.955 435.811)" fill="white"/>
<rect x="320.773" y="429.599" width="0.7" height="541" transform="rotate(-165 320.773 429.599)" fill="white"/>
<rect x="340.092" y="434.775" width="0.7" height="541" transform="rotate(-165 340.092 434.775)" fill="white"/>
<rect x="316.91" y="428.564" width="0.7" height="541" transform="rotate(-165 316.91 428.564)" fill="white"/>
<rect x="336.229" y="433.74" width="0.7" height="541" transform="rotate(-165 336.229 433.74)" fill="white"/>
<rect x="313.047" y="427.529" width="0.7" height="541" transform="rotate(-165 313.047 427.529)" fill="white"/>
<rect x="332.365" y="432.705" width="0.7" height="541" transform="rotate(-165 332.365 432.705)" fill="white"/>
<rect x="309.184" y="426.493" width="0.7" height="541" transform="rotate(-165 309.184 426.493)" fill="white"/>
<rect x="328.502" y="431.67" width="0.7" height="541" transform="rotate(-165 328.502 431.67)" fill="white"/>
<rect x="305.318" y="425.458" width="0.7" height="541" transform="rotate(-165 305.318 425.458)" fill="white"/>
<rect x="324.637" y="430.634" width="0.7" height="541" transform="rotate(-165 324.637 430.634)" fill="white"/>
<rect x="301.455" y="424.423" width="0.7" height="541" transform="rotate(-165 301.455 424.423)" fill="white"/>
<rect x="297.592" y="423.388" width="0.7" height="541" transform="rotate(-165 297.592 423.388)" fill="white"/>
<rect x="274.41" y="417.176" width="0.7" height="541" transform="rotate(-165 274.41 417.176)" fill="white"/>
<rect x="293.729" y="422.352" width="0.7" height="541" transform="rotate(-165 293.729 422.352)" fill="white"/>
<rect x="270.545" y="416.141" width="0.7" height="541" transform="rotate(-165 270.545 416.141)" fill="white"/>
<rect x="289.863" y="421.317" width="0.7" height="541" transform="rotate(-165 289.863 421.317)" fill="white"/>
<rect x="266.682" y="415.105" width="0.7" height="541" transform="rotate(-165 266.682 415.105)" fill="white"/>
<rect x="286" y="420.282" width="0.7" height="541" transform="rotate(-165 286 420.282)" fill="white"/>
<rect x="262.818" y="414.07" width="0.7" height="541" transform="rotate(-165 262.818 414.07)" fill="white"/>
<rect x="282.137" y="419.247" width="0.7" height="541" transform="rotate(-165 282.137 419.247)" fill="white"/>
<rect x="258.955" y="413.035" width="0.7" height="541" transform="rotate(-165 258.955 413.035)" fill="white"/>
<rect x="278.273" y="418.211" width="0.7" height="541" transform="rotate(-165 278.273 418.211)" fill="white"/>
<rect x="255.092" y="412" width="0.7" height="541" transform="rotate(-165 255.092 412)" fill="white"/>
<rect x="251.729" y="411.099" width="0.7" height="541" transform="rotate(-165 251.729 411.099)" fill="white"/>
<rect x="228.547" y="404.887" width="0.7" height="541" transform="rotate(-165 228.547 404.887)" fill="white"/>
<rect x="247.865" y="410.063" width="0.7" height="541" transform="rotate(-165 247.865 410.063)" fill="white"/>
<rect x="224.682" y="403.852" width="0.7" height="541" transform="rotate(-165 224.682 403.852)" fill="white"/>
<rect x="244.002" y="409.028" width="0.7" height="541" transform="rotate(-165 244.002 409.028)" fill="white"/>
<rect x="220.818" y="402.816" width="0.7" height="541" transform="rotate(-165 220.818 402.816)" fill="white"/>
<rect x="240.137" y="407.993" width="0.7" height="541" transform="rotate(-165 240.137 407.993)" fill="white"/>
<rect x="216.955" y="401.781" width="0.7" height="541" transform="rotate(-165 216.955 401.781)" fill="white"/>
<rect x="236.273" y="406.958" width="0.7" height="541" transform="rotate(-165 236.273 406.958)" fill="white"/>
<rect x="213.092" y="400.746" width="0.7" height="541" transform="rotate(-165 213.092 400.746)" fill="white"/>
<rect x="232.41" y="405.922" width="0.7" height="541" transform="rotate(-165 232.41 405.922)" fill="white"/>
<rect x="209.229" y="399.71" width="0.7" height="541" transform="rotate(-165 209.229 399.71)" fill="white"/>
<rect x="205.363" y="398.675" width="0.7" height="541" transform="rotate(-165 205.363 398.675)" fill="white"/>
<rect x="182.182" y="392.464" width="0.7" height="541" transform="rotate(-165 182.182 392.464)" fill="white"/>
<rect x="201.5" y="397.64" width="0.7" height="541" transform="rotate(-165 201.5 397.64)" fill="white"/>
<rect x="178.318" y="391.428" width="0.7" height="541" transform="rotate(-165 178.318 391.428)" fill="white"/>
<rect x="197.637" y="396.604" width="0.7" height="541" transform="rotate(-165 197.637 396.604)" fill="white"/>
<rect x="174.455" y="390.393" width="0.7" height="541" transform="rotate(-165 174.455 390.393)" fill="white"/>
<rect x="193.773" y="395.569" width="0.7" height="541" transform="rotate(-165 193.773 395.569)" fill="white"/>
<rect x="170.59" y="389.358" width="0.7" height="541" transform="rotate(-165 170.59 389.358)" fill="white"/>
<rect x="189.91" y="394.534" width="0.7" height="541" transform="rotate(-165 189.91 394.534)" fill="white"/>
<rect x="166.727" y="388.323" width="0.7" height="541" transform="rotate(-165 166.727 388.323)" fill="white"/>
<rect x="186.045" y="393.499" width="0.7" height="541" transform="rotate(-165 186.045 393.499)" fill="white"/>
<rect x="162.863" y="387.287" width="0.7" height="541" transform="rotate(-165 162.863 387.287)" fill="white"/>
<rect x="159" y="386.252" width="0.7" height="541" transform="rotate(-165 159 386.252)" fill="white"/>
<rect x="135.818" y="380.041" width="0.7" height="541" transform="rotate(-165 135.818 380.041)" fill="white"/>
<rect x="155.137" y="385.217" width="0.7" height="541" transform="rotate(-165 155.137 385.217)" fill="white"/>
<rect x="131.953" y="379.005" width="0.7" height="541" transform="rotate(-165 131.953 379.005)" fill="white"/>
<rect x="151.271" y="384.182" width="0.7" height="541" transform="rotate(-165 151.271 384.182)" fill="white"/>
<rect x="128.09" y="377.97" width="0.7" height="541" transform="rotate(-165 128.09 377.97)" fill="white"/>
<rect x="147.408" y="383.146" width="0.7" height="541" transform="rotate(-165 147.408 383.146)" fill="white"/>
<rect x="124.227" y="376.935" width="0.7" height="541" transform="rotate(-165 124.227 376.935)" fill="white"/>
<rect x="143.545" y="382.111" width="0.7" height="541" transform="rotate(-165 143.545 382.111)" fill="white"/>
<rect x="120.363" y="375.899" width="0.7" height="541" transform="rotate(-165 120.363 375.899)" fill="white"/>
<rect x="139.682" y="381.076" width="0.7" height="541" transform="rotate(-165 139.682 381.076)" fill="white"/>
<rect x="116.498" y="374.864" width="0.7" height="541" transform="rotate(-165 116.498 374.864)" fill="white"/>
<rect x="112.635" y="373.829" width="0.7" height="541" transform="rotate(-165 112.635 373.829)" fill="white"/>
<rect x="89.4531" y="367.617" width="0.7" height="541" transform="rotate(-165 89.4531 367.617)" fill="white"/>
<rect x="108.771" y="372.793" width="0.7" height="541" transform="rotate(-165 108.771 372.793)" fill="white"/>
<rect x="85.5898" y="366.582" width="0.7" height="541" transform="rotate(-165 85.5898 366.582)" fill="white"/>
<rect x="104.908" y="371.758" width="0.7" height="541" transform="rotate(-165 104.908 371.758)" fill="white"/>
<rect x="81.7246" y="365.546" width="0.7" height="541" transform="rotate(-165 81.7246 365.546)" fill="white"/>
<rect x="101.045" y="370.723" width="0.7" height="541" transform="rotate(-165 101.045 370.723)" fill="white"/>
<rect x="77.8613" y="364.511" width="0.7" height="541" transform="rotate(-165 77.8613 364.511)" fill="white"/>
<rect x="97.1797" y="369.688" width="0.7" height="541" transform="rotate(-165 97.1797 369.688)" fill="white"/>
<rect x="73.998" y="363.476" width="0.7" height="541" transform="rotate(-165 73.998 363.476)" fill="white"/>
<rect x="93.3164" y="368.652" width="0.7" height="541" transform="rotate(-165 93.3164 368.652)" fill="white"/>
<rect x="70.1348" y="362.44" width="0.7" height="541" transform="rotate(-165 70.1348 362.44)" fill="white"/>
<rect x="66.2715" y="361.405" width="0.7" height="541" transform="rotate(-165 66.2715 361.405)" fill="white"/>
<rect x="43.0879" y="355.194" width="0.7" height="541" transform="rotate(-165 43.0879 355.194)" fill="white"/>
<rect x="62.4062" y="360.37" width="0.7" height="541" transform="rotate(-165 62.4062 360.37)" fill="white"/>
<rect x="39.2246" y="354.158" width="0.7" height="541" transform="rotate(-165 39.2246 354.158)" fill="white"/>
<rect x="58.543" y="359.335" width="0.7" height="541" transform="rotate(-165 58.543 359.335)" fill="white"/>
<rect x="35.3613" y="353.123" width="0.7" height="541" transform="rotate(-165 35.3613 353.123)" fill="white"/>
<rect x="54.6797" y="358.299" width="0.7" height="541" transform="rotate(-165 54.6797 358.299)" fill="white"/>
<rect x="31.498" y="352.088" width="0.7" height="541" transform="rotate(-165 31.498 352.088)" fill="white"/>
<rect x="50.8164" y="357.264" width="0.7" height="541" transform="rotate(-165 50.8164 357.264)" fill="white"/>
<rect x="27.6328" y="351.053" width="0.7" height="541" transform="rotate(-165 27.6328 351.053)" fill="white"/>
<rect x="46.9531" y="356.229" width="0.7" height="541" transform="rotate(-165 46.9531 356.229)" fill="white"/>
<rect x="23.7695" y="350.017" width="0.7" height="541" transform="rotate(-165 23.7695 350.017)" fill="white"/>
<rect x="19.9062" y="348.982" width="0.7" height="541" transform="rotate(-165 19.9062 348.982)" fill="white"/>
<rect x="-3.27539" y="342.771" width="0.7" height="541" transform="rotate(-165 -3.27539 342.771)" fill="white"/>
<rect x="16.043" y="347.947" width="0.7" height="541" transform="rotate(-165 16.043 347.947)" fill="white"/>
<rect x="-7.13867" y="341.735" width="0.7" height="541" transform="rotate(-165 -7.13867 341.735)" fill="white"/>
<rect x="12.1797" y="346.912" width="0.7" height="541" transform="rotate(-165 12.1797 346.912)" fill="white"/>
<rect x="-11.0039" y="340.7" width="0.7" height="541" transform="rotate(-165 -11.0039 340.7)" fill="white"/>
<rect x="8.31445" y="345.876" width="0.7" height="541" transform="rotate(-165 8.31445 345.876)" fill="white"/>
<rect x="-14.8672" y="339.665" width="0.7" height="541" transform="rotate(-165 -14.8672 339.665)" fill="white"/>
<rect x="4.45117" y="344.841" width="0.7" height="541" transform="rotate(-165 4.45117 344.841)" fill="white"/>
<rect x="-18.7305" y="338.629" width="0.7" height="541" transform="rotate(-165 -18.7305 338.629)" fill="white"/>
<rect x="0.587891" y="343.806" width="0.7" height="541" transform="rotate(-165 0.587891 343.806)" fill="white"/>
<rect x="-22.5938" y="337.594" width="0.7" height="541" transform="rotate(-165 -22.5938 337.594)" fill="white"/>
<rect x="-26.459" y="336.559" width="0.7" height="541" transform="rotate(-165 -26.459 336.559)" fill="white"/>
<rect x="-49.6406" y="330.347" width="0.7" height="541" transform="rotate(-165 -49.6406 330.347)" fill="white"/>
<rect x="-30.3223" y="335.523" width="0.7" height="541" transform="rotate(-165 -30.3223 335.523)" fill="white"/>
<rect x="-53.5039" y="329.312" width="0.7" height="541" transform="rotate(-165 -53.5039 329.312)" fill="white"/>
<rect x="-34.1855" y="334.488" width="0.7" height="541" transform="rotate(-165 -34.1855 334.488)" fill="white"/>
<rect x="-57.3672" y="328.276" width="0.7" height="541" transform="rotate(-165 -57.3672 328.276)" fill="white"/>
<rect x="-38.0488" y="333.453" width="0.7" height="541" transform="rotate(-165 -38.0488 333.453)" fill="white"/>
<rect x="-61.2324" y="327.241" width="0.7" height="541" transform="rotate(-165 -61.2324 327.241)" fill="white"/>
<rect x="-41.9121" y="332.417" width="0.7" height="541" transform="rotate(-165 -41.9121 332.417)" fill="white"/>
<rect x="-65.0957" y="326.206" width="0.7" height="541" transform="rotate(-165 -65.0957 326.206)" fill="white"/>
<rect x="-45.7773" y="331.382" width="0.7" height="541" transform="rotate(-165 -45.7773 331.382)" fill="white"/>
<rect x="-68.959" y="325.171" width="0.7" height="541" transform="rotate(-165 -68.959 325.171)" fill="white"/>
<rect x="-72.8223" y="324.135" width="0.7" height="541" transform="rotate(-165 -72.8223 324.135)" fill="white"/>
<rect x="-96.0039" y="317.924" width="0.7" height="541" transform="rotate(-165 -96.0039 317.924)" fill="white"/>
<rect x="-76.6855" y="323.1" width="0.7" height="541" transform="rotate(-165 -76.6855 323.1)" fill="white"/>
<rect x="-99.8691" y="316.889" width="0.7" height="541" transform="rotate(-165 -99.8691 316.889)" fill="white"/>
<rect x="-80.5508" y="322.065" width="0.7" height="541" transform="rotate(-165 -80.5508 322.065)" fill="white"/>
<rect x="-103.732" y="315.853" width="0.7" height="541" transform="rotate(-165 -103.732 315.853)" fill="white"/>
<rect x="-84.4141" y="321.03" width="0.7" height="541" transform="rotate(-165 -84.4141 321.03)" fill="white"/>
<rect x="-107.596" y="314.818" width="0.7" height="541" transform="rotate(-165 -107.596 314.818)" fill="white"/>
<rect x="-88.2773" y="319.994" width="0.7" height="541" transform="rotate(-165 -88.2773 319.994)" fill="white"/>
<rect x="-111.459" y="313.783" width="0.7" height="541" transform="rotate(-165 -111.459 313.783)" fill="white"/>
<rect x="-92.1406" y="318.959" width="0.7" height="541" transform="rotate(-165 -92.1406 318.959)" fill="white"/>
<rect x="-115.324" y="312.748" width="0.7" height="541" transform="rotate(-165 -115.324 312.748)" fill="white"/>
</g>
</g>
</svg>
