<svg width="18" height="16" viewBox="0 0 18 16" fill="none" xmlns="http://www.w3.org/2000/svg">
<path fill-rule="evenodd" clip-rule="evenodd" d="M17.1925 8.71499C17.2535 9.01999 17.0845 9.52499 16.7885 10.045C16.4695 10.607 16.2395 11.227 16.0225 11.841C15.8095 12.442 15.4455 12.872 14.9295 13.254C14.0945 13.873 13.2335 14.409 12.2935 14.868C11.5565 15.227 10.7915 15.313 10.0365 15.466C9.06854 15.66 8.06854 15.673 7.07654 15.678C6.63254 15.681 6.22254 15.604 5.80854 15.421C5.45554 15.264 5.05654 15.158 4.67154 15.133C3.71954 15.074 3.04354 14.609 2.50554 13.858C1.97554 13.119 1.44254 12.379 0.85954 11.682C0.57454 11.341 0.52554 10.988 0.54254 10.591C0.56354 10.071 0.63454 9.54999 0.61354 9.03399C0.58254 8.27699 0.82954 7.57399 1.02654 6.87699C1.22254 6.18299 1.30154 5.40799 1.89154 4.87399C1.85354 4.09299 2.45654 3.77499 2.95554 3.36999C3.22254 3.15199 3.43854 2.87099 3.68254 2.62299C4.24154 2.05299 4.90854 1.67499 5.68554 1.49299C6.35454 1.33599 6.88054 0.804991 7.60354 0.773991C8.29654 0.743991 8.98754 0.657991 9.68054 0.629991C9.88754 0.620991 10.1195 0.679991 10.3025 0.778991C10.7345 1.01399 11.1825 1.13999 11.6745 1.16599C12.4535 1.20699 12.9585 1.84899 13.6455 2.10299C13.8435 2.17499 14.0015 2.34999 14.1845 2.46599C14.5865 2.71899 15.1095 2.87899 15.3695 3.23299C15.7675 3.77899 15.9915 4.45299 16.2765 5.07899C16.3475 5.23399 16.3195 5.45599 16.4215 5.57399C16.7825 5.99199 16.8525 6.52499 16.9985 7.01399C17.1325 7.46299 17.1145 7.95699 17.1925 8.71499Z" fill="#FFCD2F"/>
</svg>
