<svg width="187" height="134" viewBox="0 0 187 134" fill="none" xmlns="http://www.w3.org/2000/svg">
<path d="M1.50315 131.98C2.63156 118.977 11.4785 105.628 25.9581 104.603C37.041 103.819 48.481 110.252 56.7924 116.614C58.1642 117.663 69.1662 126.673 62.0174 128.79C48.9453 132.662 39.2145 122.618 36.0248 110.858C31.2856 93.3858 37.7168 76.163 50.7391 63.9228C66.8938 48.7385 94.5828 35.0453 116.211 45.9408C126.296 51.0214 131.219 57.917 134.047 68.5726C136.299 77.0554 137.489 87.6722 130.333 94.5835C118.557 105.958 104.543 94.7783 98.4053 83.5132C85.9673 60.6863 95.8035 28.9372 118.749 16.9702C138.876 6.47353 162.109 2.90422 184.502 1.51388" stroke="#0E0E0E" stroke-width="3" stroke-linecap="round"/>
</svg>
