<svg width="145" height="105" viewBox="0 0 145 105" fill="none" xmlns="http://www.w3.org/2000/svg">
<path d="M49.2904 85.243C45.9363 89.5677 49.0258 96.1617 54.3301 97.4398C60.0742 98.8228 64.5148 93.1977 64.3535 88.1335C64.1713 82.5192 58.0973 78.394 52.4936 79.8142C46.8899 81.2343 44.7292 87.8397 47.8376 92.3754C48.6691 93.5944 50.4546 92.1337 49.6273 90.9317C47.29 87.5155 49.4741 82.5513 53.6605 81.871C57.8468 81.1907 62.1065 84.4095 62.0172 88.588C61.9501 91.8547 59.3648 95.6819 55.5772 95.3561C51.4303 94.9933 48.7157 89.7721 51.2087 86.5404C52.1108 85.3735 50.1873 84.07 49.2914 85.232L49.2904 85.243Z" fill="#10100E"/>
<path d="M93.4306 14.2403C90.2628 18.3248 93.1807 24.5525 98.1903 25.7596C103.615 27.0657 107.809 21.7531 107.657 16.9702C107.485 11.6679 101.748 7.77188 96.4558 9.11312C91.1634 10.4544 89.1227 16.6928 92.0585 20.9765C92.8438 22.1278 94.53 20.7482 93.7487 19.613C91.5413 16.3866 93.6041 11.6982 97.5579 11.0556C101.512 10.4131 105.535 13.4532 105.45 17.3995C105.387 20.4848 102.945 24.0993 99.3682 23.7916C95.4516 23.449 92.8878 18.5179 95.2423 15.4657C96.0943 14.3636 94.2777 13.1325 93.4315 14.23L93.4306 14.2403Z" fill="#10100E"/>
<path d="M16.7674 17.3786L25.4563 36.0121C26.0991 37.3906 27.9055 36.5546 27.2603 35.1709L18.5714 16.5374C17.9261 15.1537 16.1221 15.9949 16.7674 17.3786Z" fill="#10100E"/>
<path d="M13.2407 29.2875L30.988 21.0118C32.3829 20.3613 31.5433 18.5607 30.1483 19.2111L12.401 27.4868C11.0008 28.1398 11.8404 29.9404 13.2407 29.2875Z" fill="#10100E"/>
<path d="M124.24 73.795C121.072 77.8795 123.99 84.1072 129 85.3142C134.425 86.6204 138.619 81.3078 138.466 76.5249C138.294 71.2226 132.558 67.3266 127.265 68.6678C121.973 70.0091 119.932 76.2474 122.868 80.5312C123.653 81.6825 125.34 80.3029 124.558 79.1677C122.351 75.9413 124.414 71.2529 128.367 70.6103C132.321 69.9678 136.344 73.0079 136.26 76.9542C136.197 80.0395 133.755 83.654 130.178 83.3463C126.261 83.0037 123.697 78.0726 126.052 75.0204C126.904 73.9182 125.087 72.6872 124.241 73.7846L124.24 73.795Z" fill="#10100E"/>
<path d="M58.8164 80.3809C58.8164 80.3809 72.362 40.9112 95.1893 20.3224" stroke="black" stroke-width="2"/>
</svg>
