<svg width="18" height="16" viewBox="0 0 18 16" fill="none" xmlns="http://www.w3.org/2000/svg">
<path fill-rule="evenodd" clip-rule="evenodd" d="M17.1925 8.71505C17.2535 9.02005 17.0845 9.52505 16.7885 10.0451C16.4695 10.6071 16.2395 11.2271 16.0225 11.8411C15.8095 12.4421 15.4455 12.8721 14.9295 13.2541C14.0945 13.8731 13.2335 14.4091 12.2935 14.8681C11.5565 15.2271 10.7915 15.3131 10.0365 15.4661C9.06854 15.6601 8.06854 15.6731 7.07654 15.6781C6.63254 15.6811 6.22254 15.6041 5.80854 15.4211C5.45554 15.2641 5.05654 15.1581 4.67154 15.1331C3.71954 15.0741 3.04354 14.6091 2.50554 13.8581C1.97554 13.1191 1.44254 12.3791 0.85954 11.6821C0.57454 11.3411 0.52554 10.9881 0.54254 10.5911C0.56354 10.0711 0.63454 9.55005 0.61354 9.03405C0.58254 8.27705 0.82954 7.57405 1.02654 6.87705C1.22254 6.18305 1.30154 5.40805 1.89154 4.87405C1.85354 4.09305 2.45654 3.77505 2.95554 3.37005C3.22254 3.15205 3.43854 2.87105 3.68254 2.62305C4.24154 2.05305 4.90854 1.67505 5.68554 1.49305C6.35454 1.33605 6.88054 0.805052 7.60354 0.774052C8.29654 0.744052 8.98754 0.658052 9.68054 0.630052C9.88754 0.621052 10.1195 0.680052 10.3025 0.779052C10.7345 1.01405 11.1825 1.14005 11.6745 1.16605C12.4535 1.20705 12.9585 1.84905 13.6455 2.10305C13.8435 2.17505 14.0015 2.35005 14.1845 2.46605C14.5865 2.71905 15.1095 2.87905 15.3695 3.23305C15.7675 3.77905 15.9915 4.45305 16.2765 5.07905C16.3475 5.23405 16.3195 5.45605 16.4215 5.57405C16.7825 5.99205 16.8525 6.52505 16.9985 7.01405C17.1325 7.46305 17.1145 7.95705 17.1925 8.71505Z" fill="#FFCD2F"/>
</svg>
