<svg width="191" height="189" viewBox="0 0 191 189" fill="none" xmlns="http://www.w3.org/2000/svg">
<g opacity="0.295117">
<mask id="mask0_0_10204" style="mask-type:alpha" maskUnits="userSpaceOnUse" x="0" y="0" width="191" height="189">
<path fill-rule="evenodd" clip-rule="evenodd" d="M0 0H191V189H0V0Z" fill="white"/>
</mask>
<g mask="url(#mask0_0_10204)">
<path fill-rule="evenodd" clip-rule="evenodd" d="M183.689 103.797C183.794 103.619 184.034 103.52 184.344 103.471C184.743 104.084 185 104.699 185.157 105.144C184.673 104.691 184.187 104.239 183.689 103.797V103.797ZM178.956 138.538C178.362 138.402 177.89 138.103 177.491 137.738C177.694 137.231 177.834 136.679 177.925 136.097C178.363 136.861 178.708 137.663 178.956 138.538V138.538ZM25.267 152.474C25.3408 152.546 25.4096 152.625 25.4834 152.697C25.3781 152.712 25.272 152.725 25.1667 152.74L25.267 152.474ZM14.0058 134.152L14.659 132.751C14.6715 132.772 14.6847 132.795 14.6972 132.817C14.7643 133.217 14.8712 133.612 14.9533 134.01C14.6391 134.051 14.3258 134.094 14.0058 134.152V134.152ZM146.863 29.0173C146.789 29.267 146.686 29.4927 146.582 29.7175C146.32 29.6391 146.061 29.5444 145.796 29.4772C146.151 29.3248 146.511 29.1818 146.863 29.0173V29.0173ZM191 109.441L188.454 107.911C188.043 108.166 187.783 108.37 187.625 108.544C187.383 108.049 186.912 107.557 186.005 107.072L187.307 107.23C186.641 106.555 185.953 105.891 185.255 105.235C185.329 104.497 185.189 103.91 184.9 103.434C186.389 103.434 188.541 104.062 187.611 103.801C187.32 101.147 187.221 99.1599 189.079 97.6759C184.912 96.7793 183.903 94.1619 183.442 92.1792C183.748 90.9752 183.942 89.7341 184.035 88.4826C184.107 87.2243 184.014 85.9306 183.801 84.6697C183.531 83.085 183.032 81.5407 182.38 80.0619C182.452 80.0757 182.524 80.0998 182.596 80.1093L182.28 79.8354C181.926 79.0585 181.54 78.2971 181.095 77.5702C182.498 76.6064 183.292 74.8951 185.354 75.3972C186.124 71.9495 182.647 69.7179 180.053 67.9463C179.519 68.5957 179.291 69.2321 178.025 69.7033C176.343 68.9341 178.847 68.0005 180.157 67.1082C178.55 66.7947 175.598 68.1228 172.996 68.7593C172.919 68.5629 172.849 68.3631 172.771 68.1676C174.089 65.7776 172.83 65.9197 175.963 62.7398L172.626 64.3547C174.867 61.9724 169.688 64.0895 171.148 61.9397C171.846 61.5426 172.908 61.6374 173.857 61.6718C172.284 61.0577 176.266 59.3464 174.494 58.8279L178.626 58.0071C178.122 57.1794 176.388 56.3681 179.794 55.363C175.278 55.5576 175.522 51.9506 172.335 50.9567L175.251 49.6191C173.254 49.9602 172.82 48.9464 172.263 47.9715C171.715 47.0017 171.05 46.0741 168.777 46.7975L169.813 45.9664C168.186 45.9793 166.526 46.0232 164.914 46.1171C164.677 44.9785 168.9 42.6083 167.736 43.2783C165.698 41.5704 164.324 40.1295 164.59 37.6869C160.945 40.0632 158.508 38.779 156.688 37.6843C155.452 35.3744 153.491 33.3004 151.262 31.8466C149.882 30.9465 148.352 30.267 146.771 29.7761C147.45 28.8838 148.125 28.0035 148.783 27.3774C147.728 28.106 146.644 28.7727 145.544 29.4212C144.951 29.2808 144.354 29.1611 143.754 29.081C143.698 29.0733 143.641 29.0741 143.584 29.0664C143.877 28.8114 144.12 28.5393 144.254 28.224C144.036 27.6995 143.275 28.2352 142.578 28.9845C141.945 28.9389 141.313 28.9268 140.684 28.9475C140.173 28.6176 139.656 28.2981 139.137 27.9803C139.517 27.8545 139.902 27.7202 140.291 27.554C140.005 27.4118 139.783 27.1733 139.603 26.871C139.427 26.5721 139.343 26.2707 139.241 25.8951C139.054 25.163 138.908 24.2785 138.61 23.512C138.037 21.9918 136.782 20.9169 134.113 23.2381C134.631 21.7799 134.102 21.6955 133.699 21.5775C133.287 21.4561 133.013 21.2537 133.87 19.3124C133.131 17.6579 131.682 18.1135 130.317 19.0979C128.979 20.041 127.704 21.4337 126.625 21.7524C126.411 21.6688 126.204 21.5732 125.99 21.4914C126.009 20.5543 126.536 18.8171 126.84 17.1041C127.189 16.8853 127.542 16.6949 127.903 16.5012C128.47 16.198 129.037 15.9697 129.628 15.732C129.333 15.0465 129.017 14.3342 128.653 13.6908C129.217 12.8821 129.822 12.951 130.434 12.7933C131.053 12.622 131.69 12.2499 132.38 10.6238C131.783 11.0915 131.202 11.4609 130.666 11.6539C130.129 11.8546 129.62 11.9226 129.108 11.982C127.052 12.2206 124.865 11.7478 123.276 15.3901C124.012 16.2566 125.201 15.1309 126.163 15.5339C126.352 16.8775 126.75 17.9266 126.236 19.9032C125.877 20.4217 125.561 20.8489 125.262 21.2348C121.424 19.8162 117.453 18.6983 113.372 17.893L113.248 16.0645C113.287 16.9611 113.263 17.5201 113.199 17.8603C112.96 17.8137 112.72 17.7715 112.48 17.7268C111.903 16.7251 111.145 14.5986 110.684 13.7158C110.82 14.5142 111.331 16.2591 111.506 17.5459C111.155 17.4856 110.807 17.4107 110.453 17.3547C110.369 16.9576 110.293 16.5761 110.191 16.2919C110.242 16.5942 110.289 16.9576 110.326 17.3375C110.083 17.2996 109.834 17.2763 109.59 17.2401C109.568 16.7914 109.525 16.3143 109.418 15.7656C108.918 15.9999 108.578 16.4684 107.85 15.043C107.6 15.8078 107.699 16.4073 107.876 17.0145C107.587 16.9783 107.302 16.9327 107.012 16.8999C106.531 14.7881 106.212 11.97 105.351 9.72289C105.844 6.83071 107.115 5.63181 107.409 4.04102L105.571 6.07278C105.214 3.87652 103.227 2.74049 103.908 0.360774C101.216 -1.06895 99.0926 2.05663 97.4878 4.38467C97.981 5.03666 98.4776 5.37601 98.7735 6.73855C98.0482 8.30694 97.4505 5.612 96.8081 4.1349C96.4127 5.84282 97.5143 9.4869 97.8011 12.3584C95.3442 9.7582 95.665 11.6969 92.985 7.68338L94.1521 11.3102C92.3102 8.68246 93.833 14.2429 92.1577 12.4376C91.8593 11.6737 91.9679 10.6152 92.03 9.66087C91.4788 11.1604 90.2279 6.86688 89.7587 8.58255L89.2183 4.28563C88.5211 4.66803 87.8489 6.30361 87.1244 2.71121C87.1608 7.29924 84.3996 6.46208 83.6387 9.42316L82.6613 6.27088C83.162 10.3318 79.5777 7.25274 80.521 12.0148L79.9383 10.8021L79.9126 15.5942C79.0679 15.5184 77.5327 10.7883 77.9687 12.0983C76.6946 13.5539 75.5921 14.3497 73.9375 13.2033C74.391 14.5659 74.5576 15.6554 74.5642 16.5709C74.546 16.5399 74.5294 16.5236 74.512 16.4908C74.5849 15.4625 74.0826 13.8596 73.5803 12.2585C72.4347 12.5513 72.4314 13.8372 72.8699 15.509C72.9577 16.6691 73.0531 17.8293 73.1691 18.9851C71.9431 16.8973 71.1896 16.1007 69.9918 12.5065L70.9956 16.1894C70.543 15.062 69.7787 15.3884 69.0741 15.1929C68.3778 14.9922 67.6235 14.2877 67.0979 11.0312C67.1104 11.9424 67.5489 13.8768 66.9272 13.6426L65.5801 10.0915C65.1648 11.299 64.7371 12.2843 63.7556 10.3843C63.7772 9.38871 63.2981 7.77984 62.8256 6.16925C61.1304 6.53184 62.2901 9.43953 63.4423 12.4531C64.6119 15.465 65.8935 18.5674 65.1267 19.147L64.1311 16.8956L64.781 19.4898L64.2986 18.7913C64.1651 18.0153 63.9272 17.1893 63.6926 16.3599C61.5755 17.3056 61.2497 18.7853 61.6443 20.4475C61.2638 20.4872 61.0541 20.811 61.2481 21.7558L61.0002 22.0693C60.2177 21.5181 58.1835 19.0583 57.8022 19.8645L59.7991 23.0667C57.275 20.1435 53.7329 19.5906 48.0986 12.9897C49.1447 15.8604 48.62 13.5849 50.3085 16.0447C51.4185 20.1375 47.9129 15.3755 45.916 14.1206C46.2956 16.2126 47.3442 14.8148 48.6366 17.4064C45.7925 16.0128 50.5929 21.7929 47.8043 20.9083C46.3478 19.3796 47.2066 19.4777 46.4697 18.2659C47.2058 20.1693 46.8179 21.0074 46.1249 21.6129C45.4426 22.2218 44.4811 22.6404 44.1105 23.537C42.4808 23.2622 40.9589 23.5283 39.34 23.8341C37.6987 24.1218 35.9687 24.4525 33.9021 24.3741L34.8952 25.2983C31.586 23.8797 33.3169 26.8761 31.3937 26.9278L33.3044 27.6633C34.678 29.7795 33.2547 29.2154 33.6153 30.4384L30.2531 28.4428C30.7985 29.9001 32.6885 30.7183 33.9891 32.39C31.562 31.54 32.6089 34.1944 32.2857 34.3658C30.6626 33.5691 30.3849 32.7225 29.5468 31.9999C30.1122 33.5717 33.2539 35.5596 32.6985 36.5483L31.7982 35.9954C33.2066 38.301 33.539 39.9616 33.5772 41.4628C30.9726 42.9597 28.2744 44.6788 25.3209 45.8381L26.3712 46.6985C22.4768 46.4091 23.8926 50.1126 21.4961 51.2736L23.7202 51.3391C24.9885 53.8652 23.3331 53.7997 23.5229 55.5206L19.7786 54.276C20.1864 56.2518 22.3375 56.4835 23.6274 58.3981C22.2753 58.4033 21.7738 59.2715 21.5691 60.2059C20.9722 59.9432 20.3597 59.7374 19.7263 59.6496C18.4125 56.1708 19.3309 52.6232 18.8767 50.5613C18.3942 52.3829 18.0187 54.1908 17.7012 55.9762C15.948 54.6404 12.8594 57.6014 12.2252 54.0469C10.1421 56.1183 9.06946 59.026 8.61023 61.9871C8.1311 64.9602 8.2886 67.9867 8.46682 70.5775C9.34964 70.1236 10.0302 69.4104 11.2761 69.9513C11.8157 72.685 9.35047 71.6601 7.7216 71.7376C8.67489 73.9373 12.3007 74.6996 14.6847 76.4342C12.769 77.7829 12.2584 78.7338 11.5795 79.5667C10.9263 80.4159 10.1181 81.1462 7.6155 82.2642L11.2653 82.7956C7.98023 84.4243 13.3634 85.7274 10.9047 87.6808C10.1048 87.6894 9.29908 86.6395 8.56878 85.761C9.45658 88.0571 5.20576 87.2389 6.33727 89.5566C5.03831 88.8133 3.77915 88.0606 2.50258 87.2837C2.37907 89.0321 3.39369 91.7451 0 90.4248C1.90077 92.2214 2.36166 94.3755 2.62195 96.6053C2.89052 98.8318 3.01569 101.161 4.20108 103.074L1.0196 102.791C2.93777 103.821 2.90876 105.638 3.0074 107.447C3.13423 109.253 3.36136 111.045 5.75784 111.706L4.48872 112.106C6.00818 113.303 7.5525 114.44 9.13495 115.515C8.96667 117.27 4.14637 117.393 5.4818 117.336C6.8852 121.141 7.71 124.035 6.75754 126.968C10.7439 126.574 12.7898 129.564 14.3374 132.2C14.2305 132.904 14.1119 133.574 13.9577 134.162C13.4894 134.248 13.0185 134.341 12.5344 134.465C12.435 134.489 12.3305 134.526 12.2302 134.552L12.8395 132.528L11.6947 132.562C11.3283 133.148 11.2289 133.959 11.2463 134.831C10.477 135.064 9.69531 135.328 8.88295 135.668C10.8484 136.499 12.5295 139.127 14.6391 141.198C15.7474 142.232 16.9784 143.098 18.3926 143.412C18.4506 143.521 18.4979 143.634 18.5567 143.741C20.1897 146.664 22.238 149.331 24.5276 151.712C24.5815 152.072 24.6519 152.437 24.7307 152.799C23.1996 153.018 21.6719 153.248 20.1549 153.479C18.5426 153.179 14.9972 157.195 12.2899 158.59C14.4941 160.42 15.3669 158.373 17.8156 159.137C19.3591 160.796 18.8866 165.384 19.8714 168.596L19.9493 164.744C23.2576 162.51 21.2574 167.201 24.1877 164.024L22.7205 169.875C24.1628 167.043 25.4212 169.951 25.8705 171.665L27.4322 167.748C28.6052 170.398 29.5278 171.526 29.323 175.36L29.89 171.576C30.0649 174.089 36.4776 172.466 33.3467 178.489C34.0024 177.721 34.7841 175.854 35.8095 176.474L35.3735 180.266C37.1449 179.569 39.025 179.143 39.1949 181.336C38.1919 182.101 37.6514 183.701 37.1118 185.311C40.5693 186.205 41.3468 183.101 42.015 179.935C42.6872 176.751 43.2766 173.429 46.2028 173.646L45.8621 176.097L47.6335 173.645L48.8935 176.915C50.3641 172.805 52.351 173.249 54.5419 174.056C56.6093 174.853 58.874 176.109 60.6836 174.339C61.4951 174.783 62.3058 175.226 63.1331 175.642C64.1328 176.862 65.3207 178.251 66.8086 177.93L66.7863 177.367C67.2529 177.573 67.7312 177.755 68.2037 177.952C68.0031 178.07 67.8166 178.194 67.6533 178.332C68.0106 178.285 68.3695 178.222 68.7268 178.166C69.8359 178.62 70.9567 179.049 72.089 179.452C72.5176 180.952 73.4137 182.392 71.5908 183.603C73.3705 184.938 75.5498 185.235 77.7664 185.08C78.4752 186.213 79.0927 187.477 79.5453 188.935C81.5224 185.841 79.2718 188.151 79.1574 185.131C79.2461 185.034 79.3248 184.968 79.4094 184.882C80.5135 184.706 81.6094 184.441 82.6754 184.134C83.8757 185.196 84.6931 187.718 86.1039 188.886C88.5128 186.727 84.0117 187.643 85.154 184.636C87.1948 185.861 87.8994 184.658 88.6579 183.372C89.8018 183.513 90.9541 183.625 92.1113 183.716C91.8311 183.948 91.565 184.222 91.4556 184.707C91.7068 184.334 91.9911 184.02 92.2895 183.73C94.2558 183.878 96.2353 183.98 98.238 183.98C99.1217 183.98 99.997 183.941 100.875 183.912L99.8718 186.823C101.346 186.717 103.497 185.346 102.774 189C104.063 186.775 105.806 186.104 107.643 185.585C109.479 185.033 111.402 184.75 112.895 183.343L112.95 186.663C113.631 184.578 115.152 184.471 116.65 184.26C118.143 184.069 119.618 183.644 119.994 181.176L120.422 182.473C120.705 181.951 120.976 181.437 121.25 180.92C121.638 180.92 122.023 180.91 122.412 180.921C122.664 181.437 122.81 181.326 122.917 180.94C123.504 180.955 124.089 180.984 124.672 181.016C124.755 181.503 124.768 181.709 124.727 181.27C124.899 181.19 125.062 181.118 125.23 181.041C125.325 181.046 125.422 181.046 125.517 181.053C126.518 181.104 127.508 181.157 128.489 181.268L128.195 179.911C130.142 181.103 131.654 180.627 133.122 179.902C134.591 179.144 136.001 178.077 137.921 178.151L135.614 176.915C136.867 173.794 138.592 174.776 140.173 172.938L142.808 176.09C144.257 174.138 142.866 172.874 142.994 170.814C143.536 170.629 144.079 170.447 144.612 170.229C145.79 170.159 146.918 169.432 147.859 168.658C148.709 168.193 149.539 167.69 150.35 167.15C151.321 168.355 150.444 169.602 150.609 170.673C151.642 169.258 151.529 167.659 151.708 166.211C152.943 165.302 154.133 164.322 155.248 163.259C156.476 162.032 157.633 160.801 158.756 159.482C159.916 158.093 160.964 156.603 161.864 155.022C162.346 154.178 162.775 153.321 163.153 152.455C164.707 150.834 166.262 149.186 167.726 147.502C169.276 145.669 170.623 143.595 171.711 141.453C171.128 141.703 170.704 140.975 170.019 140.529C170.701 139.741 171.366 138.897 172.024 138.033C173.337 138.34 174.649 138.424 175.331 140.063C176.401 139.603 177.064 138.785 177.475 137.779C178.476 138.812 179.635 139.782 180.281 140.782C179.736 138.998 178.96 137.469 177.926 136.092C178.002 135.608 178.046 135.105 178.068 134.594C178.573 134.97 179.064 135.281 179.572 135.326C180.028 134.791 179.106 134.252 178.085 133.872C178.09 132.92 178.039 131.965 177.99 131.077C177.561 131.063 177.186 131.109 176.769 131.056C176.881 130.846 176.993 130.638 177.101 130.427C177.49 130.687 177.886 130.95 178.315 131.232C178.27 130.995 178.298 130.744 178.354 130.486C178.477 130.535 178.597 130.583 178.713 130.623C178.644 130.475 178.534 130.326 178.429 130.176C178.773 129.121 179.667 127.895 180.053 126.457C180.358 125.368 180.354 124.265 179.639 123.335C179.684 123.072 179.728 122.809 179.765 122.544C180.273 123.004 180.802 123.118 181.451 122.356C180.851 122.386 180.351 122.492 179.789 122.309C179.844 121.872 179.903 121.435 179.934 120.998C179.935 120.971 179.935 120.945 179.937 120.918C180.845 120.953 181.989 121.19 181.533 120.125L184.851 122.859C185.147 121.802 184.604 119.83 187.597 121.799C186.055 120.055 185.951 118.596 186.045 117.136C186.155 115.707 186.471 114.278 185.678 112.713L188.645 113.935C187.014 112.672 187.415 111.61 187.702 110.499C187.767 110.205 187.823 109.909 187.839 109.612C188.012 109.829 188.148 110.093 188.026 110.491L191 109.441Z" fill="#FF9696"/>
</g>
</g>
</svg>
