<svg width="11" height="11" viewBox="0 0 11 11" fill="none" xmlns="http://www.w3.org/2000/svg">
<path fill-rule="evenodd" clip-rule="evenodd" d="M10.9918 5.91036C11.0321 6.1333 10.9205 6.50243 10.7252 6.88252C10.5146 7.29331 10.3628 7.7465 10.2196 8.1953C10.079 8.6346 9.83872 8.9489 9.49813 9.22812C8.94699 9.68058 8.37868 10.0724 7.75823 10.4079C7.27178 10.6703 6.76684 10.7331 6.2685 10.845C5.62957 10.9868 4.96952 10.9963 4.31475 10.9999C4.02168 11.0021 3.75106 10.9458 3.4778 10.8121C3.2448 10.6973 2.98144 10.6198 2.72732 10.6016C2.09896 10.5584 1.65276 10.2186 1.29765 9.66962C0.947827 9.12945 0.596019 8.58855 0.211209 8.07908C0.0230949 7.82982 -0.00924764 7.5718 0.00197323 7.28161C0.0158343 6.90152 0.0626979 6.5207 0.0488369 6.14353C0.0283753 5.59021 0.191408 5.07635 0.321438 4.56688C0.450808 4.0596 0.502952 3.49312 0.892382 3.1028C0.8673 2.53193 1.26531 2.29948 1.59468 2.00345C1.77091 1.84411 1.91348 1.63871 2.07453 1.45744C2.4435 1.0408 2.88376 0.764498 3.39662 0.631466C3.83819 0.516707 4.18538 0.128575 4.66259 0.105915C5.12001 0.0839869 5.57611 0.0211256 6.03352 0.000659071C6.17015 -0.00591945 6.32328 0.0372064 6.44407 0.10957C6.72921 0.281342 7.02492 0.373442 7.34966 0.392446C7.86384 0.422415 8.19717 0.891683 8.65062 1.07734C8.78131 1.12997 8.8856 1.25789 9.00639 1.34268C9.27173 1.52761 9.61694 1.64456 9.78855 1.90331C10.0513 2.30241 10.1991 2.79507 10.3872 3.25264C10.4341 3.36594 10.4156 3.52821 10.4829 3.61446C10.7212 3.91999 10.7674 4.30959 10.8638 4.66702C10.9522 4.99521 10.9403 5.3563 10.9918 5.91036Z" fill="#17BD37"/>
</svg>
