<svg width="105" height="193" viewBox="0 0 105 193" fill="none" xmlns="http://www.w3.org/2000/svg">
<path fill-rule="evenodd" clip-rule="evenodd" d="M163.65 131.516L74.7447 177.66L26.989 86.0376L58.493 69.6872C55.7059 68.0184 53.3145 65.5674 51.6898 62.4507C47.1386 53.7186 50.3136 43.0818 58.7861 38.685C67.2577 34.2866 77.8078 37.7994 82.36 46.5331C83.9837 49.6481 84.6284 53.005 84.3912 56.2451L115.894 39.8932L132.737 72.208C134.299 69.5284 136.596 67.2628 139.521 65.7453C147.986 61.3518 158.547 64.868 163.095 73.5933C167.647 82.327 164.465 92.9672 156 97.3606C153.074 98.8782 149.897 99.4562 146.806 99.1998L163.65 131.516Z" fill="#007BFF"/>
<path fill-rule="evenodd" clip-rule="evenodd" d="M123.763 137.929C120.256 134.232 116.63 130.41 112.247 127.9C102.128 122.103 87.7523 123.884 77.2867 132.23C70.4451 137.685 65.2594 145.579 62.2112 154.989L62.4746 155.502C65.4776 145.993 70.6611 138.019 77.5338 132.54C87.8702 124.298 102.058 122.534 112.036 128.248C116.37 130.731 119.977 134.534 123.464 138.209C126.214 141.107 129.018 144.056 132.188 146.343L132.571 146.141C129.437 143.905 126.643 140.965 123.763 137.929Z" fill="white"/>
<path fill-rule="evenodd" clip-rule="evenodd" d="M49.5409 57.1802C56.8696 58.6891 63.1204 62.5203 66.7071 68.034C68.8659 71.3522 70.1148 75.2565 71.3212 79.0305C72.8287 83.7419 74.3845 88.6102 77.7296 92.3424C82.6459 97.824 90.3982 99.7059 96.6262 101.217L155.988 115.621L155.737 115.14L96.7195 100.82C89.1382 98.9796 82.4997 97.0516 78.0311 92.0684C74.7516 88.4147 73.2048 83.5802 71.7108 78.9088C70.4954 75.1081 69.2377 71.1771 67.0488 67.8126C63.374 62.1659 56.9493 58.2497 49.4308 56.7425C49.465 56.8887 49.503 57.0345 49.5409 57.1802Z" fill="white"/>
<path fill-rule="evenodd" clip-rule="evenodd" d="M44.1541 101.463C43.0396 94.3695 40.0833 87.4769 35.7881 81.5432L35.4438 81.7175C39.716 87.6038 42.6572 94.4497 43.7657 101.497C44.6529 107.144 44.3478 112.856 42.9942 118.215L43.2785 118.743C44.7337 113.22 45.0731 107.306 44.1541 101.463Z" fill="white"/>
</svg>
