<svg width="146" height="144" viewBox="0 0 146 144" fill="none" xmlns="http://www.w3.org/2000/svg">
<path d="M108.907 102.6C113.424 102.02 115.498 96.3251 113.139 92.4629C110.584 88.2812 104.663 88.991 101.773 92.0681C98.5709 95.4814 99.7029 101.471 103.828 103.92C107.952 106.369 113.113 103.745 113.963 99.2516C114.194 98.0462 112.285 97.8598 112.062 99.0527C111.42 102.435 107.212 104.078 104.355 102.025C101.498 99.9712 100.896 95.5785 103.412 93.1699C105.377 91.2853 109.149 90.5469 111.179 92.9591C113.398 95.6037 111.914 100.27 108.546 100.712C107.329 100.87 107.689 102.766 108.9 102.606L108.907 102.6Z" fill="#10100E"/>
<path d="M29.2683 91.5443C35.2231 90.7786 37.9575 83.2711 34.848 78.1795C31.4798 72.6666 23.6742 73.6023 19.8637 77.659C15.642 82.1589 17.1344 90.0559 22.5722 93.2839C28.01 96.5119 34.814 93.0532 35.9343 87.1293C36.2384 85.5402 33.7224 85.2945 33.4282 86.8671C32.5814 91.3258 27.0346 93.4923 23.2679 90.7852C19.5013 88.0781 18.7079 82.2869 22.0239 79.1116C24.6143 76.627 29.5879 75.6535 32.2642 78.8336C35.1898 82.3201 33.2322 88.4719 28.7928 89.0545C27.1882 89.2633 27.6631 91.7619 29.259 91.5521L29.2683 91.5443Z" fill="#10100E"/>
<path d="M83.7711 30.8039C92.12 29.7302 95.9537 19.2047 91.594 12.0661C86.8718 4.33676 75.9281 5.6487 70.5857 11.3362C64.6667 17.6452 66.7592 28.7171 74.3831 33.2428C82.007 37.7686 91.5464 32.9194 93.1171 24.6139C93.5435 22.3859 90.0159 22.0414 89.6035 24.2463C88.4162 30.4975 80.6394 33.535 75.3585 29.7395C70.0776 25.9441 68.9653 17.8247 73.6144 13.3728C77.2461 9.88945 84.2193 8.52451 87.9715 12.9831C92.0732 17.8713 89.3287 26.4962 83.1045 27.313C80.8548 27.6059 81.5206 31.1089 83.7581 30.8148L83.7711 30.8039Z" fill="#10100E"/>
<path d="M100.262 95.6108C100.262 95.6108 61.885 84.487 34.894 85.8105" stroke="black" stroke-width="2"/>
</svg>
