<svg width="594" height="596" viewBox="0 0 594 596" fill="none" xmlns="http://www.w3.org/2000/svg">
<mask id="mask0_141_119" style="mask-type:alpha" maskUnits="userSpaceOnUse" x="0" y="0" width="594" height="596">
<rect width="594" height="596" fill="white"/>
</mask>
<g mask="url(#mask0_141_119)">
<path fill-rule="evenodd" clip-rule="evenodd" d="M282.988 13.241C390.464 -12.9033 493.665 6.24204 554.1 103.289C611.071 194.773 599.486 353.686 532.752 438.297C462.995 526.74 352.702 579.163 245.633 543.061C175.511 519.418 91.2722 463.482 38.0176 325.989C-10.3951 172.036 124.214 51.8639 282.988 13.241Z" fill="#811EFF"/>
<path fill-rule="evenodd" clip-rule="evenodd" d="M261.195 48.133C368.953 21.9201 472.425 41.1156 533.018 138.417C590.139 230.142 578.523 389.471 511.614 474.304C441.674 562.979 331.092 615.539 223.742 579.343C153.436 555.638 68.976 499.555 15.5817 361.702C-32.958 207.345 102.004 86.8572 261.195 48.133Z" stroke="#F3E9FF"/>
</g>
</svg>
