<svg width="766" height="766" viewBox="0 0 766 766" fill="none" xmlns="http://www.w3.org/2000/svg">
<path d="M527.5 400C527.5 477.596 464.596 540.5 387 540.5C309.404 540.5 246.5 477.596 246.5 400C246.5 322.404 309.404 259.5 387 259.5C464.596 259.5 527.5 322.404 527.5 400Z" stroke="white" stroke-opacity="0.2"/>
<path d="M644.5 390C644.5 534.975 526.975 652.5 382 652.5C237.025 652.5 119.5 534.975 119.5 390C119.5 245.025 237.025 127.5 382 127.5C526.975 127.5 644.5 245.025 644.5 390Z" stroke="white" stroke-opacity="0.1"/>
<path d="M765.5 383C765.5 594.249 594.249 765.5 383 765.5C171.751 765.5 0.5 594.249 0.5 383C0.5 171.751 171.751 0.5 383 0.5C594.249 0.5 765.5 171.751 765.5 383Z" stroke="white" stroke-opacity="0.05"/>
<circle cx="197" cy="720" r="37" fill="url(#paint0_linear_812_417)"/>
<circle cx="99" cy="126" r="9" fill="url(#paint1_linear_812_417)"/>
<circle cx="659.5" cy="116.5" r="14.5" fill="url(#paint2_linear_812_417)"/>
<defs>
<linearGradient id="paint0_linear_812_417" x1="197" y1="683" x2="197" y2="757" gradientUnits="userSpaceOnUse">
<stop stop-color="#FFACE6"/>
<stop offset="1" stop-color="#9075F3"/>
</linearGradient>
<linearGradient id="paint1_linear_812_417" x1="99" y1="117" x2="99" y2="135" gradientUnits="userSpaceOnUse">
<stop stop-color="#FFACE6"/>
<stop offset="1" stop-color="#9075F3"/>
</linearGradient>
<linearGradient id="paint2_linear_812_417" x1="659.5" y1="102" x2="659.5" y2="131" gradientUnits="userSpaceOnUse">
<stop stop-color="#FF95A6"/>
<stop offset="1" stop-color="#A880F1"/>
</linearGradient>
</defs>
</svg>
