<svg width="44" height="44" viewBox="0 0 44 44" fill="none" xmlns="http://www.w3.org/2000/svg">
<path fill-rule="evenodd" clip-rule="evenodd" d="M24.3808 1.18246C23.371 1.06665 22.3298 1.02563 21.3151 1.057L21.2837 0.00984311C22.3491 -0.0215233 23.4411 0.0219071 24.4992 0.142547L24.3808 1.18246ZM15.2948 2.13069L14.959 1.13903C15.9761 0.798828 17.027 0.531008 18.0803 0.342809L18.2639 1.37307C17.2613 1.55162 16.2611 1.80738 15.2948 2.13069ZM30.2924 2.75802C29.3527 2.35508 28.3767 2.01488 27.3934 1.7543L27.6616 0.740921C28.6955 1.01839 29.7223 1.37307 30.7055 1.79773L30.2924 2.75802ZM9.84462 4.90059L9.23824 4.04646C10.1104 3.42878 11.038 2.86901 11.9923 2.38404L12.4658 3.31538C11.5599 3.77864 10.6757 4.31186 9.84462 4.90059ZM35.4914 5.9767C34.7086 5.318 33.8727 4.71239 33.0079 4.17675L33.5611 3.28642C34.467 3.84861 35.344 4.48317 36.1678 5.17565L35.4914 5.9767ZM5.42118 9.12299L4.59496 8.47877C5.25449 7.63429 5.98166 6.83324 6.75474 6.09492L7.47949 6.85254C6.74266 7.55467 6.05172 8.31952 5.42118 9.12299ZM39.5452 10.5514C38.9895 9.69965 38.3638 8.88171 37.6874 8.11685L38.4725 7.42438C39.1828 8.22542 39.8399 9.08438 40.4245 9.97953L39.5452 10.5514ZM2.40136 14.4384L1.42294 14.0596C1.81189 13.0607 2.27574 12.0811 2.80481 11.1522L3.71559 11.6685C3.21309 12.554 2.77099 13.4853 2.40136 14.4384ZM42.1084 16.0984C41.8209 15.1188 41.4585 14.1537 41.0309 13.2296L41.9828 12.7904C42.4321 13.7628 42.8138 14.7738 43.1134 15.804L42.1084 16.0984ZM1.05331 20.398L0.00724757 20.3184C0.0893867 19.2471 0.248833 18.1758 0.485587 17.1383L1.50749 17.3675C1.28524 18.3568 1.13062 19.3774 1.05331 20.398ZM43.7681 25.2067L42.7293 25.0547C42.8766 24.0486 42.9515 23.0207 42.9515 22.0001C42.9515 21.0229 42.8839 20.0457 42.751 19.0903L43.7898 18.9455C43.9299 19.9492 44 20.9747 44 22.0001C44 23.0714 43.9227 24.1499 43.7681 25.2067ZM0.451765 26.7147C0.224675 25.67 0.0724757 24.5987 0 23.5322L1.04365 23.4598C1.11371 24.478 1.26108 25.4962 1.4785 26.4927L0.451765 26.7147ZM41.9175 31.3497L40.9681 30.9033C41.403 29.9816 41.7726 29.0189 42.0649 28.0417L43.0699 28.3433C42.7607 29.3688 42.3741 30.3797 41.9175 31.3497ZM2.7275 32.7129C2.20568 31.7768 1.74666 30.7972 1.36737 29.7983L2.35063 29.4291C2.71059 30.3773 3.14545 31.3111 3.64311 32.2014L2.7275 32.7129ZM38.3662 36.6965L37.5835 35.9967C38.2672 35.2367 38.8977 34.4212 39.463 33.5743L40.3351 34.1534C39.7457 35.0413 39.0813 35.8978 38.3662 36.6965ZM6.64119 37.7967C5.87295 37.0536 5.15302 36.2453 4.50074 35.3984L5.3318 34.759C5.95267 35.5673 6.64119 36.3345 7.37078 37.0439L6.64119 37.7967ZM33.4258 40.7958L32.8798 39.9007C33.7471 39.3747 34.5878 38.7739 35.3754 38.1224L36.0446 38.9259C35.2184 39.6135 34.3366 40.2433 33.4258 40.7958ZM11.8546 41.5462C10.9052 41.0564 9.98232 40.4894 9.1102 39.862L9.72382 39.0103C10.5525 39.6087 11.4318 40.1492 12.3354 40.6148L11.8546 41.5462ZM27.5142 43.2979L27.2509 42.2821C28.2389 42.0263 29.215 41.6958 30.1547 41.2977L30.563 42.2628C29.5773 42.6802 28.5506 43.0276 27.5142 43.2979ZM17.9305 43.6284C16.8723 43.433 15.8239 43.1579 14.814 42.8129L15.1571 41.8212C16.1162 42.1518 17.1139 42.4148 18.1213 42.6006L17.9305 43.6284ZM21.9746 44C21.6896 44 21.4093 43.9952 21.1291 43.9831L21.1702 42.9384C22.1872 42.9746 23.2309 42.9384 24.2359 42.8322L24.347 43.8745C23.5667 43.9566 22.7695 44 21.9746 44Z" fill="#95BEFF"/>
</svg>
