<svg width="638" height="490" viewBox="0 0 638 490" fill="none" xmlns="http://www.w3.org/2000/svg">
<mask id="mask0_1341_4297" style="mask-type:alpha" maskUnits="userSpaceOnUse" x="0" y="0" width="638" height="490">
<rect x="638" y="490" width="638" height="490" transform="rotate(-180 638 490)" fill="#C4C4C4"/>
</mask>
<g mask="url(#mask0_1341_4297)">
<rect x="636.354" y="689.363" width="0.893916" height="690.87" transform="rotate(-165 636.354 689.363)" fill="black"/>
<rect x="631.416" y="688.041" width="0.893916" height="690.87" transform="rotate(-165 631.416 688.041)" fill="black"/>
<rect x="601.814" y="680.108" width="0.893916" height="690.87" transform="rotate(-165 601.814 680.108)" fill="black"/>
<rect x="626.482" y="686.718" width="0.893916" height="690.87" transform="rotate(-165 626.482 686.718)" fill="black"/>
<rect x="596.881" y="678.786" width="0.893916" height="690.87" transform="rotate(-165 596.881 678.786)" fill="black"/>
<rect x="621.551" y="685.396" width="0.893916" height="690.87" transform="rotate(-165 621.551 685.396)" fill="black"/>
<rect x="591.947" y="677.464" width="0.893916" height="690.87" transform="rotate(-165 591.947 677.464)" fill="black"/>
<rect x="616.617" y="684.074" width="0.893916" height="690.87" transform="rotate(-165 616.617 684.074)" fill="black"/>
<rect x="587.016" y="676.142" width="0.893916" height="690.87" transform="rotate(-165 587.016 676.142)" fill="black"/>
<rect x="611.684" y="682.752" width="0.893916" height="690.87" transform="rotate(-165 611.684 682.752)" fill="black"/>
<rect x="582.078" y="674.82" width="0.893916" height="690.87" transform="rotate(-165 582.078 674.82)" fill="black"/>
<rect x="606.748" y="681.43" width="0.893916" height="690.87" transform="rotate(-165 606.748 681.43)" fill="black"/>
<rect x="577.145" y="673.498" width="0.893916" height="690.87" transform="rotate(-165 577.145 673.498)" fill="black"/>
<rect x="572.211" y="672.176" width="0.893916" height="690.87" transform="rotate(-165 572.211 672.176)" fill="black"/>
<rect x="542.607" y="664.243" width="0.893916" height="690.87" transform="rotate(-165 542.607 664.243)" fill="black"/>
<rect x="567.277" y="670.854" width="0.893916" height="690.87" transform="rotate(-165 567.277 670.854)" fill="black"/>
<rect x="537.672" y="662.921" width="0.893916" height="690.87" transform="rotate(-165 537.672 662.921)" fill="black"/>
<rect x="562.342" y="669.532" width="0.893916" height="690.87" transform="rotate(-165 562.342 669.532)" fill="black"/>
<rect x="532.738" y="661.599" width="0.893916" height="690.87" transform="rotate(-165 532.738 661.599)" fill="black"/>
<rect x="557.408" y="668.209" width="0.893916" height="690.87" transform="rotate(-165 557.408 668.209)" fill="black"/>
<rect x="527.805" y="660.277" width="0.893916" height="690.87" transform="rotate(-165 527.805 660.277)" fill="black"/>
<rect x="552.475" y="666.887" width="0.893916" height="690.87" transform="rotate(-165 552.475 666.887)" fill="black"/>
<rect x="522.871" y="658.955" width="0.893916" height="690.87" transform="rotate(-165 522.871 658.955)" fill="black"/>
<rect x="547.539" y="665.565" width="0.893916" height="690.87" transform="rotate(-165 547.539 665.565)" fill="black"/>
<rect x="517.936" y="657.633" width="0.893916" height="690.87" transform="rotate(-165 517.936 657.633)" fill="black"/>
<rect x="513.002" y="656.311" width="0.893916" height="690.87" transform="rotate(-165 513.002 656.311)" fill="black"/>
<rect x="483.398" y="648.378" width="0.893916" height="690.87" transform="rotate(-165 483.398 648.378)" fill="black"/>
<rect x="508.066" y="654.989" width="0.893916" height="690.87" transform="rotate(-165 508.066 654.989)" fill="black"/>
<rect x="478.465" y="647.056" width="0.893916" height="690.87" transform="rotate(-165 478.465 647.056)" fill="black"/>
<rect x="503.133" y="653.667" width="0.893916" height="690.87" transform="rotate(-165 503.133 653.667)" fill="black"/>
<rect x="473.531" y="645.734" width="0.893916" height="690.87" transform="rotate(-165 473.531 645.734)" fill="black"/>
<rect x="498.201" y="652.344" width="0.893916" height="690.87" transform="rotate(-165 498.201 652.344)" fill="black"/>
<rect x="468.594" y="644.412" width="0.893916" height="690.87" transform="rotate(-165 468.594 644.412)" fill="black"/>
<rect x="493.266" y="651.022" width="0.893916" height="690.87" transform="rotate(-165 493.266 651.022)" fill="black"/>
<rect x="463.66" y="643.09" width="0.893916" height="690.87" transform="rotate(-165 463.66 643.09)" fill="black"/>
<rect x="488.332" y="649.7" width="0.893916" height="690.87" transform="rotate(-165 488.332 649.7)" fill="black"/>
<rect x="458.727" y="641.768" width="0.893916" height="690.87" transform="rotate(-165 458.727 641.768)" fill="black"/>
<rect x="453.795" y="640.446" width="0.893916" height="690.87" transform="rotate(-165 453.795 640.446)" fill="black"/>
<rect x="424.188" y="632.513" width="0.893916" height="690.87" transform="rotate(-165 424.188 632.513)" fill="black"/>
<rect x="448.859" y="639.124" width="0.893916" height="690.87" transform="rotate(-165 448.859 639.124)" fill="black"/>
<rect x="419.254" y="631.192" width="0.893916" height="690.87" transform="rotate(-165 419.254 631.192)" fill="black"/>
<rect x="443.926" y="637.802" width="0.893916" height="690.87" transform="rotate(-165 443.926 637.802)" fill="black"/>
<rect x="414.32" y="629.869" width="0.893916" height="690.87" transform="rotate(-165 414.32 629.869)" fill="black"/>
<rect x="438.992" y="636.48" width="0.893916" height="690.87" transform="rotate(-165 438.992 636.48)" fill="black"/>
<rect x="409.389" y="628.547" width="0.893916" height="690.87" transform="rotate(-165 409.389 628.547)" fill="black"/>
<rect x="434.059" y="635.158" width="0.893916" height="690.87" transform="rotate(-165 434.059 635.158)" fill="black"/>
<rect x="404.455" y="627.225" width="0.893916" height="690.87" transform="rotate(-165 404.455 627.225)" fill="black"/>
<rect x="429.123" y="633.836" width="0.893916" height="690.87" transform="rotate(-165 429.123 633.836)" fill="black"/>
<rect x="399.52" y="625.903" width="0.893916" height="690.87" transform="rotate(-165 399.52 625.903)" fill="black"/>
<rect x="394.586" y="624.581" width="0.893916" height="690.87" transform="rotate(-165 394.586 624.581)" fill="black"/>
<rect x="364.982" y="616.649" width="0.893916" height="690.87" transform="rotate(-165 364.982 616.649)" fill="black"/>
<rect x="389.65" y="623.259" width="0.893916" height="690.87" transform="rotate(-165 389.65 623.259)" fill="black"/>
<rect x="360.049" y="615.327" width="0.893916" height="690.87" transform="rotate(-165 360.049 615.327)" fill="black"/>
<rect x="384.717" y="621.937" width="0.893916" height="690.87" transform="rotate(-165 384.717 621.937)" fill="black"/>
<rect x="355.111" y="614.004" width="0.893916" height="690.87" transform="rotate(-165 355.111 614.004)" fill="black"/>
<rect x="379.781" y="620.615" width="0.893916" height="690.87" transform="rotate(-165 379.781 620.615)" fill="black"/>
<rect x="350.178" y="612.683" width="0.893916" height="690.87" transform="rotate(-165 350.178 612.683)" fill="black"/>
<rect x="374.848" y="619.293" width="0.893916" height="690.87" transform="rotate(-165 374.848 619.293)" fill="black"/>
<rect x="345.244" y="611.36" width="0.893916" height="690.87" transform="rotate(-165 345.244 611.36)" fill="black"/>
<rect x="369.914" y="617.971" width="0.893916" height="690.87" transform="rotate(-165 369.914 617.971)" fill="black"/>
<rect x="340.311" y="610.038" width="0.893916" height="690.87" transform="rotate(-165 340.311 610.038)" fill="black"/>
<rect x="335.375" y="608.716" width="0.893916" height="690.87" transform="rotate(-165 335.375 608.716)" fill="black"/>
<rect x="305.771" y="600.784" width="0.893916" height="690.87" transform="rotate(-165 305.771 600.784)" fill="black"/>
<rect x="330.441" y="607.394" width="0.893916" height="690.87" transform="rotate(-165 330.441 607.394)" fill="black"/>
<rect x="300.838" y="599.462" width="0.893916" height="690.87" transform="rotate(-165 300.838 599.462)" fill="black"/>
<rect x="325.51" y="606.072" width="0.893916" height="690.87" transform="rotate(-165 325.51 606.072)" fill="black"/>
<rect x="295.904" y="598.14" width="0.893916" height="690.87" transform="rotate(-165 295.904 598.14)" fill="black"/>
<rect x="320.576" y="604.75" width="0.893916" height="690.87" transform="rotate(-165 320.576 604.75)" fill="black"/>
<rect x="290.971" y="596.818" width="0.893916" height="690.87" transform="rotate(-165 290.971 596.818)" fill="black"/>
<rect x="315.643" y="603.428" width="0.893916" height="690.87" transform="rotate(-165 315.643 603.428)" fill="black"/>
<rect x="286.035" y="595.495" width="0.893916" height="690.87" transform="rotate(-165 286.035 595.495)" fill="black"/>
<rect x="310.705" y="602.106" width="0.893916" height="690.87" transform="rotate(-165 310.705 602.106)" fill="black"/>
<rect x="281.104" y="594.174" width="0.893916" height="690.87" transform="rotate(-165 281.104 594.174)" fill="black"/>
<rect x="276.17" y="592.851" width="0.893916" height="690.87" transform="rotate(-165 276.17 592.851)" fill="black"/>
<rect x="246.564" y="584.919" width="0.893916" height="690.87" transform="rotate(-165 246.564 584.919)" fill="black"/>
<rect x="271.234" y="591.53" width="0.893916" height="690.87" transform="rotate(-165 271.234 591.53)" fill="black"/>
<rect x="241.629" y="583.597" width="0.893916" height="690.87" transform="rotate(-165 241.629 583.597)" fill="black"/>
<rect x="266.299" y="590.207" width="0.893916" height="690.87" transform="rotate(-165 266.299 590.207)" fill="black"/>
<rect x="236.697" y="582.275" width="0.893916" height="690.87" transform="rotate(-165 236.697 582.275)" fill="black"/>
<rect x="261.365" y="588.885" width="0.893916" height="690.87" transform="rotate(-165 261.365 588.885)" fill="black"/>
<rect x="231.762" y="580.953" width="0.893916" height="690.87" transform="rotate(-165 231.762 580.953)" fill="black"/>
<rect x="256.432" y="587.563" width="0.893916" height="690.87" transform="rotate(-165 256.432 587.563)" fill="black"/>
<rect x="226.828" y="579.631" width="0.893916" height="690.87" transform="rotate(-165 226.828 579.631)" fill="black"/>
<rect x="251.498" y="586.241" width="0.893916" height="690.87" transform="rotate(-165 251.498 586.241)" fill="black"/>
<rect x="221.895" y="578.309" width="0.893916" height="690.87" transform="rotate(-165 221.895 578.309)" fill="black"/>
<rect x="217.6" y="577.158" width="0.893916" height="690.87" transform="rotate(-165 217.6 577.158)" fill="black"/>
<rect x="187.996" y="569.226" width="0.893916" height="690.87" transform="rotate(-165 187.996 569.226)" fill="black"/>
<rect x="212.666" y="575.836" width="0.893916" height="690.87" transform="rotate(-165 212.666 575.836)" fill="black"/>
<rect x="183.059" y="567.904" width="0.893916" height="690.87" transform="rotate(-165 183.059 567.904)" fill="black"/>
<rect x="207.732" y="574.514" width="0.893916" height="690.87" transform="rotate(-165 207.732 574.514)" fill="black"/>
<rect x="178.127" y="566.582" width="0.893916" height="690.87" transform="rotate(-165 178.127 566.582)" fill="black"/>
<rect x="202.797" y="573.192" width="0.893916" height="690.87" transform="rotate(-165 202.797 573.192)" fill="black"/>
<rect x="173.193" y="565.259" width="0.893916" height="690.87" transform="rotate(-165 173.193 565.259)" fill="black"/>
<rect x="197.863" y="571.87" width="0.893916" height="690.87" transform="rotate(-165 197.863 571.87)" fill="black"/>
<rect x="168.26" y="563.938" width="0.893916" height="690.87" transform="rotate(-165 168.26 563.938)" fill="black"/>
<rect x="192.93" y="570.548" width="0.893916" height="690.87" transform="rotate(-165 192.93 570.548)" fill="black"/>
<rect x="163.326" y="562.615" width="0.893916" height="690.87" transform="rotate(-165 163.326 562.615)" fill="black"/>
<rect x="158.391" y="561.293" width="0.893916" height="690.87" transform="rotate(-165 158.391 561.293)" fill="black"/>
<rect x="128.787" y="553.361" width="0.893916" height="690.87" transform="rotate(-165 128.787 553.361)" fill="black"/>
<rect x="153.457" y="559.971" width="0.893916" height="690.87" transform="rotate(-165 153.457 559.971)" fill="black"/>
<rect x="123.854" y="552.039" width="0.893916" height="690.87" transform="rotate(-165 123.854 552.039)" fill="black"/>
<rect x="148.523" y="558.649" width="0.893916" height="690.87" transform="rotate(-165 148.523 558.649)" fill="black"/>
<rect x="118.92" y="550.717" width="0.893916" height="690.87" transform="rotate(-165 118.92 550.717)" fill="black"/>
<rect x="143.59" y="557.327" width="0.893916" height="690.87" transform="rotate(-165 143.59 557.327)" fill="black"/>
<rect x="113.984" y="549.395" width="0.893916" height="690.87" transform="rotate(-165 113.984 549.395)" fill="black"/>
<rect x="138.658" y="556.005" width="0.893916" height="690.87" transform="rotate(-165 138.658 556.005)" fill="black"/>
<rect x="109.051" y="548.073" width="0.893916" height="690.87" transform="rotate(-165 109.051 548.073)" fill="black"/>
<rect x="133.721" y="554.683" width="0.893916" height="690.87" transform="rotate(-165 133.721 554.683)" fill="black"/>
<rect x="104.117" y="546.75" width="0.893916" height="690.87" transform="rotate(-165 104.117 546.75)" fill="black"/>
<rect x="99.1816" y="545.428" width="0.893916" height="690.87" transform="rotate(-165 99.1816 545.428)" fill="black"/>
<rect x="69.5801" y="537.496" width="0.893916" height="690.87" transform="rotate(-165 69.5801 537.496)" fill="black"/>
<rect x="94.25" y="544.106" width="0.893916" height="690.87" transform="rotate(-165 94.25 544.106)" fill="black"/>
<rect x="64.6445" y="536.174" width="0.893916" height="690.87" transform="rotate(-165 64.6445 536.174)" fill="black"/>
<rect x="89.3145" y="542.784" width="0.893916" height="690.87" transform="rotate(-165 89.3145 542.784)" fill="black"/>
<rect x="59.709" y="534.852" width="0.893916" height="690.87" transform="rotate(-165 59.709 534.852)" fill="black"/>
<rect x="84.3809" y="541.462" width="0.893916" height="690.87" transform="rotate(-165 84.3809 541.462)" fill="black"/>
<rect x="54.7754" y="533.53" width="0.893916" height="690.87" transform="rotate(-165 54.7754 533.53)" fill="black"/>
<rect x="79.4473" y="540.14" width="0.893916" height="690.87" transform="rotate(-165 79.4473 540.14)" fill="black"/>
<rect x="49.8438" y="532.208" width="0.893916" height="690.87" transform="rotate(-165 49.8438 532.208)" fill="black"/>
<rect x="74.5137" y="538.818" width="0.893916" height="690.87" transform="rotate(-165 74.5137 538.818)" fill="black"/>
<rect x="44.9082" y="530.886" width="0.893916" height="690.87" transform="rotate(-165 44.9082 530.886)" fill="black"/>
<rect x="39.9746" y="529.563" width="0.893916" height="690.87" transform="rotate(-165 39.9746 529.563)" fill="black"/>
<rect x="10.3691" y="521.631" width="0.893916" height="690.87" transform="rotate(-165 10.3691 521.631)" fill="black"/>
<rect x="35.041" y="528.241" width="0.893916" height="690.87" transform="rotate(-165 35.041 528.241)" fill="black"/>
<rect x="5.4375" y="520.309" width="0.893916" height="690.87" transform="rotate(-165 5.4375 520.309)" fill="black"/>
<rect x="30.1074" y="526.919" width="0.893916" height="690.87" transform="rotate(-165 30.1074 526.919)" fill="black"/>
<rect x="0.501953" y="518.987" width="0.893916" height="690.87" transform="rotate(-165 0.501953 518.987)" fill="black"/>
<rect x="25.1738" y="525.597" width="0.893916" height="690.87" transform="rotate(-165 25.1738 525.597)" fill="black"/>
<rect x="-4.43164" y="517.665" width="0.893916" height="690.87" transform="rotate(-165 -4.43164 517.665)" fill="black"/>
<rect x="20.2363" y="524.275" width="0.893916" height="690.87" transform="rotate(-165 20.2363 524.275)" fill="black"/>
<rect x="-9.36523" y="516.343" width="0.893916" height="690.87" transform="rotate(-165 -9.36523 516.343)" fill="black"/>
<rect x="15.3027" y="522.953" width="0.893916" height="690.87" transform="rotate(-165 15.3027 522.953)" fill="black"/>
<rect x="-14.2988" y="515.021" width="0.893916" height="690.87" transform="rotate(-165 -14.2988 515.021)" fill="black"/>
<rect x="-19.2324" y="513.698" width="0.893916" height="690.87" transform="rotate(-165 -19.2324 513.698)" fill="black"/>
<rect x="-48.8379" y="505.766" width="0.893916" height="690.87" transform="rotate(-165 -48.8379 505.766)" fill="black"/>
<rect x="-24.1699" y="512.377" width="0.893916" height="690.87" transform="rotate(-165 -24.1699 512.377)" fill="black"/>
<rect x="-53.7715" y="504.444" width="0.893916" height="690.87" transform="rotate(-165 -53.7715 504.444)" fill="black"/>
<rect x="-29.1035" y="511.054" width="0.893916" height="690.87" transform="rotate(-165 -29.1035 511.054)" fill="black"/>
<rect x="-58.707" y="503.122" width="0.893916" height="690.87" transform="rotate(-165 -58.707 503.122)" fill="black"/>
<rect x="-34.0371" y="509.732" width="0.893916" height="690.87" transform="rotate(-165 -34.0371 509.732)" fill="black"/>
<rect x="-63.6406" y="501.8" width="0.893916" height="690.87" transform="rotate(-165 -63.6406 501.8)" fill="black"/>
<rect x="-38.9688" y="508.41" width="0.893916" height="690.87" transform="rotate(-165 -38.9688 508.41)" fill="black"/>
<rect x="-68.5762" y="500.478" width="0.893916" height="690.87" transform="rotate(-165 -68.5762 500.478)" fill="black"/>
<rect x="-43.9023" y="507.088" width="0.893916" height="690.87" transform="rotate(-165 -43.9023 507.088)" fill="black"/>
<rect x="-73.5098" y="499.156" width="0.893916" height="690.87" transform="rotate(-165 -73.5098 499.156)" fill="black"/>
<rect x="-78.4434" y="497.834" width="0.893916" height="690.87" transform="rotate(-165 -78.4434 497.834)" fill="black"/>
<rect x="-108.047" y="489.901" width="0.893916" height="690.87" transform="rotate(-165 -108.047 489.901)" fill="black"/>
<rect x="-83.375" y="496.512" width="0.893916" height="690.87" transform="rotate(-165 -83.375 496.512)" fill="black"/>
<rect x="-112.98" y="488.579" width="0.893916" height="690.87" transform="rotate(-165 -112.98 488.579)" fill="black"/>
<rect x="-88.3086" y="495.189" width="0.893916" height="690.87" transform="rotate(-165 -88.3086 495.189)" fill="black"/>
<rect x="-117.916" y="487.257" width="0.893916" height="690.87" transform="rotate(-165 -117.916 487.257)" fill="black"/>
<rect x="-93.2461" y="493.868" width="0.893916" height="690.87" transform="rotate(-165 -93.2461 493.868)" fill="black"/>
<rect x="-122.848" y="485.935" width="0.893916" height="690.87" transform="rotate(-165 -122.848 485.935)" fill="black"/>
<rect x="-98.1797" y="492.545" width="0.893916" height="690.87" transform="rotate(-165 -98.1797 492.545)" fill="black"/>
<rect x="-127.781" y="484.613" width="0.893916" height="690.87" transform="rotate(-165 -127.781 484.613)" fill="black"/>
<rect x="-103.113" y="491.224" width="0.893916" height="690.87" transform="rotate(-165 -103.113 491.224)" fill="black"/>
<rect x="-132.715" y="483.291" width="0.893916" height="690.87" transform="rotate(-165 -132.715 483.291)" fill="black"/>
<rect x="-137.652" y="481.969" width="0.893916" height="690.87" transform="rotate(-165 -137.652 481.969)" fill="black"/>
<rect x="-167.254" y="474.037" width="0.893916" height="690.87" transform="rotate(-165 -167.254 474.037)" fill="black"/>
<rect x="-142.586" y="480.647" width="0.893916" height="690.87" transform="rotate(-165 -142.586 480.647)" fill="black"/>
<rect x="-172.188" y="472.715" width="0.893916" height="690.87" transform="rotate(-165 -172.188 472.715)" fill="black"/>
<rect x="-147.52" y="479.325" width="0.893916" height="690.87" transform="rotate(-165 -147.52 479.325)" fill="black"/>
<rect x="-177.123" y="471.393" width="0.893916" height="690.87" transform="rotate(-165 -177.123 471.393)" fill="black"/>
<rect x="-152.453" y="478.003" width="0.893916" height="690.87" transform="rotate(-165 -152.453 478.003)" fill="black"/>
<rect x="-157.387" y="476.681" width="0.893916" height="690.87" transform="rotate(-165 -157.387 476.681)" fill="black"/>
<rect x="-162.322" y="475.359" width="0.893916" height="690.87" transform="rotate(-165 -162.322 475.359)" fill="black"/>
</g>
</svg>
