<svg width="73" height="129" viewBox="0 0 73 129" fill="none" xmlns="http://www.w3.org/2000/svg">
<path fill-rule="evenodd" clip-rule="evenodd" d="M-18.028 52.0343C-17.6775 52.3172 -17.4523 52.4994 -17.2346 52.6753C-17.0297 52.5906 -17.0988 52.4431 -17.1005 52.3039C-17.1043 52.0183 -17.5885 51.7908 -17.2991 51.5237C-16.949 51.2005 -16.7887 51.7797 -16.4895 51.8278C-16.2763 51.4285 -16.772 51.1743 -16.6935 50.8232C-15.7215 50.5068 -15.1307 50.9679 -14.5223 51.668C-12.8692 53.5705 -11.0645 55.3191 -8.95639 56.7357C-8.16034 57.2704 -8.03301 58.5078 -7.02155 58.8021C-5.7386 59.1754 -4.77968 60.0778 -4.03844 61.0017C-2.75822 62.5975 -0.950404 63.3496 0.595091 64.5093C1.02998 64.8356 1.70206 64.7281 1.9724 65.3166C2.05978 65.5066 2.28831 65.8296 2.01333 65.8646C1.07326 65.9858 1.29952 66.7734 1.00858 67.2973C0.468513 68.2695 -0.608483 68.2009 -1.53466 68.0618C-2.99421 67.8425 -4.25472 67.0666 -5.36339 66.1533C-9.60886 62.6574 -13.5617 58.8556 -16.9921 54.5432C-17.5147 53.8864 -18.2169 53.2347 -18.028 52.0343Z" fill="black"/>
<path fill-rule="evenodd" clip-rule="evenodd" d="M5.28308 108.842C7.22656 110.313 8.50747 112.209 10.2562 113.583C12.0238 114.971 13.6713 116.52 15.6586 117.627C14.1585 116.392 12.655 115.161 11.1583 113.922C9.44131 112.499 7.92774 110.873 6.39202 109.262C5.62159 108.453 5.83762 107.835 6.51417 107.338C7.17526 106.853 8.0442 106.949 8.46999 107.686C9.33746 109.189 10.673 110.261 12.0442 111.092C14.4324 112.54 16.4781 114.508 19.0761 115.633C19.6749 115.892 20.0856 116.485 20.7553 116.764C21.5087 117.077 22.167 117.297 22.9989 117.105C23.4821 116.994 24.1869 116.589 24.527 117.207C24.8054 117.713 24.9308 118.379 24.3991 118.955C24.1963 119.175 24.1843 119.572 24.0875 119.889C23.5229 121.744 22.0077 122.521 20.1951 121.737C17.7643 120.684 15.6518 119.1 13.5832 117.469C10.8723 115.333 8.25141 113.098 6.04473 110.421C5.71921 110.026 5.33899 109.666 5.28308 108.842Z" fill="black"/>
<path fill-rule="evenodd" clip-rule="evenodd" d="M42.8233 64.217C42.1391 66.7498 40.8249 67.216 38.9534 65.7955C37.4899 64.6848 36.4412 63.1815 35.3796 61.7171C32.902 58.2987 30.5432 54.7996 28.3803 51.1677C27.8511 50.2795 27.8216 49.3652 27.7887 48.426C27.7775 48.0982 27.7763 47.3738 28.0334 47.4701C28.5588 47.6684 29.1945 47.2581 29.6415 47.9006C31.6373 50.77 33.8779 53.4537 36.0452 56.1931C37.001 57.4008 37.8631 58.6849 38.8497 59.8657C39.5172 60.6642 40.2474 61.4934 41.5118 61.2037C41.6628 61.1689 41.9999 61.2981 42.0038 61.366C42.0694 62.4561 42.9732 63.3466 42.8233 64.217Z" fill="black"/>
<path fill-rule="evenodd" clip-rule="evenodd" d="M-7.61856 22.9395C-8.73185 21.2464 -10.293 19.9602 -11.402 18.2877C-11.7285 17.795 -11.9784 17.2425 -12.3559 16.795C-12.9796 16.0561 -12.2482 15.6638 -11.9121 15.3757C-11.5864 15.0959 -10.9996 15.081 -10.5834 15.5862C-8.8842 17.6495 -6.9074 19.4725 -4.83816 21.1131C-3.36288 22.2823 -2.2225 23.8728 -0.347705 24.6433C0.361955 24.9353 1.07575 25.665 1.82424 26.1641C2.82496 26.8315 1.70882 27.3525 1.51039 27.9321C1.47913 28.0235 1.18317 28.0326 1.16191 28.1182C1.06966 28.483 1.93769 28.9449 1.18159 29.1986C0.155523 29.5428 -0.83169 29.9394 -2.01139 29.1902C-3.88379 28.0004 -5.46393 26.5201 -6.98478 24.9558C-9.04674 22.8351 -11.2256 20.8049 -12.6927 18.1799C-12.8007 17.9865 -12.9268 17.8017 -13.0193 17.601C-13.1148 17.3939 -13.1742 17.134 -12.9523 16.9989C-12.6699 16.8272 -12.4359 17.021 -12.3243 17.2674C-11.3516 19.4207 -9.50184 20.859 -8.00721 22.5858C-7.89347 22.717 -7.74868 22.8222 -7.61856 22.9395Z" fill="black"/>
<path fill-rule="evenodd" clip-rule="evenodd" d="M17.0306 76.2286C16.6627 75.5464 16.3689 74.8087 15.9082 74.1968C15.3709 73.4827 15.3804 72.8504 15.8775 72.1805C16.1737 71.7823 16.6155 72.0022 16.9019 72.1251C17.6389 72.4414 18.1081 73.0535 18.1826 73.8677C18.2002 74.0623 17.9945 74.2931 18.3151 74.3786C19.8815 74.7941 20.3471 76.3902 21.443 77.3161C21.7788 77.6003 22.0534 78.0354 22.384 78.3786C23.3492 79.3807 24.4476 80.2832 24.4944 81.8716C24.5052 82.2416 24.6664 82.8668 25.2364 82.8212C26.9752 82.6818 27.7375 84.0779 28.7456 85.0243C30.4016 86.5795 31.8256 88.3711 33.5492 89.8636C33.7435 90.032 34.0432 90.1842 33.8823 90.4752C33.6809 90.8387 33.4735 90.2299 33.1975 90.4457C33.3259 91.0003 33.9097 91.6135 32.9049 92.0696C32.5462 92.2323 32.9479 92.7201 33.2135 92.9774C33.4153 93.1731 33.5997 93.3782 33.3455 93.6294C33.0378 93.9331 32.9004 93.5634 32.7322 93.4164C29.6645 90.7369 26.9534 87.7161 24.313 84.6275C21.9874 81.9074 19.6613 79.1877 17.3364 76.4683C17.235 76.3891 17.133 76.3089 17.0306 76.2286Z" fill="black"/>
<path fill-rule="evenodd" clip-rule="evenodd" d="M9.56737 53.9295C8.0326 52.2325 6.50262 50.5271 5.09093 48.7181C5.82488 50.5468 7.98315 53.0926 9.56737 53.9295ZM13.0148 52.3356C13.0237 52.7381 11.9812 51.4387 12.5054 52.6694C12.5194 52.7024 12.5377 52.7648 12.525 52.7745C11.8249 53.3055 11.6959 53.9036 12.1676 54.6876C12.2914 54.8934 10.5566 55.7675 10.1358 55.6836C9.5008 55.5565 8.95198 55.2403 8.47905 54.8192C5.8078 52.4422 3.82757 49.5745 2.4906 46.2633C1.83532 44.6413 2.32557 43.2552 3.46144 42.045C4.07159 41.3952 4.55955 41.5298 4.99935 42.3239C5.46184 43.1596 5.97167 43.9733 6.51788 44.7571C7.14807 45.6614 7.88789 46.4754 8.46012 47.4382C9.21119 48.7027 10.5619 49.4309 11.5761 50.4758C12.1357 51.0533 12.7179 51.5857 13.0148 52.3356Z" fill="black"/>
<path fill-rule="evenodd" clip-rule="evenodd" d="M23.2952 21.3901C23.7915 21.6922 24.09 21.8741 24.5452 22.1513C24.4235 21.8607 24.4064 21.6988 24.3168 21.6274C23.5922 21.0484 23.9813 20.4455 24.3861 19.997C24.8193 19.5168 25.4997 19.5443 25.9932 19.915C26.7988 20.52 27.5805 21.1794 28.2691 21.9129C29.2194 22.925 30.1065 24.0196 31.2221 24.8345C32.3871 25.6859 33.4552 26.7583 35.0676 26.8541C35.8286 26.899 36.091 27.6151 35.6193 28.195C35.3624 28.5098 35.2942 28.8366 35.2171 29.1954C34.7282 31.4683 32.8273 32.2002 30.9192 30.7551C28.2301 28.718 26.2098 26.0519 24.2813 23.3224C23.9128 22.8007 23.3547 22.3597 23.2952 21.3901Z" fill="black"/>
<path fill-rule="evenodd" clip-rule="evenodd" d="M48.5248 115.784C49.327 116.013 49.9006 115.438 50.569 115.517C50.4385 116.547 49.7316 117.028 48.5642 116.949C47.2958 116.862 46.2868 116.187 45.4831 115.344C43.7734 113.548 41.8904 111.928 40.5919 109.712C40.0841 108.845 39.0929 108.074 38.4353 107.187C36.5593 104.658 34.771 102.063 32.9576 99.4882C32.5933 98.971 32.3236 98.4009 32.1614 97.7831C32.0782 97.4669 32.1151 97.1871 32.3887 96.9867C32.6828 96.7716 32.9564 96.8775 33.1872 97.1034C33.5307 97.4395 33.9029 97.7583 34.1885 98.1398C36.8293 101.67 39.397 105.258 42.1129 108.729C43.1712 110.082 44.4857 111.268 45.933 112.231C46.6017 112.676 47.4794 112.627 48.275 112.75C48.4917 112.784 48.857 112.566 48.915 112.981C49.0272 113.778 49.1668 114.458 50.2675 114.078C50.5178 113.992 50.5426 114.347 50.4871 114.575C50.3881 114.983 50.2569 115.447 49.741 115.36C49.2677 115.28 48.9628 115.478 48.5248 115.784Z" fill="black"/>
<path fill-rule="evenodd" clip-rule="evenodd" d="M-1.83884 83.905C-2.06556 84.093 -2.13202 84.2147 -1.91257 84.3822C-1.11303 84.9923 -0.259116 85.551 0.446258 86.2568C0.872421 86.6836 1.9294 86.8996 1.32673 87.935C1.23101 88.0996 1.46447 88.1233 1.61271 88.0767C1.95909 87.9678 2.14483 88.1428 2.33915 88.4135C2.67009 88.8752 3.11516 89.0972 3.72101 89.1627C4.84005 89.2828 5.16343 90.1705 4.45939 91.0349C4.3745 91.1386 4.13921 91.3002 4.21054 91.3307C5.89374 92.0507 3.31852 92.3774 4.06279 92.9917C3.74347 93.2174 3.3995 93.2716 3.01101 93.203C2.12062 93.0457 1.48006 92.4925 0.865708 91.8953C-1.46181 89.6323 -3.05969 86.8561 -4.58415 84.0394C-4.95177 83.3611 -4.76095 82.5384 -4.77944 81.7819C-4.7903 81.3379 -4.38434 81.1866 -4.01664 81.118C-3.51275 81.0242 -3.5292 81.2719 -3.74628 81.6054C-2.95785 81.8686 -2.54346 82.5413 -2.05023 83.1345C-1.83305 83.3957 -1.54197 83.6052 -1.83884 83.905Z" fill="black"/>
<path fill-rule="evenodd" clip-rule="evenodd" d="M49.5628 41.2457C50.1064 41.6256 50.6955 41.6021 51.2692 41.5494C51.571 41.5215 51.7998 41.5008 51.8257 41.8605C51.8494 42.1887 51.5888 42.3168 51.331 42.3619C50.6741 42.4773 50.0411 42.2354 49.5276 41.9248C47.5671 40.7401 46.0314 39.0924 44.7304 37.2191C44.3448 36.6633 44.027 36.0418 43.562 35.5628C42.7168 34.6922 42.704 33.5926 42.6472 32.5323C42.6204 32.037 43.2547 32.1135 43.6084 32.1081C43.8109 32.1052 44.1388 32.3415 44.2036 32.5386C44.8292 34.4433 46.7343 35.2333 47.8599 36.7132C48.2308 37.2008 49.2244 37.289 49.7201 37.9234C50.1119 38.4247 50.6721 38.7884 50.7219 39.5384C50.7502 39.9711 51.3413 39.8076 51.5967 40.0681C51.7279 40.2018 51.9003 40.3084 51.8731 40.5109C51.8461 40.7126 51.6137 40.9138 51.4984 40.8453C50.724 40.3845 50.2455 41.3165 49.5628 41.2457Z" fill="black"/>
<path fill-rule="evenodd" clip-rule="evenodd" d="M17.0293 76.23C17.1317 76.3104 17.2337 76.3906 17.3351 76.4698C18.2082 78.2292 19.413 79.7828 20.6198 81.3005C22.2799 83.3884 24.0957 85.3607 25.9446 87.2869C27.5096 88.9171 28.8017 90.8078 30.6697 92.1576C31.428 92.7055 32.0557 93.4455 32.3827 94.5312C31.0525 94.4099 30.455 93.382 29.6839 92.6751C27.6517 90.8127 25.9039 88.6797 24.1413 86.5702C20.9617 82.7645 17.6045 79.0901 15.1292 74.7457C14.9878 74.4971 14.7627 74.2685 15.0338 73.8345C15.9794 74.4186 16.2549 75.5497 17.0293 76.23Z" fill="black"/>
<path fill-rule="evenodd" clip-rule="evenodd" d="M13.2041 30.4988C13.4006 31.0044 14.3706 30.7305 14.0611 31.3412C13.7968 31.8617 13.1774 31.4821 12.7876 31.2292C10.3742 29.661 8.87187 27.4419 8.24815 24.6446C8.15361 24.2209 8.0018 23.602 8.64357 23.4056C9.21274 23.2308 9.38252 23.7825 9.61533 24.1338C10.5927 25.6065 11.6125 27.0284 13.3011 27.7833C13.7253 27.9727 13.7888 28.375 13.8406 28.7814C13.8589 28.9233 13.91 29.0749 13.9887 29.1932C14.6118 30.1286 14.5529 30.6927 13.2041 30.4988Z" fill="black"/>
</svg>
