<svg width="130" height="123" viewBox="0 0 130 123" fill="none" xmlns="http://www.w3.org/2000/svg">
<path d="M82.4577 107.61C86.8913 109.381 91.6797 105.207 91.4769 100.455C91.2564 95.3097 85.471 92.9416 81.262 94.2944C76.5967 95.7969 74.5963 101.878 77.1343 106.232C79.6723 110.585 85.732 110.808 88.7894 107.113C89.612 106.123 87.9577 104.978 87.1483 105.96C84.8446 108.74 80.1558 108.103 78.5791 104.759C77.0023 101.415 78.6785 97.0724 82.2047 96.1426C84.9609 95.4134 88.7925 96.6593 89.4294 99.9111C90.1218 103.473 86.3948 107.003 83.085 105.691C81.8893 105.216 81.2583 107.141 82.4483 107.612L82.4577 107.61Z" fill="#10100E"/>
<path d="M15.0879 56.8273C20.933 59.1613 27.2457 53.6586 26.9784 47.3943C26.6877 40.6111 19.0604 37.4891 13.5115 39.2725C7.36101 41.2533 4.72391 49.2702 8.06982 55.0099C11.4157 60.7495 19.4046 61.0425 23.4353 56.1713C24.5198 54.8664 22.3388 53.3572 21.2718 54.652C18.2347 58.3165 12.0532 57.4776 9.97449 53.069C7.89577 48.6604 10.1056 42.9349 14.7544 41.7091C18.388 40.7477 23.4393 42.3903 24.2791 46.6773C25.1918 51.3729 20.2784 56.0264 15.9149 54.2971C14.3386 53.6705 13.5067 56.2084 15.0755 56.8297L15.0879 56.8273Z" fill="#10100E"/>
<path d="M95.834 28.8222C104.029 32.0946 112.88 24.3796 112.505 15.5969C112.097 6.08663 101.404 1.70951 93.6239 4.20986C85.0007 6.98708 81.3034 18.2269 85.9945 26.2741C90.6855 34.3213 101.886 34.732 107.537 27.9024C109.058 26.0729 106 23.957 104.504 25.7724C100.246 30.9101 91.5793 29.7339 88.6649 23.5529C85.7504 17.3719 88.8486 9.34466 95.3664 7.62601C100.461 6.27815 107.543 8.58114 108.72 14.5916C110 21.175 103.111 27.6994 96.9934 25.2748C94.7834 24.3963 93.6171 27.9544 95.8166 28.8256L95.834 28.8222Z" fill="#10100E"/>
<path d="M78.0812 96.7778C78.0812 96.7778 48.5552 66.981 23.1509 54.4287" stroke="black" stroke-width="2"/>
</svg>
