<svg width="18" height="16" viewBox="0 0 18 16" fill="none" xmlns="http://www.w3.org/2000/svg">
<path fill-rule="evenodd" clip-rule="evenodd" d="M17.1925 8.71481C17.2535 9.01981 17.0845 9.52481 16.7885 10.0448C16.4695 10.6068 16.2395 11.2268 16.0225 11.8408C15.8095 12.4418 15.4455 12.8718 14.9295 13.2538C14.0945 13.8728 13.2335 14.4088 12.2935 14.8678C11.5565 15.2268 10.7915 15.3128 10.0365 15.4658C9.06854 15.6598 8.06854 15.6728 7.07654 15.6778C6.63254 15.6808 6.22254 15.6038 5.80854 15.4208C5.45554 15.2638 5.05654 15.1578 4.67154 15.1328C3.71954 15.0738 3.04354 14.6088 2.50554 13.8578C1.97554 13.1188 1.44254 12.3788 0.85954 11.6818C0.57454 11.3408 0.52554 10.9878 0.54254 10.5908C0.56354 10.0708 0.63454 9.54981 0.61354 9.03381C0.58254 8.27681 0.82954 7.57381 1.02654 6.87681C1.22254 6.18281 1.30154 5.40781 1.89154 4.87381C1.85354 4.09281 2.45654 3.77481 2.95554 3.36981C3.22254 3.15181 3.43854 2.87081 3.68254 2.62281C4.24154 2.05281 4.90854 1.67481 5.68554 1.49281C6.35454 1.33581 6.88054 0.804808 7.60354 0.773808C8.29654 0.743808 8.98754 0.657808 9.68054 0.629808C9.88754 0.620808 10.1195 0.679808 10.3025 0.778808C10.7345 1.01381 11.1825 1.13981 11.6745 1.16581C12.4535 1.20681 12.9585 1.84881 13.6455 2.10281C13.8435 2.17481 14.0015 2.34981 14.1845 2.46581C14.5865 2.71881 15.1095 2.87881 15.3695 3.23281C15.7675 3.77881 15.9915 4.45281 16.2765 5.07881C16.3475 5.23381 16.3195 5.45581 16.4215 5.57381C16.7825 5.99181 16.8525 6.52481 16.9985 7.01381C17.1325 7.46281 17.1145 7.95681 17.1925 8.71481Z" fill="#32BBD2"/>
</svg>
