<svg width="77" height="148" viewBox="0 0 77 148" fill="none" xmlns="http://www.w3.org/2000/svg">
<path fill-rule="evenodd" clip-rule="evenodd" d="M88.1668 120.302C81.9181 127.119 74.938 133.099 67.7373 138.803C67.1922 138.484 67.8138 138.265 67.6703 137.974C67.3808 137.724 66.7798 138.422 66.5554 137.584C66.3488 136.815 66.7237 136.388 67.1471 135.958C69.3754 133.694 72.1339 132.033 74.2164 129.57C74.9289 128.727 75.4581 127.598 76.7485 127.152C77.5429 126.877 77.7222 125.661 78.5277 125.056C79.0321 124.677 79.4289 124.059 79.9923 123.63C82.2364 121.922 83.8742 119.733 84.9131 117.109C85.1001 116.636 85.4286 116.254 85.8838 116.368C87.125 116.678 88.4918 116.518 89.3892 117.938C90.0405 118.97 89.9195 119.701 89.4027 120.572C88.1572 122.67 86.4011 124.334 84.6675 126.003C82.6396 127.954 80.4592 129.743 78.3656 131.62C75.5499 134.144 72.5517 136.431 69.6419 138.831C69.3651 139.059 69.0098 139.592 68.6548 139.211C68.3875 138.924 68.8606 138.557 69.1257 138.327C70.7975 136.876 72.5341 135.509 74.2966 134.165C75.9858 132.878 77.5222 131.378 79.0497 129.893C81.5185 127.493 84.1275 125.237 86.4652 122.703C87.1316 121.98 87.7968 121.246 88.1668 120.302Z" fill="black"/>
<path fill-rule="evenodd" clip-rule="evenodd" d="M52.3585 91.2143C52.6472 90.8686 52.8332 90.6464 53.0127 90.4318C52.9315 90.2254 52.7828 90.2921 52.6436 90.2914C52.3579 90.2904 52.1224 90.7708 51.8602 90.4769C51.5429 90.1215 52.1247 89.9709 52.1777 89.6725C51.7821 89.4527 51.5197 89.944 51.1699 89.8597C50.8698 88.8825 51.3407 88.2995 52.051 87.703C53.9809 86.0819 55.7594 84.3067 57.2111 82.2227C57.7591 81.4357 58.9984 81.3291 59.3096 80.3227C59.7044 79.0462 60.6227 78.1025 61.5589 77.3768C63.1759 76.1235 63.9581 74.3285 65.1436 72.8027C65.4771 72.3733 65.3809 71.6995 65.9738 71.4391C66.1652 71.3549 66.4921 71.1318 66.5225 71.4073C66.6278 72.3493 67.4192 72.1363 67.9381 72.4359C68.9012 72.9922 68.8145 74.0679 68.6599 74.9916C68.4162 76.4473 67.6193 77.6946 66.6875 78.7878C63.1211 82.9742 59.2536 86.8628 54.8844 90.2205C54.2189 90.7321 53.5556 91.4232 52.3585 91.2143Z" fill="black"/>
<path fill-rule="evenodd" clip-rule="evenodd" d="M61.4036 114.474C61.8582 113.794 62.3145 113.076 62.8052 112.382C65.9143 107.984 69.4666 103.96 73.1804 100.07C74.6041 98.5784 76.1482 97.198 77.3814 95.5248C77.7343 95.0453 78.214 94.7244 78.6906 95.4781C78.8029 95.656 79.0094 95.7809 79.1887 95.9086C80.3816 96.7579 80.6091 97.9235 79.7979 99.185C78.9663 100.479 77.8225 101.494 76.7022 102.519C71.9624 106.853 67.3863 111.341 63.4217 116.416C62.9191 117.059 62.8341 117.034 62.476 116.333C62.437 116.257 62.3356 116.18 62.2518 116.165C61.2637 115.975 61.378 115.244 61.4036 114.474Z" fill="black"/>
<path fill-rule="evenodd" clip-rule="evenodd" d="M65.558 30.5756C68.079 31.3021 68.5231 32.6239 67.0715 34.4714C65.9365 35.916 64.4158 36.9394 62.9338 37.9764C59.4744 40.3964 55.9363 42.6963 52.2688 44.7981C51.3717 45.3123 50.4571 45.3265 49.5174 45.3437C49.1895 45.3494 48.4652 45.3385 48.5659 45.0831C48.7729 44.561 48.3733 43.9186 49.0232 43.4824C51.9256 41.5348 54.6464 39.3395 57.4217 37.2184C58.6452 36.283 59.9436 35.4425 61.1408 34.4757C61.9503 33.8218 62.7916 33.1055 62.5232 31.8364C62.4909 31.6849 62.6257 31.35 62.6936 31.3473C63.7847 31.2999 64.6903 30.4112 65.558 30.5756Z" fill="black"/>
<path fill-rule="evenodd" clip-rule="evenodd" d="M23.442 80.3194C21.7305 81.4042 20.4184 82.9435 18.7275 84.0244C18.2295 84.3426 17.6729 84.5832 17.2191 84.9532C16.4698 85.5645 16.0898 84.8265 15.8074 84.4857C15.5331 84.1553 15.528 83.5683 16.0402 83.1607C18.1316 81.4963 19.9875 79.5503 21.6624 77.5088C22.8562 76.0533 24.4655 74.9397 25.2673 73.0781C25.5712 72.3734 26.3127 71.6719 26.8243 70.9319C27.5084 69.9425 28.0106 71.0672 28.5868 71.2753C28.6777 71.3081 28.6818 71.6042 28.7671 71.6268C29.1303 71.7252 29.6066 70.865 29.8476 71.6253C30.1746 72.6569 30.5546 73.6507 29.7857 74.8177C28.5647 76.6699 27.0582 78.225 25.4687 79.7194C23.3138 81.7456 21.2473 83.8901 18.5982 85.3131C18.4029 85.4179 18.2161 85.5408 18.0138 85.63C17.8052 85.722 17.5444 85.777 17.413 85.5529C17.246 85.2676 17.4437 85.0369 17.692 84.9295C19.8612 83.993 21.3303 82.1676 23.0819 80.7021C23.2149 80.5905 23.3225 80.4475 23.442 80.3194Z" fill="black"/>
<path fill-rule="evenodd" clip-rule="evenodd" d="M77.1359 56.5665C76.4476 56.9229 75.7051 57.2043 75.0856 57.6547C74.3626 58.1801 73.7306 58.1599 73.0691 57.6516C72.6759 57.3489 72.9032 56.9108 73.0308 56.6265C73.3594 55.8949 73.9793 55.4361 74.7946 55.3752C74.9895 55.3608 75.2168 55.5703 75.3077 55.2513C75.7493 53.692 77.353 53.2533 78.2972 52.1729C78.5869 51.8419 79.0266 51.5747 79.3753 51.2499C80.3934 50.3016 81.3142 49.2185 82.9031 49.1982C83.2733 49.1936 83.901 49.043 83.8649 48.4722C83.7548 46.7314 85.1634 45.9925 86.1265 45.0005C87.7092 43.3707 89.5244 41.9769 91.0456 40.2785C91.2172 40.0871 91.3744 39.79 91.6627 39.9557C92.0227 40.1632 91.4106 40.3604 91.6217 40.64C92.1783 40.5209 92.8012 39.9474 93.2404 40.9597C93.3971 41.3211 93.8917 40.9276 94.1533 40.6663C94.3524 40.4679 94.5605 40.2869 94.8074 40.5453C95.1059 40.858 94.734 40.9892 94.5842 41.1549C91.8537 44.1773 88.7879 46.8374 85.6555 49.4258C82.897 51.7055 80.1387 53.9857 77.3807 56.2648C77.2998 56.3648 77.2179 56.4655 77.1359 56.5665Z" fill="black"/>
<path fill-rule="evenodd" clip-rule="evenodd" d="M54.7141 63.655C52.9917 65.1611 51.261 66.6623 49.4285 68.0435C51.2693 67.3403 53.8509 65.225 54.7141 63.655ZM53.1782 60.1814C53.5808 60.1792 52.2641 61.1997 53.5035 60.6963C53.5366 60.6829 53.5994 60.6655 53.6088 60.6784C54.128 61.3873 54.7239 61.5263 55.5157 61.0678C55.7235 60.9475 56.5685 62.6967 56.4775 63.116C56.3399 63.7488 56.0145 64.2922 55.5856 64.7581C53.1641 67.3891 50.2637 69.3211 46.9306 70.6024C45.2978 71.2304 43.9201 70.717 42.7291 69.5611C42.0896 68.9401 42.2324 68.4545 43.0337 68.028C43.8771 67.5796 44.6992 67.0835 45.492 66.5505C46.4067 65.9355 47.233 65.2094 48.2053 64.6534C49.4822 63.9236 50.2329 62.5853 51.2946 61.5887C51.8814 61.0389 52.4235 60.4656 53.1782 60.1814Z" fill="black"/>
<path fill-rule="evenodd" clip-rule="evenodd" d="M22.4106 49.3844C22.721 48.8932 22.9079 48.5978 23.1927 48.1473C22.9 48.2642 22.7379 48.2786 22.665 48.3669C22.074 49.0817 21.4777 48.6826 21.036 48.2703C20.563 47.8291 20.6019 47.1493 20.9809 46.662C21.5993 45.8667 22.2717 45.0962 23.0166 44.4199C24.0445 43.4867 25.1538 42.6181 25.9872 41.5163C26.858 40.3657 27.9482 39.3157 28.0709 37.7052C28.1286 36.9449 28.849 36.6946 29.4209 37.176C29.7313 37.4381 30.057 37.5117 30.4144 37.5948C32.6788 38.1217 33.3788 40.0347 31.902 41.9182C29.8201 44.5729 27.1205 46.5483 24.3591 48.4307C23.8313 48.7905 23.3811 49.3412 22.4106 49.3844Z" fill="black"/>
<path fill-rule="evenodd" clip-rule="evenodd" d="M40.1286 110.254C40.198 110.344 40.2669 110.434 40.3359 110.524C41.0698 109.869 41.8075 109.218 42.5314 108.551C42.6157 108.473 42.7766 108.335 42.6356 108.184C42.5374 108.078 42.3398 108 42.2565 108.138C41.7265 109.021 40.655 109.373 40.1286 110.254ZM46.6296 101.606C47.0709 101.244 47.0688 100.409 48.0704 100.629C48.7947 100.787 48.5679 101.094 48.4637 101.46C49.0909 101.58 49.054 100.783 49.6369 100.794C49.5788 101.841 48.9472 102.678 48.721 103.635C48.7064 103.661 48.6933 103.691 48.6811 103.723C47.735 104.158 47.2808 105.083 46.6201 105.801C46.3474 106.098 46.1683 106.494 45.8653 106.747C43.4268 108.781 41.2503 111.108 38.7018 113.026C36.7045 114.529 34.8375 116.204 32.7617 117.608C32.2844 117.931 31.8367 118.307 30.9458 118.533C31.8401 117.635 32.5207 116.952 33.2009 116.269C33.1807 116.298 33.1614 116.328 33.143 116.36C34.5916 115.762 35.4856 114.456 36.8052 113.667C36.5433 113.276 36.3523 113.551 36.1763 113.538C35.8752 113.516 35.7506 113.287 35.7106 113.011C35.6906 112.876 35.6332 112.668 35.8385 112.674C36.7492 112.698 36.7471 111.936 36.9314 111.385C37.1354 110.776 37.5677 110.533 38.1289 110.395C38.9935 110.183 39.6075 109.707 39.7849 108.785C39.9705 108.63 40.1557 108.474 40.3413 108.318C41.2675 108.152 42.9841 106.545 43.136 105.701C43.6063 105.81 44.0405 104.984 44.5336 105.646C44.5721 106.219 44.6078 106.495 45.2782 105.987C46.1251 105.346 46.3444 104.207 47.2929 103.689C47.4338 103.612 47.472 103.451 47.3475 103.315C47.1859 103.139 46.9789 103.175 46.894 103.359C46.5257 104.154 45.6943 104.548 45.2668 105.282C45.0861 105.592 44.9126 105.858 44.4951 105.668C44.6709 104.05 46.159 103.337 46.9423 102.137C47.046 101.978 47.5656 102.635 47.4962 101.98C47.4626 101.661 47.0676 101.394 46.6296 101.606Z" fill="black"/>
<path fill-rule="evenodd" clip-rule="evenodd" d="M42.7029 23.4524C43.092 22.9153 43.0782 22.3258 43.0352 21.7514C43.0124 21.4492 42.9955 21.22 43.3556 21.2001C43.6841 21.1819 43.8078 21.4446 43.8486 21.7032C43.953 22.3619 43.7005 22.9907 43.3814 23.499C42.164 25.4394 40.4908 26.9473 38.5961 28.2167C38.0338 28.593 37.4072 28.9003 36.9204 29.3572C36.0358 30.1877 34.9361 30.1822 33.875 30.2212C33.3794 30.2396 33.4664 29.6068 33.4669 29.253C33.4675 29.0505 33.7092 28.7266 33.9074 28.6651C35.8222 28.0714 36.644 26.1799 38.1426 25.0792C38.6364 24.7165 38.7411 23.7246 39.3838 23.2396C39.8915 22.8562 40.2645 22.3022 41.0154 22.2649C41.4484 22.2439 41.2949 21.6501 41.5596 21.3991C41.6954 21.2701 41.805 21.0996 42.007 21.1302C42.2082 21.1605 42.4055 21.3963 42.335 21.5104C41.8613 22.277 42.7852 22.771 42.7029 23.4524Z" fill="black"/>
<path fill-rule="evenodd" clip-rule="evenodd" d="M77.1365 56.5671C77.2185 56.466 77.3004 56.3654 77.3813 56.2653C79.1551 55.4218 80.7286 54.2432 82.2663 53.0619C84.3817 51.437 86.3842 49.6545 88.341 47.8381C89.9972 46.3007 91.9093 45.0404 93.2902 43.1952C93.8507 42.4462 94.6011 41.831 95.6921 41.5223C95.5486 42.8502 94.5108 43.4304 93.7911 44.1895C91.8949 46.1903 89.733 47.9022 87.5943 49.6292C83.7359 52.7446 80.0057 56.0398 75.6205 58.442C75.3696 58.5793 75.1372 58.8005 74.7078 58.5222C75.3077 57.5864 76.4433 57.3299 77.1365 56.5671Z" fill="black"/>
<path fill-rule="evenodd" clip-rule="evenodd" d="M31.3491 59.6264C31.8579 59.4383 31.6003 58.4639 32.2057 58.7836C32.7217 59.0565 32.3318 59.6695 32.0724 60.055C30.464 62.4419 28.2201 63.9068 25.4127 64.4836C24.9875 64.571 24.3662 64.7125 24.1806 64.0675C24.0153 63.4955 24.5698 63.3349 24.9249 63.108C26.4138 62.1555 27.8526 61.1597 28.6356 59.4839C28.8321 59.0629 29.2354 59.0062 29.6426 58.9612C29.7848 58.9453 29.9372 58.8967 30.0568 58.82C31.0026 58.2126 31.5655 58.281 31.3491 59.6264Z" fill="black"/>
<path fill-rule="evenodd" clip-rule="evenodd" d="M39.8666 113.145C40.3593 111.868 41.6868 111.465 42.5878 110.619C43.2552 109.992 43.8684 109.24 44.7612 108.846C44.9834 108.748 45.1494 108.44 45.3979 108.691C45.5956 108.891 45.5667 109.173 45.3354 109.381C43.9431 110.625 42.5718 111.896 41.0295 112.96C40.6653 113.211 40.2418 113.08 39.8434 113.111L39.8666 113.145Z" fill="black"/>
<path fill-rule="evenodd" clip-rule="evenodd" d="M39.8454 113.11C39.8963 113.439 39.9747 113.753 39.6365 114.015C37.7196 115.498 35.8252 117.011 33.7384 118.258C33.5769 118.355 33.4192 118.648 33.1955 118.372C33.0538 118.198 33.1527 118.018 33.318 117.899C35.447 116.37 37.5393 114.793 39.5553 113.116C39.6121 113.069 39.762 113.133 39.8686 113.145L39.8454 113.11Z" fill="black"/>
<path fill-rule="evenodd" clip-rule="evenodd" d="M48.6814 103.723C48.6932 103.691 48.7068 103.661 48.721 103.635C49.0466 103.211 49.5697 102.942 49.6977 102.361C49.7433 102.154 49.7988 101.857 50.1011 101.972C50.3712 102.076 50.2603 102.322 50.1732 102.534C49.3988 104.421 48.2155 106.053 46.9643 107.637C46.7493 107.909 46.2836 108.133 45.9898 107.878C45.6418 107.577 46.0585 107.267 46.2672 107.075C47.3054 106.12 47.9831 104.917 48.6814 103.723Z" fill="black"/>
<path fill-rule="evenodd" clip-rule="evenodd" d="M33.1456 116.36C33.1639 116.329 33.1832 116.299 33.2038 116.27C32.6208 116.6 31.796 116.511 31.4776 117.336C31.4251 117.472 30.923 117.882 30.6534 117.463C30.397 117.066 30.8528 116.854 31.1043 116.723C32.2414 116.132 33.2252 115.377 33.9993 114.209C34.2282 114.708 34.6666 115.117 33.8438 115.409C33.4016 115.566 33.4163 116.07 33.1456 116.36Z" fill="black"/>
<path fill-rule="evenodd" clip-rule="evenodd" d="M40.3424 108.319C40.1568 108.475 39.9711 108.631 39.786 108.786C39.594 108.865 39.4021 108.943 39.2105 109.021C39.166 108.968 39.1223 108.914 39.0782 108.86C39.6223 108.32 40.1666 107.781 40.7107 107.241C40.7805 107.288 40.8502 107.335 40.9198 107.383C40.7275 107.695 40.5348 108.007 40.3424 108.319Z" fill="black"/>
<path fill-rule="evenodd" clip-rule="evenodd" d="M46.0546 102.043C46.0533 102.841 45.3755 103.177 44.9307 103.665C44.4946 104.144 44.0193 104.588 43.5607 105.047C43.5333 104.739 43.6288 104.5 43.8613 104.273C44.6065 103.543 45.3256 102.788 46.0546 102.043Z" fill="black"/>
</svg>
