<svg width="51" height="51" viewBox="0 0 51 51" fill="none" xmlns="http://www.w3.org/2000/svg">
<path fill-rule="evenodd" clip-rule="evenodd" d="M2.59631 38.4424C1.95333 37.7092 1.62372 36.0793 1.61161 34.2148C1.59783 32.1947 1.24772 30.1611 0.877165 28.1634C0.513279 26.2031 0.826005 24.4728 1.62389 22.6345C2.91595 19.6584 4.40392 16.8652 6.22695 14.1561C7.65559 12.0348 9.59135 10.6083 11.3929 9.0196C13.7035 6.98392 16.3871 5.38973 19.0584 3.8247C20.2549 3.12392 21.4832 2.69369 22.8861 2.54482C24.0861 2.41772 25.3293 2.08349 26.4078 1.54764C29.0732 0.223679 31.6262 0.425461 34.2525 1.61744C36.8383 2.79087 39.4336 3.96234 42.0967 4.93599C43.4016 5.41295 44.0832 6.29313 44.6585 7.39056C45.4122 8.82901 46.0339 10.3479 46.8986 11.7138C48.1636 13.7116 48.593 15.997 49.1493 18.192C49.7019 20.372 50.7014 22.5922 49.9371 24.959C51.2583 27.0098 50.1292 28.8088 49.4134 30.6858C49.0291 31.6925 48.8851 32.789 48.6141 33.8406C47.9932 36.2513 46.7793 38.3148 44.9656 40.0216C43.4032 41.4915 42.813 43.7436 40.9068 44.9565C39.0802 46.12 37.3467 47.429 35.5187 48.5889C34.9756 48.9338 34.2536 49.1365 33.6068 49.1527C32.0709 49.1906 30.6612 49.5518 29.2955 50.2464C27.1237 51.3516 24.7568 50.4019 22.5028 50.7896C21.8562 50.9011 21.1561 50.6762 20.479 50.6487C18.9999 50.5904 17.336 50.9754 16.0821 50.4206C14.1542 49.5676 12.4961 48.0934 10.749 46.8456C10.3136 46.5348 10.0437 45.8937 9.58402 45.7329C7.95528 45.1654 6.93457 43.8334 5.77689 42.7371C4.71498 41.7327 3.99182 40.3706 2.59631 38.4424Z" fill="#FFCD2F"/>
</svg>
