<svg width="96" height="71" viewBox="0 0 96 71" fill="none" xmlns="http://www.w3.org/2000/svg">
<mask id="mask0_1465_22" style="mask-type:alpha" maskUnits="userSpaceOnUse" x="0" y="0" width="96" height="71">
<rect width="96" height="71" fill="#D9D9D9"/>
</mask>
<g mask="url(#mask0_1465_22)">
<mask id="mask1_1465_22" style="mask-type:alpha" maskUnits="userSpaceOnUse" x="4" y="-84" width="157" height="157">
<circle cx="82.5" cy="-5.5" r="78.5" fill="#C4C4C4"/>
</mask>
<g mask="url(#mask1_1465_22)">
<circle cx="9" cy="64" r="1" transform="rotate(-180 9 64)" fill="white"/>
<circle cx="81" cy="64" r="1" transform="rotate(-180 81 64)" fill="white"/>
<circle cx="45" cy="64" r="1" transform="rotate(-180 45 64)" fill="white"/>
<circle cx="69" cy="64" r="1" transform="rotate(-180 69 64)" fill="white"/>
<circle cx="33" cy="64" r="1" transform="rotate(-180 33 64)" fill="white"/>
<circle cx="57" cy="64" r="1" transform="rotate(-180 57 64)" fill="white"/>
<circle cx="93" cy="64" r="1" transform="rotate(-180 93 64)" fill="white"/>
<circle cx="21" cy="64" r="1" transform="rotate(-180 21 64)" fill="white"/>
<circle cx="75" cy="56" r="1" transform="rotate(-180 75 56)" fill="white"/>
<circle cx="39" cy="56" r="1" transform="rotate(-180 39 56)" fill="white"/>
<circle cx="63" cy="56" r="1" transform="rotate(-180 63 56)" fill="white"/>
<circle cx="27" cy="56" r="1" transform="rotate(-180 27 56)" fill="white"/>
<circle cx="51" cy="56" r="1" transform="rotate(-180 51 56)" fill="white"/>
<circle cx="87" cy="56" r="1" transform="rotate(-180 87 56)" fill="white"/>
<circle cx="15" cy="56" r="1" transform="rotate(-180 15 56)" fill="white"/>
<circle cx="75" cy="40" r="1" transform="rotate(-180 75 40)" fill="white"/>
<circle cx="39" cy="40" r="1" transform="rotate(-180 39 40)" fill="white"/>
<circle cx="63" cy="40" r="1" transform="rotate(-180 63 40)" fill="white"/>
<circle cx="27" cy="40" r="1" transform="rotate(-180 27 40)" fill="white"/>
<circle cx="51" cy="40" r="1" transform="rotate(-180 51 40)" fill="white"/>
<circle cx="87" cy="40" r="1" transform="rotate(-180 87 40)" fill="white"/>
<circle cx="15" cy="40" r="1" transform="rotate(-180 15 40)" fill="white"/>
<circle cx="75" cy="24" r="1" transform="rotate(-180 75 24)" fill="white"/>
<circle cx="39" cy="24" r="1" transform="rotate(-180 39 24)" fill="white"/>
<circle cx="63" cy="24" r="1" transform="rotate(-180 63 24)" fill="white"/>
<circle cx="27" cy="24" r="1" transform="rotate(-180 27 24)" fill="white"/>
<circle cx="51" cy="24" r="1" transform="rotate(-180 51 24)" fill="white"/>
<circle cx="87" cy="24" r="1" transform="rotate(-180 87 24)" fill="white"/>
<circle cx="15" cy="24" r="1" transform="rotate(-180 15 24)" fill="white"/>
<circle cx="75" cy="8" r="1" transform="rotate(-180 75 8)" fill="white"/>
<circle cx="39" cy="8" r="1" transform="rotate(-180 39 8)" fill="white"/>
<circle cx="63" cy="8" r="1" transform="rotate(-180 63 8)" fill="white"/>
<circle cx="27" cy="8" r="1" transform="rotate(-180 27 8)" fill="white"/>
<circle cx="51" cy="8" r="1" transform="rotate(-180 51 8)" fill="white"/>
<circle cx="87" cy="8" r="1" transform="rotate(-180 87 8)" fill="white"/>
<circle cx="15" cy="8" r="1" transform="rotate(-180 15 8)" fill="white"/>
<circle cx="8" cy="48" r="1" transform="rotate(-180 8 48)" fill="white"/>
<circle cx="80" cy="48" r="1" transform="rotate(-180 80 48)" fill="white"/>
<circle cx="44" cy="48" r="1" transform="rotate(-180 44 48)" fill="white"/>
<circle cx="68" cy="48" r="1" transform="rotate(-180 68 48)" fill="white"/>
<circle cx="32" cy="48" r="1" transform="rotate(-180 32 48)" fill="white"/>
<circle cx="56" cy="48" r="1" transform="rotate(-180 56 48)" fill="white"/>
<circle cx="92" cy="48" r="1" transform="rotate(-180 92 48)" fill="white"/>
<circle cx="20" cy="48" r="1" transform="rotate(-180 20 48)" fill="white"/>
<circle cx="8" cy="32" r="1" transform="rotate(-180 8 32)" fill="white"/>
<circle cx="80" cy="32" r="1" transform="rotate(-180 80 32)" fill="white"/>
<circle cx="44" cy="32" r="1" transform="rotate(-180 44 32)" fill="white"/>
<circle cx="68" cy="32" r="1" transform="rotate(-180 68 32)" fill="white"/>
<circle cx="32" cy="32" r="1" transform="rotate(-180 32 32)" fill="white"/>
<circle cx="56" cy="32" r="1" transform="rotate(-180 56 32)" fill="white"/>
<circle cx="92" cy="32" r="1" transform="rotate(-180 92 32)" fill="white"/>
<circle cx="20" cy="32" r="1" transform="rotate(-180 20 32)" fill="white"/>
<circle cx="8" cy="16" r="1" transform="rotate(-180 8 16)" fill="white"/>
<circle cx="80" cy="16" r="1" transform="rotate(-180 80 16)" fill="white"/>
<circle cx="44" cy="16" r="1" transform="rotate(-180 44 16)" fill="white"/>
<circle cx="68" cy="16" r="1" transform="rotate(-180 68 16)" fill="white"/>
<circle cx="32" cy="16" r="1" transform="rotate(-180 32 16)" fill="white"/>
<circle cx="56" cy="16" r="1" transform="rotate(-180 56 16)" fill="white"/>
<circle cx="92" cy="16" r="1" transform="rotate(-180 92 16)" fill="white"/>
<circle cx="20" cy="16" r="1" transform="rotate(-180 20 16)" fill="white"/>
<circle cx="8" cy="-8.74228e-08" r="1" transform="rotate(-180 8 -8.74228e-08)" fill="white"/>
<circle cx="80" cy="-8.74228e-08" r="1" transform="rotate(-180 80 -8.74228e-08)" fill="white"/>
<circle cx="44" cy="-8.74228e-08" r="1" transform="rotate(-180 44 -8.74228e-08)" fill="white"/>
<circle cx="68" cy="-8.74228e-08" r="1" transform="rotate(-180 68 -8.74228e-08)" fill="white"/>
<circle cx="32" cy="-8.74228e-08" r="1" transform="rotate(-180 32 -8.74228e-08)" fill="white"/>
<circle cx="56" cy="-8.74228e-08" r="1" transform="rotate(-180 56 -8.74228e-08)" fill="white"/>
<circle cx="92" cy="-8.74228e-08" r="1" transform="rotate(-180 92 -8.74228e-08)" fill="white"/>
<circle cx="20" cy="-8.74228e-08" r="1" transform="rotate(-180 20 -8.74228e-08)" fill="white"/>
</g>
</g>
</svg>
