<svg width="83" height="167" viewBox="0 0 83 167" fill="none" xmlns="http://www.w3.org/2000/svg">
<path fill-rule="evenodd" clip-rule="evenodd" d="M-8.51994 109.454C-16.6966 104.463 -27.47 107.274 -32.5839 115.731C-34.4108 118.753 -35.2687 122.085 -35.2424 125.35L-65.655 106.785L-11.9672 17.9997L19.192 37.0198C18.837 33.269 19.6529 29.3451 21.7722 25.8404C26.8859 17.3835 37.6594 14.5727 45.8359 19.5637C54.0124 24.5549 56.494 35.4569 51.3802 43.9137C49.2609 47.4185 46.1709 49.9539 42.6942 51.3657L73.8534 70.386L20.1658 159.171L-10.2471 140.607C-7.35119 139.126 -4.80258 136.826 -2.97588 133.804C2.13804 125.347 -0.343877 114.447 -8.51994 109.454Z" fill="#FFB900"/>
<path fill-rule="evenodd" clip-rule="evenodd" d="M20.5792 35.3865C20.582 35.5406 20.5845 35.6948 20.5908 35.8483L35.4802 26.8584L35.3194 26.4866L20.5792 35.3865Z" fill="white"/>
<path fill-rule="evenodd" clip-rule="evenodd" d="M48.7366 20.6263C48.6243 20.5294 48.5128 20.4321 48.3975 20.3376L35.3415 26.6482L35.5366 27.0061L48.7366 20.6263Z" fill="white"/>
<path fill-rule="evenodd" clip-rule="evenodd" d="M19.0271 35.7564L18.6301 35.5165L8.94627 40.4504L9.12739 40.8004L19.0271 35.7564Z" fill="white"/>
<path fill-rule="evenodd" clip-rule="evenodd" d="M9.59852 40.8591L9.40013 40.4914L-18.4443 54.1056L-18.2461 54.4732L9.59852 40.8591Z" fill="white"/>
<path fill-rule="evenodd" clip-rule="evenodd" d="M23.3238 67.5861L-4.52061 81.2012L-4.32204 81.568L23.5223 67.954L23.3238 67.5861Z" fill="white"/>
<path fill-rule="evenodd" clip-rule="evenodd" d="M51.6965 54.8955L51.5802 54.6791L51.402 54.5737L23.642 68.2028L23.8403 68.5719L51.6965 54.8955Z" fill="white"/>
<path fill-rule="evenodd" clip-rule="evenodd" d="M35.5012 94.4396L35.6994 94.8082L63.5438 81.1942L63.3454 80.8264L35.5012 94.4396Z" fill="white"/>
<path fill-rule="evenodd" clip-rule="evenodd" d="M68.5447 78.7368L69.0459 77.8105L62.0953 82.1233L62.2999 82.6116L68.5447 78.7368Z" fill="white"/>
<path fill-rule="evenodd" clip-rule="evenodd" d="M-3.5439 115.545C-3.46506 115.676 -3.39002 115.811 -3.31438 115.943L9.81935 109.687L9.59705 109.285L-3.5439 115.545Z" fill="white"/>
<path fill-rule="evenodd" clip-rule="evenodd" d="M8.4065 108.364L8.60452 108.733L36.4489 95.1197L36.2507 94.7512L8.4065 108.364Z" fill="white"/>
<path fill-rule="evenodd" clip-rule="evenodd" d="M38.5293 126.565L23.5435 135.53L23.7087 135.909L38.1341 127.28L38.5293 126.565Z" fill="white"/>
<path fill-rule="evenodd" clip-rule="evenodd" d="M1.71166 146.977L2.1272 147.205L22.7617 138.26L22.5665 137.935L1.71166 146.977Z" fill="white"/>
<path fill-rule="evenodd" clip-rule="evenodd" d="M8.36397 108.855L8.17553 108.492L-5.69273 81.9417L-5.88172 81.5814L-27.5348 40.1279L-27.7842 40.5342L-20.3038 54.8549L-20.1149 55.2162L-6.2468 81.7655L-6.05817 82.1277L7.81026 108.677L7.99908 109.039L21.8673 135.588L22.056 135.95L27.0319 145.475L27.2814 145.069L22.421 135.766L22.2324 135.403L8.36397 108.855Z" fill="white"/>
<path fill-rule="evenodd" clip-rule="evenodd" d="M22.2218 67.8422L22.4058 68.206L35.9045 94.925L36.0881 95.2895L46.2201 115.345L46.4675 114.934L36.4481 95.1018L36.2645 94.7373L9.08343 40.9344L8.89987 40.5707L0.654026 24.2487L-0.00559741 23.8438L8.53963 40.7589L8.72341 41.1225L22.2218 67.8422Z" fill="white"/>
<path fill-rule="evenodd" clip-rule="evenodd" d="M30.595 18.9467L45.6323 50.1651C45.7422 50.0866 45.8561 50.0159 45.9646 49.9344L30.9628 18.7896C30.84 18.8415 30.7169 18.8917 30.595 18.9467Z" fill="white"/>
<path fill-rule="evenodd" clip-rule="evenodd" d="M63.3489 81.0205L65.2199 84.9146L65.4672 84.4917L50.7565 53.8639L50.1075 53.453L50.2125 53.6715L63.3489 81.0205Z" fill="white"/>
</svg>
