<svg width="97" height="193" viewBox="0 0 97 193" fill="none" xmlns="http://www.w3.org/2000/svg">
<path fill-rule="evenodd" clip-rule="evenodd" d="M114.191 119.537C106.032 124.557 103.645 135.432 108.859 143.828C110.722 146.828 113.302 149.105 116.223 150.564L85.874 169.234L31.1396 81.0897L62.2326 61.9615C58.7294 60.575 55.6037 58.0667 53.4431 54.5872C48.2295 46.1916 50.6161 35.3162 58.7752 30.2968C66.9345 25.2774 77.7748 28.0157 82.9883 36.4114C85.1489 39.8909 86.0052 43.7952 85.6847 47.5339L116.778 28.4059L171.512 116.549L141.165 135.22C141.16 131.967 140.267 128.652 138.404 125.653C133.19 117.256 122.351 114.519 114.191 119.537Z" fill="#FFB900"/>
<path fill-rule="evenodd" clip-rule="evenodd" d="M30.4302 80.9442L30.4091 79.6587L29.9463 79.9393L29.9502 80.1825L30.4302 80.9442Z" fill="white"/>
<path fill-rule="evenodd" clip-rule="evenodd" d="M61.4067 59.9838C61.5452 60.0511 61.6837 60.1189 61.8234 60.183L60.573 42.8352L60.1687 42.8097L61.4067 59.9838Z" fill="white"/>
<path fill-rule="evenodd" clip-rule="evenodd" d="M61.0386 28.1945C60.9013 28.2505 60.7639 28.3057 60.6274 28.3655L60.3228 42.8635L60.7304 42.8521L61.0386 28.1945Z" fill="white"/>
<path fill-rule="evenodd" clip-rule="evenodd" d="M59.5107 129.188L59.8551 129.796L61.1864 104.187L60.8103 104.209L59.5107 129.188Z" fill="white"/>
<path fill-rule="evenodd" clip-rule="evenodd" d="M61.0321 61.5346L60.6381 61.7795L60.6379 72.6478L61.0319 72.6453L61.0321 61.5346Z" fill="white"/>
<path fill-rule="evenodd" clip-rule="evenodd" d="M61.2975 72.2526L60.8799 72.2624L60.3691 103.253L60.7866 103.243L61.2975 72.2526Z" fill="white"/>
<path fill-rule="evenodd" clip-rule="evenodd" d="M91.4685 134.922L91.8855 134.911L92.3969 103.922L91.9785 103.931L91.4685 134.922Z" fill="white"/>
<path fill-rule="evenodd" clip-rule="evenodd" d="M89.7316 164.602L90.15 164.593L90.66 133.602L90.243 133.613L89.7316 164.602Z" fill="white"/>
<path fill-rule="evenodd" clip-rule="evenodd" d="M91.3427 72.1569L90.8327 103.148L91.2496 103.137L91.7606 72.147L91.3427 72.1569Z" fill="white"/>
<path fill-rule="evenodd" clip-rule="evenodd" d="M92.9165 41.1152L92.6708 41.1206L92.4961 41.2316L92.0369 72.1534L92.4558 72.1443L92.9165 41.1152Z" fill="white"/>
<path fill-rule="evenodd" clip-rule="evenodd" d="M90.4596 166.03L91.4814 165.559L90.3474 165.386L90.4596 166.03Z" fill="white"/>
<path fill-rule="evenodd" clip-rule="evenodd" d="M82.0323 165.245L82.3075 165.68L92.2121 165.822L92.6278 165.829L93.3274 165.406L92.6396 165.397L92.2032 165.39L82.0323 165.245Z" fill="white"/>
<path fill-rule="evenodd" clip-rule="evenodd" d="M63.2028 135.207L63.4418 135.603L90.6375 135.069L91.0343 135.06L104.127 134.803C104.126 134.669 104.134 134.536 104.135 134.402L91.0396 134.66L90.6428 134.668L63.2028 135.207Z" fill="white"/>
<path fill-rule="evenodd" clip-rule="evenodd" d="M121.322 104.222L120.914 104.225L90.9607 104.528L90.5538 104.533L43.7882 105.007L44.037 105.413L60.1929 105.25L60.6005 105.245L90.5521 104.942L90.9605 104.938L120.912 104.634L121.32 104.631L151.271 104.327L151.68 104.323L162.426 104.214L162.177 103.807L151.682 103.914L151.273 103.918L121.322 104.222Z" fill="white"/>
<path fill-rule="evenodd" clip-rule="evenodd" d="M91.0707 73.2552L91.4784 73.2564L121.413 73.3591L121.822 73.361L144.291 73.4385L144.037 73.0313L121.818 72.9551L121.41 72.9532L61.131 72.7457L60.7236 72.7441L42.4371 72.6812L41.7768 73.0851L60.7277 73.1506L61.1351 73.1519L91.0707 73.2552Z" fill="white"/>
<path fill-rule="evenodd" clip-rule="evenodd" d="M51.3055 43.5963L85.9482 44.3708C85.9281 44.2373 85.9169 44.1036 85.8935 43.97L51.3326 43.1972C51.3231 43.3302 51.3119 43.4627 51.3055 43.5963Z" fill="white"/>
<path fill-rule="evenodd" clip-rule="evenodd" d="M121.483 42.5931L125.802 42.6939L125.538 42.2816L91.5697 41.4841L90.909 41.8759L91.1513 41.8815L121.483 42.5931Z" fill="white"/>
</svg>
