<svg width="36" height="34" viewBox="0 0 36 34" fill="none" xmlns="http://www.w3.org/2000/svg">
<path d="M1.22868 33.7706C6.74107 27.7881 12.7685 18.6243 12.2677 10.0789C12.0191 5.88089 6.61321 -0.0766816 2.5606 4.3915C-1.22562 8.55754 4.24771 13.5198 8.42463 13.7118C12.7507 13.9144 17.2828 11.7994 21.1543 10.0896C26.3258 7.77469 31.2066 4.85751 35.6954 1.39849C36.4306 0.840415 35.6954 -0.425036 34.9637 0.143706C31.3739 2.9098 27.5344 5.33507 23.4949 7.38806C18.5224 9.87631 11.2554 13.7615 6.0094 10.9747C3.01642 10.4154 2.75477 9.14287 5.22445 7.15701C5.85667 4.3133 6.92221 3.85001 8.42108 5.76714C10.6054 7.38095 10.9073 9.59194 10.6836 12.2473C10.4776 14.7782 9.57186 17.2522 8.63774 19.5911C6.65613 24.4569 3.79531 28.9155 0.198652 32.7433C-0.433569 33.4293 0.589351 34.4637 1.22868 33.7706Z" fill="#10100E"/>
</svg>
