<svg width="118" height="119" viewBox="0 0 118 119" fill="none" xmlns="http://www.w3.org/2000/svg">
<rect x="0.0215454" y="25.72" width="96" height="96" rx="10" transform="rotate(-15 0.0215454 25.72)" fill="#17BD37"/>
<path d="M63.8288 65.9699C62.4815 66.2318 61.6076 67.5593 61.8678 68.8979C62.1218 70.2045 63.4034 71.1461 64.7828 70.878C66.1622 70.6099 67.0299 69.2506 66.7759 67.9438C66.5157 66.6052 65.1762 65.708 63.8288 65.9699Z" fill="white"/>
<path d="M60.862 49.2284C56.9834 49.9823 55.6476 52.6202 55.9483 54.1672C56.1655 55.2844 57.2137 55.6158 57.9895 55.465C59.5409 55.1634 58.4801 53.0805 61.4106 52.5108C62.8472 52.2316 64.1189 52.6385 64.3751 53.9562C64.6758 55.5032 63.2395 56.7039 62.4473 57.6903C61.7533 58.5684 60.8898 59.9552 61.3687 62.4188C61.6583 63.9084 62.1439 64.26 63.3219 64.031C64.7297 63.7573 64.8945 63.0713 64.7887 62.527C64.4991 61.0374 64.3609 60.1724 65.7016 58.6335C66.3604 57.8811 68.4239 55.4584 67.9005 52.7656C67.377 50.0728 64.5395 48.5135 60.862 49.2284Z" fill="white"/>
<path fill-rule="evenodd" clip-rule="evenodd" d="M41.4042 63.1978C39.0839 51.2608 46.8668 39.7242 58.8022 37.4042C70.7392 35.0839 82.2758 42.8668 84.5958 54.8022C86.9161 66.7392 79.1331 78.2758 67.1978 80.5958L47.2892 84.4656C46.3574 84.6468 45.4552 84.0382 45.2741 83.1064L41.4042 63.1978ZM48.3205 80.7633L66.5419 77.2214C76.6137 75.2637 83.179 65.5286 81.2215 55.4581C79.2637 45.3863 69.5286 38.821 59.4581 40.7785C49.3863 42.7363 42.8211 52.4714 44.7786 62.5419L48.3205 80.7633Z" fill="white"/>
</svg>
