<svg width="193" height="104" viewBox="0 0 193 104" fill="none" xmlns="http://www.w3.org/2000/svg">
<path fill-rule="evenodd" clip-rule="evenodd" d="M73.8969 89.7762C73.9335 89.914 73.9697 90.0519 74.0068 90.1897C74.7671 89.9611 75.5275 89.7326 76.2878 89.5035C76.2611 89.4039 76.2343 89.3037 76.2076 89.2041C75.4374 89.3945 74.6671 89.5853 73.8969 89.7762ZM159.703 2.48562C159.709 2.37605 159.714 2.26649 159.72 2.15742C155.611 1.95217 151.502 1.74642 147.394 1.54068C147.387 1.67255 147.381 1.80443 147.374 1.9363C151.484 2.11924 155.593 2.30268 159.703 2.48562ZM92.5295 70.8214C110.183 67.9974 127.547 64.066 144.16 57.2466C127.286 63.063 110.058 67.518 92.5295 70.8214ZM86.7924 64.888C86.8196 65.0045 86.8468 65.121 86.8745 65.2375C90.9198 64.4854 94.9744 63.7794 99.0087 62.9713C109.662 60.837 120.286 58.5659 130.722 55.5129C134.946 54.277 139.131 52.9042 143.317 51.5383C145.44 50.8452 147.524 50.0282 149.627 49.2701C150.435 48.9791 151.247 48.6965 152.056 48.41C152.008 48.2667 151.959 48.1234 151.911 47.9801C130.721 55.5997 108.916 60.8563 86.7924 64.888ZM143.626 64.6123C143.547 64.4884 143.468 64.3644 143.39 64.2405C141.774 65.112 140.193 66.059 138.534 66.8413C134.699 68.6509 130.865 70.4664 126.962 72.1198C122.326 74.0845 117.631 75.9139 112.93 77.719C112.201 77.9991 111.363 78.8296 110.466 77.9129C110.444 77.8911 110.158 78.129 109.995 78.246C109.478 78.6184 109.013 79.1573 108.436 79.3387C99.6007 82.1225 90.751 84.8621 81.9027 87.6037C80.6107 88.0038 79.3049 88.3608 78.006 88.7376C78.7623 88.8417 79.4623 88.7252 80.136 88.5214C89.5526 85.6747 98.9686 82.825 108.375 79.9455C109.306 79.6605 109.721 79.7279 109.587 80.8379C109.542 81.2043 109.794 81.6064 109.911 81.9926C110.116 81.6455 110.355 81.3134 110.52 80.9475C110.893 80.1181 110.714 79.1131 111.973 78.6551C116.74 76.9213 121.476 75.091 126.169 73.1644C129.274 71.8897 132.29 70.3985 135.337 68.986C137.321 68.0664 139.307 67.1497 141.257 66.1616C142.093 65.7372 142.839 65.1344 143.626 64.6123ZM19.2206 56.2184C19.2756 56.3156 19.331 56.4122 19.3855 56.5089C21.1829 55.3518 22.9525 54.149 24.7821 53.0459C31.2558 49.1417 37.9711 45.6922 45.0418 43.0229C51.2611 40.6749 57.4938 38.2744 63.8868 36.4976C71.9169 34.2661 80.0949 32.5448 88.2527 30.8106C91.6771 30.0823 95.213 29.8741 98.7003 29.4517C100.739 29.2043 102.783 28.9941 104.825 28.7789C106.883 28.5622 108.943 28.36 111.001 28.1508C109.405 27.9703 107.817 27.8161 106.269 27.999C101.542 28.5568 96.8238 29.1978 92.1152 29.8909C79.7949 31.703 67.6355 34.281 55.888 38.4579C48.9276 40.9327 42.0812 43.7547 35.2802 46.6485C29.5134 49.1026 24.1108 52.2572 19.2206 56.2184ZM123.219 1.22884C104.598 0.96112 75.1077 5.23765 41.2416 22.4826C32.6453 26.8603 24.4846 32.0198 16.9916 38.1539C49.0019 15.4193 84.4535 2.7112 123.219 1.22884ZM172.573 7.88259C172.359 8.09131 172.119 8.50231 171.934 8.47851C170.123 8.24649 168.323 7.93415 166.516 7.66545C166.177 7.61488 165.823 7.65603 165.476 7.65454C165.705 7.90986 165.893 8.22765 166.17 8.4096C167.768 9.46113 169.432 10.417 170.99 11.5226C176.25 15.2557 179.481 20.3076 180.394 26.719C180.642 28.4581 180.431 30.2632 180.431 32.3891C184.249 29.5548 187.36 26.6079 189.15 22.5827C190.022 20.622 190.182 18.4148 188.757 16.5343C185.878 12.7337 181.524 11.3718 177.321 9.7819C175.709 9.1721 173.736 9.45568 172.573 7.88259ZM96.8926 33.2924C97.1361 32.9979 97.3801 32.7024 97.6796 32.34C97.3301 32.2939 97.051 32.1794 96.8218 32.2429C96.3075 32.3841 95.8184 32.6147 95.3189 32.809C95.8605 32.9558 96.402 33.103 96.9435 33.2498C96.6064 33.5021 96.2891 33.9265 95.9273 33.9696C95.2382 34.0514 94.4918 33.7649 93.827 33.9052C92.8676 34.107 91.9855 34.6751 91.0262 34.8754C83.6357 36.4158 76.213 37.8074 68.8478 39.4588C65.9451 40.1098 63.1319 41.2193 60.3346 42.2703C55.5801 44.0566 50.5463 45.0477 45.9739 47.349C45.5893 47.5424 45.0873 47.4928 44.6913 47.6703C43.2004 48.3381 41.7139 49.0193 40.259 49.7615C38.9161 50.4461 37.6483 51.2845 36.2876 51.9275C34.9733 52.5487 33.565 52.9661 32.2285 53.5437C28.6382 55.096 25.7355 57.6933 22.7025 60.0572C21.0264 61.364 19.6132 63.0293 18.1851 64.6262C17.4351 65.4645 16.8674 66.4789 16.2932 67.459C15.6729 68.518 16.2045 69.0752 17.2639 69.1962C20.3819 69.5522 23.504 70.1486 26.625 70.1501C41.2783 70.1565 55.7513 68.0837 70.1972 65.9127C78.2772 64.6986 86.3177 63.2058 94.3487 61.6937C107.635 59.192 120.819 56.2278 133.807 52.4347C142.947 49.7649 151.985 46.8037 160.796 43.1667C161.916 42.7046 161.8 42.2822 161.139 41.5515C158.94 39.1182 156.064 37.5754 153.125 36.5283C149.348 35.1823 145.311 34.571 141.396 33.6052C141.116 33.5363 140.935 33.1243 140.671 32.9196C140.357 32.6752 140.003 32.4818 139.666 32.2667C139.533 32.4288 139.399 32.5909 139.266 32.753C139.627 32.8199 139.99 32.8864 140.351 32.9533C140.265 33.0663 140.18 33.1789 140.094 33.2919C139.397 33.1695 138.674 32.8646 138.008 32.9587C135.916 33.2552 133.909 32.5825 131.837 32.5775C128.31 32.5691 124.784 32.2577 121.258 32.0634C120.333 32.0123 119.41 31.872 118.485 31.8661C117.656 31.8606 116.827 31.9811 115.998 32.05C115.381 32.1016 114.764 32.1516 114.148 32.2161C113.572 32.2766 112.839 32.6152 112.454 32.3777C111.314 31.6747 110.273 32.113 109.224 32.3975C108.314 32.6439 107.474 33.0401 106.922 31.8328C106.834 31.6385 106.419 31.5815 106.143 31.4997C106.108 31.4893 105.912 31.7644 105.945 31.8269C106.5 32.8973 105.559 32.405 105.234 32.4932C104.798 32.6117 104.342 32.6623 103.893 32.7297C103.125 32.8447 102.356 32.9573 101.587 33.0569C100.653 33.1784 99.5765 33.0356 98.8216 33.4649C97.9811 33.9434 97.5074 33.6241 96.8926 33.2924ZM37.7107 33.8378C36.142 34.5432 34.5154 35.1461 33.0121 35.9725C26.1325 39.7538 19.831 44.3615 14.2364 49.8646C12.296 51.7733 10.8154 54.1485 9.09423 56.2853C7.00183 58.8817 5.83459 61.8528 5.67273 65.1577C5.62521 66.1219 5.84697 67.3614 6.44049 68.0421C7.79632 69.5983 9.66399 70.4941 11.8564 71.0469C10.3615 68.3142 9.73081 65.5949 11.2941 62.953C12.3806 61.1171 13.734 59.3651 15.265 57.8832C19.9305 53.3682 25.5365 50.1953 31.2414 47.2201C40.1922 42.5524 49.5865 38.965 59.2001 35.9378C71.659 32.0143 84.3624 29.2167 97.3569 27.833C101.856 27.354 106.37 26.9882 110.884 26.6872C120.069 26.0754 129.224 26.4825 138.322 27.8597C143.269 28.6079 148.138 29.6267 152.844 31.4928C157.631 33.3921 161.975 35.6538 164.315 40.5594C164.6 41.1563 164.929 41.3596 165.579 41.02C167.133 40.2084 168.742 39.501 170.277 38.6581C171.528 37.971 172.969 37.3771 173.86 36.3404C175.852 34.0266 177.104 31.2746 177.289 28.1438C177.433 25.6982 177.034 23.2466 175.62 21.3215C173.926 19.0137 172.163 16.5527 169.464 15.3182C168.16 14.7223 167.647 12.9484 165.91 13.1194C165.769 13.1338 165.593 12.6792 165.415 12.4561C164.865 11.7665 163.69 12.0203 163.313 11.065C163.234 11.1031 163.157 11.1621 163.074 11.1755C162.706 11.233 162.287 11.4155 161.973 11.3064C158.196 9.99409 154.457 8.58213 150.515 7.78493C146.903 7.05466 143.312 6.62879 139.594 6.86527C137.283 7.01202 134.936 7.78592 132.564 6.92724C132.108 6.76215 131.404 7.45573 130.786 7.53208C126.726 8.03628 122.666 8.58015 118.59 8.9143C114.621 9.24051 110.805 10.7556 106.714 10.2801C105.776 10.1711 104.521 10.1641 103.626 11.2762C103.225 11.7734 102.089 11.116 101.154 11.5954C100.155 12.1076 98.8013 11.9256 97.6024 12.0496C97.5618 12.0535 97.5262 12.1011 97.4846 12.1115C94.8487 12.7377 92.3043 13.7089 89.7233 14.4456C79.9499 17.2353 70.216 20.1098 60.7242 23.7622C58.5853 24.5852 56.4919 25.5534 54.3064 26.2187C51.3863 27.1076 48.3891 27.6832 45.8214 29.5369C44.8616 30.23 43.5771 30.463 42.4623 30.9553C42.0307 31.1462 41.6594 31.4734 41.2604 31.7391C40.0774 32.4387 38.8943 33.1382 37.7107 33.8378ZM124.993 69.0663C124.633 69.2919 124.3 69.6315 123.909 69.7257C117.187 71.3454 110.501 73.1634 103.719 74.4732C95.0783 76.1415 86.3632 77.425 77.6684 78.8008C75.4651 79.1498 73.2128 79.1766 70.9932 79.4334C69.5913 79.596 68.2157 79.9956 66.8133 80.1409C63.1572 80.5201 59.4936 80.8389 55.8291 81.1275C55.1905 81.178 54.5297 80.8845 53.8832 80.9024C53.4877 80.9138 53.104 81.3535 52.708 81.3654C49.2687 81.4715 45.8269 81.6084 42.3876 81.5712C37.7107 81.5206 33.0156 81.5514 28.3649 81.1394C21.271 80.5107 14.2334 79.3903 8.1849 75.1742C4.22383 72.4138 0.783518 69.2498 0.119215 64.0109C-0.360944 60.2242 0.636005 56.8381 2.62891 53.7475C4.13374 51.4134 5.96627 49.293 7.59782 47.0377C8.04976 46.4135 8.24529 45.6079 8.66753 44.9564C9.32193 43.947 9.94367 42.8672 10.7985 42.0462C15.6165 37.4177 20.9774 33.4684 26.6131 29.9172C30.785 27.2881 35.0179 24.7269 39.3779 22.429C53.3169 15.0822 67.7964 9.07741 83.1348 5.2907C93.3844 2.76077 103.753 0.83916 114.288 0.202093C120.647 -0.183122 127.049 0.0955019 133.431 0.124257C138.6 0.147558 143.767 0.247208 148.936 0.305709C158.411 0.413292 167.769 1.43012 176.862 4.21041C181.41 5.60056 185.666 7.59207 189.061 11.0992C192.964 15.1313 194.21 22.2996 191.69 27.3312C189.64 31.4233 186.696 34.7881 182.923 37.4078C180.944 38.7811 178.891 40.0711 177.052 41.6134C175.483 42.9282 174.27 44.6634 172.723 46.009C170.305 48.112 167.699 49.9969 165.257 52.0737C164.474 52.7386 164.009 53.7638 163.309 54.5437C161.408 56.6611 159.67 58.9977 157.48 60.7661C154.12 63.478 150.473 65.8403 146.878 68.2458C144.958 69.5309 142.891 70.5958 140.89 71.7594C139.438 71.8441 138.201 72.3498 137.338 73.5858C135.007 74.6423 132.678 75.7052 130.341 76.7508C129.838 76.9759 129.307 77.1375 128.795 77.3234C126.919 78.07 125.038 78.8216 123.157 79.5727C122.536 79.9912 121.967 80.5459 121.286 80.8062C107.581 86.0391 93.6007 90.3915 79.3301 93.788C70.3398 95.9278 61.3831 98.244 52.3239 100.041C44.377 101.617 36.3118 102.599 28.2917 103.796C27.0101 103.987 25.6889 103.898 24.389 103.986C22.8916 104.087 21.6091 103.639 20.5096 102.626C20.3829 102.508 20.2265 102.415 20.0711 102.336C19.6607 102.123 19.2429 101.925 18.8281 101.721C19.1904 101.455 19.5538 101.188 19.9602 100.89C19.8602 100.806 19.7805 100.71 19.6785 100.658C19.2786 100.456 18.8717 100.266 18.4672 100.071C18.9276 99.7933 19.3731 99.3005 19.8493 99.2683C35.9104 98.1711 51.3685 93.9605 66.8732 90.0613C85.0084 85.5002 102.903 80.1171 120.345 73.3176C124.361 71.7519 128.332 70.0564 132.261 68.2825C135.131 66.988 137.898 65.468 140.6 63.7665C139.188 64.2444 137.784 64.7457 136.363 65.1953C133.369 66.1428 130.363 67.0495 127.373 68.0098C126.971 68.1387 126.638 68.4818 126.274 68.7257C125.847 68.8393 125.42 68.9528 124.993 69.0663Z" fill="#FFF500"/>
</svg>
