<svg width="10" height="10" viewBox="0 0 10 10" fill="none" xmlns="http://www.w3.org/2000/svg">
<path fill-rule="evenodd" clip-rule="evenodd" d="M9.99257 5.37305C10.0292 5.57573 9.92776 5.9113 9.75015 6.25683C9.55873 6.63028 9.42072 7.04227 9.29051 7.45027C9.1627 7.84963 8.94429 8.13537 8.63466 8.3892C8.13362 8.80053 7.61698 9.1567 7.05294 9.4617C6.61071 9.70026 6.15167 9.7574 5.69864 9.85907C5.11779 9.98798 4.51774 9.99662 3.9225 9.99994C3.65608 10.0019 3.41006 9.95077 3.16164 9.82917C2.94982 9.72484 2.7104 9.65441 2.47939 9.63779C1.90814 9.59859 1.50251 9.2896 1.17969 8.79056C0.86166 8.2995 0.541836 7.80777 0.192009 7.34462C0.0209953 7.11802 -0.00840694 6.88346 0.00179385 6.61965C0.0143948 6.27411 0.0569981 5.92791 0.0443971 5.58503C0.0257957 5.082 0.174007 4.61486 0.292216 4.15171C0.409825 3.69055 0.457229 3.17556 0.811257 2.82072C0.788455 2.30175 1.15028 2.09044 1.44971 1.82132C1.60992 1.67646 1.73953 1.48974 1.88594 1.32494C2.22137 0.946178 2.6216 0.694998 3.08783 0.57406C3.48926 0.469734 3.80489 0.116886 4.23872 0.0962867C4.65455 0.0763518 5.06919 0.0192051 5.48502 0.000599155C5.60923 -0.00538131 5.74844 0.033824 5.85825 0.0996092C6.11747 0.255766 6.38629 0.339492 6.68151 0.356769C7.14895 0.384014 7.45197 0.810621 7.8642 0.979403C7.98301 1.02725 8.07782 1.14353 8.18763 1.22061C8.42885 1.38873 8.74267 1.49505 8.89868 1.73028C9.1375 2.0931 9.27191 2.54097 9.44293 2.95694C9.48553 3.05994 9.46873 3.20746 9.52993 3.28587C9.74655 3.56363 9.78855 3.91781 9.87616 4.24275C9.95657 4.5411 9.94576 4.86937 9.99257 5.37305Z" fill="#F26AAE"/>
</svg>
