<svg width="17" height="19" viewBox="0 0 17 19" fill="none" xmlns="http://www.w3.org/2000/svg">
<path fill-rule="evenodd" clip-rule="evenodd" d="M0.667868 12.3792C0.459379 12.1202 -0.0720174 12.2809 0.00817076 11.8002C0.105833 11.2128 0.60683 11.0802 1.0791 11.0318C1.87692 10.95 2.68167 10.9294 3.48451 10.9057C4.50517 10.8755 5.52703 10.8741 6.54818 10.8482C7.35293 10.8277 7.34647 10.8207 7.18992 9.99777C6.856 8.24057 6.66643 6.46997 6.73512 4.6783C6.76504 3.89461 6.85265 3.11714 7.05947 2.35763C7.18011 1.9148 7.35269 1.49279 7.60547 1.10717C8.30442 0.041743 9.24513 -0.0516104 10.2514 0.726814C10.7453 1.10884 11.1383 1.49566 11.3585 2.08523C11.516 2.50747 11.3743 2.78514 11.0232 2.93857C10.549 3.1461 10.4324 3.52431 10.3666 3.97503C10.1255 5.62739 10.3017 7.27257 10.4365 8.91846C10.4664 9.28493 10.5456 9.64973 10.5478 10.0157C10.5516 10.5538 10.836 10.6572 11.3003 10.6208C12.4467 10.5313 13.6007 10.515 14.7202 10.2043C14.8384 10.1713 14.9722 10.1088 15.073 10.2505C15.1185 10.4921 14.8097 10.5052 14.7561 10.6809C14.9263 10.8267 15.0668 10.6998 15.2083 10.6984C15.4261 10.6962 15.8874 10.2797 15.7114 10.9813C16.0851 11.0383 16.2459 11.2669 16.305 11.6319C16.3601 11.9704 16.3508 12.245 15.9769 12.3723C14.549 12.8585 13.0587 13.0502 11.5771 13.2623C11.1337 13.3257 11.0773 13.4758 11.1706 13.8396C11.4844 15.0626 11.7487 16.3075 12.8615 17.1214C13.0671 17.2714 13.0681 17.5446 13.171 17.7571C13.3278 18.08 13.0573 18.2347 12.9032 18.4259C12.7447 18.6229 12.5594 18.5013 12.3698 18.4465C10.3742 17.8718 9.24561 16.4423 8.50309 14.5999C8.11819 13.645 8.0921 13.6982 7.02308 13.8236C5.96939 13.9471 4.90468 13.9696 3.84548 14.0491C2.94162 14.1166 2.13759 13.8499 1.39722 13.3551C1.21746 13.235 1.04822 13.0753 0.8225 13.089C0.552493 13.1055 0.412463 12.9688 0.338498 12.7455C0.252805 12.4858 0.557759 12.492 0.667868 12.3792Z" fill="white"/>
</svg>
