<svg width="94" height="167" viewBox="0 0 94 167" fill="none" xmlns="http://www.w3.org/2000/svg">
<path fill-rule="evenodd" clip-rule="evenodd" d="M84.2028 70.7044L40.9705 161.061L-52.3089 116.628L-36.9886 84.6106C-40.2188 84.9551 -43.6037 84.4368 -46.7769 82.9255C-55.6668 78.6907 -59.5325 68.285 -55.4121 59.6747C-51.2934 51.0637 -40.7537 47.5199 -31.8621 51.7553C-28.6907 53.266 -26.1555 55.5589 -24.395 58.2892L-9.07654 26.2712L23.8224 41.9425C23.4568 38.8629 23.9281 35.6709 25.351 32.6985C29.4676 24.0952 40.018 20.5476 48.901 24.7791C57.7926 29.0146 61.6545 39.4273 57.5379 48.0306C56.1151 51.003 53.9256 53.3766 51.3021 55.0326L84.2028 70.7044Z" fill="#007BFF"/>
<path fill-rule="evenodd" clip-rule="evenodd" d="M56.2084 99.8303C51.1823 98.9885 45.9862 98.118 40.9753 98.7511C29.4057 100.211 18.9963 110.285 15.6607 123.249C13.4792 131.722 14.089 141.148 17.3176 150.498L17.8366 150.749C14.5122 141.347 13.8529 131.859 16.0446 123.348C19.3391 110.545 29.6087 100.597 41.0162 99.1561C45.9721 98.5306 51.141 99.3966 56.1381 100.234C60.0783 100.893 64.092 101.561 68 101.48L68.1844 101.088C64.3356 101.188 60.3349 100.521 56.2084 99.8303Z" fill="white"/>
<path fill-rule="evenodd" clip-rule="evenodd" d="M-51.6652 80.0098C-44.9042 76.8044 -37.6065 76.1023 -31.4238 78.3472C-27.7027 79.698 -24.3557 82.0645 -21.1209 84.3525C-17.0816 87.208 -12.9093 90.1597 -7.99169 91.1272C-0.766409 92.5463 6.55742 89.3839 12.4407 86.8425L68.5176 62.6214L68.0273 62.3881L12.2761 86.4691C5.11403 89.562 -1.348 92.0174 -7.9158 90.727C-12.7338 89.7826 -16.8785 86.8525 -20.883 84.0209C-24.141 81.7169 -27.5112 79.3344 -31.2841 77.9648C-37.6172 75.6666 -45.1051 76.4055 -52.0167 79.7265C-51.9013 79.8227 -51.7833 79.9163 -51.6652 80.0098Z" fill="white"/>
</svg>
