<svg width="187" height="185" viewBox="0 0 187 185" fill="none" xmlns="http://www.w3.org/2000/svg">
<g opacity="0.340028">
<mask id="mask0_0_10180" style="mask-type:alpha" maskUnits="userSpaceOnUse" x="0" y="0" width="187" height="185">
<path fill-rule="evenodd" clip-rule="evenodd" d="M0 0H187V185H0V0Z" fill="white"/>
</mask>
<g mask="url(#mask0_0_10180)">
<path fill-rule="evenodd" clip-rule="evenodd" d="M179.842 101.6C179.945 101.426 180.179 101.329 180.484 101.281C180.874 101.881 181.126 102.483 181.279 102.919C180.805 102.475 180.33 102.033 179.842 101.6ZM175.209 135.606C174.627 135.472 174.165 135.18 173.774 134.823C173.972 134.327 174.11 133.786 174.199 133.216C174.627 133.964 174.965 134.75 175.209 135.606ZM24.7379 149.247C24.8101 149.318 24.8774 149.395 24.9497 149.465C24.8466 149.48 24.7427 149.493 24.6396 149.508L24.7379 149.247ZM13.7125 131.313L14.352 129.941C14.3642 129.962 14.3772 129.984 14.3894 130.006C14.4551 130.398 14.5598 130.784 14.6401 131.174C14.3326 131.214 14.0258 131.256 13.7125 131.313ZM143.787 28.4032C143.715 28.6476 143.614 28.8685 143.512 29.0886C143.256 29.0118 143.002 28.9191 142.743 28.8533C143.09 28.7041 143.442 28.5642 143.787 28.4032ZM187 107.125L184.508 105.628C184.105 105.877 183.85 106.077 183.695 106.246C183.459 105.762 182.997 105.281 182.109 104.806L183.384 104.961C182.732 104.3 182.058 103.65 181.376 103.007C181.448 102.286 181.311 101.711 181.028 101.245C182.485 101.245 184.593 101.86 183.682 101.604C183.397 99.0062 183.3 97.0613 185.12 95.6087C181.04 94.7311 180.051 92.1691 179.6 90.2283C179.899 89.0498 180.09 87.8349 180.181 86.61C180.252 85.3783 180.16 84.112 179.952 82.8778C179.688 81.3266 179.199 79.815 178.56 78.3675C178.631 78.3809 178.702 78.4045 178.772 78.4138L178.463 78.1457C178.116 77.3853 177.738 76.64 177.302 75.9285C178.676 74.9851 179.453 73.31 181.472 73.8015C182.226 70.4268 178.822 68.2424 176.282 66.5082C175.76 67.1439 175.536 67.7669 174.297 68.2281C172.65 67.4752 175.101 66.5614 176.385 65.688C174.811 65.3811 171.921 66.6811 169.373 67.3041C169.298 67.1119 169.23 66.9163 169.152 66.7249C170.443 64.3854 169.21 64.5245 172.278 61.412L169.01 62.9927C171.205 60.6608 166.134 62.7331 167.564 60.6288C168.248 60.2402 169.287 60.3329 170.216 60.3666C168.676 59.7655 172.575 58.0904 170.84 57.5829L174.886 56.7794C174.391 55.9693 172.694 55.1751 176.029 54.1913C171.608 54.3818 171.846 50.8511 168.726 49.8782L171.581 48.569C169.626 48.9028 169.2 47.9105 168.655 46.9562C168.119 46.0069 167.468 45.0989 165.242 45.8071L166.257 44.9936C164.664 45.0062 163.039 45.0492 161.46 45.1411C161.228 44.0266 165.362 41.7065 164.223 42.3624C162.228 40.6906 160.882 39.2802 161.143 36.8893C157.574 39.2153 155.188 37.9583 153.406 36.8868C152.197 34.6257 150.277 32.5956 148.094 31.1726C146.743 30.2916 145.245 29.6264 143.697 29.1459C144.362 28.2725 145.023 27.4109 145.667 26.798C144.634 27.5112 143.573 28.1637 142.496 28.7985C141.916 28.6611 141.331 28.5439 140.744 28.4655C140.689 28.458 140.633 28.4588 140.577 28.4512C140.864 28.2017 141.102 27.9353 141.233 27.6267C141.02 27.1133 140.275 27.6377 139.592 28.3711C138.972 28.3264 138.354 28.3146 137.738 28.3349C137.237 28.012 136.731 27.6992 136.223 27.3881C136.595 27.265 136.972 27.1335 137.353 26.9708C137.073 26.8317 136.856 26.5982 136.679 26.3023C136.507 26.0097 136.425 25.7147 136.325 25.3471C136.142 24.6305 135.999 23.7647 135.707 23.0144C135.146 21.5264 133.918 20.4743 131.304 22.7463C131.812 21.319 131.294 21.2364 130.899 21.1209C130.496 21.002 130.227 20.8039 131.067 18.9036C130.343 17.2841 128.924 17.7301 127.588 18.6937C126.277 19.6169 125.03 20.9801 123.973 21.292C123.764 21.2102 123.561 21.1167 123.352 21.0366C123.37 20.1193 123.886 18.4189 124.184 16.7421C124.525 16.5279 124.871 16.3416 125.225 16.1519C125.78 15.8552 126.335 15.6318 126.914 15.3991C126.625 14.728 126.315 14.0308 125.958 13.401C126.511 12.6094 127.103 12.6769 127.703 12.5226C128.309 12.3548 128.932 11.9906 129.608 10.3989C129.023 10.8567 128.454 11.2184 127.93 11.4072C127.404 11.6037 126.906 11.6703 126.404 11.7284C124.391 11.962 122.25 11.4991 120.695 15.0644C121.415 15.9125 122.579 14.8106 123.521 15.2052C123.705 16.5203 124.096 17.5472 123.592 19.482C123.241 19.9895 122.931 20.4077 122.639 20.7853C118.881 19.3968 114.993 18.3026 110.998 17.5143L110.876 15.7245C110.914 16.6021 110.891 17.1493 110.828 17.4823C110.594 17.4367 110.359 17.3954 110.124 17.3516C109.56 16.3711 108.817 14.2896 108.366 13.4255C108.499 14.207 109 15.915 109.171 17.1745C108.827 17.1155 108.487 17.0422 108.14 16.9874C108.057 16.5987 107.984 16.2253 107.883 15.9471C107.933 16.243 107.979 16.5987 108.016 16.9705C107.777 16.9334 107.534 16.9107 107.295 16.8753C107.273 16.436 107.231 15.969 107.126 15.432C106.637 15.6613 106.304 16.1199 105.592 14.7246C105.347 15.4733 105.443 16.06 105.617 16.6544C105.334 16.619 105.055 16.5743 104.77 16.5423C104.3 14.4751 103.987 11.7166 103.145 9.51711C103.628 6.68614 104.872 5.51262 105.159 3.9555L103.36 5.94426C103.01 3.79448 101.065 2.68249 101.732 0.353139C99.0959 -1.04633 97.0174 2.01311 95.4462 4.29188C95.9291 4.93007 96.4152 5.26223 96.7049 6.59594C95.9948 8.13113 95.4097 5.49323 94.7807 4.04739C94.3936 5.71916 95.4721 9.28611 95.753 12.0968C93.3474 9.55168 93.6615 11.4494 91.0377 7.52076L92.1804 11.0709C90.377 8.4987 91.8679 13.9414 90.2277 12.1744C89.9355 11.4266 90.0418 10.3905 90.1027 9.45641C89.563 10.9242 88.3383 6.72155 87.879 8.40091L87.3498 4.19493C86.6673 4.56924 86.0091 6.1702 85.2998 2.65383C85.3355 7.14476 82.6321 6.32532 81.8871 9.22373L80.9302 6.13816C81.4204 10.1131 77.9111 7.09924 78.8347 11.7605L78.2642 10.5735L78.239 15.2642C77.412 15.19 75.9089 10.56 76.3358 11.8422C75.0884 13.267 74.009 14.046 72.3891 12.9239C72.8331 14.2576 72.9962 15.3241 73.0027 16.2202C72.9848 16.1899 72.9686 16.1738 72.9515 16.1418C73.023 15.1352 72.5311 13.5663 72.0393 11.9991C70.9177 12.2857 70.9145 13.5444 71.3438 15.1807C71.4298 16.3163 71.5231 17.4519 71.6368 18.5833C70.4364 16.5397 69.6987 15.7599 68.526 12.2419L69.5088 15.8467C69.0657 14.7432 68.3174 15.0627 67.6276 14.8713C66.9458 14.6749 66.2073 13.9853 65.6927 10.7977C65.7049 11.6897 66.1342 13.5831 65.5256 13.3538L64.2067 9.87794C63.8001 11.0599 63.3814 12.0243 62.4204 10.1646C62.4415 9.19001 61.9724 7.61519 61.5098 6.03868C59.8502 6.3936 60.9856 9.23975 62.1137 12.1896C63.2588 15.1377 64.5135 18.1744 63.7628 18.7418L62.7881 16.538L63.4244 19.0773L62.952 18.3936C62.8214 17.634 62.5884 16.8255 62.3588 16.0137C60.286 16.9393 59.967 18.3877 60.3533 20.0148C59.9808 20.0536 59.7755 20.3706 59.9654 21.2954L59.7227 21.6023C58.9566 21.0627 56.965 18.6549 56.5917 19.444L58.5468 22.5785C56.0755 19.7172 52.6076 19.176 47.0913 12.7148C48.1155 15.5247 47.6018 13.2974 49.255 15.7051C50.3417 19.7113 46.9095 15.0501 44.9544 13.8217C45.3261 15.8695 46.3527 14.5012 47.618 17.038C44.8335 15.6739 49.5333 21.3316 46.8032 20.4658C45.3772 18.9694 46.218 19.0655 45.4965 17.8793C46.2172 19.7425 45.8374 20.5628 45.1589 21.1554C44.491 21.7515 43.5495 22.1612 43.1867 23.0388C41.5912 22.7699 40.1011 23.0304 38.5161 23.3297C36.9092 23.6112 35.2154 23.935 33.1921 23.8583L34.1644 24.7629C30.9245 23.3744 32.6191 26.3073 30.7363 26.3579L32.607 27.0779C33.9517 29.1493 32.5583 28.5971 32.9113 29.7942L29.6195 27.8408C30.1535 29.2673 32.0039 30.0682 33.2773 31.7045C30.901 30.8725 31.926 33.4707 31.6095 33.6385C30.0204 32.8587 29.7486 32.03 28.9281 31.3226C29.4816 32.8612 32.5574 34.807 32.0137 35.7748L31.1323 35.2336C32.5112 37.4904 32.8366 39.1158 32.874 40.5853C30.324 42.0505 27.6823 43.7332 24.7906 44.868L25.8189 45.7102C22.0061 45.4269 23.3922 49.052 21.046 50.1885L23.2234 50.2525C24.4652 52.7252 22.8444 52.6611 23.0303 54.3455L19.3644 53.1273C19.7637 55.0613 21.8697 55.2881 23.1325 57.1622C21.8088 57.1672 21.3178 58.017 21.1174 58.9317C20.533 58.6746 19.9333 58.4731 19.3132 58.3871C18.0269 54.982 18.9261 51.5095 18.4814 49.4912C18.009 51.2743 17.6414 53.0439 17.3305 54.7915C15.614 53.4839 12.5901 56.3824 11.9692 52.9031C9.92971 54.9306 8.87953 57.7768 8.42991 60.6752C7.96081 63.5854 8.11502 66.5479 8.28951 69.0838C9.15384 68.6395 9.82015 67.9414 11.04 68.4709C11.5683 71.1467 9.15465 70.1435 7.55989 70.2194C8.49321 72.3725 12.0431 73.1186 14.3772 74.8165C12.5016 76.1367 12.0017 77.0675 11.337 77.8827C10.6975 78.7139 9.90618 79.4289 7.45601 80.5231L11.0294 81.0433C7.81311 82.6375 13.0835 83.913 10.6764 85.8251C9.89319 85.8335 9.10433 84.8058 8.38933 83.9459C9.25854 86.1935 5.09674 85.3926 6.20455 87.6613C4.9328 86.9337 3.70001 86.1969 2.45017 85.4364C2.32924 87.1478 3.32262 89.8035 0 88.5111C1.86096 90.2697 2.3122 92.3781 2.56704 94.5608C2.82999 96.7401 2.95254 99.0197 4.1131 100.892L0.998247 100.616C2.87625 101.624 2.84784 103.402 2.94442 105.173C3.06859 106.941 3.29097 108.695 5.63725 109.342L4.39472 109.733C5.88235 110.905 7.39433 112.018 8.94364 113.07C8.77889 114.788 4.05954 114.909 5.367 114.853C6.741 118.577 7.54853 121.41 6.61602 124.281C10.5189 123.895 12.5219 126.822 14.0371 129.402C13.9324 130.091 13.8164 130.747 13.6654 131.323C13.2069 131.407 12.7459 131.497 12.2719 131.619C12.1746 131.642 12.0723 131.679 11.9741 131.704L12.5706 129.724L11.4498 129.757C11.0911 130.33 10.9937 131.124 11.0107 131.977C10.2576 132.206 9.49227 132.464 8.69692 132.797C10.6212 133.61 12.2671 136.182 14.3325 138.21C15.4176 139.221 16.6228 140.07 18.0074 140.377C18.0642 140.484 18.1105 140.594 18.1681 140.699C19.7669 143.56 21.7723 146.171 24.0139 148.501C24.0667 148.853 24.1357 149.211 24.2128 149.565C22.7138 149.78 21.218 150.005 19.7328 150.231C18.1543 149.937 14.6832 153.868 12.0325 155.234C14.1905 157.025 15.0451 155.021 17.4425 155.769C18.9537 157.393 18.4911 161.884 19.4553 165.028L19.5315 161.257C22.7706 159.07 20.8122 163.662 23.6812 160.552L22.2447 166.28C23.6568 163.508 24.8888 166.354 25.3287 168.032L26.8577 164.198C28.0061 166.792 28.9094 167.896 28.7089 171.649L29.264 167.945C29.4353 170.404 35.7137 168.816 32.6483 174.711C33.2903 173.959 34.0556 172.133 35.0596 172.739L34.6327 176.451C36.367 175.769 38.2077 175.351 38.3741 177.499C37.392 178.247 36.8629 179.814 36.3346 181.389C39.7197 182.264 40.4809 179.226 41.1351 176.127C41.7933 173.01 42.3703 169.758 45.2352 169.971L44.9016 172.37L46.636 169.97L47.8696 173.171C49.3093 169.148 51.2547 169.582 53.3997 170.372C55.4238 171.153 57.641 172.382 59.4127 170.65C60.2073 171.084 61.001 171.518 61.8109 171.925C62.7897 173.119 63.9527 174.479 65.4095 174.164L65.3876 173.613C65.8445 173.814 66.3128 173.993 66.7754 174.185C66.579 174.302 66.3964 174.423 66.2365 174.558C66.5863 174.512 66.9377 174.45 67.2875 174.395C68.3734 174.84 69.4707 175.259 70.5793 175.654C70.9989 177.123 71.8762 178.532 70.0915 179.717C71.834 181.024 73.9676 181.315 76.1378 181.163C76.8317 182.272 77.4363 183.509 77.8795 184.937C79.8151 181.908 77.6116 184.169 77.4996 181.213C77.5865 181.118 77.6636 181.054 77.7464 180.969C78.8274 180.797 79.9003 180.538 80.944 180.237C82.1192 181.276 82.9194 183.745 84.3007 184.889C86.6592 182.775 82.2523 183.672 83.3706 180.728C85.3688 181.927 86.0586 180.75 86.8012 179.492C87.9212 179.629 89.0493 179.739 90.1823 179.828C89.9079 180.055 89.6474 180.324 89.5403 180.797C89.7862 180.432 90.0646 180.125 90.3567 179.841C92.2818 179.986 94.2199 180.087 96.1807 180.087C97.0458 180.087 97.9028 180.048 98.7623 180.019L97.7803 182.869C99.2233 182.765 101.329 181.423 100.622 185C101.884 182.822 103.59 182.165 105.389 181.657C107.187 181.117 109.069 180.84 110.531 179.463L110.585 182.713C111.252 180.672 112.74 180.566 114.208 180.361C115.669 180.174 117.113 179.757 117.481 177.342L117.9 178.611C118.177 178.1 118.442 177.597 118.711 177.091C119.091 177.091 119.467 177.081 119.849 177.092C120.095 177.597 120.238 177.488 120.343 177.111C120.918 177.125 121.49 177.154 122.061 177.185C122.142 177.662 122.155 177.864 122.115 177.434C122.284 177.355 122.443 177.284 122.607 177.209C122.701 177.214 122.795 177.214 122.888 177.221C123.869 177.271 124.838 177.323 125.799 177.432L125.51 176.103C127.416 177.27 128.896 176.805 130.334 176.095C131.773 175.353 133.153 174.308 135.033 174.381L132.774 173.171C134 170.116 135.689 171.077 137.237 169.278L139.817 172.363C141.236 170.452 139.874 169.216 140 167.199C140.53 167.018 141.062 166.84 141.583 166.627C142.737 166.558 143.842 165.846 144.763 165.089C145.595 164.634 146.407 164.141 147.202 163.613C148.152 164.792 147.293 166.013 147.455 167.061C148.466 165.676 148.356 164.111 148.531 162.693C149.74 161.803 150.905 160.844 151.996 159.804C153.199 158.603 154.332 157.398 155.431 156.107C156.567 154.747 157.593 153.289 158.474 151.741C158.946 150.915 159.366 150.076 159.737 149.228C161.257 147.642 162.78 146.029 164.213 144.38C165.731 142.586 167.05 140.556 168.115 138.459C167.544 138.704 167.129 137.991 166.459 137.555C167.126 136.783 167.777 135.957 168.421 135.112C169.707 135.412 170.992 135.494 171.659 137.099C172.706 136.648 173.356 135.848 173.758 134.863C174.739 135.875 175.873 136.824 176.505 137.803C175.971 136.057 175.213 134.559 174.2 133.212C174.274 132.738 174.317 132.245 174.339 131.745C174.834 132.114 175.314 132.418 175.812 132.462C176.258 131.938 175.355 131.411 174.356 131.039C174.36 130.107 174.31 129.172 174.262 128.303C173.843 128.289 173.475 128.334 173.067 128.282C173.177 128.077 173.286 127.873 173.392 127.667C173.773 127.921 174.161 128.178 174.58 128.455C174.537 128.223 174.564 127.977 174.618 127.724C174.739 127.773 174.857 127.819 174.97 127.859C174.903 127.714 174.795 127.568 174.692 127.421C175.029 126.389 175.904 125.188 176.282 123.781C176.581 122.715 176.577 121.635 175.876 120.725C175.921 120.467 175.964 120.21 176 119.95C176.497 120.4 177.016 120.512 177.651 119.766C177.064 119.796 176.574 119.9 176.024 119.72C176.078 119.293 176.135 118.865 176.165 118.437C176.167 118.411 176.167 118.385 176.169 118.359C177.058 118.393 178.178 118.625 177.732 117.583L180.98 120.259C181.269 119.224 180.738 117.294 183.668 119.221C182.159 117.514 182.057 116.086 182.149 114.657C182.256 113.258 182.566 111.859 181.79 110.328L184.694 111.524C183.097 110.287 183.49 109.248 183.771 108.16C183.835 107.873 183.89 107.583 183.905 107.293C184.075 107.505 184.207 107.763 184.088 108.152L187 107.125Z" fill="#FFD372"/>
</g>
</g>
</svg>
