<svg width="78" height="94" viewBox="0 0 78 94" fill="none" xmlns="http://www.w3.org/2000/svg">
<mask id="mask0_1338_632" style="mask-type:alpha" maskUnits="userSpaceOnUse" x="-108" y="0" width="186" height="94">
<rect x="78" width="94" height="186" transform="rotate(90 78 0)" fill="#C4C4C4"/>
</mask>
<g mask="url(#mask0_1338_632)">
<circle cx="64" cy="76" r="1" transform="rotate(-180 64 76)" fill="white"/>
<circle cx="28" cy="76" r="1" transform="rotate(-180 28 76)" fill="white"/>
<circle cx="52" cy="76" r="1" transform="rotate(-180 52 76)" fill="white"/>
<circle cx="16" cy="76" r="1" transform="rotate(-180 16 76)" fill="white"/>
<circle cx="40" cy="76" r="1" transform="rotate(-180 40 76)" fill="white"/>
<circle cx="4" cy="76" r="1" transform="rotate(-180 4 76)" fill="white"/>
<circle cx="58" cy="84" r="1" transform="rotate(-180 58 84)" fill="white"/>
<circle cx="22" cy="84" r="1" transform="rotate(-180 22 84)" fill="white"/>
<circle cx="46" cy="84" r="1" transform="rotate(-180 46 84)" fill="white"/>
<circle cx="10" cy="84" r="1" transform="rotate(-180 10 84)" fill="white"/>
<circle cx="34" cy="84" r="1" transform="rotate(-180 34 84)" fill="white"/>
<circle cx="58" cy="68" r="1" transform="rotate(-180 58 68)" fill="white"/>
<circle cx="22" cy="68" r="1" transform="rotate(-180 22 68)" fill="white"/>
<circle cx="46" cy="68" r="1" transform="rotate(-180 46 68)" fill="white"/>
<circle cx="10" cy="68" r="1" transform="rotate(-180 10 68)" fill="white"/>
<circle cx="34" cy="68" r="1" transform="rotate(-180 34 68)" fill="white"/>
<circle cx="58" cy="52" r="1" transform="rotate(-180 58 52)" fill="white"/>
<circle cx="22" cy="52" r="1" transform="rotate(-180 22 52)" fill="white"/>
<circle cx="46" cy="52" r="1" transform="rotate(-180 46 52)" fill="white"/>
<circle cx="10" cy="52" r="1" transform="rotate(-180 10 52)" fill="white"/>
<circle cx="34" cy="52" r="1" transform="rotate(-180 34 52)" fill="white"/>
<circle cx="58" cy="36" r="1" transform="rotate(-180 58 36)" fill="white"/>
<circle cx="22" cy="36" r="1" transform="rotate(-180 22 36)" fill="white"/>
<circle cx="46" cy="36" r="1" transform="rotate(-180 46 36)" fill="white"/>
<circle cx="10" cy="36" r="1" transform="rotate(-180 10 36)" fill="white"/>
<circle cx="34" cy="36" r="1" transform="rotate(-180 34 36)" fill="white"/>
<circle cx="58" cy="20" r="1" transform="rotate(-180 58 20)" fill="white"/>
<circle cx="22" cy="20" r="1" transform="rotate(-180 22 20)" fill="white"/>
<circle cx="46" cy="20" r="1" transform="rotate(-180 46 20)" fill="white"/>
<circle cx="10" cy="20" r="1" transform="rotate(-180 10 20)" fill="white"/>
<circle cx="34" cy="20" r="1" transform="rotate(-180 34 20)" fill="white"/>
<circle cx="63" cy="60" r="1" transform="rotate(-180 63 60)" fill="white"/>
<circle cx="27" cy="60" r="1" transform="rotate(-180 27 60)" fill="white"/>
<circle cx="51" cy="60" r="1" transform="rotate(-180 51 60)" fill="white"/>
<circle cx="15" cy="60" r="1" transform="rotate(-180 15 60)" fill="white"/>
<circle cx="39" cy="60" r="1" transform="rotate(-180 39 60)" fill="white"/>
<circle cx="3" cy="60" r="1" transform="rotate(-180 3 60)" fill="white"/>
<circle cx="63" cy="44" r="1" transform="rotate(-180 63 44)" fill="white"/>
<circle cx="27" cy="44" r="1" transform="rotate(-180 27 44)" fill="white"/>
<circle cx="51" cy="44" r="1" transform="rotate(-180 51 44)" fill="white"/>
<circle cx="15" cy="44" r="1" transform="rotate(-180 15 44)" fill="white"/>
<circle cx="39" cy="44" r="1" transform="rotate(-180 39 44)" fill="white"/>
<circle cx="3" cy="44" r="1" transform="rotate(-180 3 44)" fill="white"/>
<circle cx="63" cy="28" r="1" transform="rotate(-180 63 28)" fill="white"/>
<circle cx="27" cy="28" r="1" transform="rotate(-180 27 28)" fill="white"/>
<circle cx="51" cy="28" r="1" transform="rotate(-180 51 28)" fill="white"/>
<circle cx="15" cy="28" r="1" transform="rotate(-180 15 28)" fill="white"/>
<circle cx="39" cy="28" r="1" transform="rotate(-180 39 28)" fill="white"/>
<circle cx="3" cy="28" r="1" transform="rotate(-180 3 28)" fill="white"/>
<circle cx="63" cy="12" r="1" transform="rotate(-180 63 12)" fill="white"/>
<circle cx="27" cy="12" r="1" transform="rotate(-180 27 12)" fill="white"/>
<circle cx="51" cy="12" r="1" transform="rotate(-180 51 12)" fill="white"/>
<circle cx="15" cy="12" r="1" transform="rotate(-180 15 12)" fill="white"/>
<circle cx="39" cy="12" r="1" transform="rotate(-180 39 12)" fill="white"/>
<circle cx="3" cy="12" r="1" transform="rotate(-180 3 12)" fill="white"/>
</g>
</svg>
