<svg width="181" height="173" viewBox="0 0 181 173" fill="none" xmlns="http://www.w3.org/2000/svg">
<path fill-rule="evenodd" clip-rule="evenodd" d="M179.447 66.848C180.986 69.975 180.625 75.9053 178.956 82.3499C177.151 89.333 176.49 96.6753 175.933 103.912C175.386 111.014 172.724 116.695 168.295 122.296C161.123 131.365 153.445 139.621 144.691 147.275C137.834 153.268 129.869 156.392 122.217 160.2C112.405 165.078 101.715 168.086 91.0945 171.005C86.3374 172.311 81.7191 172.655 76.7587 171.865C72.5158 171.189 67.9343 171.188 63.7345 172.035C53.355 174.127 44.7611 171.059 36.8232 164.507C29.0078 158.056 21.1578 151.603 12.8932 145.77C8.84362 142.912 7.30681 139.242 6.33495 134.921C5.06235 129.257 4.31742 123.439 2.59673 117.923C0.0786972 109.854 0.698221 101.569 0.798221 93.4788C0.89709 85.4433 -0.50402 76.8542 4.29469 69.3974C1.63207 61.0938 7.16452 55.9353 11.3472 50.1236C13.5918 47.0068 15.0927 43.3573 16.9887 39.9804C21.3347 32.239 27.4011 26.2464 35.203 22.0419C41.9232 18.4214 46.0181 11.1988 53.6851 8.78413C61.0333 6.46628 68.1943 3.56005 75.5438 1.25553C77.7277 0.570002 80.3961 0.54142 82.6353 1.08622C87.9515 2.38236 93.13 2.44519 98.4633 1.31715C106.945 -0.478806 114.213 4.9966 122.319 5.75272C124.645 5.96876 126.846 7.39495 129.149 8.11877C134.181 9.69385 140.256 9.91103 144.059 12.9901C149.906 17.7243 154.256 24.3512 159.119 30.2794C160.331 31.7562 160.671 34.2192 162.105 35.2012C167.185 38.6722 169.473 44.2164 172.449 49.0747C175.179 53.5266 176.417 58.8984 179.447 66.848L86 55.4008Z" fill="#14BCB6"/>
</svg>
