<svg width="48" height="48" viewBox="0 0 48 48" fill="none" xmlns="http://www.w3.org/2000/svg">
<path fill-rule="evenodd" clip-rule="evenodd" d="M22.1525 18.3409C22.1241 18.4384 22.1115 18.4817 22.0926 18.5472C21.8914 18.4457 21.6943 18.3464 21.4947 18.246C21.4787 18.3068 21.4668 18.3522 21.4518 18.4098C21.2542 18.3065 21.0641 18.2072 20.8648 18.1028C20.8492 18.157 20.8367 18.2004 20.8228 18.2487C20.6944 18.2041 20.5559 18.1714 20.4389 18.11C20.3575 18.0671 20.3093 17.981 20.2405 17.9206C20.1671 17.8564 20.0695 18.0401 19.9451 17.9912C19.8267 17.9445 19.7226 17.8762 19.6027 17.7872C19.5765 17.8721 19.5635 17.9134 19.5417 17.9835C19.3397 17.8817 19.1435 17.7829 18.9448 17.6828C18.9306 17.7402 18.9194 17.7866 18.908 17.8326C18.653 17.7197 18.3985 17.6072 18.1272 17.4873C18.1051 17.5663 18.0927 17.6103 18.0803 17.6549C17.8225 17.5464 17.5629 17.4371 17.2914 17.323C17.2641 17.4132 17.2513 17.4553 17.2414 17.4885C16.9787 17.376 16.7224 17.2662 16.4556 17.1518C16.4361 17.2327 16.4248 17.2791 16.4139 17.3238C16.1582 17.2112 15.9031 17.0994 15.632 16.9803C15.6105 17.0592 15.5984 17.1036 15.5842 17.1556C15.3331 17.0431 15.0821 16.9305 14.8207 16.8135C14.7818 16.8909 14.7566 16.9412 14.7142 17.0254C14.5527 16.8748 14.4361 16.6765 14.1487 16.7126C14.1391 16.7524 14.1276 16.799 14.1141 16.8543C13.9312 16.7428 13.75 16.6329 13.5554 16.5145C13.5074 16.6094 13.4818 16.6596 13.435 16.7518C13.2495 16.4835 12.9674 16.3677 12.6228 16.3435C12.611 16.3896 12.5993 16.4353 12.5829 16.5005C12.5401 16.4774 12.4882 16.472 12.4777 16.4406C12.4188 16.2618 12.2967 16.2031 12.0509 16.2429C12.0242 16.2471 11.9967 16.2247 11.9851 16.2031C11.9681 16.1707 11.9786 16.0968 11.9535 16.0948C11.8381 16.0865 11.6992 16.1017 11.7033 15.9574C11.7074 15.8077 11.8124 15.6375 11.8197 15.4803C11.8212 15.4448 11.9177 15.3771 11.9552 15.3396C11.9183 15.2063 11.8872 15.0935 11.8404 14.9241C12.1106 14.9944 12.3163 15.048 12.5447 15.1077C12.5235 14.9399 12.422 14.9334 12.2968 14.9254C12.2108 14.9198 12.1689 14.8126 12.1112 14.755C12.3165 14.4917 12.4567 14.6007 12.5604 14.6315C13.2577 14.8394 14.0157 14.9313 14.7576 15.0524C15.555 15.1824 16.3937 15.2336 17.1748 15.3924C17.6963 15.4982 18.2418 15.5569 18.7531 15.677C19.3296 15.8127 19.9426 15.8806 20.5041 16.0404C20.867 16.1435 21.2655 16.1767 21.6278 16.2853C21.9715 16.3883 22.3359 16.4717 22.7003 16.5391C23.0949 16.6118 23.4806 16.6994 23.8588 16.7985C24.5659 16.9836 25.281 17.1547 25.9832 17.3491C26.4447 17.4771 26.9237 17.5823 27.3944 17.6977C28.082 17.8664 28.7451 18.0758 29.44 18.2336C30.0433 18.3705 30.5938 18.6017 31.1864 18.7596C31.6785 18.8908 32.1538 19.0481 32.6378 19.1919C33.5071 19.4498 34.3769 19.7069 35.2387 19.9772C35.792 20.1509 36.3319 20.3495 36.8991 20.5C37.7466 20.7252 38.5339 21.0448 39.3635 21.2955C39.8597 21.4451 40.3533 21.5961 40.8348 21.7693C41.4235 21.9814 42.0541 22.1301 42.6321 22.3576C43.4963 22.6975 44.4014 22.9718 45.2898 23.2729C45.958 23.4997 46.6012 23.7662 47.3302 23.8944C47.4305 23.9122 47.4931 24.0018 47.566 24.0531C47.3768 24.378 47.2159 24.0833 47.0138 24.306C47.0874 24.328 47.1569 24.3365 47.2086 24.3676C47.2632 24.4003 47.3004 24.4546 47.3745 24.5286C47.257 24.5981 47.1766 24.6457 47.0956 24.6936C47.0961 24.7737 47.1786 24.8383 47.0276 24.9701C46.9522 25.0361 46.7723 25.0043 46.7978 25.1842C46.7834 25.1895 46.767 25.1996 46.755 25.1991C46.6706 25.1948 46.5827 25.1967 46.5043 25.1812C46.1002 25.1012 45.6729 25.0565 45.303 24.9235C44.7965 24.7417 44.2493 24.6309 43.7362 24.4629C42.9657 24.2104 42.1975 23.9544 41.422 23.7102C40.9303 23.5553 40.4274 23.4187 39.9267 23.273C39.913 23.3291 39.9014 23.3758 39.8898 23.4224C39.8727 23.4257 39.8498 23.4365 39.8414 23.4305C39.8262 23.4199 39.382 23.1355 39.3477 23.1223C39.1492 23.0448 38.9508 22.9668 38.742 22.8849C38.7189 22.9698 38.7067 23.0144 38.6763 23.1266C38.6312 23.0484 38.6047 23.0125 38.5879 22.9702C38.5693 22.9237 38.5799 22.8381 38.5428 22.8271C38.2984 22.7536 38.0446 22.6955 37.7921 22.6323C37.7761 22.6903 37.764 22.7344 37.7325 22.8483C37.6878 22.7678 37.6623 22.7311 37.6454 22.6887C37.6268 22.6425 37.6366 22.5579 37.5994 22.5468C37.3552 22.4734 37.1019 22.4153 36.85 22.3517C36.8334 22.4104 36.8211 22.4546 36.7888 22.5698C36.7445 22.4869 36.7199 22.4498 36.7031 22.4073C36.6847 22.361 36.6931 22.2777 36.6558 22.2665C36.4122 22.1931 36.1592 22.135 35.9075 22.0714C35.8906 22.1309 35.8783 22.1745 35.8451 22.2915C35.8009 22.2063 35.7597 22.1724 35.7643 22.1251C35.7728 22.0378 35.7543 22.0065 35.6701 21.9845C35.2026 21.8626 34.7464 21.7214 34.2777 21.5841C34.262 21.644 34.2503 21.6893 34.2379 21.7373C34.0115 21.821 34.2456 21.4036 33.9561 21.5129C33.8403 21.5566 33.7247 21.4265 33.5932 21.3687C33.5712 21.4445 33.5589 21.4876 33.5468 21.5293C33.5221 21.5346 33.4933 21.5447 33.4688 21.5441C33.4589 21.544 33.2221 21.2908 33.2083 21.2867C32.8729 21.1877 32.5378 21.0887 32.1961 20.9879C32.1789 21.0572 32.1673 21.1039 32.1556 21.1516C31.9385 20.9406 31.8121 20.8749 31.5008 20.8121C31.4891 20.8596 31.4776 20.906 31.4665 20.9519C31.4397 20.9516 31.3944 20.9645 31.3856 20.949C31.1763 20.5783 30.6718 20.6182 30.3148 20.4539C30.1266 20.3673 29.8864 20.3535 29.6693 20.3067C29.6542 20.3617 29.642 20.4059 29.6292 20.4526C29.5959 20.4459 29.5542 20.4519 29.5459 20.4339C29.4089 20.1394 29.0674 20.0898 28.7698 20.0366C28.3861 19.9681 28.0773 19.7707 27.6466 19.7864C27.6379 19.8184 27.626 19.8631 27.6021 19.9518L27.2156 19.5654C27.1423 19.621 27.0993 19.6536 27.0448 19.695C26.8523 19.7516 26.9067 19.3556 26.5626 19.6067C26.5101 19.5541 26.4542 19.4861 26.3845 19.4334C26.3494 19.4072 26.2667 19.3823 26.2447 19.4029C26.1489 19.4925 26.1106 19.473 26.0459 19.4295C25.9565 19.369 25.9486 19.1401 25.701 19.3547C25.6876 19.3662 25.6338 19.3269 25.6022 19.3071C25.5058 19.2472 25.4844 19.0434 25.252 19.2474C25.1609 19.1772 25.07 19.107 24.9818 19.0388C24.9077 19.0691 24.8055 19.1393 24.7667 19.121C24.6721 19.0771 24.6062 18.9925 24.5291 18.9241C24.2847 19.1343 24.2565 18.9046 24.1534 18.8595C24.1196 18.8748 24.0989 18.8787 24.094 18.8871C24.0854 18.9019 24.0879 18.9193 24.0823 18.9359C24.0732 18.9634 24.0612 18.9909 24.0335 19.0618L23.6776 18.7059C23.6488 18.8034 23.6364 18.8459 23.6232 18.8906C23.4341 18.9926 23.5052 18.6604 23.2808 18.7962C23.0571 18.9314 23.0728 18.6919 22.959 18.6512C22.8379 18.6082 22.716 18.5664 22.5767 18.5178C22.5945 18.5095 22.5742 18.514 22.5695 18.5224C22.5609 18.5373 22.5634 18.5546 22.5579 18.5709C22.5486 18.5981 22.5364 18.6256 22.508 18.6964L22.1525 18.3409Z" fill="black"/>
<path fill-rule="evenodd" clip-rule="evenodd" d="M22.4667 41.5665C23.2331 42.8008 23.2448 42.4623 23.1028 42.5509C23.1352 42.6613 23.1681 42.7728 23.2167 42.9382C23.0468 42.9413 22.9396 42.9433 22.8313 42.9452C22.8229 42.9775 22.8111 43.0227 22.7992 43.0682C22.7736 43.0692 22.7308 43.0838 22.7197 43.0699C22.4439 42.7259 21.9865 42.5841 21.7059 42.2397C21.4243 41.8945 21.1228 41.5571 20.7563 41.3029C20.458 41.0957 20.1934 40.8593 19.9272 40.6204C19.8453 40.5466 19.8794 40.3853 19.7066 40.3688C19.5772 40.3565 19.514 40.1996 19.4213 40.1068L19.1157 39.8013C19.0231 39.7087 18.931 39.6157 18.8378 39.5237C18.7452 39.4317 18.6518 39.3405 18.5564 39.2514C18.5495 39.2448 18.5251 39.2565 18.4667 39.2679C18.537 39.3716 18.5964 39.4589 18.6561 39.5462C18.638 39.5634 18.6202 39.5804 18.6024 39.5975C18.5022 39.5046 18.4006 39.413 18.3025 39.318C18.1988 39.2179 18.0977 39.1153 17.9971 39.0122C17.9799 38.9947 17.9527 38.9703 17.9602 38.9477C18.0627 38.6402 17.9218 38.55 17.6802 38.5184C17.5896 38.5065 17.5463 38.3973 17.4815 38.3325C16.611 37.462 15.7426 36.5893 14.867 35.724C14.7716 35.6299 14.7316 35.4509 14.5048 35.5196C14.4946 35.5225 14.4756 35.5038 14.4784 35.4932C14.5371 35.2782 14.2438 35.3933 14.254 35.2588C14.267 35.0852 14.1967 35.0474 14.0447 35.0483C13.9981 35.0487 13.9798 34.9464 13.9707 34.8803C13.9582 34.7876 14.0169 34.7356 14.1142 34.7358C14.1216 34.7092 14.1403 34.675 14.1336 34.6581C14.1243 34.6351 14.0953 34.6061 14.0753 34.614C14.0149 34.638 13.9512 34.6969 13.8957 34.7078C13.8217 34.7225 13.7281 34.7311 13.6901 34.6946C13.6246 34.6316 13.6251 34.473 13.5446 34.4605C13.4151 34.4406 13.3751 34.3869 13.346 34.268C13.326 34.187 13.1778 34.1859 13.112 34.1232C12.8471 33.871 12.5922 33.6086 12.3397 33.3561C12.3758 33.269 12.4064 33.1954 12.4366 33.1222C12.3581 33.1314 12.2796 33.1408 12.1328 33.1582C11.984 33.0908 11.9498 32.7498 11.5574 32.9164C11.5787 32.8287 11.5984 32.7474 11.6159 32.6751C11.3047 32.5468 11.0789 32.3475 10.9748 32.027C10.6045 31.9583 10.5084 31.5994 10.2348 31.4293C10.3158 31.3579 10.4137 31.2832 10.4101 31.2729C10.367 31.1433 10.2634 31.2746 10.1604 31.3291L9.86606 31.0347C9.79095 31.0801 9.73133 31.1161 9.66822 31.1543C9.66484 31.1318 9.65145 31.1093 9.6602 31.0871C9.72728 30.9145 9.68624 30.7751 9.56145 30.7574C9.26884 30.7164 9.16382 30.4782 8.98084 30.3234C8.82328 30.1901 8.68674 30.0342 8.47812 29.9454C8.55384 30.0478 8.62941 30.1504 8.70528 30.2527C8.47511 30.0756 8.08765 30.0301 8.20992 29.6032C8.0802 29.5193 7.96264 29.466 7.87455 29.3825C7.60122 29.1228 7.33892 28.8517 7.07792 28.5907C6.99111 28.6447 6.93185 28.6813 6.84348 28.7365C6.89928 28.5908 6.94478 28.4721 6.99027 28.3535C6.85793 28.4481 6.69637 28.522 6.6982 28.3612C6.70015 28.1911 6.59303 28.202 6.49317 28.148C6.31081 28.0491 6.19038 27.8689 5.9863 27.7719C6.03921 27.857 6.09212 27.9421 6.14754 28.0318C6.10916 28.0471 6.06824 28.0729 6.06035 28.0653C5.85374 27.8645 5.6359 27.6737 5.45146 27.4519C5.31545 27.2883 5.27067 27.0438 5.07996 26.9247C5.04887 26.9055 5.01344 26.8916 4.94143 26.913C5.00404 26.999 5.0668 27.0849 5.12967 27.1708C4.86165 26.9741 4.53971 26.8409 4.43479 26.4774C4.38834 26.3166 4.21107 26.2346 4.04202 26.1535C4.07442 26.2233 4.10691 26.2931 4.14044 26.3651C4.10967 26.3778 4.06875 26.4042 4.06085 26.3966C3.96564 26.3072 3.87558 26.2126 3.78416 26.1193C3.90901 25.8952 3.57567 26.0802 3.61496 25.89C3.64034 25.7664 3.36288 25.8394 3.39956 25.6042C3.41918 25.4764 3.22163 25.4002 3.06463 25.3503C3.11953 25.4383 3.17413 25.5266 3.23245 25.6201C3.18985 25.6303 3.14957 25.651 3.13897 25.641C2.99713 25.5053 2.86793 25.356 2.71841 25.2284C2.42695 24.9791 2.15427 24.7031 1.81526 24.5139C1.63253 24.4119 1.48457 24.2807 1.31823 24.1653C1.17567 24.0661 0.994437 24.0117 0.709194 24.2026C0.66099 24.1544 0.525507 24.0757 0.549257 24.033C0.653336 23.8463 0.543055 23.7057 0.639949 23.5526C0.731646 23.4079 0.724442 23.3278 0.713634 23.2072C0.691958 22.9637 0.875535 22.723 1.1494 22.5833C1.17057 22.4892 1.19168 22.3941 1.21266 22.3009C1.24418 22.2727 1.27443 22.231 1.29994 22.2246C1.57918 22.1531 1.79069 22.185 1.98725 22.3202C2.30927 22.5418 2.69891 22.6835 2.95802 22.9815C3.26266 22.996 3.35163 23.2607 3.547 23.402C3.69961 23.5128 3.87335 23.5997 4.01918 23.7176C4.1619 23.8328 4.24279 24.0393 4.42029 24.0878C4.67549 24.1579 4.8232 24.329 4.96306 24.5046C5.1428 24.7305 5.45154 24.7956 5.64324 25.0015C5.83988 25.2121 6.00286 25.4737 6.26284 25.6008C6.76471 25.846 7.01281 26.3496 7.45941 26.6384C8.01312 26.9964 8.37823 27.5517 8.91364 27.9154C9.63502 28.4049 10.1501 29.096 10.7935 29.6593C10.8722 29.7283 10.941 29.808 11.0166 29.8806C11.0802 29.9417 11.1229 30.036 11.2679 29.9743C11.1703 30.138 11.3856 30.066 11.3804 30.1867C11.3772 30.2606 11.5451 30.2689 11.6206 30.3246C11.7047 30.3872 11.771 30.4702 11.8451 30.5443L12.0395 30.7387L12.2618 30.961L12.4841 31.1833L12.6785 31.3777C12.7526 31.4518 12.8352 31.5184 12.8987 31.6018C12.9735 31.7007 13.103 31.743 13.1013 31.9247C13.1005 32.0121 13.3009 32.0131 13.3793 32.0852C13.6199 32.3072 13.8398 32.5508 14.0802 32.7731C14.1695 32.856 14.2031 33.0161 14.4145 32.9516C14.5532 32.9092 14.3405 33.1938 14.5488 33.1312C14.6145 33.1113 14.7371 33.2197 14.7187 33.2628C14.615 33.5065 14.9578 33.322 14.9042 33.4823C14.8284 33.7093 15.0535 33.5782 15.1087 33.6449C15.1399 33.6825 15.158 33.7325 15.1824 33.7766C15.2247 33.8541 15.2591 34.0102 15.3112 33.9953C15.5241 33.9344 15.4789 34.1574 15.6147 34.1883C15.7557 34.22 15.8332 34.3677 15.9343 34.4688C17.7497 36.2833 19.5608 38.1025 21.3847 39.9088C21.6279 40.1496 21.7874 40.4899 22.1897 40.5578C22.1552 40.8395 22.4528 40.7861 22.5699 40.9195C22.9325 41.3328 23.3377 41.7059 23.7531 42.1213C23.6747 42.1718 23.5735 42.256 23.5575 42.2439C23.3347 42.0746 23.0646 41.9647 22.8738 41.7517C22.489 41.3227 22.066 40.93 21.6566 40.5245C21.6418 40.51 21.6014 40.5209 21.5729 40.52C21.5776 40.5523 21.5757 40.5893 21.588 40.6161C21.619 40.6832 21.5723 40.8198 21.7345 40.7729C21.7765 40.7607 21.8093 40.8396 21.8463 40.8766C22.3827 41.4129 22.9189 41.9492 22.4667 41.5665C21.4787 40.6191 21.4944 40.6054 21.51 40.5918C21.4584 40.4714 21.4187 40.3413 21.3506 40.234C21.3145 40.1773 21.0053 39.8984 20.9719 39.8474C20.9435 39.8039 20.908 39.7283 20.8666 39.7393C20.6612 39.7937 20.6188 39.6439 20.5321 39.5578C19.2133 38.2454 17.8974 36.9301 16.5866 35.6099C16.5095 35.5325 16.3605 35.5055 16.4048 35.3209C16.4133 35.2857 16.3755 35.2267 16.3505 35.2324C16.1304 35.2839 16.1023 35.0986 15.9917 35.018C15.7653 34.8529 15.6456 34.5721 15.3243 34.5044C15.2335 34.4853 15.2014 34.35 15.1556 34.2584C15.0674 34.0819 14.9679 33.919 14.7485 33.8805C14.6719 33.867 14.7346 33.693 14.5856 33.7679C14.6477 33.5635 14.5068 33.4657 14.3968 33.4522C14.213 33.4299 14.2915 33.2025 14.1454 33.1748C14.1195 33.1698 14.0995 33.1431 14.0735 33.1499C13.95 33.1821 13.935 33.1315 13.9235 33.0236C13.9123 32.9189 13.8348 32.815 13.7402 32.7872C13.6174 32.7512 13.4879 32.6884 13.4454 32.6089C13.3792 32.4853 13.2601 32.4439 13.1686 32.3621C12.4537 31.7213 11.863 30.956 11.0601 30.4014C10.461 29.9874 10.0729 29.3481 9.44784 28.9457C8.87953 28.5795 8.52784 27.9732 7.94064 27.6088C7.47766 27.3215 7.21475 26.8094 6.7109 26.5496C6.47718 26.429 6.34849 26.1717 6.14214 26.0099C5.95263 25.8617 5.8457 25.6388 5.57693 25.5527C5.32641 25.4725 5.19094 25.208 5.00203 25.0276C4.97273 24.9998 4.92867 24.987 4.89144 24.9674C4.8727 25.0615 4.90563 25.0975 4.9418 25.13C5.28486 25.4394 5.58659 25.7867 5.99015 26.0394C6.47468 26.3431 6.76299 26.8617 7.27291 27.1571C7.74605 27.4312 7.96398 27.9984 8.51281 28.2019C8.58997 28.2305 8.45189 28.4587 8.6562 28.3589C8.58018 28.5554 8.78128 28.467 8.84129 28.5234C9.31126 28.9651 9.68747 29.5055 10.283 29.8161C10.3629 29.8577 10.4694 29.933 10.4552 30.0168C10.4229 30.2066 10.6348 30.0717 10.6648 30.1785C10.6897 30.2671 10.7863 30.313 10.8511 30.3778C11.2218 30.7485 11.5879 31.1237 11.9659 31.4866C12.0632 31.5799 12.1047 31.7507 12.3239 31.7025C12.3484 31.6973 12.35 31.7957 12.3718 31.8387C12.4007 31.8958 12.4352 32.0014 12.4737 31.9889C12.626 31.94 12.5687 32.0584 12.6025 32.1129C12.6363 32.1669 12.7668 32.1385 12.8147 32.1864C12.8921 32.2637 13.04 32.2966 12.9752 32.4849C13.1236 32.444 13.1772 32.5382 13.2457 32.6085C13.3152 32.6798 13.4286 32.7232 13.364 32.888C13.5314 32.8205 13.5735 32.9376 13.6439 33.0074C14.1093 33.4685 14.5557 33.9489 15.0391 34.3913C15.515 34.8266 15.8601 35.4007 16.4842 35.6799C16.4604 35.815 16.5754 35.8445 16.6304 35.9143C16.701 36.0047 16.8341 36.0377 16.9166 36.1193C17.0121 36.2138 17.1643 36.2692 17.1253 36.4721C17.364 36.4149 17.4051 36.6102 17.5093 36.7131C18.7383 37.9297 19.9588 39.1551 21.1827 40.3771C21.272 40.4664 21.3694 40.5477 22.4667 41.5665Z" fill="black"/>
<path fill-rule="evenodd" clip-rule="evenodd" d="M15.8219 23.5597C15.6475 23.6377 15.5734 23.671 15.4774 23.714L15.7431 23.9797C15.7571 23.97 15.771 23.9603 15.7848 23.9507C15.769 23.9149 15.7553 23.8774 15.7372 23.8436C15.7196 23.8106 15.6975 23.7815 15.6723 23.7429C15.7261 23.6975 15.7823 23.6317 15.8034 23.6352C15.9094 23.6517 16.0201 23.6689 16.1032 23.7183C16.2895 23.8291 16.4574 23.963 16.6393 24.0796C16.7298 24.1374 16.835 24.1774 16.9293 24.2233C16.8296 24.4881 16.7309 24.268 16.625 24.3582C16.7142 24.654 17.1196 24.5799 17.2623 24.811C17.185 24.6402 17.1266 24.4514 16.8749 24.4193C16.9363 24.3918 17.0103 24.3372 17.0561 24.3423C17.1499 24.3527 17.233 24.389 17.3119 24.4267C17.4408 24.4884 17.4541 24.6854 17.6565 24.6641C17.8144 24.6476 17.8115 24.8525 18.0122 24.8144C18.1132 24.7952 18.1769 24.9581 18.2673 25.0485C17.9625 25.2047 17.9309 24.9907 17.8027 24.9202C17.6872 24.8565 17.5523 24.8178 17.3835 24.8217C17.6117 24.9965 17.8121 25.21 18.0764 25.335C18.3276 25.4535 18.6086 25.5315 18.8569 25.6712C18.7374 25.5305 18.6177 25.3895 18.4981 25.2487L18.5482 25.1987C18.8868 25.4083 19.2257 25.6182 19.5642 25.828C19.5458 25.8527 19.527 25.8774 19.5085 25.902C19.3306 25.8235 19.1524 25.7452 18.9747 25.667C19.0723 25.808 19.0953 26.0268 19.3549 25.9923C19.5895 26.2578 20.0243 26.3052 20.1745 26.6756L19.8997 26.9504C19.8234 26.9354 19.874 26.7848 19.7285 26.8323C19.6596 26.8548 19.6705 26.6735 19.5181 26.7833C19.4769 26.8131 19.3709 26.8192 19.3701 26.8037C19.3539 26.549 19.0734 26.5647 18.9672 26.4064C18.9342 26.3569 18.9281 26.2849 18.9056 26.2103C18.8385 26.2624 18.7541 26.3276 18.6693 26.3931C18.6884 26.2176 18.3773 26.3296 18.4697 26.0939C18.3971 26.1384 18.3379 26.1748 18.2573 26.2241C18.2101 26.0716 18.2222 25.8722 18.013 25.8536C17.9998 25.8981 17.9872 25.9409 17.9554 26.0479C17.8172 25.841 17.6973 25.6623 17.5735 25.4775C17.4056 25.5105 17.2494 25.5409 17.1272 25.5649C17.0412 25.476 17.1572 25.287 16.9425 25.323C16.7747 25.3512 16.6178 25.2838 16.4852 25.2192C16.4001 25.1777 16.355 25.0728 16.316 24.9799C16.2885 24.9138 16.1751 24.9516 16.1915 24.8138C16.2085 24.6696 16.0467 24.8456 15.9693 24.8574C15.8972 24.8681 15.8038 24.8706 15.7712 24.8301C15.6408 24.667 15.3873 24.6441 15.2864 24.4515C15.2812 24.4415 15.2916 24.4198 15.2949 24.4036C14.8973 24.487 14.7704 24.1495 14.4684 24.1066C14.2162 24.0708 14.1901 23.7643 13.8917 23.8177C13.366 23.5465 12.8894 23.2077 12.2875 23.0409C12.0927 22.7627 11.6848 22.765 11.4166 22.5751C11.1685 22.3998 10.8703 22.2564 10.5612 22.1719C10.002 22.0187 9.59336 21.6477 8.99164 21.5658C8.90772 21.4014 8.72493 21.432 8.52735 21.459C8.41811 21.4738 8.33369 21.3921 8.25422 21.3603C8.27452 21.0999 8.39244 20.8428 8.32327 20.6437C8.48362 20.5307 8.64543 20.4163 8.83768 20.2805C9.29429 20.4389 9.81076 20.5569 10.2396 20.8158C10.4382 20.9355 10.7169 20.9542 10.9179 21.0711C11.1681 21.2166 11.4564 21.3123 11.6909 21.4706C11.9418 21.6395 12.2416 21.7354 12.5131 21.8709C12.6807 21.9545 12.8581 22.0402 13.0087 22.1366C13.2638 22.3 13.584 22.3686 13.8242 22.5506C13.9686 22.6601 14.1728 22.7007 14.3429 22.7825C14.4592 22.8381 14.4742 23.0139 14.6601 22.992C14.8183 22.9733 14.8067 23.2208 15.0194 23.1246C15.1339 23.3207 15.371 23.3724 15.5531 23.4887C15.6004 23.519 15.6706 23.5212 15.8219 23.5597Z" fill="black"/>
</svg>
