<svg width="163" height="233" viewBox="0 0 163 233" fill="none" xmlns="http://www.w3.org/2000/svg">
<g opacity="0.85">
<g opacity="0.9">
<path d="M84.9952 40.6972C86.4387 40.8659 87.7228 41.1553 88.7582 41.5596C91.346 40.9818 93.8998 40.3949 96.4661 39.8295C97.6278 39.5597 98.768 39.3022 99.9082 39.0448C94.897 39.7906 89.937 40.2777 84.9952 40.6972Z" fill="#DFE4F3"/>
<path d="M32.7472 46.4392C39.2359 46.6155 51.6568 44.1687 63.6216 42.2715C52.9547 43.3907 42.7306 44.4834 32.7472 46.4392Z" fill="#DFE4F3"/>
<path d="M0.553078 69.7508C1.60736 69.543 2.65255 69.369 3.6581 69.2752C8.34173 66.7716 13.3444 64.7709 18.3438 62.7148C17.1754 62.874 16.0906 63.1281 14.938 63.3641C12.4875 64.378 9.99646 65.2722 7.60462 66.3382L0.553078 69.7508Z" fill="#DFE4F3"/>
<path d="M85.1301 44.0554C72.288 47.2608 58.022 49.1409 44.2469 51.4248C40.7916 51.9881 37.3825 52.582 34.0941 53.3353C30.7842 54.1009 27.4644 54.7005 24.3958 55.785C21.2901 56.805 18.2397 57.8217 15.3935 59.0928C12.5844 60.4283 9.91419 61.8554 7.41668 63.3832C11.1406 63.0371 14.9553 62.3521 18.9156 61.8695L27.1546 59.1743C29.9381 58.3403 32.7746 57.6475 35.5738 56.8903C41.1384 55.3669 47.0733 54.0878 52.8139 52.7205C59.7468 51.037 66.7293 49.4394 73.7308 47.974C79.7425 46.6792 85.7542 45.3844 91.7444 44.102C91.2318 42.9663 90.2162 42.1497 88.771 41.5811C84.0102 42.6118 79.2618 43.664 74.5011 44.6947C77.9648 44.6419 81.4772 44.4751 85.1301 44.0554Z" fill="#DFE4F3"/>
<path d="M21.5753 61.5651C24.0911 60.7139 26.5879 59.7305 29.1657 58.9866L36.9116 56.7765C42.0796 55.3103 47.5253 54.0273 52.814 52.7205C47.0733 54.0878 41.1385 55.3669 35.5739 56.8903C32.7746 57.6475 29.9382 58.3402 27.1546 59.1742L18.9156 61.8695C19.798 61.7609 20.6929 61.6738 21.5753 61.5651Z" fill="#DFE4F3"/>
<path d="M47.8897 45.8285C57.3461 44.3488 65.7311 44.8332 74.5226 44.6823C79.271 43.6301 84.0317 42.5994 88.7925 41.5687C87.7447 41.1429 86.473 40.875 85.0295 40.7063C72.5043 41.7817 60.2451 42.4746 47.8897 45.8285Z" fill="#DFE4F3"/>
<path d="M63.6094 42.25C69.7319 41.6929 75.9528 41.1077 82.229 40.5192C77.0879 40.3951 70.4466 41.1944 63.6094 42.25Z" fill="#DFE4F3"/>
<path d="M73.7305 47.9739C66.729 49.4393 59.768 51.0245 52.8136 52.7204C59.7746 51.1352 66.7695 49.5591 73.7305 47.9739Z" fill="#DFE4F3"/>
<path d="M-12.9144 78.4711C-11.6537 77.6287 -10.1764 77.0621 -8.84132 76.3485C-6.48595 74.6737 -3.83389 73.3143 -1.25291 71.8815L0.744788 70.7281L3.67941 69.2628C2.65238 69.3691 1.62866 69.5306 0.574386 69.7384L-6.43736 73.8153C-8.62089 75.3909 -10.8788 76.8377 -12.9144 78.4711Z" fill="#DFE4F3"/>
<path d="M91.9243 44.5133C91.8929 44.3597 91.797 44.2432 91.7441 44.102C85.7324 45.3968 79.7422 46.6792 73.7306 47.9739C79.7546 46.7006 85.8407 45.5347 91.9243 44.5133Z" fill="#DFE4F3"/>
<path d="M-30.6017 88.7117C-34.2651 94.5204 -36.4328 101.183 -36.8587 107.986C-37.3184 114.78 -36.1752 121.621 -34.0124 128.046C-35.1894 121.94 -35.5054 115.737 -34.648 109.831C-33.8031 103.903 -31.8153 98.3171 -28.7269 93.2985C-24.9851 87.1296 -19.3526 82.1025 -12.8803 78.4802C-10.8571 76.8254 -8.56527 75.3877 -6.43711 73.8154L0.574644 69.7385C-2.1048 70.4552 -4.93707 71.4032 -7.73127 72.6156C-9.07878 73.3077 -10.4478 74.0122 -11.8382 74.7291C-12.5165 75.0921 -13.2287 75.446 -13.9161 75.8428L-15.8609 77.1374C-21.307 80.4535 -26.0019 84.6244 -30.6017 88.7117Z" fill="#DFE4F3"/>
<path d="M14.9595 63.3518C16.2616 62.8291 17.5513 62.2849 18.9154 61.8695C14.9552 62.3521 11.1189 63.0495 7.41649 63.3832C9.89253 61.8678 12.5627 60.4407 15.3933 59.0928C18.2395 57.8217 21.2899 56.805 24.3957 55.785C27.4857 54.6881 30.8179 54.11 34.0939 53.3353C37.3947 52.6035 40.7914 51.9881 44.2467 51.4248C58.0218 49.1409 72.2878 47.2608 85.1299 44.0554C81.4646 44.4536 77.9522 44.6204 74.5224 44.6823C65.6676 46.5591 56.8558 48.4111 48.0564 50.2847C43.6675 51.2152 39.2504 52.0475 34.9358 53.1069C30.618 54.1109 26.2505 55.0291 22.0293 56.3495C19.9002 56.9775 17.7677 57.5501 15.6509 58.1996L9.39401 60.409L6.2825 61.5183L3.26108 62.8332C1.25921 63.7313 -0.80465 64.522 -2.76602 65.5399C-10.6462 69.4024 -18.0759 74.2932 -24.18 80.5374C-22.7392 79.362 -21.4745 78.0305 -19.9221 77.0484L-15.3823 73.9979C-13.7804 73.1016 -12.1627 72.2822 -10.5574 71.4413C-8.99842 70.5698 -7.30635 69.8792 -5.62337 69.2225C-3.94039 68.5658 -2.30368 67.8785 -0.617389 67.2772L4.54732 65.7556C7.93894 64.685 11.5141 64.0811 14.9595 63.3518Z" fill="#DFE4F3"/>
<path d="M0.553067 69.7509L7.60461 66.3382C9.98405 65.2508 12.4966 64.3442 14.938 63.3641C11.4926 64.0935 7.93893 64.685 4.5721 65.7985L-0.592608 67.3201C-2.26651 67.9429 -3.91561 68.6087 -5.59859 69.2654C-7.28157 69.9221 -8.97364 70.6127 -10.5326 71.4842C-12.1379 72.3251 -13.7556 73.1445 -15.3575 74.0408L-19.8973 77.0913C-21.4712 78.0859 -22.7144 79.4049 -24.1552 80.5804C-25.4514 81.7582 -26.5129 83.1441 -27.5868 84.5086L-29.2083 86.5614C-29.7098 87.2804 -30.131 88.039 -30.5985 88.7671C-25.9987 84.6797 -21.3162 80.4874 -15.8915 77.1837L-13.9468 75.8891C-13.2594 75.4922 -12.5687 75.1507 -11.8689 74.7753C-10.4999 74.0708 -9.13092 73.3663 -7.76193 72.6618C-4.95864 71.4156 -2.13878 70.4461 0.553067 69.7509Z" fill="#DFE4F3"/>
<path d="M14.9597 63.3518C16.1032 63.1497 17.1971 62.8617 18.3654 62.7026L21.6091 61.5742C20.7143 61.6614 19.8319 61.77 18.937 61.8572C17.5515 62.2849 16.2618 62.8291 14.9597 63.3518Z" fill="#DFE4F3"/>
<path d="M101.956 38.7216L99.9299 39.0324C98.7897 39.2898 97.628 39.5596 96.4878 39.8171C93.9001 40.3949 91.3462 40.9818 88.7799 41.5472C90.2252 42.1157 91.2193 42.9448 91.7533 44.0681C94.3105 43.5365 96.8801 43.0265 99.4373 42.495L103.258 41.7208L105.038 41.3805L105.754 41.2818C106.479 41.1493 107.217 41.0383 107.862 41.4106C108.481 41.7399 108.909 42.3808 109.016 43.0632C109.158 43.7546 108.798 44.4206 108.486 44.9726L108.267 45.3858L108.157 45.5924L107.904 46.1964L106.682 48.9918C106.241 50.7071 105.897 52.3942 105.584 54.0351C106.618 51.8065 107.672 49.5656 108.727 47.3246L109.133 46.4892L109.319 46.0669L109.419 45.8942L109.887 45.1662C110.189 44.648 110.59 44.1018 110.796 43.4672C111.231 42.1856 110.925 40.6153 109.93 39.5863C109.433 39.0719 108.776 38.6781 108.077 38.5091C107.356 38.3524 106.606 38.442 105.806 38.4456L104.244 38.5174L101.956 38.7216Z" fill="#DFE4F3"/>
<path d="M18.344 62.7149C19.2264 62.6063 20.1303 62.4853 21.0219 62.3428C22.2323 61.9589 23.4551 61.5965 24.6779 61.2341L21.5662 61.599L18.344 62.7149Z" fill="#DFE4F3"/>
<path d="M0.744895 70.7281C1.7702 70.2221 2.78641 69.7499 3.8332 69.2314C3.77784 69.2347 3.72248 69.2381 3.66712 69.2414L0.744895 70.7281Z" fill="#DFE4F3"/>
<path d="M3.65827 69.2753C3.71363 69.272 3.76899 69.2687 3.82435 69.2653C6.55656 67.9456 9.27638 66.6044 12.2127 65.539C15.0904 64.4215 17.9738 63.2149 21.0342 62.3643C20.1303 62.4853 19.2264 62.6063 18.3563 62.7364C13.366 64.7586 8.3295 66.7502 3.65827 69.2753Z" fill="#DFE4F3"/>
<path d="M91.9244 44.5133C85.8193 45.5471 79.7671 46.7221 73.7091 47.9864C66.7481 49.5716 59.7747 51.1353 52.7923 52.7329C47.4821 54.0521 42.0579 55.3227 36.8899 56.7889L29.144 58.999C26.5786 59.7644 24.0909 60.7139 21.5536 61.5775L24.6653 61.2126C28.413 59.9651 32.3996 59.181 36.3762 58.2308C40.3099 57.3054 44.6319 56.5566 48.9201 55.7988C68.4382 51.2586 83.2086 47.2262 102.4 43.9056C103.408 43.6672 104.505 43.4345 105.688 43.1523C106.241 42.9191 107.06 43.0476 107.435 43.7472C107.621 44.0693 107.632 44.4353 107.59 44.8599L107.577 45.1829L107.565 45.3614C107.586 45.349 107.447 45.8018 107.401 45.9712C107.151 46.975 106.866 47.9699 106.602 48.9523L107.858 46.1659L108.11 45.5619L108.22 45.3553L108.44 44.9422C108.751 44.3901 109.09 43.7365 108.97 43.0327C108.862 42.3503 108.457 41.697 107.815 41.3801C107.192 40.9954 106.433 41.1188 105.708 41.2513L104.991 41.35L103.211 41.6903L99.391 42.4645C96.8338 42.996 94.2766 43.5275 91.707 44.0376C91.8186 44.2309 91.893 44.3597 91.9244 44.5133Z" fill="#DFE4F3"/>
<path d="M94.6281 101.334C98.1716 91.2994 101.5 81.1891 104.846 71.0112C106.519 65.9222 108.192 60.8332 109.852 55.7228L112.416 48.0583L113.497 44.7714C113.88 43.7484 114.149 42.6768 113.963 41.6103C113.875 42.7488 113.351 43.8247 112.77 44.704L111.961 46.0303C111.677 46.4807 111.481 46.7369 111.133 47.4244L107.232 54.4583C104.6 59.1272 101.981 63.8176 99.3405 68.5203C98.3941 70.8992 97.503 73.2748 96.6119 75.6504C96.652 77.8033 96.6582 79.9471 95.9627 81.3222C94.7519 83.7392 93.5559 86.0331 92.4244 88.2898C90.8902 93.4704 89.5807 98.6931 88.5604 103.921C88.0148 106.498 87.6418 109.175 87.3515 111.748C87.052 114.355 86.7187 116.952 86.4193 119.559C89.3803 113.526 91.8207 107.335 94.6281 101.334Z" fill="#DFE4F3"/>
<path d="M100.872 64.773C99.4915 67.1447 97.9947 69.6122 96.6526 72.2483C96.6295 72.6052 96.6188 72.9835 96.6082 73.3619L99.3405 68.5203C99.8426 67.2569 100.357 66.015 100.872 64.773Z" fill="#DFE4F3"/>
<path d="M81.7669 128.515C83.3998 125.54 84.9311 122.537 86.4162 119.503C86.7156 116.897 87.0489 114.299 87.3484 111.693C87.6387 109.12 88.0241 106.464 88.5573 103.865C89.5776 98.6376 90.878 93.4488 92.4212 88.2343C90.4844 92.0726 88.6731 95.7812 86.8808 99.6219C85.9847 101.542 85.1134 103.506 84.2363 105.558C83.4451 107.561 82.6234 109.61 81.7529 111.773C80.4913 116.682 83.7839 120.45 81.405 124.515C77.1932 131.557 71.719 139.041 66.2249 146.193C60.7464 153.421 55.2935 160.149 50.8008 166.952C46.9602 170.916 42.319 174.683 36.9562 177.35C31.6058 180.038 25.49 181.45 19.2872 181.223L16.9488 181.142C16.1796 181.099 15.4128 180.912 14.6402 180.814C13.1223 180.516 11.5284 180.435 10.065 179.934C8.5619 179.513 7.08032 179.08 5.61114 178.668C4.16589 178.1 2.75451 177.54 1.36462 176.968C-0.0649185 176.477 -1.38461 175.778 -2.71338 175.114C-4.04214 174.45 -5.34611 173.828 -6.6286 173.194C-9.08041 171.775 -11.4397 170.417 -13.7584 169.179C-11.2032 171.025 -8.85047 173.017 -6.26228 174.672C-3.64353 176.281 -1.15366 177.964 1.61705 179.142C6.91395 181.868 12.6461 183.511 18.278 184.039C19.681 184.088 21.0882 184.392 22.4904 184.241C23.8744 184.158 25.2708 184.097 26.6547 184.013C27.9949 183.755 29.3474 183.518 30.6876 183.26C32.0311 183.057 33.2745 182.482 34.5527 182.116C39.5901 180.325 44.1935 177.781 48.1946 174.641C56.2429 168.391 62.4946 160.716 67.8564 152.838C73.2091 144.995 77.6958 136.793 81.7669 128.515Z" fill="#DFE4F3"/>
<path d="M96.6085 73.3618C96.6086 74.1062 96.6212 74.872 96.6337 75.6379C97.4909 73.2532 98.4159 70.8867 99.3623 68.5078L96.6085 73.3618Z" fill="#DFE4F3"/>
<path d="M102.791 38.3826L100.796 38.8469C101.184 38.8236 101.559 38.7789 101.956 38.7217L103.739 38.4367L102.791 38.3826Z" fill="#DFE4F3"/>
<path d="M74.7883 39.2891C85.0644 38.1378 94.0731 37.7182 102.813 38.3702C103.821 38.1318 104.829 37.8935 105.803 37.646C106.636 37.4515 107.487 37.1892 108.348 37.093C109.221 37.0183 110.12 37.1864 110.909 37.5611C112.509 38.2981 113.703 39.8706 113.941 41.6227C114.161 39.7208 113.328 37.6823 111.732 36.4562C110.951 35.8477 109.983 35.4615 108.964 35.3339C107.958 35.2277 106.913 35.4017 105.818 35.4898C95.6337 36.5022 85.3056 37.7122 74.7883 39.2891Z" fill="#DFE4F3"/>
<path d="M103.739 38.4367L101.956 38.7216L104.21 38.5083L105.772 38.4366C106.594 38.4205 107.322 38.3433 108.043 38.5C108.763 38.6566 109.408 39.0289 109.896 39.5773C110.891 40.6062 111.209 42.1981 110.762 43.4581C110.556 44.0927 110.155 44.639 109.853 45.1571L109.385 45.8851L109.285 46.0578L109.099 46.4801L108.693 47.3155C107.639 49.5565 106.605 51.7851 105.551 54.026C105.475 54.4416 105.4 54.8572 105.334 55.2389C104.56 58.263 102.826 61.4114 100.85 64.7854C100.336 66.0273 99.8337 67.2907 99.3192 68.5327C101.96 63.8299 104.591 59.161 107.211 54.4706L111.112 47.4367C111.472 46.7707 111.668 46.5145 111.939 46.0426L112.749 44.7163C113.317 43.8155 113.854 42.7611 113.941 41.6227C113.703 39.8705 112.509 38.2981 110.909 37.561C110.12 37.1863 109.199 37.0306 108.348 37.0929C107.474 37.1677 106.636 37.4514 105.803 37.6459C104.816 37.8719 103.821 38.1318 102.813 38.3702L103.739 38.4367Z" fill="#DFE4F3"/>
<path d="M82.2288 40.5191C83.2071 40.5269 84.1334 40.5934 84.9952 40.6971C89.937 40.2777 94.897 39.7905 99.9297 39.0324L100.796 38.8469C94.5846 39.3983 88.3852 39.9711 82.2288 40.5191Z" fill="#DFE4F3"/>
<path d="M99.9425 39.0539L101.968 38.7432C101.581 38.7665 101.206 38.8113 100.809 38.8685L99.9425 39.0539Z" fill="#DFE4F3"/>
<path d="M-30.6016 88.7116C-31.1716 89.2126 -31.7416 89.7134 -32.3116 90.2143C-30.0508 86.5899 -27.3364 83.3047 -24.1582 80.525C-18.0542 74.2807 -10.6245 69.3899 -2.74428 65.5274C-0.804401 64.5219 1.25947 63.7312 3.28283 62.8207L6.30424 61.5058L9.41575 60.3966L15.6726 58.1871C17.777 57.5162 19.9219 56.965 22.0511 56.337C26.2722 55.0166 30.6397 54.0984 34.9576 53.0944C39.2507 52.0474 43.7016 51.2242 48.0782 50.2722C56.8561 48.4111 65.6894 46.5466 74.5441 44.6698C65.7526 44.8208 57.3676 44.3363 47.9112 45.816C60.2881 42.4497 72.5258 41.7692 85.0171 40.6847C84.1553 40.581 83.2414 40.536 82.2507 40.5067C75.9745 41.0952 69.7537 41.6804 63.6311 42.2375C51.6787 44.1562 39.2455 46.5816 32.7568 46.4052C42.7402 44.4494 52.9642 43.3568 63.6311 42.2375C70.4683 41.182 77.0973 40.3611 82.2507 40.5067C88.3948 39.9372 94.6065 39.3858 100.818 38.8345L102.813 38.3701C94.0948 37.7057 85.0646 38.1377 74.7885 39.289C85.3181 37.7336 95.6463 36.5236 105.831 35.5111C106.925 35.4231 107.971 35.2491 108.977 35.3552C109.983 35.4614 110.951 35.8476 111.744 36.4776C113.34 37.7037 114.173 39.7422 113.954 41.6441C114.14 42.7106 113.85 43.7946 113.488 44.8052L112.407 48.092L109.844 55.7565C108.161 60.8794 106.488 65.9684 104.837 71.045C101.512 81.2105 98.1629 91.3331 94.6193 101.367C99.9118 89.5504 105.155 77.8473 110.451 66.0856C111.752 63.1299 113.031 60.1865 114.332 57.2308C115.678 54.1058 117.003 50.9931 118.349 47.868C119.284 45.6675 120.108 43.4737 120.154 41.2712C120.222 39.0563 119.486 36.7897 118.198 34.9562C116.898 33.1013 114.969 31.6952 112.834 30.9237C110.625 30.2233 108.392 30.2243 105.899 30.7186C102.079 31.4928 98.2366 32.2793 94.3731 33.0783C90.8848 33.8325 87.3411 34.59 83.7973 35.3475C76.7007 36.1521 69.32 38.1513 61.9394 40.1506C56.911 41.9084 51.6007 42.4833 46.2813 43.0921C40.971 43.667 35.6607 44.2419 30.4886 46.1972C20.3361 49.5964 10.1366 53.5095 0.202463 58.3287C-9.71017 63.1355 -19.4954 68.9568 -27.7846 77.1212L-29.3501 78.6263L-30.761 80.2999L-33.592 83.6809C-35.187 86.1766 -37.0564 88.5443 -38.2812 91.2844C-39.768 93.918 -40.7185 96.786 -41.7797 99.6606L-42.8926 104.083C-43.3047 105.552 -43.3688 107.078 -43.6239 108.571C-44.3515 114.603 -44.1743 120.714 -43.2659 126.603C-42.3022 132.489 -40.7485 138.206 -38.8173 143.733C-37.5615 147.446 -35.0266 150.993 -31.9911 154.366C-28.9035 157.68 -25.2078 160.757 -21.409 163.518C-19.3752 165.006 -17.4185 165.766 -15.7254 166.02C-20.38 160.289 -24.2027 154.164 -27.3066 147.796C-30.4104 141.428 -32.7187 134.801 -34.0213 128.08C-36.1841 121.655 -37.3273 114.813 -36.8676 108.02C-36.4202 101.205 -34.2649 94.5203 -30.6016 88.7116Z" fill="#DFE4F3"/>
<path d="M-28.7608 93.2893C-31.8369 98.3294 -33.837 103.894 -34.682 109.822C-35.5269 115.75 -35.2233 121.931 -34.0464 128.037C-31.7521 134.987 -28.2169 141.507 -24.1208 147.56C-20.037 153.592 -15.1981 159.244 -9.99334 164.142C-9.16396 163.148 -8.87419 161.864 -9.28261 160.611C-8.74371 157.179 -11.6544 154.221 -15.2683 150.838C-18.8913 147.49 -23.2366 143.585 -25.3808 139.326C-30.0964 130.166 -32.8019 119.874 -32.0874 110.099C-31.8132 105.216 -30.3475 100.562 -28.2463 96.3136C-27.299 94.1347 -25.803 92.2116 -24.5226 90.2125L-22.1658 87.4488L-20.9936 86.0563L-19.6578 84.7983C-18.5888 83.723 -17.6496 82.5222 -16.4666 81.4956L-12.9266 78.4496C-19.3741 82.1148 -25.019 87.1205 -28.7608 93.2893Z" fill="#DFE4F3"/>
<path d="M0.386959 69.7609C0.442318 69.7576 0.463799 69.7452 0.519158 69.7419C0.605081 69.6923 0.712483 69.6303 0.776925 69.5931L0.386959 69.7609Z" fill="#B4BFE3"/>
<path d="M73.7305 47.9739C66.729 49.4393 59.768 51.0245 52.8136 52.7204C59.7746 51.1352 66.7695 49.5591 73.7305 47.9739Z" fill="#B4BFE3"/>
<path d="M-9.63911 76.752C-8.40895 75.9559 -7.21267 75.1507 -5.98251 74.3546C-4.70276 73.6444 -3.38913 72.9432 -2.10938 72.233C-1.74421 72.0221 -1.422 71.8361 -1.07831 71.6377C-0.925494 71.4063 -0.747882 71.2178 -0.595067 70.9865C-1.6146 71.4033 -1.6146 71.4033 -2.64653 71.7986C-1.57005 71.034 -0.474545 70.4015 0.476367 69.7666L-6.49242 73.8186C-8.62059 75.3909 -10.8694 76.8038 -12.8926 78.4587C-11.9326 77.7899 -10.7165 77.3168 -9.63911 76.752Z" fill="#B4BFE3"/>
<path d="M107.372 46.9617L107.203 47.6607C107.3 47.4326 107.398 47.2046 107.495 46.9765C107.483 46.955 107.428 46.9583 107.372 46.9617Z" fill="#B4BFE3"/>
<path d="M107.809 44.7912L107.815 44.9019C107.994 44.9134 108.249 44.9091 108.526 44.8925C108.666 44.6396 108.807 44.3868 108.913 44.1248C108.628 44.3753 108.211 44.6448 107.809 44.7912Z" fill="#B4BFE3"/>
<path opacity="0.9" d="M91.9243 44.5133C85.8192 45.5471 79.767 46.7221 73.7091 47.9863C66.7481 49.5715 59.7747 51.1352 52.7922 52.7328C47.482 54.0521 42.0578 55.3226 36.8898 56.7889L29.1439 58.999C26.5785 59.7643 24.0908 60.7138 21.5535 61.5775L22.9218 61.4174C24.3528 60.8203 25.8176 60.2323 27.3288 59.6748L26.0895 60.5048C26.4308 60.4509 26.9133 60.3441 27.4297 60.2464C31.6641 59.1474 36.0406 58.1954 40.5279 57.2367C42.943 56.5581 45.1556 56.0251 46.9032 56.0756L47.9145 55.8925C57.4781 53.6064 65.9139 51.5992 74.2729 49.6078C74.2348 49.3434 74.3075 49.0724 74.3463 48.7923C76.4003 48.5799 78.4329 48.3799 80.444 48.1923C85.1585 47.1311 89.9317 46.1219 94.9634 45.1638C95.5483 44.5398 92.7571 44.3188 93.9939 43.6333C94.1567 43.568 94.3104 43.5365 94.4517 43.4836C93.5296 43.6724 92.6075 43.8612 91.6854 44.0499C91.8185 44.2308 91.8929 44.3596 91.9243 44.5133Z" fill="#B4BFE3"/>
<path d="M18.344 62.7149C19.005 62.6196 19.6999 62.5334 20.3609 62.4381C20.6988 62.3289 20.9937 62.2445 21.3102 62.1477L22.956 61.4265L21.5877 61.5866L18.344 62.7149Z" fill="#B4BFE3"/>
<path d="M109.975 44.972C110.36 44.3489 110.828 43.6208 110.923 42.793C111.017 41.9652 110.875 41.0738 110.454 40.3437C110.041 39.5797 109.337 38.9554 108.508 38.6609C107.655 38.3234 106.751 38.4444 105.785 38.458L104.222 38.5298L101.968 38.7431L99.9424 39.0538C98.8022 39.3113 97.6405 39.5811 96.5003 39.8386C93.9125 40.4164 91.3587 41.0032 88.7924 41.5687C90.2376 42.1372 91.2318 42.9662 91.7658 44.0895C92.6879 43.9008 93.6099 43.712 94.532 43.5232C95.426 43.2362 96.1729 43.0912 96.8587 43.0389L101.985 41.9973L104.555 41.4872L105.302 41.3423L105.775 41.2694C106.578 41.1212 107.405 41.0159 108.056 41.4989C108.704 41.9265 109.073 42.7153 109.018 43.463C109.16 43.61 109.097 43.8472 108.889 44.0819C108.794 44.3653 108.654 44.6181 108.501 44.8495C109.089 44.8253 109.759 44.6961 109.975 44.972Z" fill="#B4BFE3"/>
<path d="M72.0634 147.575C72.1369 147.504 72.2105 147.433 72.284 147.362L72.455 147.062C72.3418 147.214 72.1981 147.411 72.0634 147.575Z" fill="#B4BFE3"/>
<path opacity="0.9" d="M94.4276 101.879C97.9984 91.743 101.387 81.5402 104.752 71.2945C106.434 66.1716 108.125 61.0149 109.816 55.8582L112.398 48.1259L113.488 44.8052C113.871 43.7822 114.162 42.6982 113.963 41.6103C113.823 43.3518 112.697 44.775 111.973 46.0517L111.387 47.0202L110.654 48.3308L109.18 50.9859L103.258 61.5632C103.035 62.1209 102.822 62.6448 102.591 63.2364C102.651 62.9439 102.703 62.6853 102.766 62.4482L101.661 64.4034C101.93 64.8204 102.325 65.1078 102.898 65.2066C101.376 66.8869 100.073 72.0203 98.781 70.6759C98.6884 70.6148 98.6694 70.4827 98.6379 70.329L97.0622 74.4456C97.1089 76.7092 97.159 79.0282 96.4115 80.4619C96.2834 80.7362 96.143 80.9891 96.0026 81.2419C95.6252 82.1756 95.1494 83.1375 94.5324 84.1523L94.5233 84.1861C95.815 85.5305 98.4104 81.7415 98.3124 83.2583C96.957 89.9392 94.2412 90.7913 92.1034 89.42C90.6609 94.4618 89.4183 99.5027 88.4434 104.561C88.209 105.841 87.9713 107.067 87.7617 108.39L87.2856 112.13C86.992 114.647 86.6768 117.177 86.3832 119.694C89.3078 113.797 91.7119 107.742 94.4276 101.879Z" fill="#C0CAE8"/>
<path opacity="0.9" d="M72.2842 147.362C72.2106 147.433 72.1371 147.504 72.0636 147.575C72.1858 147.39 72.342 147.214 72.4766 147.05C75.9589 140.63 79.1487 134.15 82.317 127.683C83.7699 125.04 85.1212 122.37 86.4477 119.657C86.7413 117.14 87.0565 114.61 87.3501 112.093L87.8262 108.353C88.0358 107.03 88.252 105.817 88.5079 104.524C89.4828 99.4656 90.7039 94.4371 92.1679 89.3829L91.9951 89.2822C90.2598 92.7751 88.5856 96.1755 86.9768 99.7385C86.1847 101.542 85.3712 103.357 84.561 105.228L83.9581 106.664L83.4015 108.13C83.024 109.064 82.659 110.019 82.2725 110.987C81.0911 115.935 79.292 123.187 76.814 127.08C72.5121 133.916 69.1652 139.628 66.0992 145.578C62.9994 151.52 60.2144 157.709 55.9638 165.03C47.3608 173.891 37.2857 180.252 26.1834 181.709C15.0439 183.101 3.79931 179.4 -6.91429 173.989C-0.648743 178.045 6.46449 181.784 14.4581 183.525C16.4049 184.119 18.4938 184.115 20.5438 184.392C22.5996 184.58 24.6875 184.376 26.7639 184.351C30.8745 183.782 35.0577 182.941 38.8739 181.168C46.646 177.912 53.2551 172.492 58.742 166.519C64.2074 160.557 68.6672 153.945 72.2842 147.362Z" fill="#BFC8E7"/>
<path d="M98.6172 69.797C98.0952 70.7283 97.5732 71.6596 97.0603 72.557C97.0629 73.1568 97.0564 73.7904 97.0714 74.4117L98.6471 70.2951C98.6281 70.1629 98.6057 69.9754 98.6172 69.797Z" fill="#B4BFE3"/>
<path d="M101.649 43.9951C102.516 43.8096 103.447 43.587 104.357 43.3767C104.482 43.247 104.667 43.1692 104.851 43.0915C105.014 43.0261 105.364 42.9384 105.342 42.9508C105.453 42.9441 105.558 43.0267 105.651 43.0878L105.728 43.0721C106.099 42.9719 106.527 42.8685 106.961 43.0757C107.035 43.0046 107.117 42.8996 107.191 42.8285C107.191 42.8285 107.154 42.964 107.088 43.1458C107.307 43.2771 107.495 43.4546 107.631 43.6908C107.957 43.5602 108.273 43.4634 108.501 43.3608C108.777 43.3442 108.925 43.4019 109.009 43.4969C109.064 42.7492 108.694 41.9604 108.047 41.5328C107.395 41.0498 106.556 41.1336 105.766 41.3033L105.293 41.3762L104.546 41.5211L101.976 42.0312L96.8493 43.0728C98.7497 42.8918 99.8909 43.5786 101.649 43.9951Z" fill="#B4BFE3"/>
<path d="M109.315 46.0115C108.761 46.5893 108.052 46.9985 107.504 46.9426C107.407 47.1707 107.309 47.3987 107.212 47.6268C106.764 49.4313 106.36 51.211 106.041 52.9411C107.126 50.6538 108.221 48.3327 109.315 46.0115Z" fill="#B4BFE3"/>
<path d="M98.8194 68.1628C98.2363 69.1867 97.6441 70.2444 97.0981 71.3327C97.066 71.7235 97.0462 72.1357 97.0479 72.5356C97.57 71.6043 98.092 70.673 98.6049 69.7755C98.6337 69.3294 98.7113 68.7692 98.8194 68.1628Z" fill="#B4BFE3"/>
<path d="M91.9243 44.5133C91.8929 44.3597 91.797 44.2432 91.7441 44.102C85.7324 45.3968 79.7422 46.6792 73.7306 47.9739C79.7546 46.7006 85.8407 45.5347 91.9243 44.5133Z" fill="#B4BFE3"/>
<path opacity="0.9" d="M-24.1459 80.5465C-25.4421 81.7243 -26.5036 83.1103 -27.5775 84.4747L-29.1991 86.5276C-29.7005 87.2466 -30.1217 88.0051 -30.5892 88.7332C-26.0109 84.6582 -21.3375 80.4998 -15.9682 77.1994C-13.4658 75.3824 -10.5212 74.0832 -7.89393 72.6809C-5.11213 71.4471 -2.28894 70.5329 0.365708 69.7733C1.10513 69.3178 1.82221 68.6747 2.58224 68.0068C2.14196 68.6333 1.51658 69.1375 0.798635 69.5806C0.939916 69.5277 1.10268 69.4623 1.26544 69.397L7.98237 66.1489C10.2792 65.1664 12.6256 64.2698 14.9688 63.3179C11.5234 64.0472 7.96969 64.6387 4.60286 65.7522L-0.561847 67.2738C-2.23575 67.8966 -3.88485 68.5624 -5.56783 69.2191C-7.25081 69.8759 -8.94287 70.5665 -10.5019 71.4379C-12.1072 72.2788 -13.7248 73.0983 -15.3268 73.9945L-19.8665 77.045C-21.4619 78.052 -22.7266 79.3835 -24.1459 80.5465Z" fill="#B4BFE3"/>
<path opacity="0.9" d="M-30.6019 88.7117C-31.1719 89.2126 -31.7419 89.7135 -32.3119 90.2144C-30.0511 86.5899 -27.3367 83.3047 -24.1585 80.525C-18.0545 74.2807 -10.6248 69.3899 -2.74456 65.5274C-0.804685 64.522 1.25918 63.7313 3.28254 62.8208L6.30395 61.5058L9.41546 60.3966L15.6724 58.1872C17.7767 57.5162 19.9216 56.965 22.0508 56.337C26.2719 55.0166 30.6394 54.0985 34.9573 53.0944C39.2504 52.0474 43.7013 51.2242 48.0779 50.2722C56.8558 48.4111 65.6891 46.5466 74.5438 44.6698C65.7524 44.8208 57.3673 44.3363 47.911 45.816C60.2878 42.4497 72.5255 41.7693 85.0168 40.6847C84.155 40.581 83.2412 40.536 82.2505 40.5067C75.9742 41.0953 69.7534 41.6805 63.6308 42.2376C53.7564 43.7869 43.4995 45.8147 36.6259 46.2614C32.793 47.0141 28.9171 47.7916 25.0173 48.7261C21.1646 49.891 17.2475 51.0931 13.3569 52.7381C11.8681 53.4831 9.90101 54.5902 7.8396 55.2364C6.21861 56.0004 4.4993 56.7927 2.71555 57.6221C0.904689 59.2975 -2.78767 60.5417 -4.49617 61.6999C-6.39467 63.025 -8.3742 64.1107 -10.4033 65.1104C-12.4448 66.0886 -14.3872 67.2387 -16.4196 68.183C-16.7691 68.4707 -17.1094 68.7245 -17.4374 68.9997C-18.2643 69.8494 -20.7296 71.7308 -23.033 72.6026L-24.4433 73.7317L-25.7452 74.9988L-28.3706 77.5453C-28.7597 77.9131 -29.1364 78.3024 -29.504 78.6578L-33.6848 83.6199C-33.8656 84.4973 -34.4224 85.2196 -35.213 85.9338C-38.1884 90.0567 -40.2011 94.8551 -41.8626 99.7656C-43.2316 104.736 -44.0982 109.932 -44.1129 115.066C-44.1943 125.392 -41.859 135.439 -38.4348 144.744C-35.7695 152.138 -28.4954 158.933 -20.8456 164.395C-18.7441 165.901 -16.732 166.658 -14.9869 166.853C-19.8572 161.047 -23.822 154.775 -27.0465 148.247C-30.2586 141.741 -32.6875 134.954 -33.9787 128.055C-36.1414 121.63 -37.2846 114.789 -36.8249 107.995C-36.4205 101.205 -34.2652 94.5203 -30.6019 88.7117Z" fill="#D9DFF1"/>
<path d="M57.0078 42.9692L57.1316 42.4396C55.4106 42.832 53.711 43.2119 51.9866 43.5489C53.6747 43.3474 55.3412 43.1583 57.0078 42.9692Z" fill="#B4BFE3"/>
<path d="M14.9593 63.3517C12.6377 64.2912 10.2912 65.1878 7.97291 66.1827L1.25598 69.4308C3.26117 68.5881 5.46055 67.8336 7.48895 67.3784C11.0226 65.7104 14.7017 64.2449 18.356 62.7363C17.1752 62.874 16.0904 63.1281 14.9593 63.3517Z" fill="#B4BFE3"/>
<path d="M82.2289 40.5191C88.373 39.9496 94.5847 39.3982 100.797 38.8469L102.791 38.3825C94.0729 37.7181 85.0427 38.1501 74.7667 39.3014C85.2963 37.746 95.6244 36.536 105.809 35.5235C106.904 35.4355 107.949 35.2615 108.955 35.3676C109.962 35.4738 110.929 35.86 111.723 36.49C113.318 37.7161 114.152 39.7546 113.932 41.6565C114.131 42.7445 113.84 43.8285 113.457 44.8514L112.367 48.1722L109.785 55.9044C108.094 61.0612 106.412 66.184 104.721 71.3408C101.357 81.5865 98.0015 91.7983 94.3968 101.925C102.088 84.8866 109.685 68.1315 117.058 50.9897C117.141 50.3404 117.126 49.7191 116.995 49.1937C116.873 48.6345 116.704 48.0447 116.42 47.7507C117.513 45.974 118.738 43.9783 119.11 41.845C119.526 39.687 119.045 37.4161 117.908 35.4958C116.749 33.5879 114.924 32.0645 112.768 31.3054C110.577 30.5373 108.304 30.6184 105.858 31.1433C104.213 31.5199 102.582 31.918 100.937 32.2947L97.007 33.2754C94.3796 33.9334 91.7522 34.5913 89.1033 35.2617C83.8022 36.5471 78.4821 37.7003 73.052 38.3157C72.3091 37.9716 73.9137 37.6751 74.506 37.3617C72.4347 37.8418 70.3972 38.331 68.3258 38.8111C65.1202 40.2037 61.8394 42.012 57.6165 42.9325C59.5937 42.7359 61.5801 42.5053 63.5788 42.2962C70.4465 41.1944 77.0879 40.395 82.2289 40.5191Z" fill="#C8D0EA"/>
<path d="M74.7883 39.2891C85.0644 38.1378 94.0731 37.7182 102.813 38.3702C103.821 38.1318 104.829 37.8935 105.803 37.646C106.636 37.4515 107.487 37.1892 108.348 37.093C109.221 37.0183 110.12 37.1864 110.909 37.5611C112.509 38.2981 113.703 39.8706 113.941 41.6227C114.161 39.7208 113.328 37.6823 111.732 36.4562C110.951 35.8477 109.983 35.4615 108.964 35.3339C107.958 35.2277 106.913 35.4017 105.818 35.4898C95.6337 36.5022 85.3056 37.7122 74.7883 39.2891Z" fill="#B4BFE3"/>
<path d="M63.6094 42.25C61.6107 42.4591 59.612 42.6682 57.6471 42.8863C57.4166 42.9335 57.22 42.9898 56.9895 43.037L56.9952 42.9478C55.3287 43.1369 53.6407 43.3384 51.9741 43.5275C46.8258 44.5815 41.7287 45.3769 36.5829 46.2863C43.478 45.8271 53.7473 43.8208 63.6094 42.25Z" fill="#B4BFE3"/>
<path opacity="0.9" d="M-34.034 128.058C-31.6959 135.184 -28.0434 141.808 -23.8514 147.977C-19.6412 154.079 -14.6353 159.922 -9.35704 164.748C-8.62598 163.782 -8.38493 162.612 -8.76855 161.402C-8.3411 158.521 -10.3362 156.008 -13.1568 153.256C-13.5955 153.537 -10.3385 156.897 -12.6342 155.302C-14.3967 154.63 -17.328 151.884 -18.7994 148.84C-19.0664 148.278 -19.2962 147.781 -19.5227 147.339L-20.0417 146.837C-20.5399 146.867 -20.977 146.804 -20.8731 145.943C-21.7045 145.048 -23.5006 141.59 -24.8448 138.071C-26.2782 134.547 -27.2473 130.983 -27.5623 129.991C-27.5623 129.991 -27.4581 130.618 -27.3125 131.565C-27.133 132.521 -26.8138 133.768 -26.5252 135.061C-26.2704 136.346 -25.8281 137.608 -25.5933 138.561C-25.3246 139.522 -25.1435 140.133 -25.1435 140.133C-25.5055 139.655 -25.8675 139.177 -26.2543 138.656C-26.1097 138.658 -25.999 138.652 -25.8544 138.654C-26.1338 138.071 -26.4256 137.466 -26.7049 136.883C-27.6048 136.515 -28.4443 136.599 -29.151 135.375C-28.8294 136.478 -28.8508 136.49 -28.4863 137.568C-30.0539 136.44 -31.0866 133.114 -31.5208 130.874C-30.2805 130.988 -29.8033 133.203 -29.4387 134.281L-29.748 133.2C-29.4387 134.281 -28.1832 136.506 -27.8926 135.421C-27.6407 134.618 -28.6466 133.223 -29.2483 132.081C-29.3847 131.845 -29.512 131.575 -29.5839 131.301C-29.5996 131.225 -29.6153 131.148 -29.6525 131.083C-29.6368 131.16 -29.6211 131.237 -29.5839 131.301C-29.5029 131.541 -29.388 131.79 -29.2483 132.081C-29.0251 132.468 -28.7103 132.715 -28.4831 132.613C-28.8782 131.581 -29.1965 130.534 -29.5578 129.511C-29.7215 129.377 -29.8636 129.23 -30.0057 129.083C-29.9677 129.347 -29.9387 129.645 -29.9188 129.977L-30.1727 128.893L-30.0057 129.083C-30.3574 126.737 -31.8389 126.304 -32.7309 124.214C-31.9845 125.358 -31.7122 123.597 -31.0106 124.366C-31.0577 124.135 -31.1387 123.896 -31.1768 123.631C-31.6703 122.628 -31.9952 121.47 -32.2218 120.283C-32.9079 118.847 -33.6064 117.389 -34.252 116.073C-33.2349 115.8 -32.8125 116.73 -32.414 117.818C-32.3853 116.627 -32.4921 115.4 -32.2759 114.187C-33.0453 113.4 -33.5923 113.544 -33.7589 110.577C-33.3119 110.806 -32.6963 110.88 -32.255 111.198C-32.2073 110.139 -32.0364 109.096 -31.921 108.056L-31.737 106.489L-31.3836 104.968C-31.3854 104.568 -31.4119 104.125 -31.426 103.704C-31.4723 103.673 -31.9045 103.322 -31.5948 102.37C-31.513 102.809 -31.4526 103.261 -31.426 103.704C-31.2741 103.273 -31.1221 102.841 -30.9826 102.389C-30.7753 101.954 -30.5556 101.541 -30.3268 101.094L-29.4514 98.6413C-29.1781 97.825 -28.6891 97.0845 -28.3141 96.2954C-27.9052 95.5153 -27.5517 94.7386 -27.1305 93.98L-25.6601 91.814C-25.7494 91.8083 -25.8601 91.8149 -25.9799 91.8555C-26.0749 91.9389 -26.1699 92.0224 -26.2988 92.0968C-26.1947 91.9795 -26.0782 91.8836 -25.9799 91.8555C-24.8093 90.8074 -25.597 89.3438 -23.8595 88.4838L-24.6162 89.2071C-22.3468 87.5818 -21.5904 85.3699 -20.1861 83.5856C-23.6782 86.3176 -26.4075 89.7258 -28.7914 93.3355C-31.8675 98.3756 -33.8676 103.94 -34.7126 109.868C-35.527 115.749 -35.211 121.952 -34.034 128.058Z" fill="#D3D9EE"/>
<path d="M0.454645 69.7791C0.476126 69.7667 0.519087 69.7419 0.519087 69.7419C0.463728 69.7452 0.442245 69.7576 0.386887 69.7609C0.365406 69.7733 0.322445 69.7981 0.300964 69.8105C0.0035511 70.0395 -0.318658 70.2255 -0.622701 70.3438C-0.321973 70.1702 0.000236147 69.9842 0.300964 69.8105L0.365406 69.7733C-2.28925 70.5329 -5.13391 71.4595 -7.89423 72.6809C-10.5215 74.0832 -13.4785 75.361 -15.9685 77.1994C-21.3378 80.4998 -26.0112 84.6582 -30.5895 88.7332C-34.2529 94.5418 -36.4206 101.205 -36.8465 108.008C-37.3062 114.801 -36.163 121.643 -34.0002 128.068C-35.1772 121.961 -35.4932 115.759 -34.6358 109.852C-33.7909 103.924 -31.8031 98.3385 -28.7147 93.3199C-26.3308 89.7103 -23.6138 86.2806 -20.1093 83.57C-19.4948 82.6998 -18.8554 81.8726 -18.0491 81.2353C-18.3175 81.7625 -18.467 82.0492 -18.595 82.3235C-17.7615 81.5846 -16.7767 80.9588 -15.7795 80.3544L-12.8681 78.5017C-10.8449 76.8468 -8.59603 75.434 -6.46787 73.8617L0.454645 69.7791Z" fill="#C4CDE9"/>
<path d="M103.739 38.4367L101.956 38.7217L104.21 38.5084L105.772 38.4366C106.76 38.4106 107.663 38.2895 108.496 38.6394C109.324 38.934 110.028 39.5583 110.441 40.3223C110.875 41.0739 111.017 41.9652 110.91 42.7716C110.815 43.5994 110.347 44.3275 109.963 44.9505C109.975 44.972 110.021 45.0026 110.025 45.0579C109.906 45.4983 109.616 45.838 109.315 46.0116C108.221 48.3327 107.126 50.6539 106.019 52.9535C105.948 53.4245 105.864 53.8739 105.779 54.3234C105.528 55.3273 105.145 56.3502 104.719 57.398C104.309 58.7225 103.814 60.0966 103.245 61.5417L109.167 50.9644L110.642 48.3093L111.353 47.0112L111.939 46.0426C112.675 44.7874 113.801 43.3643 113.929 41.6012C113.691 39.8491 112.496 38.2766 110.896 37.5396C110.107 37.1649 109.187 37.0091 108.335 37.0715C107.462 37.1462 106.623 37.43 105.79 37.6245C104.804 37.8505 103.808 38.1103 102.8 38.3487L103.739 38.4367Z" fill="#EAEDF7"/>
<path d="M99.9425 39.0539L101.968 38.7432C101.581 38.7665 101.206 38.8113 100.809 38.8685L99.9425 39.0539Z" fill="#B4BFE3"/>
<path d="M47.8897 45.8285C57.3461 44.3488 65.7311 44.8332 74.5226 44.6823C79.271 43.6301 84.0317 42.5994 88.7925 41.5687C87.7447 41.1429 86.473 40.875 85.0295 40.7063C72.5043 41.7817 60.2451 42.4746 47.8897 45.8285Z" fill="#B4BFE3"/>
<path d="M85.1301 44.0554C72.288 47.2608 58.022 49.1409 44.2469 51.4248C40.7916 51.9881 37.3825 52.582 34.0941 53.3353C30.7842 54.1009 27.4644 54.7005 24.3958 55.785C21.2901 56.805 18.2397 57.8217 15.3935 59.0928C12.5844 60.4283 9.91419 61.8554 7.41668 63.3832C11.1406 63.0371 14.9553 62.3521 18.9156 61.8695L27.1546 59.1743C29.9381 58.3403 32.7746 57.6475 35.5738 56.8903C41.1384 55.3669 47.0733 54.0878 52.8139 52.7205C59.7468 51.037 66.7293 49.4394 73.7308 47.974C79.7425 46.6792 85.7542 45.3844 91.7444 44.102C91.2318 42.9663 90.2162 42.1497 88.771 41.5811C84.0102 42.6118 79.2618 43.664 74.5011 44.6947C77.9648 44.6419 81.4772 44.4751 85.1301 44.0554Z" fill="#BFC8E7"/>
<path d="M21.5753 61.5651C24.0911 60.7139 26.5879 59.7305 29.1657 58.9866L36.9116 56.7765C42.0796 55.3103 47.5253 54.0273 52.814 52.7205C47.0733 54.0878 41.1385 55.3669 35.5739 56.8903C32.7746 57.6475 29.9382 58.3402 27.1546 59.1742L18.9156 61.8695C19.798 61.7609 20.6929 61.6738 21.5753 61.5651Z" fill="#D8DEF0"/>
<path d="M7.47679 67.3569L7.49827 67.3445C9.5274 66.3448 11.7177 65.6242 13.8336 64.7748C15.9619 63.9469 18.0993 63.0851 20.3607 62.438C19.6997 62.5334 19.0263 62.6072 18.3438 62.7149C14.6895 64.2234 11.0104 65.689 7.47679 67.3569Z" fill="#B4BFE3"/>
<path d="M63.6094 42.25C69.7319 41.6929 75.9528 41.1077 82.229 40.5192C77.0879 40.3951 70.4466 41.1944 63.6094 42.25Z" fill="#D9DFF1"/>
<path d="M14.9597 63.3518C16.1032 63.1497 17.1971 62.8617 18.3654 62.7026L21.6091 61.5742C20.7143 61.6614 19.8319 61.77 18.937 61.8572C17.5515 62.2849 16.2618 62.8291 14.9597 63.3518Z" fill="#B4BFE3"/>
<path d="M102.887 61.1189C102.404 61.97 101.891 62.8675 101.369 63.7988C101.429 64.0507 101.528 64.2225 101.64 64.4158L102.745 62.4606C102.865 61.8756 102.907 61.451 102.887 61.1189Z" fill="#B4BFE3"/>
<path d="M102.791 38.3826L100.796 38.8469C101.184 38.8236 101.559 38.7789 101.956 38.7217L103.739 38.4367L102.791 38.3826Z" fill="#B4BFE3"/>
<path d="M82.2288 40.5191C83.2071 40.5269 84.1334 40.5934 84.9952 40.6971C89.937 40.2777 94.897 39.7905 99.9297 39.0324L100.796 38.8469C94.5846 39.3983 88.3852 39.9711 82.2288 40.5191Z" fill="#B4BFE3"/>
<path d="M84.9952 40.6972C86.4387 40.8659 87.7228 41.1553 88.7582 41.5596C91.346 40.9818 93.8998 40.3949 96.4661 39.8295C97.6278 39.5597 98.768 39.3022 99.9082 39.0448C94.897 39.7906 89.937 40.2777 84.9952 40.6972Z" fill="#D8DEF0"/>
<path d="M7.41649 63.3832C9.89253 61.8678 12.5627 60.4407 15.3933 59.0928C18.2395 57.8217 21.2899 56.805 24.3957 55.785C27.4857 54.6881 30.8179 54.11 34.0939 53.3353C37.3947 52.6035 40.7914 51.9881 44.2467 51.4248C58.0218 49.1409 72.2878 47.2608 85.1299 44.0554C81.4646 44.4536 77.9522 44.6204 74.5224 44.6823C65.6676 46.5591 56.8558 48.4111 48.0564 50.2847C43.6675 51.2152 39.2504 52.0475 34.9358 53.1069C30.618 54.1109 26.2505 55.0291 22.0293 56.3495C19.9002 56.9775 17.7677 57.5501 15.6509 58.1996L9.39401 60.409L6.2825 61.5183L3.26108 62.8332C1.25921 63.7313 -0.80465 64.522 -2.76602 65.5399C-10.6462 69.4024 -18.0759 74.2932 -24.18 80.5374C-22.7392 79.362 -21.4745 78.0305 -19.9221 77.0484L-15.3823 73.9979C-13.7804 73.1016 -12.1627 72.2822 -10.5574 71.4413C-8.99842 70.5698 -7.30635 69.8792 -5.62337 69.2225C-3.94039 68.5658 -2.30368 67.8785 -0.617389 67.2772L4.54732 65.7556C7.92655 64.6635 11.4802 64.0721 14.9132 63.3212C16.2153 62.7985 17.505 62.2543 18.8691 61.839C14.9337 62.3645 11.1189 63.0495 7.41649 63.3832Z" fill="#B4BFE3"/>
</g>
</g>
<path opacity="0.1091" d="M1.57074 133.672C3.84566 126.202 5.9512 118.688 8.80538 111.428C11.1087 105.545 13.9724 100.485 17.4318 95.1662C17.2451 95.3885 17.0369 95.6232 16.8626 95.867C18.4851 94.0141 20.0984 92.195 21.7208 90.3421C21.8034 90.2371 22.4065 89.5454 22.2504 89.7214C21.5218 90.5429 18.352 93.8332 16.8197 95.8918C8.40216 107.108 4.92878 121.282 0.961926 134.453C1.00071 134.173 1.46751 133.989 1.57074 133.672Z" fill="#2849AF"/>
<path opacity="0.1091" d="M1.10786 143.932C4.67782 133.596 7.46194 122.941 11.417 112.726C14.7394 104.194 19.0876 97.3887 25.075 90.4959C25.0445 90.5422 24.2206 89.9585 24.1809 90.0387C18.1844 96.9653 13.7966 103.851 10.4865 112.404C6.54967 122.551 3.76223 133.151 0.235225 143.462C0.204663 143.508 1.13842 143.886 1.10786 143.932Z" fill="#2849AF"/>
<path opacity="0.1091" d="M5.57465 136.886C10.4127 121.008 14.2298 106.635 25.7099 93.6797C25.9396 93.4326 26.0643 93.1029 26.2939 92.8558C24.2857 95.1319 22.5459 96.8808 20.8699 99.1369C12.4805 110.451 8.98805 124.493 4.96915 137.723C5.07238 137.405 5.4929 137.191 5.57465 136.886Z" fill="#2849AF"/>
<path opacity="0.1091" d="M-0.493162 145.772C3.2462 135.482 6.01215 124.894 9.96718 114.68C13.3169 106.046 17.7906 99.111 23.7342 92.0431C23.7037 92.0894 22.8831 91.561 22.8005 91.666C16.8354 98.7463 12.3525 105.715 9.01526 114.371C5.16677 124.323 2.42143 134.698 -0.894086 144.83C-0.979143 145.08 -0.395706 145.544 -0.493162 145.772Z" fill="#2849AF"/>
<path opacity="0.1091" d="M4.32598 138.295C6.91634 129.784 9.18435 120.715 12.9084 112.581C16.0841 105.68 19.997 99.956 25.0543 94.2302C24.8676 94.4525 24.2578 94.2892 24.0587 94.49C18.9923 100.25 14.9397 105.682 11.9219 112.807C8.38625 121.119 5.96615 129.875 3.32706 138.499C3.38487 138.351 4.26817 138.442 4.32598 138.295Z" fill="#2849AF"/>
<path opacity="0.1091" d="M5.83817 135.16C8.42853 126.649 10.6965 117.58 14.4206 109.446C17.5963 102.545 21.5216 96.8424 26.5574 91.129C26.6615 91.0117 26.0739 90.2915 26.1565 90.1866C21.0901 95.9463 17.0499 101.4 14.0197 108.504C10.4964 116.837 8.06394 125.571 5.43725 134.217C5.38607 134.476 5.92323 134.91 5.83817 135.16Z" fill="#2849AF"/>
<path opacity="0.1091" d="M2.89354 132.937C5.4839 124.426 7.73952 115.336 11.476 107.223C14.6517 100.322 18.577 94.6197 23.6128 88.9063C23.4261 89.1286 22.8163 88.9653 22.6172 89.1662C17.5508 94.9259 13.5106 100.379 10.4713 107.517C6.93565 115.829 4.51555 124.585 1.88886 133.231C1.95575 133.049 2.82665 133.119 2.89354 132.937Z" fill="#2849AF"/>
<path opacity="0.1091" d="M-1.35063 146.668C2.32674 136.27 5.11663 125.526 9.1237 115.253C12.4156 106.767 16.7332 100.008 22.7025 93.1827C22.681 93.1951 21.9091 92.5527 21.8786 92.599C15.882 99.5256 11.4818 106.39 8.1627 114.977C4.23492 125.09 1.48712 135.61 -1.94156 145.893C-2.03325 146.032 -1.28373 146.486 -1.35063 146.668Z" fill="#2849AF"/>
<path opacity="0.1091" d="M5.4193 136.518C8.00966 128.007 10.2777 118.938 14.0017 110.804C17.1774 103.903 21.1027 98.2006 26.1262 92.4657C26.3129 92.2434 26.0674 91.6693 26.254 91.447C21.1877 97.2067 17.1474 102.66 14.1296 109.785C10.6064 118.119 8.17387 126.853 5.54717 135.499C5.45635 135.838 5.52252 136.2 5.4193 136.518Z" fill="#2849AF"/>
<path opacity="0.1091" d="M1.30159 146.053C5.02942 135.941 7.72516 125.48 11.6224 115.414C14.9539 106.847 19.3665 100.005 25.3292 93.0693C25.2556 93.1404 24.4599 92.655 24.3772 92.7599C18.3559 99.6436 14.0111 106.504 10.701 115.058C6.70635 125.353 3.8735 136.122 0.479563 146.614C0.530743 146.355 1.21653 146.303 1.30159 146.053Z" fill="#2849AF"/>
<path opacity="0.1091" d="M1.0189 136.138C3.65136 127.403 6.34408 118.375 10.1012 110.05C13.1513 103.278 16.8312 97.7466 21.7043 92.0986C21.891 91.8762 21.6331 91.2807 21.8107 91.0923C16.5477 96.9082 12.2043 102.68 9.08567 109.978C5.60451 118.086 3.62065 126.705 1.05754 135.114C0.975796 135.419 1.12212 135.821 1.0189 136.138Z" fill="#2849AF"/>
<path opacity="0.1091" d="M5.261 134.061C7.85136 125.55 10.1194 116.482 13.8434 108.347C17.0191 101.446 20.9444 95.7438 25.9803 90.0304L25.2175 89.3541C20.1511 95.1138 16.0985 100.546 13.0592 107.683C9.53594 116.017 7.10344 124.751 4.47675 133.397C4.44042 133.533 5.29733 133.925 5.261 134.061Z" fill="#2849AF"/>
<path opacity="0.1091" d="M60.3724 113.982C53.8831 119.36 47.6026 123.215 39.6131 125.996C28.7608 129.77 17.5034 132.347 6.51384 135.685C6.24036 135.757 6.14463 136.385 5.84967 136.47C16.8268 133.11 28.1057 130.521 38.9489 126.78C46.9508 124.021 53.2313 120.166 59.6834 114.723C59.9379 114.519 60.118 114.186 60.3724 113.982Z" fill="#2849AF"/>
<path opacity="0.1091" d="M62.2109 114.437C55.967 119.646 49.8335 123.359 42.139 126.055C31.1363 129.916 19.6732 132.583 8.52088 135.987C8.59771 135.971 8.95236 136.883 9.05068 136.855C20.1724 133.497 31.605 130.877 42.5614 126.985C50.5261 124.161 56.6653 120.359 63.1174 114.916C63.01 114.978 62.3274 114.342 62.2109 114.437Z" fill="#2849AF"/>
<path opacity="0.1091" d="M58.9569 121.699C44.1131 130.813 27.0405 133.884 10.5178 138.9C10.2567 138.993 10.1733 139.643 9.91226 139.736C26.4011 134.711 43.5076 131.65 58.339 122.514C58.6182 122.353 58.6776 121.86 58.9569 121.699Z" fill="#2849AF"/>
<path opacity="0.1091" d="M61.0944 115.827C54.7985 121.094 48.7484 124.902 40.9523 127.57C29.848 131.404 18.3452 134.152 7.12846 137.593C7.05162 137.608 7.35422 138.579 7.40958 138.576C18.7032 135.119 30.2613 132.368 41.4177 128.476C49.189 125.764 55.2547 122.033 61.5044 116.735C61.5904 116.686 61.03 115.864 61.0944 115.827Z" fill="#2849AF"/>
<path opacity="0.1091" d="M62.1006 118.71C56.5837 123.442 51.5755 127.02 44.7238 129.688C32.9859 134.26 20.2982 136.889 8.24864 140.525C8.56508 140.428 8.92204 140.451 9.25996 140.342C19.1126 137.316 29.1926 134.932 39.0048 131.787C48.2824 128.807 55.599 124.812 63.1309 118.66C62.907 118.817 62.3121 118.531 62.1006 118.71Z" fill="#2849AF"/>
<path opacity="0.1091" d="M58.8195 119.03C43.9757 128.144 26.8907 131.194 10.3804 136.231C10.4019 136.218 10.726 137.176 10.7813 137.173C27.2702 132.148 44.3642 129.065 59.2204 119.972C59.2634 119.948 58.798 119.042 58.8195 119.03Z" fill="#2849AF"/>
<path opacity="0.1091" d="M55.2927 118.031C40.7372 126.95 23.2012 130.26 6.84119 135.21C7.15763 135.113 7.51126 135.081 7.82771 134.984C24.4545 129.851 41.2908 126.917 56.242 117.741C55.9752 117.923 55.5596 117.848 55.2927 118.031Z" fill="#2849AF"/>
<path opacity="0.1091" d="M60.0432 116.834C53.6861 122.194 47.5187 125.898 39.6738 128.681C28.696 132.585 17.2171 135.175 6.102 138.643C6.27716 138.599 6.7111 139.351 6.89534 139.273C17.9345 136.021 29.2935 133.471 40.1268 129.564C48.0237 126.723 54.2341 122.994 60.668 117.619C60.668 117.619 60.0217 116.847 60.0432 116.834Z" fill="#2849AF"/>
<path opacity="0.1091" d="M64.3365 115.787C57.872 121.209 51.6129 125.052 43.5896 127.823C32.7373 131.597 21.4799 134.174 10.4689 137.525C10.3276 137.578 10.4823 138.491 10.341 138.544C21.3305 135.205 32.597 132.595 43.4402 128.854C51.4421 126.095 57.7103 122.219 64.1872 116.819C64.3986 116.639 64.1465 115.954 64.3365 115.787Z" fill="#2849AF"/>
<path opacity="0.1091" d="M62.5412 117.539C56.0766 122.217 49.8853 126.078 42.3196 128.699C31.4244 132.498 20.081 135.125 9.05185 138.543C8.91056 138.596 9.04377 139.522 8.94545 139.55C20.187 136.152 31.7732 133.5 42.8494 129.567C46.0535 128.519 49.1641 127.21 52.1938 125.661C56.5007 123.547 60.1952 120.669 63.2988 117.016C63.0658 117.208 62.7742 117.348 62.5412 117.539Z" fill="#2849AF"/>
<path opacity="0.1091" d="M59.8679 115.389C53.391 120.79 47.1105 124.645 39.121 127.425C28.2687 131.199 16.9989 133.755 6.02177 137.115C5.90197 137.155 6.06905 138.09 5.97074 138.118C16.9727 134.801 28.2392 132.19 39.07 128.428C47.0595 125.648 53.3524 121.814 59.8169 116.392C59.9978 116.259 59.687 115.522 59.8679 115.389Z" fill="#2849AF"/>
<path opacity="0.1091" d="M63.2222 114.255C56.6444 119.083 50.2903 123.009 42.5404 125.708C31.6881 129.483 20.4307 132.06 9.44115 135.398C9.61632 135.354 10.0288 136.118 10.2039 136.075C21.1811 132.715 32.46 130.125 43.3247 126.372C46.6304 125.351 49.8179 124.026 52.8871 122.398C57.2155 120.271 60.9654 117.39 64.1029 113.746C63.8608 113.972 63.489 114.072 63.2222 114.255Z" fill="#2849AF"/>
<path opacity="0.1091" d="M64.5894 81.0536C35.4545 103.315 6.93394 127.483 -15.3283 156.886C-31.32 178.001 -42.2503 201.434 -50.913 226.363C-50.828 226.114 -50.1298 226.083 -50.0447 225.833C-43.8087 209.549 -37.5189 193.606 -28.4502 178.606C-22.8879 169.439 -16.8719 160.612 -10.208 152.212C11.1549 125.418 37.745 103.71 63.8914 81.8288C64.1673 81.6122 64.3226 81.2363 64.5894 81.0536Z" fill="#2849AF"/>
<path opacity="0.1091" d="M66.4281 81.5098C39.4249 102.998 12.4408 125.364 -9.11132 152.524C-17.8007 163.467 -25.401 175.157 -31.7889 187.606C-38.2074 200.102 -43.279 213.195 -48.363 226.266C-48.4117 226.38 -47.5176 226.837 -47.5391 226.849C-38.301 203.363 -28.1183 180.619 -13.2098 160.158C8.92502 129.741 38.1925 105.428 67.3255 82.0224C67.2396 82.072 66.5446 81.4139 66.4281 81.5098Z" fill="#2849AF"/>
<path opacity="0.1091" d="M68.5811 84.2465C44.104 103.017 19.9544 122.801 -0.396233 146.089C-21.5581 170.304 -36.6312 198.218 -46.3555 228.8C-46.4587 229.117 -46.3587 229.489 -46.4834 229.819C-39.9854 213.641 -33.9808 197.204 -25.1401 182.107C-2.246 143.034 33.5464 113.751 67.9971 85.0704C68.2391 84.8448 68.3266 84.4507 68.5811 84.2465Z" fill="#2849AF"/>
<path opacity="0.1091" d="M65.3113 82.899C39.7431 103.301 14.3468 124.349 -6.69995 149.557C-15.8446 160.506 -23.9803 172.16 -30.7401 184.71C-38.1804 198.512 -43.8979 213.065 -49.5905 227.662C-49.6483 227.809 -48.7881 228.258 -48.8062 228.325C-40.0198 206.388 -30.6739 185.073 -17.1979 165.553C5.02499 133.453 35.4813 108.024 65.6999 83.82C65.7858 83.7704 65.2469 82.9362 65.3113 82.899Z" fill="#2849AF"/>
<path opacity="0.1091" d="M66.3455 85.8808C42.3444 104.434 18.2798 123.968 -1.66271 147.021C-11.2742 158.153 -20.0923 169.916 -27.4172 182.677C-36.1835 197.903 -42.6781 214.136 -48.2729 230.737C-48.1787 230.454 -47.5607 230.384 -47.4666 230.1C-40.6029 212.422 -33.7226 195.022 -23.8287 178.773C-19.1857 171.139 -14.108 163.712 -8.46846 156.762C7.47461 140.772 23.4301 124.802 39.3731 108.812C48.6638 101.043 57.9794 93.3166 67.3535 85.6425C67.0867 85.8252 66.5785 85.6891 66.3455 85.8808Z" fill="#2849AF"/>
<path opacity="0.1091" d="M68.4648 81.565C38.6749 105.321 7.94502 130.078 -14.2408 161.498C-28.3455 181.466 -38.2185 203.258 -46.3512 226.278C-46.4181 226.46 -45.69 226.927 -45.7569 227.109C-42.0927 217.234 -38.521 207.298 -34.0709 197.742C-24.1399 176.547 -10.8061 156.881 5.0483 139.596C24.3963 118.49 46.5227 100.361 68.8318 82.4984C68.9177 82.4488 68.3912 81.6361 68.4648 81.565Z" fill="#2849AF"/>
<path opacity="0.1091" d="M64.9167 80.5784C34.8904 103.726 4.59934 128.946 -17.4643 160.181C-31.5995 180.195 -41.5551 202.092 -49.8324 225.11C-49.7836 224.996 -48.8722 225.185 -48.8235 225.071C-45.2848 215.326 -41.7304 205.658 -37.3043 196.259C-28.1959 176.913 -16.3904 158.816 -2.17339 142.763C18.3714 119.563 42.0543 99.9626 65.8999 80.2971C65.6669 80.4888 65.1711 80.3742 64.9167 80.5784Z" fill="#2849AF"/>
<path opacity="0.1091" d="M64.2601 83.9065C35.7979 106.638 7.36064 130.157 -14.7794 159.375C-30.7925 180.502 -41.2709 203.875 -50.5129 228.595C-50.5616 228.709 -49.7013 229.157 -49.7286 229.258C-47.1008 222.301 -44.5407 215.326 -41.6046 208.505C-30.9844 183.791 -16.0193 160.749 2.18367 140.934C21.2103 120.214 42.9468 102.253 64.8882 84.7464C64.8849 84.691 64.2601 83.9065 64.2601 83.9065Z" fill="#2849AF"/>
<path opacity="0.1091" d="M68.5535 82.8594C38.6579 106.333 7.90069 131.191 -14.2455 162.531C-28.555 182.79 -38.4611 204.772 -46.706 228.143C-46.6391 227.962 -45.8236 228.035 -45.7352 227.841C-43.2841 221.272 -40.9132 214.663 -38.2125 208.179C-29.4532 187.088 -17.4927 167.126 -2.79593 149.622C5.93572 139.198 15.2899 130.447 25.3181 121.078C32.3995 113.897 39.852 107.161 47.7061 100.823C54.5415 95.1009 61.448 89.4527 68.4256 83.8781C68.6156 83.7111 68.3635 83.0264 68.5535 82.8594Z" fill="#2849AF"/>
<path opacity="0.1091" d="M66.6938 84.6488C39.5722 105.089 12.6369 127.34 -8.49802 154.231C-15.1677 162.72 -21.3836 171.548 -26.779 180.905C-35.5667 196.143 -41.9655 212.493 -48.1271 228.907C-48.1759 229.021 -47.2727 229.444 -47.2818 229.478C-40.2587 210.935 -32.8498 192.714 -22.3958 175.798C-18.7771 169.614 -14.5783 163.84 -9.7994 158.475C1.05811 143.102 13.7899 129.337 28.3406 117.186C41.0456 105.756 54.3935 95.0431 67.5035 84.0668C67.2614 84.2925 66.9607 84.4661 66.6938 84.6488Z" fill="#2849AF"/>
<path opacity="0.1091" d="M64.0634 82.4739C38.2704 102.834 12.7948 124.042 -8.32216 149.376C-17.4759 160.359 -25.6207 172.048 -32.4325 184.656C-39.8456 198.356 -45.5796 212.633 -50.9955 227.213C-51.0533 227.36 -50.2575 227.846 -50.3062 227.96C-42.7753 208.065 -34.4586 188.489 -22.6331 170.724C0.366807 136.199 32.0755 109.417 64.0032 83.5108C64.2147 83.3314 63.9039 82.5946 64.0634 82.4739Z" fill="#2849AF"/>
<path opacity="0.1091" d="M67.5043 80.745C40.4308 102.36 13.3384 124.587 -8.29626 151.852C-25.9229 174.055 -37.6899 198.915 -47.2133 225.43C-47.2406 225.531 -46.3713 225.946 -46.3985 226.047C-37.9833 202.921 -28.2128 180.903 -13.7578 160.847C8.66029 129.779 38.5879 105.171 68.2885 81.4089C68.2241 81.4461 67.5472 80.7202 67.5043 80.745Z" fill="#2849AF"/>
</svg>
