<svg width="200" height="130" viewBox="0 0 200 130" fill="none" xmlns="http://www.w3.org/2000/svg">
<path d="M18.8355 118.567C19.8239 107.177 27.5733 95.4845 40.2565 94.5867C49.9645 93.8995 59.9853 99.535 67.2656 105.107C68.4671 106.027 78.1042 113.919 71.8423 115.773C60.3919 119.165 51.8684 110.367 49.0744 100.066C44.9231 84.761 50.5564 69.6749 61.9633 58.9532C76.1138 45.6527 100.368 33.6582 119.313 43.2021C128.147 47.6524 132.459 53.6925 134.936 63.0261C136.908 70.4566 137.951 79.7563 131.683 85.8102C121.367 95.7733 109.093 85.9808 103.716 76.1133C92.821 56.1183 101.437 28.3079 121.536 17.8256C139.166 8.63111 159.517 5.50461 179.131 4.28675" stroke="white" stroke-width="3" stroke-linecap="round"/>
</svg>
