<svg width="185" height="302" viewBox="0 0 185 302" fill="none" xmlns="http://www.w3.org/2000/svg">
<path d="M81.8627 3.40841C76.0107 -0.359448 67.9975 4.28296 66.9661 11.1409C65.8504 18.5673 73.4706 23.5668 79.8699 22.8016C86.9639 21.9489 91.5178 13.801 89.097 6.86289C86.6762 -0.0752192 78.0666 -2.0794 72.6637 2.35895C71.2112 3.54688 73.2601 5.64581 74.6915 4.46516C78.7613 1.12729 85.2939 3.34282 86.6201 8.56827C87.9462 13.7937 84.3396 19.5439 79.0349 19.8937C74.888 20.1707 69.7517 17.3211 69.7447 12.4892C69.7447 7.19814 76.0598 3.18249 80.4313 5.98105C82.01 6.99407 83.4485 4.41415 81.8767 3.40841H81.8627Z" fill="#10100E"/>
<path d="M10.7493 141.545C6.5574 138.846 0.817379 142.171 0.0785145 147.084C-0.720666 152.403 4.73789 155.985 9.32187 155.436C14.4034 154.826 17.6655 148.989 15.9314 144.019C14.1974 139.049 8.03011 137.614 4.15986 140.793C3.11942 141.644 4.5871 143.147 5.61246 142.302C8.52771 139.911 13.2072 141.498 14.1572 145.241C15.1071 148.984 12.5236 153.103 8.72374 153.353C5.7532 153.552 2.07395 151.511 2.06893 148.049C2.06893 144.259 6.59259 141.383 9.72397 143.387C10.8549 144.113 11.8853 142.265 10.7594 141.545H10.7493Z" fill="#10100E"/>
<path d="M156.999 94.684C153.276 92.2864 148.177 95.2405 147.52 99.6044C146.81 104.33 151.659 107.511 155.731 107.024C160.245 106.482 163.143 101.297 161.603 96.8822C160.062 92.4673 154.584 91.192 151.146 94.0162C150.221 94.7721 151.525 96.1077 152.436 95.3564C155.026 93.2325 159.183 94.6423 160.027 97.9673C160.87 101.292 158.575 104.951 155.2 105.174C152.561 105.35 149.293 103.537 149.288 100.462C149.288 97.0955 153.307 94.5402 156.088 96.321C157.093 96.9656 158.008 95.324 157.008 94.684H156.999Z" fill="#10100E"/>
<path d="M84.3873 288.76C80.408 286.198 74.959 289.355 74.2576 294.018C73.499 299.068 78.6807 302.468 83.0323 301.947C87.8562 301.368 90.9528 295.827 89.3067 291.109C87.6605 286.391 81.806 285.028 78.132 288.046C77.1443 288.854 78.5376 290.282 79.511 289.479C82.2784 287.209 86.7206 288.716 87.6224 292.269C88.5242 295.822 86.0717 299.732 82.4645 299.97C79.6446 300.158 76.1519 298.221 76.1471 294.935C76.1471 291.337 80.4414 288.606 83.414 290.509C84.4875 291.198 85.4657 289.444 84.3969 288.76H84.3873Z" fill="#10100E"/>
<path d="M104.158 169.83C98.5405 166.213 90.8479 170.669 89.8577 177.253C88.7866 184.382 96.102 189.182 102.245 188.447C109.056 187.629 113.427 179.807 111.103 173.146C108.779 166.485 100.514 164.561 95.3274 168.822C93.933 169.963 95.9 171.978 97.2741 170.844C101.181 167.64 107.452 169.767 108.726 174.783C109.999 179.8 106.536 185.32 101.444 185.656C97.4627 185.921 92.5319 183.186 92.5252 178.547C92.5252 173.468 98.5877 169.613 102.784 172.299C104.3 173.272 105.681 170.795 104.172 169.83H104.158Z" fill="#10100E"/>
<path d="M177.174 213.651L160.771 223.121C159.557 223.821 160.468 225.41 161.687 224.707L178.09 215.237C179.308 214.534 178.392 212.947 177.174 213.651Z" fill="#10100E"/>
<path d="M165.965 211.378L174.975 226.983C175.683 228.21 177.268 227.295 176.56 226.068L167.55 210.463C166.839 209.231 165.254 210.146 165.965 211.378Z" fill="#10100E"/>
<path d="M106.238 169.303C106.238 169.303 136.46 143.679 152.945 105.242" stroke="black" stroke-width="3"/>
</svg>
