<svg width="16" height="14" viewBox="0 0 16 14" fill="none" xmlns="http://www.w3.org/2000/svg">
<path fill-rule="evenodd" clip-rule="evenodd" d="M15.194 7.74442C15.2477 8.01282 15.099 8.45722 14.8385 8.91481C14.5578 9.40937 14.3554 9.95496 14.1644 10.4953C13.977 11.0241 13.6567 11.4025 13.2026 11.7387C12.4678 12.2834 11.7101 12.7551 10.883 13.159C10.2344 13.4749 9.56121 13.5506 8.89681 13.6852C8.04498 13.856 7.16499 13.8674 6.29204 13.8718C5.90132 13.8744 5.54053 13.8067 5.17621 13.6456C4.86558 13.5075 4.51446 13.4142 4.17566 13.3922C3.33791 13.3403 2.74304 12.9311 2.2696 12.2702C1.80321 11.6199 1.33417 10.9687 0.821139 10.3554C0.570341 10.0553 0.527222 9.74464 0.542182 9.39529C0.560661 8.93769 0.623141 8.47922 0.604661 8.02514C0.577381 7.35899 0.794739 6.74036 0.968097 6.127C1.14058 5.51629 1.21009 4.8343 1.72929 4.36438C1.69585 3.67711 2.22648 3.39727 2.6656 3.04087C2.90056 2.84904 3.09063 2.60176 3.30535 2.38352C3.79727 1.88193 4.38422 1.54929 5.06797 1.38913C5.65669 1.25097 6.11956 0.783698 6.7558 0.756418C7.36563 0.730019 7.9737 0.654339 8.58354 0.6297C8.7657 0.62178 8.96985 0.673699 9.13089 0.760818C9.51105 0.967616 9.90528 1.07849 10.3382 1.10137C11.0238 1.13745 11.4681 1.70241 12.0727 1.92593C12.2469 1.98929 12.386 2.14328 12.547 2.24536C12.9008 2.468 13.361 2.6088 13.5898 2.92032C13.94 3.40079 14.1372 3.9939 14.388 4.54478C14.4504 4.68118 14.4258 4.87653 14.5156 4.98037C14.8332 5.34821 14.8948 5.81725 15.0233 6.24756C15.1412 6.64268 15.1254 7.07739 15.194 7.74442Z" fill="#FF7070"/>
</svg>
