<svg width="81" height="76" viewBox="0 0 81 76" fill="none" xmlns="http://www.w3.org/2000/svg">
<path fill-rule="evenodd" clip-rule="evenodd" d="M68.314 67.3111C67.485 68.5541 65.2014 69.6857 62.443 70.4386C59.4547 71.2553 56.581 72.5763 53.7688 73.9136C51.0094 75.2262 48.3197 75.4442 45.2757 74.985C40.3476 74.241 35.6121 73.1343 30.867 71.4973C27.151 70.2137 24.2617 67.9039 21.1856 65.8571C17.2432 63.2312 13.8058 59.8779 10.4166 56.5313C8.8988 55.0322 7.76925 53.3793 6.98678 51.3566C6.31782 49.6262 5.32457 47.9134 4.09851 46.5244C1.06887 43.0916 0.345432 39.224 1.06014 34.8574C1.76361 30.5584 2.46035 26.2459 2.83677 21.9108C3.02103 19.7867 4.05249 18.4284 5.44851 17.1422C7.27848 15.4569 9.28059 13.9358 10.9585 12.1145C13.4127 9.44996 16.6278 7.91214 19.658 6.22154C22.6676 4.54227 25.5576 2.1841 29.3714 2.3852C31.8816 -0.383528 35 0.582691 38.0684 0.904893C39.7144 1.07822 41.3971 0.859763 43.0641 0.84723C46.8855 0.818322 50.4299 1.80601 53.6858 3.8243C56.4899 5.56298 60.064 5.55104 62.625 7.90115C65.0809 10.1528 67.715 12.2088 70.1662 14.4638C70.8949 15.1337 71.4844 16.125 71.7675 17.0784C72.4387 19.3423 73.5387 21.2914 75.1151 23.044C77.6227 25.8307 77.1633 29.717 78.6405 32.9084C79.0647 33.8239 79.0118 34.9512 79.2422 35.9667C79.7482 38.1842 80.9852 40.5013 80.6651 42.5804C80.1731 45.7772 78.6523 48.8184 77.5028 51.9024C77.2166 52.6709 76.3745 53.3241 76.3203 54.0696C76.1315 56.7099 74.5663 58.7493 73.4051 60.8992C72.3419 62.8706 70.6128 64.4805 68.314 67.3111Z" fill="#FF5555"/>
</svg>
