<svg width="87" height="146" viewBox="0 0 87 146" fill="none" xmlns="http://www.w3.org/2000/svg">
<mask id="path-1-inside-1_952_3802" fill="white">
<path fill-rule="evenodd" clip-rule="evenodd" d="M86.0668 145.445L87.0004 145.785V0.214172C75.3348 38.3256 41.1741 66.6082 0 69.5804C42.4193 73.6021 76.9431 104.725 86.0668 145.445Z"/>
</mask>
<path d="M86.0668 145.445L83.1394 146.101L83.4982 147.702L85.0405 148.264L86.0668 145.445ZM87.0004 145.785L85.974 148.604L90.0004 150.069V145.785H87.0004ZM87.0004 0.214172H90.0004L84.1317 -0.663886L87.0004 0.214172ZM0 69.5804L-0.215993 66.5882L-0.283159 72.567L0 69.5804ZM85.0405 148.264L85.974 148.604L88.0267 142.966L87.0931 142.626L85.0405 148.264ZM90.0004 145.785V0.214172H84.0004V145.785H90.0004ZM84.1317 -0.663886C72.8212 36.2879 39.6959 63.7071 -0.215993 66.5882L0.215993 72.5726C42.6523 69.5093 77.8485 40.3632 89.869 1.09223L84.1317 -0.663886ZM-0.283159 72.567C40.8272 76.4647 74.2962 106.633 83.1394 146.101L88.9942 144.789C79.5901 102.818 44.0113 70.7396 0.283159 66.5938L-0.283159 72.567Z" fill="white" mask="url(#path-1-inside-1_952_3802)"/>
</svg>
