<svg width="1094" height="877" viewBox="0 0 1094 877" fill="none" xmlns="http://www.w3.org/2000/svg">
<path fill-rule="evenodd" clip-rule="evenodd" d="M1093 443.001C1093 445.76 1090.76 448 1088 448C1085.24 448 1083 445.76 1083 443.001C1083 440.24 1085.24 438 1088 438C1090.76 438 1093 440.24 1093 443.001Z" stroke="#FFE073" stroke-width="1.963" stroke-linecap="round" stroke-linejoin="round"/>
<path d="M842.737 5.16299L833.817 20.6133" stroke="#FF969C" stroke-width="2.328" stroke-linecap="round" stroke-linejoin="round"/>
<path d="M846.068 17.3847L830.488 8.39014" stroke="#FF969C" stroke-width="2.328" stroke-linecap="round" stroke-linejoin="round"/>
<path d="M214.25 872.995L221.75 860.005" stroke="#FF969C" stroke-width="2.328" stroke-linecap="round" stroke-linejoin="round"/>
<path d="M223.995 869.75L211.005 862.25" stroke="#FF969C" stroke-width="2.328" stroke-linecap="round" stroke-linejoin="round"/>
<rect x="904.5" y="846.722" width="11" height="11" rx="3" transform="rotate(45 904.5 846.722)" stroke="#77DBFF" stroke-width="2"/>
<rect x="202.5" y="37.3078" width="13" height="13" rx="3" transform="rotate(45 202.5 37.3078)" stroke="#FF778C" stroke-width="2"/>
<path fill-rule="evenodd" clip-rule="evenodd" d="M10 421.999C10 424.21 8.2113 426 6 426C3.7908 426 2 424.21 2 421.999C2 419.79 3.7908 418 6 418C8.2113 418 10 419.79 10 421.999Z" stroke="#BDEDE8" stroke-width="2.328" stroke-linecap="round" stroke-linejoin="round"/>
</svg>
