<svg width="152" height="85" viewBox="0 0 152 85" fill="none" xmlns="http://www.w3.org/2000/svg">
<path d="M1.39534 79.6308C3.58957 70.1481 11.5188 61.2184 22.3168 61.9773C30.5818 62.5581 38.355 68.5057 43.8257 74.0726C44.7286 74.9913 51.9087 82.7949 46.4089 83.61C36.352 85.1006 30.2189 76.6657 29.0947 67.6494C27.4244 54.2528 33.9755 42.2098 44.8716 34.5356C58.3885 25.0154 80.2655 17.8035 95.0939 28.1119C102.008 32.9188 104.922 38.5253 105.894 46.6887C106.668 53.1875 106.436 61.1509 100.429 65.5047C90.5436 72.67 81.3674 62.949 78.0145 53.9891C71.2205 35.8334 81.8061 13.4215 100.001 6.98766C115.96 1.34433 133.487 1.14083 150.165 2.45814" stroke="black" stroke-width="2" stroke-linecap="round"/>
</svg>
