<svg width="161" height="148" viewBox="0 0 161 148" fill="none" xmlns="http://www.w3.org/2000/svg">
<path fill-rule="evenodd" clip-rule="evenodd" d="M28.819 91.2098C22.6297 83.8232 17.4051 75.7952 12.4962 67.5771C12.9008 67.0576 13.0417 67.7297 13.3623 67.6212C13.6594 67.3562 13.0209 66.6401 13.9168 66.5226C14.74 66.4143 15.1298 66.8599 15.5162 67.356C17.5503 69.9673 18.8896 73.0439 21.1504 75.5319C21.9233 76.383 23.0182 77.084 23.3026 78.4781C23.4773 79.3362 24.7098 79.6876 25.2243 80.6024C25.5468 81.1751 26.1312 81.6696 26.4975 82.3102C27.9555 84.8618 29.9936 86.8529 32.5626 88.2846C33.0252 88.5423 33.3754 88.934 33.1954 89.3887C32.7052 90.6285 32.6841 92.0625 31.0941 92.7955C29.9396 93.3275 29.2013 93.1027 28.3719 92.4498C26.3742 90.8765 24.895 88.835 23.4079 86.8161C21.6687 84.4546 20.1188 81.9576 18.4658 79.5384C16.2427 76.2847 14.2896 72.875 12.2076 69.541C12.0098 69.2239 11.5071 68.7839 11.9493 68.4692C12.282 68.2323 12.5974 68.7713 12.7989 69.0766C14.0695 71.0019 15.2445 72.9827 16.3917 74.9871C17.491 76.908 18.8311 78.7001 20.1561 80.481C22.2984 83.3593 24.2724 86.3628 26.5714 89.124C27.2268 89.9111 27.895 90.6987 28.819 91.2098Z" fill="white"/>
<path fill-rule="evenodd" clip-rule="evenodd" d="M60.2252 112.283C60.4992 113.284 59.3374 113.417 59.0468 113.57C58.261 113.983 58.3544 115.207 57.643 115.193C56.5659 115.171 55.4407 115.644 54.3622 114.776C52.2759 113.098 50.474 111.145 48.6104 109.248C47.2595 107.873 45.879 106.522 44.8014 104.902C44.321 104.18 43.9475 103.428 43.9303 102.549C43.9122 101.648 44.1744 100.977 45.1086 100.523C45.7998 100.186 46.401 99.6262 47.1553 99.3646C47.8727 99.1152 48.5717 98.9733 49.0278 99.8335C49.3475 100.437 50.0201 100.645 50.4929 101.085C52.3925 102.851 54.6777 104.202 56.2006 106.372C57.3303 107.982 58.6839 109.397 60.0116 110.837C60.3918 111.249 60.8728 111.697 60.2252 112.283Z" fill="white"/>
<path fill-rule="evenodd" clip-rule="evenodd" d="M63.7605 58.1867C64.0782 58.5323 64.2823 58.7547 64.4795 58.9695C64.7038 58.9137 64.6552 58.7511 64.675 58.6074C64.715 58.3124 64.2509 58.0035 64.5903 57.7726C65.0009 57.4934 65.0769 58.1151 65.378 58.2106C65.6591 57.8319 65.1873 57.4937 65.3222 57.1438C66.3728 56.9673 66.9107 57.5334 67.43 58.3486C68.8411 60.5638 70.4321 62.6437 72.3869 64.4282C73.1251 65.1018 73.0659 66.3967 74.0631 66.8556C75.328 67.4378 76.1775 68.5154 76.7993 69.5817C77.8732 71.4234 79.6207 72.4767 81.0352 73.9098C81.4332 74.3131 82.1424 74.3057 82.3305 74.9537C82.3913 75.163 82.5772 75.5311 82.2884 75.5249C81.3008 75.5051 81.4128 76.3517 81.0324 76.8469C80.3262 77.7659 79.2267 77.5294 78.2935 77.2436C76.823 76.7929 75.6432 75.7992 74.641 74.6874C70.8033 70.4311 67.3142 65.9044 64.4421 60.932C64.0045 60.1746 63.3811 59.3949 63.7605 58.1867Z" fill="white"/>
<path fill-rule="evenodd" clip-rule="evenodd" d="M38.4964 64.3555C39.1371 64.9181 39.8161 65.4875 40.4658 66.0892C44.585 69.902 48.2568 74.1214 51.7689 78.4896C53.1151 80.1641 54.3302 81.9478 55.8904 83.4503C56.3376 83.8805 56.6035 84.4199 55.7598 84.8093C55.5607 84.901 55.4035 85.0973 55.247 85.2651C54.2066 86.3814 52.9714 86.4573 51.7789 85.447C50.5553 84.411 49.6632 83.0908 48.7575 81.7934C44.9271 76.3046 40.9154 70.9641 36.2141 66.1751C35.6183 65.5681 35.6559 65.4837 36.4296 65.2095C36.5136 65.1796 36.6061 65.0853 36.634 65.0008C36.9648 64.0059 37.7046 64.224 38.4964 64.3555Z" fill="white"/>
<path fill-rule="evenodd" clip-rule="evenodd" d="M79.0459 120.324C80.8227 122.138 81.8511 124.29 83.4421 125.975C85.0503 127.678 86.51 129.528 88.3879 130.974C87.0318 129.471 85.6716 127.971 84.3197 126.463C82.7689 124.733 81.4592 122.824 80.1243 120.927C79.4547 119.975 79.7725 119.371 80.5462 118.963C81.3021 118.565 82.183 118.797 82.5084 119.623C83.1713 121.305 84.3828 122.615 85.6682 123.683C87.9069 125.543 89.7124 127.886 92.2171 129.445C92.7945 129.804 93.1264 130.479 93.7737 130.869C94.502 131.308 95.1467 131.636 96.0336 131.566C96.5487 131.525 97.3375 131.217 97.5928 131.906C97.802 132.471 97.8288 133.176 97.1921 133.688C96.9492 133.884 96.8757 134.291 96.7272 134.603C95.86 136.427 94.1786 136.996 92.4312 135.908C90.0878 134.45 88.1544 132.491 86.2731 130.493C83.8078 127.874 81.4504 125.167 79.588 122.068C79.3133 121.611 78.9768 121.181 79.0459 120.324Z" fill="white"/>
<path fill-rule="evenodd" clip-rule="evenodd" d="M124.603 80.1072C123.508 82.6124 122.081 82.8907 120.371 81.1387C119.034 79.7687 118.184 78.058 117.315 76.3853C115.288 72.4808 113.395 68.5115 111.725 64.4355C111.316 63.4385 111.426 62.4917 111.537 61.5185C111.576 61.179 111.686 60.4322 111.936 60.5711C112.447 60.8563 113.165 60.5312 113.527 61.2622C115.143 64.5266 117.039 67.6374 118.851 70.7942C119.651 72.186 120.342 73.6422 121.177 75.0111C121.742 75.9367 122.367 76.9037 123.715 76.7997C123.876 76.787 124.203 76.9721 124.197 77.0426C124.097 78.1763 124.891 79.2332 124.603 80.1072Z" fill="white"/>
<path fill-rule="evenodd" clip-rule="evenodd" d="M78.9664 29.8003C78.0795 27.8839 76.6684 26.3182 75.7827 24.4237C75.522 23.8657 75.3494 23.2578 75.0293 22.7385C74.5001 21.8809 75.3143 21.5891 75.705 21.3439C76.0838 21.1056 76.6909 21.1806 77.042 21.7653C78.4759 24.1534 80.2328 26.3364 82.1131 28.3457C83.4537 29.7778 84.3844 31.5925 86.1981 32.6751C86.8846 33.0853 87.508 33.9471 88.2026 34.5768C89.1314 35.4186 87.9008 35.7838 87.6071 36.3506C87.5608 36.44 87.2544 36.4039 87.2193 36.4889C87.0681 36.8507 87.8917 37.4602 87.0734 37.6054C85.9629 37.8023 84.8844 38.0591 83.7838 37.1054C82.037 35.591 80.6362 33.8222 79.3094 31.976C77.5105 29.473 75.5772 27.0452 74.469 24.114C74.3874 23.898 74.286 23.6882 74.2215 23.4671C74.1549 23.239 74.1337 22.962 74.3832 22.8569C74.7007 22.7233 74.912 22.9591 74.9891 23.2302C75.6603 25.5992 77.3455 27.3663 78.6203 29.376C78.7173 29.5286 78.8504 29.6593 78.9664 29.8003Z" fill="white"/>
<path fill-rule="evenodd" clip-rule="evenodd" d="M96.1699 88.518C95.8958 87.7582 95.7065 86.9528 95.3258 86.2512C94.8818 85.4325 94.9889 84.7823 95.6044 84.1683C95.9709 83.8035 96.3924 84.0982 96.6687 84.2688C97.3796 84.7083 97.769 85.4113 97.7205 86.2619C97.7087 86.4653 97.4612 86.6715 97.7784 86.8089C99.329 87.4781 99.5632 89.1948 100.55 90.3178C100.853 90.6623 101.069 91.1531 101.357 91.5577C102.197 92.739 103.191 93.8382 102.994 95.4825C102.949 95.8655 103.018 96.5346 103.613 96.5753C105.427 96.6993 105.997 98.2555 106.891 99.386C108.358 101.244 109.55 103.309 111.097 105.113C111.271 105.316 111.557 105.519 111.346 105.794C111.083 106.138 110.963 105.479 110.645 105.659C110.692 106.25 111.199 106.972 110.094 107.287C109.699 107.4 110.038 107.964 110.272 108.27C110.45 108.503 110.608 108.743 110.308 108.963C109.944 109.228 109.859 108.826 109.708 108.649C106.959 105.415 104.63 101.885 102.383 98.295C100.405 95.1337 98.426 91.9726 96.4483 88.8121C96.3559 88.7149 96.2631 88.6165 96.1699 88.518Z" fill="white"/>
<path fill-rule="evenodd" clip-rule="evenodd" d="M91.9101 64.3843C90.5894 62.3992 89.2749 60.4061 88.0983 58.3243C88.5734 60.3221 90.4061 63.278 91.9101 64.3843ZM95.7084 63.2728C95.6557 63.689 94.7812 62.1893 95.132 63.5385C95.1414 63.5746 95.1508 63.6418 95.1361 63.6498C94.3328 64.0893 94.1079 64.686 94.4734 65.5666C94.5693 65.7977 92.6468 66.4317 92.2261 66.2805C91.5911 66.0518 91.0741 65.6415 90.6515 65.1347C88.2641 62.2738 86.6644 59.0134 85.7958 55.395C85.37 53.6224 86.0886 52.2692 87.4455 51.1967C88.1744 50.6209 88.6566 50.8346 88.9877 51.7208C89.3358 52.6533 89.736 53.5704 90.1784 54.4622C90.6888 55.4912 91.326 56.4441 91.7677 57.5244C92.3472 58.9433 93.6273 59.9016 94.5118 61.1346C94.9997 61.8159 95.5179 62.4543 95.7084 63.2728Z" fill="white"/>
<path fill-rule="evenodd" clip-rule="evenodd" d="M111.065 32.9621C111.53 33.3499 111.81 33.5833 112.236 33.9391C112.155 33.6208 112.163 33.4513 112.081 33.364C111.424 32.6557 111.917 32.0942 112.404 31.6942C112.924 31.2659 113.621 31.3989 114.073 31.857C114.81 32.6045 115.514 33.4044 116.111 34.2663C116.935 35.4557 117.68 36.7203 118.705 37.7318C119.775 38.7886 120.71 40.0583 122.357 40.4051C123.135 40.5685 123.295 41.3469 122.72 41.872C122.407 42.1569 122.286 42.4833 122.151 42.8412C121.298 45.1086 119.226 45.5705 117.482 43.7875C115.024 41.2741 113.352 38.2153 111.784 35.1054C111.484 34.511 110.977 33.9707 111.065 32.9621Z" fill="white"/>
<path fill-rule="evenodd" clip-rule="evenodd" d="M122.544 134.132C123.335 134.492 124.015 133.987 124.692 134.171C124.399 135.212 123.596 135.6 122.405 135.338C121.111 135.054 120.175 134.203 119.476 133.21C117.991 131.096 116.299 129.136 115.302 126.653C114.912 125.681 114.009 124.734 113.468 123.718C111.923 120.823 110.479 117.874 109.007 114.941C108.711 114.352 108.52 113.723 108.448 113.061C108.411 112.722 108.492 112.44 108.805 112.275C109.141 112.099 109.407 112.25 109.61 112.518C109.912 112.918 110.247 113.303 110.483 113.741C112.661 117.786 114.756 121.879 117.021 125.874C117.903 127.431 119.076 128.856 120.419 130.071C121.04 130.633 121.952 130.717 122.753 130.966C122.971 131.034 123.381 130.867 123.377 131.303C123.37 132.142 123.409 132.864 124.602 132.642C124.874 132.591 124.844 132.962 124.752 133.188C124.587 133.593 124.381 134.051 123.862 133.882C123.387 133.726 123.042 133.884 122.544 134.132Z" fill="white"/>
<path fill-rule="evenodd" clip-rule="evenodd" d="M75.5407 93.5265C75.2781 93.6853 75.1909 93.8006 75.3913 94.007C76.1214 94.7588 76.9156 95.466 77.534 96.302C77.9076 96.8074 78.9637 97.1927 78.1832 98.1671C78.0593 98.3221 78.2962 98.3824 78.4562 98.3572C78.83 98.2982 78.9945 98.5071 79.1531 98.8161C79.4231 99.3428 79.8477 99.6402 80.4621 99.8009C81.5969 100.097 81.7936 101.061 80.935 101.844C80.8315 101.938 80.5642 102.068 80.633 102.111C82.257 103.112 79.5526 103.052 80.2252 103.8C79.8613 103.983 79.4985 103.986 79.1086 103.856C78.2151 103.557 77.64 102.888 77.0987 102.178C75.048 99.4874 73.8283 96.3802 72.6905 93.2426C72.416 92.4869 72.7392 91.6684 72.8366 90.8858C72.8937 90.4265 73.3354 90.333 73.7249 90.3189C74.2587 90.2998 74.2036 90.5525 73.9286 90.8628C74.7007 91.2555 75.0243 92.0126 75.4414 92.6998C75.625 93.0024 75.8928 93.2632 75.5407 93.5265Z" fill="white"/>
<path fill-rule="evenodd" clip-rule="evenodd" d="M45.7604 42.9562C45.6576 43.0155 45.5549 43.0744 45.4523 43.1333C46.0294 43.9811 46.6013 44.8322 47.1911 45.671C47.26 45.7688 47.3805 45.9539 47.5565 45.8289C47.6788 45.7419 47.787 45.5485 47.6553 45.4434C46.8154 44.7753 46.5984 43.6203 45.7604 42.9562ZM53.8056 50.8527C54.1193 51.3581 54.9823 51.47 54.6189 52.4748C54.3565 53.2014 54.0703 52.9253 53.7063 52.7675C53.4967 53.3992 54.3248 53.4698 54.234 54.0705C53.1604 53.8676 52.3816 53.1006 51.4236 52.7362C51.3987 52.7175 51.3701 52.7 51.3385 52.683C51.0186 51.6462 50.1244 51.0506 49.4732 50.2699C49.2038 49.9477 48.8194 49.7087 48.5996 49.3611C46.831 46.5639 44.7241 43.9976 43.0908 41.1028C41.8107 38.834 40.3356 36.6765 39.168 34.3401C38.8997 33.8029 38.5729 33.2891 38.4604 32.3378C39.2663 33.3844 39.8792 34.1808 40.4922 34.9769C40.4649 34.952 40.4364 34.928 40.4061 34.9047C40.8255 36.4827 42.0528 37.5848 42.6872 39.0558C43.1274 38.8386 42.8689 38.6037 42.9063 38.4236C42.971 38.1157 43.2241 38.0182 43.5148 38.0146C43.6573 38.0125 43.8797 37.9815 43.8459 38.1928C43.696 39.1303 44.4836 39.2322 45.0277 39.4979C45.6292 39.7918 45.8212 40.2717 45.8869 40.8703C45.9879 41.7924 46.3955 42.4918 47.3237 42.8009C47.4591 43.0139 47.595 43.2266 47.7303 43.4395C47.7753 44.419 49.2017 46.412 50.0522 46.6842C49.8758 47.1552 50.6697 47.7166 49.9185 48.1356C49.3216 48.0971 49.0314 48.0963 49.4643 48.8582C50.0105 49.8207 51.158 50.2029 51.5634 51.2536C51.6232 51.4096 51.785 51.471 51.9419 51.361C52.146 51.2181 52.1371 50.9993 51.9587 50.8865C51.1881 50.3975 50.8937 49.4846 50.1939 48.9427C49.8988 48.7138 49.6472 48.4981 49.9013 48.0929C51.5483 48.4954 52.0823 50.1302 53.2148 51.1033C53.3649 51.2321 52.6154 51.6793 53.3012 51.697C53.6357 51.7059 53.9653 51.3343 53.8056 50.8527Z" fill="white"/>
<path fill-rule="evenodd" clip-rule="evenodd" d="M135.085 57.4663C135.587 57.9415 136.197 58.0078 136.797 58.0418C137.112 58.0596 137.351 58.0734 137.322 58.4481C137.296 58.79 137.008 58.882 136.735 58.8888C136.041 58.9066 135.425 58.5599 134.944 58.1608C133.106 56.6381 131.776 54.7036 130.724 52.5727C130.412 51.9404 130.18 51.2511 129.774 50.6858C129.037 49.6585 129.193 48.5231 129.298 47.4216C129.346 46.907 129.988 47.0834 130.354 47.1322C130.563 47.1605 130.864 47.4545 130.901 47.6676C131.253 49.7269 133.095 50.8343 134.027 52.5327C134.334 53.0924 135.345 53.3361 135.758 54.0663C136.085 54.6432 136.606 55.1043 136.542 55.885C136.505 56.3353 137.139 56.2577 137.362 56.5655C137.477 56.7235 137.638 56.8599 137.579 57.0644C137.52 57.2682 137.25 57.4398 137.141 57.3514C136.414 56.7573 135.777 57.6443 135.085 57.4663Z" fill="white"/>
<path fill-rule="evenodd" clip-rule="evenodd" d="M96.1719 88.5175C96.2651 88.616 96.3579 88.7143 96.4502 88.8116C97.0794 90.7593 98.0821 92.5459 99.0924 94.2958C100.482 96.7032 102.05 99.0154 103.659 101.285C105.021 103.206 106.062 105.354 107.78 107.032C108.477 107.714 109.01 108.573 109.18 109.742C107.828 109.413 107.37 108.261 106.684 107.414C104.876 105.182 103.403 102.714 101.911 100.269C99.2195 95.8574 96.3247 91.5537 94.442 86.6952C94.3344 86.4173 94.1376 86.147 94.4838 85.7414C95.3686 86.4889 95.4785 87.6971 96.1719 88.5175Z" fill="white"/>
<path fill-rule="evenodd" clip-rule="evenodd" d="M99.2637 40.7972C99.3884 41.3485 100.43 41.2156 100.017 41.7973C99.6649 42.2931 99.0849 41.8066 98.722 41.486C96.4759 39.4983 95.2689 36.98 95.0565 34.001C95.0243 33.5497 94.963 32.8885 95.6547 32.7848C96.2682 32.6922 96.3583 33.287 96.5442 33.6848C97.3249 35.3531 98.1572 36.9755 99.7815 38.0134C100.19 38.2738 100.193 38.6983 100.184 39.1251C100.181 39.2741 100.21 39.4382 100.273 39.5723C100.772 40.6323 100.624 41.2046 99.2637 40.7972Z" fill="white"/>
<path fill-rule="evenodd" clip-rule="evenodd" d="M42.8118 42.2874C44.0637 42.9708 44.2988 44.3973 45.0499 45.4437C45.6062 46.2188 46.2995 46.9551 46.5845 47.9312C46.6553 48.1741 46.9514 48.3878 46.658 48.6102C46.4242 48.7871 46.1364 48.7187 45.9541 48.4514C44.8582 46.843 43.7325 45.2527 42.8445 43.5141C42.6348 43.1036 42.8279 42.6839 42.8508 42.2682L42.8118 42.2874Z" fill="white"/>
<path fill-rule="evenodd" clip-rule="evenodd" d="M42.851 42.2683C42.5046 42.276 42.1691 42.3141 41.9452 41.929C40.6747 39.7461 39.3699 37.5822 38.3668 35.2561C38.2891 35.0761 38.0078 34.8731 38.323 34.6796C38.523 34.5571 38.6949 34.6838 38.7951 34.8708C40.0846 37.2792 41.4277 39.6561 42.885 41.9679C42.9258 42.033 42.8391 42.1791 42.8119 42.2876L42.851 42.2683Z" fill="white"/>
<path fill-rule="evenodd" clip-rule="evenodd" d="M51.3379 52.682C51.3697 52.6985 51.3985 52.7166 51.4235 52.7349C51.8171 53.1292 52.0235 53.7063 52.6064 53.9179C52.8141 53.9933 53.1132 54.0913 52.9527 54.3878C52.8093 54.6527 52.5697 54.5045 52.3623 54.3856C50.5192 53.3278 48.9941 51.8824 47.5291 50.3734C47.2778 50.1143 47.1094 49.6024 47.4128 49.3337C47.7721 49.0155 48.0354 49.4883 48.2051 49.7301C49.0493 50.933 50.2002 51.7976 51.3379 52.682Z" fill="white"/>
<path fill-rule="evenodd" clip-rule="evenodd" d="M40.405 34.9039C40.4349 34.927 40.4634 34.9511 40.4905 34.9763C40.2292 34.3289 40.4337 33.489 39.6248 33.0474C39.4913 32.9745 39.1367 32.3998 39.6056 32.1784C40.0513 31.9678 40.2082 32.4677 40.3089 32.7454C40.7645 34.0008 41.4092 35.1203 42.5111 36.0796C41.9636 36.2478 41.4814 36.6449 41.2921 35.755C41.1903 35.2768 40.6673 35.223 40.405 34.9039Z" fill="white"/>
<path fill-rule="evenodd" clip-rule="evenodd" d="M47.7326 43.4383C47.5973 43.2254 47.4615 43.0123 47.326 42.7997C47.2711 42.5906 47.2166 42.3818 47.1615 42.1731C47.2233 42.1345 47.2848 42.0967 47.3464 42.0585C47.8299 42.6943 48.3129 43.3303 48.7964 43.9661C48.7382 44.0318 48.6795 44.0973 48.6209 44.1628C48.3252 43.9215 48.0287 43.6798 47.7326 43.4383Z" fill="white"/>
<path fill-rule="evenodd" clip-rule="evenodd" d="M53.4348 50.1985C52.6106 50.0882 52.356 49.342 51.9121 48.8158C51.4768 48.2998 51.0834 47.7482 50.6713 47.2117C50.9935 47.2255 51.2271 47.3567 51.4304 47.628C52.082 48.4975 52.7643 49.3436 53.4348 50.1985Z" fill="white"/>
</svg>
