<svg width="111" height="164" viewBox="0 0 111 164" fill="none" xmlns="http://www.w3.org/2000/svg">
<g opacity="0.85">
<g opacity="0.9">
<path d="M45.8299 9.15466C44.9449 8.53062 44.1807 7.97907 43.5918 7.37812C41.6522 6.93896 39.6478 6.69427 37.6071 6.57404C36.6931 6.55662 35.7581 6.55476 34.8287 6.64622C38.8697 6.64045 42.4647 7.81192 45.8299 9.15466Z" fill="#DFE4F3"/>
<path d="M79.4824 26.4317C78.6546 25.6676 77.52 24.8234 76.1679 23.9301C74.7689 23.1043 73.1498 22.2475 71.4048 21.3546C67.946 19.4805 63.7626 17.8377 59.7881 16.0392C66.689 19.5074 73.3148 22.9369 79.4824 26.4317Z" fill="#DFE4F3"/>
<path d="M107.762 34.1629C107.217 33.5126 106.71 32.8676 106.223 32.2069C102.772 29.6122 99.0656 27.4998 95.4458 25.307C96.1264 25.9208 96.7913 26.5139 97.4744 27.1096C99.2071 28.2229 101.008 29.2532 102.709 30.4547L107.762 34.1629Z" fill="#DFE4F3"/>
<path d="M46.8873 6.95301C56.3961 9.56632 66.1017 13.7063 75.2178 18.4482C84.3833 23.1045 92.8767 28.0179 100.928 31.6848C99.0819 29.6488 96.9525 27.4989 94.6635 25.4191C86.9104 20.9613 78.7989 17.3229 70.6206 14.0268C68.1343 13.0852 65.6353 12.2343 63.1464 11.3108L59.4118 9.93464L55.6594 8.68553L49.1853 6.57273C46.9644 5.87198 44.6207 5.24649 42.2123 4.81548C42.2759 5.69421 42.7715 6.55963 43.5733 7.37557C47.2086 8.12706 50.5524 9.35576 53.9349 10.4419C51.6912 9.23821 49.5153 7.95156 46.8873 6.95301Z" fill="#DFE4F3"/>
<path d="M93.0744 24.0852L87.5639 21.2381L81.955 18.6917L79.1585 17.4288L76.3048 16.306L70.621 14.0267C78.7967 17.341 86.8924 20.9586 94.6639 25.419C94.1279 24.9735 93.6103 24.5307 93.0744 24.0852Z" fill="#DFE4F3"/>
<path d="M70.6699 20.1966C67.6258 18.5659 64.7865 17.075 62.0904 15.3636C60.728 14.5429 59.4152 13.6367 58.0686 12.8367C56.7012 12.0523 55.318 11.2472 53.9348 10.4421C50.5522 9.35603 47.2085 8.12733 43.5732 7.37584C44.1621 7.97678 44.9446 8.53091 45.8112 9.15238C50.0292 10.9481 54.0337 13.0654 58.1626 14.8301C60.1908 15.8369 62.2292 16.7711 64.312 17.656C65.3534 18.0985 66.4182 18.5072 67.4831 18.916C68.527 19.3403 69.5867 19.7853 70.6699 20.1966Z" fill="#DFE4F3"/>
<path d="M59.7881 16.0392C55.8259 14.0204 51.6837 12.2168 47.533 10.2085C50.7279 12.2305 55.2078 14.026 59.7881 16.0392Z" fill="#DFE4F3"/>
<path d="M55.6592 8.68545L59.4116 9.93456L63.1462 11.3107C65.6351 12.2342 68.1341 13.0851 70.6204 14.0267C68.1576 13.0514 65.6402 12.1979 63.1696 11.277C61.9239 10.8243 60.6808 10.3535 59.4325 9.91899L55.6592 8.68545Z" fill="#DFE4F3"/>
<path d="M117.585 43.0569C116.793 42.0388 116.019 41.0232 115.211 39.9843C113.567 38.1062 111.645 36.6146 109.837 34.9725C109.351 34.5711 108.888 34.136 108.381 33.7501L106.223 32.2068C106.71 32.8675 107.217 33.5125 107.762 34.1628C109.477 35.5327 111.125 36.9857 112.814 38.4075C114.459 39.8786 115.99 41.5002 117.585 43.0569Z" fill="#DFE4F3"/>
<path d="M42.185 4.47858C42.1697 4.58747 42.1911 4.70151 42.1941 4.81298C44.6 5.26214 46.9437 5.88763 49.1671 6.57024L55.6413 8.68303L49.1641 6.45877C48.0758 6.08375 46.8882 5.75028 45.7423 5.38567C44.5888 5.07551 43.4195 4.74462 42.185 4.47858Z" fill="#DFE4F3"/>
<path d="M123.06 58.4092C127.92 67.3461 130.049 77.6202 129.519 87.7797C130.332 83.1933 130.68 78.4492 130.254 73.6331C129.788 68.83 128.693 63.9755 126.771 59.2824C124.333 53.6099 121.185 48.1893 117.568 43.0543C115.972 41.4976 114.46 39.8786 112.797 38.4049C111.107 36.9831 109.441 35.5275 107.744 34.1602C109.118 35.9633 110.621 37.7845 112.22 39.5823C113.728 41.4968 115.311 43.4034 116.788 45.4061L118.837 48.5256C119.175 49.0541 119.514 49.5645 119.815 50.088L120.63 51.7386C121.169 52.8321 121.668 53.9386 122.115 55.0192C122.514 56.1673 122.822 57.3025 123.06 58.4092Z" fill="#DFE4F3"/>
<path d="M97.4726 27.1279C96.525 26.5506 95.6217 25.9239 94.6665 25.401C96.9554 27.4808 99.0848 29.6308 100.931 31.6668C92.8797 27.9999 84.3837 23.1046 75.2207 18.4302C66.1047 13.6883 56.399 9.54831 46.8902 6.935C49.5182 7.93355 51.715 9.20463 53.9379 10.4238C66.5218 14.5797 78.7245 19.7184 89.9848 26.3716C95.667 29.5946 100.92 33.4788 105.935 37.5888C110.837 41.8311 115.3 46.5481 119.051 51.7945C113.36 42.5187 105.734 34.359 97.4726 27.1279Z" fill="#DFE4F3"/>
<path d="M107.763 34.1631L102.705 30.4912C101.003 29.2898 99.2026 28.2595 97.4699 27.1461C105.731 34.3773 113.375 42.5395 119.044 51.8491L121.19 55.0748C121.88 56.1526 122.445 57.3239 123.075 58.4303C122.82 57.321 122.512 56.1858 122.146 55.061C121.699 53.9804 121.2 52.8739 120.662 51.7804L119.846 50.1298C119.548 49.5882 119.19 49.0752 118.869 48.5674L116.82 45.4479C115.34 43.4634 113.759 41.5386 112.251 39.6241C110.62 37.7849 109.139 35.9481 107.763 34.1631Z" fill="#DFE4F3"/>
<path d="M97.4725 27.128C96.7919 26.5141 96.1271 25.921 95.4439 25.3253L93.0718 24.1037C93.6077 24.5491 94.1253 24.992 94.6455 25.4167C95.6217 25.924 96.5249 26.5506 97.4725 27.128Z" fill="#DFE4F3"/>
<path d="M33.1893 6.73038L34.8285 6.64613C35.7553 6.57282 36.6719 6.5721 37.6069 6.57396C39.6475 6.69419 41.6519 6.93888 43.5916 7.37804C42.7739 6.54138 42.2941 5.69667 42.2305 4.81794C39.6071 4.3197 36.8012 4.0549 33.8062 4.33722C30.8663 4.62728 27.3529 5.66954 24.7596 8.28459C22.1688 10.8815 20.9872 14.2316 20.5556 17.169C20.119 20.1427 20.2342 22.9163 20.5324 25.5861C20.9015 26.952 21.336 28.253 21.8799 29.4398C21.492 27.2755 21.2611 25.0593 21.2472 22.7626C21.2307 20.484 21.4156 18.1042 22.1451 15.7083C22.8511 13.3462 24.188 10.8877 26.29 9.23994C28.3788 7.55332 30.9061 6.87216 33.1893 6.73038Z" fill="#DFE4F3"/>
<path d="M95.4436 25.3252L93.8124 24.0226C92.9463 23.5307 92.0985 23.0415 91.214 22.547L93.0924 24.0879L95.4436 25.3252Z" fill="#DFE4F3"/>
<path d="M108.382 33.7505C107.636 33.2015 106.89 32.6525 106.142 32.1217C106.158 32.1424 106.189 32.1839 106.221 32.2253L108.382 33.7505Z" fill="#DFE4F3"/>
<path d="M106.223 32.207C106.191 32.1655 106.178 32.1266 106.144 32.1033C104.158 30.6584 102.199 29.1616 100.094 27.9034C98.0122 26.6115 95.9902 25.1614 93.7938 24.02L95.4251 25.3226C99.0658 27.4998 102.772 29.6122 106.223 32.207Z" fill="#DFE4F3"/>
<path d="M42.1844 4.4784C43.4215 4.72628 44.5699 5.07274 45.7626 5.36991C46.8901 5.73195 48.0961 6.06799 49.1844 6.44302L55.6616 8.66727L59.4374 9.88267C60.6857 10.3172 61.9288 10.788 63.1745 11.2407C65.6634 12.1642 68.1599 13.0332 70.6253 13.9904L76.3091 16.2697L79.1628 17.3925L81.9593 18.6553L87.5682 21.2017L93.0787 24.0489L91.2004 22.508C88.544 20.9132 85.7627 19.5415 82.9367 18.0895C80.1575 16.57 77.2376 15.2528 74.2781 13.819C70.8441 12.3001 67.5034 11.1828 64.2962 10.0473C62.6913 9.48868 61.1282 8.89887 59.5523 8.3998C57.9739 7.91888 56.4138 7.44053 54.8537 6.96219C51.7336 6.00551 48.7571 4.95798 45.1947 4.08719C41.6822 3.26042 37.9002 2.48831 33.1667 2.89643C32.2006 2.98273 31.0679 3.32321 29.9795 3.6144C28.8366 4.02747 27.6494 4.48983 26.4763 5.25029C24.1063 6.67531 22.0413 9.12404 20.9903 11.6783C19.9 14.2455 19.5771 16.8095 19.5884 19.1244C19.639 21.4263 19.9719 23.5828 20.503 25.5265C20.2023 22.8749 20.0688 20.0987 20.5263 17.1094C20.9552 14.1902 22.1394 10.8219 24.7302 8.225C27.3236 5.60995 30.8369 4.56768 33.7769 4.27763C36.7902 3.99788 39.5778 4.2601 42.2012 4.75835C42.2088 4.7039 42.1666 4.60543 42.1844 4.4784Z" fill="#DFE4F3"/>
<path d="M40.3623 60.0374C36.3881 53.4458 32.5602 46.7452 29.3254 39.6838C27.7276 36.1466 26.2735 32.5185 25.1801 28.7191C24.1209 24.943 23.3176 20.9438 23.8308 16.7595C22.6491 20.7758 22.7147 24.9675 23.0651 28.9956C23.4313 33.0444 24.1613 37.0334 25.0875 40.9573C25.7699 42.7558 26.5151 44.5076 27.302 46.2283C28.4508 47.3705 29.6072 48.4584 29.978 49.5469C30.6503 51.4179 31.3169 53.1957 31.9913 54.919C36.2151 61.7308 41.2767 67.772 47.0992 72.7912C44.7 68.5677 42.4527 64.3285 40.3623 60.0374Z" fill="#DFE4F3"/>
<path d="M24.0684 38.0939C24.4558 40.1285 24.9064 42.246 25.5429 44.3712C25.7192 44.581 25.9138 44.7934 26.1084 45.0059C25.7367 43.6582 25.4016 42.3156 25.0874 40.9575C24.733 40.0194 24.3785 39.0813 24.0684 38.0939Z" fill="#DFE4F3"/>
<path d="M50.8026 79.1784C49.5297 77.0564 48.2934 74.9394 47.0781 72.807C41.2556 67.7877 36.2149 61.731 31.9701 54.9348C34.3232 60.8174 36.7787 66.1037 40.4549 72.1537C42.9205 75.2392 46.5881 74.8293 48.1579 77.8999C50.9752 83.2741 54.0889 89.4672 57.9135 95.2605C61.7197 101.051 66.255 106.445 71.5774 110.098C74.7421 113.134 78.2241 116.307 82.0068 119.337C85.8547 122.302 89.8392 125.36 94.793 127.111C96.0203 127.561 97.451 127.762 98.5776 127.865C99.7958 127.981 100.998 128.076 102.198 128.059C104.61 128.065 107.005 127.662 109.06 126.747C111.13 125.854 112.772 124.419 113.895 122.819C115.018 121.219 115.676 119.461 116.131 117.822C114.477 121.605 111.671 124.672 107.838 125.724C105.949 126.255 103.933 126.36 101.929 126.245C99.9485 126.096 97.8263 125.89 96.038 125.306C92.3299 124.008 89.0709 121.643 86.0162 119.289C82.9666 116.899 80.1652 114.34 77.4789 111.76C66.8826 101.314 58.2801 90.3893 50.8026 79.1784Z" fill="#DFE4F3"/>
<path d="M26.1078 45.006C26.5021 45.3945 26.8913 45.8193 27.3014 46.2286C26.4936 44.5235 25.7693 42.7562 25.0869 40.9577C25.401 42.3158 25.7335 43.6764 26.1078 45.006Z" fill="#DFE4F3"/>
<path d="M32.5151 7.00577C33.0618 6.84202 33.5932 6.78717 34.1272 6.71416C33.8078 6.72478 33.5092 6.71983 33.1897 6.73046C32.7133 6.79304 32.2134 6.88935 31.7319 6.98824C31.9913 7.00618 32.2532 7.00597 32.5151 7.00577Z" fill="#DFE4F3"/>
<path d="M51.7711 13.7282C48.3372 12.2093 45.2488 10.6278 42.1776 9.45594C39.0697 8.27891 36.0433 7.18735 32.5149 7.00607C30.2775 7.4874 28.0008 8.64794 26.4495 10.5026C24.8825 12.3366 24.1132 14.6158 23.8306 16.7598C24.1921 15.3857 24.8628 14.0734 25.6283 12.8856C26.483 11.7288 27.5032 10.7247 28.7185 10.0628C31.1517 8.72064 33.8985 8.60701 36.4792 8.87717C41.7246 9.48482 46.609 11.5963 51.7711 13.7282Z" fill="#DFE4F3"/>
<path d="M31.7319 6.98853C32.2134 6.88964 32.7133 6.79333 33.1897 6.73074C30.9065 6.87252 28.3817 7.53554 26.2746 9.21958C24.1517 10.8829 22.8357 13.3258 22.1296 15.688C21.4001 18.0838 21.2178 20.4455 21.2317 22.7422C21.2456 25.039 21.4766 27.2552 21.8645 29.4194C21.9913 29.7149 22.1181 30.0103 22.2475 30.2875C23.1098 32.537 23.4996 35.2196 24.0683 38.094C24.381 39.0633 24.7329 40.0196 25.0874 40.9577C24.1638 37.0156 23.4312 33.0448 23.065 28.9959C22.7146 24.9678 22.6674 20.7788 23.8307 16.7598C24.1159 14.5976 24.8851 12.3184 26.4497 10.5026C28.0009 8.64792 30.2751 7.50554 32.515 7.00606C32.2531 7.00626 31.9912 7.00647 31.7319 6.98853Z" fill="#DFE4F3"/>
<path d="M47.5334 10.2084C46.9271 9.86415 46.3417 9.50428 45.8114 9.15215C42.4646 7.81199 38.8538 6.61979 34.8128 6.62556L34.1086 6.71166C36.594 6.72785 38.9291 7.14855 41.1342 7.82859C43.3836 8.45933 45.4873 9.32868 47.5334 10.2084Z" fill="#DFE4F3"/>
<path d="M34.8291 6.64617L33.1899 6.73041C33.5094 6.71979 33.808 6.72474 34.1274 6.71412L34.8291 6.64617Z" fill="#DFE4F3"/>
<path d="M123.06 58.4096C123.172 58.9435 123.299 59.4982 123.375 60.0269L121.342 55.855L119.028 51.8284C115.276 46.582 110.814 41.865 105.911 37.6227C100.893 33.5309 95.6409 29.6466 89.9613 26.4055C78.7009 19.7523 66.5166 14.6162 53.9143 10.4577C55.2975 11.2628 56.6833 12.0498 58.0482 12.8523C59.413 13.6549 60.7259 14.5611 62.0699 15.3792C64.766 17.0906 67.6053 18.5815 70.6494 20.2122C69.5637 19.8191 68.5065 19.3559 67.46 18.9497C66.3927 18.5591 65.3304 18.1322 64.289 17.6898C62.2037 16.823 60.1678 15.8707 58.1395 14.8639C54.0107 13.0992 50.0245 10.9844 45.7882 9.18614C46.3185 9.53827 46.8856 9.89555 47.5102 10.2424C51.6635 12.2326 55.803 14.0543 59.7652 16.0732C63.7397 17.8717 67.9048 19.5119 71.3819 21.3886C73.1269 22.2815 74.746 23.1383 76.145 23.9641C77.4971 24.8574 78.6317 25.7016 79.4595 26.4656C73.2893 22.9891 66.6636 19.5595 59.7836 16.0758C55.2033 14.0626 50.7234 12.2671 47.5285 10.245C45.4824 9.36524 43.3788 8.49589 41.1477 7.86773C38.9426 7.18769 36.6075 6.76699 34.1221 6.7508C33.5881 6.8238 33.0567 6.87866 32.5099 7.04241C36.02 7.22111 39.0647 8.31524 42.1726 9.49228C45.2647 10.6486 48.3348 12.2275 51.7661 13.7646C46.604 11.6326 41.7379 9.52373 36.4716 8.93165C33.891 8.66149 31.1441 8.77512 28.711 10.1172C27.4957 10.7792 26.4754 11.7832 25.6208 12.9401C24.8553 14.1279 24.1846 15.4401 23.8231 16.8143C23.3073 21.0168 24.1132 24.9979 25.1724 28.774C26.2657 32.5734 27.7015 36.1989 29.3176 39.7386C32.5524 46.8 36.3804 53.5006 40.3546 60.0922C37.734 54.7827 35.3488 49.3953 33.2698 43.9583C31.23 38.5084 29.389 32.9753 28.4147 27.3975C27.9433 24.6294 27.6447 21.8299 27.9075 19.2945C28.0127 18.0138 28.2911 16.8315 28.68 15.7943C29.1188 14.8011 29.6815 13.9919 30.347 13.3822C31.0309 12.7751 31.946 12.3855 32.9794 12.0866C34.0601 11.8498 35.2433 11.683 36.5634 11.739C39.1564 11.7888 41.979 12.3336 44.7919 13.0805C45.9643 13.5229 47.155 13.9678 48.3431 14.4309C49.5888 14.8836 50.8579 15.3025 52.1296 15.7033C54.6914 16.5075 57.3861 17.1638 59.9718 18.0639C63.6575 18.989 67.152 20.609 70.4305 22.5688C72.0944 23.5059 73.74 24.4404 75.435 25.2893C77.0832 26.2057 78.7441 27.0313 80.5248 27.6702C84.0362 28.904 87.3085 30.6408 90.6905 32.2635C92.3254 33.141 93.9266 34.1248 95.5513 35.0749C97.1995 35.9912 98.7121 37.0736 100.24 38.1767C106.346 42.514 111.889 47.7901 116.014 53.9772C120.162 60.1306 122.804 67.1458 123.638 74.2583C124.335 81.4072 123.315 88.5368 120.862 95.0764C119.283 99.3886 119.19 105.372 118.051 111.615C117.743 113.274 117.767 114.702 118.01 115.902C123.518 107.183 127.666 97.9018 129.55 87.8216C130.049 77.6206 127.941 67.331 123.06 58.4096Z" fill="#DFE4F3"/>
<path d="M126.79 59.2851C128.693 63.9756 129.788 68.83 130.272 73.6357C130.699 78.4518 130.347 83.2141 129.537 87.7823C128.945 98.7844 125.811 109.503 120.467 119.578C121.348 119.961 122.356 119.844 123.239 119.154C125.91 118.511 127.506 115.145 128.425 111.129C129.366 107.097 129.676 102.496 130.553 98.7883C131.551 94.7462 132.248 90.5876 132.603 86.3256C132.847 82.0664 132.781 77.7451 132.17 73.4398C130.967 64.8318 127.601 56.4381 122.76 49.225C122.023 48.085 121.074 47.1188 120.229 46.0748C119.343 45.0619 118.54 43.9868 117.586 43.0569C121.206 48.1738 124.351 53.6125 126.79 59.2851Z" fill="#DFE4F3"/>
<path d="M107.825 34.2459C107.791 34.2226 107.775 34.2019 107.762 34.163C107.694 34.1164 107.625 34.0698 107.557 34.0232L107.825 34.2459Z" fill="#B4BFE3"/>
<path d="M55.6592 8.68545L59.4116 9.93456L63.1462 11.3107C65.6351 12.2342 68.1341 13.0851 70.6204 14.0267C68.1576 13.0514 65.6402 12.1979 63.1696 11.277C61.9239 10.8243 60.6808 10.3535 59.4325 9.91899L55.6592 8.68545Z" fill="#B4BFE3"/>
<path d="M115.67 40.5854C114.023 38.7254 112.171 37.1327 110.355 35.545C110.106 35.3249 109.854 35.1229 109.604 34.9027C109.389 34.8355 109.211 34.7734 108.998 34.6881C109.616 35.3486 109.616 35.3486 110.213 36.0247C109.328 35.4007 108.584 34.7039 107.813 34.2068C109.51 35.5742 111.157 37.0272 112.831 38.4283C114.457 39.8968 115.988 41.5184 117.567 43.0543L115.67 40.5854Z" fill="#B4BFE3"/>
<path d="M20.2509 23.8627C20.2988 24.0545 20.3492 24.2281 20.3971 24.4199C20.3701 24.2125 20.3615 24.0078 20.332 23.8186C20.3111 23.8341 20.2902 23.8497 20.2509 23.8627Z" fill="#B4BFE3"/>
<path d="M19.7684 20.1121C19.7872 20.2443 19.7852 20.3921 19.8015 20.5424C19.935 20.5241 20.1021 20.3996 20.285 20.2957C20.277 19.5544 20.3683 18.7714 20.4413 17.9859C20.2501 18.6808 19.9805 19.4017 19.7684 20.1121Z" fill="#B4BFE3"/>
<path opacity="0.9" d="M42.1851 4.47879C43.4222 4.72667 44.5706 5.07314 45.7634 5.37031C46.8909 5.73234 48.0968 6.06838 49.1851 6.44341L55.6623 8.66767L59.4381 9.88306C60.6864 10.3176 61.9295 10.7884 63.1752 11.2411C65.6641 12.1645 68.1606 13.0336 70.626 13.9908L76.3099 16.2701L79.1635 17.3929L81.96 18.6557L87.5689 21.2021L93.0794 24.0493L92.2572 23.3785C91.1475 22.8895 90.043 22.3641 88.9435 21.8024L90.0471 22.0686C89.8265 21.908 89.5218 21.6802 89.1805 21.4471C86.2149 19.7904 83.1111 18.3178 80.0013 16.6223C78.2649 15.9342 76.6677 15.3211 75.6381 14.5286L74.9375 14.1896C73.2404 13.4884 71.6009 12.7768 69.967 12.1586C68.328 11.5766 66.7231 11.0179 65.1549 10.4644C63.5866 9.91091 62.0368 9.35997 60.5027 8.82976C58.961 8.354 57.4376 7.88081 55.8958 7.40505C55.8337 7.58137 55.6823 7.72666 55.5493 7.87452C54.1615 7.23532 52.7711 6.61427 51.4199 5.98023C50.5599 5.71131 49.7024 5.42424 48.8424 5.15532C47.9065 4.89424 46.9889 4.63573 46.0529 4.37465C45.0752 4.1447 44.1158 3.91734 43.1197 3.68482C42.0977 3.50416 41.0573 3.32093 39.9985 3.13512C39.3998 3.4026 41.5009 4.29009 40.3595 4.42579C40.2103 4.42331 40.1002 4.40785 39.9693 4.40795C40.7187 4.53179 41.4682 4.65563 42.2177 4.77947C42.2096 4.7043 42.1673 4.60582 42.1851 4.47879Z" fill="#B4BFE3"/>
<path d="M95.4438 25.3251C95.0393 25.0092 94.619 24.6725 94.2145 24.3566C93.9705 24.2298 93.7631 24.1081 93.5374 23.9838L92.2495 23.4327L93.0717 24.1034L95.4438 25.3251Z" fill="#B4BFE3"/>
<path d="M21.316 20.2742C21.5586 17.2178 22.2923 13.8602 24.4842 11.0407C25.558 9.65556 26.9914 8.50606 28.542 7.85418C30.0687 7.1064 31.6732 6.86924 33.189 6.73066L34.8282 6.64642C35.755 6.5731 36.6716 6.57238 37.6066 6.57424C39.6472 6.69447 41.6516 6.93916 43.5913 7.37832C42.7736 6.54166 42.2938 5.69696 42.2302 4.81823C41.4808 4.69439 40.7313 4.57055 39.9818 4.44671C39.1961 4.44733 38.5699 4.37783 38.0222 4.28235C36.3561 4.15923 34.5911 4.20728 32.7797 4.45238C30.9505 4.82451 29.0168 5.27449 27.2088 6.42688C25.4294 7.50926 23.7488 9.08668 22.7473 10.8891C21.7116 12.6682 21.0352 14.5533 20.7277 16.3422C20.7062 16.8944 20.5904 17.4518 20.4747 18.0093C20.3834 18.7922 20.3104 19.5777 20.3184 20.3191C20.6603 20.0155 21.068 19.7767 21.316 20.2742Z" fill="#B4BFE3"/>
<path d="M60.3013 91.5804C60.2748 91.5026 60.2458 91.443 60.2168 91.3834L60.038 91.1917C60.1144 91.3135 60.2066 91.456 60.3013 91.5804Z" fill="#B4BFE3"/>
<path opacity="0.9" d="M40.5729 60.4004C36.5513 53.7466 32.6734 47.002 29.4095 39.881C27.7776 36.3205 26.3103 32.6536 25.2195 28.836C24.1471 25.0211 23.3096 20.9985 23.8462 16.7805C22.9358 19.7986 22.7748 22.9405 22.8858 26.0097C22.9786 29.0763 23.375 32.1115 23.9075 35.1104C24.0348 35.5354 24.1805 35.963 24.3236 36.4088C24.2207 36.2092 24.1336 36.0304 24.0439 35.8698C24.1534 36.4219 24.2628 36.9739 24.3723 37.526C24.7315 37.632 25.0902 37.6084 25.4377 37.3981C25.3682 39.0909 27.2722 42.5786 25.9046 42.4605C25.8287 42.4683 25.7421 42.4191 25.6397 42.3492C26.0574 43.3702 26.475 44.3913 26.9344 45.3812C28.1306 46.5856 29.3869 47.7615 29.7709 48.8889C29.8345 49.1014 29.9191 49.2983 29.9853 49.4927C30.3021 50.1664 30.572 50.9076 30.8083 51.7551L30.8241 51.7758C32.2069 51.7851 31.4717 48.4987 32.2343 49.3276C35.1252 53.3796 34.2888 55.2053 32.5018 55.6759C36.6696 62.2207 41.5942 68.039 47.2354 72.8847C44.8444 68.7364 42.6235 64.5749 40.5729 60.4004Z" fill="#C0CAE8"/>
<path opacity="0.9" d="M60.1986 91.3808C60.2276 91.4404 60.2541 91.5181 60.2831 91.5777C60.1909 91.4352 60.0962 91.3109 60.0223 91.1709C56.5501 87.1297 53.3469 82.9042 50.4627 78.5385C49.3242 76.6574 48.2433 74.7659 47.1624 72.8744C41.5239 68.0106 36.5967 62.2104 32.4289 55.6656L32.2928 55.702C34.463 61.0222 36.7836 65.9379 40.1359 71.4983C42.5806 74.5993 46.3753 78.7414 48.0369 81.8249C53.8783 92.5652 59.8071 98.6913 70.1853 106.164C73.2837 109.672 76.3917 112.977 79.6481 116.026C82.9044 119.074 86.2673 121.897 90.0185 124.22C91.898 125.353 93.8844 126.391 96.0839 126.978C97.2425 127.252 98.2748 127.36 99.3463 127.455C100.418 127.55 101.497 127.591 102.565 127.574C104.705 127.523 106.872 127.143 108.767 126.299C110.663 125.455 112.235 124.122 113.342 122.501C111.74 124.311 109.496 125.643 106.884 126.127C104.288 126.632 101.458 126.401 98.6281 125.911C95.835 125.555 93.31 124.09 90.8605 122.487C88.437 120.833 86.1409 118.937 83.9126 116.958C75.1349 108.877 67.3611 99.6419 60.1986 91.3808Z" fill="#BFC8E7"/>
<path d="M25.3273 42.046C25.5188 42.8131 25.726 43.601 25.92 44.35C26.2486 44.6738 26.5563 45.0131 26.9007 45.3576C26.4412 44.3678 26.0236 43.3467 25.606 42.3257C25.5245 42.2402 25.4246 42.1522 25.3273 42.046Z" fill="#B4BFE3"/>
<path d="M33.945 2.95073C33.1099 3.03693 32.1938 3.16727 31.2231 3.41948C30.9515 3.62189 30.5433 3.73109 30.0358 3.88184C29.5258 4.05074 28.9607 4.2119 28.4557 4.3445C26.0868 5.36254 23.6062 7.30869 22.1149 9.80104C22.1414 9.87879 22.1679 9.95653 22.1944 10.0343C22.1944 10.0343 21.9569 10.26 21.6282 10.6024C21.2536 11.2715 21.0074 11.9587 20.7219 12.6588C20.4757 13.346 20.3238 14.0278 20.1326 14.7227C20.2671 14.9637 20.4484 15.1372 20.5799 15.2668C20.6781 15.6322 20.703 15.9873 20.6913 16.3373C20.9963 14.5665 21.6569 12.6607 22.7109 10.8841C23.7124 9.08172 25.393 7.5043 27.1724 6.42192C28.9804 5.26953 30.9141 4.81955 32.7433 4.44741C34.5547 4.20232 36.3197 4.15427 37.9858 4.27739C37.2256 4.09652 36.573 3.94928 35.9565 3.67757C35.3584 3.40845 34.7628 3.12118 33.945 2.95073Z" fill="#B4BFE3"/>
<path d="M21.2197 22.4257C21.0443 23.1413 20.6978 23.6107 20.3319 23.8184C20.3589 24.0258 20.3701 24.2124 20.397 24.4198C20.7326 25.8919 21.196 27.2525 21.7063 28.5456C21.4264 26.5446 21.1857 24.5306 21.2197 22.4257Z" fill="#B4BFE3"/>
<path d="M24.6286 41.0228C24.8231 41.9014 25.0778 42.7515 25.3273 43.6378C25.5193 43.8684 25.7114 44.0989 25.9218 44.3321C25.7303 43.5649 25.5389 42.7978 25.3291 42.028C25.1029 41.7742 24.8711 41.427 24.6286 41.0228Z" fill="#B4BFE3"/>
<path d="M42.185 4.47858C42.1697 4.58747 42.1911 4.70151 42.1941 4.81298C44.6 5.26214 46.9437 5.88763 49.1671 6.57024L55.6413 8.68303L49.1641 6.45877C48.0758 6.08375 46.8882 5.75028 45.7423 5.38567C44.5888 5.07551 43.4195 4.74462 42.185 4.47858Z" fill="#B4BFE3"/>
<path opacity="0.9" d="M119.046 51.8309L121.192 55.0566C121.883 56.1344 122.447 57.3057 123.077 58.4121C122.822 57.3028 122.53 56.1883 122.167 55.0454C121.72 53.9648 121.218 52.8764 120.698 51.7855C119.723 49.5388 118.205 47.5672 116.872 45.4737C115.413 43.4737 113.827 41.5851 112.337 39.6732C110.736 37.8936 109.231 36.0905 107.875 34.29C107.287 33.9483 106.545 33.6404 105.819 33.3532C106.421 33.4564 107.001 33.723 107.571 34.0621C107.471 33.974 107.371 33.886 107.269 33.8161L102.465 30.3281C100.827 29.2095 99.1339 28.2128 97.4853 27.1668C105.733 34.3591 113.359 42.5187 119.046 51.8309Z" fill="#B4BFE3"/>
<path opacity="0.9" d="M123.059 58.4095C123.171 58.9434 123.299 59.498 123.374 60.0268L121.342 55.8548L119.027 51.8283C115.276 46.5819 110.814 41.8649 105.911 37.6226C100.893 33.5307 95.6404 29.6465 89.9608 26.4054C78.7005 19.7521 66.5162 14.6161 53.9139 10.4576C55.2971 11.2627 56.6829 12.0497 58.0477 12.8522C59.4126 13.6547 60.7255 14.561 62.0695 15.3791C64.7656 17.0905 67.6049 18.5814 70.649 20.2121C69.5633 19.8189 68.5061 19.3558 67.4596 18.9496C66.3922 18.559 65.33 18.1321 64.2886 17.6896C62.2032 16.8229 60.1674 15.8705 58.1391 14.8637C54.0103 13.099 50.0241 10.9843 45.7878 9.18599C46.3181 9.53813 46.8851 9.89541 47.5098 10.2423C51.663 12.2325 55.8026 14.0542 59.7648 16.073C63.0311 17.5869 66.4956 18.8881 69.5133 20.4411C72.5309 21.9941 75.3356 23.3321 77.3209 24.777C79.7119 26.1309 82.134 27.3966 84.5825 28.7401C86.9632 30.1665 89.5005 31.4114 92.0774 32.7729C93.0902 33.2854 94.5147 33.9298 95.7201 34.8024C96.8379 35.3667 97.9639 36.0061 99.025 36.8399C100.617 37.3597 102.648 39.1442 103.832 39.9028C106.4 41.7258 108.632 43.9456 110.26 46.4692C110.475 46.666 110.709 46.8654 110.927 47.0441C111.292 47.2434 111.799 47.7589 112.292 48.3833C112.758 49.0595 113.167 49.8757 113.437 50.6169C114.384 51.8604 115.434 53.0443 116.198 54.3917C116.401 54.6792 116.567 54.9617 116.733 55.2441C117.45 56.3997 118.208 57.5241 118.765 58.7498C119.204 59.0891 119.429 59.6203 119.523 60.2813C122.21 65.9148 123.674 72.0054 123.814 78.0583C123.916 84.1241 122.684 90.0951 120.612 95.6519C118.942 99.9512 118.833 105.914 117.621 112.146C117.289 113.839 117.308 115.304 117.548 116.522C123.268 107.629 127.577 98.1299 129.497 87.7956C130.048 77.6205 127.94 67.3308 123.059 58.4095Z" fill="#D9DFF1"/>
<path d="M64.0655 18.2136L63.7836 18.4886C64.9769 18.9154 66.1467 19.3759 67.3164 19.8364C66.2353 19.2774 65.1491 18.7546 64.0655 18.2136Z" fill="#B4BFE3"/>
<path d="M97.4725 27.1277C99.1186 28.1918 100.83 29.1911 102.453 30.2889L107.256 33.777C105.911 32.6996 104.552 31.4538 103.416 30.2208C100.822 28.4497 98.0977 26.938 95.4464 25.3069C96.127 25.9208 96.7919 26.5139 97.4725 27.1277Z" fill="#B4BFE3"/>
<path d="M47.5337 10.2084C45.4876 9.32866 43.384 8.45931 41.1529 7.83114C38.9478 7.15111 36.6127 6.73041 34.1273 6.71422C33.5933 6.78722 33.0619 6.84207 32.5151 7.00582C36.0252 7.18451 39.0699 8.27865 42.1778 9.45569C45.2699 10.612 48.34 12.1909 51.7713 13.728C46.6092 11.596 41.7432 9.48714 36.4769 8.89506C33.8962 8.6249 31.1493 8.73853 28.7162 10.0806C27.5009 10.7426 26.4806 11.7466 25.626 12.9035C24.8605 14.0913 24.1898 15.4035 23.8283 16.7777C23.3074 21.0165 24.1291 25.0183 25.2015 28.8333C26.3107 32.6534 27.778 36.3204 29.3916 39.8783C32.6554 46.9993 36.5517 53.7465 40.5549 60.3977C37.5701 54.3523 34.8757 48.2366 32.5869 42.0299C30.3532 35.831 28.4252 29.4529 27.9172 23.2189C27.6024 22.3974 27.066 21.8223 26.4811 21.5921C27.07 18.7323 27.8037 16.041 29.0936 14.3161C29.7214 13.442 30.4313 12.783 31.4142 12.3105C32.3788 11.8353 33.5034 11.4197 34.8307 11.2916C37.4456 10.9189 40.4925 11.199 43.4649 11.8759C46.4216 12.532 49.4953 13.6857 52.4177 14.9847C52.7417 15.4744 51.656 15.0812 51.174 15.0505C52.6265 15.4952 54.0791 15.94 55.5291 16.4028C58.0573 16.6471 60.6905 16.9432 63.6277 18.0037C62.3525 17.3618 61.0615 16.6992 59.7704 16.0366C55.2085 14.026 50.7286 12.2305 47.5337 10.2084Z" fill="#C8D0EA"/>
<path d="M51.7711 13.7282C48.3372 12.2093 45.2488 10.6278 42.1776 9.45594C39.0697 8.27891 36.0433 7.18735 32.5149 7.00607C30.2775 7.4874 28.0008 8.64794 26.4495 10.5026C24.8825 12.3366 24.1132 14.6158 23.8306 16.7598C24.1921 15.3857 24.8628 14.0734 25.6283 12.8856C26.483 11.7288 27.5032 10.7247 28.7185 10.0628C31.1517 8.72064 33.8985 8.60701 36.4792 8.87717C41.7246 9.48482 46.609 11.5963 51.7711 13.7282Z" fill="#B4BFE3"/>
<path d="M59.7886 16.0395C61.0796 16.7021 62.3732 17.3466 63.6459 18.0066C63.8059 18.0661 63.9475 18.123 64.11 18.1644L64.0657 18.2137C65.1493 18.7546 66.233 19.2955 67.3192 19.8183C70.7455 21.3917 74.0958 22.973 77.3656 24.7279C75.3777 23.3012 72.5756 21.945 69.558 20.392C66.5194 18.8546 63.0732 17.556 59.7886 16.0395Z" fill="#B4BFE3"/>
<path d="M107.831 34.2096C107.812 34.2071 107.778 34.1838 107.781 34.1656C107.797 34.1863 107.831 34.2096 107.844 34.2485C107.86 34.2692 107.894 34.2926 107.912 34.2951C108.172 34.4427 108.406 34.6421 108.582 34.8519C108.364 34.6732 108.149 34.4764 107.912 34.2951L107.86 34.2692C109.234 36.0724 110.72 37.8728 112.322 39.6525C113.811 41.5644 115.398 43.4529 116.856 45.453C118.189 47.5465 119.708 49.518 120.683 51.7648C121.203 52.8557 121.704 53.9441 122.151 55.0247C122.517 56.1494 122.825 57.2846 123.062 58.3913C127.922 67.3282 130.051 77.6023 129.521 87.7619C130.334 83.1755 130.683 78.4314 130.256 73.6153C129.79 68.8121 128.695 63.9577 126.774 59.2646C126.039 57.5698 125.187 55.914 124.434 54.2167C123.58 52.579 122.628 50.9648 121.718 49.3194C121.14 48.6459 120.457 48.0502 120.001 47.3014C120.392 47.5785 120.628 47.7597 120.833 47.8996C119.748 46.3036 118.733 44.6064 117.57 43.0364C115.99 41.5005 114.478 39.8815 112.833 38.4104C111.175 37.03 109.528 35.577 107.831 34.2096Z" fill="#C4CDE9"/>
<path d="M31.7319 6.98831C32.2134 6.88943 32.7133 6.79312 33.1897 6.73053C31.6739 6.86912 30.0694 7.10627 28.5427 7.85405C26.9921 8.50593 25.5561 9.67358 24.4849 11.0406C22.2747 13.8575 21.5409 17.2151 21.3167 20.2741C21.3458 20.3337 21.359 20.3726 21.3855 20.4503C21.4017 21.2669 21.3491 21.9072 21.2201 22.4258C21.1861 24.5307 21.4268 26.5447 21.6884 28.5432C21.8284 28.8775 21.9868 29.2143 22.1295 29.5305C22.3968 30.2898 22.6015 31.0958 22.822 31.9226C23.1505 32.9126 23.4871 33.9777 23.8553 35.0844C23.3229 32.0855 22.9448 29.0529 22.8337 25.9837C22.7409 22.9171 22.8836 19.7726 23.7941 16.7545C24.0793 14.5923 24.8485 12.3131 26.413 10.4972C27.9643 8.64255 30.2385 7.50017 32.4784 7.00069C32.2532 7.00605 31.9913 7.00626 31.7319 6.98831Z" fill="#EAEDF7"/>
<path d="M34.8291 6.64617L33.1899 6.73041C33.5094 6.71979 33.808 6.72474 34.1274 6.71412L34.8291 6.64617Z" fill="#B4BFE3"/>
<path d="M70.6699 20.1966C67.6258 18.5659 64.7865 17.075 62.0904 15.3636C60.728 14.5429 59.4152 13.6367 58.0686 12.8367C56.7012 12.0523 55.318 11.2472 53.9348 10.4421C50.5522 9.35603 47.2085 8.12733 43.5732 7.37584C44.1621 7.97678 44.9446 8.53091 45.8112 9.15238C50.0292 10.9481 54.0337 13.0654 58.1626 14.8301C60.1908 15.8369 62.2292 16.7711 64.312 17.656C65.3534 18.0985 66.4182 18.5072 67.4831 18.916C68.527 19.3403 69.5867 19.7853 70.6699 20.1966Z" fill="#B4BFE3"/>
<path d="M46.8873 6.95301C56.3961 9.56632 66.1017 13.7063 75.2178 18.4482C84.3833 23.1045 92.8767 28.0179 100.928 31.6848C99.0819 29.6488 96.9525 27.4989 94.6635 25.4191C86.9104 20.9613 78.7989 17.3229 70.6206 14.0268C68.1343 13.0852 65.6353 12.2343 63.1464 11.3108L59.4118 9.93464L55.6594 8.68553L49.1853 6.57273C46.9644 5.87198 44.6207 5.24649 42.2123 4.81548C42.2759 5.69421 42.7715 6.55963 43.5733 7.37557C47.2086 8.12706 50.5524 9.35576 53.9349 10.4419C51.6912 9.23821 49.5153 7.95156 46.8873 6.95301Z" fill="#BFC8E7"/>
<path d="M93.0744 24.0852L87.5639 21.2381L81.955 18.6917L79.1585 17.4288L76.3048 16.306L70.621 14.0267C78.7967 17.341 86.8924 20.9586 94.6639 25.419C94.1279 24.9735 93.6103 24.5307 93.0744 24.0852Z" fill="#D8DEF0"/>
<path d="M103.413 30.2391C101.964 29.1101 100.365 28.2377 98.8609 27.2305C97.3121 26.2726 95.8362 25.1954 94.2146 24.3567C94.6191 24.6727 95.021 25.0068 95.4439 25.3253C98.0768 26.9538 100.822 28.4499 103.413 30.2391Z" fill="#B4BFE3"/>
<path d="M59.7881 16.0392C55.8259 14.0204 51.6837 12.2168 47.533 10.2085C50.7279 12.2305 55.2078 14.026 59.7881 16.0392Z" fill="#D9DFF1"/>
<path d="M97.4725 27.128C96.7919 26.5141 96.1271 25.921 95.4439 25.3253L93.0718 24.1037C93.6077 24.5491 94.1253 24.992 94.6455 25.4167C95.6217 25.924 96.5249 26.5506 97.4725 27.128Z" fill="#B4BFE3"/>
<path d="M23.4566 34.9916C23.5956 35.7329 23.7321 36.4923 23.8659 37.2699C24.0183 37.3839 24.1599 37.4408 24.3199 37.5003C24.2104 36.9482 24.101 36.3961 23.9915 35.8441C23.8015 35.4657 23.6329 35.2015 23.4566 34.9916Z" fill="#B4BFE3"/>
<path d="M32.5151 7.00577C33.0618 6.84202 33.5932 6.78717 34.1272 6.71416C33.8078 6.72478 33.5092 6.71983 33.1897 6.73046C32.7133 6.79304 32.2134 6.88935 31.7319 6.98824C31.9913 7.00618 32.2532 7.00597 32.5151 7.00577Z" fill="#B4BFE3"/>
<path d="M47.5334 10.2084C46.9271 9.86415 46.3417 9.50428 45.8114 9.15215C42.4646 7.81199 38.8538 6.61979 34.8128 6.62556L34.1086 6.71166C36.594 6.72785 38.9291 7.14855 41.1342 7.82859C43.3836 8.45933 45.4873 9.32868 47.5334 10.2084Z" fill="#B4BFE3"/>
<path d="M45.8299 9.15466C44.9449 8.53062 44.1807 7.97907 43.5918 7.37812C41.6522 6.93896 39.6478 6.69427 37.6071 6.57404C36.6931 6.55662 35.7581 6.55476 34.8287 6.64622C38.8697 6.64045 42.4647 7.81192 45.8299 9.15466Z" fill="#D8DEF0"/>
<path d="M100.931 31.6668C92.8797 27.9999 84.3837 23.1046 75.2207 18.4302C66.1047 13.6883 56.399 9.54831 46.8902 6.935C49.5182 7.93355 51.715 9.20463 53.9379 10.4238C66.5218 14.5797 78.7245 19.7184 89.9848 26.3716C95.667 29.5946 100.92 33.4788 105.935 37.5888C110.837 41.8311 115.3 46.5481 119.051 51.7945C113.383 42.4849 105.736 34.3409 97.4777 27.0916C96.5301 26.5143 95.6268 25.8876 94.6716 25.3648C96.9554 27.4808 99.0665 29.6282 100.931 31.6668Z" fill="#B4BFE3"/>
</g>
</g>
<path opacity="0.1091" d="M55.3667 27.8509C63.2785 37.3865 70.629 47.3464 77.4 57.728C83.8345 67.5965 89.7854 77.7324 95.2478 88.1724C107.671 111.742 117.26 136.31 126.267 161.319C126.241 161.241 126.235 161.016 126.178 160.896C119.09 141.264 111.707 121.758 102.727 102.903C97.8083 92.5578 92.396 82.423 86.6951 72.4899C77.4836 56.4725 66.6147 41.9367 55.2593 27.4258C55.3401 27.5117 55.2703 27.7441 55.3667 27.8509Z" fill="#617BE3"/>
<path opacity="0.1091" d="M54.2824 28.556C61.9188 38.3324 69.5082 48.0464 76.3157 58.4331C84.3156 70.6461 91.4422 83.3887 97.9475 96.4539C108.563 117.682 117.138 139.685 125.185 162.006C125.182 162.024 125.614 161.861 125.598 161.84C117.551 139.52 108.977 117.516 98.3453 96.2675C93.138 85.8634 87.5201 75.737 81.4056 65.839C73.2583 52.6921 64.223 40.5758 54.6958 28.3904C54.6671 28.3305 54.298 28.5768 54.2824 28.556Z" fill="#617BE3"/>
<path opacity="0.1091" d="M53.1558 28.379C61.0676 37.9146 68.3998 47.872 75.1709 58.2536C84.6921 72.8609 93.1632 88.0661 100.605 103.853C109.603 122.711 116.971 142.196 124.058 161.829C124.032 161.751 123.99 161.521 123.951 161.404C114.968 136.492 105.438 111.633 92.9138 88.2546C92.7963 88.0331 84.5861 73.2187 84.4686 72.9972C75.257 56.9798 64.3881 42.4441 53.0327 27.9331C53.1292 28.0398 53.0801 28.2566 53.1558 28.379Z" fill="#617BE3"/>
<path opacity="0.1091" d="M54.0774 27.5022C61.74 37.3569 69.3894 47.1725 76.2256 57.6192C84.2073 69.8296 91.3157 82.5696 97.8419 95.6191C108.439 116.845 116.996 138.845 125.045 161.148C125.032 161.109 125.396 160.899 125.386 160.841C117.323 138.5 108.73 116.494 98.0988 95.2452C92.894 84.8228 87.2579 74.6938 81.1227 64.8115C78.0662 59.5924 74.7629 54.5436 71.1738 49.6782C66.0651 42.0089 60.5043 34.6487 54.5252 27.6211C54.4469 27.5169 54.1583 27.5881 54.0774 27.5022Z" fill="#617BE3"/>
<path opacity="0.1091" d="M53.0116 27.5574C60.6505 37.3156 68.2374 47.0478 75.0266 57.432C83.0265 69.645 90.1506 82.4058 96.6767 95.4554C107.292 116.683 115.865 138.705 123.912 161.026C123.87 160.926 124.14 160.722 124.101 160.605C116.054 138.284 107.479 116.281 96.8659 95.0347C91.6586 84.6305 86.0407 74.5041 79.9262 64.6061C71.7815 51.4409 62.7254 39.3404 53.2007 27.1367C53.2477 27.1992 52.9803 27.5157 53.0116 27.5574Z" fill="#617BE3"/>
<path opacity="0.1091" d="M53.69 28.9385C61.3289 38.6967 68.9158 48.4289 75.7232 58.8157C83.7231 71.0287 90.8472 83.7895 97.3733 96.839C107.989 118.067 116.561 140.089 124.608 162.409C124.632 162.506 125.012 162.447 125.038 162.526C116.991 140.205 108.416 118.202 97.8029 96.9553C92.5956 86.5512 86.9776 76.4247 80.8632 66.5267C72.7184 53.3616 63.6649 41.2428 54.1377 29.0574C54.0412 28.9506 53.7526 29.0219 53.69 28.9385Z" fill="#617BE3"/>
<path opacity="0.1091" d="M55.2555 28.5063C62.8945 38.2645 70.4813 47.9967 77.2888 58.3835C85.2887 70.5965 92.4128 83.3573 98.9389 96.4068C109.555 117.635 118.127 139.656 126.174 161.977C126.132 161.878 126.384 161.671 126.345 161.554C118.298 139.233 109.723 117.23 99.1099 95.9836C93.9026 85.5794 88.2846 75.453 82.1702 65.555C74.0254 52.3898 64.9693 40.2893 55.4447 28.0856C55.4734 28.1456 55.2086 28.4438 55.2555 28.5063Z" fill="#617BE3"/>
<path opacity="0.1091" d="M54.0063 26.9516C65.7928 41.0386 76.2852 56.006 85.4835 71.8538C91.2623 81.7606 96.62 91.8877 101.515 102.267C110.524 121.181 117.985 140.662 124.906 160.42C124.935 160.48 125.338 160.387 125.351 160.426C116.129 135.63 106.748 110.773 94.2389 87.4158C88.6751 77.036 82.7475 66.8661 76.3911 56.9714C68.7378 45.068 63.0712 38.1961 54.433 26.9557C54.3886 26.8749 54.0532 27.0141 54.0063 26.9516Z" fill="#617BE3"/>
<path opacity="0.1091" d="M53.338 28.4043C61.2471 37.9582 68.5794 47.9155 75.3687 58.2997C84.8665 72.941 93.3377 88.1461 100.803 103.899C109.783 122.754 117.169 142.242 124.256 161.875C124.311 162.013 124.525 162.08 124.582 162.2C115.599 137.288 106.069 112.43 93.5449 89.0512C93.4274 88.8297 85.2172 74.0153 85.0997 73.7938C75.8881 57.7764 65.0192 43.2406 53.682 28.7322C53.5491 28.6203 53.4319 28.5293 53.338 28.4043Z" fill="#617BE3"/>
<path opacity="0.1091" d="M53.5018 28.036C65.1841 42.0711 75.6139 56.9552 84.7678 72.7222C90.5466 82.6289 95.8836 92.7717 100.799 103.135C109.777 122.008 117.166 141.478 124.25 161.129C124.289 161.246 124.56 161.303 124.599 161.42C115.616 136.508 106.087 111.649 93.5622 88.2709C87.9985 77.8912 82.0683 67.7396 75.7118 57.8448C67.8602 45.634 62.4546 39.1529 53.5452 27.5948C53.6078 27.6782 53.4392 27.9526 53.5018 28.036Z" fill="#617BE3"/>
<path opacity="0.1091" d="M54.6522 26.9863C66.4261 41.2951 76.9683 56.4373 86.2969 72.4152C92.0757 82.3219 97.4126 92.4648 102.31 102.825C111.23 121.579 118.582 140.913 125.57 160.457C125.607 160.593 125.862 160.628 125.92 160.748C116.803 135.724 107.276 110.717 94.6788 87.1978C89.115 76.8181 83.1874 66.6482 76.8127 56.7508C68.9142 44.4775 64.0591 38.8379 55.0039 27.2593C54.9049 27.1709 54.7461 27.1113 54.6522 26.9863Z" fill="#617BE3"/>
<path opacity="0.1091" d="M54.2342 29.0336C61.8731 38.7918 69.46 48.524 76.2675 58.9107C84.2674 71.1237 91.3914 83.8846 97.9176 96.9341C108.533 118.162 117.105 140.184 125.152 162.504C125.168 162.525 125.595 162.399 125.592 162.417C117.545 140.096 108.97 118.093 98.3571 96.8468C93.1498 86.4426 87.5319 76.3162 81.4174 66.4182C73.2727 53.253 64.2192 41.1342 54.692 28.9488C54.6268 28.8838 54.2629 29.0935 54.2342 29.0336Z" fill="#617BE3"/>
<path opacity="0.1091" d="M87.4133 52.2227C89.7966 56.7786 91.3135 61.6201 91.9848 66.7316C93.5997 71.1426 94.5026 75.6756 94.6566 80.3256C95.0015 83.4843 95.5186 86.3525 96.1448 89.5137C96.1555 89.5707 96.2493 89.9727 96.2277 89.8586C94.7259 82.3718 94.6327 74.7497 93.0521 67.2889C91.9192 61.8534 89.5629 56.8384 87.3247 51.7844C87.3989 51.9244 87.3575 52.0852 87.4133 52.2227Z" fill="#617BE3"/>
<path opacity="0.1091" d="M80.4406 39.9681C84.9158 49.8167 90.5595 59.9035 92.4487 70.6475C93.6183 77.2916 93.8257 83.967 95.1662 90.598C95.1687 90.5799 95.5994 90.4552 95.5861 90.4164C94.264 83.7879 94.0566 77.1125 92.8845 70.4866C90.9927 59.7608 85.3275 49.5598 80.8605 39.7864C80.863 39.7683 80.4406 39.9681 80.4406 39.9681Z" fill="#617BE3"/>
<path opacity="0.1091" d="M85.199 52.7443C89.4683 61.7864 91.8696 71.1583 92.4055 80.842C92.6659 83.9333 93.1575 86.9831 93.8987 89.9938C93.9202 90.1079 94.0027 90.3232 94.0109 90.3984C92.5223 82.9505 92.5263 75.305 90.8434 67.9039C89.6026 62.4347 87.3409 57.4144 85.0735 52.3009C85.1478 52.4409 85.1432 52.6069 85.199 52.7443Z" fill="#617BE3"/>
<path opacity="0.1091" d="M80.2307 38.9203C84.7008 48.8052 90.4422 58.9983 92.2869 69.7916C93.4248 76.3942 93.6348 83.0515 94.9435 89.641C94.9435 89.641 95.39 89.5371 95.3767 89.4982C94.0572 82.8516 93.8181 76.1347 92.6301 69.4881C90.7122 58.8141 85.1397 48.7558 80.6885 39.0032C80.6435 38.9228 80.2757 39.0007 80.2307 38.9203Z" fill="#617BE3"/>
<path opacity="0.1091" d="M85.0511 51.9275C87.9927 58.5243 90.6047 64.9268 91.6032 72.1207C92.4119 77.992 92.7075 83.7726 93.8788 89.6023C93.8573 89.4882 94.088 89.317 94.069 89.1847C92.8976 83.355 92.602 77.5744 91.7933 71.7031C90.7949 64.5092 88.1828 58.1068 85.2413 51.5099C85.2838 51.6084 85.0086 51.829 85.0511 51.9275Z" fill="#617BE3"/>
<path opacity="0.1091" d="M85.7409 53.302C88.6824 59.8989 91.2945 66.3013 92.2929 73.4952C93.1016 79.3665 93.3972 85.1472 94.5686 90.9769C94.5768 91.0521 94.9922 91.0364 95.0029 91.0934C93.8316 85.2637 93.536 79.4831 92.7273 73.6118C91.7288 66.4179 89.1168 60.0155 86.1752 53.4186C86.1302 53.3382 85.7675 53.3798 85.7409 53.302Z" fill="#617BE3"/>
<path opacity="0.1091" d="M87.3213 52.8758C90.2628 59.4727 92.8749 65.8751 93.8733 73.069C94.682 78.9403 94.9776 84.7209 96.149 90.5506C96.1275 90.4365 96.3397 90.2627 96.3207 90.1305C95.1493 84.3008 94.8537 78.5201 94.045 72.6488C93.0466 65.4549 90.4346 59.0525 87.493 52.4556C87.5355 52.5542 87.2788 52.7773 87.3213 52.8758Z" fill="#617BE3"/>
<path opacity="0.1091" d="M80.1574 38.3732C84.6327 48.2218 90.2763 58.3086 92.1656 69.0527C93.3377 75.6786 93.5426 82.3721 94.8646 89.0006C94.8779 89.0395 95.3168 88.9901 95.3142 89.0082C93.9922 82.3798 93.7664 75.7018 92.6152 69.0603C90.7419 58.337 85.0582 48.1335 80.6096 38.3627C80.5963 38.3238 80.1866 38.4329 80.1574 38.3732Z" fill="#617BE3"/>
<path opacity="0.1091" d="M85.3809 52.7883C88.3224 59.3851 90.9345 65.7876 91.9329 72.9814C92.7416 78.8527 93.0372 84.6334 94.2086 90.4631C94.2276 90.5954 94.4987 90.6705 94.5386 90.7872C93.3673 84.9575 93.0717 79.1768 92.263 73.3055C91.2645 66.1117 88.6525 59.7092 85.7109 53.1124C85.6367 52.9723 85.4392 52.9076 85.3809 52.7883Z" fill="#617BE3"/>
<path opacity="0.1091" d="M79.6684 39.452C84.5045 50.0733 90.3207 60.5361 91.9483 72.2061C92.7703 78.1163 93.1053 83.884 94.3662 89.7448C94.3795 89.7837 94.46 90.1467 94.441 90.0145C93.232 83.3834 93.0297 76.6717 91.8576 70.0458C89.9684 59.3018 84.144 48.7637 79.6954 38.993C79.7512 39.1304 79.61 39.3327 79.6684 39.452Z" fill="#617BE3"/>
<path opacity="0.1091" d="M86.7078 51.3641C89.6494 57.961 92.2614 64.3634 93.2598 71.5573C94.0685 77.4286 94.3641 83.2093 95.5355 89.039C95.557 89.1531 95.865 89.2334 95.8891 89.3293C94.7177 83.4996 94.4221 77.719 93.6134 71.8477C92.615 64.6538 90.0029 58.2514 87.0614 51.6545C87.003 51.5352 86.7662 51.4834 86.7078 51.3641Z" fill="#617BE3"/>
<path opacity="0.1091" d="M86.2723 53.3951C89.2138 59.9919 91.8259 66.3944 92.8243 73.5882C93.633 79.4595 93.9286 85.2402 95.1 91.0699L95.544 90.9842C94.3726 85.1545 94.077 79.3738 93.2683 73.5025C92.2699 66.3087 89.6578 59.9062 86.7163 53.3094C86.7214 53.2731 86.2881 53.4158 86.2723 53.3951Z" fill="#617BE3"/>
<path opacity="0.1091" d="M83.7434 79.7853C78.2193 76.9989 72.732 74.2177 67.4856 70.9255C62.1338 67.5809 57.7964 63.8342 53.2523 59.4196C53.334 59.5063 53.2584 59.7774 53.3401 59.864C57.8024 64.1919 62.2743 68.0515 67.5734 71.3699C72.8198 74.6621 78.3097 77.4249 83.8312 80.2297C83.7417 80.1984 83.8303 79.8351 83.7434 79.7853Z" fill="#617BE3"/>
<path opacity="0.1091" d="M91.5976 84.9655C84.4385 81.3857 76.9352 77.983 70.0405 73.8581C67.9519 72.5501 65.8634 71.2422 63.7748 69.9342C59.6895 67.1997 55.9871 64.0119 52.6652 60.389C52.6151 60.3444 52.2764 60.6162 52.2448 60.5741C57.6982 65.8679 62.9812 70.236 69.6017 74.0406C76.625 78.0521 83.9286 81.5395 91.1588 85.1481C91.2641 85.2004 91.5107 84.9157 91.5976 84.9655Z" fill="#617BE3"/>
<path opacity="0.1091" d="M81.4904 80.3141C75.9663 77.5277 70.4791 74.7465 65.2326 71.4543C59.8809 68.1098 55.5434 64.363 50.9994 59.9485C51.0995 60.0377 51.0238 60.3088 51.124 60.398C55.5863 64.7259 60.0582 68.5855 65.3573 71.9039C70.6063 75.1776 76.0936 77.9589 81.6151 80.7637C81.5097 80.7113 81.5773 80.3639 81.4904 80.3141Z" fill="#617BE3"/>
<path opacity="0.1091" d="M91.4069 84.1875C84.2685 80.4603 76.7335 77.0156 69.8204 72.888C63.4445 69.0802 57.9143 64.7337 52.4902 59.632C52.3901 59.5427 52.1352 59.6196 52.0376 59.512C57.4861 64.9741 62.7323 69.337 69.4607 73.1756C76.4314 77.161 83.7033 80.6063 90.9542 84.0675C91.0938 84.1435 91.2832 84.1325 91.4069 84.1875Z" fill="#617BE3"/>
<path opacity="0.1091" d="M81.6567 79.5298C76.1326 76.7434 70.6454 73.9621 65.3989 70.67C60.0472 67.3254 55.7097 63.5786 51.1656 59.1641C51.1973 59.2061 50.9429 59.5461 50.9746 59.5881C55.4369 63.916 59.9088 67.7756 65.2079 71.094C70.4543 74.3861 75.9442 77.1489 81.4657 79.9538C81.4683 79.9354 81.6567 79.5298 81.6567 79.5298Z" fill="#617BE3"/>
<path opacity="0.1091" d="M82.5711 81.4425C77.047 78.6561 71.5598 75.8749 66.3133 72.5827C60.9616 69.2381 56.6241 65.4914 52.08 61.0768C51.9799 60.9876 51.7276 61.0461 51.6458 60.9595C56.1082 65.2874 60.58 69.1469 65.8791 72.4653C71.1255 75.7575 76.6154 78.5203 82.1369 81.3251C82.2765 81.4011 82.4474 81.3876 82.5711 81.4425Z" fill="#617BE3"/>
<path opacity="0.1091" d="M83.8897 80.4823C78.3656 77.6959 72.8783 74.9147 67.6319 71.6225C62.2801 68.278 57.9243 64.5286 53.3802 60.1141C53.4303 60.1587 53.1943 60.5012 53.226 60.5433C57.6699 64.8686 62.1417 68.7281 67.4408 72.0465C72.6873 75.3387 78.1771 78.1015 83.6986 80.9063C83.7197 80.8905 83.9081 80.4849 83.8897 80.4823Z" fill="#617BE3"/>
<path opacity="0.1091" d="M91.3476 83.5403C84.1885 79.9605 76.6852 76.5578 69.7905 72.4329C67.7019 71.1249 65.6134 69.817 63.5248 68.509C59.4395 65.7745 55.7345 62.6051 52.4152 58.9638C52.3334 58.8772 52.0287 59.041 51.9654 58.957C57.4188 64.2507 62.7018 68.6188 69.3249 72.405C76.3482 76.4166 83.6518 79.9039 90.882 83.5125C91.019 83.6068 91.2239 83.4854 91.3476 83.5403Z" fill="#617BE3"/>
<path opacity="0.1091" d="M81.7785 80.8051C70.3116 75.0044 61.1373 69.9954 51.3032 60.4604C51.3691 60.5261 51.5167 60.6783 51.6169 60.7675C56.7224 65.7306 56.8182 66.2513 62.7265 70.3127C68.8377 74.5342 75.5174 77.7836 82.108 81.1332C81.9684 81.0572 81.9022 80.8601 81.7785 80.8051Z" fill="#617BE3"/>
<path opacity="0.1091" d="M90.4124 84.179C83.2533 80.5992 75.75 77.1965 68.8553 73.0715C66.7667 71.7636 64.6782 70.4556 62.5896 69.1477C58.5043 66.4132 54.7993 63.2437 51.48 59.6025C51.5459 59.6681 51.3888 59.9841 51.4521 60.0682C56.9055 65.3619 62.1885 69.73 68.809 73.5346C75.8323 77.5462 83.1359 81.0335 90.3661 84.6421C90.3345 84.6001 90.4651 84.2051 90.4124 84.179Z" fill="#617BE3"/>
<path opacity="0.1091" d="M91.5499 83.5689C86.5288 81.0786 81.5103 78.5699 76.5154 76.027C67.6533 71.8697 59.8164 66.2973 52.9863 59.3073C52.8862 59.2181 52.7176 59.0816 52.6491 59.0345C54.8289 61.163 56.2447 62.7145 58.2211 64.42C68.0789 72.85 80.4232 78.1541 91.8978 83.8996C91.7608 83.8052 91.6895 83.6449 91.5499 83.5689Z" fill="#617BE3"/>
<path opacity="0.1091" d="M83.1315 81.3335C77.6074 78.547 72.1201 75.7658 66.8737 72.4736C61.5404 69.1317 57.1845 65.3823 52.6378 60.9862C52.5719 60.9206 52.2436 61.1187 52.1777 61.0531C56.6401 65.3809 61.1119 69.2405 66.411 72.5589C71.6574 75.8511 77.1473 78.6139 82.6688 81.4187C82.7925 81.4737 83.0262 81.2811 83.1315 81.3335Z" fill="#617BE3"/>
<path opacity="0.1091" d="M105.138 54.1316C106.56 71.3126 106.649 88.4538 105.404 105.573C105.403 105.721 105.521 105.866 105.5 106.011C106.317 94.602 106.566 83.1688 106.207 71.7239C105.967 66.0114 105.65 60.288 105.234 54.5692C105.232 54.4399 105.137 54.279 105.138 54.1316Z" fill="#617BE3"/>
<path opacity="0.1091" d="M104.113 55.2595C104.879 63.8115 105.229 72.379 105.128 80.9383C105.316 89.5382 105.072 98.1328 104.399 106.704C104.407 106.65 104.827 106.598 104.837 106.526C105.547 97.9782 105.805 89.4225 105.595 80.8379C105.701 72.2424 105.353 63.6569 104.552 55.0814C104.544 55.1356 104.102 55.2025 104.113 55.2595Z" fill="#617BE3"/>
<path opacity="0.1091" d="M103.758 71.7853C104.117 83.2302 103.887 94.6661 103.052 106.072C103.051 106.22 103.187 106.368 103.186 106.515C104.003 95.1064 104.233 83.6705 103.893 72.2283C103.894 72.0809 103.757 71.9327 103.758 71.7853Z" fill="#617BE3"/>
<path opacity="0.1091" d="M103.887 54.214C104.684 62.8257 105.01 71.4265 104.92 80.0428C105.116 88.5885 104.861 97.1261 104.173 105.658C104.168 105.694 104.633 105.741 104.65 105.762C105.348 97.1578 105.594 88.5451 105.389 79.9244C105.488 71.3831 105.152 62.8546 104.381 54.3387C104.35 54.2791 103.882 54.2501 103.887 54.214Z" fill="#617BE3"/>
<path opacity="0.1091" d="M102.776 54.2787C103.539 62.8489 103.87 71.4136 103.786 79.9937C103.976 88.5755 103.735 97.152 103.045 105.702C103.046 105.555 103.221 105.432 103.241 105.287C103.931 96.7371 104.172 88.1606 103.982 79.5787C104.085 71.0013 103.738 62.4158 102.936 53.8403C102.935 53.9876 102.775 54.1495 102.776 54.2787Z" fill="#617BE3"/>
<path opacity="0.1091" d="M104.444 72.7851C104.803 84.2301 104.573 95.666 103.738 107.072C103.735 107.09 104.198 107.155 104.215 107.176C105.031 95.7672 105.259 84.3494 104.919 72.9072C104.924 72.871 104.459 72.824 104.444 72.7851Z" fill="#617BE3"/>
<path opacity="0.1091" d="M106.113 72.3928C106.472 83.8377 106.242 95.2736 105.406 106.68C105.407 106.532 105.582 106.409 105.583 106.262C106.399 94.8533 106.649 83.4201 106.29 71.9752C106.291 72.1044 106.114 72.2455 106.113 72.3928Z" fill="#617BE3"/>
<path opacity="0.1091" d="M103.804 53.6857C104.586 62.2585 104.936 70.8259 104.832 79.4033C105.023 87.9852 104.782 96.5617 104.092 105.112C104.092 105.112 104.582 105.126 104.562 105.123C105.252 96.5725 105.513 87.9988 105.303 79.4142C105.407 70.8368 105.059 62.2513 104.277 53.6785L103.804 53.6857Z" fill="#617BE3"/>
<path opacity="0.1091" d="M103.111 55.1186C103.893 63.6914 104.221 72.2742 104.118 80.8516C104.309 89.4335 104.067 98.0099 103.377 106.56C103.362 106.669 103.718 106.793 103.725 106.886C104.415 98.3354 104.656 89.7589 104.466 81.177C104.569 72.5996 104.222 64.0141 103.439 55.4413C103.435 55.3301 103.115 55.2298 103.111 55.1186Z" fill="#617BE3"/>
<path opacity="0.1091" d="M103.282 54.7374C104.136 72.0413 104.213 88.8489 103.553 106.143C103.546 106.197 103.565 106.2 103.553 106.143C104.362 97.5908 104.661 89.0224 104.453 80.4197C104.577 71.6977 104.187 62.9956 103.304 54.298C103.323 54.4481 103.283 54.59 103.282 54.7374Z" fill="#617BE3"/>
<path opacity="0.1091" d="M104.487 53.7265C105.269 62.2993 105.619 70.8668 105.513 79.4622C105.704 88.0441 105.462 96.6206 104.772 105.171C104.759 105.261 105.138 105.37 105.144 105.463C105.834 96.9126 106.095 88.3388 105.885 79.7542C105.989 71.1768 105.641 62.5913 104.856 54.0366C104.852 53.9254 104.493 53.8196 104.487 53.7265Z" fill="#617BE3"/>
<path opacity="0.1091" d="M104.039 55.6549C104.819 64.2458 105.164 72.8494 105.055 81.4629C105.246 90.0448 105.004 98.6213 104.314 107.172C104.319 107.135 104.773 107.125 104.778 107.089C105.469 98.539 105.729 89.9652 105.519 81.3806C105.62 72.8213 105.287 64.2747 104.502 55.7199C104.524 55.7046 104.053 55.6937 104.039 55.6549Z" fill="#617BE3"/>
<path opacity="0.1091" d="M102.069 102.744C92.9305 101.441 85.4482 97.2332 77.8459 92.3998C77.9336 92.449 77.8482 92.7877 77.9358 92.8369C85.5381 97.6704 93.0178 101.896 102.159 103.181C102.122 103.175 102.125 102.751 102.069 102.744Z" fill="#617BE3"/>
<path opacity="0.1091" d="M99.8219 103.259C90.6809 101.974 83.2012 97.7484 75.5989 92.9149C75.6865 92.9642 75.6222 93.2873 75.7258 93.3573C83.3281 98.1907 90.8104 102.398 99.9488 103.701C99.8746 103.691 99.8775 103.267 99.8219 103.259Z" fill="#617BE3"/>
<path opacity="0.1091" d="M99.9684 102.486C90.8274 101.201 83.3476 96.9753 75.7453 92.1418C75.7639 92.1444 75.5385 92.5373 75.5545 92.558C83.1568 97.3914 90.6551 101.62 99.7775 102.902C99.8331 102.91 99.9313 102.48 99.9684 102.486Z" fill="#617BE3"/>
<path opacity="0.1091" d="M100.476 104.255C91.6456 102.645 83.7286 99.2433 76.709 94.0304C76.5869 93.9578 76.3938 93.9861 76.2716 93.9135C83.9616 98.7962 91.7885 103.108 100.951 104.377C100.765 104.351 100.622 104.294 100.476 104.255Z" fill="#617BE3"/>
<path opacity="0.1091" d="M100.123 103.135C96.0746 102.344 92.2347 101.011 88.5848 99.1323C84.7913 97.6025 81.2545 95.5921 78.014 93.088C78.03 93.1087 77.8071 93.4834 77.8417 93.5068C81.0822 96.0108 84.6165 98.0394 88.4125 99.551C92.0464 101.409 95.8863 102.742 99.9509 103.553C99.9695 103.556 100.107 103.114 100.123 103.135Z" fill="#617BE3"/>
<path opacity="0.1091" d="M101.476 104.266C92.3431 102.927 84.8742 98.7586 77.2534 93.9225C77.1498 93.8526 76.8917 94.0747 76.8066 94.0074C84.3929 98.8201 91.9021 103.105 101.032 104.333C101.159 104.369 101.328 104.245 101.476 104.266Z" fill="#617BE3"/>
<path opacity="0.1091" d="M103.525 103.28C99.3584 104.134 95.6955 102.752 91.5625 101.082C89.092 99.9601 86.6216 98.8377 84.1511 97.7154C79.3378 95.1011 75.0055 91.8899 71.1355 88.0793C71.085 88.0353 70.7636 88.3039 70.7131 88.2599C76.9579 93.6038 83.1896 98.5031 91.14 101.263C94.9615 102.594 99.0709 104.297 103.105 103.443C103.24 103.425 103.369 103.314 103.525 103.28Z" fill="#617BE3"/>
<path opacity="0.1091" d="M102.89 102.416C101.66 102.428 100.41 102.437 99.1797 102.449C95.1336 101.64 91.2751 100.304 87.6413 98.4461C81.2806 95.5404 76.3233 91.7985 70.9569 87.3346C70.8558 87.2466 70.602 87.3032 70.501 87.2152C74.3531 91.1525 78.7124 94.4412 83.5999 97.066C87.1712 99.0998 90.9301 100.606 94.9162 101.572C98.5111 102.631 99.9403 103.091 103.367 102.52C103.193 102.551 103.009 102.378 102.89 102.416Z" fill="#617BE3"/>
<path opacity="0.1091" d="M102.797 101.868C96.0012 101.522 89.7021 99.6586 83.8763 96.3114C79.063 93.697 74.7281 90.504 70.8606 86.6753C70.7756 86.6079 70.4905 86.7524 70.408 86.667C78.6289 93.6914 87.6215 100.068 98.661 101.97C99.3816 102.089 100.092 102.282 100.812 102.272C101.757 102.276 101.83 102.157 103.252 101.858C103.112 101.912 102.953 101.835 102.797 101.868Z" fill="#617BE3"/>
<path opacity="0.1091" d="M100.113 103.742C88.1884 102.085 78.6908 95.8039 69.7304 88.1219C69.85 88.2125 69.9434 88.3548 70.0631 88.4455C74.9728 92.6606 77.223 95.0808 83.0787 98.0816C88.5282 100.878 94.3297 103.188 100.446 104.066C100.316 104.048 100.243 103.761 100.113 103.742Z" fill="#617BE3"/>
<path opacity="0.1091" d="M102.33 102.504C98.1636 103.358 94.5192 101.978 90.4048 100.311C87.9343 99.1885 85.4824 98.0688 83.012 96.9464C78.1987 94.3321 73.8292 91.1157 69.9407 87.3025C70.0073 87.3672 69.8477 87.6955 69.9142 87.7602C76.1565 93.1223 82.3696 98.0189 90.3412 100.763C94.1626 102.094 98.272 103.797 102.324 102.946C102.343 102.948 102.29 102.516 102.33 102.504Z" fill="#617BE3"/>
<path opacity="0.1091" d="M103.47 101.925C92.9193 104.078 76.586 91.4106 71.4185 87.0116C71.3174 86.9236 71.1472 86.789 71.0782 86.7423C77.8789 92.5705 75.4241 90.9336 80.9969 94.4667C85.0929 97.0725 86.4541 98.1497 91.8614 100.035C95.6829 101.366 99.7923 103.07 103.826 102.215C103.731 102.22 103.568 101.902 103.47 101.925Z" fill="#617BE3"/>
</svg>
