<svg width="234" height="162" viewBox="0 0 234 162" fill="none" xmlns="http://www.w3.org/2000/svg">
<path d="M27.5198 149.3C27.7259 136.093 35.6988 121.983 50.2417 119.909C61.3731 118.322 75.091 121.65 83.9375 127.475C88.3772 130.399 94.5277 137.281 88.3772 141.738C79.9145 147.871 64.916 137.143 60.8524 125.502C54.8147 108.204 60.0711 90.3569 72.3383 77.0667C87.5563 60.5799 114.525 44.7705 137.139 54.2173C147.684 58.6224 153.149 65.2299 156.768 75.7833C159.649 84.1849 161.613 94.8165 154.885 102.307C143.813 114.633 128.865 104.354 121.861 93.4224C107.667 71.2721 115.319 38.5171 137.623 24.7907C157.187 12.7508 180.383 7.48084 202.888 4.47076" stroke="black" stroke-width="3" stroke-linecap="round"/>
</svg>
