<svg width="148" height="165" viewBox="0 0 148 165" fill="none" xmlns="http://www.w3.org/2000/svg">
<path d="M93.7116 117.375C96.2137 122.243 103.496 122.229 106.896 117.962C110.577 113.341 107.355 106.939 102.697 104.945C97.532 102.737 91.2263 106.499 90.1452 112.178C89.0641 117.857 94.1374 122.606 99.5618 121.706C101.018 121.468 100.449 119.232 99.0097 119.474C94.9259 120.149 91.3498 116.071 92.5024 111.99C93.6551 107.908 98.3726 105.408 102.122 107.254C105.054 108.696 107.43 112.656 105.534 115.951C103.453 119.556 97.5736 119.81 95.6982 116.185C95.0218 114.874 93.0276 116.067 93.7021 117.37L93.7116 117.375Z" fill="#10100E"/>
<path d="M48.0158 47.3642C50.3789 51.9613 57.2562 51.9487 60.4673 47.9186C63.9438 43.5539 60.9013 37.5078 56.5022 35.6245C51.6239 33.5396 45.6685 37.0922 44.6475 42.4555C43.6264 47.8189 48.4179 52.3048 53.541 51.4545C54.9163 51.2293 54.3786 49.118 53.0195 49.3464C49.1626 49.9834 45.7851 46.1325 46.8737 42.2777C47.9624 38.4228 52.4178 36.0615 55.9588 37.8057C58.7282 39.167 60.9722 42.9075 59.1815 46.0194C57.2158 49.4242 51.6632 49.6638 49.892 46.2401C49.2532 45.0021 47.3698 46.1282 48.0068 47.3589L48.0158 47.3642Z" fill="#10100E"/>
<path d="M18.4608 118.171H39.0205C40.5415 118.171 40.5473 116.18 39.0205 116.18H18.4608C16.934 116.18 16.934 118.171 18.4608 118.171Z" fill="#10100E"/>
<path d="M27.7641 126.4V106.818C27.7641 105.279 25.7773 105.279 25.7773 106.818V126.4C25.7773 127.945 27.7641 127.945 27.7641 126.4Z" fill="#10100E"/>
<path d="M115.011 44.6098C117.374 49.2069 124.252 49.1943 127.463 45.1642C130.939 40.7995 127.897 34.7534 123.498 32.8701C118.619 30.7852 112.664 34.3378 111.643 39.7011C110.622 45.0645 115.413 49.5504 120.537 48.7001C121.912 48.4749 121.374 46.3636 120.015 46.592C116.158 47.229 112.781 43.3782 113.869 39.5233C114.958 35.6684 119.413 33.3071 122.954 35.0513C125.724 36.4126 127.968 40.1531 126.177 43.265C124.211 46.6698 118.659 46.9094 116.888 43.4857C116.249 42.2477 114.365 43.3739 115.002 44.6045L115.011 44.6098Z" fill="#10100E"/>
<path d="M93.3311 106.687C93.3311 106.687 63.2841 77.7299 54.2715 48.3402" stroke="black" stroke-width="2"/>
</svg>
