<svg width="127" height="125" viewBox="0 0 127 125" fill="none" xmlns="http://www.w3.org/2000/svg">
<g opacity="0.5">
<mask id="mask0_1350_776" style="mask-type:alpha" maskUnits="userSpaceOnUse" x="0" y="0" width="127" height="125">
<rect x="127" y="125" width="127" height="125" transform="rotate(-180 127 125)" fill="#C4C4C4"/>
</mask>
<g mask="url(#mask0_1350_776)">
<rect x="126.367" y="396.504" width="0.7" height="541" transform="rotate(-165 126.367 396.504)" fill="white"/>
<rect x="122.504" y="395.469" width="0.7" height="541" transform="rotate(-165 122.504 395.469)" fill="white"/>
<rect x="118.641" y="394.433" width="0.7" height="541" transform="rotate(-165 118.641 394.433)" fill="white"/>
<rect x="114.777" y="393.398" width="0.7" height="541" transform="rotate(-165 114.777 393.398)" fill="white"/>
<rect x="110.914" y="392.363" width="0.7" height="541" transform="rotate(-165 110.914 392.363)" fill="white"/>
<rect x="107.551" y="391.462" width="0.7" height="541" transform="rotate(-165 107.551 391.462)" fill="white"/>
<rect x="84.3691" y="385.25" width="0.7" height="541" transform="rotate(-165 84.3691 385.25)" fill="white"/>
<rect x="103.688" y="390.427" width="0.7" height="541" transform="rotate(-165 103.688 390.427)" fill="white"/>
<rect x="80.5039" y="384.215" width="0.7" height="541" transform="rotate(-165 80.5039 384.215)" fill="white"/>
<rect x="99.8242" y="389.391" width="0.7" height="541" transform="rotate(-165 99.8242 389.391)" fill="white"/>
<rect x="76.6406" y="383.18" width="0.7" height="541" transform="rotate(-165 76.6406 383.18)" fill="white"/>
<rect x="95.959" y="388.356" width="0.7" height="541" transform="rotate(-165 95.959 388.356)" fill="white"/>
<rect x="72.7773" y="382.145" width="0.7" height="541" transform="rotate(-165 72.7773 382.145)" fill="white"/>
<rect x="92.0957" y="387.321" width="0.7" height="541" transform="rotate(-165 92.0957 387.321)" fill="white"/>
<rect x="68.9141" y="381.109" width="0.7" height="541" transform="rotate(-165 68.9141 381.109)" fill="white"/>
<rect x="88.2324" y="386.286" width="0.7" height="541" transform="rotate(-165 88.2324 386.286)" fill="white"/>
<rect x="65.0508" y="380.074" width="0.7" height="541" transform="rotate(-165 65.0508 380.074)" fill="white"/>
<rect x="61.1855" y="379.039" width="0.7" height="541" transform="rotate(-165 61.1855 379.039)" fill="white"/>
<rect x="38.0039" y="372.827" width="0.7" height="541" transform="rotate(-165 38.0039 372.827)" fill="white"/>
<rect x="57.3223" y="378.003" width="0.7" height="541" transform="rotate(-165 57.3223 378.003)" fill="white"/>
<rect x="34.1406" y="371.792" width="0.7" height="541" transform="rotate(-165 34.1406 371.792)" fill="white"/>
<rect x="53.459" y="376.968" width="0.7" height="541" transform="rotate(-165 53.459 376.968)" fill="white"/>
<rect x="30.2773" y="370.756" width="0.7" height="541" transform="rotate(-165 30.2773 370.756)" fill="white"/>
<rect x="49.5957" y="375.933" width="0.7" height="541" transform="rotate(-165 49.5957 375.933)" fill="white"/>
<rect x="26.4121" y="369.721" width="0.7" height="541" transform="rotate(-165 26.4121 369.721)" fill="white"/>
<rect x="45.7324" y="374.897" width="0.7" height="541" transform="rotate(-165 45.7324 374.897)" fill="white"/>
<rect x="22.5488" y="368.686" width="0.7" height="541" transform="rotate(-165 22.5488 368.686)" fill="white"/>
<rect x="41.8672" y="373.862" width="0.7" height="541" transform="rotate(-165 41.8672 373.862)" fill="white"/>
<rect x="18.6855" y="367.65" width="0.7" height="541" transform="rotate(-165 18.6855 367.65)" fill="white"/>
<rect x="14.8223" y="366.615" width="0.7" height="541" transform="rotate(-165 14.8223 366.615)" fill="white"/>
<rect x="-8.35938" y="360.404" width="0.7" height="541" transform="rotate(-165 -8.35938 360.404)" fill="white"/>
<rect x="10.959" y="365.58" width="0.7" height="541" transform="rotate(-165 10.959 365.58)" fill="white"/>
<rect x="-12.2246" y="359.368" width="0.7" height="541" transform="rotate(-165 -12.2246 359.368)" fill="white"/>
<rect x="7.09375" y="364.545" width="0.7" height="541" transform="rotate(-165 7.09375 364.545)" fill="white"/>
<rect x="-16.0879" y="358.333" width="0.7" height="541" transform="rotate(-165 -16.0879 358.333)" fill="white"/>
<rect x="3.23047" y="363.509" width="0.7" height="541" transform="rotate(-165 3.23047 363.509)" fill="white"/>
<rect x="-19.9512" y="357.298" width="0.7" height="541" transform="rotate(-165 -19.9512 357.298)" fill="white"/>
<rect x="-0.632812" y="362.474" width="0.7" height="541" transform="rotate(-165 -0.632812 362.474)" fill="white"/>
<rect x="-23.8145" y="356.263" width="0.7" height="541" transform="rotate(-165 -23.8145 356.263)" fill="white"/>
<rect x="-4.49609" y="361.439" width="0.7" height="541" transform="rotate(-165 -4.49609 361.439)" fill="white"/>
<rect x="-27.6797" y="355.227" width="0.7" height="541" transform="rotate(-165 -27.6797 355.227)" fill="white"/>
<rect x="-31.543" y="354.192" width="0.7" height="541" transform="rotate(-165 -31.543 354.192)" fill="white"/>
<rect x="-54.7246" y="347.98" width="0.7" height="541" transform="rotate(-165 -54.7246 347.98)" fill="white"/>
<rect x="-35.4062" y="353.157" width="0.7" height="541" transform="rotate(-165 -35.4062 353.157)" fill="white"/>
<rect x="-58.5879" y="346.945" width="0.7" height="541" transform="rotate(-165 -58.5879 346.945)" fill="white"/>
<rect x="-39.2695" y="352.122" width="0.7" height="541" transform="rotate(-165 -39.2695 352.122)" fill="white"/>
<rect x="-62.4531" y="345.91" width="0.7" height="541" transform="rotate(-165 -62.4531 345.91)" fill="white"/>
<rect x="-43.1328" y="351.086" width="0.7" height="541" transform="rotate(-165 -43.1328 351.086)" fill="white"/>
<rect x="-66.3164" y="344.875" width="0.7" height="541" transform="rotate(-165 -66.3164 344.875)" fill="white"/>
<rect x="-46.998" y="350.051" width="0.7" height="541" transform="rotate(-165 -46.998 350.051)" fill="white"/>
<rect x="-70.1797" y="343.839" width="0.7" height="541" transform="rotate(-165 -70.1797 343.839)" fill="white"/>
<rect x="-50.8613" y="349.016" width="0.7" height="541" transform="rotate(-165 -50.8613 349.016)" fill="white"/>
<rect x="-74.043" y="342.804" width="0.7" height="541" transform="rotate(-165 -74.043 342.804)" fill="white"/>
<rect x="-77.9062" y="341.769" width="0.7" height="541" transform="rotate(-165 -77.9062 341.769)" fill="white"/>
<rect x="-101.09" y="335.557" width="0.7" height="541" transform="rotate(-165 -101.09 335.557)" fill="white"/>
<rect x="-81.7715" y="340.733" width="0.7" height="541" transform="rotate(-165 -81.7715 340.733)" fill="white"/>
<rect x="-104.953" y="334.521" width="0.7" height="541" transform="rotate(-165 -104.953 334.521)" fill="white"/>
<rect x="-85.6348" y="339.698" width="0.7" height="541" transform="rotate(-165 -85.6348 339.698)" fill="white"/>
<rect x="-108.816" y="333.486" width="0.7" height="541" transform="rotate(-165 -108.816 333.486)" fill="white"/>
<rect x="-89.498" y="338.663" width="0.7" height="541" transform="rotate(-165 -89.498 338.663)" fill="white"/>
<rect x="-112.68" y="332.451" width="0.7" height="541" transform="rotate(-165 -112.68 332.451)" fill="white"/>
<rect x="-93.3613" y="337.627" width="0.7" height="541" transform="rotate(-165 -93.3613 337.627)" fill="white"/>
<rect x="-116.545" y="331.416" width="0.7" height="541" transform="rotate(-165 -116.545 331.416)" fill="white"/>
<rect x="-97.2246" y="336.592" width="0.7" height="541" transform="rotate(-165 -97.2246 336.592)" fill="white"/>
<rect x="-120.408" y="330.38" width="0.7" height="541" transform="rotate(-165 -120.408 330.38)" fill="white"/>
<rect x="-124.271" y="329.345" width="0.7" height="541" transform="rotate(-165 -124.271 329.345)" fill="white"/>
<rect x="-128.135" y="328.31" width="0.7" height="541" transform="rotate(-165 -128.135 328.31)" fill="white"/>
<rect x="-131.998" y="327.275" width="0.7" height="541" transform="rotate(-165 -131.998 327.275)" fill="white"/>
<rect x="-135.863" y="326.239" width="0.7" height="541" transform="rotate(-165 -135.863 326.239)" fill="white"/>
<rect x="-139.727" y="325.204" width="0.7" height="541" transform="rotate(-165 -139.727 325.204)" fill="white"/>
</g>
</g>
</svg>
