<svg width="225" height="655" viewBox="0 0 225 655" fill="none" xmlns="http://www.w3.org/2000/svg">
<g opacity="0.85">
<g opacity="0.85">
<path d="M90.1992 137.557C91.5144 137.47 93.0049 137.207 94.3376 136.821C95.9512 138.295 97.7051 139.908 99.3011 141.399C101.388 139.102 103.457 137.103 105.666 134.929C108.033 133.86 110.523 132.913 112.75 132.019C110.75 126.898 109.294 125.583 108.627 120.392C110.258 119.288 111.889 118.183 113.625 117.219C116.08 119.499 118.693 121.902 121.307 124.34C122.622 125.55 124.06 126.883 125.375 128.093C125.218 129.584 125.06 130.723 124.762 132.074C127.989 132.46 131.374 132.864 134.583 133.268L136.775 135.249C137.354 137.056 137.933 138.582 138.81 140.335C141.457 136.6 142.458 142.686 145.106 141.231C149.035 146.106 149.193 153.664 153.595 150.561C153.595 153.156 155.805 156.068 158.453 158.155C164.748 153.509 158.489 165.24 164.924 160.734C163.75 164.188 168.924 168.801 171.993 167.065C179.043 174.397 188.707 181.29 198.159 185.798C203.333 188.447 212.067 194.586 213.821 201.144C215.733 201.548 216.136 199.04 217.433 197.953C218.047 199.128 220.853 199.971 219.556 201.373C219.135 202.916 220.187 203.513 220.942 204.162C222.257 204.355 222.976 203.075 223.695 202.11C231.413 218.946 249.281 210.689 256.842 227.473C259.489 222.826 261.454 229.525 264.557 224.949C269.187 227.334 273.659 229.913 278.166 232.105C284.287 234.439 289.356 240.559 294.95 244.646C296.266 248.241 298.914 248.294 300.738 246.401C304.508 249.295 308.472 251.891 312.278 254.75C314.085 259.046 315.944 260.555 320.924 260.345C323.379 262.38 325.975 264.519 328.273 266.431C331.868 271.289 334.639 272.903 335.621 269.396L337.006 270.536C339.462 272.22 341.882 273.588 344.46 275.079C345.214 275.377 346.249 275.605 347.178 276.044C348.721 277.622 350.3 279.516 351.878 281.095C353.089 284.234 356.035 281.709 357.49 281.341C359.945 283.341 362.436 285.34 364.891 287.34C367.364 291.461 369.732 289.059 370.679 290.462L384.183 301.266C387.41 301.091 389.286 302.582 391.303 304.214C391.216 305.073 390.97 305.774 390.865 306.616C391.637 307.247 392.268 307.738 393.058 308.352C396.477 308.616 398.757 309.809 401.703 309.388C402.334 309.879 403.089 310.493 403.878 311.107C404.071 311.861 404.404 312.44 404.773 313.334C406.193 314.439 407.736 315.667 409.157 316.772C410.823 317.491 412.068 318.14 413.576 318.737C414.751 318.755 415.944 318.755 417.259 318.597C417.189 319.754 417.259 320.736 417.312 321.701C418.855 322.613 420.223 323.069 421.732 323.666C423.152 324.771 424.24 325.648 425.485 326.612C427.256 326.49 428.729 326.385 430.5 326.262C433.096 327.385 434.025 329.928 433.167 334.084C435.096 334.049 437.007 334.032 438.796 334.207C439.427 334.699 439.901 335.067 440.374 335.435C443.513 335.734 446.67 336.366 449.791 336.682C453.843 339.541 458.718 339.366 461.665 344.627C463.12 344.224 464.576 343.821 465.856 343.313C467.399 344.19 468.767 344.646 470.31 345.207C474.501 342.385 477.308 350.837 481.972 348.383C484.182 350.067 486.567 351.891 488.777 353.575C487.462 355.591 486.305 357.415 485.008 359.414C483.885 360.045 482.746 360.694 481.764 361.149C480.624 359.974 479.606 358.606 478.484 357.449C477.133 354.029 474.749 358.799 473.486 357.851C470.61 357.15 467.734 356.483 464.84 355.483C462.771 353.904 460.877 352.466 458.807 350.887C453.371 349.764 448.11 348.711 442.814 347.343C441.235 346.115 439.815 345.01 438.236 343.817C435.763 342.502 433.133 341.063 430.8 339.572C430.52 341.782 430.24 343.991 429.819 346.061C426.54 347.761 423.12 342.096 421.542 348.444C413.51 344.69 406.564 334.273 396.78 340.584C390.941 343.898 388.889 342.617 386.749 341.53C386.802 340.039 386.679 338.444 386.416 337.023C386.976 334.428 386.871 332.814 386.923 331.324C385.555 328.728 383.381 331.604 381.768 331.814C379.664 333.497 377.384 335.04 375.122 336.601C368.002 332.145 361.18 327.602 354.199 322.972C352.533 317.658 348.886 321.2 346.36 320.989C345.431 320.235 344.344 319.358 343.396 318.586C341.976 317.13 340.695 315.464 339.415 314.149C336.328 309.168 334.943 313.605 333.663 312.254C332.944 312.272 332.19 312.289 331.436 311.991C328.19 304.432 324.614 309.552 323.281 306.922C322.754 305.589 322.246 304.238 321.702 302.572C320.702 302.976 319.808 303.203 318.931 303.414C318.317 302.905 317.844 302.537 317.37 302.168C313.389 296.398 312.688 303.588 310.18 300.589C309.707 299.87 309.215 298.853 308.707 297.818C306.918 297.572 305.27 297.151 303.621 296.73C303.568 295.766 303.41 292.521 304.023 289.628C303.708 289.382 303.567 289.242 303.252 288.997C298.149 290.662 290.836 286.505 287.275 283.26C283.558 282.979 279.488 277.682 276.226 274.034C271.421 275.612 268.422 271.56 266.089 268.667L258.741 262.51L251.427 256.319C247.991 259.685 247.113 255.161 245.097 256.897C242.729 257.089 238.169 253.196 238.52 249.723C238.064 249.338 237.608 248.952 236.994 248.443C231.716 249.582 232.539 247.46 227.051 247.512C221.438 242.391 215.826 236.884 210.389 231.552C208.898 230.903 208.373 233.919 207.443 232.183C203.287 231.428 208.091 227.676 205.215 225.501C200.551 228.411 199.077 221.782 195.289 224.518C194.551 216.24 185.748 218.028 182.223 211.767C173.577 207.048 164.65 202.4 155.916 197.453C152.356 195.226 148.62 190.297 147.269 185.229C146.673 184.703 145.936 184.037 145.2 183.37C143.726 181.721 142.218 179.757 140.902 177.916C139.728 179.126 138.553 179.985 137.518 180.984C131.818 175.389 125.978 169.654 120.436 164.182C113.07 162.988 111 157.587 105.002 153.027C103.248 153.026 101.179 154.359 99.8464 153.166C98.9695 152.359 97.9523 151.412 97.0753 150.605C91.4985 148.395 88.7098 145.817 86.6927 142.327C84.7985 140.573 82.9043 138.819 81.1504 137.205C83.2363 130.454 87.2878 134.856 90.1992 137.557Z" fill="#FEECD1"/>
<path d="M99.7934 152.903C101.109 154.114 103.178 152.781 104.949 152.764C110.947 157.324 113.017 162.726 120.383 163.919C125.942 169.374 131.783 175.109 137.465 180.721C138.5 179.722 139.675 178.828 140.849 177.653C142.182 179.477 143.673 181.459 145.147 183.107C145.883 183.774 146.637 184.423 147.216 184.967C148.567 190.035 152.303 194.963 155.863 197.191C164.597 202.137 173.524 206.786 182.17 211.504C185.678 217.747 194.481 215.96 195.236 224.255C199.024 221.52 200.498 228.184 205.162 225.238C208.021 227.396 203.234 231.165 207.39 231.92C208.302 233.674 208.845 230.64 210.336 231.289C215.773 236.621 221.385 242.128 226.998 247.249C232.486 247.198 231.663 249.319 236.941 248.18C237.555 248.689 238.011 249.075 238.467 249.461C238.134 252.95 242.694 256.844 245.044 256.634C247.06 254.898 247.938 259.423 251.374 256.056L258.688 262.248L266.036 268.404C268.369 271.298 271.351 275.332 276.173 273.772C279.435 277.42 283.505 282.716 287.222 282.997C290.783 286.242 298.096 290.399 303.199 288.734C303.514 288.979 303.655 289.12 303.97 289.365C303.375 292.276 303.533 295.52 303.568 296.467C305.234 296.906 306.883 297.327 308.654 297.555C309.162 298.59 309.654 299.607 310.127 300.326C312.653 303.343 313.336 296.136 317.317 301.906C317.791 302.274 318.247 302.66 318.878 303.151C319.299 302.555 319.702 301.976 320.246 301.187L321.631 302.327C322.175 303.993 322.684 305.344 323.21 306.676C324.543 309.307 328.12 304.187 331.365 311.746C330.892 313.832 330.244 315.779 329.63 317.725C328.35 318.514 326.912 319.531 325.457 320.18C320.739 315.742 319.196 317.25 315.987 315.584C315.355 312.287 312.654 311.971 311.374 310.305C309.971 308.831 308.848 307.288 307.568 305.622C295.871 303.113 291.591 297.746 282.822 294.237C279.77 288.906 277.158 290.115 273.475 290.816C277.194 297.972 278.964 294.167 281.437 296.184C281.648 297.622 281.578 299.095 281.648 300.708C289.908 302.55 295.907 309.32 299.467 315.371C302.168 315.722 304.834 315.757 307.376 315.986C309.498 316.81 311.778 317.723 314.058 318.319C314.672 321.283 315.286 324.247 315.901 327.21C319.987 333.612 322.653 335.751 324.302 338.628C326.863 339.154 329.283 339.575 331.685 339.979C334.386 342.785 337.07 345.574 340.104 348.257C338.596 350.432 336.965 352.799 335.458 354.973C334.195 353.956 332.932 352.974 331.669 351.956C328.845 342.609 325.689 346.817 322.567 344.607C322.654 343.432 322.584 342.45 322.374 341.363C320.55 340.802 318.586 340.135 316.621 339.784C314.464 335.873 312.306 332.278 310.289 328.507C304.555 332.487 302.573 329.348 301.03 328.401C301.818 323.473 295.857 325.997 293.489 323.735C291.893 324.278 289.28 322.752 287.053 323.085C285.948 322.19 285.036 321.419 283.931 320.524C283.773 320.401 283.458 320.156 283.317 320.016C284.019 319.034 284.72 318.052 285.404 317.087C283.825 315.474 282.247 313.545 280.826 311.773C277.406 312.071 276.179 311.054 274.162 309.387C272.303 310.93 270.585 312.333 268.726 313.876C267.797 313.087 266.709 312.21 265.78 311.42C265.429 310.193 265.078 308.965 264.85 307.545C262.465 307.755 260.097 307.632 257.712 307.491C257.379 306.912 257.204 306.141 256.87 305.562L254.555 303.633C255.362 301.178 255.993 298.582 256.483 296.197C250.96 299.371 248.503 290.462 242.769 292.232C239.857 286.34 238.367 286.006 236.876 285.673C236.683 284.568 236.648 283.586 236.753 282.429C238.051 281.657 239.366 280.868 240.961 280.044C241.066 279.203 241.207 278.361 241.47 277.642C239.786 276.204 237.944 274.643 236.261 273.24C240.399 272.679 243.065 273.065 242.171 276.695C243.662 277.344 245.047 278.204 246.538 278.853C256.727 281.467 263.445 292.358 272.686 290.132C270.406 285.748 269.423 283.363 267.407 284.467C255.515 273.348 236.172 266.944 225.736 250.511C223.526 250.826 221.439 250.949 219.247 251.247C211.706 245.669 204.813 236.251 196.921 234.812C197.658 234.181 197.622 233.199 197.464 232.445C194.728 229.112 190.836 234.302 188.311 233.355C187.381 231.584 186.311 229.707 185.241 227.796C187.485 221.167 179.436 225.883 177.454 222.569C175.63 219.692 173.508 216.869 171.701 214.326C167.965 211.993 160.81 207.608 155.41 212.061C154.533 211.921 153.796 211.886 153.182 211.693C148.131 208.465 143.063 204.905 138.152 201.502C139.765 199.398 141.519 197.118 143.132 195.049C143.114 192.471 140.15 191.436 138.799 189.595C138.063 188.928 137.467 188.402 136.712 187.718C135.836 188.209 135.082 188.507 134.503 188.945L127.417 182.526C125.208 182.771 124.191 185.717 121.806 185.191C120.771 184.261 119.894 183.454 118.842 182.507C119.438 179.807 119.718 177.176 120.314 174.476C120.77 172.301 118.385 171.775 117.525 170.319C114.562 172.16 111.773 168.986 108.354 169.774C106.88 168.441 105.565 167.231 104.074 165.881C104.53 163.706 102.18 163.145 101.145 161.9C101.162 156.726 98.9698 156.323 99.8813 154.219C99.9339 153.991 99.9338 153.359 99.7934 152.903Z" fill="#FEE4BF"/>
<path d="M108.389 169.88C111.791 169.074 114.58 172.284 117.561 170.425C118.438 171.863 120.805 172.407 120.35 174.582C119.754 177.282 119.474 179.913 118.878 182.613C115.317 178.421 111.775 174.247 108.389 169.88Z" fill="#FEECD1"/>
<path d="M134.538 189.05C135.116 188.612 135.87 188.314 136.747 187.823C137.484 188.49 138.08 189.016 138.834 189.7C140.185 191.541 143.113 192.576 143.166 195.154C141.571 197.241 139.8 199.538 138.187 201.607C135.802 198.836 133.417 196.38 131.031 193.609C127.927 190.785 124.805 187.979 121.841 185.296C124.208 185.84 125.225 182.894 127.452 182.631L134.538 189.05Z" fill="#FEECD1"/>
<path d="M141.454 230.438C147.766 225.493 148.925 234.858 154.098 232.702C154.256 234.122 154.291 235.735 154.326 237.349C153.467 238.488 152.45 239.821 151.574 240.978C149.048 240.978 146.646 240.82 144.419 240.767C143.033 237.628 141.805 234.611 140.735 231.402C140.857 231.209 141.138 230.823 141.454 230.438Z" fill="#FEECD1"/>
<path d="M176.622 278.088C176.657 279.386 176.991 280.596 177.324 281.841C176.605 282.805 176.026 283.559 175.308 284.524C170.924 288.03 169.889 283.348 167.328 282.401C168.924 280.63 170.028 277.456 172.115 277.369C173.623 277.719 174.991 277.93 176.622 278.088Z" fill="#FEECD1"/>
<path d="M181.668 253.644C182.159 255.643 182.668 257.66 183.3 259.483C184.563 262.149 187.053 260.501 189.017 261.553C190.964 261.641 192.875 261.729 194.822 261.817C195.838 260.8 196.978 259.906 198.153 258.696C199.398 260.398 200.626 262.081 201.854 263.449C201.328 265.519 200.627 267.447 199.943 269.394C204.486 277.409 208.537 274.305 212.167 275.481C212.623 275.867 213.079 276.252 213.693 276.796C215.692 278.796 217.569 281.023 219.709 283.163C220.778 283.742 222.129 284.285 223.199 284.864C225.022 285.776 226.689 286.566 228.355 287.671C228.811 288.057 229.267 288.442 229.74 288.846C231.284 290.144 232.809 291.459 234.195 292.634C234.809 293.143 235.247 293.546 235.721 293.95C237.703 294.985 239.544 296.23 241.508 297.247C242.122 297.756 242.596 298.16 243.052 298.545C246.261 300.282 249.313 301.896 252.645 303.439C253.258 303.632 253.995 303.633 254.591 303.808L256.906 305.737C257.24 306.316 257.415 307.088 257.748 307.666C260.011 311.753 263.203 316.277 265.816 311.596C266.745 312.385 267.832 313.262 268.762 314.051C270.025 315.419 271.288 317.068 272.551 318.751C276.969 317.419 280.214 319.787 283.353 320.191C283.511 320.314 283.827 320.559 283.967 320.7C285.072 321.594 285.984 322.366 287.089 323.26C287.773 325.067 288.334 327.066 288.896 329.065C290.299 330.223 291.86 331.503 293.263 332.661C296.279 330.487 300.996 332.504 297.788 336.379C302.067 335.889 303.435 338.484 304.575 340.361C305.662 340.922 307.03 341.413 308.24 341.782C311.659 338.994 313.203 342.396 315.395 341.713C317.429 343.361 319.324 344.87 321.358 346.519C321.744 348.062 322.428 349.552 322.972 350.903C326.233 348.308 329.688 351.097 328.899 352.587C328.584 354.797 327.971 356.743 327.532 354.551C330.829 357.217 332.758 359.357 334.266 356.867C336.879 358.042 339.492 359.217 342.281 360.498C343.579 361.831 344.877 363.48 346.332 364.935C346.876 364.146 347.56 363.147 348.226 362.165C349.646 363.305 351.225 364.533 352.645 365.673C354.785 367.883 356.802 369.97 358.924 372.197L360.941 369.234C363.659 371.356 366.5 373.601 369.184 375.723C372.883 373.146 374.62 376.32 376.479 377.162C376.409 380.144 375.024 383.633 381.214 382.389C382.916 383.108 384.634 384.161 386.335 384.88C389.527 387.37 392.544 389.721 395.578 392.089C398.401 390.037 401.488 393.019 404.855 391.967C406.538 394.177 408.205 396.369 409.766 398.772C417.184 403.245 422.691 403 430.425 405.895C432.845 409.543 435.44 409.999 433.897 411.226C429.496 413.909 426.971 411.102 424.744 413.014C422.709 412.066 420.535 410.979 418.641 409.821C415.344 413.328 411.994 404.121 408.698 410.924C407.488 409.083 406.277 407.241 405.365 405.347C397.631 402.733 388.319 397.068 379.217 395.401C377.726 393.629 376.113 392.051 374.639 390.297C373.412 389.946 372.622 387.508 370.922 388.928C367.87 388.367 361.785 385.122 362.24 379.089L360.802 377.967C355.786 378.878 354.716 376.51 352.84 377.44C351.596 381.034 348.824 377.947 347 377.386C343.774 376.368 346.193 374.3 344.983 370.003C339.915 372.72 336.53 368.774 333.672 371.106C327.568 360.794 316.134 361.353 308.014 353.584C308.066 352.093 307.961 350.48 308.434 348.077C306.628 347.849 304.681 347.796 302.735 347.778C301.086 347.989 299.298 348.094 297.807 348.111C295.175 336.116 283.884 350.318 283.514 337.955C282.303 337.587 281.724 335.254 279.848 336.499C278.411 340.602 276.657 338.217 274.921 336.797C275.902 335.429 278.024 333.132 276.007 331.816C274.025 328.011 268.993 331.956 266.73 331.622C264.538 329.816 262.223 327.886 260.031 326.08C254.12 320.836 248.508 315.539 242.895 310.242C241.826 309.663 241.177 308.488 239.862 309.277C238.389 313.345 236.512 311.153 234.811 309.732C235.811 309.013 235.495 308.102 235.442 307.137C232.233 305.716 230.216 306.786 227.392 303.471C229.233 300.963 226.673 300.367 228.076 297.772C216.379 295.367 208.345 284.915 196.63 280.143C199.438 290.174 208.242 297.611 215.169 299.067C218.484 299.997 215.415 302.119 217.59 303.943C225.534 304.698 230.656 314.414 238.127 316.835C244.388 319.87 252.806 327.517 258.628 328.009C259.61 329.762 260.751 331.639 261.891 333.515C260.979 335.865 260.085 338.197 259.244 340.337C256.666 339.442 254.368 338.477 251.931 337.372C248.775 340.353 246.564 334.776 243.969 333.548L236.497 327.339C234.27 327.672 231.798 329.022 229.939 328.11C228.027 325.251 225.957 322.62 223.905 319.937C214.628 315.849 206.981 307.501 198.124 302.537C192.267 297.556 188.496 295.854 184.866 294.328C181.639 291.241 178.552 287.944 175.307 284.524C176.026 283.56 176.605 282.806 177.323 281.841L183.163 282.105C187.231 278.353 181.391 277.107 179.97 274.95C179.812 274.827 179.514 274.564 179.374 274.424C176.374 268.689 174.849 267.373 173.481 266.216C172.113 264.708 170.885 262.989 169.675 261.603C170.534 259.797 171.515 258.149 172.374 256.343C173.83 254.432 175.25 252.52 176.547 250.802C178.336 251.714 179.844 252.731 181.668 253.644Z" fill="#FED8A1"/>
<path d="M96.6345 129.474C99.8786 128.896 101.019 131.895 105.684 134.912C103.475 137.086 101.388 139.067 99.3193 141.382C97.7057 139.909 95.9519 138.295 94.3558 136.804C94.3732 135.84 94.3731 134.858 94.5483 133.7C95.1442 131.351 95.8805 130.404 96.6345 129.474Z" fill="#FFF3E3"/>
<path d="M101.198 161.987C98.2524 163.495 97.2173 160.917 95.6038 159.759C96.9363 158.076 98.4266 156.2 99.8994 154.306C99.0229 156.41 101.233 156.832 101.198 161.987Z" fill="#FFF3E3"/>
<path d="M125.376 128.058C128.883 130.303 134.618 129.024 134.583 133.233C131.356 132.847 127.972 132.443 124.763 132.039C125.061 130.689 125.218 129.549 125.376 128.058Z" fill="#FFF3E3"/>
<path d="M140.142 133.742C141.756 134.234 143.352 134.742 145.123 135.041C145.421 136.602 146 138.092 146.421 139.46C151.823 143.74 157.225 148.335 162.679 152.562C169.729 153.089 175.307 161.963 181.796 166.489C188.67 166.56 193.932 176.591 200.842 178.872C211.014 184.696 221.081 192.062 231.253 199.429C241.372 206.848 251.65 214.215 262.19 220.056C263.47 218.32 264.697 220.951 264.523 224.879C261.437 229.473 259.454 222.756 256.807 227.403C249.247 210.62 231.378 218.877 223.66 202.041C222.941 203.005 222.222 204.285 220.907 204.092C220.153 203.443 219.118 202.864 219.521 201.304C220.819 199.901 217.995 199.041 217.399 197.884C216.101 198.971 215.716 201.496 213.787 201.075C212.015 194.534 203.298 188.377 198.125 185.728C188.655 181.238 179.009 174.327 171.958 166.996C168.889 168.731 163.715 164.119 164.89 160.664C158.455 165.17 164.713 153.439 158.419 158.085C155.77 156.033 153.56 153.087 153.56 150.492C149.159 153.595 149.035 146.037 145.071 141.161C142.441 142.634 141.44 136.548 138.775 140.266C137.898 138.512 137.319 137.021 136.741 135.18C137.95 134.707 138.967 134.251 140.142 133.742Z" fill="#FFF3E3"/>
<path d="M150.669 164.923C147.004 166.133 146.109 165.344 145.074 164.414C145.371 156.926 150.949 162.959 150.669 164.923Z" fill="#FFF3E3"/>
<path d="M154.211 169.729C164.943 168.398 166.154 176.552 172.064 180.885C164.716 178.446 158.666 176.253 154.211 169.729Z" fill="#FFF3E3"/>
<path d="M134.105 225.508C138.226 223.106 142.734 227.088 141.436 230.419C141.156 230.805 140.84 231.191 140.718 231.384C141.805 234.576 143.033 237.592 144.402 240.749C142.63 241.362 141 241.941 139.229 242.554C135.177 240.572 138.106 237.398 138.491 232.629C137.736 232.295 137 232.26 136.246 232.243C135.036 231.173 133.843 230.12 132.651 229.033C132.808 228.524 132.791 227.875 132.633 227.402C133.089 226.841 133.509 226.28 134.105 225.508Z" fill="#FFF3E3"/>
<path d="M155.428 212.149L158.182 219.392C155.096 219.847 150.01 217.251 153.218 211.763C153.797 211.991 154.551 212.009 155.428 212.149Z" fill="#FFF3E3"/>
<path d="M164.706 220.375C167.442 224.023 171.3 224.234 174.72 226.286C179.386 230.706 182.28 234.827 185.437 237.283C186.629 238.335 187.857 239.388 189.049 240.44C188.068 243.07 191.347 244 189.191 246.578C186.736 248.892 184.106 251.347 181.634 253.644C179.827 252.714 178.319 251.697 176.513 250.767C174.092 248.662 171.689 246.54 169.252 244.418C167.323 244.312 164.552 246.662 163.605 243.926C160.448 241.786 157.274 239.664 154.257 237.349C154.239 235.718 154.204 234.104 154.028 232.701C159.675 232.562 163.288 234.421 167.672 232.248C168.039 227.811 163.656 231.598 162.586 229.371C162.55 227.126 159.832 224.408 159.638 220.743C161.322 220.567 163.075 220.533 164.706 220.375Z" fill="#FFF3E3"/>
<path d="M191.198 193.321C189.024 196.196 186.674 196.687 184.885 193.811C186.884 189.181 190.549 188.919 191.198 193.321Z" fill="#FFF3E3"/>
<path d="M164.711 260.147L169.657 261.586C170.867 262.971 172.095 264.69 173.463 266.198C174.848 267.373 176.374 268.689 179.356 274.406C178.48 275.563 177.48 276.913 176.621 278.053C174.973 277.913 173.622 277.684 172.114 277.334C171.185 275.913 170.255 274.808 169.168 273.23C167.519 272.738 166.011 272.387 164.064 271.949C167.343 265.934 165.098 265.548 163.888 264.163C163.712 263.391 163.554 262.602 163.239 262.006C163.712 261.462 164.133 260.901 164.711 260.147Z" fill="#FFF3E3"/>
<path d="M198.123 302.537C206.962 307.519 214.627 315.885 223.904 319.937C225.956 322.62 228.026 325.251 229.938 328.11C229.535 329.67 229.061 331.406 228.658 332.967C219.803 333.439 214.873 322.338 206.631 321.951C203.86 316.164 196.985 312.866 195.967 305.43C193.389 304.15 190.635 302.799 188.075 301.501C186.602 302.132 181.288 299.448 184.865 294.328C188.495 295.854 192.265 297.556 198.123 302.537Z" fill="#FFF3E3"/>
<path d="M154.292 237.349C157.308 239.664 160.465 241.804 163.639 243.926C161.465 246.802 159.432 249.467 157.415 252.15L156.047 250.957C154.504 247.695 152.802 244.31 151.539 240.978C152.416 239.821 153.432 238.488 154.292 237.349Z" fill="#FEE4BF"/>
<path d="M155.427 212.149C160.845 207.713 168 212.098 171.718 214.413C173.525 216.956 175.647 219.78 177.472 222.656L184.591 224.13C186.556 226.165 187.801 229.795 188.328 233.443C190.853 234.39 194.746 229.2 197.482 232.532C197.657 233.304 197.675 234.268 196.939 234.899C204.813 236.321 211.706 245.774 219.265 251.334C221.457 251.036 223.543 250.914 225.753 250.599C236.207 267.014 255.533 273.435 267.424 284.555C269.441 283.45 270.458 285.835 272.703 290.22C263.444 292.463 256.762 281.572 246.555 278.94C244.907 278.484 243.258 278.028 241.487 277.764C241.206 278.466 241.084 279.325 240.979 280.167C239.366 281.008 238.068 281.78 236.77 282.551C236.665 283.709 236.701 284.691 236.894 285.795C238.384 286.129 239.875 286.462 242.787 292.355C248.521 290.584 250.977 299.493 256.501 296.32C256.01 298.705 255.379 301.3 254.573 303.755C253.959 303.562 253.222 303.562 252.626 303.387C249.294 301.843 246.243 300.229 243.033 298.493C242.577 298.107 242.121 297.721 241.49 297.195C239.508 296.16 237.684 294.932 235.702 293.897C235.246 293.511 234.79 293.125 234.176 292.582C232.791 291.406 231.248 290.108 229.722 288.793C229.266 288.407 228.792 288.004 228.336 287.618C226.67 286.513 225.004 285.723 223.18 284.811C222.11 284.232 220.76 283.689 219.69 283.11C217.533 280.988 215.656 278.76 213.674 276.743C213.06 276.235 212.587 275.831 212.148 275.428C208.536 274.27 204.468 277.356 199.925 269.341C200.626 267.412 201.292 265.483 201.835 263.396C200.608 262.028 199.38 260.345 198.135 258.644C196.977 259.871 195.82 260.748 194.803 261.765C192.857 261.677 190.945 261.589 188.999 261.501C187.034 260.448 184.544 262.096 183.281 259.431C182.632 257.624 182.159 255.607 181.65 253.591C184.104 251.276 186.735 248.822 189.207 246.525C191.381 243.965 188.084 243.017 189.066 240.387C187.855 239.317 186.645 238.282 185.453 237.23C182.296 234.774 179.402 230.653 174.736 226.233C171.299 224.163 167.441 223.987 164.722 220.322C163.092 220.48 161.32 220.497 159.69 220.69C159.093 220.163 158.637 219.777 158.181 219.357L155.427 212.149Z" fill="#FEDEB1"/>
<path d="M260.066 326.079C262.241 327.868 264.573 329.815 266.766 331.622C269.028 331.92 274.06 328.01 276.042 331.816C278.059 333.132 275.938 335.429 274.956 336.796C276.674 338.199 278.464 340.585 279.883 336.499C281.76 335.254 282.339 337.586 283.549 337.955C283.936 350.336 295.227 336.133 297.842 348.11C299.333 348.093 301.121 347.988 302.77 347.778C304.716 347.796 306.663 347.849 308.469 348.077C308.014 350.462 308.101 352.093 308.049 353.583C316.169 361.353 327.603 360.794 333.707 371.106C336.548 368.756 339.95 372.72 345.018 370.003C346.211 374.317 343.826 376.386 347.036 377.386C348.859 377.947 351.631 381.034 352.875 377.439C354.734 376.492 355.821 378.878 360.837 377.966L362.275 379.089C361.82 385.121 367.905 388.366 370.957 388.928C372.658 387.508 373.447 389.946 374.675 390.296C376.165 392.068 377.761 393.629 379.252 395.4C388.354 397.067 397.666 402.733 405.4 405.347C406.312 407.241 407.523 409.083 408.733 410.924C412.046 404.103 415.38 413.328 418.676 409.821C420.57 410.978 422.745 412.066 424.779 413.013C427.006 411.102 429.514 413.891 433.933 411.226C434.564 411.717 435.073 412.085 435.546 412.454C436.072 411.647 436.721 410.648 437.387 409.631C440.369 412.788 443.368 415.962 446.051 419.207C445.981 420.048 445.911 420.89 445.666 421.627C446.683 424.503 449.366 421.119 451.138 427.274C453.962 429.993 456.363 424.048 460.363 432.712C462.976 434.974 465.237 427.381 467.535 432.38C468.184 434.361 468.833 436.343 469.605 438.097C471.71 439.675 475.217 435.713 476.953 439.378C478.251 440.36 479.549 441.307 480.847 442.289C477.795 443.306 477.288 448.584 474.639 446.322C472.622 444.235 470.325 442.218 468.29 440.113C465.94 439.271 463.013 444.549 460.434 441.445C459.259 440.27 458.224 438.919 457.19 437.534C455.857 437.744 454.822 437.867 453.595 437.866C452.63 437.147 451.49 436.288 450.525 435.534C447.772 433.446 443.862 436.48 437.619 435.672C436.304 437.688 434.971 439.687 433.797 441.493C432.815 440.757 431.692 439.915 430.728 439.161C427.729 440.791 422.802 443.088 419.908 441.211C419.101 439.106 418.136 436.879 417.189 434.634C415.891 433.652 414.751 432.793 413.295 431.688C407.263 429.758 400.336 428.091 395.425 425.214C390.445 426.827 396.126 420.9 390.111 421.127C389.041 419.076 388.094 416.866 387.322 414.761C385.445 412.113 381.517 415.76 379.308 414.322C378.5 410.429 377.658 406.29 376.851 402.397C374.361 403.238 371.748 404.132 369.258 404.973C368.048 402.816 366.96 400.431 365.715 397.958C363.716 401.255 359.42 400.044 357.544 403.113C357.386 402.99 357.07 402.745 356.754 402.499C355.86 400.587 354.948 398.343 354.176 396.238C350.598 396.799 346.565 398.762 343.356 398.078C339.796 394.658 335.744 392.36 331.465 391.412C325.503 387.904 319.838 384.379 314.05 380.625C307.194 379.098 303.387 371.119 299.564 367.436C297.038 365.401 294.513 363.367 291.987 361.332C291.355 358.351 290.741 355.387 290.127 352.423C288.601 349.319 285.602 351.826 284.428 352.089C282.989 350.616 281.709 348.95 280.429 347.599C277.71 347.231 277.168 353.912 274.186 351.141C273.853 350.562 273.677 349.79 273.344 349.212C270.415 347.756 267.487 346.265 264.558 344.809C262.839 343.406 260.945 341.862 259.226 340.459C260.05 338.337 260.962 335.988 261.873 333.638C260.733 331.761 259.593 329.885 258.611 328.131C252.771 327.622 244.352 319.974 238.109 316.957C230.656 314.519 225.516 304.82 217.572 304.065C215.398 302.241 218.466 300.12 215.152 299.19C208.225 297.733 199.42 290.297 196.613 280.265C208.328 285.037 216.361 295.49 228.058 297.894C226.673 300.472 229.233 301.068 227.375 303.593C230.199 306.908 232.215 305.838 235.425 307.259C235.477 308.224 235.811 309.118 234.794 309.855C236.495 311.275 238.372 313.468 239.844 309.399C241.159 308.611 241.808 309.786 242.878 310.364C248.543 315.538 254.155 320.835 260.066 326.079Z" fill="#FED190"/>
<path d="M219.742 266.854C222.478 268.538 225.213 270.222 227.792 272.134C228.195 270.573 228.738 268.837 228.966 267.171C230.492 268.451 231.877 269.627 233.385 270.924C232.07 271.713 230.632 272.66 229.177 273.309C230.282 275.185 231.37 277.079 232.334 278.816C231.335 280.166 230.493 281.323 229.512 282.691L228.126 281.516C227.144 279.446 226.056 277.552 225.092 275.816C223.074 273.168 221.04 270.502 219.163 267.643C219.321 267.415 219.601 267.029 219.742 266.854Z" fill="#FEE4BF"/>
<path d="M163.64 243.926C164.587 246.662 167.375 244.33 169.286 244.418C171.707 246.522 174.127 248.662 176.547 250.767C175.25 252.485 173.812 254.414 172.374 256.308C171.515 258.114 170.516 259.78 169.675 261.568L164.729 260.13C162.151 257.551 159.871 254.921 157.433 252.132C159.432 249.467 161.465 246.802 163.64 243.926Z" fill="#FEDEB1"/>
<path d="M179.373 274.424C179.531 274.547 179.829 274.81 179.97 274.95C181.373 277.125 187.23 278.353 183.162 282.105L177.323 281.842C176.989 280.596 176.673 279.369 176.621 278.089C177.497 276.931 178.497 275.581 179.373 274.424Z" fill="#FEDEB1"/>
<path d="M172.083 180.867C175.888 178.5 177.8 182.166 179.027 184.165C180.799 185.095 182.289 186.094 184.078 187.007C181.606 189.619 178.537 191.039 177.011 186.848C175.187 184.953 173.696 182.972 172.083 180.867Z" fill="#FFF3E3"/>
<path d="M144.401 240.749C146.628 240.802 149.013 240.978 151.556 240.96C152.802 244.275 154.503 247.66 156.064 250.939C153.855 252.202 152.382 252.482 150.892 252.78C146.946 249.991 144.49 246.273 144.401 240.749Z" fill="#FFF3E3"/>
</g>
</g>
<g opacity="0.9">
<g opacity="0.9">
<path d="M151.236 334.235C153.007 333.166 154.235 334.709 155.568 335.341L168.459 345.917C170.984 348.829 175.018 350.513 178.946 349.566C179.454 350.987 179.928 352.232 180.437 353.652C184.646 355.266 188.872 356.793 192.468 358.985C193.748 359.985 195.116 361.037 196.379 362.02C198.536 366.141 202.324 366.352 202.886 369.579C203.85 370.438 205.183 369.912 206.446 369.982C208.866 373.139 212.496 374.385 214.986 374.841C216.144 375.823 217.196 376.735 218.406 377.595C218.459 377.472 218.599 377.227 218.739 376.981C224.229 380.051 229.613 383.05 235.067 386.12C237.733 388.891 238.82 390.47 240.434 389.909C241.048 390.242 241.731 390.645 242.328 390.961L246.221 393.136C246.975 394.872 247.677 396.486 248.431 398.222C246.59 399.011 244.714 399.8 242.89 400.571L238.997 398.396C238.383 398.063 237.699 397.659 237.103 397.344C235.945 396.852 234.613 396.431 233.455 395.94L228.018 392.257C227.633 392.993 227.159 393.852 226.756 394.606C225.388 394.01 223.95 393.519 222.53 393.045L224.143 390.099C224.02 389.38 223.721 388.731 223.423 388.082C223.213 386.995 222.985 385.75 222.791 384.68C221.301 383.856 219.898 383.084 218.495 382.277C217.916 381.663 217.425 381.137 216.829 380.541C215.829 380.944 214.672 381.4 213.672 381.803C212.076 379.926 211.077 380.33 210.954 381.048C209.604 382.364 210.481 383.837 210.008 385.187C208.675 385.713 207.342 386.239 206.01 386.765C205.413 385.958 204.817 385.116 204.291 384.169C202.677 383.081 200.485 385.378 198.784 384.905C197.732 383.502 196.61 382.204 195.434 380.748C194.838 379.941 194.259 379.117 193.733 378.17C192.944 376.749 191.594 378.731 190.664 378.047C184.929 374.486 179.142 371.013 173.424 367.365C171.565 364.839 170.618 363.962 169.408 364.225C164.918 361.454 160.499 358.577 155.992 355.648C154.168 353.298 150.853 352.193 148.275 350.491C149.449 347.282 149.291 346.388 149.151 345.476C150.133 344.424 151.045 343.512 152.132 342.53C153.377 341.496 151.939 340.303 153.639 338.708C152.797 337.269 151.938 335.779 151.236 334.235Z" fill="#FFF3E3"/>
<path d="M213.691 381.82C214.69 381.417 215.848 380.961 216.847 380.558C217.426 381.172 217.917 381.698 218.513 382.295C219.916 383.066 221.302 383.856 222.81 384.698C223.003 385.767 223.231 387.013 223.442 388.1C223.74 388.749 224.021 389.38 224.161 390.117L222.548 393.062C221.794 392.308 220.917 391.501 220.093 390.888C218.427 389.642 217.252 391.063 216.603 390.379C216.252 390.028 216.112 389.607 215.866 389.326C214.481 389.203 213.061 389.186 211.64 389.203C211.342 388.063 211.201 386.87 210.921 385.748L210.026 385.239C210.499 383.889 209.605 382.434 210.972 381.101C211.095 380.347 212.095 379.944 213.691 381.82Z" fill="#FFFCF7"/>
<path d="M240.38 382.175C243.046 380.141 243.536 379.931 244.203 379.65C246.992 384.087 253.445 382.405 255.147 388.174C257.286 388.245 259.496 388.491 261.758 388.614C264.003 389.21 264.827 393.016 267.721 391.245C268.826 392.315 269.931 393.42 271.035 394.49C273 395.402 275.034 396.209 277.051 396.998C278.226 397.963 279.401 398.928 280.629 399.77C281.418 400.208 282.119 400.594 283.031 401.085C284.013 400.664 285.083 400.156 286.661 400.051C284.925 397.508 283.907 396.947 282.908 396.403C283.013 395.982 283.013 395.491 283.118 395.07L284.678 392.107C285.976 392.353 287.274 392.563 288.642 392.669C289.992 393.248 291.43 393.739 292.85 394.177C294.113 394.704 295.551 395.16 296.919 395.721C297.217 395.879 297.533 396.054 297.919 396.265C298.463 397.194 298.831 398.194 299.41 399.299C301.461 398.335 302.128 401.246 302.567 402.596C302.812 402.877 302.97 403.28 303.303 403.613C304.671 404.666 306.267 405.841 307.793 406.841C305.689 407.928 304.374 406.262 302.339 405.49C301.428 407.243 301.112 407.839 300.797 408.471C300.095 408.085 299.499 407.769 298.394 407.19C296.886 407.646 295.36 408.084 293.94 408.592C292.485 410.363 291.152 412.187 289.82 414.01C289.487 414.624 289.241 415.115 288.908 415.729C286.173 417.272 282.034 415.061 282.682 412.378C282.366 412.028 282.173 411.624 281.998 411.203C281.91 409.888 281.664 408.626 281.664 407.188C280.244 407.17 278.718 407.187 277.28 407.187C277.298 408.151 277.123 409.169 277.053 410.08C276.351 410.992 275.685 411.869 274.984 412.781C273.774 414.341 269.846 413.955 271.284 417.603C270.565 418.006 269.934 418.462 269.303 418.918C268.461 417.83 267.444 416.778 266.549 415.813C263.673 414.866 262.972 419.11 260.255 420.81C261.044 421.249 261.78 421.635 262.657 422.126C263.166 423.371 263.727 424.774 264.236 426.019L265.744 426.861L266.656 427.352C269.918 427.563 271.339 428.808 273.215 427.914C273.916 429.072 274.53 430.106 275.214 431.246C278.827 431.282 278.249 436.841 282.493 435.158C282.545 435.035 282.685 434.79 282.826 434.544C284.316 434.387 285.824 434.247 287.49 434.019C288.297 434.44 289.016 434.843 290.314 435.545C291.717 435.335 293.155 435.019 294.47 434.756C295.891 437.755 301.59 437.178 301.012 441.298L298.487 446.138C297.979 445.875 297.488 445.594 297.067 445.384C292.718 450.013 290.578 444.436 288.246 446.663C286.931 446.434 286.264 444.961 287.053 442.98L281.616 439.261C280.371 439.91 279.267 440.489 278.039 441.155C274.128 438.752 268.797 437.769 268.814 431.544C267.867 430.877 266.341 430.824 266.481 428.825C265.447 429.579 264.517 430.263 263.5 431.034C262.483 430.473 258.888 431.858 259.484 428.035C259.081 427.807 258.783 427.649 258.484 427.491C256.485 427.842 255.468 427.28 254.468 426.737C254.293 424.878 253.381 422.949 253.819 421.107C255.695 418.775 256.66 421.388 258.711 419.968C258.536 418.109 258.307 416.093 258.026 414.164C259.06 409.797 257.149 409.218 255.623 408.218C255.272 407.377 254.904 406.377 254.641 405.448C253.536 404.378 252.133 405.044 250.905 404.202C251.168 402.746 251.256 401.361 251.396 399.853C254.938 400.976 256.726 397.188 258.217 397.522C259.953 398.627 261.514 399.802 263.268 400.924C264.566 401.626 265.758 402.293 267.074 403.012C269.634 403.784 272.177 404.363 274.79 405.012C271.72 402.048 270.142 400.399 268.318 400.68C267.003 399.961 265.81 399.294 264.513 398.592C262.724 397.61 261.005 396.663 259.216 395.681C258.339 395.189 257.322 394.628 256.322 394.084C255.656 392.716 254.954 391.313 254.27 389.928C252.972 389.682 251.587 389.384 250.219 389.278C247.062 387.209 243.835 385.069 240.503 383.034C240.328 383.104 240.012 383.245 239.784 383.437C239.977 382.929 240.187 382.543 240.38 382.175Z" fill="#FFF3E3"/>
<path d="M69.6607 233.267C70.3272 233.688 70.9059 234.021 71.4847 234.39C73.7298 237.441 74.4135 235.881 74.992 234.916C76.167 235.145 77.2542 235.32 78.4993 235.443C79.3938 236.338 80.411 237.285 81.3756 238.074C84.9008 240.757 82.9725 245.492 86.9181 244.633C90.5303 243.406 89.6896 249.93 93.863 248.878C96.4062 251.421 97.0204 254.595 99.5981 254.017C100.072 254.315 100.475 254.543 100.949 254.841L103.264 256.245C105.263 255.333 105.631 255.561 107.42 255.667C107.244 257.034 107.034 258.542 106.701 259.963C107.49 260.436 108.245 260.91 108.999 261.384C110.209 264.418 110.998 264.891 111.419 265.978C112.384 267.224 113.173 268.539 114.085 269.907C117.838 269.557 121.679 272.837 123.258 274.591C123.1 275.976 124.52 275.994 125.222 276.59C128.185 273.977 126.38 279.08 128.168 279.186C131.922 283.079 136.289 287.482 141.988 288.938L144.303 290.341C145.041 296.304 152.09 294.27 154.458 298.778C159.053 300.988 162.894 306.828 169.12 308.249C170.47 310.687 172.417 313.441 175.521 313.459C177.678 314.704 179.836 315.949 182.098 317.265C186.536 323.701 194.182 325.386 198.145 329.63C207.809 336.979 220.313 342.26 229.661 349.223C229.573 350.608 231.046 350.503 231.695 351.187C233.992 348.645 232.66 352.538 234.572 352.801C239.307 354.976 244.147 359.431 248.987 359.256C249.285 359.414 249.566 359.59 249.882 359.765C250.408 360.712 251.004 361.519 251.601 362.326C253.197 362.905 254.494 364.588 256.686 364.361C257.669 364.922 258.651 365.448 259.545 365.957C261.422 367.483 261.913 368.745 263.386 368.114C269.033 371.728 272.944 374.797 277.714 375.99C278.012 376.148 278.31 376.306 278.626 376.481C279.626 377.025 280.503 377.516 281.502 378.06C287.184 379.429 285.888 386.513 291.06 383.305C292.358 384.006 293.551 384.673 294.831 385.392C299.408 390.11 302.811 391.899 307.09 395.021C310.001 396.109 312.877 397.197 315.771 398.267C317.788 400.775 318.875 401.371 319.998 401.968C319.752 402.95 319.56 403.809 319.262 404.598C320.051 405.808 320.91 407.088 321.7 408.298C324.435 406.44 327.698 412.157 330.521 410.737C332.958 410.931 330.732 414.665 333.748 413.754C334.695 413.754 336.168 413.965 336.922 412.79C337.29 413.053 337.571 413.264 337.834 413.456C338.833 413.159 340.008 412.79 341.008 412.492C343.481 414.124 344.445 413.44 346.023 413.721C346.462 414.72 346.83 415.86 347.199 416.965C349.338 415.072 350.373 417.72 351.758 417.001C353.056 416.405 354.669 418.58 355.739 419.895L360.194 423.087C360.755 423.473 361.404 423.947 361.965 424.333C363.841 422.597 364.876 424.193 365.402 425.07C366.928 426.49 368.367 427.858 369.963 429.174C371.488 429.753 372.347 428.999 372.926 429.577C373.365 430.577 373.908 431.472 374.417 432.366C374.996 432.945 376.031 432.156 377.03 433.366C377.872 433.962 378.802 434.611 379.749 435.278C380.38 435.558 381.169 435.787 381.888 435.944C382.818 436.418 383.87 436.839 384.887 437.4L385.729 437.997C388.026 436.226 389.271 438.979 390.832 438.225C390.832 438.892 390.885 439.435 390.92 439.997C391.867 440.663 392.691 441.242 393.638 441.909C394.235 442.68 394.919 443.329 395.533 444.083C399.233 444.803 402.022 448.784 406.195 449.837C406.546 449.241 406.844 448.767 407.195 448.171C407.721 448.206 408.264 448.399 408.878 448.487C410.176 449.224 411.526 449.838 412.807 450.381C412.894 451.135 412.947 451.679 413.017 452.24C413.894 452.521 414.736 452.942 415.613 453.223C415.841 452.854 416.051 452.504 416.349 452.03C416.542 452.153 416.63 452.241 416.823 452.364C418.699 453.433 420.576 454.539 422.452 455.609C423.207 457.204 423.979 458.818 424.75 460.396C424.996 460.221 425.259 460.239 425.592 460.116C427.17 460.362 428.678 460.537 430.169 460.906C431.011 460.625 433.168 461.45 433.799 460.187C434.273 461.187 434.659 462.309 435.045 463.397C436.027 465.08 437.64 463.502 438.306 463.292C440.534 465.344 442.673 467.308 444.918 469.343L445.778 469.922C447.636 468.168 448.671 469.729 449.145 470.729C449.811 471.185 450.372 471.571 450.934 471.957C452.95 470.151 453.95 472.027 455.107 471.431C456.914 473.764 458.685 476.096 460.492 478.429C461.299 478.639 462 478.78 462.649 479.043C465.419 478.412 466.174 478.921 466.577 480.025C468.454 481.131 470.4 482.095 472.435 483.148C474.188 481.324 475.24 482.868 475.732 483.85C476.959 484.692 478.204 485.516 479.432 486.358C481.326 484.464 482.343 486.148 482.887 487.007C483.799 487.954 484.763 488.779 485.676 489.726C489.621 491.357 493.813 494.146 497.233 495.076C499.705 493.551 501.301 495.603 502.511 496.918C505.142 495.34 506.948 498.374 508.807 497.919C513.191 499.498 518.119 498.464 521.925 502.62C523.836 501.376 525.871 505.374 527.185 501.253C531.728 505.235 536.252 502.184 540.794 506.165C543.127 506.674 544.459 505.728 546.687 506.868C545.775 507.779 546.161 508.691 545.88 510.34C548.494 511.726 551.142 513.111 553.597 514.55C552.826 516.373 552.002 518.32 551.125 520.073C550.354 521.406 549.53 522.861 548.793 524.194C547.864 524.422 547.286 525.211 546.146 525.614C544.322 527.893 542.587 530.26 540.921 532.487C540.325 533.925 539.659 535.468 539.063 536.906C538.291 536.871 537.379 536.836 536.608 536.801C535.906 535.012 535.152 533.346 534.503 531.434C534.906 531.206 535.292 530.961 535.607 530.645C536.571 528.278 537.448 526.033 538.307 523.596C538.903 523 539.587 522.281 540.095 521.632C540.481 521.878 540.779 522.071 541.06 522.246C541.919 522.825 542.884 523.439 543.831 524.07C543.743 522.65 543.655 521.335 543.567 519.914C543.707 519.002 543.865 517.968 544.005 517.056C544.198 515.53 544.373 514.127 544.566 512.602C543.04 513.426 541.62 514.32 539.919 515.214C539.761 515.267 539.428 515.389 539.27 515.442C537.692 514.74 536.219 514.109 534.71 513.302C532.448 510.829 532.203 513.319 530.993 513.371C530.607 513.126 530.309 512.933 530.046 512.74C529.853 511.951 529.589 511.267 529.396 510.653C527.748 510.092 526.205 509.565 524.486 509.109C523.486 508.109 522.364 507.057 521.189 506.127C520.207 506.478 519.032 506.881 518.05 507.232C517.98 506.671 517.892 506.127 517.787 505.39C517.225 505.005 516.541 504.566 515.98 504.18C515.279 503.549 514.665 502.795 513.981 502.181C512.192 499.34 511.175 503.829 509.246 503.723C508.001 502.899 506.861 502.145 505.616 501.32C504.651 500.461 503.617 499.531 502.652 498.672C501.214 498.216 499.846 497.795 498.408 497.338C497.566 498.11 496.725 498.881 495.76 499.6C495.515 499.776 495.269 499.776 494.936 499.898C493.726 499.916 492.411 499.898 491.271 499.81C489.535 499.827 487.869 499.739 486.203 499.616C485.326 498.88 485.677 496.916 484.063 496.705C484.484 493.969 482.397 495.249 481.397 494.916C480.556 494.53 479.679 494.249 478.767 493.969C477.714 492.39 476.715 490.935 475.645 489.339C475.154 490.18 474.716 490.899 474.312 491.618C473.172 491.53 472.015 491.249 470.945 491.021C470.98 490.039 471.208 489.005 471.348 488.093C470.243 487.514 469.033 487.04 467.771 486.514C466.981 485.129 466.122 483.708 465.245 482.27C464.543 482.13 463.737 481.919 463.088 481.656L459.949 483.567C459.738 482.585 459.528 481.603 459.159 480.673C458.195 480.515 457.213 480.375 456.248 480.217C454.407 482.163 453.425 480.479 452.776 479.55C451.583 478.918 450.198 478.305 448.813 477.691C447.077 479.707 445.656 475.866 443.762 476.567C440.64 475.76 438.886 473.375 436.256 473.094C433.59 471.761 431.012 470.481 428.329 469.165L426.067 467.604C424.751 467.551 424.787 469.936 423.401 469.813C423.033 469.55 422.542 469.234 422.069 468.901C419.053 470.549 417.001 469.128 416.93 467.901C418.526 464.622 417.824 464.446 417.263 464.06C415.983 464.183 415.825 465.954 415.527 466.918C414.107 467.251 412.564 467.602 411.161 467.917C410.424 467.391 409.653 466.865 408.916 466.339C408.986 462.481 404.391 463.848 402.514 461.024C399.498 459.586 395.833 457.709 392.396 459.567C391.449 458.725 390.554 457.761 389.502 456.849C389.8 456.375 390.01 456.025 390.238 455.656C388.221 453.043 387.66 455.709 386.889 455.007C386.521 454.744 386.222 454.551 385.942 454.341C385.731 450.307 383.486 447.676 382.171 449.973C380.154 447.36 379.488 449.956 378.734 449.236C377.629 448.623 376.436 448.131 375.331 447.517C374.314 443.554 375.103 442.064 375.786 440.503C375.032 439.117 373.331 436.89 370.946 437.907C370.122 438.17 369.28 438.415 368.526 438.573C368.087 437.573 367.789 436.504 367.315 435.329C366.211 434.715 364.439 434.311 363.3 435.731C362.773 434.854 362.247 433.978 361.721 433.066C360.616 432.487 359.389 431.855 358.249 431.276C358.511 429.575 355.793 430.048 357.406 427.453C356.319 427.032 355.354 426.664 354.337 426.103C350.865 428.382 347.306 428.048 344.359 425.417C342.623 423.47 341.307 422.33 339.554 422.786C337.098 419.629 336.801 423.89 335.363 422.347C334.766 421.575 334.17 420.804 333.521 420.155C332.539 418.085 330.592 420.277 329.312 419.523C329.207 418.4 329.084 417.12 328.996 416.015C326.541 414.753 325.225 413.648 322.262 415.278C319.842 413.349 317.036 411.98 314.458 410.279C312.16 409.034 309.95 407.841 307.758 406.666C306.215 405.683 304.654 404.508 303.268 403.438C302.935 403.105 302.76 402.684 302.532 402.421C302.093 401.071 301.409 398.177 299.375 399.124C298.796 398.019 298.427 397.019 297.884 396.09C297.498 395.879 297.182 395.704 296.884 395.546C295.534 394.967 294.096 394.511 292.815 394.002C291.377 393.546 289.957 393.072 288.607 392.493C287.239 392.388 285.959 392.16 284.643 391.932L283.083 394.895C282.978 395.316 282.978 395.807 282.873 396.228C283.872 396.772 284.872 397.315 286.626 399.876C290.519 399.315 291.817 400.789 291.449 402.49C290.712 402.875 290.099 403.349 289.52 403.682C288.485 402.963 287.415 402.068 286.381 401.349C283.803 402.313 282.33 400.244 280.594 399.594C279.366 398.753 278.191 397.788 277.016 396.823C277.244 395.683 277.401 394.649 277.699 393.369C277.489 393.263 277.313 393.158 277.191 393.106C276.068 392.79 275.034 392.562 273.964 392.123C273.14 392.456 272.298 392.807 271.579 393.21C270.895 392.035 270.228 390.877 269.667 389.755C270.053 389.019 270.509 388.142 270.912 387.423C270.771 387.177 270.701 386.827 270.754 386.529C271.35 385.406 272.016 384.179 272.647 382.951C271.42 382.6 270.104 382.197 268.929 381.723C268.842 381.671 268.631 381.565 268.526 381.495C267.614 380.829 266.737 380.022 265.965 379.285C265.65 378.935 265.492 378.531 265.229 378.233L262.23 378.04C258.319 378.127 256.04 377.32 255.583 374.339C255.355 374.04 255.197 373.637 254.917 373.181L248.27 371.865C247.797 375.6 245.219 372.25 245.061 370.865C239.835 371.46 238.344 367.76 235.766 366.304C234.346 365.83 232.925 365.357 231.557 364.76C223.841 363.672 221.454 352.448 212.704 354.885C211.459 354.341 211.09 352.184 209.442 353.025C207.373 352.323 206.794 352.657 206.391 352.885C204.62 354.445 207.023 356.462 208.495 354.744C209.285 355.182 209.969 355.586 210.881 356.077C209.425 358.479 212.845 357.69 212.635 359.479C215.037 359.392 216.984 361.479 219.211 362.409C217.405 364.776 220.352 365.793 220.457 366.986C220.054 367.74 219.598 368.581 219.177 369.318C216.599 367.862 214.039 366.389 211.548 364.985C210.969 363.214 208.882 362.986 207.339 363.406C205.656 362.705 203.955 362.021 202.254 361.301C201.026 359.793 199.763 358.285 198.518 356.759C197.921 356.408 197.237 356.04 196.641 355.689C195.747 355.18 194.765 354.619 193.765 354.04C191.099 352.496 188.451 350.97 185.785 349.427C184.171 345.744 182.628 343.885 180.524 344.13C179.629 343.621 178.665 343.043 177.77 342.534C176.858 341.832 176.016 341.026 175.262 340.271C173.614 339.955 174.14 338.798 174.35 337.465C178.611 334.783 177.874 331.907 174.367 332.783C173.788 332.45 173.104 332.047 172.508 331.696C171.683 331.047 170.842 330.24 170 329.433C169.421 326.505 166.457 328.977 164.931 327.311C163.862 326.206 162.897 325.136 161.897 323.891C160.617 323.136 159.354 322.4 158.179 321.68C155.461 319.102 153.619 317.05 151.182 318.365C150.41 317.909 149.621 317.435 148.849 316.979C148.674 315.892 148.463 314.665 148.288 313.577C147.077 313.174 146.113 311.648 144.71 312.279C141.308 309.999 137.993 307.771 134.696 305.561C133.766 305.824 132.574 306.736 131.873 306.139C131.381 305.192 130.943 304.123 130.522 303.035C133.678 299.388 128.312 298.932 126.838 298.546C125.927 299.001 124.664 300.018 124.05 299.966C123.945 299.895 123.752 299.773 123.665 299.72C122.84 298.405 122.121 297.159 121.402 295.914C120.63 295.458 119.841 294.985 119.069 294.529C119.139 293.266 119.858 292.056 119.384 290.811C115.632 290.495 113.772 286.286 112.264 283.445C111.018 282.69 109.843 281.971 108.581 281.235C106.88 280.55 105.214 279.831 103.583 279.007C102.6 278.41 101.741 277.867 100.777 277.288C100.425 272.974 99.0225 274.903 98.1982 274.078C97.4967 273.482 96.8653 272.78 96.1637 272.184C92.358 269.711 90.9716 262.959 86.2366 261.38C83.7285 258.522 82.3251 254.909 78.6948 252.821C76.7129 251.085 74.8012 249.419 72.8895 247.577C73.3278 246.858 73.8187 246.017 74.6252 244.684C74.0287 243.281 73.4323 241.843 72.8359 240.44C69.9247 239.142 68.1356 236.862 66.4693 234.179C67.5565 233.933 68.6612 233.635 69.6607 233.267Z" fill="#FEECD1"/>
<path d="M113.251 323.428C116.565 323.621 118.372 325.042 117.986 327.076C114.023 327.321 112.62 326.303 113.251 323.428Z" fill="#FEECD1"/>
<path d="M129.913 337.248C134.367 336.126 136.524 337.898 135.508 340.563C134.245 340.949 133.035 341.212 131.825 341.475C131.176 340.089 130.527 338.739 129.913 337.248Z" fill="#FEECD1"/>
<path d="M141.541 345.72C145.609 345.054 147.433 345.3 149.152 345.511C149.292 346.423 149.45 347.317 148.276 350.526C147.171 350.859 146.084 351.35 144.997 351.665C144.085 350.297 143.225 349.017 142.296 347.632C142.015 346.965 141.717 346.316 141.541 345.72Z" fill="#FEECD1"/>
<path d="M190.683 378.064C191.612 378.748 192.962 376.802 193.751 378.187C194.278 379.134 194.856 379.959 195.453 380.765C193.875 382.449 193.033 381.151 191.77 381.747C190.262 381.676 190.876 379.625 190.683 378.064Z" fill="#FEECD1"/>
<path d="M206.01 386.764C207.343 386.238 208.693 385.695 210.008 385.187L210.902 385.695C211.201 386.835 211.324 388.01 211.622 389.15C213.042 389.168 214.48 389.168 215.848 389.273C216.076 389.572 216.234 389.975 216.585 390.326L213.973 395.113C212.464 394.271 211.079 393.481 209.676 392.71C208.589 392.569 207.677 392.534 206.677 392.446C205.905 391.499 205.116 390.569 204.397 389.71C202.52 388.149 200.626 386.606 198.802 384.922C200.503 385.396 202.677 383.116 204.309 384.186C204.817 385.151 205.414 385.957 206.01 386.764Z" fill="#FEECD1"/>
<path d="M57.0157 226.058C59.5059 226.304 61.3297 226.585 61.4352 228.128C62.9083 228.724 64.5042 229.373 65.9247 230.093C67.1875 231.04 68.4853 232.162 69.6779 233.25C68.6784 233.618 67.5737 233.916 66.4865 234.407C66.013 234.108 65.5395 233.81 65.1536 233.565C63.5752 232.267 62.102 231.004 60.4534 229.811C59.1906 228.584 58.0856 227.373 57.0157 226.058Z" fill="#FFF3E3"/>
<path d="M84.916 223.66C85.8986 227.237 90.8785 224.888 91.0721 229.149L89.3539 232.025C89.4946 234.41 90.3014 235.252 89.2145 237.531C92.3364 241.109 94.7564 240.759 97.4225 244.863C98.8782 245.933 100.281 247.09 101.684 248.283C102.351 248.704 102.947 249.055 103.508 249.405C104.385 249.932 105.052 250.353 105.823 250.809C104.701 252.913 107.612 252.878 108.103 254.492C109.226 255.474 110.261 256.368 111.401 257.333C112.471 257.982 113.628 258.684 114.663 259.333C113.839 260.297 112.997 262.401 114.663 262.454C116.487 262.91 115.681 266.523 118.557 265.646C119.1 264.506 119.942 265.98 120.749 266.155C119.82 267.716 121.345 267.804 120.767 269.259C122.836 270.662 126.378 265.928 127.729 270.33C129.167 272.82 130.43 276.678 134.516 276.872C143.407 274.365 133.518 287.832 142.321 283.028C143.811 282.941 142.795 285.115 143.952 285.641C146.022 286.589 148.214 287.518 150.318 288.606C149.635 291.604 154.843 290.956 154.159 293.955C155.913 293.85 158.228 293.92 158.684 295.814C160.841 298.217 162.771 299.375 164.647 301.778C166.436 301.848 165.911 306.407 168.435 304.023C169.873 301.954 171.347 304.62 172.837 304.988C172.259 308.057 177.695 307.672 176.854 311.214C178.801 312.845 180.747 314.441 182.729 316.248L186.096 315.792C197.11 323.475 205.002 330.49 217.437 337.7C219.489 342.417 223.767 337.929 225.907 342.523C229.31 346.206 233.641 346.786 236.57 350.171C236.851 352.731 238.955 350.066 239.78 351.171C244.76 352.68 245.936 356.696 249.005 359.379C244.148 359.536 239.324 355.099 234.589 352.924C232.678 352.66 234.01 348.767 231.713 351.31C231.064 350.626 229.574 350.748 229.679 349.346C220.313 342.365 207.827 337.102 198.163 329.753C194.182 325.491 186.553 323.824 182.116 317.387C179.871 316.089 177.714 314.844 175.539 313.581C172.435 313.563 170.488 310.775 169.138 308.372C162.894 306.968 159.053 301.128 154.476 298.9C152.09 294.411 145.059 296.426 144.321 290.464L142.006 289.061C136.307 287.604 131.939 283.202 128.186 279.308C126.415 279.22 128.203 274.1 125.24 276.713C124.538 276.116 123.118 276.098 123.275 274.713C121.697 272.959 117.838 269.662 114.103 270.03C113.191 268.662 112.402 267.346 111.437 266.101C111.034 265.031 110.244 264.558 109.016 261.506C108.245 261.015 107.473 260.559 106.719 260.085C107.034 258.648 107.262 257.157 107.437 255.789C105.649 255.684 105.28 255.456 103.281 256.367L100.966 254.964C100.493 254.666 100.089 254.438 99.6159 254.14C97.0557 254.7 96.4239 251.544 93.8808 249.001C89.7073 250.052 90.5656 243.546 86.9358 244.756C83.0078 245.597 84.9186 240.88 81.3934 238.197C80.4288 237.407 79.4116 236.46 78.5171 235.566C79.0957 235.268 79.727 234.847 80.481 234.479C81.1998 233.269 81.8485 232.199 82.5848 231.007C82.076 229.411 81.5672 227.71 81.0584 226.114C80.0062 225.447 78.6558 225.114 78.9361 223.325C80.7419 219.906 82.7417 224.431 84.916 223.66Z" fill="#FFF3E3"/>
<path d="M71.4851 234.39C73.1683 233.128 74.0629 234.513 74.9924 234.917C74.4138 235.881 73.7301 237.442 71.4851 234.39Z" fill="#FFF3E3"/>
<path d="M106.286 298.227C114.703 297.562 117.773 303.823 123.963 304.929C124.999 308.138 126.208 306.753 126.91 307.349C129.927 310.962 132.434 311.646 132.26 314.452C133.891 315.732 135.399 316.96 137.1 318.135C140.379 318.609 140.853 322.134 145.272 321.504C145.553 321.679 145.869 321.854 146.149 322.03C146.43 323.152 146.518 324.362 146.799 325.484C147.939 325.327 148.973 325.134 150.183 325.047C151.832 328.133 153.077 328.712 154.55 328.432C155.585 329.361 156.725 330.361 157.917 331.238C159.776 332.326 161.653 333.431 163.6 334.571C164.196 334.922 164.775 335.255 165.476 335.676C166.95 338.622 167.792 339.92 169.019 339.359C171.246 337.728 168.914 341.393 171.124 341.218C172.965 342.113 174.596 343.884 177.104 344.042C177.911 344.709 178.805 345.463 179.594 346.112C179.647 346.936 179.595 347.725 179.542 348.514C181.664 348.918 183.663 349.304 185.785 349.708C188.451 351.251 191.099 352.777 193.765 354.321C194.765 354.9 195.729 355.444 196.641 355.97C197.237 356.321 197.939 356.707 198.518 357.04C199.745 358.548 201.008 360.056 202.254 361.582C203.972 362.284 205.656 362.986 207.339 363.687C208.883 363.267 210.969 363.495 211.548 365.266C214.021 366.687 216.599 368.143 219.177 369.599C219.125 369.897 219.195 370.248 219.247 370.441C221.072 374.229 222.194 371.458 222.948 371.756C225.175 372.195 227.314 372.757 229.647 373.265C230.734 373.862 231.822 374.493 232.926 375.107C234.593 377.79 236.224 380.474 237.89 383.157C238.452 383.297 239.083 383.333 239.662 383.491C239.89 383.298 240.223 383.175 240.38 383.087C243.695 385.104 246.957 387.244 250.096 389.332L249.518 390.436C250.746 392.716 251.254 393.014 251.745 393.295C251.64 394.698 251.483 396.188 250.975 398.135C252.711 396.855 254.429 395.558 256.217 394.155C257.217 394.699 258.217 395.243 259.111 395.751L258.129 397.61C256.621 397.259 254.851 401.064 251.308 399.941C251.08 399.643 250.922 399.24 250.642 398.784C249.923 398.696 249.081 398.556 248.414 398.345C247.66 396.609 246.958 394.995 246.204 393.259L242.311 391.084C241.697 390.751 241.03 390.365 240.417 390.032C238.821 390.575 237.716 389.014 235.05 386.243C229.578 383.191 224.212 380.174 218.722 377.104C217.425 376.368 216.232 375.701 214.952 374.947C212.462 374.49 208.849 373.262 206.411 370.088C205.148 370.018 203.816 370.543 202.851 369.684C202.289 366.457 198.501 366.246 196.344 362.125C195.081 361.143 193.696 360.073 192.433 359.091C188.838 356.898 184.594 355.354 180.402 353.758C179.894 352.337 179.42 351.092 178.911 349.672C174.983 350.618 170.95 348.934 168.424 346.023L155.533 335.446C154.2 334.815 152.973 333.271 151.202 334.341C150.693 334.043 150.202 333.762 149.728 333.464C147.729 330.518 146.677 330.517 145.852 330.359C145.133 329.781 144.484 329.062 143.765 328.483C140.626 326.641 137.487 324.764 134.348 322.922C134.523 321.905 134.663 320.993 134.75 319.924C133.681 319.941 132.699 319.836 131.699 319.748C131.12 319.415 130.419 318.994 129.84 318.66C128.77 318.011 127.683 317.38 126.613 316.731C126.139 314.819 121.755 313.977 121.159 311.838C116.984 306.751 110.25 303.839 106.286 298.227Z" fill="#FEDEB1"/>
<path d="M134.803 319.836C134.716 320.905 134.593 321.8 134.4 322.834C132.91 323.588 130.051 322.869 131.752 319.66C132.734 319.765 133.733 319.853 134.803 319.836Z" fill="#FFF3E3"/>
<path d="M131.843 341.457C133.053 341.195 134.263 340.932 135.525 340.546C137.525 342.37 139.471 344.001 141.523 345.703C141.699 346.299 141.997 346.948 142.278 347.614C143.207 349 144.067 350.28 144.979 351.648C144.909 351.788 144.786 352.016 144.646 352.262C143.681 351.893 142.576 351.49 141.612 351.121C140.49 350.77 139.367 350.455 138.403 350.051C136.105 349.683 137.718 345.93 137.052 344.562C135.649 345.193 134.895 347.666 133.667 347.28C132.878 346.806 132.089 346.368 131.3 345.894C130.879 345.473 130.528 344.947 130.177 344.421C130.247 344.316 130.388 344.07 130.458 343.93C130.949 343.053 131.369 342.317 131.843 341.457Z" fill="#FFF3E3"/>
<path d="M149.764 333.358C147.922 334.042 144.818 333.042 145.888 330.254C146.694 330.429 147.764 330.412 149.764 333.358Z" fill="#FFF3E3"/>
<path d="M219.585 399.709C220.953 399.849 222.496 399.884 223.934 399.885C224.022 399.937 224.25 400.06 224.425 400.165C225.706 401.867 227.074 403.69 228.372 405.409C229.406 405.181 230.265 405.024 231.3 404.796C232.581 407.76 237.228 406.831 237.912 409.935C239.192 410.97 240.437 412.005 241.893 412.969L245.225 414.794C245.436 414.899 245.629 415.022 245.716 415.074C245.453 415.583 245.243 415.933 245.243 417.196L241.228 418.826C240.245 417.984 238.352 417.879 238.158 416.318C237.194 415.459 236.142 414.722 235.177 413.863C234.055 413.512 233.055 413.214 231.933 412.863C230.039 414.686 228.934 412.143 227.513 411.845C227.268 411.073 227.11 410.179 226.461 409.004C223.62 409.67 222.725 409.161 221.708 408.6C221.55 407.705 221.059 406.653 222.304 405.093C222.216 405.04 222.006 404.935 221.901 404.865C220.726 405.338 219.726 405.741 218.551 406.214C217.78 405.478 216.079 405.46 216.078 404.022C217.955 402.953 217.972 400.235 219.585 399.709Z" fill="#FFF3E3"/>
<path d="M98.2163 274.342C99.0407 275.166 100.443 273.237 100.795 277.551C99.9352 276.552 98.9881 275.464 98.2163 274.342Z" fill="#FEE4BF"/>
<path d="M103.6 279.27C105.214 280.077 106.915 280.796 108.598 281.498C109.861 282.27 111.036 282.954 112.281 283.708C113.772 286.567 115.632 290.776 119.402 291.074C119.841 292.319 119.157 293.529 119.087 294.792C119.858 295.248 120.648 295.722 121.419 296.178C124.558 295.775 123.91 297.335 124.068 300.229C124.699 300.264 125.944 299.23 126.856 298.809C128.329 299.195 133.713 299.669 130.539 303.299C130.96 304.386 131.381 305.438 131.89 306.403C132.592 306.999 133.784 306.087 134.713 305.824C138.028 308.052 141.325 310.262 144.727 312.542C146.13 311.911 147.095 313.437 148.305 313.841C148.481 314.928 148.674 316.173 148.867 317.243C149.638 317.699 150.428 318.172 151.199 318.628C153.672 317.313 155.496 319.383 158.197 321.944C159.372 322.628 160.652 323.382 161.915 324.154C162.914 325.399 163.861 326.451 164.949 327.574C166.475 329.275 169.456 326.785 170.017 329.696C170.859 330.503 171.701 331.31 172.525 331.959C173.104 332.292 173.788 332.696 174.384 333.047C177.891 332.17 178.628 335.011 174.367 337.729C174.157 339.061 173.631 340.219 175.28 340.535C176.034 341.289 176.876 342.096 177.788 342.797C178.682 343.306 179.647 343.885 180.541 344.393C182.645 344.148 184.206 346.025 185.803 349.69C183.681 349.286 181.682 348.9 179.56 348.497C179.595 347.725 179.647 346.936 179.612 346.094C178.805 345.428 177.928 344.691 177.121 344.025C174.614 343.866 172.983 342.095 171.141 341.2C168.949 341.393 171.281 337.728 169.037 339.341C167.792 339.92 166.95 338.622 165.494 335.658C164.81 335.255 164.213 334.904 163.617 334.553C161.653 333.395 159.794 332.308 157.935 331.22C156.725 330.361 155.602 329.344 154.568 328.414C153.095 328.694 151.849 328.116 150.201 325.029C148.991 325.116 147.938 325.327 146.816 325.467C146.553 324.327 146.448 323.134 146.167 322.012C145.009 321.977 143.677 322.012 142.449 322.082C141.134 321.643 139.976 320.45 140.292 319.188C140.151 317.154 138.152 318.556 137.082 318.118C135.399 316.96 133.855 315.732 132.242 314.434C132.417 311.629 129.927 310.927 126.892 307.331C126.173 306.753 124.963 308.138 123.946 304.911C117.755 303.805 114.703 297.562 106.268 298.21C104.515 297.368 102.656 296.49 100.902 295.648C100.235 294.772 99.7618 293.982 99.2005 293.141C98.1833 292.193 97.2011 291.422 96.2716 290.527C96.7097 288.651 97.288 285.898 99.0763 283.548C100.567 282.163 102.127 280.673 103.6 279.27Z" fill="#FEE4BF"/>
<path d="M121.985 331.11C126.457 331.163 128.702 332.496 127.896 335.232C125.459 337.213 123.336 335.161 121.985 331.11Z" fill="#FEE4BF"/>
<path d="M169.427 364.242C170.619 363.962 171.584 364.821 173.443 367.382C171.514 368.013 168.883 367.311 169.427 364.242Z" fill="#FEE4BF"/>
<path d="M204.111 349.342C202.34 352.516 200.779 351.621 199.727 349.271C200.55 345.396 202.673 349.342 204.111 349.342Z" fill="#FEE4BF"/>
<path d="M209.495 353.218C211.144 352.377 211.512 354.534 212.757 355.078C221.49 352.624 223.894 363.865 231.61 364.953C232.978 365.55 234.399 366.023 235.819 366.497C238.397 367.953 239.888 371.653 245.114 371.058C245.272 372.443 247.851 375.793 248.323 372.058L254.97 373.374C255.233 373.848 255.391 374.251 255.636 374.532C256.093 377.513 258.373 378.32 262.283 378.233L265.282 378.426C265.527 378.707 265.685 379.11 266.019 379.478C266.79 380.215 267.65 381.004 268.579 381.688C268.684 381.758 268.877 381.846 268.983 381.916C270.158 382.39 271.473 382.793 272.7 383.144C272.034 384.372 271.386 385.617 270.807 386.721C270.772 387.037 270.842 387.388 270.965 387.616C270.579 388.352 270.124 389.229 269.72 389.948C270.299 391.053 270.948 392.228 271.632 393.403C272.351 393 273.175 392.667 274.017 392.316C275.069 392.737 276.121 392.983 277.244 393.298C277.349 393.369 277.542 393.456 277.752 393.562C277.455 394.842 277.314 395.859 277.069 397.016C275.052 396.227 273 395.437 271.054 394.508C269.949 393.438 268.844 392.333 267.739 391.263C264.863 393.051 264.038 389.246 261.776 388.632C259.514 388.508 257.322 388.245 255.165 388.192C253.463 382.458 246.993 384.123 244.221 379.668C243.555 379.948 243.046 380.141 240.399 382.193C240.364 382.508 240.504 382.719 240.469 383.034C240.294 383.104 239.978 383.245 239.75 383.438C239.171 383.28 238.54 383.244 237.979 383.104C236.33 380.403 234.664 377.72 233.015 375.054C231.91 374.44 230.805 373.826 229.735 373.212C227.42 372.721 225.246 372.16 223.036 371.703C222.265 371.423 221.16 374.176 219.336 370.388C219.301 370.212 219.248 369.844 219.266 369.546C219.669 368.792 220.125 367.95 220.545 367.214C220.44 366.021 217.476 364.986 219.3 362.637C217.09 361.689 215.126 359.62 212.723 359.707C212.951 357.901 209.514 358.707 210.969 356.305C210.075 355.796 209.373 355.41 208.584 354.972C207.111 356.69 204.708 354.673 206.479 353.113C206.847 352.814 207.426 352.516 209.495 353.218Z" fill="#FEE4BF"/>
<path d="M215.022 374.841C216.32 375.578 217.512 376.244 218.792 376.999C218.652 377.244 218.512 377.489 218.459 377.612C217.214 376.753 216.179 375.823 215.022 374.841Z" fill="#FEE4BF"/>
<path d="M216.584 390.361C217.251 391.063 218.426 389.608 220.074 390.87C220.899 391.484 221.775 392.291 222.53 393.045C223.968 393.536 225.388 394.01 226.756 394.607C227.159 393.853 227.615 393.011 228.018 392.257L233.455 395.94C234.613 396.432 235.945 396.853 237.103 397.344C237.717 397.677 238.401 398.081 238.997 398.396C238.769 399.536 238.541 400.711 238.401 401.903C239.243 402.535 240.137 402.553 241.628 402.921C242.031 402.167 242.487 401.325 242.89 400.571C244.714 399.8 246.608 398.994 248.431 398.222C249.098 398.433 249.922 398.556 250.659 398.661C250.922 399.135 251.097 399.555 251.325 399.819C251.185 401.327 251.098 402.712 250.835 404.167C252.062 405.009 253.465 404.343 254.57 405.413C254.833 406.342 255.219 407.36 255.553 408.184C254.588 409.253 253.624 410.288 252.73 411.252L251.239 410.428L245.663 415.022C245.575 414.969 245.365 414.864 245.172 414.741L241.84 412.917C240.402 411.97 239.139 410.917 237.859 409.882C236.158 408.707 234.439 407.549 232.808 406.444C232.246 403.393 229.827 406.69 228.301 405.374C227.02 403.673 225.652 401.849 224.354 400.13C224.162 400.007 223.951 399.902 223.863 399.85C222.425 399.849 220.9 399.796 219.514 399.674C218.813 398.797 218.024 397.867 217.217 396.955C215.814 397.621 214.814 396.095 213.92 395.096L216.584 390.361Z" fill="#FEE4BF"/>
</g>
</g>
</svg>
