<svg width="164" height="149" viewBox="0 0 164 149" fill="none" xmlns="http://www.w3.org/2000/svg">
<path d="M47.158 94.0244C42.2905 96.5265 42.3037 103.808 46.571 107.208C51.1924 110.889 57.5942 107.668 59.5882 103.01C61.7957 97.8447 58.0342 91.5391 52.3554 90.4579C46.6765 89.3768 41.9267 94.4501 42.827 99.8746C43.0655 101.331 45.3009 100.761 45.0592 99.3225C44.3846 95.2386 48.4621 91.6625 52.5437 92.8152C56.6254 93.9678 59.1255 98.6853 57.2787 102.435C55.8373 105.367 51.8768 107.743 48.5818 105.847C44.9768 103.766 44.7231 97.8863 48.3482 96.011C49.659 95.3346 48.4666 93.3404 47.1635 94.0148L47.158 94.0244Z" fill="#10100E"/>
<path d="M117.169 48.328C112.572 50.6911 112.585 57.5684 116.615 60.7796C120.98 64.256 127.026 61.2136 128.909 56.8144C130.994 51.9361 127.441 45.9808 122.078 44.9597C116.715 43.9387 112.229 48.7301 113.079 53.8532C113.304 55.2285 115.415 54.6909 115.187 53.3318C114.55 49.4748 118.401 46.0974 122.256 47.186C126.111 48.2746 128.472 52.7301 126.728 56.271C125.366 59.0404 121.626 61.2844 118.514 59.4938C115.109 57.528 114.87 51.9754 118.293 50.2043C119.531 49.5655 118.405 47.682 117.175 48.319L117.169 48.328Z" fill="#10100E"/>
<path d="M46.3625 18.773V39.3328C46.3625 40.8538 48.353 40.8596 48.353 39.3328V18.773C48.353 17.2462 46.3625 17.2462 46.3625 18.773Z" fill="#10100E"/>
<path d="M38.1331 28.0766H57.7151C59.2543 28.0766 59.2543 26.0898 57.7151 26.0898H38.1331C36.5881 26.0898 36.5881 28.0766 38.1331 28.0766Z" fill="#10100E"/>
<path d="M119.923 115.324C115.326 117.687 115.339 124.565 119.369 127.776C123.734 131.252 129.78 128.21 131.663 123.811C133.748 118.932 130.195 112.977 124.832 111.956C119.469 110.935 114.983 115.726 115.833 120.849C116.058 122.225 118.17 121.687 117.941 120.328C117.304 116.471 121.155 113.093 125.01 114.182C128.865 115.271 131.226 119.726 129.482 123.267C128.121 126.037 124.38 128.281 121.268 126.49C117.863 124.524 117.624 118.972 121.048 117.2C122.286 116.562 121.159 114.678 119.929 115.315L119.923 115.324Z" fill="#10100E"/>
<path d="M57.8462 93.6436C57.8462 93.6436 86.8033 63.5966 116.193 54.584" stroke="black" stroke-width="2"/>
</svg>
