<svg width="219" height="141" viewBox="0 0 219 141" fill="none" xmlns="http://www.w3.org/2000/svg">
<path d="M20.6238 129.46C21.706 116.988 30.1912 104.186 44.0786 103.203C54.7083 102.45 65.6805 108.621 73.652 114.722C74.9677 115.729 85.5198 124.37 78.6633 126.401C66.1258 130.115 56.793 120.481 53.7337 109.202C49.1882 92.4442 55.3564 75.9257 67.8463 64.1861C83.3403 49.6228 109.897 36.4895 130.641 46.9395C140.314 51.8123 145.035 58.4259 147.748 68.6457C149.907 76.7816 151.049 86.9642 144.186 93.5929C132.89 104.502 119.45 93.7798 113.563 82.9754C101.634 61.082 111.068 30.6312 133.075 19.1536C152.379 9.08619 174.662 5.66284 196.139 4.32935" stroke="#0E0E0E" stroke-width="3" stroke-linecap="round"/>
</svg>
