<svg width="186" height="298" viewBox="0 0 186 298" fill="none" xmlns="http://www.w3.org/2000/svg">
<path d="M72.1394 294.044C78.9336 298.417 88.237 293.029 89.4345 285.069C90.7298 276.45 81.8827 270.647 74.453 271.535C66.2169 272.525 60.9298 281.982 63.7403 290.035C66.5509 298.087 76.5467 300.413 82.8195 295.262C84.5059 293.883 82.1271 291.447 80.4652 292.817C75.7402 296.692 68.1558 294.12 66.6161 288.055C65.0764 281.99 69.2637 275.316 75.4225 274.91C80.2371 274.589 86.2003 277.896 86.2085 283.504C86.2085 289.645 78.8766 294.306 73.8013 291.058C71.9683 289.882 70.2983 292.877 72.1231 294.044H72.1394Z" fill="#10100E"/>
<path d="M175.706 192.395C179.72 194.979 185.217 191.796 185.925 187.093C186.69 182 181.463 178.571 177.073 179.096C172.207 179.681 169.083 185.268 170.743 190.026C172.404 194.784 178.31 196.159 182.016 193.115C183.013 192.3 181.607 190.861 180.625 191.671C177.834 193.96 173.352 192.44 172.443 188.857C171.533 185.273 174.007 181.33 177.646 181.09C180.491 180.9 184.014 182.854 184.019 186.168C184.019 189.796 179.687 192.55 176.688 190.631C175.605 189.936 174.618 191.706 175.696 192.395H175.706Z" fill="#10100E"/>
<path d="M119.264 129.691C124.556 133.097 131.803 128.9 132.736 122.7C133.745 115.986 126.853 111.466 121.066 112.158C114.651 112.929 110.532 120.295 112.722 126.568C114.911 132.84 122.697 134.652 127.583 130.64C128.897 129.566 127.044 127.668 125.749 128.735C122.069 131.753 116.161 129.75 114.962 125.026C113.762 120.302 117.024 115.103 121.821 114.787C125.572 114.536 130.217 117.113 130.223 121.481C130.223 126.264 124.512 129.895 120.558 127.365C119.131 126.449 117.83 128.781 119.251 129.691H119.264Z" fill="#10100E"/>
<path d="M60.5181 15.9027C65.2993 18.9801 71.8461 15.1884 72.6888 9.58708C73.6003 3.5215 67.3745 -0.561911 62.1462 0.0631008C56.3504 0.759542 52.6299 7.41442 54.6077 13.0812C56.5855 18.748 63.6196 20.3849 68.0338 16.7598C69.2205 15.7896 67.5465 14.0753 66.377 15.0396C63.052 17.7658 57.7148 15.9562 56.6313 11.6883C55.5479 7.42037 58.4945 2.72386 62.8284 2.43814C66.2165 2.21195 70.4129 4.53937 70.4186 8.48587C70.4186 12.8074 65.2591 16.0872 61.6876 13.8014C60.3978 12.974 59.2225 15.0812 60.5067 15.9027H60.5181Z" fill="#10100E"/>
<path d="M6.8201 167.792L21.3825 159.384C22.4598 158.762 21.6506 157.351 20.5691 157.975L6.00679 166.383C4.92536 167.007 5.73868 168.416 6.8201 167.792Z" fill="#10100E"/>
<path d="M17.6769 169.812L9.67562 155.953C9.04671 154.864 7.6395 155.676 8.26841 156.765L16.2697 170.624C16.901 171.717 18.3082 170.905 17.6769 169.812Z" fill="#10100E"/>
<path d="M173.477 180.927C173.477 180.927 150.179 146.044 127.636 128.875" stroke="black" stroke-width="2"/>
</svg>
