<svg width="186" height="299" viewBox="0 0 186 299" fill="none" xmlns="http://www.w3.org/2000/svg">
<path d="M72.1397 294.89C78.9339 299.263 88.2372 293.875 89.4348 285.915C90.7301 277.296 81.8829 271.493 74.4533 272.381C66.2171 273.371 60.93 282.828 63.7406 290.881C66.5511 298.933 76.5469 301.26 82.8198 296.108C84.5061 294.729 82.1273 292.293 80.4654 293.664C75.7404 297.538 68.156 294.966 66.6163 288.901C65.0766 282.836 69.2639 276.162 75.4227 275.756C80.2373 275.435 86.2006 278.742 86.2087 284.351C86.2087 290.492 78.8768 295.152 73.8016 291.904C71.9686 290.728 70.2985 293.723 72.1234 294.89H72.1397Z" fill="#10100E"/>
<path d="M175.706 193.241C179.721 195.825 185.217 192.642 185.925 187.939C186.69 182.846 181.463 179.417 177.073 179.942C172.207 180.527 169.083 186.115 170.744 190.872C172.404 195.63 178.31 197.005 182.017 193.961C183.013 193.147 181.607 191.707 180.626 192.517C177.834 194.806 173.353 193.286 172.443 189.703C171.533 186.12 174.007 182.176 177.646 181.936C180.491 181.746 184.014 183.701 184.019 187.014C184.019 190.643 179.687 193.396 176.688 191.477C175.605 190.783 174.618 192.552 175.697 193.241H175.706Z" fill="#10100E"/>
<path d="M119.264 130.537C124.557 133.943 131.803 129.746 132.736 123.546C133.745 116.832 126.854 112.312 121.066 113.004C114.651 113.775 110.533 121.141 112.722 127.414C114.911 133.686 122.697 135.498 127.583 131.486C128.897 130.412 127.044 128.514 125.749 129.582C122.069 132.599 116.161 130.596 114.962 125.872C113.763 121.148 117.024 115.949 121.822 115.633C125.572 115.382 130.217 117.959 130.223 122.327C130.223 127.111 124.512 130.741 120.559 128.211C119.131 127.295 117.83 129.628 119.252 130.537H119.264Z" fill="#10100E"/>
<path d="M60.5184 16.7489C65.2995 19.8263 71.8463 16.0346 72.689 10.4333C73.6005 4.36769 67.3748 0.284281 62.1465 0.909292C56.3507 1.60573 52.6301 8.26061 54.6079 13.9274C56.5857 19.5942 63.6198 21.2311 68.034 17.606C69.2207 16.6358 67.5467 14.9214 66.3773 15.8858C63.0523 18.612 57.7151 16.8024 56.6316 12.5345C55.5481 8.26657 58.4947 3.57005 62.8287 3.28433C66.2167 3.05814 70.4131 5.38556 70.4188 9.33206C70.4188 13.6536 65.2594 16.9334 61.6879 14.6476C60.398 13.8202 59.2228 15.9274 60.5069 16.7489H60.5184Z" fill="#10100E"/>
<path d="M6.82035 168.638L21.3827 160.23C22.46 159.608 21.6508 158.197 20.5694 158.822L6.00703 167.229C4.92561 167.854 5.73892 169.262 6.82035 168.638Z" fill="#10100E"/>
<path d="M17.6771 170.657L9.67587 156.799C9.04696 155.71 7.63974 156.522 8.26865 157.611L16.2699 171.47C16.9012 172.563 18.3084 171.751 17.6771 170.657Z" fill="#10100E"/>
<path d="M173.477 181.773C173.477 181.773 150.179 146.89 127.637 129.721" stroke="black" stroke-width="2"/>
</svg>
