<svg width="263" height="655" viewBox="0 0 263 655" fill="none" xmlns="http://www.w3.org/2000/svg">
<g opacity="0.85">
<g opacity="0.85">
<path d="M124.931 89.6904C125.018 91.0056 125.281 92.4962 125.667 93.8288C124.194 95.4424 122.58 97.1963 121.089 98.7923C123.386 100.879 125.385 102.948 127.559 105.157C128.628 107.524 129.575 110.014 130.469 112.241C135.59 110.241 136.905 108.786 142.096 108.118C143.201 109.749 144.305 111.38 145.269 113.116C142.989 115.571 140.587 118.184 138.149 120.798C136.938 122.113 135.605 123.551 134.395 124.867C132.905 124.709 131.765 124.551 130.415 124.254C130.028 127.48 129.625 130.865 129.221 134.074L127.239 136.266C125.433 136.845 123.907 137.424 122.153 138.301C125.888 140.949 119.803 141.949 121.258 144.597C116.382 148.526 108.824 148.685 111.927 153.086C109.332 153.086 106.421 155.296 104.333 157.944C108.979 164.239 97.2487 157.981 101.755 164.416C98.3001 163.241 93.6873 168.415 95.4229 171.484C88.0917 178.534 81.1986 188.198 76.6904 197.651C74.0416 202.824 67.9026 211.558 61.3438 213.313C60.9402 215.224 63.4478 215.627 64.5349 216.925C63.3599 217.539 62.5177 220.345 61.115 219.047C59.5719 218.626 58.9755 219.679 58.3266 220.433C58.1335 221.748 59.4135 222.467 60.3779 223.186C43.542 230.904 51.7989 248.772 35.0156 256.333C39.6623 258.98 32.9632 260.945 37.5397 264.049C35.1541 268.678 32.5756 273.151 30.3829 277.658C28.0497 283.778 21.9288 288.847 17.842 294.442C14.2469 295.757 14.1939 298.405 16.0875 300.229C13.1935 304 10.5976 307.963 7.73859 311.769C3.44195 313.576 1.93355 315.435 2.14326 320.415C0.10869 322.871 -2.0311 325.466 -3.94289 327.764C-8.80095 331.359 -10.4147 334.13 -6.9076 335.112L-8.04766 336.497C-9.73149 338.953 -11.0997 341.373 -12.5906 343.951C-12.8889 344.705 -13.117 345.74 -13.5555 346.669C-15.134 348.213 -17.0282 349.791 -18.6067 351.37C-21.7458 352.58 -19.221 355.526 -18.853 356.981C-20.8525 359.437 -22.852 361.927 -24.8515 364.382C-28.9729 366.856 -26.5708 369.223 -27.9738 370.17L-38.7781 383.674C-38.6032 386.901 -40.0941 388.778 -41.7252 390.795C-42.5845 390.707 -43.2859 390.462 -44.1276 390.356C-44.7591 391.128 -45.2501 391.76 -45.864 392.549C-46.1276 395.968 -47.3204 398.248 -46.9 401.194C-47.3911 401.826 -48.0049 402.58 -48.6188 403.369C-49.3729 403.562 -49.9516 403.895 -50.8461 404.264C-51.951 405.684 -53.1788 407.228 -54.2838 408.648C-55.003 410.314 -55.6521 411.559 -56.2485 413.068C-56.2662 414.243 -56.2664 415.435 -56.1088 416.75C-57.2661 416.68 -58.2482 416.751 -59.2127 416.803C-60.1248 418.347 -60.5809 419.715 -61.1774 421.223C-62.2824 422.643 -63.1594 423.731 -64.124 424.976C-64.0016 426.747 -63.8965 428.22 -63.774 429.991C-64.8967 432.587 -67.4396 433.517 -71.5956 432.658C-71.5608 434.587 -71.5436 436.498 -71.7192 438.287C-72.2103 438.918 -72.5786 439.392 -72.947 439.866C-73.2455 443.005 -73.8773 446.161 -74.1934 449.283C-77.0524 453.334 -76.8778 458.209 -82.1391 461.156C-81.736 462.611 -81.3328 464.067 -80.8245 465.347C-81.7015 466.89 -82.1577 468.258 -82.7191 469.801C-79.8963 473.992 -88.3492 476.799 -85.8948 481.463C-87.5786 483.673 -89.4027 486.058 -91.0866 488.268C-93.103 486.953 -94.9266 485.796 -96.9256 484.499C-97.5567 483.377 -98.2054 482.237 -98.6612 481.255C-97.4861 480.115 -96.1181 479.097 -94.9605 477.975C-91.5408 476.624 -96.3103 474.24 -95.3631 472.977C-94.6613 470.101 -93.9945 467.225 -92.9945 464.332C-91.4159 462.262 -89.9777 460.368 -88.3991 458.298C-87.276 452.862 -86.223 447.601 -84.8544 442.305C-83.6266 440.726 -82.5216 439.306 -81.329 437.727C-80.0134 435.255 -78.575 432.624 -77.0841 430.291C-79.2936 430.011 -81.5031 429.731 -83.5724 429.31C-85.2729 426.031 -79.6082 422.611 -85.9561 421.034C-82.2021 413.001 -71.7846 406.056 -78.0962 396.271C-81.4097 390.432 -80.1292 388.38 -79.0417 386.241C-77.5511 386.293 -75.9553 386.17 -74.5348 385.907C-71.9395 386.468 -70.3262 386.362 -68.8356 386.414C-66.24 385.046 -69.1157 382.872 -69.3258 381.259C-71.009 379.155 -72.5519 376.875 -74.1123 374.613C-69.657 367.493 -65.1141 360.671 -60.4835 353.691C-55.1698 352.024 -58.7116 348.377 -58.5008 345.852C-57.7466 344.922 -56.8696 343.835 -56.0979 342.888C-54.6422 341.467 -52.976 340.187 -51.6606 338.906C-46.6799 335.819 -51.1163 334.434 -49.7658 333.154C-49.7833 332.435 -49.8007 331.681 -49.5025 330.927C-41.9439 327.682 -47.0639 324.105 -44.4333 322.772C-43.1005 322.246 -41.7501 321.737 -40.0841 321.193C-40.4873 320.193 -40.7151 319.299 -40.9254 318.422C-40.4168 317.809 -40.0485 317.335 -39.6801 316.861C-33.9101 312.88 -41.0999 312.18 -38.1008 309.671C-37.3817 309.198 -36.3646 308.707 -35.3299 308.198C-35.0841 306.409 -34.663 304.761 -34.2419 303.112C-33.2774 303.06 -30.0331 302.901 -27.1398 303.515C-26.8942 303.199 -26.7539 303.059 -26.5083 302.743C-28.1735 297.64 -24.0164 290.327 -20.7716 286.767C-20.4905 283.049 -15.194 278.98 -11.5459 275.717C-13.1235 270.913 -9.07218 267.913 -6.17836 265.581L-0.0220639 258.232L6.16931 250.918C2.80286 247.482 7.32734 246.604 5.59155 244.588C5.399 242.221 9.29272 237.661 12.7648 238.011C13.1507 237.555 13.5366 237.099 14.0452 236.485C12.9061 231.207 15.0279 232.031 14.9761 226.542C20.0975 220.929 25.6047 215.317 30.9365 209.88C31.5856 208.389 28.5694 207.864 30.3057 206.934C31.0603 202.778 34.8124 207.582 36.9873 204.706C34.077 200.042 40.7059 198.568 37.9708 194.78C46.248 194.043 44.4606 185.24 50.7215 181.714C55.4401 173.068 60.0885 164.141 65.035 155.408C67.2626 151.847 72.1908 148.111 77.259 146.76C77.7852 146.164 78.4517 145.427 79.1182 144.691C80.7668 143.217 82.7311 141.709 84.5726 140.394C83.3627 139.219 82.5036 138.044 81.5042 137.01C87.0991 131.309 92.8343 125.469 98.3065 119.927C99.5 112.561 104.901 110.491 109.462 104.493C109.462 102.74 108.13 100.671 109.322 99.3376C110.129 98.4607 111.076 97.4435 111.883 96.5665C114.093 90.9897 116.672 88.201 120.162 86.1839C121.915 84.2897 123.669 82.3955 125.283 80.6417C132.034 82.7275 127.632 86.779 124.931 89.6904Z" fill="#FEECD1"/>
<path d="M109.585 99.2847C108.375 100.6 109.707 102.669 109.724 104.44C105.164 110.438 99.7627 112.508 98.5692 119.874C93.1146 125.434 87.3794 131.274 81.7669 136.957C82.7663 137.991 83.6605 139.166 84.8353 140.341C83.0113 141.674 81.0295 143.165 79.3809 144.638C78.7144 145.374 78.0654 146.129 77.5217 146.707C72.4536 148.058 67.5253 151.794 65.2977 155.355C60.3512 164.088 55.7028 173.015 50.9843 181.661C44.7408 185.169 46.5282 193.972 38.2335 194.727C40.9686 198.515 34.3046 199.989 37.25 204.653C35.0926 207.512 31.323 202.725 30.5684 206.881C28.8146 207.793 31.8483 208.336 31.1992 209.827C25.8674 215.264 20.3602 220.877 15.2388 226.489C15.2906 231.978 13.1688 231.154 14.3079 236.432C13.7993 237.046 13.4134 237.502 13.0275 237.958C9.53788 237.625 5.64417 242.185 5.85426 244.535C7.59005 246.551 3.06557 247.429 6.43202 250.866L0.24065 258.179L-5.91565 265.528C-8.80947 267.86 -12.8432 270.842 -11.2832 275.664C-14.9313 278.927 -20.2278 282.996 -20.5089 286.714C-23.7536 290.274 -27.9108 297.587 -26.2456 302.69C-26.4912 303.006 -26.6315 303.146 -26.877 303.462C-29.788 302.866 -33.0322 303.024 -33.9792 303.059C-34.4178 304.725 -34.8389 306.374 -35.0671 308.145C-36.1019 308.654 -37.119 309.145 -37.8381 309.618C-40.8547 312.144 -33.6474 312.827 -39.4174 316.809C-39.7857 317.282 -40.1716 317.738 -40.6627 318.369C-40.0665 318.79 -39.4879 319.193 -38.6989 319.737L-39.8389 321.122C-41.5049 321.666 -42.8553 322.175 -44.1881 322.701C-46.8188 324.035 -41.6987 327.611 -49.2573 330.856C-51.344 330.383 -53.2905 329.735 -55.2369 329.121C-56.0259 327.841 -57.0427 326.403 -57.6914 324.948C-53.254 320.23 -54.7619 318.687 -53.0955 315.478C-49.7986 314.846 -49.4825 312.145 -47.8164 310.865C-46.3431 309.462 -44.7998 308.339 -43.1337 307.059C-40.6242 295.362 -35.2575 291.082 -31.749 282.314C-26.4175 279.262 -27.6271 276.649 -28.328 272.966C-35.4834 276.685 -31.6783 278.456 -33.6953 280.929C-35.1333 281.139 -36.6063 281.069 -38.2197 281.14C-40.0622 289.399 -46.8321 295.398 -52.8826 298.959C-53.2337 301.659 -53.2692 304.325 -53.4975 306.868C-54.322 308.99 -55.2343 311.269 -55.8308 313.549C-58.7946 314.163 -61.7583 314.778 -64.722 315.392C-71.1233 319.479 -73.2631 322.145 -76.1393 323.793C-76.6658 326.354 -77.087 328.774 -77.4907 331.176C-80.2969 333.877 -83.0855 336.561 -85.769 339.595C-87.9433 338.087 -90.3105 336.457 -92.4847 334.949C-91.4674 333.686 -90.4852 332.423 -89.4679 331.161C-80.1207 328.336 -84.3289 325.18 -82.1189 322.058C-80.944 322.146 -79.9619 322.075 -78.8747 321.865C-78.3132 320.041 -77.6466 318.077 -77.2956 316.113C-73.3847 313.955 -69.7894 311.798 -66.0188 309.78C-69.9987 304.047 -66.8594 302.065 -65.9122 300.521C-60.9847 301.31 -63.509 295.348 -61.2465 292.98C-61.7899 291.384 -60.2639 288.771 -60.5967 286.544C-59.7022 285.439 -58.9305 284.527 -58.036 283.422C-57.9132 283.264 -57.6676 282.949 -57.5273 282.808C-56.5454 283.51 -55.5635 284.211 -54.5991 284.895C-52.9855 283.316 -51.0563 281.738 -49.2849 280.317C-49.5825 276.898 -48.5653 275.67 -46.899 273.653C-48.4419 271.794 -49.8446 270.076 -51.3875 268.217C-50.5982 267.288 -49.7212 266.2 -48.932 265.271C-47.7044 264.92 -46.4768 264.569 -45.0563 264.341C-45.2664 261.956 -45.1433 259.589 -45.0027 257.204C-44.4239 256.87 -43.6523 256.695 -43.0736 256.362L-41.1442 254.047C-38.6893 254.853 -36.094 255.484 -33.7092 255.974C-36.8824 250.451 -27.9736 247.995 -29.744 242.261C-23.8513 239.349 -23.5179 237.858 -23.1845 236.367C-22.0797 236.174 -21.0977 236.139 -19.9403 236.244C-19.1689 237.542 -18.38 238.857 -17.556 240.453C-16.7143 240.558 -15.8726 240.698 -15.1536 240.961C-13.7154 239.277 -12.1544 237.436 -10.7513 235.752C-10.1907 239.89 -10.5769 242.556 -14.2068 241.662C-14.8558 243.153 -15.7153 244.538 -16.3644 246.029C-18.9788 256.218 -29.8698 262.936 -27.644 272.177C-23.2596 269.897 -20.8746 268.914 -21.979 266.898C-10.8593 255.007 -4.45574 235.663 11.9773 225.227C11.6619 223.017 11.5395 220.93 11.2417 218.738C16.8193 211.197 26.2373 204.304 27.6764 196.412C28.3076 197.149 29.2897 197.114 30.0437 196.956C33.376 194.22 28.1859 190.327 29.1332 187.802C30.9045 186.872 32.781 185.802 34.6926 184.732C41.321 186.976 36.605 178.927 39.9196 176.945C42.7958 175.121 45.6194 172.999 48.1625 171.192C50.4953 167.457 54.8804 160.301 50.427 154.901C50.5675 154.024 50.6026 153.287 50.7956 152.674C54.023 147.623 57.5836 142.554 60.9864 137.644C63.0905 139.257 65.37 141.01 67.439 142.623C70.0168 142.605 71.0519 139.641 72.8934 138.291C73.5599 137.554 74.0861 136.958 74.7701 136.204C74.2792 135.327 73.9812 134.573 73.5429 133.994L79.9622 126.909C79.717 124.699 76.7711 123.682 77.2975 121.297C78.2271 120.263 79.0339 119.386 79.981 118.333C82.6815 118.929 85.3119 119.209 88.0124 119.805C90.1868 120.261 90.7132 117.876 92.1689 117.016C90.328 114.053 93.5025 111.264 92.7138 107.845C94.0468 106.372 95.257 105.056 96.6075 103.565C98.7819 104.021 99.3434 101.671 100.589 100.636C105.762 100.653 106.166 98.461 108.27 99.3725C108.498 99.4251 109.129 99.425 109.585 99.2847Z" fill="#FEE4BF"/>
<path d="M92.6081 107.88C93.4143 111.282 90.2047 114.071 92.0631 117.052C90.625 117.929 90.0811 120.296 87.9067 119.841C85.2062 119.245 82.5758 118.964 79.8753 118.369C84.067 114.808 88.2411 111.265 92.6081 107.88Z" fill="#FEECD1"/>
<path d="M73.4379 134.029C73.8762 134.608 74.1742 135.362 74.6651 136.239C73.9986 136.975 73.4725 137.572 72.7884 138.326C70.9469 139.676 69.9119 142.605 67.334 142.658C65.2474 141.063 62.9505 139.292 60.8814 137.679C63.6525 135.294 66.1079 132.908 68.879 130.523C71.7028 127.419 74.509 124.297 77.1925 121.333C76.6486 123.7 79.5945 124.717 79.8572 126.944L73.4379 134.029Z" fill="#FEECD1"/>
<path d="M32.0508 140.945C36.9951 147.257 27.6305 148.416 29.7867 153.589C28.3663 153.747 26.7529 153.782 25.1396 153.817C23.9999 152.958 22.6673 151.941 21.51 151.065C21.5104 148.54 21.6685 146.137 21.7215 143.91C24.8607 142.524 27.8771 141.296 31.0864 140.226C31.2793 140.349 31.665 140.629 32.0508 140.945Z" fill="#FEECD1"/>
<path d="M8.84471 181.158C6.84551 181.65 4.82876 182.159 3.0049 182.79C0.339208 184.053 1.98725 186.543 0.934784 188.507C0.846813 190.454 0.758853 192.365 0.670882 194.312C1.68783 195.329 2.58202 196.468 3.79184 197.643C2.09064 198.889 0.406984 200.116 -0.961023 201.344C-3.03022 200.818 -4.9591 200.117 -6.90552 199.433C-14.9203 203.977 -11.8169 208.027 -12.9924 211.657C-13.3783 212.113 -13.7641 212.569 -14.3078 213.183C-16.3073 215.182 -18.5346 217.059 -20.6744 219.199C-21.2532 220.269 -21.7971 221.619 -22.3759 222.689C-23.2881 224.513 -24.0774 226.179 -25.1825 227.845C-25.5683 228.301 -25.9542 228.757 -26.3576 229.23C-27.6555 230.774 -28.9709 232.3 -30.1461 233.685C-30.6547 234.299 -31.0581 234.737 -31.4615 235.211C-32.4965 237.193 -33.7418 239.034 -34.7592 240.998C-35.2678 241.612 -35.6712 242.086 -36.0571 242.542C-37.7937 245.751 -39.4074 248.803 -40.9511 252.135C-41.1441 252.749 -41.1442 253.485 -41.3197 254.081L-43.249 256.397C-43.8277 256.73 -44.5994 256.905 -45.1781 257.239C-49.2644 259.501 -53.7892 262.694 -49.1074 265.306C-49.8967 266.235 -50.7737 267.323 -51.5629 268.252C-52.9309 269.515 -54.5795 270.778 -56.2632 272.041C-54.9311 276.46 -57.299 279.704 -57.7027 282.843C-57.8255 283.001 -58.0711 283.317 -58.2114 283.457C-59.1059 284.562 -59.8776 285.474 -60.7721 286.579C-62.5785 287.263 -64.5777 287.825 -66.5769 288.386C-67.7345 289.789 -69.0149 291.35 -70.1725 292.753C-67.9984 295.769 -70.0158 300.487 -73.8908 297.278C-73.4004 301.557 -75.996 302.925 -77.8725 304.065C-78.4339 305.152 -78.9251 306.52 -79.2935 307.73C-76.5058 311.15 -79.908 312.693 -79.2244 314.885C-80.8731 316.92 -82.3815 318.814 -84.0302 320.848C-85.5735 321.234 -87.0642 321.918 -88.4145 322.462C-85.8197 325.724 -88.6084 329.179 -90.0989 328.39C-92.3084 328.074 -94.2548 327.461 -92.0627 327.022C-94.7287 330.319 -96.8684 332.249 -94.3785 333.756C-95.5538 336.369 -96.7291 338.983 -98.0097 341.771C-99.3426 343.069 -100.991 344.367 -102.447 345.822C-101.658 346.366 -100.658 347.05 -99.6765 347.716C-100.817 349.137 -102.044 350.715 -103.184 352.136C-105.394 354.275 -107.481 356.292 -109.709 358.415L-106.745 360.431C-108.868 363.149 -111.113 365.99 -113.235 368.674C-110.658 372.374 -113.832 374.11 -114.674 375.969C-117.655 375.899 -121.145 374.515 -119.901 380.705C-120.62 382.406 -121.672 384.124 -122.392 385.826C-124.882 389.018 -127.232 392.034 -129.6 395.068C-127.549 397.891 -130.531 400.978 -129.479 404.345C-131.689 406.029 -133.881 407.695 -136.284 409.256C-140.757 416.675 -140.512 422.181 -143.406 429.915C-147.054 432.335 -147.511 434.931 -148.738 433.388C-151.42 428.987 -148.614 426.461 -150.525 424.234C-149.578 422.2 -148.491 420.025 -147.333 418.131C-150.84 414.835 -141.633 411.484 -148.436 408.188C-146.595 406.978 -144.753 405.768 -142.859 404.855C-140.245 397.122 -134.58 387.809 -132.912 378.707C-131.141 377.217 -129.562 375.603 -127.809 374.13C-127.458 372.902 -125.02 372.113 -126.44 370.412C-125.879 367.36 -122.633 361.275 -116.601 361.73L-115.479 360.292C-116.39 355.277 -114.022 354.207 -114.951 352.33C-118.546 351.086 -115.459 348.315 -114.898 346.491C-113.88 343.264 -111.811 345.684 -107.515 344.473C-110.232 339.405 -106.286 336.02 -108.618 333.162C-98.3056 327.058 -98.8651 315.625 -91.0954 307.504C-89.6048 307.557 -87.9914 307.451 -85.5891 307.924C-85.3608 306.118 -85.3079 304.171 -85.2901 302.225C-85.5003 300.577 -85.6052 298.788 -85.6226 297.297C-73.6274 294.665 -87.8301 283.374 -75.467 283.004C-75.0985 281.794 -72.7661 281.215 -74.0109 279.338C-78.1142 277.901 -75.729 276.147 -74.3083 274.411C-72.9406 275.393 -70.6437 277.514 -69.3282 275.497C-65.5225 273.515 -69.4674 268.483 -69.1339 266.221C-67.3274 264.028 -65.398 261.713 -63.5915 259.521C-58.3473 253.61 -53.0505 247.998 -47.7537 242.386C-47.1749 241.316 -45.9999 240.667 -46.7888 239.352C-50.857 237.879 -48.6647 236.003 -47.244 234.301C-46.5252 235.301 -45.6132 234.985 -44.6487 234.932C-43.2278 231.723 -44.2972 229.707 -40.9825 226.883C-38.4751 228.724 -37.8785 226.163 -35.2833 227.566C-32.8791 215.869 -22.4263 207.836 -17.6547 196.121C-27.6859 198.928 -35.1225 207.732 -36.5791 214.659C-37.509 217.974 -39.6304 214.905 -41.4545 217.08C-42.2097 225.024 -51.9256 230.146 -54.3467 237.617C-57.3813 243.878 -65.0284 252.296 -65.5203 258.118C-67.274 259.101 -69.1506 260.241 -71.0271 261.381C-73.3768 260.469 -75.709 259.575 -77.8483 258.734C-76.9536 256.156 -75.9888 253.859 -74.8836 251.421C-77.8643 248.265 -72.2875 246.054 -71.0595 243.459L-64.8506 235.988C-65.1835 233.76 -66.5334 231.288 -65.6213 229.429C-62.7626 227.517 -60.1318 225.448 -57.4485 223.395C-53.3612 214.118 -45.0128 206.471 -40.0487 197.615C-35.0676 191.757 -33.366 187.986 -31.8398 184.356C-28.753 181.129 -25.4557 178.042 -22.0357 174.797C-21.0713 175.516 -20.3173 176.095 -19.3529 176.814L-19.6168 182.653C-15.8647 186.721 -14.6187 180.881 -12.4616 179.461C-12.3388 179.303 -12.0757 179.005 -11.9354 178.864C-6.2006 175.865 -4.88516 174.339 -3.72757 172.971C-2.21925 171.603 -0.500515 170.375 0.885028 169.165C2.69113 170.024 4.33939 171.006 6.1455 171.865C8.05673 173.32 9.96797 174.74 11.6863 176.037C10.7742 177.826 9.75686 179.335 8.84471 181.158Z" fill="#FED8A1"/>
<path d="M-48.4968 403.351C-50.5145 410.138 -46.517 415.889 -53.1812 418.591C-54.0758 420.117 -54.9353 421.958 -55.7423 423.782C-55.0767 429.464 -62.3375 434.62 -66.4592 439.514C-57.7097 446.965 -69.5298 451.281 -67.1107 457.138C-69.9697 461.189 -75.2832 461.488 -78.3527 465.89C-75.6179 472.168 -81.0373 476.921 -73.9709 481.041C-75.4091 482.935 -76.7421 484.653 -79.0746 485.759C-76.6903 490.142 -80.5837 492.808 -82.4255 496.088C-82.1628 498.14 -81.7072 500.314 -81.462 502.348C-88.7228 508.031 -85.1814 514.063 -90.6711 520.184C-90.0053 523.656 -94.5652 527.339 -88.3053 530.583C-92.0412 535.23 -92.3748 538.51 -91.3235 544.331C-84.537 544.418 -83.0104 537.912 -76.3647 541.401C-70.5613 549.239 -88.0451 550.346 -78.9272 556.517C-80.5057 557.85 -81.2953 561.305 -83.3469 560.481C-87.749 564.007 -95.7627 561.57 -100.989 565.043C-102.971 566.148 -105.9 568.516 -108.67 565.851C-110.038 564.062 -111.493 562.011 -112.948 559.924C-112.229 558.504 -111.685 556.978 -110.948 555.575C-109.194 554.803 -107.23 554.172 -105.284 553.522C-105.967 551.225 -105.213 548.191 -107.334 546.631C-104.072 544.246 -103.476 543.439 -105.685 538.775C-106.772 536.214 -107.859 533.654 -108.735 531.234C-106.823 527.043 -104.858 523.115 -102.701 519.098C-100.666 515.205 -98.6488 511.329 -96.5263 507.278C-98.0514 503.719 -94.5261 499.842 -95.0516 495.739C-94.3676 495.23 -93.3679 494.687 -92.5787 494.038C-91.9997 492.056 -91.5435 490.232 -90.9119 488.268C-89.2281 486.058 -87.404 483.673 -85.7202 481.463C-88.1746 476.799 -79.7217 473.992 -82.5444 469.801C-81.983 468.258 -81.5444 466.908 -80.6498 465.347C-81.1757 464.049 -81.5613 462.611 -81.9644 461.156C-76.7031 458.209 -76.8778 453.334 -74.0188 449.283C-73.7202 446.143 -73.0884 442.987 -72.7723 439.865C-72.404 439.392 -72.0357 438.918 -71.5445 438.287C-71.3689 436.498 -71.4037 434.569 -71.421 432.658C-67.2475 433.534 -64.7221 432.587 -63.5994 429.991C-63.7219 428.22 -63.8269 426.747 -63.9494 424.976C-62.9672 423.713 -62.0902 422.626 -61.0028 421.223C-60.4238 419.697 -59.9502 418.347 -59.038 416.803C-58.0735 416.75 -57.109 416.663 -55.9341 416.75C-56.1268 415.435 -56.0916 414.242 -56.0739 413.068C-55.4774 411.559 -54.8284 410.314 -54.1092 408.648C-53.0042 407.228 -51.7589 405.667 -50.6714 404.264C-49.8121 403.895 -49.2509 403.544 -48.4968 403.351Z" fill="#FFF3E3"/>
<path d="M133.014 96.1247C133.592 99.3688 130.593 100.509 127.576 105.174C125.402 102.965 123.421 100.878 121.106 98.8095C122.58 97.1959 124.193 95.4421 125.684 93.8461C126.649 93.8635 127.631 93.8633 128.788 94.0385C131.138 94.6344 132.085 95.3708 133.014 96.1247Z" fill="#FFF3E3"/>
<path d="M100.501 100.689C98.9934 97.7431 101.571 96.7081 102.729 95.0946C104.412 96.4271 106.288 97.9174 108.182 99.3901C106.078 98.5136 105.657 100.723 100.501 100.689Z" fill="#FFF3E3"/>
<path d="M134.43 124.866C132.185 128.374 133.464 134.108 129.255 134.073C129.642 130.847 130.046 127.462 130.449 124.253C131.8 124.551 132.939 124.708 134.43 124.866Z" fill="#FFF3E3"/>
<path d="M128.746 139.633C128.255 141.246 127.746 142.842 127.447 144.613C125.887 144.911 124.396 145.49 123.028 145.911C118.748 151.313 114.153 156.715 109.926 162.169C109.399 169.219 100.525 174.797 95.9996 181.286C95.9284 188.16 85.8969 193.423 83.6162 200.332C77.7926 210.504 70.4259 220.571 63.0592 230.743C55.6399 240.862 48.2732 251.14 42.4321 261.68C44.168 262.96 41.5373 264.188 37.6092 264.013C33.0152 260.927 39.7319 258.945 35.0852 256.297C51.8684 248.737 43.6115 230.869 60.4474 223.15C59.4831 222.431 58.203 221.713 58.3961 220.397C59.0451 219.643 59.6239 218.608 61.1846 219.012C62.5873 220.309 63.447 217.486 64.6045 216.889C63.5174 215.592 60.9922 215.206 61.4134 213.277C67.9547 211.505 74.1112 202.789 76.7599 197.615C81.2506 188.145 88.1613 178.499 95.4925 171.448C93.7568 168.38 98.3696 163.206 101.824 164.38C97.3182 157.945 109.049 164.204 104.403 157.909C106.455 155.261 109.401 153.051 111.997 153.05C108.894 148.649 116.452 148.525 121.327 144.561C119.855 141.931 125.94 140.931 122.223 138.266C123.976 137.389 125.467 136.81 127.308 136.231C127.782 137.441 128.237 138.458 128.746 139.633Z" fill="#FFF3E3"/>
<path d="M97.565 150.159C96.3555 146.494 97.1448 145.599 98.0743 144.565C105.562 144.862 99.529 150.439 97.565 150.159Z" fill="#FFF3E3"/>
<path d="M92.7592 153.702C94.0904 164.434 85.9359 165.645 81.6035 171.556C84.0422 164.208 86.2351 158.157 92.7592 153.702Z" fill="#FFF3E3"/>
<path d="M36.98 133.596C39.3819 137.717 35.4005 142.224 32.0688 140.927C31.683 140.647 31.2973 140.331 31.1044 140.208C27.9126 141.296 24.8962 142.524 21.7395 143.892C21.126 142.121 20.5475 140.49 19.934 138.719C21.9162 134.668 25.0899 137.596 29.8597 137.981C30.193 137.227 30.2281 136.491 30.2458 135.737C31.3157 134.526 32.368 133.334 33.4554 132.141C33.964 132.299 34.6128 132.281 35.0863 132.123C35.6474 132.579 36.2085 133 36.98 133.596Z" fill="#FFF3E3"/>
<path d="M50.3393 154.918L43.0965 157.672C42.641 154.586 45.2371 149.5 50.7255 152.708C50.4974 153.287 50.4798 154.041 50.3393 154.918Z" fill="#FFF3E3"/>
<path d="M42.1132 164.196C38.4653 166.932 38.2543 170.79 36.202 174.21C31.7822 178.875 27.6608 181.769 25.2052 184.926C24.1529 186.119 23.1005 187.347 22.0482 188.539C19.4179 187.558 18.488 190.837 15.9105 188.68C13.5961 186.226 11.1414 183.596 8.84451 181.123C9.77419 179.317 10.7915 177.809 11.7212 176.002C13.8259 173.582 15.9481 171.179 18.0704 168.741C18.1759 166.812 15.8264 164.042 18.5622 163.095C20.7021 159.938 22.8245 156.763 25.1397 153.747C26.7706 153.729 28.3839 153.694 29.7868 153.518C29.9263 159.165 28.0669 162.778 30.2408 167.161C34.6774 167.529 30.8902 163.145 33.1175 162.075C35.3621 162.04 38.0806 159.321 41.7457 159.128C41.9208 160.811 41.9556 162.565 42.1132 164.196Z" fill="#FFF3E3"/>
<path d="M69.1677 190.689C66.292 188.515 65.8014 186.166 68.6776 184.376C73.3068 186.375 73.5693 190.04 69.1677 190.689Z" fill="#FFF3E3"/>
<path d="M2.34136 164.202L0.902662 169.148C-0.482879 170.358 -2.20161 171.586 -3.70993 172.954C-4.88506 174.339 -6.2005 175.865 -11.9178 178.847C-13.075 177.97 -14.4252 176.971 -15.5649 176.112C-15.4244 174.464 -15.1962 173.113 -14.8452 171.605C-13.4247 170.675 -12.3197 169.746 -10.7413 168.658C-10.2501 167.01 -9.89912 165.502 -9.46043 163.555C-3.44598 166.833 -3.05985 164.589 -1.67431 163.379C-0.902694 163.203 -0.11354 163.045 0.482739 162.729C1.02629 163.203 1.58739 163.624 2.34136 164.202Z" fill="#FFF3E3"/>
<path d="M17.9117 294.441C18.7879 298.229 17.8405 301.21 16.1572 300.229C14.2635 298.405 14.3165 295.757 17.9117 294.441Z" fill="#FFF3E3"/>
<path d="M-28.3807 272.984C-27.7149 276.667 -26.4877 279.262 -31.8016 282.331C-35.3102 291.1 -40.6944 295.397 -43.1863 307.077C-44.8349 308.34 -46.3783 309.462 -47.869 310.883C-49.1319 312.426 -50.2719 313.847 -51.5348 315.39C-52.0433 315.267 -52.4993 315.443 -53.1481 315.496C-54.8145 318.705 -53.3067 320.248 -57.744 324.966C-57.0603 326.421 -56.061 327.841 -55.2896 329.139C-53.3256 329.77 -51.3616 330.401 -49.31 330.874C-49.6082 331.628 -49.5908 332.382 -49.5733 333.101C-51.1166 333.487 -52.5897 334.154 -53.9576 334.68C-54.4663 335.294 -54.8346 335.768 -55.2029 336.241L-58.114 336.417C-58.6226 337.031 -58.9909 337.504 -59.3768 337.96C-58.167 339.521 -57.1677 340.941 -55.9053 342.8C-56.6595 343.729 -57.5541 344.834 -58.3082 345.764L-62.3941 345.116C-61.7108 349.236 -62.7809 352.13 -60.291 353.603C-64.9216 360.583 -69.4645 367.405 -73.9197 374.526C-76.0594 376.455 -78.3395 378.524 -80.2512 380.612C-82.1805 382.681 -78.2701 383.891 -78.8316 386.17C-79.9367 388.327 -81.1996 390.362 -77.8861 396.201C-80.2888 397.727 -82.3758 399.183 -84.5856 400.831C-96.2467 397.098 -85.7266 408.495 -93.8638 410.741C-91.5319 413.985 -94.9692 415.283 -97.0212 416.809C-99.3364 419.825 -101.669 422.824 -104.125 426.016C-105.107 427.279 -106.089 428.542 -107.071 429.84C-106.318 436.31 -113.21 438.959 -108.248 442.729C-111.318 445.974 -114.054 449.201 -118.701 450.938C-118.859 451.551 -118.824 452.288 -118.982 452.902C-116.422 453.883 -113.634 454.953 -111.073 455.934C-106.83 455.127 -107.531 458.003 -105.234 459.739C-103.989 460.072 -102.937 460.282 -101.815 460.773C-101.061 460.545 -100.482 460.211 -99.5878 459.843C-97.4656 457.44 -95.1154 455.16 -92.7827 452.898C-88.7315 450.319 -93.6763 447.795 -91.1682 444.901C-89.1339 443.849 -87.7655 440.481 -84.6268 442.287C-85.9954 447.583 -87.0659 452.827 -88.1715 458.281C-89.7501 460.35 -91.1883 462.244 -92.7669 464.314C-93.7669 467.207 -94.4687 470.083 -95.1356 472.96C-96.1002 474.24 -91.3132 476.642 -94.733 477.957C-95.8905 479.08 -97.2585 480.097 -98.4336 481.237C-97.9953 482.237 -97.3467 483.341 -96.698 484.481C-98.2764 485.358 -99.8372 486.218 -101.591 486.989C-102.187 487.796 -102.784 488.568 -103.38 489.375C-102.696 490.058 -102.31 490.76 -101.837 491.303C-101.241 491.689 -100.627 492.092 -99.8206 492.583C-103.258 495.109 -106.52 497.494 -109.765 499.897C-111.273 502.703 -112.992 505.404 -114.501 508.21C-117.272 510.701 -119.92 513.033 -122.867 515.384C-123.182 515.419 -123.831 515.472 -124.27 515.665C-129.302 510.808 -132.494 512.316 -135.071 510.931L-139.015 500.603C-126.091 498.9 -134.173 486.117 -125.089 481.978C-128.42 476.016 -120.773 472.648 -119.527 465.089C-119.334 462.827 -120.123 461.126 -118.439 460.074C-119.246 458.355 -119.842 456.777 -120.771 455.217C-123.507 457.251 -126.453 459.146 -129.417 461.057C-131.118 463.285 -132.82 465.547 -134.644 467.932C-133.995 469.072 -133.364 470.194 -132.926 471.194C-133.733 473.053 -134.522 474.929 -135.399 476.508C-136.206 477.174 -137.206 477.718 -138.205 478.262C-139.363 482.997 -139.698 489.433 -143.294 496.676C-144.416 496.185 -145.468 496.01 -146.713 495.677C-148.87 493.345 -155.341 495.643 -150.763 489.522C-149.202 488.627 -150.657 486.962 -151.306 484.629C-153.34 483.332 -155.339 482.035 -157.162 480.878C-156.566 480.071 -155.97 479.264 -155.496 478.615C-154.742 477.195 -157.933 475.862 -157.512 473.723L-154.618 469.847C-152.426 468.146 -150.409 466.585 -148.217 464.883C-149.216 464.234 -150.023 463.709 -151.04 463.042C-151.618 459.062 -145.041 457.114 -148.829 454.169L-145.9 450.328C-144.497 451.239 -143.287 452.028 -141.867 452.958C-139.832 449.485 -141.322 447.083 -141.743 444.873C-141.216 443.786 -140.778 442.401 -140.234 441.296C-140.637 441.033 -141.041 440.77 -141.234 440.647C-142.847 439.595 -144.442 438.526 -147.055 436.825C-148.072 436.159 -149.071 435.51 -149.878 434.984C-149.51 434.511 -149.141 434.002 -148.65 433.371C-147.405 434.896 -146.949 432.301 -143.319 429.898C-140.442 422.146 -140.686 416.64 -136.196 409.239C-133.793 407.678 -131.601 406.012 -129.391 404.328C-130.443 400.961 -127.461 397.874 -129.513 395.051C-127.145 392.017 -124.794 389 -122.304 385.808C-121.585 384.107 -120.532 382.389 -119.813 380.688C-121.794 377.409 -119.636 372.305 -116.585 374.62C-115.796 375.163 -115.183 375.566 -114.604 375.97C-113.762 374.111 -110.588 372.374 -113.165 368.674C-111.043 365.991 -108.798 363.115 -106.675 360.431L-109.639 358.415C-107.429 356.275 -105.359 354.276 -103.114 352.136C-101.974 350.715 -100.746 349.137 -99.6064 347.716C-100.588 347.05 -101.588 346.366 -102.377 345.823C-100.921 344.367 -99.2725 343.069 -97.9395 341.771C-96.6941 338.983 -95.5012 336.387 -94.3084 333.757C-96.7983 332.284 -94.6586 330.32 -91.9926 327.023C-94.1847 327.461 -92.2382 328.075 -90.0287 328.39C-88.5207 329.197 -85.732 325.741 -88.3444 322.463C-86.9765 321.936 -85.5033 321.235 -83.9601 320.849C-82.3114 318.814 -80.803 316.92 -79.1543 314.886C-79.8379 312.694 -76.4356 311.15 -79.2234 307.731C-78.8549 306.521 -78.3462 305.135 -77.8024 304.066C-75.9434 302.908 -73.3303 301.557 -73.8207 297.278C-69.9632 300.505 -67.9458 295.752 -70.1023 292.754C-68.9447 291.35 -67.6643 289.79 -66.5067 288.386C-64.5251 287.843 -62.5259 287.281 -60.702 286.579C-60.3516 288.789 -61.8776 291.402 -61.3518 293.015C-63.5968 295.365 -61.0724 301.327 -66.0175 300.557C-66.9647 302.1 -70.1215 304.064 -66.1241 309.816C-69.8947 311.833 -73.4899 313.955 -77.4008 316.148C-77.7518 318.112 -78.4361 320.094 -78.9799 321.9C-80.0672 322.111 -81.0493 322.181 -82.2242 322.093L-82.3127 327.898C-84.4698 329.073 -84.909 334.176 -89.5557 331.178C-90.5729 332.441 -91.5727 333.686 -92.5724 334.967C-90.3982 336.474 -88.031 338.105 -85.8568 339.613C-83.1733 336.579 -80.3846 333.895 -77.5784 331.194C-77.1747 328.792 -76.7535 326.371 -76.227 323.811C-73.3508 322.162 -71.1935 319.479 -64.8097 315.41C-61.846 314.795 -58.8823 314.181 -55.9186 313.567C-55.322 311.287 -54.4098 309.007 -53.5853 306.885C-53.3569 304.343 -53.3215 301.677 -52.9703 298.976C-46.9198 295.381 -40.1499 289.417 -38.3074 281.157C-36.6941 281.087 -35.221 281.157 -33.783 280.946C-31.7309 278.473 -35.5536 276.72 -28.3807 272.984Z" fill="#FEDEB1"/>
<path d="M7.80812 311.769C8.38626 315.574 4.84331 319.854 2.21279 320.415C2.02063 315.417 3.54655 313.576 7.80812 311.769Z" fill="#FFF3E3"/>
<path d="M25.1397 153.782C22.8245 156.799 20.6846 159.956 18.5623 163.13C15.6867 160.956 13.0215 158.922 10.3387 156.906L11.5314 155.538C14.7933 153.994 18.1781 152.293 21.5102 151.03C22.6674 151.906 24 152.923 25.1397 153.782Z" fill="#FEE4BF"/>
<path d="M50.3391 154.918C54.7749 160.336 50.3898 167.492 48.0745 171.21C45.5315 173.016 42.7078 175.139 39.8316 176.963L38.3575 184.083C36.323 186.047 32.6928 187.293 29.0452 187.819C28.0979 190.345 33.288 194.237 29.9558 196.973C29.1841 197.149 28.2196 197.166 27.5884 196.43C26.1668 204.304 16.7138 211.197 11.1537 218.756C11.4515 220.948 11.5739 223.035 11.8893 225.244C-4.52618 235.698 -10.9473 255.024 -22.067 266.915C-20.9625 268.932 -23.3476 269.949 -27.732 272.194C-29.9753 262.936 -19.0843 256.253 -16.4524 246.046C-15.9962 244.398 -15.54 242.749 -15.2767 240.978C-15.9781 240.698 -16.8373 240.575 -17.6791 240.47C-18.5206 238.857 -19.292 237.559 -20.0634 236.262C-21.2207 236.157 -22.2028 236.192 -23.3076 236.385C-23.641 237.875 -23.9744 239.366 -29.867 242.278C-28.0967 248.012 -37.0055 250.468 -33.8322 255.992C-36.2171 255.501 -38.8124 254.87 -41.2673 254.064C-41.0743 253.45 -41.0742 252.714 -40.8988 252.117C-39.3551 248.785 -37.7413 245.734 -36.0047 242.524C-35.6189 242.068 -35.233 241.612 -34.7068 240.981C-33.6719 238.999 -32.4441 237.175 -31.4092 235.194C-31.0233 234.738 -30.6374 234.282 -30.0937 233.668C-28.9186 232.282 -27.6207 230.739 -26.3052 229.213C-25.9194 228.757 -25.516 228.283 -25.1301 227.827C-24.0251 226.161 -23.2357 224.495 -22.3235 222.671C-21.7447 221.602 -21.2009 220.251 -20.622 219.181C-18.4998 217.024 -16.2724 215.147 -14.2555 213.166C-13.7468 212.552 -13.3434 212.078 -12.94 211.64C-11.7821 208.027 -14.8679 203.959 -6.85316 199.416C-4.92428 200.117 -2.99539 200.783 -0.908659 201.327C0.459351 200.099 2.14301 198.871 3.84421 197.626C2.61684 196.469 1.7402 195.311 0.723248 194.294C0.811216 192.348 0.899183 190.436 0.987151 188.49C2.03962 186.526 0.391573 184.036 3.05727 182.773C4.8636 182.124 6.88033 181.65 8.89707 181.141C11.2115 183.596 13.6662 186.226 15.9631 188.698C18.523 190.872 19.4705 187.575 22.1008 188.557C23.1706 187.347 24.2055 186.137 25.2578 184.944C27.7134 181.787 31.8348 178.893 36.2546 174.228C38.3244 170.79 38.5003 166.932 42.1658 164.214C42.0082 162.583 41.9909 160.812 41.7983 159.181C42.3245 158.584 42.7103 158.128 43.1313 157.672L50.3391 154.918Z" fill="#FEDEB1"/>
<path d="M-63.5911 259.556C-65.3801 261.731 -67.327 264.063 -69.1336 266.256C-69.432 268.518 -65.5222 273.55 -69.3278 275.532C-70.6433 277.549 -72.9403 275.428 -74.3079 274.446C-75.7111 276.165 -78.0963 277.954 -74.0106 279.374C-72.7658 281.25 -75.0982 281.829 -75.4666 283.039C-87.8472 283.426 -73.6446 294.718 -85.6222 297.332C-85.6049 298.823 -85.4999 300.612 -85.2897 302.26C-85.3076 304.207 -85.3604 306.153 -85.5887 307.959C-87.9735 307.504 -89.6044 307.592 -91.095 307.539C-98.8648 315.66 -98.3053 327.093 -108.617 333.197C-106.268 336.038 -110.232 339.441 -107.514 344.508C-111.828 345.701 -113.897 343.317 -114.897 346.526C-115.459 348.35 -118.546 351.121 -114.951 352.365C-114.004 354.224 -116.389 355.312 -115.478 360.327L-116.601 361.765C-122.633 361.31 -125.878 367.396 -126.44 370.447C-125.02 372.148 -127.457 372.937 -127.808 374.165C-129.58 375.656 -131.141 377.252 -132.912 378.743C-134.579 387.844 -140.245 397.157 -142.859 404.891C-144.753 405.803 -146.594 407.013 -148.436 408.223C-141.615 411.537 -150.839 414.87 -147.332 418.166C-148.49 420.06 -149.578 422.235 -150.525 424.269C-148.614 426.496 -151.402 429.004 -148.738 433.423C-149.229 434.054 -149.597 434.563 -149.965 435.036C-149.159 435.562 -148.159 436.211 -147.142 436.877C-150.299 439.859 -153.474 442.858 -156.718 445.542C-157.56 445.472 -158.402 445.402 -159.138 445.156C-162.014 446.174 -158.63 448.856 -164.786 450.628C-167.504 453.452 -161.56 455.854 -170.223 459.853C-172.486 462.466 -164.893 464.727 -169.891 467.025C-171.873 467.675 -173.855 468.324 -175.608 469.096C-177.187 471.2 -173.224 474.707 -176.89 476.443C-177.872 477.741 -178.819 479.039 -179.801 480.337C-180.818 477.286 -186.096 476.778 -183.834 474.13C-181.747 472.113 -179.729 469.815 -177.625 467.781C-176.783 465.431 -182.061 462.503 -178.956 459.925C-177.781 458.749 -176.431 457.715 -175.045 456.68C-175.256 455.347 -175.378 454.312 -175.378 453.085C-174.659 452.12 -173.8 450.98 -173.045 450.016C-170.958 447.262 -173.991 443.352 -173.184 437.109C-175.2 435.794 -177.199 434.462 -179.005 433.287C-178.268 432.305 -177.427 431.182 -176.672 430.218C-178.303 427.219 -180.599 422.292 -178.723 419.398C-176.618 418.591 -174.391 417.626 -172.146 416.679C-171.164 415.381 -170.304 414.241 -169.199 412.786C-167.269 406.753 -165.603 399.826 -162.726 394.915C-164.338 389.935 -158.412 395.616 -158.639 389.601C-156.587 388.531 -154.378 387.584 -152.273 386.812C-149.625 384.935 -153.272 381.008 -151.833 378.798C-147.94 377.991 -143.802 377.148 -139.908 376.341C-140.75 373.851 -141.644 371.238 -142.485 368.748C-140.328 367.538 -137.943 366.45 -135.47 365.205C-138.767 363.206 -137.556 358.91 -140.625 357.034C-140.502 356.876 -140.256 356.56 -140.011 356.245C-138.099 355.35 -135.854 354.438 -133.75 353.666C-134.311 350.089 -136.274 346.056 -135.59 342.846C-132.17 339.286 -129.872 335.235 -128.924 330.956C-125.416 324.993 -121.89 319.328 -118.137 313.541C-116.61 306.684 -108.631 302.877 -104.947 299.054C-102.913 296.528 -100.878 294.003 -98.8436 291.477C-95.8624 290.845 -92.8987 290.231 -89.935 289.617C-86.8308 288.091 -89.3381 285.093 -89.6009 283.918C-88.1277 282.48 -86.4616 281.199 -85.1111 279.919C-84.7424 277.201 -91.4236 276.658 -88.6525 273.676C-88.0737 273.343 -87.3021 273.168 -86.7234 272.834C-85.2674 269.906 -83.7764 266.977 -82.3205 264.048C-80.9173 262.329 -79.3739 260.435 -77.9707 258.716C-75.8489 259.54 -73.4992 260.452 -71.1495 261.363C-69.273 260.223 -67.3964 259.083 -65.6426 258.101C-65.1332 252.261 -57.4862 243.843 -54.469 237.599C-52.0304 230.146 -42.3321 225.007 -41.5769 217.063C-39.7528 214.888 -37.6314 217.956 -36.7014 214.642C-35.2449 207.715 -27.8083 198.911 -17.7771 196.103C-22.5487 207.818 -33.0015 215.851 -35.4057 227.548C-37.9833 226.163 -38.5799 228.724 -41.1048 226.865C-44.4196 229.689 -43.3502 231.706 -44.7711 234.915C-45.7356 234.968 -46.63 235.301 -47.3664 234.284C-48.7871 235.985 -50.9794 237.862 -46.9112 239.334C-46.1222 240.649 -47.2973 241.298 -47.8761 242.368C-53.0501 248.033 -58.3469 253.646 -63.5911 259.556Z" fill="#FED190"/>
<path d="M-4.36579 219.231C-6.04967 221.967 -7.73355 224.703 -9.64538 227.281C-8.08471 227.684 -6.34871 228.228 -4.6828 228.455C-5.96317 229.981 -7.1383 231.367 -8.4362 232.875C-9.22514 231.56 -10.1719 230.122 -10.8205 228.667C-12.6971 229.772 -14.5911 230.859 -16.3274 231.824C-17.6775 230.825 -18.8348 229.983 -20.2024 229.001L-19.0273 227.616C-16.9579 226.634 -15.0638 225.546 -13.3276 224.581C-10.6793 222.564 -8.01351 220.53 -5.15483 218.653C-4.92688 218.811 -4.54113 219.091 -4.36579 219.231Z" fill="#FEE4BF"/>
<path d="M18.5624 163.13C15.8266 164.077 18.1585 166.865 18.0705 168.777C15.9658 171.197 13.8261 173.617 11.7213 176.037C10.003 174.74 8.07422 173.302 6.18051 171.865C4.37441 171.006 2.70862 170.006 0.920044 169.165L2.35874 164.219C4.93695 161.641 7.56772 159.361 10.3563 156.923C13.0216 158.922 15.6868 160.956 18.5624 163.13Z" fill="#FEDEB1"/>
<path d="M81.6212 171.573C83.988 175.378 80.3227 177.29 78.3234 178.518C77.3937 180.289 76.3939 181.78 75.4817 183.569C72.8692 181.096 71.4492 178.028 75.6406 176.501C77.5348 174.677 79.5166 173.187 81.6212 171.573Z" fill="#FFF3E3"/>
<path d="M21.7393 143.892C21.6863 146.119 21.5106 148.504 21.5278 151.047C18.2133 152.292 14.8285 153.994 11.549 155.555C10.2867 153.346 10.0064 151.873 9.70846 150.382C12.4973 146.436 16.2153 143.981 21.7393 143.892Z" fill="#FFF3E3"/>
</g>
</g>
<g opacity="0.9">
<g opacity="0.9">
<path d="M29.221 69.1515C28.8001 69.8179 28.4668 70.3966 28.0984 70.9754C25.0468 73.2205 26.6074 73.9042 27.5718 74.4827C27.3437 75.6577 27.1682 76.7449 27.0452 77.99C26.1507 78.8845 25.2036 79.9018 24.4144 80.8664C21.7308 84.3915 16.9963 82.4633 17.855 86.4088C19.082 90.0211 12.5586 89.1803 13.6102 93.3538C11.0671 95.8969 7.89293 96.5111 8.47125 99.0889C8.17306 99.5624 7.94504 99.9658 7.64685 100.439L6.24361 102.754C7.15519 104.753 6.92718 105.122 6.82169 106.91C5.45389 106.735 3.94582 106.525 2.52543 106.192C2.05183 106.981 1.57824 107.735 1.10465 108.489C-1.9293 109.7 -2.40289 110.489 -3.4902 110.91C-4.73541 111.875 -6.05075 112.664 -7.41871 113.576C-7.06854 117.329 -10.3484 121.17 -12.1022 122.748C-13.4876 122.591 -13.5053 124.011 -14.1017 124.713C-11.4892 127.676 -16.592 125.87 -16.6975 127.659C-20.591 131.412 -24.9933 135.78 -26.4496 141.479L-27.8529 143.794C-33.8153 144.531 -31.7821 151.581 -36.2893 153.949C-38.4995 158.544 -44.3397 162.385 -45.761 168.61C-48.1988 169.961 -50.9522 171.908 -50.9702 175.012C-52.2156 177.169 -53.461 179.326 -54.7766 181.589C-61.213 186.026 -62.8976 193.672 -67.142 197.636C-74.4911 207.3 -79.7713 219.804 -86.7346 229.152C-88.1199 229.064 -88.0149 230.537 -88.6989 231.186C-86.1565 233.483 -90.0494 232.151 -90.3127 234.062C-92.4879 238.797 -96.9428 243.638 -96.7682 248.478C-96.926 248.776 -97.1014 249.057 -97.2769 249.372C-98.2239 249.899 -99.0306 250.495 -99.8374 251.091C-100.416 252.687 -102.1 253.985 -101.872 256.177C-102.434 257.159 -102.96 258.141 -103.469 259.036C-104.995 260.912 -106.257 261.404 -105.626 262.877C-109.239 268.524 -112.309 272.435 -113.502 277.205C-113.66 277.503 -113.818 277.801 -113.993 278.117C-114.537 279.116 -115.028 279.993 -115.572 280.993C-116.94 286.675 -124.025 285.378 -120.817 290.551C-121.518 291.849 -122.185 293.041 -122.904 294.322C-127.622 298.899 -129.411 302.302 -132.533 306.581C-133.621 309.492 -134.708 312.368 -135.779 315.262C-138.287 317.279 -138.883 318.366 -139.479 319.489C-140.461 319.243 -141.321 319.05 -142.11 318.752C-143.32 319.542 -144.6 320.401 -145.81 321.19C-143.952 323.926 -149.669 327.188 -148.249 330.012C-148.442 332.449 -152.177 330.223 -151.266 333.239C-151.266 334.186 -151.477 335.659 -150.302 336.413C-150.565 336.781 -150.775 337.061 -150.968 337.325C-150.67 338.324 -150.302 339.499 -150.004 340.498C-151.635 342.971 -150.952 343.936 -151.232 345.514C-152.232 345.953 -153.372 346.321 -154.477 346.689C-152.583 348.829 -155.231 349.864 -154.513 351.249C-153.917 352.546 -156.091 354.16 -157.407 355.23L-160.599 359.685C-160.985 360.246 -161.458 360.895 -161.844 361.456C-160.108 363.332 -161.704 364.367 -162.581 364.893C-164.002 366.419 -165.37 367.857 -166.685 369.453C-167.264 370.979 -166.51 371.838 -167.089 372.417C-168.089 372.855 -168.983 373.399 -169.878 373.908C-170.456 374.487 -169.667 375.521 -170.878 376.521C-171.474 377.363 -172.123 378.292 -172.789 379.239C-173.07 379.871 -173.298 380.66 -173.456 381.379C-173.93 382.308 -174.351 383.361 -174.912 384.378L-175.508 385.22C-173.738 387.517 -176.491 388.762 -175.737 390.323C-176.404 390.323 -176.947 390.375 -177.508 390.411C-178.175 391.358 -178.754 392.182 -179.42 393.129C-180.192 393.725 -180.841 394.409 -181.595 395.023C-182.315 398.724 -186.296 401.512 -187.348 405.686C-186.752 406.037 -186.279 406.335 -185.683 406.685C-185.718 407.212 -185.911 407.755 -185.999 408.369C-186.735 409.667 -187.349 411.017 -187.893 412.297C-188.647 412.385 -189.191 412.438 -189.752 412.508C-190.033 413.385 -190.454 414.227 -190.734 415.104C-190.366 415.332 -190.015 415.542 -189.542 415.84C-189.665 416.033 -189.752 416.121 -189.875 416.313C-190.945 418.19 -192.05 420.067 -193.12 421.943C-194.716 422.697 -196.33 423.469 -197.908 424.241C-197.733 424.487 -197.75 424.75 -197.628 425.083C-197.873 426.661 -198.049 428.169 -198.417 429.66C-198.137 430.502 -198.961 432.659 -197.699 433.29C-198.699 433.763 -199.821 434.149 -200.908 434.535C-202.592 435.518 -201.014 437.131 -200.803 437.797C-202.856 440.024 -204.82 442.164 -206.854 444.409L-207.433 445.268C-205.68 447.127 -207.241 448.162 -208.24 448.635C-208.696 449.302 -209.082 449.863 -209.468 450.424C-207.662 452.441 -209.539 453.441 -208.943 454.598C-211.275 456.404 -213.608 458.176 -215.941 459.983C-216.151 460.789 -216.291 461.491 -216.555 462.14C-215.924 464.91 -216.432 465.664 -217.537 466.068C-218.642 467.944 -219.607 469.891 -220.66 471.925C-218.836 473.679 -220.379 474.731 -221.361 475.222C-222.203 476.45 -223.028 477.695 -223.87 478.923C-221.976 480.816 -223.66 481.834 -224.519 482.378C-225.466 483.29 -226.29 484.254 -227.238 485.166C-228.869 489.112 -231.658 493.304 -232.588 496.723C-231.063 499.196 -233.115 500.792 -234.43 502.002C-232.852 504.632 -235.886 506.439 -235.43 508.298C-237.009 512.682 -235.975 517.61 -240.132 521.416C-238.887 523.327 -242.886 525.362 -238.765 526.676C-242.746 531.219 -239.696 535.743 -243.677 540.285C-244.186 542.617 -243.239 543.95 -244.379 546.177C-245.291 545.266 -246.203 545.651 -247.851 545.371C-249.237 547.984 -250.623 550.632 -252.061 553.088C-253.885 552.316 -255.831 551.492 -257.585 550.616C-258.918 549.845 -260.373 549.02 -261.706 548.284C-261.933 547.355 -262.722 546.776 -263.126 545.636C-265.405 543.813 -267.772 542.077 -269.999 540.412C-271.437 539.816 -272.98 539.15 -274.418 538.553C-274.383 537.782 -274.348 536.87 -274.312 536.098C-272.524 535.397 -270.857 534.642 -268.946 533.993C-268.718 534.397 -268.473 534.782 -268.157 535.098C-265.79 536.062 -263.545 536.939 -261.108 537.797C-260.512 538.394 -259.793 539.077 -259.144 539.586C-259.39 539.972 -259.583 540.27 -259.758 540.55C-260.337 541.41 -260.951 542.374 -261.582 543.321C-260.162 543.234 -258.846 543.146 -257.426 543.058C-256.514 543.198 -255.479 543.356 -254.568 543.496C-253.042 543.688 -251.639 543.864 -250.114 544.056C-250.937 542.531 -251.832 541.11 -252.726 539.41C-252.778 539.252 -252.901 538.919 -252.954 538.761C-252.252 537.182 -251.62 535.709 -250.813 534.201C-248.341 531.938 -250.831 531.693 -250.883 530.483C-250.638 530.098 -250.445 529.799 -250.252 529.536C-249.462 529.343 -248.779 529.08 -248.165 528.887C-247.603 527.239 -247.077 525.695 -246.621 523.977C-245.621 522.977 -244.569 521.855 -243.639 520.68C-243.99 519.698 -244.393 518.523 -244.744 517.541C-244.182 517.47 -243.639 517.383 -242.902 517.277C-242.516 516.716 -242.078 516.032 -241.692 515.471C-241.06 514.769 -240.306 514.156 -239.692 513.472C-236.851 511.682 -241.34 510.666 -241.235 508.737C-240.411 507.492 -239.656 506.352 -238.832 505.107C-237.973 504.142 -237.043 503.107 -236.184 502.143C-235.727 500.705 -235.306 499.337 -234.85 497.899C-235.622 497.057 -236.393 496.215 -237.112 495.251C-237.287 495.006 -237.287 494.76 -237.41 494.427C-237.427 493.217 -237.41 491.902 -237.322 490.762C-237.339 489.026 -237.251 487.36 -237.128 485.694C-236.391 484.817 -234.427 485.167 -234.217 483.554C-231.481 483.974 -232.761 481.888 -232.428 480.888C-232.042 480.046 -231.761 479.17 -231.48 478.258C-229.902 477.205 -228.446 476.205 -226.85 475.135C-227.692 474.645 -228.411 474.206 -229.13 473.803C-229.042 472.663 -228.761 471.506 -228.533 470.436C-227.551 470.471 -226.516 470.699 -225.605 470.839C-225.026 469.734 -224.552 468.524 -224.026 467.261C-222.64 466.472 -221.22 465.612 -219.782 464.735C-219.641 464.034 -219.431 463.227 -219.168 462.578L-221.079 459.44C-220.096 459.229 -219.114 459.019 -218.185 458.65C-218.027 457.686 -217.887 456.704 -217.729 455.739C-219.675 453.898 -217.991 452.916 -217.062 452.267C-216.43 451.074 -215.816 449.689 -215.202 448.303C-217.219 446.568 -213.378 445.146 -214.079 443.253C-213.272 440.131 -210.887 438.377 -210.606 435.747C-209.273 433.081 -207.992 430.503 -206.677 427.82L-205.116 425.557C-205.063 424.242 -207.448 424.278 -207.325 422.892C-207.062 422.524 -206.746 422.033 -206.413 421.559C-208.061 418.543 -206.64 416.491 -205.412 416.421C-202.133 418.016 -201.958 417.315 -201.572 416.754C-201.695 415.473 -203.466 415.316 -204.43 415.018C-204.763 413.598 -205.114 412.054 -205.429 410.652C-204.903 409.915 -204.377 409.143 -203.85 408.407C-199.992 408.476 -201.36 403.882 -198.536 402.005C-197.098 398.989 -195.221 395.323 -197.079 391.887C-196.237 390.939 -195.273 390.045 -194.36 388.993C-193.887 389.291 -193.536 389.501 -193.168 389.729C-190.555 387.712 -193.22 387.151 -192.519 386.38C-192.256 386.011 -192.063 385.713 -191.852 385.432C-187.819 385.221 -185.188 382.976 -187.485 381.662C-184.872 379.644 -187.467 378.978 -186.748 378.224C-186.134 377.119 -185.643 375.927 -185.029 374.822C-181.066 373.804 -179.575 374.593 -178.015 375.277C-176.629 374.523 -174.402 372.821 -175.419 370.437C-175.682 369.612 -175.927 368.771 -176.085 368.017C-175.085 367.578 -174.015 367.28 -172.84 366.806C-172.226 365.701 -171.823 363.93 -173.243 362.79C-172.366 362.264 -171.489 361.738 -170.577 361.212C-169.998 360.107 -169.367 358.879 -168.788 357.739C-167.087 358.002 -167.56 355.284 -164.965 356.897C-164.544 355.81 -164.176 354.845 -163.614 353.828C-165.893 350.356 -165.56 346.796 -162.929 343.85C-160.982 342.113 -159.842 340.798 -160.298 339.044C-157.141 336.589 -161.402 336.291 -159.859 334.853C-159.087 334.257 -158.315 333.661 -157.666 333.012C-155.597 332.029 -157.789 330.083 -157.035 328.803C-155.912 328.697 -154.632 328.575 -153.527 328.487C-152.264 326.031 -151.159 324.716 -152.79 321.753C-150.86 319.332 -149.492 316.526 -147.791 313.948C-146.545 311.651 -145.353 309.441 -144.177 307.249C-143.195 305.706 -142.02 304.145 -140.95 302.759C-140.617 302.426 -140.196 302.251 -139.933 302.022C-138.582 301.584 -135.689 300.9 -136.635 298.865C-135.531 298.287 -134.531 297.918 -133.601 297.374C-133.391 296.989 -133.216 296.673 -133.058 296.375C-132.479 295.024 -132.023 293.586 -131.514 292.306C-131.058 290.868 -130.584 289.448 -130.005 288.097C-129.9 286.729 -129.672 285.449 -129.443 284.134L-132.407 282.574C-132.828 282.469 -133.319 282.469 -133.74 282.363C-134.283 283.363 -134.827 284.363 -137.388 286.117C-136.827 290.01 -138.3 291.308 -140.001 290.94C-140.387 290.203 -140.86 289.589 -141.193 289.011C-140.474 287.976 -139.58 286.906 -138.861 285.871C-139.825 283.294 -137.755 281.82 -137.106 280.084C-136.264 278.857 -135.3 277.682 -134.335 276.506C-133.195 276.734 -132.16 276.892 -130.88 277.19C-130.775 276.979 -130.67 276.804 -130.617 276.681C-130.301 275.559 -130.073 274.524 -129.635 273.454C-129.968 272.63 -130.318 271.789 -130.722 271.07C-129.547 270.386 -128.389 269.719 -127.267 269.158C-126.53 269.543 -125.654 269.999 -124.935 270.402C-124.689 270.262 -124.338 270.192 -124.04 270.244C-122.918 270.841 -121.691 271.507 -120.463 272.138C-120.112 270.91 -119.709 269.595 -119.235 268.42C-119.182 268.332 -119.077 268.122 -119.007 268.017C-118.34 267.105 -117.534 266.228 -116.797 265.456C-116.446 265.14 -116.043 264.982 -115.745 264.719L-115.551 261.721C-115.639 257.81 -114.832 255.53 -111.85 255.074C-111.552 254.846 -111.149 254.688 -110.693 254.407L-109.377 247.761C-113.112 247.288 -109.762 244.71 -108.377 244.552C-108.972 239.326 -105.272 237.835 -103.816 235.257C-103.342 233.836 -102.868 232.416 -102.272 231.048C-101.184 223.332 -89.9601 220.945 -92.3963 212.195C-91.8525 210.95 -89.6955 210.581 -90.537 208.933C-89.8352 206.864 -90.1683 206.285 -90.3962 205.882C-91.9567 204.111 -93.9737 206.513 -92.2554 207.986C-92.6939 208.775 -93.0974 209.459 -93.5885 210.371C-95.9907 208.916 -95.2021 212.336 -96.9908 212.125C-96.9034 214.528 -98.9906 216.475 -99.9203 218.702C-102.287 216.896 -103.305 219.842 -104.497 219.948C-105.251 219.544 -106.093 219.089 -106.83 218.668C-105.374 216.09 -103.9 213.529 -102.497 211.039C-100.726 210.46 -100.497 208.373 -100.918 206.83C-100.216 205.146 -99.5323 203.445 -98.813 201.744C-97.3047 200.516 -95.7964 199.254 -94.2706 198.008C-93.9198 197.412 -93.5514 196.728 -93.2006 196.132C-92.6919 195.237 -92.1306 194.255 -91.5518 193.256C-90.0082 190.59 -88.4821 187.942 -86.9386 185.276C-83.2557 183.662 -81.3967 182.119 -81.6418 180.014C-81.1332 179.12 -80.5543 178.155 -80.0456 177.261C-79.3441 176.349 -78.5373 175.507 -77.7831 174.753C-77.4672 173.104 -76.3099 173.63 -74.9772 173.841C-72.2948 178.102 -69.4187 177.365 -70.295 173.857C-69.9617 173.279 -69.5583 172.595 -69.2075 171.998C-68.5585 171.174 -67.7517 170.332 -66.9449 169.49C-64.0163 168.911 -66.4885 165.948 -64.8223 164.422C-63.7174 163.352 -62.6475 162.388 -61.4023 161.388C-60.648 160.108 -59.9113 158.845 -59.1922 157.67C-56.6139 154.951 -54.5619 153.11 -55.8768 150.672C-55.4207 149.901 -54.9471 149.112 -54.4911 148.34C-53.4038 148.164 -52.1762 147.954 -51.089 147.778C-50.6855 146.568 -49.1597 145.603 -49.7908 144.201C-47.5106 140.798 -45.283 137.484 -43.0729 134.186C-43.3358 133.257 -44.2475 132.065 -43.6512 131.363C-42.7042 130.872 -41.6344 130.434 -40.5471 130.012C-36.9 133.168 -36.4433 127.802 -36.0573 126.329C-36.5131 125.417 -37.53 124.155 -37.4773 123.541C-37.4071 123.436 -37.2843 123.243 -37.2317 123.155C-35.9164 122.331 -34.6712 121.612 -33.426 120.893C-32.97 120.121 -32.4964 119.332 -32.0403 118.56C-30.7777 118.63 -29.5678 119.349 -28.3227 118.875C-28.0065 115.122 -23.7975 113.263 -20.9564 111.754C-20.2022 110.509 -19.483 109.334 -18.7463 108.071C-18.0621 106.37 -17.3429 104.704 -16.5185 103.073C-15.9221 102.091 -15.3783 101.232 -14.7995 100.267C-10.4855 99.9159 -12.4143 98.5133 -11.59 97.6889C-10.9937 96.9874 -10.2921 96.356 -9.69578 95.6544C-7.22261 91.8487 -0.470955 90.4624 1.108 85.7273C3.96678 83.2192 7.57945 81.8158 9.6668 78.1855C11.4032 76.2037 13.0694 74.292 14.911 72.3802C15.6299 72.8185 16.4716 73.3094 17.8042 74.1159C19.2072 73.5195 20.6453 72.923 22.0482 72.3266C23.3463 69.4154 25.6263 67.6263 28.3096 65.96C28.555 67.0472 28.8529 68.1519 29.221 69.1515Z" fill="#FEECD1"/>
<path d="M36.4303 56.5069C36.1844 58.9971 35.9036 60.8209 34.3604 60.9264C33.7639 62.3995 33.1148 63.9954 32.3956 65.4159C31.4485 66.6787 30.326 67.9765 29.2386 69.1692C28.8704 68.1696 28.5725 67.0649 28.0816 65.9777C28.3798 65.5042 28.678 65.0307 28.9236 64.6449C30.2215 63.0664 31.4843 61.5932 32.677 59.9446C33.9047 58.6818 35.1149 57.5768 36.4303 56.5069Z" fill="#FFF3E3"/>
<path d="M38.8288 84.4068C35.2512 85.3893 37.6004 90.3693 33.339 90.5628L30.4633 88.8447C28.0784 88.9853 27.2365 89.7921 24.957 88.7052C21.3791 91.8272 21.7295 94.2471 17.6256 96.9132C16.5557 98.3689 15.3981 99.772 14.2054 101.175C13.7845 101.841 13.4336 102.438 13.0828 102.999C12.5566 103.876 12.1357 104.542 11.6796 105.314C9.57542 104.192 9.61006 107.103 7.99665 107.594C7.01446 108.717 6.11995 109.751 5.1553 110.891C4.5063 111.961 3.80468 113.119 3.15569 114.153C2.19132 113.329 0.0870902 112.488 0.034236 114.154C-0.421975 115.978 -4.03432 115.172 -3.15793 118.047C-2.01816 118.591 -3.49133 119.433 -3.66681 120.24C-5.22739 119.31 -5.3153 120.836 -6.77072 120.258C-8.17393 122.327 -3.43967 125.869 -7.84146 127.22C-10.3318 128.658 -14.19 129.921 -14.3835 134.007C-11.8771 142.898 -25.3435 133.009 -20.5398 141.812C-20.4524 143.302 -22.6267 142.285 -23.153 143.443C-24.1002 145.512 -25.03 147.704 -26.1175 149.809C-29.1161 149.125 -28.4681 154.334 -31.4667 153.65C-31.3617 155.404 -31.4322 157.719 -33.3262 158.175C-35.7289 160.332 -36.8866 162.261 -39.2894 164.138C-39.3598 165.927 -43.9191 165.401 -41.5346 167.926C-39.4655 169.364 -42.1312 170.837 -42.4997 172.328C-45.5685 171.75 -45.1835 177.186 -48.7257 176.345C-50.3568 178.291 -51.9529 180.238 -53.7594 182.22L-53.304 185.587C-60.9865 196.601 -68.0021 204.493 -75.2114 216.927C-79.9289 218.98 -75.4403 223.258 -80.0351 225.398C-83.7182 228.801 -84.2975 233.132 -87.6824 236.061C-90.2428 236.342 -87.5776 238.446 -88.6825 239.27C-90.1913 244.251 -94.2073 245.427 -96.8908 248.496C-97.0479 243.638 -92.6105 238.815 -90.4353 234.08C-90.172 232.169 -86.2792 233.501 -88.8216 231.204C-88.1376 230.555 -88.2601 229.064 -86.8572 229.169C-79.8764 219.804 -74.6137 207.317 -67.2646 197.654C-63.0027 193.673 -61.3356 186.044 -54.8992 181.606C-53.6012 179.362 -52.3558 177.204 -51.0929 175.03C-51.0749 171.926 -48.2863 169.979 -45.8837 168.628C-44.4798 162.385 -38.6397 158.544 -36.4119 153.967C-31.9223 151.581 -33.9379 144.549 -27.9755 143.812L-26.5723 141.497C-25.1159 135.797 -20.7137 131.43 -16.8201 127.677C-16.7321 125.906 -11.6118 127.694 -14.2243 124.73C-13.6279 124.029 -13.6102 122.608 -12.2249 122.766C-10.471 121.188 -7.17362 117.329 -7.54133 113.594C-6.17337 112.682 -4.85804 111.892 -3.61283 110.928C-2.54306 110.524 -2.06946 109.735 0.982025 108.507C1.47315 107.735 1.92921 106.964 2.4028 106.21C3.84072 106.525 5.33127 106.753 6.69907 106.928C6.80455 105.139 7.03257 104.771 6.12099 102.772L7.52422 100.457C7.82241 99.9835 8.05044 99.5801 8.34863 99.1066C7.78785 96.5464 10.9445 95.9146 13.4876 93.3715C12.436 89.198 18.9418 90.0564 17.7324 86.4265C16.8912 82.4986 21.6082 84.4093 24.2917 80.8841C25.081 79.9195 26.0281 78.9023 26.9226 78.0078C27.2206 78.5864 27.6414 79.2177 28.0096 79.9717C29.2195 80.6905 30.2891 81.3392 31.4814 82.0755C33.0773 81.5667 34.7784 81.0579 36.3743 80.5492C37.0408 79.4969 37.3742 78.1465 39.1628 78.4269C42.5821 80.2326 38.0575 82.2324 38.8288 84.4068Z" fill="#FFF3E3"/>
<path d="M28.0983 70.9758C29.3607 72.6591 27.9752 73.5536 27.5717 74.4831C26.6073 73.9045 25.0467 73.2209 28.0983 70.9758Z" fill="#FFF3E3"/>
</g>
</g>
</svg>
