<svg width="123" height="129" viewBox="0 0 123 129" fill="none" xmlns="http://www.w3.org/2000/svg">
<path d="M18.9879 84.3012C17.6054 88.6404 21.8899 92.9268 26.387 92.4213C31.2566 91.8731 33.1156 86.2071 31.5483 82.2871C29.8082 77.9423 23.9009 76.4368 19.9386 79.1402C15.9763 81.8437 16.1728 87.6299 19.8862 90.2991C20.8811 91.0176 21.8566 89.3667 20.8698 88.6603C18.0761 86.6488 18.3648 82.1411 21.4333 80.4195C24.5018 78.6979 28.7373 80.009 29.8572 83.3065C30.7348 85.8837 29.8097 89.615 26.7656 90.4354C23.431 91.3289 19.8294 88.0111 20.852 84.7725C21.2228 83.6024 19.3529 83.1279 18.9855 84.2923L18.9879 84.3012Z" fill="#10100E"/>
<path d="M62.6653 16.7973C60.8427 22.5178 66.4911 28.1688 72.4198 27.5024C78.8397 26.7797 81.2905 19.3099 79.2243 14.142C76.9301 8.41414 69.1422 6.42932 63.9186 9.9934C58.6949 13.5575 58.954 21.1857 63.8495 24.7047C65.1612 25.6518 66.4472 23.4754 65.1462 22.5441C61.4632 19.8923 61.8438 13.9496 65.8892 11.68C69.9345 9.4103 75.5184 11.1387 76.9948 15.486C78.1518 18.8837 76.9322 23.8027 72.919 24.8843C68.5227 26.0623 63.7746 21.6883 65.1228 17.4186C65.6116 15.8761 63.1465 15.2505 62.6622 16.7856L62.6653 16.7973Z" fill="#10100E"/>
<path d="M94.6812 91.8629C92.1258 99.8833 100.045 107.806 108.357 106.872C117.358 105.859 120.794 95.3857 117.897 88.1402C114.681 80.1096 103.762 77.3268 96.4383 82.3237C89.1145 87.3206 89.4779 98.0157 96.3414 102.949C98.1805 104.277 99.9835 101.226 98.1595 99.9202C92.9958 96.2023 93.5295 87.8704 99.2011 84.6883C104.873 81.5062 112.702 83.9295 114.771 90.0245C116.394 94.7881 114.684 101.685 109.057 103.201C102.893 104.853 96.2365 98.7203 98.1267 92.7341C98.812 90.5714 95.3558 89.6943 94.6768 91.8465L94.6812 91.8629Z" fill="#10100E"/>
<path d="M28.9765 79.4215C28.9765 79.4215 55.277 49.3408 65.4844 24.3193" stroke="black" stroke-width="2"/>
</svg>
