<svg width="87" height="87" viewBox="0 0 87 87" fill="none" xmlns="http://www.w3.org/2000/svg">
<rect x="18.3976" y="0.0215454" width="71" height="71" rx="10" transform="rotate(15 18.3976 0.0215454)" fill="#FF8C24"/>
<path fill-rule="evenodd" clip-rule="evenodd" d="M32.8928 31.3224C33.0995 28.1262 36.4172 26.2573 39.1722 27.139C39.808 27.3425 40.4155 27.6938 40.9461 28.2076L55.3659 42.1806C57.9868 44.7184 56.7525 49.3249 53.2138 50.2122L33.7395 55.1032C29.9185 56.0614 26.5759 51.9132 28.3225 48.379L32.164 40.5949C32.2568 40.4072 32.3141 40.1932 32.3276 39.9845L32.8928 31.3224ZM38.736 30.4891C38.4729 30.2344 38.179 30.0781 37.886 30.0144C37.0074 29.8209 36.1285 30.4319 36.0575 31.529L35.5366 39.5358L40.4063 40.8407C40.4996 40.8569 40.5913 40.8815 40.6801 40.9141C41.5019 41.2154 41.9237 42.1264 41.6222 42.949C41.3207 43.7716 40.4102 44.1942 39.5885 43.8929L34.7187 42.5881L31.1665 49.7826C30.517 51.0969 31.5454 52.3786 32.9662 52.0224L52.4405 47.1313C53.7265 46.8087 54.1082 45.3843 53.1557 44.462L38.736 30.4891Z" fill="white"/>
</svg>
