<svg width="78" height="157" viewBox="0 0 78 157" fill="none" xmlns="http://www.w3.org/2000/svg">
<mask id="mask0_1349_302" style="mask-type:alpha" maskUnits="userSpaceOnUse" x="-79" y="0" width="157" height="157">
<circle cx="-0.500003" cy="78.5" r="78.5" transform="rotate(-90 -0.500003 78.5)" fill="#C4C4C4"/>
</mask>
<g mask="url(#mask0_1349_302)">
<circle cx="68" cy="1" r="1" transform="rotate(90 68 1)" fill="black"/>
<circle cx="68" cy="145" r="1" transform="rotate(90 68 145)" fill="black"/>
<circle cx="68" cy="73" r="1" transform="rotate(90 68 73)" fill="black"/>
<circle cx="68" cy="37" r="1" transform="rotate(90 68 37)" fill="black"/>
<circle cx="68" cy="109" r="1" transform="rotate(90 68 109)" fill="black"/>
<circle cx="68" cy="13" r="1" transform="rotate(90 68 13)" fill="black"/>
<circle cx="68" cy="157" r="1" transform="rotate(90 68 157)" fill="black"/>
<circle cx="68" cy="85" r="1" transform="rotate(90 68 85)" fill="black"/>
<circle cx="68" cy="49" r="1" transform="rotate(90 68 49)" fill="black"/>
<circle cx="68" cy="121" r="1" transform="rotate(90 68 121)" fill="black"/>
<circle cx="68" cy="25" r="1" transform="rotate(90 68 25)" fill="black"/>
<circle cx="68" cy="97" r="1" transform="rotate(90 68 97)" fill="black"/>
<circle cx="68" cy="61" r="1" transform="rotate(90 68 61)" fill="black"/>
<circle cx="68" cy="133" r="1" transform="rotate(90 68 133)" fill="black"/>
<circle cx="76" cy="7" r="1" transform="rotate(90 76 7)" fill="black"/>
<circle cx="76" cy="151" r="1" transform="rotate(90 76 151)" fill="black"/>
<circle cx="76" cy="79" r="1" transform="rotate(90 76 79)" fill="black"/>
<circle cx="76" cy="43" r="1" transform="rotate(90 76 43)" fill="black"/>
<circle cx="76" cy="115" r="1" transform="rotate(90 76 115)" fill="black"/>
<circle cx="76" cy="19" r="1" transform="rotate(90 76 19)" fill="black"/>
<circle cx="76" cy="91" r="1" transform="rotate(90 76 91)" fill="black"/>
<circle cx="76" cy="55" r="1" transform="rotate(90 76 55)" fill="black"/>
<circle cx="76" cy="127" r="1" transform="rotate(90 76 127)" fill="black"/>
<circle cx="76" cy="31" r="1" transform="rotate(90 76 31)" fill="black"/>
<circle cx="76" cy="103" r="1" transform="rotate(90 76 103)" fill="black"/>
<circle cx="76" cy="67" r="1" transform="rotate(90 76 67)" fill="black"/>
<circle cx="76" cy="139" r="1" transform="rotate(90 76 139)" fill="black"/>
<circle cx="60" cy="7" r="1" transform="rotate(90 60 7)" fill="black"/>
<circle cx="60" cy="151" r="1" transform="rotate(90 60 151)" fill="black"/>
<circle cx="60" cy="79" r="1" transform="rotate(90 60 79)" fill="black"/>
<circle cx="60" cy="43" r="1" transform="rotate(90 60 43)" fill="black"/>
<circle cx="60" cy="115" r="1" transform="rotate(90 60 115)" fill="black"/>
<circle cx="60" cy="19" r="1" transform="rotate(90 60 19)" fill="black"/>
<circle cx="60" cy="91" r="1" transform="rotate(90 60 91)" fill="black"/>
<circle cx="60" cy="55" r="1" transform="rotate(90 60 55)" fill="black"/>
<circle cx="60" cy="127" r="1" transform="rotate(90 60 127)" fill="black"/>
<circle cx="60" cy="31" r="1" transform="rotate(90 60 31)" fill="black"/>
<circle cx="60" cy="103" r="1" transform="rotate(90 60 103)" fill="black"/>
<circle cx="60" cy="67" r="1" transform="rotate(90 60 67)" fill="black"/>
<circle cx="60" cy="139" r="1" transform="rotate(90 60 139)" fill="black"/>
<circle cx="44" cy="7" r="1" transform="rotate(90 44 7)" fill="black"/>
<circle cx="44" cy="151" r="1" transform="rotate(90 44 151)" fill="black"/>
<circle cx="44" cy="79" r="1" transform="rotate(90 44 79)" fill="black"/>
<circle cx="44" cy="43" r="1" transform="rotate(90 44 43)" fill="black"/>
<circle cx="44" cy="115" r="1" transform="rotate(90 44 115)" fill="black"/>
<circle cx="44" cy="19" r="1" transform="rotate(90 44 19)" fill="black"/>
<circle cx="44" cy="91" r="1" transform="rotate(90 44 91)" fill="black"/>
<circle cx="44" cy="55" r="1" transform="rotate(90 44 55)" fill="black"/>
<circle cx="44" cy="127" r="1" transform="rotate(90 44 127)" fill="black"/>
<circle cx="44" cy="31" r="1" transform="rotate(90 44 31)" fill="black"/>
<circle cx="44" cy="103" r="1" transform="rotate(90 44 103)" fill="black"/>
<circle cx="44" cy="67" r="1" transform="rotate(90 44 67)" fill="black"/>
<circle cx="44" cy="139" r="1" transform="rotate(90 44 139)" fill="black"/>
<circle cx="28" cy="7" r="1" transform="rotate(90 28 7)" fill="black"/>
<circle cx="28" cy="151" r="1" transform="rotate(90 28 151)" fill="black"/>
<circle cx="28" cy="79" r="1" transform="rotate(90 28 79)" fill="black"/>
<circle cx="28" cy="43" r="1" transform="rotate(90 28 43)" fill="black"/>
<circle cx="28" cy="115" r="1" transform="rotate(90 28 115)" fill="black"/>
<circle cx="28" cy="19" r="1" transform="rotate(90 28 19)" fill="black"/>
<circle cx="28" cy="91" r="1" transform="rotate(90 28 91)" fill="black"/>
<circle cx="28" cy="55" r="1" transform="rotate(90 28 55)" fill="black"/>
<circle cx="28" cy="127" r="1" transform="rotate(90 28 127)" fill="black"/>
<circle cx="28" cy="31" r="1" transform="rotate(90 28 31)" fill="black"/>
<circle cx="28" cy="103" r="1" transform="rotate(90 28 103)" fill="black"/>
<circle cx="28" cy="67" r="1" transform="rotate(90 28 67)" fill="black"/>
<circle cx="28" cy="139" r="1" transform="rotate(90 28 139)" fill="black"/>
<circle cx="12" cy="7" r="1" transform="rotate(90 12 7)" fill="black"/>
<circle cx="12" cy="151" r="1" transform="rotate(90 12 151)" fill="black"/>
<circle cx="12" cy="79" r="1" transform="rotate(90 12 79)" fill="black"/>
<circle cx="12" cy="43" r="1" transform="rotate(90 12 43)" fill="black"/>
<circle cx="12" cy="115" r="1" transform="rotate(90 12 115)" fill="black"/>
<circle cx="12" cy="19" r="1" transform="rotate(90 12 19)" fill="black"/>
<circle cx="12" cy="91" r="1" transform="rotate(90 12 91)" fill="black"/>
<circle cx="12" cy="55" r="1" transform="rotate(90 12 55)" fill="black"/>
<circle cx="12" cy="127" r="1" transform="rotate(90 12 127)" fill="black"/>
<circle cx="12" cy="31" r="1" transform="rotate(90 12 31)" fill="black"/>
<circle cx="12" cy="103" r="1" transform="rotate(90 12 103)" fill="black"/>
<circle cx="12" cy="67" r="1" transform="rotate(90 12 67)" fill="black"/>
<circle cx="12" cy="139" r="1" transform="rotate(90 12 139)" fill="black"/>
<circle cx="52" cy="2" r="1" transform="rotate(90 52 2)" fill="black"/>
<circle cx="52" cy="146" r="1" transform="rotate(90 52 146)" fill="black"/>
<circle cx="52" cy="74" r="1" transform="rotate(90 52 74)" fill="black"/>
<circle cx="52" cy="38" r="1" transform="rotate(90 52 38)" fill="black"/>
<circle cx="52" cy="110" r="1" transform="rotate(90 52 110)" fill="black"/>
<circle cx="52" cy="14" r="1" transform="rotate(90 52 14)" fill="black"/>
<circle cx="52" cy="86" r="1" transform="rotate(90 52 86)" fill="black"/>
<circle cx="52" cy="50" r="1" transform="rotate(90 52 50)" fill="black"/>
<circle cx="52" cy="122" r="1" transform="rotate(90 52 122)" fill="black"/>
<circle cx="52" cy="26" r="1" transform="rotate(90 52 26)" fill="black"/>
<circle cx="52" cy="98" r="1" transform="rotate(90 52 98)" fill="black"/>
<circle cx="52" cy="62" r="1" transform="rotate(90 52 62)" fill="black"/>
<circle cx="52" cy="134" r="1" transform="rotate(90 52 134)" fill="black"/>
<circle cx="36" cy="2" r="1" transform="rotate(90 36 2)" fill="black"/>
<circle cx="36" cy="146" r="1" transform="rotate(90 36 146)" fill="black"/>
<circle cx="36" cy="74" r="1" transform="rotate(90 36 74)" fill="black"/>
<circle cx="36" cy="38" r="1" transform="rotate(90 36 38)" fill="black"/>
<circle cx="36" cy="110" r="1" transform="rotate(90 36 110)" fill="black"/>
<circle cx="36" cy="14" r="1" transform="rotate(90 36 14)" fill="black"/>
<circle cx="36" cy="86" r="1" transform="rotate(90 36 86)" fill="black"/>
<circle cx="36" cy="50" r="1" transform="rotate(90 36 50)" fill="black"/>
<circle cx="36" cy="122" r="1" transform="rotate(90 36 122)" fill="black"/>
<circle cx="36" cy="26" r="1" transform="rotate(90 36 26)" fill="black"/>
<circle cx="36" cy="98" r="1" transform="rotate(90 36 98)" fill="black"/>
<circle cx="36" cy="62" r="1" transform="rotate(90 36 62)" fill="black"/>
<circle cx="36" cy="134" r="1" transform="rotate(90 36 134)" fill="black"/>
<circle cx="20" cy="2" r="1" transform="rotate(90 20 2)" fill="black"/>
<circle cx="20" cy="146" r="1" transform="rotate(90 20 146)" fill="black"/>
<circle cx="20" cy="74" r="1" transform="rotate(90 20 74)" fill="black"/>
<circle cx="20" cy="38" r="1" transform="rotate(90 20 38)" fill="black"/>
<circle cx="20" cy="110" r="1" transform="rotate(90 20 110)" fill="black"/>
<circle cx="20" cy="14" r="1" transform="rotate(90 20 14)" fill="black"/>
<circle cx="20" cy="86" r="1" transform="rotate(90 20 86)" fill="black"/>
<circle cx="20" cy="50" r="1" transform="rotate(90 20 50)" fill="black"/>
<circle cx="20" cy="122" r="1" transform="rotate(90 20 122)" fill="black"/>
<circle cx="20" cy="26" r="1" transform="rotate(90 20 26)" fill="black"/>
<circle cx="20" cy="98" r="1" transform="rotate(90 20 98)" fill="black"/>
<circle cx="20" cy="62" r="1" transform="rotate(90 20 62)" fill="black"/>
<circle cx="20" cy="134" r="1" transform="rotate(90 20 134)" fill="black"/>
<circle cx="4" cy="2" r="1" transform="rotate(90 4 2)" fill="black"/>
<circle cx="4" cy="146" r="1" transform="rotate(90 4 146)" fill="black"/>
<circle cx="4" cy="74" r="1" transform="rotate(90 4 74)" fill="black"/>
<circle cx="4" cy="38" r="1" transform="rotate(90 4 38)" fill="black"/>
<circle cx="4" cy="110" r="1" transform="rotate(90 4 110)" fill="black"/>
<circle cx="4" cy="14" r="1" transform="rotate(90 4 14)" fill="black"/>
<circle cx="4" cy="86" r="1" transform="rotate(90 4 86)" fill="black"/>
<circle cx="4" cy="50" r="1" transform="rotate(90 4 50)" fill="black"/>
<circle cx="4" cy="122" r="1" transform="rotate(90 4 122)" fill="black"/>
<circle cx="4" cy="26" r="1" transform="rotate(90 4 26)" fill="black"/>
<circle cx="4" cy="98" r="1" transform="rotate(90 4 98)" fill="black"/>
<circle cx="4" cy="62" r="1" transform="rotate(90 4 62)" fill="black"/>
<circle cx="4" cy="134" r="1" transform="rotate(90 4 134)" fill="black"/>
</g>
</svg>
