<svg width="48" height="48" viewBox="0 0 48 48" fill="none" xmlns="http://www.w3.org/2000/svg">
<path fill-rule="evenodd" clip-rule="evenodd" d="M22.1525 18.3409C22.1241 18.4384 22.1115 18.4816 22.0926 18.5471C21.8914 18.4457 21.6943 18.3464 21.4947 18.246C21.4787 18.3068 21.4668 18.3522 21.4518 18.4097C21.2542 18.3065 21.0641 18.2071 20.8648 18.1028C20.8492 18.1569 20.8367 18.2003 20.8228 18.2487C20.6944 18.204 20.5559 18.1714 20.4389 18.11C20.3575 18.0671 20.3093 17.9809 20.2405 17.9206C20.1671 17.8563 20.0695 18.04 19.9451 17.9911C19.8267 17.9444 19.7226 17.8761 19.6027 17.7871C19.5765 17.872 19.5635 17.9133 19.5417 17.9834C19.3397 17.8817 19.1435 17.7828 18.9448 17.6827C18.9306 17.7401 18.9194 17.7866 18.908 17.8326C18.653 17.7196 18.3985 17.6071 18.1272 17.4872C18.1051 17.5662 18.0927 17.6102 18.0803 17.6548C17.8225 17.5464 17.5629 17.437 17.2914 17.3229C17.2641 17.4131 17.2513 17.4553 17.2414 17.4884C16.9787 17.3759 16.7224 17.2662 16.4556 17.1518C16.4361 17.2327 16.4248 17.279 16.4139 17.3237C16.1582 17.2112 15.9031 17.0993 15.632 16.9803C15.6105 17.0591 15.5984 17.1036 15.5842 17.1555C15.3331 17.043 15.0821 16.9304 14.8207 16.8135C14.7818 16.8908 14.7566 16.9412 14.7142 17.0253C14.5527 16.8748 14.4361 16.6765 14.1487 16.7126C14.1391 16.7524 14.1276 16.7989 14.1141 16.8542C13.9312 16.7427 13.75 16.6328 13.5554 16.5144C13.5074 16.6093 13.4818 16.6596 13.435 16.7518C13.2495 16.4834 12.9674 16.3676 12.6228 16.3435C12.611 16.3896 12.5993 16.4353 12.5829 16.5004C12.5401 16.4774 12.4882 16.472 12.4777 16.4405C12.4188 16.2617 12.2967 16.2031 12.0509 16.2428C12.0242 16.2471 11.9967 16.2247 11.9851 16.2031C11.9681 16.1707 11.9786 16.0968 11.9535 16.0948C11.8381 16.0865 11.6992 16.1017 11.7033 15.9574C11.7074 15.8077 11.8124 15.6374 11.8197 15.4802C11.8212 15.4448 11.9177 15.3771 11.9552 15.3396C11.9183 15.2062 11.8872 15.0935 11.8404 14.924C12.1106 14.9944 12.3163 15.048 12.5447 15.1076C12.5235 14.9399 12.422 14.9333 12.2968 14.9253C12.2108 14.9197 12.1689 14.8126 12.1112 14.7549C12.3165 14.4917 12.4567 14.6006 12.5604 14.6314C13.2577 14.8393 14.0157 14.9312 14.7576 15.0523C15.555 15.1824 16.3937 15.2336 17.1748 15.3923C17.6963 15.4981 18.2418 15.5568 18.7531 15.677C19.3296 15.8126 19.9426 15.8806 20.5041 16.0404C20.867 16.1435 21.2655 16.1766 21.6278 16.2852C21.9715 16.3883 22.3359 16.4717 22.7003 16.539C23.0949 16.6117 23.4806 16.6993 23.8588 16.7984C24.5659 16.9835 25.281 17.1546 25.9832 17.3491C26.4447 17.4771 26.9237 17.5822 27.3944 17.6976C28.082 17.8663 28.7451 18.0758 29.44 18.2335C30.0433 18.3705 30.5938 18.6017 31.1864 18.7595C31.6785 18.8907 32.1538 19.0481 32.6378 19.1919C33.5071 19.4497 34.3769 19.7069 35.2387 19.9772C35.792 20.1509 36.3319 20.3494 36.8991 20.4999C37.7466 20.7251 38.5339 21.0448 39.3635 21.2954C39.8597 21.445 40.3533 21.5961 40.8348 21.7692C41.4235 21.9814 42.0541 22.13 42.6321 22.3575C43.4963 22.6975 44.4014 22.9717 45.2898 23.2729C45.958 23.4996 46.6012 23.7661 47.3302 23.8944C47.4305 23.9121 47.4931 24.0017 47.566 24.053C47.3768 24.3779 47.2159 24.0832 47.0138 24.3059C47.0874 24.3279 47.1569 24.3365 47.2086 24.3675C47.2632 24.4002 47.3004 24.4545 47.3745 24.5286C47.257 24.598 47.1766 24.6456 47.0956 24.6936C47.0961 24.7736 47.1786 24.8382 47.0276 24.9701C46.9522 25.0361 46.7723 25.0042 46.7978 25.1842C46.7834 25.1895 46.767 25.1995 46.755 25.199C46.6706 25.1948 46.5827 25.1967 46.5043 25.1811C46.1002 25.1011 45.6729 25.0564 45.303 24.9235C44.7965 24.7417 44.2493 24.6309 43.7362 24.4628C42.9657 24.2103 42.1975 23.9543 41.422 23.7101C40.9303 23.5553 40.4274 23.4186 39.9267 23.2729C39.913 23.329 39.9014 23.3757 39.8898 23.4224C39.8727 23.4256 39.8498 23.4364 39.8414 23.4304C39.8262 23.4198 39.382 23.1355 39.3477 23.1222C39.1492 23.0447 38.9508 22.9668 38.742 22.8849C38.7189 22.9698 38.7067 23.0143 38.6763 23.1265C38.6312 23.0483 38.6047 23.0124 38.5879 22.9701C38.5693 22.9237 38.5799 22.8381 38.5428 22.8271C38.2984 22.7535 38.0446 22.6954 37.7921 22.6323C37.7761 22.6903 37.764 22.7343 37.7325 22.8482C37.6878 22.7677 37.6623 22.731 37.6454 22.6886C37.6268 22.6424 37.6366 22.5578 37.5994 22.5467C37.3552 22.4734 37.1019 22.4152 36.85 22.3517C36.8334 22.4104 36.8211 22.4545 36.7888 22.5697C36.7445 22.4868 36.7199 22.4497 36.7031 22.4072C36.6847 22.3609 36.6931 22.2776 36.6558 22.2664C36.4122 22.193 36.1592 22.1349 35.9075 22.0713C35.8906 22.1309 35.8783 22.1744 35.8451 22.2915C35.8009 22.2063 35.7597 22.1723 35.7643 22.1251C35.7728 22.0377 35.7543 22.0065 35.6701 21.9845C35.2026 21.8625 34.7464 21.7213 34.2777 21.584C34.262 21.6439 34.2503 21.6893 34.2379 21.7372C34.0115 21.8209 34.2456 21.4035 33.9561 21.5128C33.8403 21.5566 33.7247 21.4265 33.5932 21.3687C33.5712 21.4444 33.5589 21.4876 33.5468 21.5292C33.5221 21.5345 33.4933 21.5446 33.4688 21.544C33.4589 21.5439 33.2221 21.2907 33.2083 21.2866C32.8729 21.1876 32.5378 21.0886 32.1961 20.9878C32.1789 21.0571 32.1673 21.1038 32.1556 21.1516C31.9385 20.9405 31.8121 20.8748 31.5008 20.812C31.4891 20.8595 31.4776 20.9059 31.4665 20.9519C31.4397 20.9515 31.3944 20.9644 31.3856 20.949C31.1763 20.5782 30.6718 20.6182 30.3148 20.4538C30.1266 20.3673 29.8864 20.3535 29.6693 20.3066C29.6542 20.3616 29.642 20.4059 29.6292 20.4525C29.5959 20.4459 29.5542 20.4519 29.5459 20.4339C29.4089 20.1394 29.0674 20.0898 28.7698 20.0365C28.3861 19.968 28.0773 19.7707 27.6466 19.7863C27.6379 19.8183 27.626 19.8631 27.6021 19.9518L27.2156 19.5653C27.1423 19.6209 27.0993 19.6535 27.0448 19.6949C26.8523 19.7515 26.9067 19.3556 26.5626 19.6066C26.5101 19.5541 26.4542 19.486 26.3845 19.4334C26.3494 19.4071 26.2667 19.3823 26.2447 19.4028C26.1489 19.4924 26.1106 19.4729 26.0459 19.4294C25.9565 19.3689 25.9486 19.14 25.701 19.3546C25.6876 19.3661 25.6338 19.3268 25.6022 19.3071C25.5058 19.2471 25.4844 19.0433 25.252 19.2473C25.1609 19.1772 25.07 19.1069 24.9818 19.0387C24.9077 19.069 24.8055 19.1392 24.7667 19.121C24.6721 19.077 24.6062 18.9924 24.5291 18.924C24.2847 19.1342 24.2565 18.9045 24.1534 18.8594C24.1196 18.8747 24.0989 18.8787 24.094 18.8871C24.0854 18.9018 24.0879 18.9192 24.0823 18.9358C24.0732 18.9633 24.0612 18.9908 24.0335 19.0617L23.6776 18.7059C23.6488 18.8033 23.6364 18.8459 23.6232 18.8905C23.4341 18.9925 23.5052 18.6603 23.2808 18.7961C23.0571 18.9314 23.0728 18.6919 22.959 18.6512C22.8379 18.6081 22.716 18.5664 22.5767 18.5178C22.5945 18.5094 22.5742 18.514 22.5695 18.5223C22.5609 18.5372 22.5634 18.5545 22.5579 18.5708C22.5486 18.598 22.5364 18.6255 22.508 18.6963L22.1525 18.3409Z" fill="black"/>
<path fill-rule="evenodd" clip-rule="evenodd" d="M22.4667 41.5666C23.2331 42.8009 23.2448 42.4623 23.1028 42.5509C23.1352 42.6614 23.1681 42.7728 23.2167 42.9382C23.0468 42.9414 22.9396 42.9434 22.8313 42.9453C22.8229 42.9775 22.8111 43.0228 22.7992 43.0683C22.7736 43.0693 22.7308 43.0839 22.7197 43.07C22.4439 42.7259 21.9865 42.5841 21.7059 42.2398C21.4243 41.8945 21.1228 41.5571 20.7563 41.303C20.458 41.0957 20.1934 40.8594 19.9272 40.6205C19.8453 40.5467 19.8794 40.3854 19.7066 40.3689C19.5772 40.3566 19.514 40.1996 19.4213 40.1069L19.1157 39.8014C19.0231 39.7087 18.931 39.6157 18.8378 39.5237C18.7452 39.4318 18.6518 39.3405 18.5564 39.2515C18.5495 39.2449 18.5251 39.2565 18.4667 39.268C18.537 39.3716 18.5964 39.4589 18.6561 39.5462C18.638 39.5634 18.6202 39.5805 18.6024 39.5976C18.5022 39.5046 18.4006 39.413 18.3025 39.318C18.1988 39.2179 18.0977 39.1154 17.9971 39.0123C17.9799 38.9948 17.9527 38.9704 17.9602 38.9478C18.0627 38.6403 17.9218 38.5501 17.6802 38.5185C17.5896 38.5065 17.5463 38.3974 17.4815 38.3326C16.611 37.462 15.7426 36.5894 14.867 35.7241C14.7716 35.6299 14.7316 35.451 14.5048 35.5197C14.4946 35.5225 14.4756 35.5038 14.4784 35.4933C14.5371 35.2783 14.2438 35.3934 14.254 35.2589C14.267 35.0853 14.1967 35.0475 14.0447 35.0483C13.9981 35.0488 13.9798 34.9464 13.9707 34.8803C13.9582 34.7877 14.0169 34.7357 14.1142 34.7358C14.1216 34.7092 14.1403 34.6751 14.1336 34.6581C14.1243 34.6352 14.0953 34.6061 14.0753 34.6141C14.0149 34.638 13.9512 34.697 13.8957 34.7079C13.8217 34.7225 13.7281 34.7312 13.6901 34.6946C13.6246 34.6316 13.6251 34.4731 13.5446 34.4606C13.4151 34.4406 13.3751 34.3869 13.346 34.268C13.326 34.1871 13.1778 34.186 13.112 34.1233C12.8471 33.8711 12.5922 33.6087 12.3397 33.3561C12.3758 33.269 12.4064 33.1955 12.4366 33.1223C12.3581 33.1315 12.2796 33.1409 12.1328 33.1583C11.984 33.0908 11.9498 32.7499 11.5574 32.9165C11.5787 32.8288 11.5984 32.7475 11.6159 32.6751C11.3047 32.5469 11.0789 32.3475 10.9748 32.0271C10.6045 31.9584 10.5084 31.5995 10.2348 31.4294C10.3158 31.358 10.4137 31.2833 10.4101 31.273C10.367 31.1433 10.2634 31.2746 10.1604 31.3291L9.86606 31.0348C9.79095 31.0802 9.73133 31.1161 9.66822 31.1544C9.66484 31.1319 9.65145 31.1094 9.6602 31.0872C9.72728 30.9145 9.68624 30.7752 9.56145 30.7575C9.26884 30.7165 9.16382 30.4782 8.98084 30.3235C8.82328 30.1902 8.68674 30.0342 8.47812 29.9455C8.55384 30.0479 8.62941 30.1505 8.70528 30.2527C8.47511 30.0757 8.08765 30.0302 8.20992 29.6032C8.0802 29.5193 7.96264 29.4661 7.87455 29.3826C7.60122 29.1229 7.33892 28.8518 7.07792 28.5908C6.99111 28.6448 6.93185 28.6814 6.84348 28.7366C6.89928 28.5909 6.94478 28.4722 6.99027 28.3535C6.85793 28.4482 6.69637 28.5221 6.6982 28.3613C6.70015 28.1912 6.59303 28.2021 6.49317 28.1481C6.31081 28.0491 6.19038 27.8689 5.9863 27.772C6.03921 27.857 6.09212 27.9421 6.14754 28.0318C6.10916 28.0472 6.06824 28.073 6.06035 28.0654C5.85374 27.8646 5.6359 27.6737 5.45146 27.452C5.31545 27.2883 5.27067 27.0439 5.07996 26.9248C5.04887 26.9055 5.01344 26.8917 4.94143 26.9131C5.00404 26.9991 5.0668 27.0849 5.12967 27.1708C4.86165 26.9741 4.53971 26.8409 4.43479 26.4775C4.38834 26.3166 4.21107 26.2346 4.04202 26.1536C4.07442 26.2233 4.10691 26.2931 4.14044 26.3652C4.10967 26.3778 4.06875 26.4043 4.06085 26.3967C3.96564 26.3072 3.87558 26.2126 3.78416 26.1194C3.90901 25.8953 3.57567 26.0802 3.61496 25.8901C3.64034 25.7665 3.36288 25.8395 3.39956 25.6043C3.41918 25.4764 3.22163 25.4003 3.06463 25.3504C3.11953 25.4384 3.17413 25.5266 3.23245 25.6202C3.18985 25.6304 3.14957 25.6511 3.13897 25.6411C2.99713 25.5053 2.86793 25.3561 2.71841 25.2284C2.42695 24.9791 2.15427 24.7031 1.81526 24.514C1.63253 24.412 1.48457 24.2807 1.31823 24.1654C1.17567 24.0662 0.994437 24.0118 0.709194 24.2027C0.66099 24.1545 0.525507 24.0757 0.549257 24.033C0.653336 23.8464 0.543055 23.7058 0.639949 23.5526C0.731646 23.4079 0.724442 23.3279 0.713634 23.2073C0.691958 22.9638 0.875535 22.7231 1.1494 22.5834C1.17057 22.4892 1.19168 22.3941 1.21266 22.301C1.24418 22.2727 1.27443 22.2311 1.29994 22.2247C1.57918 22.1532 1.79069 22.185 1.98725 22.3203C2.30927 22.5419 2.69891 22.6836 2.95802 22.9815C3.26266 22.9961 3.35163 23.2608 3.547 23.4021C3.69961 23.5128 3.87335 23.5998 4.01918 23.7177C4.1619 23.8328 4.24279 24.0393 4.42029 24.0879C4.67549 24.158 4.8232 24.329 4.96306 24.5047C5.1428 24.7306 5.45154 24.7956 5.64324 25.0016C5.83988 25.2122 6.00286 25.4738 6.26284 25.6009C6.76471 25.846 7.01281 26.3496 7.45941 26.6384C8.01312 26.9964 8.37823 27.5518 8.91364 27.9154C9.63502 28.405 10.1501 29.0961 10.7935 29.6594C10.8722 29.7284 10.941 29.808 11.0166 29.8806C11.0802 29.9418 11.1229 30.0361 11.2679 29.9744C11.1703 30.1381 11.3856 30.066 11.3804 30.1868C11.3772 30.2607 11.5451 30.2689 11.6206 30.3247C11.7047 30.3873 11.771 30.4702 11.8451 30.5443L12.0395 30.7388L12.2618 30.961L12.4841 31.1833L12.6785 31.3778C12.7526 31.4519 12.8352 31.5184 12.8987 31.6019C12.9735 31.7007 13.103 31.7431 13.1013 31.9247C13.1005 32.0122 13.3009 32.0132 13.3793 32.0852C13.6199 32.3073 13.8398 32.5509 14.0802 32.7731C14.1695 32.856 14.2031 33.0161 14.4145 32.9517C14.5532 32.9092 14.3405 33.1939 14.5488 33.1312C14.6145 33.1114 14.7371 33.2197 14.7187 33.2629C14.615 33.5066 14.9578 33.3221 14.9042 33.4824C14.8284 33.7094 15.0535 33.5782 15.1087 33.645C15.1399 33.6826 15.158 33.7326 15.1824 33.7767C15.2247 33.8542 15.2591 34.0102 15.3112 33.9953C15.5241 33.9345 15.4789 34.1575 15.6147 34.1884C15.7557 34.2201 15.8332 34.3677 15.9343 34.4688C17.7497 36.2833 19.5608 38.1026 21.3847 39.9088C21.6279 40.1497 21.7874 40.49 22.1897 40.5579C22.1552 40.8396 22.4528 40.7861 22.5699 40.9196C22.9325 41.3329 23.3377 41.7059 23.7531 42.1213C23.6747 42.1718 23.5735 42.2561 23.5575 42.244C23.3347 42.0746 23.0646 41.9648 22.8738 41.7518C22.489 41.3227 22.066 40.93 21.6566 40.5246C21.6418 40.51 21.6014 40.521 21.5729 40.52C21.5776 40.5524 21.5757 40.5893 21.588 40.6162C21.619 40.6833 21.5723 40.8198 21.7345 40.773C21.7765 40.7607 21.8093 40.8396 21.8463 40.8766C22.3827 41.413 22.9189 41.9492 22.4667 41.5666C21.4787 40.6191 21.4944 40.6054 21.51 40.5919C21.4584 40.4714 21.4187 40.3413 21.3506 40.2341C21.3145 40.1773 21.0053 39.8985 20.9719 39.8475C20.9435 39.8039 20.908 39.7283 20.8666 39.7394C20.6612 39.7938 20.6188 39.644 20.5321 39.5578C19.2133 38.2454 17.8974 36.9302 16.5866 35.61C16.5095 35.5326 16.3605 35.5055 16.4048 35.321C16.4133 35.2858 16.3755 35.2268 16.3505 35.2324C16.1304 35.2839 16.1023 35.0986 15.9917 35.0181C15.7653 34.8529 15.6456 34.5721 15.3243 34.5045C15.2335 34.4854 15.2014 34.35 15.1556 34.2584C15.0674 34.082 14.9679 33.919 14.7485 33.8805C14.6719 33.867 14.7346 33.693 14.5856 33.7679C14.6477 33.5636 14.5068 33.4658 14.3968 33.4523C14.213 33.43 14.2915 33.2025 14.1454 33.1749C14.1195 33.1698 14.0995 33.1432 14.0735 33.15C13.95 33.1822 13.935 33.1316 13.9235 33.0236C13.9123 32.919 13.8348 32.8151 13.7402 32.7872C13.6174 32.7512 13.4879 32.6885 13.4454 32.609C13.3792 32.4854 13.2601 32.4439 13.1686 32.3622C12.4537 31.7214 11.863 30.9561 11.0601 30.4015C10.461 29.9874 10.0729 29.3482 9.44784 28.9458C8.87953 28.5796 8.52784 27.9733 7.94064 27.6088C7.47766 27.3215 7.21475 26.8095 6.7109 26.5496C6.47718 26.4291 6.34849 26.1717 6.14214 26.01C5.95263 25.8618 5.8457 25.6389 5.57693 25.5528C5.32641 25.4725 5.19094 25.2081 5.00203 25.0277C4.97273 24.9999 4.92867 24.9871 4.89144 24.9675C4.8727 25.0616 4.90563 25.0976 4.9418 25.1301C5.28486 25.4395 5.58659 25.7867 5.99015 26.0395C6.47468 26.3431 6.76299 26.8618 7.27291 27.1571C7.74605 27.4312 7.96398 27.9984 8.51281 28.2019C8.58997 28.2305 8.45189 28.4587 8.6562 28.359C8.58018 28.5554 8.78128 28.4671 8.84129 28.5234C9.31126 28.9652 9.68747 29.5056 10.283 29.8162C10.3629 29.8578 10.4694 29.9331 10.4552 30.0168C10.4229 30.2067 10.6348 30.0718 10.6648 30.1786C10.6897 30.2672 10.7863 30.3131 10.8511 30.3779C11.2218 30.7486 11.5879 31.1238 11.9659 31.4866C12.0632 31.5799 12.1047 31.7508 12.3239 31.7026C12.3484 31.6973 12.35 31.7958 12.3718 31.8388C12.4007 31.8959 12.4352 32.0014 12.4737 31.989C12.626 31.94 12.5687 32.0585 12.6025 32.1129C12.6363 32.167 12.7668 32.1386 12.8147 32.1865C12.8921 32.2638 13.04 32.2967 12.9752 32.485C13.1236 32.444 13.1772 32.5382 13.2457 32.6086C13.3152 32.6799 13.4286 32.7232 13.364 32.8881C13.5314 32.8206 13.5735 32.9376 13.6439 33.0074C14.1093 33.4686 14.5557 33.949 15.0391 34.3914C15.515 34.8266 15.8601 35.4008 16.4842 35.68C16.4604 35.8151 16.5754 35.8446 16.6304 35.9144C16.701 36.0047 16.8341 36.0377 16.9166 36.1193C17.0121 36.2138 17.1643 36.2693 17.1253 36.4722C17.364 36.4149 17.4051 36.6102 17.5093 36.7132C18.7383 37.9298 19.9588 39.1552 21.1827 40.3772C21.272 40.4665 21.3694 40.5478 22.4667 41.5666Z" fill="black"/>
<path fill-rule="evenodd" clip-rule="evenodd" d="M15.8219 23.5597C15.6475 23.6377 15.5734 23.6711 15.4774 23.7141L15.7431 23.9798C15.7571 23.9701 15.771 23.9604 15.7848 23.9507C15.769 23.9149 15.7553 23.8775 15.7372 23.8436C15.7196 23.8106 15.6975 23.7815 15.6723 23.743C15.7261 23.6975 15.7823 23.6318 15.8034 23.6353C15.9094 23.6518 16.0201 23.6689 16.1032 23.7183C16.2895 23.8291 16.4574 23.9631 16.6393 24.0797C16.7298 24.1375 16.835 24.1774 16.9293 24.2234C16.8296 24.4882 16.7309 24.2681 16.625 24.3583C16.7142 24.6541 17.1196 24.58 17.2623 24.811C17.185 24.6403 17.1266 24.4514 16.8749 24.4194C16.9363 24.3919 17.0103 24.3372 17.0561 24.3424C17.1499 24.3527 17.233 24.3891 17.3119 24.4267C17.4408 24.4885 17.4541 24.6855 17.6565 24.6641C17.8144 24.6476 17.8115 24.8525 18.0122 24.8145C18.1132 24.7952 18.1769 24.9582 18.2673 25.0486C17.9625 25.2048 17.9309 24.9908 17.8027 24.9202C17.6872 24.8566 17.5523 24.8179 17.3835 24.8217C17.6117 24.9965 17.8121 25.21 18.0764 25.335C18.3276 25.4536 18.6086 25.5316 18.8569 25.6713C18.7374 25.5305 18.6177 25.3896 18.4981 25.2488L18.5482 25.1987C18.8868 25.4084 19.2257 25.6183 19.5642 25.8281C19.5458 25.8528 19.527 25.8774 19.5085 25.902C19.3306 25.8236 19.1524 25.7453 18.9747 25.6671C19.0723 25.8081 19.0953 26.0268 19.3549 25.9923C19.5895 26.2579 20.0243 26.3053 20.1745 26.6757L19.8997 26.9505C19.8234 26.9355 19.874 26.7848 19.7285 26.8324C19.6596 26.8548 19.6705 26.6736 19.5181 26.7834C19.4769 26.8132 19.3709 26.8192 19.3701 26.8038C19.3539 26.5491 19.0734 26.5648 18.9672 26.4064C18.9342 26.357 18.9281 26.285 18.9056 26.2104C18.8385 26.2625 18.7541 26.3277 18.6693 26.3931C18.6884 26.2177 18.3773 26.3296 18.4697 26.094C18.3971 26.1385 18.3379 26.1749 18.2573 26.2242C18.2101 26.0717 18.2222 25.8723 18.013 25.8536C17.9998 25.8981 17.9872 25.941 17.9554 26.0479C17.8172 25.8411 17.6973 25.6624 17.5735 25.4776C17.4056 25.5106 17.2494 25.541 17.1272 25.565C17.0412 25.476 17.1572 25.2871 16.9425 25.323C16.7747 25.3512 16.6178 25.2839 16.4852 25.2192C16.4001 25.1778 16.355 25.0729 16.316 24.9799C16.2885 24.9139 16.1751 24.9516 16.1915 24.8138C16.2085 24.6697 16.0467 24.8457 15.9693 24.8575C15.8972 24.8682 15.8038 24.8707 15.7712 24.8302C15.6408 24.667 15.3873 24.6441 15.2864 24.4516C15.2812 24.4416 15.2916 24.4198 15.2949 24.4037C14.8973 24.487 14.7704 24.1496 14.4684 24.1067C14.2162 24.0709 14.1901 23.7644 13.8917 23.8177C13.366 23.5465 12.8894 23.2078 12.2875 23.0409C12.0927 22.7628 11.6848 22.7651 11.4166 22.5752C11.1685 22.3999 10.8703 22.2564 10.5612 22.1719C10.002 22.0187 9.59336 21.6477 8.99164 21.5658C8.90772 21.4015 8.72493 21.432 8.52735 21.459C8.41811 21.4739 8.33369 21.3922 8.25422 21.3604C8.27452 21.1 8.39244 20.8428 8.32327 20.6438C8.48362 20.5307 8.64543 20.4164 8.83768 20.2806C9.29429 20.4389 9.81076 20.557 10.2396 20.8158C10.4382 20.9356 10.7169 20.9542 10.9179 21.0712C11.1681 21.2167 11.4564 21.3123 11.6909 21.4706C11.9418 21.6396 12.2416 21.7354 12.5131 21.871C12.6807 21.9545 12.8581 22.0403 13.0087 22.1366C13.2638 22.3 13.584 22.3687 13.8242 22.5506C13.9686 22.6602 14.1728 22.7008 14.3429 22.7826C14.4592 22.8382 14.4742 23.014 14.6601 22.9921C14.8183 22.9733 14.8067 23.2209 15.0194 23.1246C15.1339 23.3208 15.371 23.3725 15.5531 23.4888C15.6004 23.5191 15.6706 23.5213 15.8219 23.5597Z" fill="black"/>
</svg>
