<svg width="186" height="134" viewBox="0 0 186 134" fill="none" xmlns="http://www.w3.org/2000/svg">
<path d="M1.50139 131.969C2.62971 118.967 11.4759 105.619 25.9543 104.594C37.0363 103.81 48.4754 110.243 56.7862 116.604C58.1578 117.654 69.1589 126.662 62.0107 128.78C48.9396 132.651 39.2097 122.608 36.0203 110.849C31.2814 93.378 37.712 76.1566 50.7334 63.9174C66.8867 48.7344 94.5735 35.0422 116.2 45.9369C126.284 51.0171 131.207 57.9121 134.035 68.5668C136.286 77.049 137.477 87.6648 130.321 94.5756C118.545 105.949 104.533 94.7704 98.3956 83.5062C85.9587 60.6812 95.794 28.9346 118.738 16.9687C138.863 6.47284 162.094 2.90382 184.485 1.51358" stroke="#0E0E0E" stroke-width="3" stroke-linecap="round"/>
</svg>
