<svg width="12" height="13" viewBox="0 0 12 13" fill="none" xmlns="http://www.w3.org/2000/svg">
<path d="M7.86489 2.19138C4.79781 0.255776 0.598046 2.64065 0.0574462 6.16368C-0.527285 9.97873 3.46654 12.5471 6.82047 12.1539C10.5385 11.7159 12.9252 7.53021 11.6564 3.966C10.3877 0.401789 5.87533 -0.627789 3.04362 1.65226C2.28237 2.26252 3.35621 3.34076 4.10643 2.73425C6.23941 1.01954 9.66321 2.15769 10.3583 4.84208C11.0533 7.52647 9.16307 10.4804 6.38284 10.6601C4.2094 10.8024 1.51743 9.33852 1.51376 6.8563C1.51376 4.13822 4.82355 2.07532 7.11467 3.51299C7.94212 4.03339 8.69602 2.70804 7.87225 2.19138H7.86489Z" fill="#10100E"/>
</svg>
