<svg width="98" height="71" viewBox="0 0 98 71" fill="none" xmlns="http://www.w3.org/2000/svg">
<path d="M1.18654 69.2203C1.77357 62.4556 6.376 55.5113 13.9087 54.9781C19.6743 54.57 25.6257 57.917 29.9496 61.2264C30.6632 61.7725 36.3867 66.4595 32.6677 67.5611C25.8673 69.5754 20.8051 64.3499 19.1457 58.2323C16.6802 49.1426 20.0259 40.1828 26.8005 33.8151C35.2046 25.9159 49.6092 18.7922 60.8608 24.4604C66.1074 27.1035 68.6686 30.6907 70.1397 36.2341C71.3109 40.6471 71.9304 46.1702 68.2077 49.7657C62.081 55.6829 54.791 49.867 51.5977 44.0066C45.1271 32.1314 50.2442 15.6146 62.1813 9.38909C72.6518 3.92843 84.7383 2.07157 96.3874 1.34827" stroke="black" stroke-width="2" stroke-linecap="round"/>
</svg>
