<svg width="15" height="15" viewBox="0 0 15 15" fill="none" xmlns="http://www.w3.org/2000/svg">
<path fill-rule="evenodd" clip-rule="evenodd" d="M14.9889 8.05958C15.0438 8.36359 14.8916 8.86694 14.6252 9.38525C14.3381 9.94542 14.1311 10.5634 13.9358 11.1754C13.7441 11.7744 13.4164 12.203 12.952 12.5838C12.2004 13.2008 11.4255 13.735 10.5794 14.1926C9.91606 14.5504 9.22751 14.6361 8.54795 14.7886C7.67669 14.982 6.77662 14.9949 5.88375 14.9999C5.48412 15.0029 5.11509 14.9262 4.74246 14.7438C4.42473 14.5873 4.06561 14.4816 3.71908 14.4567C2.86221 14.3979 2.25377 13.9344 1.76953 13.1858C1.29249 12.4492 0.812754 11.7117 0.288013 11.0169C0.031493 10.677 -0.0126104 10.3252 0.00269077 9.92947C0.0215922 9.41117 0.0854972 8.89186 0.0665957 8.37754C0.0386936 7.62301 0.261011 6.9223 0.438325 6.22756C0.614738 5.53582 0.685844 4.76335 1.21688 4.23108C1.18268 3.45263 1.72542 3.13566 2.17456 2.73198C2.41488 2.51469 2.60929 2.2346 2.82891 1.98741C3.33205 1.41927 3.9324 1.0425 4.63175 0.86109C5.2339 0.704601 5.70733 0.175329 6.35808 0.14443C6.98183 0.114528 7.60378 0.0288076 8.22753 0.000898732C8.41384 -0.00807197 8.62266 0.050736 8.78737 0.149414C9.1762 0.383649 9.57943 0.509239 10.0223 0.535154C10.7234 0.576021 11.178 1.21593 11.7963 1.4691C11.9745 1.54087 12.1167 1.7153 12.2814 1.83092C12.6433 2.0831 13.114 2.24258 13.348 2.59543C13.7063 3.13965 13.9079 3.81145 14.1644 4.43542C14.2283 4.58991 14.2031 4.81119 14.2949 4.92881C14.6198 5.34544 14.6828 5.87671 14.8142 6.36412C14.9348 6.81166 14.9186 7.30405 14.9889 8.05958Z" fill="#F26AAE"/>
</svg>
