<svg width="9" height="9" viewBox="0 0 9 9" fill="none" xmlns="http://www.w3.org/2000/svg">
<path fill-rule="evenodd" clip-rule="evenodd" d="M8.99331 4.83575C9.02625 5.01815 8.93499 5.32017 8.77513 5.63115C8.60286 5.96725 8.47865 6.33804 8.36146 6.70524C8.24643 7.06467 8.04986 7.32183 7.7712 7.55028C7.32026 7.92048 6.85529 8.24103 6.34765 8.51553C5.94964 8.73023 5.5365 8.78166 5.12877 8.87316C4.60601 8.98918 4.06597 8.99696 3.53025 8.99995C3.29047 9.00174 3.06905 8.95569 2.84547 8.84625C2.65484 8.75236 2.43936 8.68896 2.23145 8.67401C1.71733 8.63873 1.35226 8.36064 1.06172 7.9115C0.775494 7.46955 0.487652 7.02699 0.172808 6.61015C0.0188958 6.40622 -0.00756625 6.19511 0.00161446 5.95768C0.0129553 5.6467 0.0512983 5.33512 0.0399574 5.02653C0.0232161 4.5738 0.156606 4.15338 0.262995 3.73654C0.368843 3.32149 0.411506 2.85801 0.730131 2.53865C0.709609 2.07158 1.03525 1.8814 1.30474 1.63919C1.44893 1.50881 1.56558 1.34076 1.69735 1.19245C1.99923 0.85156 2.35944 0.625498 2.77905 0.516654C3.14034 0.42276 3.4244 0.105197 3.81485 0.086658C4.1891 0.0687166 4.56227 0.0172846 4.93652 0.000539239C5.04831 -0.00484318 5.17359 0.0304416 5.27242 0.0896482C5.50572 0.230189 5.74766 0.305543 6.01336 0.321092C6.43405 0.345612 6.70677 0.729558 7.07778 0.881462C7.18471 0.924522 7.27004 1.02918 7.36887 1.09855C7.58596 1.24986 7.8684 1.34555 8.00881 1.55726C8.22375 1.88379 8.34472 2.28687 8.49863 2.66125C8.53698 2.75395 8.52186 2.88671 8.57694 2.95728C8.77189 3.20727 8.8097 3.52603 8.88854 3.81847C8.96091 4.08699 8.95119 4.38243 8.99331 4.83575Z" fill="#FFCD2F"/>
</svg>
