<svg width="153" height="131" viewBox="0 0 153 131" fill="none" xmlns="http://www.w3.org/2000/svg">
<path d="M-3.69443 129.861C-3.51238 118.197 3.52929 105.735 16.3736 103.904C26.2049 102.502 38.3206 105.441 46.1338 110.586C50.055 113.168 55.4872 119.246 50.055 123.183C42.5807 128.6 29.334 119.125 25.745 108.843C20.4125 93.5653 25.0549 77.8027 35.8895 66.0648C49.33 51.5035 73.1485 37.5407 93.1216 45.8841C102.435 49.7747 107.261 55.6105 110.458 64.9313C113.002 72.3515 114.737 81.7415 108.795 88.3567C99.0158 99.2437 85.814 90.1647 79.6277 80.5102C67.0921 60.947 73.8497 32.0176 93.5489 19.8945C110.828 9.26075 131.315 4.60631 151.191 1.94781" stroke="#0F0F0F" stroke-width="2" stroke-linecap="round"/>
</svg>
