<svg width="27" height="31" viewBox="0 0 27 31" fill="none" xmlns="http://www.w3.org/2000/svg">
<path d="M9.18261 30.2084C4.51674 30.1829 0.657227 21.1363 0.657227 16.5291C0.657227 9.00322 6.60123 7.35561 8.89201 7.35561C9.92436 7.35561 11.0267 7.74067 11.999 8.08142C12.6789 8.31911 13.3821 8.56448 13.7732 8.56448C14.0072 8.56448 14.5589 8.35575 15.0459 8.17261C16.0846 7.77987 17.377 7.29175 18.8821 7.29175C18.8848 7.29175 18.8884 7.29175 18.891 7.29175C20.0149 7.29175 23.4224 7.52601 25.471 10.4481L25.9509 11.133L25.2602 11.628C24.2736 12.3351 22.4734 13.6249 22.4734 16.1798C22.4734 19.2059 24.5122 20.3696 25.4916 20.9293C25.924 21.1764 26.3715 21.4311 26.3715 21.9883C26.3715 22.352 23.3147 30.1633 18.8758 30.1633C17.7896 30.1633 17.0218 29.8532 16.3446 29.5797C15.6594 29.3028 15.0683 29.0643 14.0915 29.0643C13.5964 29.0643 12.9703 29.2867 12.3075 29.5227C11.4017 29.8438 10.3764 30.2084 9.2131 30.2084H9.18261Z" fill="white"/>
<path d="M18.8683 0C18.9734 3.78288 16.2635 6.40727 13.5567 6.24267C13.1106 3.2238 16.2631 0 18.8683 0Z" fill="white"/>
</svg>
