<svg width="55" height="55" viewBox="0 0 55 55" fill="none" xmlns="http://www.w3.org/2000/svg">
<g id="Icon">
<path id="Shape" fill-rule="evenodd" clip-rule="evenodd" d="M0 42.1075C0 49.2164 5.78273 55 12.8906 55H42.1094C49.2173 55 55 49.2164 55 42.1075V24.0289C55 20.0331 53.1036 16.2009 49.9269 13.7778L35.3175 2.63337C30.7147 -0.877791 24.2854 -0.877791 19.6826 2.63337L5.07321 13.7778C1.89643 16.201 0 20.0332 0 24.0289V42.1075ZM22.2883 6.05031C23.8226 4.88 25.6614 4.29479 27.5 4.29479C29.3386 4.29479 31.1774 4.88 32.7117 6.05042L47.3211 17.1948C49.4388 18.8103 50.7031 21.3651 50.7031 24.0289V42.1075C50.7031 46.8468 46.848 50.7025 42.1094 50.7025H12.8906C8.15203 50.7025 4.29688 46.8468 4.29688 42.1075V24.0289C4.29688 21.3651 5.56123 18.8102 7.67895 17.1947L22.2883 6.05031ZM27.5 29.8596C23.3537 29.8596 19.9805 26.4859 19.9805 22.339C19.9805 18.1921 23.3537 14.8184 27.5 14.8184C31.6463 14.8184 35.0195 18.1921 35.0195 22.339C35.0195 26.4859 31.6463 29.8596 27.5 29.8596ZM24.2773 22.339C24.2773 20.5618 25.723 19.1159 27.5 19.1159C29.277 19.1159 30.7227 20.5618 30.7227 22.339C30.7227 24.1162 29.277 25.5621 27.5 25.5621C25.723 25.5621 24.2773 24.1162 24.2773 22.339Z" fill="#FFD0D0"/>
<path id="Path" d="M38.1667 45.8333C36.97 45.8333 36 44.8915 36 43.7295C36 40.1333 32.9688 37.2077 29.2429 37.2077H27.5904C23.8645 37.2077 20.8333 40.1333 20.8333 43.7295C20.8333 44.8915 19.8633 45.8333 18.6667 45.8333C17.47 45.8333 16.5 44.8915 16.5 43.7295C16.5 37.8132 21.4752 33 27.5904 33H29.2429C35.3581 33 40.3333 37.8132 40.3333 43.7295C40.3333 44.8913 39.3633 45.8333 38.1667 45.8333Z" fill="#FF1F1F"/>
</g>
</svg>
