<svg width="25" height="25" viewBox="0 0 25 25" fill="none" xmlns="http://www.w3.org/2000/svg">
<path d="M22.9163 12.5H2.08301" stroke="black" stroke-width="2.5" stroke-linecap="round" stroke-linejoin="round"/>
<path d="M5.67676 5.323L2.08301 12.5001V18.7501C2.08301 19.3026 2.3025 19.8325 2.6932 20.2232C3.0839 20.6139 3.61381 20.8334 4.16634 20.8334H20.833C21.3855 20.8334 21.9154 20.6139 22.3061 20.2232C22.6968 19.8325 22.9163 19.3026 22.9163 18.7501V12.5001L19.3226 5.323C19.1501 4.9759 18.8842 4.6838 18.5548 4.47954C18.2254 4.27528 17.8456 4.16695 17.458 4.16675H7.54134C7.15375 4.16695 6.77391 4.27528 6.44451 4.47954C6.11512 4.6838 5.84923 4.9759 5.67676 5.323V5.323Z" stroke="black" stroke-width="2.5" stroke-linecap="round" stroke-linejoin="round"/>
<path d="M6.25 16.6667H6.26" stroke="black" stroke-width="2.5" stroke-linecap="round" stroke-linejoin="round"/>
<path d="M10.417 16.6667H10.427" stroke="black" stroke-width="2.5" stroke-linecap="round" stroke-linejoin="round"/>
</svg>
