<svg width="102" height="84" viewBox="0 0 102 84" fill="none" xmlns="http://www.w3.org/2000/svg">
<mask id="mask0_0_9975" style="mask-type:alpha" maskUnits="userSpaceOnUse" x="0" y="10" width="102" height="74">
<path fill-rule="evenodd" clip-rule="evenodd" d="M101.196 60.4673L14.263 83.761L0.804376 33.5329L87.7377 10.2391L101.196 60.4673Z" fill="white"/>
</mask>
<g mask="url(#mask0_0_9975)">
<path opacity="0.501282" fill-rule="evenodd" clip-rule="evenodd" d="M13.925 69.1955C13.937 69.1658 13.9535 69.134 13.9821 69.0982C14.0512 69.067 14.1117 69.0289 14.1693 68.9891C14.1542 69.0348 14.1383 69.0786 14.1287 69.1346C14.2113 69.0123 14.2008 69.1817 14.2251 69.309C14.1607 69.3371 14.0987 69.3752 14.0381 69.4175C14.0369 69.4149 14.0362 69.413 14.0352 69.4107C14.0497 69.4035 14.0633 69.3935 14.0785 69.3878C14.0621 69.393 14.0448 69.3938 14.0273 69.3926C13.9955 69.32 13.9903 69.2697 14.101 69.2934C13.9967 69.0105 14.0032 69.2818 13.9354 69.3475C13.922 69.3313 13.9123 69.3124 13.909 69.2881C13.9141 69.2577 13.919 69.2282 13.925 69.1955ZM14.9385 68.4312C14.9514 68.5114 14.9637 68.5914 14.9772 68.6765C14.9369 68.6381 14.9057 68.5868 14.8843 68.5004C14.865 68.4972 14.8473 68.504 14.828 68.5033C14.8653 68.4781 14.9017 68.4545 14.9385 68.4312ZM12.8204 58.0181C12.8527 58.1157 12.8897 58.2209 12.9341 58.3432C12.8961 58.4639 12.7955 58.2581 12.6856 58.0173C12.7371 58.0095 12.7819 58.0098 12.8204 58.0181ZM7.84178 39.0752C7.78469 39.0967 7.73204 39.1182 7.67192 39.1402C7.64417 39.1383 7.61744 39.1451 7.5961 39.1671C7.49854 39.2018 7.3996 39.2373 7.29544 39.2737C7.08934 38.8144 6.98801 38.3874 6.89038 37.9282C6.8873 37.8894 6.87099 37.8187 6.8497 37.7392C6.84775 37.73 6.84591 37.7212 6.84382 37.7124C6.89223 37.7239 6.94077 37.735 6.98804 37.7512C7.09374 38.0938 7.19668 38.4536 7.29722 38.7545L7.42606 38.6087C7.28252 38.2793 7.23846 38.0562 7.19528 37.8345C7.2858 37.8751 7.37721 37.9191 7.46958 37.9628C7.56461 38.4005 7.60523 38.7046 7.48411 38.5986C7.70926 38.9062 7.69751 38.8242 7.78039 38.7728C7.80333 38.8965 7.8226 38.9909 7.84178 39.0752ZM6.76218 39.7183C6.71589 39.4691 6.78961 39.4893 6.90166 39.6692C6.85535 39.6849 6.80871 39.7021 6.76218 39.7183ZM6.36705 38.099C6.35915 38.0784 6.35156 38.054 6.34366 38.0321C6.3681 38.0176 6.39191 38.0032 6.41796 37.9882L6.40457 38.0797L6.36705 38.099ZM5.94045 38.2198C6.01649 38.162 6.10261 38.1024 6.19967 38.0402C6.20588 38.0583 6.20904 38.0713 6.21589 38.0905L5.94045 38.2198ZM11.0265 37.0664C11.0337 37.102 11.0386 37.1306 11.0467 37.1684C11.0384 37.6448 10.9297 37.4149 10.803 37.1104L10.8158 37.0687C10.8894 37.0681 10.9582 37.0675 11.0265 37.0664ZM51.6285 21.9272C52.0302 22.2655 52.4536 21.6494 52.6858 22.1729C53.0065 22.1938 53.2704 22.1494 53.505 22.0699C53.4443 22.1471 53.3869 22.2281 53.3314 22.312C52.6608 22.2996 51.9399 22.3006 51.1823 22.3231C51.3509 22.2298 51.5032 22.104 51.6285 21.9272ZM69.3947 16.5107C69.4255 16.5875 69.4527 16.6581 69.4775 16.724C69.3706 16.7165 69.2628 16.7094 69.1533 16.7034C69.128 16.3016 69.2501 16.2974 69.3947 16.5107ZM86.5207 17.8377C86.3433 18 86.2596 17.9522 86.1938 17.892C86.2967 17.8556 86.399 17.8181 86.5003 17.7775L86.5207 17.8377ZM79.0565 21.7944C79.232 21.9252 79.4945 22.0077 79.4927 22.2344C79.0759 22.5428 78.6784 22.6855 78.2808 22.7718C78.2743 22.7417 78.2687 22.7127 78.2616 22.6821C78.3057 22.4181 78.3479 22.1647 78.3887 21.9183C78.5034 22.0116 78.5542 21.9489 78.5988 21.8504C78.7502 21.8227 78.9037 21.7949 79.0565 21.7944ZM82.7011 42.4038C82.7124 42.4404 82.7243 42.4702 82.7366 42.4857L82.7175 42.4081L82.8122 42.4327C82.8343 42.5047 82.8564 42.5756 82.8825 42.6635C82.9082 42.7025 82.9302 42.7292 82.9502 42.7472C82.9659 43.1271 82.8697 43.1852 82.832 43.3061L82.7881 43.1201C82.8457 44.2788 82.719 43.3868 82.5803 43.9155L82.4066 42.7795C82.4327 42.8612 82.4637 42.9498 82.5038 43.05C82.4118 42.7131 82.3551 42.4781 82.3184 42.3033L82.7011 42.4038ZM82.1943 43.4162C82.1562 43.252 82.0026 42.7175 81.9674 42.4245L82.0476 44.1842C82.1572 44.9725 82.2635 44.9238 82.3917 45.3507C82.411 45.4406 82.421 45.5091 82.4265 45.5645C82.3993 45.5601 82.3686 45.5778 82.3405 45.662C82.3201 45.6349 82.2976 45.5976 82.2735 45.5505L82.0844 44.5546C82.0344 44.456 82.013 44.4409 82.0071 44.4718C81.9844 44.3615 81.9546 44.2462 81.8994 44.1168L82.0999 45.2377C82.0482 45.0527 81.8932 44.5559 81.8444 44.2791L81.9165 44.9041C81.7555 44.1715 81.7478 43.4396 81.7034 43.0163C81.502 42.8795 81.6367 43.6375 81.5613 43.8933C81.5199 43.7414 81.4765 43.5923 81.4307 43.4486C81.5227 43.3748 81.4527 42.8365 81.3446 42.1767C81.4118 42.1466 81.4823 42.1211 81.5483 42.0891L82.1209 42.201C82.141 42.3446 82.1681 42.4948 82.2277 42.6836C82.0019 42.2659 82.3072 43.5257 82.1943 43.4162ZM82.1667 45.3212L82.2003 45.634C82.192 45.6933 82.1681 45.7123 82.1371 45.7155C82.0738 45.307 81.9976 44.903 81.907 44.5165C81.9659 44.6597 82.0271 44.8258 82.0835 44.9799C82.1208 45.1181 82.1479 45.2294 82.1667 45.3212ZM82.328 51.1058C82.2646 51.1322 82.2021 51.1595 82.1374 51.184C82.106 51.03 82.0722 50.8774 82.0373 50.7262C82.0827 50.7536 82.0863 50.6618 82.0635 50.4923L82.234 50.5748L82.3481 50.4888C82.3481 50.4888 82.3429 50.0458 82.3096 49.3568C82.3809 49.5838 82.4548 49.783 82.5328 49.9162C82.4587 49.6372 82.4077 49.3837 82.3625 49.1414L82.2998 49.1665C82.2905 48.9975 82.2803 48.8175 82.2674 48.6257C82.2774 48.6803 82.2886 48.7338 82.2982 48.7897C82.2998 48.8269 82.3136 48.8956 82.3316 48.9733C82.342 49.0305 82.3521 49.0843 82.3625 49.1414L82.3749 49.1362C82.4122 49.2664 82.4602 49.4216 82.5323 49.6341C82.5242 49.3302 82.7685 49.942 82.8846 50.1491C82.6909 50.4195 82.5243 50.803 82.328 51.1058ZM82.9419 55.4241C83.0164 55.3158 83.1098 55.2693 83.2352 55.3181C83.1292 55.344 83.0314 55.3795 82.9419 55.4241ZM82.7854 56.8985C82.8307 56.8372 82.9306 56.805 82.9686 56.7409C82.863 56.5079 82.6813 56.9775 82.3072 56.9155C82.3356 56.886 82.3621 56.8524 82.3872 56.816L82.776 56.457L82.5924 56.388C82.6365 56.267 82.6772 56.141 82.7171 56.0191L82.8254 55.9421C82.8254 55.9421 82.8253 55.9339 82.8253 55.9214L83.294 55.5005C83.1929 56.2884 83.1066 56.8167 82.7854 56.8985ZM82.7132 57.1562C82.7048 57.1189 82.709 57.0901 82.7204 57.066L83.0238 57.041C82.9618 57.1136 82.8918 57.171 82.7132 57.1562ZM82.6818 59.0292C82.6099 59.0383 82.5381 59.0478 82.4655 59.0575C82.3519 58.7296 82.1106 58.7477 82.1723 58.1833C81.9909 58.1827 81.8561 58.3018 81.9733 58.7999C81.9502 58.8042 81.9266 58.8049 81.904 58.8109C81.819 58.6983 81.7414 58.4384 81.6565 58.168C81.6863 58.1357 81.7226 58.1087 81.7518 58.0761C81.7161 58.0898 81.6769 58.1014 81.6394 58.1141C81.5958 57.9768 81.5499 57.8409 81.4997 57.7252C81.7087 57.6347 81.9581 57.5375 82.2077 57.4245C82.1903 57.5938 82.1582 57.7338 82.2568 57.7336L82.2278 57.4157C82.5757 57.2572 82.9148 57.0627 83.1466 56.8017L83.2976 56.7883C83.2053 57.7249 82.3239 57.5708 82.6818 59.0292ZM84.9971 61.7642L84.9146 61.3938C84.9996 61.3668 85.0831 61.3369 85.1667 61.3074C85.2082 61.545 85.2432 61.7559 84.9971 61.7642ZM85.714 62.8702C85.7934 62.9457 85.875 62.9722 85.9545 62.9707C85.96 63.0239 85.9841 63.0776 86.021 63.1287C85.9177 63.1656 85.8143 63.2017 85.7088 63.238C85.6924 63.125 85.6806 63.0045 85.714 62.8702ZM85.1582 63.7323C85.3195 63.4501 85.5106 63.5659 85.7023 63.3678L85.7792 63.5007C85.5858 63.5668 85.3809 63.6419 85.1582 63.7323ZM11.3797 37.3739C11.4153 37.4838 11.4472 37.5645 11.4776 37.6371C11.4363 37.6679 11.3949 37.6996 11.3539 37.7299C11.3632 37.6168 11.3746 37.5052 11.3797 37.3739ZM11.515 37.249C11.4928 37.1662 11.461 37.0653 11.4258 36.9582C11.5365 36.9866 11.6369 37.0262 11.7315 37.0757C11.6596 37.1336 11.5897 37.1902 11.515 37.249ZM60.1863 20.6465C60.1309 20.6781 60.1054 20.7169 60.0942 20.759C60.0909 20.7469 60.0854 20.7366 60.0834 20.7241C60.1159 20.691 60.149 20.6691 60.1813 20.6381C60.1825 20.6412 60.185 20.643 60.1863 20.6465ZM60.7487 20.3246L60.7933 21.059C60.8518 20.553 61.0845 20.6428 61.3391 20.7195C61.2991 20.8323 61.2359 20.927 61.1588 21.0079C61.114 21.0359 61.0682 21.0631 61.0237 21.092C60.9444 21.1119 60.8646 21.1303 60.7837 21.1378C60.6421 21.0476 60.4601 20.9874 60.3548 20.8696C60.3839 20.7844 60.3908 20.6922 60.3919 20.6018C60.5097 20.4939 60.6283 20.4015 60.7487 20.3246ZM76.915 64.3596C77.1102 64.5161 77.3512 64.6585 77.6052 64.8573L77.607 64.9974L77.6178 65.0125C77.4 65.0552 77.2063 65.0494 77.06 64.7858C77.0057 64.7847 76.956 64.7884 76.9039 64.7889C76.9037 64.6282 76.903 64.4776 76.915 64.3596ZM74.9907 65.2958C74.9685 64.9774 75.0555 64.8603 75.1876 64.8225C75.2526 64.9587 75.2744 65.0702 75.2732 65.1712C75.177 65.2112 75.0828 65.2524 74.9907 65.2958ZM74.0349 65.5519C74.0175 65.3632 74.055 65.2053 74.2217 65.1215C74.2328 65.1273 74.244 65.1347 74.2553 65.1425L74.3301 65.3874L74.3592 65.2369C74.3789 65.2599 74.3983 65.2841 74.4166 65.3113C74.4129 65.2377 74.3968 65.1684 74.386 65.0974L74.3982 65.034L74.6442 65.2769C74.4393 65.3663 74.2385 65.4592 74.0349 65.5519ZM65.6885 67.5906C65.6515 67.5572 65.6209 67.5318 65.5897 67.5052C65.7481 67.4401 65.8746 67.3877 65.9432 67.3785C66.0049 67.4365 66.0254 67.4919 66.0232 67.5459L65.8519 67.5931C65.8633 67.6174 65.8688 67.6378 65.8781 67.661C65.7279 67.7016 65.5607 67.73 65.4 67.7373C65.4578 67.5864 65.5467 67.5172 65.6885 67.5906ZM55.5314 22.2781L55.6171 22.3056C55.5496 22.4045 55.4271 22.4486 55.3008 22.4905C55.1959 22.4778 55.0849 22.4651 54.9735 22.4524C55.1721 22.424 55.3628 22.3733 55.5314 22.2781ZM78.4366 58.7531C78.449 58.709 78.4619 58.6664 78.474 58.6224L78.6134 58.7095C78.5544 58.7237 78.495 58.7379 78.4366 58.7531ZM68.1297 66.7593L68.1116 67.0934C68.0574 67.0121 68.0134 66.9284 67.9745 66.8442C68.0267 66.8159 68.0773 66.7868 68.1297 66.7593ZM70.962 61.7308L71.084 61.3453C71.373 61.3023 71.7352 61.0976 72.1261 61.0534L72.1587 61.0989C71.7959 61.3231 71.4155 61.5433 70.962 61.7308ZM72.2474 58.881L72.3221 58.6661C72.3291 58.6657 72.335 58.6658 72.342 58.6653C72.336 58.6536 72.3383 58.6417 72.3347 58.6302L72.4086 58.4172C72.4754 58.4126 72.5125 58.5778 72.5469 58.7595C72.4523 58.7995 72.352 58.84 72.2474 58.881ZM70.7798 61.0506C70.8838 61.019 70.9901 60.9897 71.1039 60.9857L71.0812 61.1331C71.0896 61.1342 71.0994 61.1294 71.1081 61.1296C71.0233 61.3025 70.9028 61.2145 70.7798 61.0506ZM70.2188 61.3843C70.2051 61.3409 70.1877 61.2976 70.167 61.2548C70.2682 61.2525 70.3684 61.2404 70.4678 61.2188C70.4399 61.3108 70.3664 61.3742 70.2188 61.3843ZM69.8273 61.3245C69.7727 61.4393 69.6868 61.5468 69.5643 61.6074C69.5708 61.5817 69.5772 61.5572 69.5836 61.5315C69.6564 61.4603 69.7262 61.3882 69.794 61.3162C69.8052 61.3187 69.816 61.3217 69.8273 61.3245ZM75.5002 59.6298C75.5799 59.5391 75.5432 59.4387 75.4919 59.3287C75.5793 59.3481 75.6671 59.3323 75.7583 59.3008C75.786 59.3937 75.8191 59.4875 75.8487 59.5764C75.6383 59.6414 75.4387 59.724 75.2663 59.7433C75.2481 59.6318 75.2138 59.5407 75.1459 59.5023C75.24 59.4336 75.3289 59.3647 75.4043 59.2969C75.405 59.2973 75.4059 59.2971 75.4066 59.2975C75.3861 59.5233 75.2256 59.2083 75.5002 59.6298ZM68.8699 66.6682C68.8173 67.1264 68.4124 67.0694 68.2121 66.7619C68.4064 66.6827 68.6087 66.6075 68.8092 66.5316C68.834 66.5702 68.8562 66.6127 68.8699 66.6682ZM78.9411 58.3627C79.31 58.615 79.608 58.2794 79.9929 58.4745C79.6849 58.5192 79.3676 58.5647 79.0523 58.6214C79.0291 58.5456 78.9515 58.4574 78.9411 58.3627ZM59.9892 20.8166C59.9618 20.9164 60.0261 21.0368 59.9183 21.1334C59.9775 21.0968 60.0141 21.0513 60.0414 21.0022C60.0529 21.0406 60.063 21.0794 60.0795 21.1168C59.7971 21.261 59.5132 21.3964 59.2333 21.5475L59.4271 21.5727C59.2472 21.6202 59.0688 21.6727 58.8923 21.7342L58.762 21.6585L58.5999 21.8413C58.2698 21.9709 57.9464 22.1202 57.6301 22.2876C57.3232 22.4044 57.0197 22.5302 56.7198 22.6659C56.3271 22.6389 55.9835 22.6185 55.6976 22.6059C56.4168 22.4259 57.2327 22.3912 57.6793 21.8925C57.3087 21.82 56.8889 22.006 56.4649 22.0151C56.3718 21.953 56.2603 21.9013 56.1634 21.8421C56.174 21.824 56.1868 21.8089 56.1973 21.7901C56.5917 22.0627 56.9301 21.4291 57.1832 21.8991C58.4141 21.8471 58.6748 20.8309 59.8184 20.5759C59.9201 20.6065 59.9583 20.7015 59.9892 20.8166ZM66.4171 67.567C66.4128 67.5428 66.4099 67.5164 66.4051 67.4927L66.3622 67.5046C66.4994 67.3377 66.6274 67.1767 66.8914 67.0455C66.9556 67.1761 66.9978 67.3044 67.0207 67.4314C66.8221 67.4717 66.6208 67.5174 66.4171 67.567ZM81.0788 58.7035L81.1396 58.9719C81.0533 59.0277 80.9701 59.0861 80.8885 59.1452C80.2611 59.3216 79.6864 59.565 79.265 59.9447C79.1968 59.9269 79.1269 59.9216 79.0563 59.9214C79.2997 59.8602 79.5123 59.7777 79.544 59.58C79.2859 59.7207 78.9846 59.8149 78.6639 59.887L78.6733 59.7696C79.4405 59.4503 80.1647 59.0979 80.8021 58.6917C80.8919 58.6757 80.9843 58.6731 81.0788 58.7035ZM11.3354 36.997C11.3539 37.1029 11.371 37.2062 11.3802 37.2903C11.3336 37.3191 11.2868 37.3471 11.2398 37.3757C11.2071 37.2368 11.1665 37.1072 11.1251 36.9858C11.1987 36.9877 11.2691 36.9917 11.3354 36.997ZM10.4753 37.5591C10.4864 37.6434 10.5001 37.7134 10.5135 37.7847C10.3621 37.9019 10.1905 38.0177 9.99834 38.1289L9.82459 37.3343C10.0345 37.2924 10.2632 37.2934 10.4638 37.3171L10.4753 37.5591ZM9.88619 38.5795C9.83601 38.3273 9.77695 38.0673 9.71419 37.8204C9.73927 37.8005 9.76341 37.7798 9.79188 37.7636C9.86353 38.0476 9.93069 38.2957 9.9924 38.5209C9.95668 38.5406 9.92233 38.5602 9.88619 38.5795ZM9.40074 38.1806C9.34076 37.8165 9.24939 37.5291 9.13781 37.193C9.17066 37.1575 9.20564 37.116 9.24305 37.0695C9.2794 37.195 9.32533 37.3116 9.38357 37.4155L9.47016 37.6992C9.51059 38.0387 9.5602 38.4494 9.40074 38.1806ZM8.7998 37.2881C8.84941 37.2566 8.90484 37.2099 8.96793 37.1433C9.10082 37.6176 9.23769 38.0506 9.31331 38.3125C9.15434 38.0365 8.97542 37.6632 8.7998 37.2881ZM9.4212 38.6257C9.27208 38.6947 9.12827 38.7591 8.99294 38.8189L8.58676 37.9587L8.69224 37.9039L8.56418 37.672C8.71025 37.639 8.80834 37.6645 8.9406 37.6042C9.07225 37.7816 9.22575 38.0527 9.40439 38.4612C9.41224 38.5208 9.41764 38.5749 9.4212 38.6257ZM8.52667 38.7802C8.57504 38.7084 8.61352 38.6034 8.72071 38.6874C8.65228 38.7201 8.58874 38.7506 8.52667 38.7802ZM8.03459 37.9761C8.06 37.9549 8.08447 37.9341 8.10776 37.9165C8.09952 37.9877 8.09054 38.0523 8.08363 38.0992C8.07025 38.062 8.05199 38.0181 8.03459 37.9761ZM4.2098 40.9417L3.90678 40.8846C3.86068 40.4396 4.05583 40.5287 4.25455 40.908C4.24019 40.92 4.22393 40.9297 4.2098 40.9417ZM83.0548 42.5918C83.0705 42.5805 83.0816 42.5556 83.0895 42.5173C83.112 42.66 83.159 42.9056 83.2437 43.3171L83.0548 42.5918ZM81.248 30.4251C81.2622 30.5432 81.2752 30.6592 81.2875 30.7715C81.2597 30.7571 81.2309 30.7413 81.2034 30.7264C81.2212 30.6387 81.2367 30.5399 81.248 30.4251ZM82.0285 31.9585C82.0481 32.0445 82.0669 32.1286 82.0842 32.2098C82.0302 32.1561 81.9585 32.0925 81.8626 32.0172C81.8832 31.9553 81.9433 31.9401 82.0285 31.9585ZM85.0182 36.2016C85.0179 36.1919 85.0197 36.1896 85.0196 36.1816C85.0244 36.2021 85.0291 36.2183 85.0336 36.2402C85.0417 36.203 85.0459 36.1562 85.0484 36.1043C85.1044 36.1169 85.2227 36.361 85.2579 36.3077C85.282 36.3874 85.3233 36.5543 85.3571 36.6866C85.3473 36.7506 85.3353 36.8103 85.3243 36.8715C85.3108 36.8288 85.298 36.7871 85.2816 36.7351C85.2181 36.6776 85.1863 36.8815 85.0182 36.2016ZM83.9116 44.171C83.8881 44.2514 83.8561 44.3003 83.8195 44.332C83.7874 44.0542 83.8355 44.0425 83.9116 44.171ZM84.4837 44.2466C84.5868 44.3214 84.652 44.4449 84.7106 44.6064C84.6583 44.5768 84.5999 44.5336 84.5532 44.5186C84.5322 44.4388 84.51 44.3522 84.4837 44.2466ZM5.67334 69.6409C5.70375 69.764 5.61841 69.7646 5.6027 69.8374C5.68255 70.0589 5.71582 69.6405 5.91605 69.764L5.72802 70.1079L5.93131 70.2786L5.49852 71.0403C6.03099 71.0641 6.02906 70.1559 6.51035 70.3508C6.46593 70.4384 6.54425 70.4821 6.5749 70.5344C6.67219 70.3885 6.82464 70.348 6.86305 70.1782L7.06701 70.1292C7.09742 70.2522 7.09944 70.5717 6.89073 70.6209C7.07746 70.5769 7.24172 70.4933 7.39667 70.3952C7.57359 70.8523 7.73864 71.2699 7.88107 71.621C7.81471 71.6148 7.76086 71.5942 7.73718 71.5273C7.66234 71.5743 7.62286 71.5739 7.65784 71.7463C7.7368 71.747 7.88553 71.652 7.84567 71.8713C7.71829 71.991 7.60904 71.8665 7.4951 71.9133C7.49062 71.8643 7.53564 71.6941 7.49966 71.7427C7.2404 71.9331 6.70141 72.0701 6.55057 72.6041C6.64277 72.5324 6.60826 72.3606 6.77066 72.4122C6.80098 72.5349 6.722 72.5341 6.70898 72.6062C6.78674 72.8283 6.80976 72.4123 6.99843 72.5392L6.83041 72.8777L7.02236 73.0515L6.63467 73.8011C7.1298 73.8349 7.11046 72.9311 7.56166 73.1344C7.52203 73.2207 7.59556 73.2657 7.62501 73.3183C7.71203 73.1758 7.85098 73.1375 7.8845 72.9722C7.9229 72.9697 7.97053 72.9562 8.02259 72.9366L8.07441 72.9245C8.10502 73.0471 8.11312 73.3653 7.91994 73.4104C8.59499 73.2518 8.94361 72.501 9.67567 72.5397C9.71943 72.5895 9.6052 72.6363 9.66642 72.6617C9.73719 72.5649 9.86448 72.4449 9.83844 72.3716C9.84262 72.4207 9.85082 72.5182 9.79418 72.5422C9.89497 72.4738 9.9921 72.4623 10.0842 72.4677C10.042 72.4871 10.0084 72.5159 9.99128 72.5608L9.99307 72.5101L9.81693 72.651C9.93326 72.6131 10.1355 72.5671 10.2856 72.494C10.3966 72.5116 10.4936 72.5139 10.57 72.4096C10.6226 72.5568 10.4248 72.5536 10.4683 72.6024C10.8449 72.6337 10.8995 72.123 11.2463 72.0322C11.1886 72.2743 11.3812 72.2297 11.5081 72.3291C11.7414 72.0646 12.3333 71.8573 12.7241 71.5952C12.7533 72.157 13.2068 71.4825 13.3626 71.9241C13.4595 71.902 13.5869 71.7823 13.5521 71.6106C13.5212 71.708 13.3549 71.6061 13.3471 71.5089C13.4785 71.4387 13.6888 71.3692 13.65 71.1491L13.8822 71.3238C13.848 71.1533 13.8486 70.9368 13.943 70.9115L13.9451 70.9109C14.1304 71.1208 14.0721 70.9978 14.0536 70.8797C14.1011 70.868 14.149 70.857 14.1977 70.8475C14.179 71.001 14.1605 71.1315 14.1708 71.256C14.3294 71.2588 14.2813 71.1606 14.3736 71.0892C14.443 71.212 14.368 71.4793 14.2801 71.5994L14.5033 71.6771C14.6138 71.3618 14.8296 70.902 15.1453 70.9079C15.1403 71.079 15.0441 71.1012 15.1797 71.2989C15.2194 71.2643 15.2568 71.197 15.2975 71.1302C15.3703 71.6266 15.4445 72.1296 15.5174 72.6143C15.399 72.7482 15.3363 72.8718 15.5544 72.86C15.5559 72.8702 15.5576 72.8801 15.5589 72.8899C15.2853 73.0803 15.0904 72.8012 14.8891 72.946C14.8244 72.8028 15.0315 72.701 14.8814 72.6186C14.6422 72.6483 14.4833 72.6683 14.3135 72.7912C14.5107 72.7921 14.2986 72.9458 14.6126 72.9564C14.5232 73.0695 14.2374 73.1811 14.269 73.2525C14.3543 73.1922 14.402 73.1094 14.5929 73.1612C14.302 73.3254 13.9779 73.4172 13.6261 73.3852C13.6284 73.3471 13.6508 73.3043 13.6788 73.2618C13.3327 73.6346 12.6892 73.7342 12.4921 74.1123L12.6314 74.14C12.7096 74.0289 12.9109 73.9651 13.013 74.0212C12.7216 74.1848 13.3081 74.2373 13.0117 74.4526C12.5931 74.7079 12.1021 74.4912 11.9436 74.8915C12.3851 74.81 13.0158 74.8323 13.1517 74.6371L12.8691 74.6983L13.3976 74.1243C13.4624 74.2681 13.9342 73.879 13.9887 74.1254C13.781 74.2277 13.5802 74.2787 13.4154 74.3497C13.4844 74.4433 14.0173 74.2489 14.2561 74.2188L13.9423 74.2081C14.4076 73.8702 15.0878 73.7584 15.5503 73.4721C15.374 73.6244 15.522 73.6293 15.6731 73.6362C15.6849 73.715 15.6968 73.7918 15.7089 73.8681C15.6068 73.8799 15.5021 73.8238 15.5534 73.8514C15.5615 73.9571 15.6326 73.9547 15.7196 73.9366C15.7469 74.11 15.773 74.2756 15.7981 74.4326C15.7236 74.4904 15.6563 74.5416 15.6016 74.581L15.6976 74.4171C15.3806 74.8379 14.8886 74.6208 14.5397 74.9688C14.5442 74.9177 14.5866 74.887 14.5067 74.8974C13.9849 74.9884 13.8998 75.4811 13.4358 75.3877L13.4498 75.2343C13.4192 75.2602 13.2087 75.44 13.2984 75.5822C13.6276 75.4391 13.6752 75.3574 13.9932 75.3171C13.9015 75.4778 13.6565 75.657 13.4554 75.7119L13.499 75.963C13.31 76.2912 12.9447 75.9821 12.7567 76.3093L13.1032 76.3929C13.0971 76.4059 13.0747 76.4182 13.0581 76.4315C13.1883 76.3701 13.2973 76.3059 13.3143 76.2391C13.7333 75.984 14.0608 76.2721 14.1694 76.3844C14.4036 76.4065 14.176 76.714 14.2421 76.8579C14.5705 76.7151 14.4778 76.4478 14.8068 76.3052C14.9253 76.3148 14.8768 76.3968 14.834 76.4284L15.0502 76.223C15.0833 76.2951 15.6852 76.1933 15.384 76.4603C15.3304 76.4669 15.2365 76.4998 15.1592 76.5089C15.6848 76.5576 16.5647 76.5301 16.6119 76.8113C16.8894 76.8027 16.7811 76.6888 17.2186 76.6593C17.3594 76.4129 17.0975 76.2685 17.5158 76.0132L17.1316 76.0122C17.0679 76.0696 17.0196 76.1341 16.9472 76.1864L17.3142 76.0637C17.1027 76.2172 17.1727 76.3099 17.1533 76.5159C16.585 76.6883 16.3363 76.3911 16.0219 76.3792C16.1371 76.2164 16.3741 76.1604 16.3474 76.0275C16.6452 75.9678 16.9288 75.9435 17.0139 75.74C17.0678 75.7072 17.1152 75.6973 17.1592 75.6933C17.337 75.7415 17.1616 75.972 17.5487 75.9245C17.7015 75.8255 17.8673 75.6687 18.0509 75.5495C18.061 75.586 18.075 75.618 18.1043 75.6342C17.4644 76.1461 18.2248 76.0255 17.5103 76.4956C17.5984 76.8135 17.9177 76.7732 18.3263 76.6206C18.0166 76.5579 18.375 76.1069 17.9524 75.9828C18.252 75.8149 18.3414 75.5749 18.4613 75.3939C18.4829 75.392 18.5043 75.3873 18.5265 75.3877L18.5345 75.4305C19.0505 75.3919 19.3518 75.1373 19.6675 74.9148L19.7496 74.9189C19.5934 75.3197 19.2468 75.2365 19.1049 75.4824C19.6778 75.6885 19.665 74.9798 20.2299 74.8581C20.378 74.9256 20.4116 74.983 20.3854 75.0371C20.3116 75.0876 20.2372 75.1412 20.162 75.1984C20.0114 75.277 19.8414 75.3621 19.8106 75.474C19.6862 75.5738 19.5606 75.6725 19.4342 75.7686C19.4076 75.7337 19.2778 75.7359 19.2876 75.636C19.2345 75.7701 18.7035 75.9644 18.3051 76.0142C18.2798 76.2713 18.69 76.1183 18.9613 76.1594C19.0017 76.1203 19.0456 76.0927 19.0899 76.067C19.3668 76.0405 19.5659 75.995 19.7308 75.9374C19.9184 75.9231 20.0898 75.8885 20.2081 75.7387C20.2357 75.7271 20.2634 75.7155 20.2931 75.7036C20.661 75.6064 20.3258 75.9377 20.3614 75.9572C20.8364 75.948 20.5026 75.7111 20.6301 75.619C20.6806 75.5902 20.7243 75.5739 20.7694 75.5547C20.8078 75.5452 20.8397 75.5352 20.8818 75.526C21.597 75.5183 21.9733 76.0171 22.6396 76.2321L22.2383 75.8446C23.0798 75.2794 22.9296 75.9486 23.5564 75.3327L23.6913 76.0691C23.8635 75.6386 24.5779 75.8036 24.8861 75.9346L25.0105 75.3773C25.6546 75.5261 26.0605 75.5605 26.342 75.9787L26.1799 75.5293C26.4655 75.7717 28.4056 74.9891 27.895 75.9264C28.0399 75.7851 28.1396 75.513 28.5211 75.4836L28.683 75.9313C29.1885 75.6944 29.7625 75.4727 29.9758 75.6977C29.7124 75.8715 29.6619 76.0955 29.6133 76.3189C31.0653 76.0497 30.717 75.4669 30.7922 74.9542C31.2841 74.7574 31.8292 74.588 32.0214 74.8204C31.7587 74.9764 31.6999 75.1954 31.6427 75.4144C32.862 75.2674 32.8014 74.8013 32.8214 74.3525L32.824 74.3536C32.9379 74.0749 33.1573 73.8997 33.4371 73.7809L33.5184 74.0965C33.6259 73.6635 34.2575 73.8016 34.5355 73.9201L34.5727 73.5382L34.8408 73.6735C34.8706 73.6079 34.9079 73.5498 34.9489 73.4961C35.0049 73.4899 35.0609 73.4841 35.1168 73.4776C35.3981 73.5497 35.6113 73.6499 35.7935 73.9119L35.612 73.4722C35.8802 73.7023 37.4785 72.8561 37.1257 73.8049C37.2371 73.6591 37.298 73.3857 37.6241 73.3457L37.8045 73.7846C38.2187 73.5343 38.6932 73.2976 38.897 73.5145C38.6859 73.6948 38.6626 73.9185 38.6407 74.1415C39.921 73.8182 39.481 73.2134 39.5401 72.6859C39.5472 72.6861 39.5541 72.6868 39.5613 72.6873C39.8739 72.7605 40.2299 72.819 40.6162 72.7476C41.6117 72.8097 42.677 72.9344 43.1884 73.4303C43.7847 72.9159 43.0937 73.3507 43.0219 72.9835C43.1626 72.892 43.2897 72.8226 43.4073 72.7678C44.0378 72.9043 44.6062 73.1102 44.9238 73.466C45.5255 72.9965 44.8358 73.3803 44.7831 73.0105C44.8419 72.9763 44.8963 72.9487 44.9507 72.9213C45.0478 72.9572 45.1503 72.9874 45.2648 73.0037C45.626 72.8051 45.4956 72.7881 45.2962 72.7779C46.0804 72.5306 46.3392 73.0521 46.9551 73.1876C47.7149 72.8232 46.309 73.1125 46.6761 72.6913C47.9699 72.8404 47.5684 71.9537 49.1422 72.0076C49.3411 72.2435 48.7846 72.2551 48.6595 72.4541C49.6395 71.8001 51.6831 71.7599 53.2523 71.3939C55.1298 71.4162 57.8349 71.0867 60.0362 71.1379L60.0436 70.9627C61.008 71.2446 61.8861 70.6716 62.954 70.686L62.4033 70.5273C62.519 70.45 62.6263 70.3962 62.7303 70.3506C62.8206 70.371 62.9104 70.3441 62.9993 70.2527C63.151 70.2107 63.2986 70.1842 63.45 70.1567C63.6207 70.4614 63.7859 70.6897 63.9204 70.4628L63.8192 70.0755C63.8921 70.0549 63.9676 70.0308 64.0463 70.0005L64.495 70.4241C64.583 70.3867 64.6506 70.3509 64.7044 70.3163C64.9455 70.3999 65.0462 70.102 65.1065 69.6743C65.1264 69.6566 65.1478 69.6385 65.1728 69.6194C65.657 69.7584 66.4285 69.5429 66.9491 69.392C66.9624 69.4058 66.9727 69.4228 66.9875 69.4348C66.9863 69.416 66.9895 69.3993 66.989 69.3807C67.1892 69.3224 67.3493 69.276 67.4332 69.2676C67.6833 69.4555 67.2355 69.6233 67.1613 69.7775C67.447 69.6646 67.607 69.5315 67.7461 69.3995C67.8625 69.5458 67.9693 69.6841 68.0482 69.6796C67.9977 69.4876 67.9679 69.3369 67.9501 69.2094C68.1252 69.055 68.3409 68.9162 68.7936 68.8335L68.8355 68.9623C68.9582 68.9018 69.0916 68.8512 69.2187 68.7949C69.2069 68.9087 69.1858 69.0328 69.1428 69.1808C69.203 68.9083 69.4673 68.8658 69.5607 68.6456C69.9194 68.5003 70.2884 68.3643 70.6729 68.2422C70.6983 68.293 70.7234 68.3507 70.7482 68.4229C70.7606 68.3464 70.7594 68.2809 70.7536 68.2185C70.9772 68.1483 71.2059 68.0828 71.4354 68.0181L75.2849 67.4619C75.1571 67.3996 75.027 67.264 74.8948 67.1233C75.377 66.9941 75.8499 66.8533 76.313 66.7005C76.3346 66.7333 76.3551 66.7656 76.3794 66.7991L77.0961 66.5926L77.0654 66.8066C77.1251 66.7846 77.1404 66.6945 77.1461 66.5795L79.562 65.876C79.6216 65.7818 79.6496 65.6866 79.6591 65.5897C80.0313 65.4896 80.4004 65.3843 80.7635 65.2718C80.8644 65.579 80.9896 65.7537 81.1642 65.6178L81.0786 65.1704C81.7153 64.9631 82.3284 64.7309 82.8974 64.4621L82.9539 64.9696C83.0549 64.8241 83.101 64.602 83.113 64.3562C83.3157 64.2549 83.5144 64.1504 83.704 64.0381C83.8545 64.0525 84.0038 64.0709 84.1491 64.1016L84.1154 63.9328C84.5513 64.2605 84.7769 63.769 85.198 63.8503L84.9494 63.6612C84.9545 63.6492 84.9599 63.6418 84.9656 63.6307L85.5696 63.3992L85.7475 63.6966C85.8631 63.5652 85.843 63.4398 85.8265 63.3007L86.1604 63.1727C86.2158 63.2346 86.2956 63.2874 86.3817 63.3114C86.3866 63.1587 86.655 62.945 86.5417 62.8424C86.5963 62.8084 86.6402 62.7824 86.6673 62.7805C86.803 62.98 86.6603 63.1105 86.6621 63.255C86.9055 63.0123 86.758 62.5624 87.1157 62.4549L87.1574 62.5831C87.8289 61.6645 88.9711 61.5441 89.8188 60.8611C89.747 60.8535 89.7369 60.7487 89.6863 60.6594C90.6583 60.2168 91.8258 59.8931 92.3518 58.5556C91.8906 58.7845 90.9534 58.4095 90.5026 59.0012C90.4923 58.9948 90.4821 58.988 90.4722 58.9811L90.4281 59.1152C90.3988 59.1683 90.3724 59.2263 90.3497 59.2922C90.0523 59.0055 89.8599 59.5815 89.6463 59.1214C88.9948 59.1255 88.7783 59.663 88.3798 60.0219C88.378 59.9853 88.36 59.9515 88.3147 59.9223C88.0369 59.9024 88.0114 60.0701 88.0777 60.2199C88.0273 60.2444 87.9796 60.272 87.9224 60.2891C87.7886 60.233 87.7784 59.9833 87.6848 59.7668L88.235 59.3716L87.8102 59.2824C87.9136 59.0242 88.3499 59.0738 88.2796 58.6323C88.0572 58.9984 87.6597 59.1113 87.2985 59.2654C87.3409 59.0065 86.9867 58.7758 87.0552 58.5283L86.2712 59.3748L86.8749 58.9033C87.3215 58.9544 87.3098 59.1368 87.1638 59.3244C86.9319 59.4375 86.7285 59.5854 86.617 59.8578C86.8661 59.9056 87.1045 59.7031 87.3745 59.6697C87.5298 59.7907 87.737 59.854 87.7883 60.0885C87.23 60.9576 86.5289 60.799 85.8305 61.2255C85.6671 61.3255 85.4275 61.354 85.3188 61.1823C85.9147 60.972 86.466 60.691 86.9342 60.2936C86.055 60.4348 84.5981 59.9649 83.5678 60.3775C83.5312 60.3293 83.4973 60.2864 83.4688 60.2576C83.4757 60.2929 83.4936 60.3432 83.5134 60.3991C83.3789 60.4578 83.2535 60.5345 83.1375 60.6285C83.1347 60.612 83.1364 60.597 83.1323 60.5794C83.0874 60.5981 83.0466 60.6168 83.0058 60.6295C83.1229 60.538 83.2372 60.4448 83.346 60.3481C83.0896 60.4391 82.7938 60.512 82.4758 60.5778C82.4371 60.3746 82.3945 60.1547 82.2914 59.9744C83.0118 59.6 83.6715 59.1726 84.2021 58.6482C83.7496 58.8094 83.1563 58.893 82.5286 58.9845C83.0333 58.3422 83.7725 57.4285 84.1401 56.26C84.3317 56.7515 84.4869 56.7095 84.6509 56.5758L84.1365 57.2072L84.6591 56.7521C85.4102 56.8656 84.743 57.4022 84.5209 57.5819C85.5217 57.155 84.8076 56.8046 84.8028 56.4424C84.9421 56.3217 85.0956 56.2254 85.2882 56.3827C85.3778 56.6094 85.5493 56.8757 85.5228 57.3361L85.4026 57.3821C86.0208 57.5527 86.6061 56.764 87.0299 55.8959L87.4273 56.9297C88.3756 57.2484 87.0511 55.24 87.9398 54.8653C88.2985 55.9771 89.1385 55.3012 89.2859 56.2241C89.4462 56.1055 89.5293 56.1406 89.4689 55.4446C89.3035 55.3733 88.9836 55.6135 89.0849 54.7989C89.3615 54.4437 89.5811 55.0196 89.8243 54.9364C89.8297 55.1298 89.7217 55.7499 89.8007 55.593C90.3601 55.0778 91.5021 55.0094 91.8692 53.0692C91.6684 53.2687 91.7249 53.9636 91.3888 53.6247C91.3363 53.1226 91.502 53.1938 91.5364 52.9254C91.3929 51.9992 91.3065 53.5899 90.9218 52.937L91.3062 51.7689L90.9178 50.9321L91.8084 48.3588C90.7632 47.804 90.7204 51.3224 89.7871 50.1482C89.8782 49.8487 89.7267 49.6106 89.6691 49.3828C89.4712 49.863 89.1704 49.8863 89.0882 50.5115L88.6856 50.5232C88.6305 50.0211 88.6401 48.782 89.0525 48.7723C88.162 48.7938 87.5198 49.7918 86.7971 50.3786C86.7026 50.3425 86.5604 50.6482 86.2859 50.5715L86.6804 50.1723L86.3607 50.0331L87.2636 49.1452C86.343 49.2253 86.1672 50.1811 85.369 50.0711C85.4633 49.9702 85.3363 49.9395 85.2932 49.8909C85.0954 50.0635 84.8225 50.1362 84.7227 50.3228L84.3583 50.4148C84.3293 50.291 84.3891 49.955 84.7615 49.8619C84.4138 49.9491 84.1008 50.0764 83.8015 50.2178C83.6391 50.1432 83.4937 50.1588 83.3687 50.4126C83.2648 49.798 83.6847 49.9765 83.5949 49.7502C83.3224 49.6019 83.1271 49.7309 82.958 49.9651C82.4443 48.3585 83.0416 49.5816 82.9494 49.0296L82.9736 48.8333L83.0007 48.8207C83.0635 49.0143 83.1267 49.2586 83.1866 49.6209C83.1202 49.2618 83.2756 49.3482 83.0977 48.7848L83.3625 48.6774C83.3924 48.7469 83.4273 48.8341 83.471 48.9592C83.4479 48.8455 83.4224 48.7537 83.3946 48.6646L84.5455 48.1893C84.4454 48.0691 84.2739 47.6822 84.1555 47.5057C83.9715 46.6611 83.9659 46.9154 83.8722 46.7496L84.0577 46.6854C84.0943 46.9058 84.1611 47.1884 84.3068 47.608L84.2724 47.1151L84.376 47.4908L84.4663 47.3298C84.347 46.9859 84.2833 46.8187 84.2182 46.6297L84.3172 46.595C84.405 46.8597 84.5097 47.1905 84.6921 47.5783L84.8447 47.3977L84.8902 47.6034C84.9016 47.5837 84.8833 47.4974 84.8559 47.3866L85.3667 46.7717C85.3418 46.4722 85.2229 46.1575 85.0843 45.781L85.2654 45.6168L85.2989 45.8246C85.3152 45.805 85.3016 45.7174 85.2796 45.6052L85.3297 45.5593C85.5377 46.1983 85.731 46.7558 85.7536 46.5499L85.4084 45.4873L85.4415 45.4568L85.4888 45.5043C85.4768 45.487 85.4648 45.4647 85.4529 45.4467L85.8299 45.1006L86.0905 45.9551C86.0767 45.7565 85.9923 45.4093 85.8864 45.0487L85.9486 44.9917L85.977 45.1227L86.1212 44.9618L85.8491 44.0418C85.9006 44.2568 85.9713 44.6664 85.8843 44.4853C85.8557 44.3773 85.8206 44.2641 85.7818 44.1458L85.6844 43.7811L85.7276 43.9792C85.6142 43.6362 85.4874 43.2427 85.4163 42.7576C85.2593 42.8014 84.8634 42.2201 85.1015 43.2952C85.0572 43.1098 84.9999 42.8932 84.9469 42.7865L85.1377 43.9237L85.3214 44.2546C85.4472 45.0084 85.3229 45.1849 85.1563 45.0223C85.0758 44.773 84.9994 44.5407 84.9378 44.368L85.0722 44.9161C85.0128 44.8249 84.9526 44.7007 84.8993 44.5481C84.9794 44.1242 84.5443 42.8134 84.9809 43.475C84.8812 43.135 84.6795 42.5438 84.6873 42.3422C84.4974 42.8104 84.0754 42.2619 84.0738 43.4942C84.3822 44.105 84.3557 44.3274 84.3723 44.6903C84.3602 44.6596 84.3474 44.6249 84.3362 44.6024L84.3775 44.7826C84.3935 45.0216 84.4372 45.3295 84.5966 45.831L84.598 45.7337L84.7739 46.0529C84.806 46.1921 84.8285 46.3116 84.8434 46.4127L84.8263 46.4183C84.8333 46.4263 84.8399 46.4309 84.8463 46.4366C84.9306 47.0381 84.7264 46.95 84.5275 46.522L84.8263 46.4183C84.7178 46.2967 84.55 45.9068 84.4243 45.7294C84.3587 45.3258 84.3171 45.1729 84.2814 45.104C84.307 45.1137 84.3518 45.1661 84.4254 45.2818C84.328 44.99 84.1517 44.5115 84.0995 44.2603C84.1168 44.2928 84.1346 44.329 84.1532 44.3711C84.1347 44.2901 84.1125 44.2133 84.0917 44.1354C84.096 44.1205 84.1009 44.1064 84.1042 44.0879C84.0939 44.0889 84.0886 44.0991 84.0862 44.1139C83.9608 43.6496 83.8032 43.2131 83.6607 42.6417C83.2902 41.9797 83.9679 44.6894 83.6805 44.3252C83.5105 43.6466 83.4115 43.0405 83.3171 43.1627L83.3091 43.0096C83.3146 43.5081 83.104 42.8213 83.0289 42.6692C83.0354 42.5501 83.0209 42.3655 82.9882 42.13C82.9757 41.9721 82.9572 41.7574 82.93 41.4946C83.1032 41.9616 82.8617 40.9648 82.9721 41.0877C83.0549 41.5032 83.1751 42.2171 83.2176 42.3287C82.8793 40.7939 83.8656 43.1151 83.5871 42.0363C83.5086 41.6666 83.4455 41.325 83.386 40.9891C83.5718 41.1222 83.6221 40.6886 83.5204 39.8192C83.5026 40.0453 83.4601 39.8855 83.4047 39.6299C83.4456 39.602 83.4831 39.5594 83.5594 39.6418C83.5634 39.6535 83.5661 39.6598 83.5696 39.6695L83.6781 40.0909C83.7213 40.1589 83.7462 40.155 83.766 40.1274C83.7881 40.3054 83.808 40.4454 83.8241 40.4899C83.795 40.3064 83.784 40.1813 83.7849 40.0941C83.81 40.0336 83.8308 39.9464 83.8831 39.9585C83.9005 39.9708 83.92 39.9889 83.9406 40.0117L84.2114 40.8132C84.2055 40.6528 84.237 40.5373 84.2846 40.4641C84.3264 40.5031 84.3502 40.4925 84.3465 40.4022C84.3623 40.393 84.3781 40.3817 84.3957 40.3802C84.3636 40.276 84.336 40.2031 84.3099 40.1415C84.2917 40.0138 84.2779 39.8941 84.2626 39.7713C84.298 39.8937 84.3417 40.0319 84.3965 40.1922C84.3667 39.586 84.325 38.7147 84.1102 37.5894C84.3532 38.2202 84.328 37.948 84.3379 37.7615C84.3758 37.7534 84.409 37.7247 84.4469 37.7131C84.4486 37.7159 84.4499 37.717 84.452 37.7199C84.537 37.9394 84.6547 38.197 84.7715 38.6399L84.7513 38.6828C84.8881 38.7918 84.9142 38.5203 84.884 38.0942C84.9142 38.0695 84.9501 38.0652 84.9993 38.115L85.2406 38.9435C85.2618 38.674 85.3902 38.5113 85.5257 38.5032C85.4027 38.0129 85.3062 38.1356 85.2119 37.5294C85.1434 37.5318 85.1157 37.6506 85.2734 38.1734C85.2615 38.1745 85.2446 38.1447 85.2255 38.1035C85.1571 37.8421 84.9797 37.3699 84.8586 36.9636L84.9113 36.6666C84.9914 36.8307 85.0535 36.9117 85.1076 36.9654C85.1217 37.0515 85.1358 37.1113 85.1596 37.1106L85.131 36.9882C85.2051 37.0556 85.2687 37.0923 85.3521 37.2638C85.3548 37.4865 85.3967 37.7875 85.551 38.3119C85.592 37.6956 85.656 36.8111 85.5405 35.6688C85.89 36.6854 85.7003 35.394 85.9559 35.8022C86.0326 36.0249 86.1454 36.2871 86.2311 36.7369L86.1995 36.7804C86.4444 36.9548 86.4814 36.1907 86.4477 35.3465L86.7944 36.3621C87.1816 36.6841 86.3208 34.7069 86.5455 34.3483C86.8945 35.4379 87.0402 34.7808 87.2788 35.6843C87.3088 35.5694 87.344 35.6039 87.1809 34.9223C87.1105 34.8521 87.0517 35.0853 86.919 34.2889C86.9402 33.9427 87.1321 34.5072 87.1973 34.4268C87.2388 34.6162 87.3289 35.2225 87.3234 35.0694C87.4074 34.5678 87.7794 34.5067 87.5073 32.6094C87.4804 32.804 87.6414 33.484 87.4584 33.1508C87.3381 32.659 87.4086 32.7296 87.3655 32.4671C87.1281 31.5597 87.4235 33.1163 87.16 32.4758L87.0516 31.3341L86.7491 30.5132L86.5256 27.999C86.058 27.4514 86.7618 30.8941 86.2057 29.7412C86.1756 29.4484 86.0756 29.215 86.0095 28.9912C86.0404 29.4602 85.9435 29.482 86.043 30.0935L85.9095 30.1031C85.7879 29.6113 85.5376 28.3988 85.6755 28.3912C85.1928 28.4215 85.4592 30.9716 84.7765 30.2066C84.6988 29.9813 84.7643 29.8994 84.6903 29.7523C84.7017 30.059 84.6813 30.4071 84.7614 30.706C84.7195 30.5174 84.6366 30.1398 84.6687 30.0972C84.5524 30.6418 84.0483 29.1797 84.0777 29.9444C83.9164 29.3423 84.096 29.5216 84.0188 29.2993C83.8051 29.0419 83.8393 29.5949 83.8537 30.1017C83.8533 30.124 83.8542 30.1489 83.8556 30.1768C83.8634 30.4986 83.8575 30.7838 83.7668 30.8038C83.6749 30.2228 83.5828 30.0332 83.4747 29.827C83.439 29.6018 83.6585 30.0398 83.5092 29.4801L83.5648 29.666L83.5055 29.2894C83.4719 29.3554 83.3557 29.3328 83.4702 29.8187C83.4179 29.7188 83.3621 29.6146 83.3002 29.459C83.2981 30.2636 82.9305 30.5516 82.787 31.2145C82.3173 29.064 82.4434 31.2362 81.954 29.4336C81.8846 29.4363 81.8645 29.7818 82.0325 30.4613C81.9825 30.1183 82.213 30.6438 82.2967 31.0185C82.2663 31.0949 82.2186 31.1558 82.2032 31.3003C82.0891 31.1696 82.0928 31.3723 82.1285 31.6703C82.1278 31.6701 82.1269 31.6704 82.1259 31.6703L81.9637 31.2704C81.9956 31.4004 82.0273 31.5355 82.0585 31.6696C82.0471 31.6702 82.0353 31.6667 82.0237 31.669C81.5954 31.2297 82.2297 31.471 81.6949 30.952C81.6387 30.9215 81.5727 30.8914 81.5115 30.8615C81.4442 30.4775 81.3959 30.1015 81.3869 29.8935L81.2781 29.6939C81.2702 29.4924 81.2543 29.2636 81.2255 28.9948C81.1977 29.137 81.2646 29.5363 81.2332 29.6126L81.1242 29.4123C81.0562 29.0572 81.111 29.0884 81.0804 28.8498C80.8662 27.937 81.113 29.502 80.8594 28.8557L80.7946 27.7094L80.5065 26.8825L80.3896 24.3563C79.9032 23.8028 80.502 27.2648 79.9534 26.1018C79.9339 25.8079 79.8365 25.5723 79.7747 25.3477C79.7865 25.8184 79.6794 25.8393 79.7607 26.4532L79.6144 26.4617C79.5043 25.9672 79.2865 24.7491 79.4381 24.7428C78.9037 24.7678 79.0891 27.3273 78.3799 26.5616C78.304 26.3358 78.3786 26.2532 78.3035 26.1054C78.304 26.3263 78.2876 26.5683 78.3052 26.798C78.3011 26.797 78.2977 26.7961 78.2933 26.7952C78.2651 26.6351 78.2441 26.4788 78.2667 26.4522C78.1996 26.7036 78.0584 26.5293 77.926 26.342C77.9335 26.2579 77.9417 26.1726 77.95 26.0852C78.1385 26.1719 78.4201 26.6039 78.0397 25.1355C78.0527 24.9976 78.0662 24.8579 78.0795 24.7175C78.0881 24.776 78.0988 24.841 78.1145 24.9199C78.1076 24.8401 78.0946 24.7559 78.0837 24.6732L78.0845 24.667C78.5699 24.3227 79.1345 24.1544 79.7205 24.0232C79.7235 24.0776 79.7289 24.1369 79.739 24.2071C79.6987 23.8607 79.8771 24.2217 79.8853 23.9872C80.4755 23.8608 81.0776 23.7526 81.6309 23.5145C81.5452 23.4936 81.5564 23.3895 81.5151 23.2927C81.9205 23.2127 82.3473 23.1482 82.7709 23.0598C82.7979 23.1604 82.9027 23.2674 83.0255 23.3194C83.0465 23.1932 83.2668 23.0525 83.2714 22.9406C84.008 22.7393 84.7055 22.4134 85.2315 21.7414C84.5374 21.8935 83.2738 21.1713 82.6304 22.0802C82.3332 21.7444 81.9693 22.2704 81.8139 21.7813C80.7677 21.6292 80.4342 22.5237 79.4544 22.6073C79.3049 22.5282 79.3484 22.2821 79.2842 22.0532L80.0416 21.7658L79.5455 21.6017C79.7295 21.3668 80.2485 21.4961 80.2629 21.0513C79.7639 21.499 78.955 21.3933 78.3746 21.652C78.3924 21.4616 78.4089 21.2815 78.4244 21.1101C78.4272 21.1097 78.4303 21.1092 78.4326 21.1086C78.7238 21.1052 79.015 21.0904 79.3063 21.0697C79.2625 21.1571 79.1817 21.2367 79.1665 21.3175C79.2877 21.244 79.3631 21.1552 79.4238 21.0636C81.4044 20.9067 83.3791 20.3776 85.1467 19.8095C85.2551 19.7967 85.3721 19.7258 85.4935 19.6292C86.1033 19.5079 86.7013 19.3724 87.2793 19.2338C87.6116 19.224 88.0654 18.6364 88.4839 18.3881C87.97 18.2352 87.9233 18.5065 87.4192 18.4881C87.1559 18.3801 87.0028 18.0743 86.8232 17.7766C87.7253 17.4412 88.565 16.9913 89.1673 16.2447C88.2839 16.5231 86.5946 16.031 85.8416 17.0637C85.4309 16.782 85.0049 17.3777 84.7643 16.916C84.6939 16.9186 84.6365 16.9326 84.5715 16.9398C84.5592 16.9021 84.5465 16.8644 84.5359 16.8213L84.5482 16.9425C84.3169 16.9694 84.1074 17.0167 83.9252 17.0899C83.8506 17.0718 83.7834 17.047 83.7309 17.0098C84.22 16.6892 84.6527 16.2713 84.9345 15.6406C84.3482 15.9307 83.1142 15.4813 82.6826 16.453C82.6195 16.4293 82.568 16.3851 82.5384 16.3067C82.6604 16.2185 82.7143 16.0732 82.7531 15.9158C82.7915 15.9083 82.8328 15.9036 82.8807 15.9056L82.6979 15.5328L82.1735 15.9155C82.1941 15.9337 82.2108 15.9433 82.2291 15.9568C82.1112 16.0987 82.0859 16.3067 82.0713 16.5221C82.0058 16.5156 81.9426 16.4731 81.8803 16.3473C81.0848 16.3776 80.8412 17.0256 80.2954 17.3964C80.1364 17.4234 80.0006 17.3969 79.9354 17.2538C80.0897 17.1354 80.1294 16.9359 80.1646 16.7338L80.2858 16.6543L79.812 16.5783C79.9385 16.3153 80.4258 16.3488 80.3629 15.9049C79.8928 16.5846 78.8155 16.4454 78.4478 17.1956C78.5835 17.2155 78.7189 17.1746 78.8575 17.1233L78.6416 17.3332L79.0168 17.064C79.1115 17.0291 79.2074 16.9963 79.3069 16.9827C79.3679 17.0251 79.4358 17.061 79.5016 17.0989C79.4756 17.1847 79.4637 17.2787 79.4582 17.3764C79.172 17.3385 78.8978 17.3441 78.689 17.5326C78.4331 17.6292 78.0353 17.0325 77.5385 17.1263L77.5939 17.4799C77.5901 17.4791 77.589 17.4773 77.5847 17.4767C77.5516 17.4835 77.5303 17.4924 77.5016 17.5C77.3988 17.4247 77.2679 17.3544 77.1189 17.2833L77.095 17.2133L77.0493 17.2507C76.778 17.125 76.4595 16.994 76.1531 16.8278L76.1574 16.8246L76.1527 16.8276C75.7356 16.601 75.3434 16.3083 75.135 15.8687C74.7896 16.2597 75.1861 15.9639 75.2163 16.3356C74.5219 16.8788 74.3914 16.1465 73.9662 15.8994C73.5318 16.1675 74.3392 16.0509 74.131 16.4224C73.7788 16.2792 73.647 16.4096 73.5107 16.5631C73.4062 16.4621 73.3285 16.3563 73.4536 16.1754C72.8765 16.0963 72.3216 16.4811 71.8573 16.8237C71.4943 16.8602 71.1052 16.8707 70.7394 16.9189C70.6684 16.6695 70.5966 16.4172 70.5242 16.1601C70.4281 16.1838 70.3309 16.2045 70.2346 16.2278C70.3606 16.5508 70.3763 16.7888 70.4023 16.9792C70.3942 16.981 70.3854 16.9816 70.3769 16.9835C70.3089 16.971 70.2342 16.9613 70.1628 16.9503C70.1251 16.7426 70.0812 16.5179 70.0412 16.2733C69.6909 16.3579 69.3392 16.4363 68.9885 16.5196C68.9839 16.6054 68.9825 16.7086 68.9845 16.8287L68.9653 16.8275L68.9048 16.5392C68.8563 16.5508 68.8077 16.5617 68.7592 16.5733C68.7274 16.6373 68.6757 16.6441 68.6113 16.608C68.5309 16.627 68.4501 16.6455 68.3697 16.6646C68.3603 16.7573 68.3256 16.7535 68.2778 16.686C68.1621 16.7131 68.0463 16.7399 67.9307 16.7674C67.4303 16.7367 66.9297 16.6919 66.4632 16.6023L66.4696 16.7742C66.3112 16.6741 66.1614 16.6421 66.0141 16.642C65.9942 16.5872 65.9792 16.5311 65.9785 16.4733C65.9841 16.5432 65.985 16.5971 65.9844 16.6436C65.6027 16.6553 65.2369 16.8845 64.7956 16.8136L65.1279 17.0131C64.7986 17.3697 64.55 17.2199 64.2117 17.4046L63.9173 16.9521C63.5558 17.178 63.8222 17.3895 63.5882 17.6944C63.2857 17.5191 62.8384 17.6959 62.5495 17.8093C62.4537 17.7993 62.3586 17.8029 62.2632 17.815C62.2026 17.6523 62.3929 17.5331 62.4184 17.4046C62.2129 17.5258 62.1369 17.695 62.0489 17.8505C61.7777 17.9055 61.4987 17.9802 61.191 17.9205L61.4939 18.112C61.3829 18.1994 61.2646 18.2767 61.1455 18.3521C60.952 18.4004 60.7687 18.3795 60.5423 18.4836L60.2579 18.0185C59.8635 18.2267 60.1322 18.4528 59.866 18.7427C59.4414 18.4774 58.6819 18.8595 58.4981 18.8585C58.3403 18.6472 58.6089 18.5275 58.6499 18.3829C58.185 18.6065 58.2876 19.0694 57.6822 19.1475L57.6527 19.0157C56.3076 19.8895 54.4482 19.9394 52.9118 20.5951C53.0247 20.6065 53.0134 20.7125 53.0708 20.8049C51.4382 21.2007 49.5333 21.5014 48.3867 22.7898C48.1516 22.8192 47.9161 22.8473 47.6798 22.882C47.5424 22.9011 47.4071 22.9254 47.2703 22.9465C47.2429 22.9135 47.213 22.8847 47.1822 22.8665C47.183 22.897 47.1761 22.9296 47.167 22.9625C46.8074 23.0185 46.4519 23.0795 46.0998 23.1455C46.1754 23.0319 46.2811 22.9329 46.3407 22.8784C46.1307 22.9559 46.0344 23.0545 45.9995 23.1643C43.7058 23.601 41.608 24.224 40.1739 24.7871C39.5402 24.7257 38.7812 25.0228 38.1794 25.149C38.5336 25.1386 38.472 25.333 38.2165 25.4046C36.456 25.9743 38.1395 25.5904 36.4146 26.3011C36.1074 26.4453 35.6572 26.6331 35.1132 26.8517C35.2879 26.7151 35.1925 26.6038 35.1121 26.4794C35.3085 26.2768 35.627 26.2526 35.8195 26.0653L35.0823 26.4304C35.0503 26.3707 35.0308 26.3074 35.054 26.2354C35.0341 26.3415 35.0068 26.4209 34.9771 26.4823L34.8948 26.5231L34.9499 26.5313C34.7598 26.8389 34.5001 26.5114 34.9751 26.9064C34.7064 27.0138 34.4182 27.1271 34.1129 27.246L34.4464 26.6956C33.9174 26.8568 33.1765 27.2239 33.3353 26.7146C32.5428 27.4878 30.8514 27.7214 29.7679 28.3381L29.7379 27.9215C29.266 28.5635 27.5178 28.5004 27.1523 29.2179L27.0199 29.0811L25.9677 29.9426C25.413 30.0449 25.4334 29.3991 25.4348 29.5766C24.2741 30.0113 23.3506 30.304 22.5292 30.3155C22.4849 30.8992 21.2741 31.3923 20.2999 31.7431C17.8619 32.2648 15.3961 33.038 13.0163 33.9398C11.2165 34.6186 9.44069 35.3869 7.82613 36.2837C7.71948 36.0793 7.63997 35.9666 7.64602 36.1421L7.72146 36.3436C7.63441 36.3927 7.5495 36.4427 7.46382 36.4922C7.45258 36.4348 7.44462 36.38 7.44399 36.331C7.30409 36.1602 7.29268 36.2944 7.33732 36.565C7.03585 36.7412 6.73968 36.9217 6.45182 37.1081C6.37713 36.9835 6.31062 36.8751 6.28443 36.8789C6.32353 36.9795 6.35652 37.0679 6.38626 37.149C6.3669 37.1616 6.34587 37.174 6.32652 37.1866C6.22184 37.2405 6.11848 37.3184 6.01563 37.4053C6.01297 37.3894 6.00973 37.3761 6.00689 37.3596C6.01056 37.378 6.01084 37.391 6.0133 37.4074C5.61858 37.7422 5.23804 38.2795 4.86327 38.7688L4.19537 39.0772C4.32081 39.1833 4.52941 39.5531 4.6768 39.7148C4.80329 40.2215 4.85868 40.3255 4.90837 40.3628C4.85748 40.3891 4.8059 40.4153 4.75566 40.4429C4.71065 40.2379 4.63322 39.9835 4.48426 39.6356L4.51316 40.1402L4.39178 39.7696L4.2706 39.9531C4.39607 40.2469 4.47055 40.4065 4.53951 40.5659C4.49887 40.5899 4.4612 40.6166 4.42103 40.6411C4.32006 40.391 4.19794 40.0846 3.98744 39.7376L3.78517 39.953L3.73263 39.7486C3.7175 39.771 3.73861 39.8569 3.77092 39.9667L3.09507 40.6984C3.09586 40.7109 3.09991 40.7236 3.10139 40.7363L2.95522 40.7213L2.84515 40.8399C2.84515 40.8399 2.92512 41.2435 3.07766 41.8642C2.84017 41.279 2.62545 40.7955 2.59285 41.0037L3.04617 42.1315L3.16391 42.2088C3.33705 42.8813 3.57793 43.73 3.88388 44.5946C4.08087 45.1518 4.30529 45.7132 4.55376 46.2379C4.66893 46.6271 4.79782 47.0041 4.94265 47.3546C4.90682 47.436 4.86797 47.5252 4.76772 47.4474L4.43398 46.6536C4.44112 46.9264 4.32967 47.108 4.19311 47.1361C4.37265 47.6077 4.45582 47.4712 4.61903 48.0636C4.68716 48.0514 4.70227 47.9285 4.48472 47.4285C4.55196 47.413 4.84532 48.172 5.04001 48.5258L5.00083 49.1575C4.96017 49.1097 4.92789 49.0466 4.89939 48.9761L5.2168 49.856C5.15025 49.8717 5.04742 49.6588 4.92054 49.2964C4.91685 49.4678 4.99139 49.7891 5.05632 50.0803C5.00846 50.0918 4.95989 50.1041 4.91132 50.1164C4.78065 49.6574 4.71576 49.3651 4.78572 49.3226L4.62362 49.394C4.38046 48.5427 4.74358 48.6264 4.18859 47.3307C4.21593 47.9514 4.2553 48.8463 4.51164 49.9703C4.03966 49.0095 4.3879 50.2697 4.08474 49.9019C3.98035 49.6915 3.83515 49.4472 3.69379 49.0116L3.71959 48.9634C3.45326 48.8286 3.5119 49.5971 3.65693 50.4323L3.1798 49.475C2.90258 49.3067 3.27382 50.0195 3.52199 50.6481C3.43257 50.7004 3.34505 50.7549 3.26178 50.8158C3.10968 50.713 3.00362 50.7414 2.79087 50.233C2.77942 50.3337 2.75193 50.335 2.89334 50.7158L2.37033 50.5349L2.29745 50.6297C2.29745 50.6297 2.54801 51.7584 2.96838 53.1779C2.98298 53.2288 2.99571 53.2763 3.0117 53.33C3.01159 53.3272 3.01044 53.3229 3.01024 53.3197C3.11083 53.6545 3.22026 54.0032 3.33765 54.3564C3.68408 55.3972 4.10034 56.4691 4.55591 57.3077L4.66281 57.7402C4.74326 57.8134 4.78243 57.7958 4.79403 57.7185C4.92576 57.9293 5.06002 58.116 5.19649 58.2764L5.22817 58.4377C5.24043 58.4153 5.26236 58.3991 5.28294 58.3756C5.44482 58.5507 5.60943 58.6859 5.77578 58.769L5.83154 58.9747L6.07595 58.8448C6.41869 58.8166 6.47153 58.5299 6.5266 58.7354L6.09964 58.883C6.42804 58.8145 6.25444 59.0067 6.1804 59.1665C6.31585 59.1331 6.4492 59.1062 6.57432 59.125C6.60523 59.0241 6.49861 59.0611 6.43407 59.0378C6.57208 58.9004 6.73017 58.6204 6.96598 58.6293C7.2868 58.5193 7.10846 58.9412 7.48258 58.8127C8.9024 58.3601 10.3068 57.9658 11.7042 57.4916L11.7414 58.5615C12.0966 58.7902 12.0773 58.0359 12.0701 57.3649C12.2484 57.3023 12.4263 57.2313 12.6045 57.1652C12.6378 57.2404 12.6709 57.3139 12.6985 57.3857C12.6989 57.2799 12.7078 57.1969 12.7189 57.1225C12.8501 57.0732 12.9811 57.0268 13.1121 56.9754C13.1481 57.0573 13.1851 57.1404 13.223 57.2247C13.2577 57.4449 13.2751 57.6435 13.2605 57.7744C13.2516 57.7806 13.2422 57.7863 13.2333 57.7923C13.132 57.4658 13.1359 57.2151 13.0405 57.0763C13.0743 57.5191 12.5897 56.8208 12.9401 57.9553C12.8927 57.9804 12.854 58.0042 12.8297 58.0295C12.8098 57.9828 12.7893 57.9363 12.7698 57.891C12.786 57.95 12.8002 58.0045 12.813 58.0558C12.8041 58.0727 12.7999 58.0905 12.8063 58.1107C12.8137 58.1087 12.8189 58.1098 12.8258 58.1083C12.9956 58.8018 12.8573 58.7384 12.7205 58.652C12.7167 58.6202 12.7159 58.5932 12.7095 58.5574C12.7148 58.5963 12.7156 58.6243 12.714 58.6481C12.6155 58.5854 12.5215 58.519 12.5466 58.7213C12.5034 58.7275 12.4731 58.7671 12.4853 58.9109C12.4819 58.9186 12.4789 58.9264 12.4755 58.9341L12.4558 58.8545L12.4484 58.999C12.3473 59.2393 12.176 59.5631 11.7072 59.7697C10.4858 60.4537 9.24352 61.3491 8.03585 62.0772C7.98947 61.9567 8.20016 61.7309 8.41205 61.5048C8.24931 61.6025 8.024 61.788 7.8308 61.8055C8.23144 61.8106 7.40962 62.2567 7.68193 62.1915C7.0852 63.1993 5.77239 63.6246 5.21345 64.4508C5.29455 64.6734 5.99838 66.6166 6.70539 68.5681C6.7336 68.6447 6.7622 68.7216 6.79071 68.7981C6.76568 68.7836 6.74447 68.7642 6.73247 68.7313C6.65114 68.7803 6.60867 68.7807 6.64267 68.953C6.72761 68.9522 6.89008 68.8535 6.84216 69.0749C6.70282 69.1978 6.58759 69.0749 6.4638 69.1243C6.46021 69.0751 6.51212 68.9031 6.47255 68.9526C6.18948 69.1498 5.60588 69.2984 5.43233 69.8385C5.5332 69.7644 5.49989 69.5923 5.67334 69.6409Z" fill="black"/>
</g>
<path fill-rule="evenodd" clip-rule="evenodd" d="M54.1753 27.3218C54.2589 27.6831 54.5981 28.1569 54.9039 28.3353C62.6023 32.8368 69.5282 40.5823 73.4324 49.0571C77.7945 58.5234 78.1691 68.1086 74.4866 76.0458C74.3126 76.4233 74.0689 76.7153 73.7597 76.9151C73.3669 77.1694 72.9251 77.2197 72.7124 77.2429C72.6559 77.255 72.6059 77.2706 72.5566 77.286C72.5368 77.2922 72.5171 77.2984 72.4971 77.3043C63.6806 79.8725 54.669 81.2308 46.4335 81.2308H46.4326C44.8761 81.2308 43.3249 81.182 41.8221 81.0874C29.0468 80.2797 21.0237 76.3481 17.2943 69.0673C17.1961 68.8761 17.126 68.6764 17.0841 68.474C17.0402 68.2546 17.0268 67.9914 17.0173 67.7986L17.0083 67.6458C16.999 67.5348 16.9963 67.4203 17.0066 67.2966C18.1424 52.6342 25.1404 39.5606 36.7194 30.463C36.7036 30.3102 36.6773 30.0882 36.6471 29.8423C36.4999 28.6648 36.4233 27.6934 36.4082 26.8003C36.3061 26.7063 36.1278 26.5568 35.9074 26.3943C32.6458 23.9944 28.9499 23.6956 25.1429 25.5217C25.0176 25.5824 24.8963 25.6268 24.7736 25.66C24.7436 25.6683 24.6996 25.6851 24.6456 25.7056L24.6253 25.7133L24.6184 25.7159C24.3721 25.8071 23.9667 25.9573 23.5484 25.9938C22.4752 26.0906 21.6489 25.4432 21.4822 24.3686C19.706 12.9127 25.4667 3.24422 35.8165 0.311207C35.895 0.289518 35.9706 0.272033 36.0447 0.258751L36.0993 0.234372C36.3103 0.151821 36.7009 0 37.1453 0C37.7029 0.00336258 38.2132 0.230841 38.6313 0.659066C44.3247 6.48592 48.2782 13.3732 50.3833 21.1313C50.4643 21.4267 50.5822 21.6394 50.646 21.7179C50.8261 21.7626 51.267 21.8886 51.6168 22.1324C51.8345 22.2855 52.0248 22.4785 52.1834 22.7079C53.1143 24.0512 53.7852 25.6041 54.1753 27.3218ZM40.1409 33.2896C40.0961 33.3439 40.0105 33.4249 39.9109 33.5031C29.0162 42.0005 22.4468 54.0239 21.4133 67.3578C21.4655 67.4723 21.5907 67.7128 21.7669 67.9946C25.4313 73.8292 33.2387 76.796 44.9719 76.8138H45.121C53.6577 76.8138 62.1295 75.6571 70.2999 73.3768C70.6427 73.282 71.0655 72.9072 71.1878 72.5904C75.6687 60.9922 69.3274 41.9758 52.7439 32.151C52.4303 31.964 51.8043 31.8356 51.3944 31.8906C47.599 32.402 43.8139 32.8007 40.94 33.091C40.5194 33.1337 40.2021 33.2486 40.1409 33.2896ZM45.9615 22.1366C45.9279 22.1899 45.8628 22.2583 45.6616 22.2864C45.4183 22.2864 45.1457 22.108 45.0416 21.8797C43.426 18.3417 41.1834 15.3769 38.3754 13.071C37.9529 12.7227 37.4538 12.5391 36.9328 12.5391C35.9543 12.5391 35.0066 13.1939 34.6784 14.0963C34.3989 14.8646 34.6379 15.6579 35.318 16.2154C37.5833 18.0774 39.4011 20.368 40.7178 23.0208C40.7609 23.1065 40.766 23.1877 40.7346 23.2568C40.7011 23.3311 40.6252 23.3869 40.5201 23.4143L40.1533 23.5114C39.8419 23.5963 39.28 23.4781 39.012 23.2692C36.235 21.1088 33.2058 20.0134 30.008 20.0134C28.6382 20.0134 27.2336 20.2187 25.832 20.6234L25.8301 20.6239C25.6991 20.6607 25.5306 20.708 25.5271 20.4312C25.444 13.1739 29.4004 7.22401 35.8505 4.90366C36.1209 4.80849 36.5995 4.9319 36.7974 5.15467C41.1293 9.98738 44.2241 15.6021 45.9947 21.8413C46.0261 21.9488 46.0144 22.0537 45.9615 22.1366ZM49.3575 27.7791C49.4652 27.7657 49.5541 27.7146 49.6014 27.6394C49.6437 27.572 49.6504 27.4896 49.6202 27.4022C49.5299 27.1376 49.4291 26.8771 49.318 26.6219C49.2207 26.4 48.8995 26.2117 48.6161 26.2117C48.5869 26.2117 48.5592 26.2134 48.5321 26.2181C46.0734 26.5851 43.6658 27.0858 41.3754 27.7074C41.1101 27.78 40.8871 28.0745 40.9056 28.3264C40.9215 28.5214 41.1076 28.6743 41.3298 28.6743C43.5822 28.4496 46.4789 28.1463 49.3575 27.7791Z" fill="white"/>
<path fill-rule="evenodd" clip-rule="evenodd" d="M40.3371 65.9504C41.6821 66.7506 43.3707 67.5134 45.0932 68.0955C45.3669 68.1887 45.589 68.5155 45.5695 68.7938C45.5142 69.5792 45.4565 70.3647 45.3886 71.1493C45.3291 71.8554 45.5395 72.4935 45.9975 72.9979C46.483 73.529 47.2049 73.8462 47.9299 73.8462C49.0734 73.8462 49.8763 73.0962 49.9759 71.9374C50.04 71.1769 50.0967 70.4175 50.1506 69.6568C50.1661 69.4318 50.3468 69.2699 50.6141 69.2699H50.6168C50.9749 69.294 51.3315 69.3077 51.6829 69.3077C55.0471 69.3077 57.5366 68.0758 58.8786 65.7469C60.8589 62.3086 57.3291 58.6201 55.2193 56.4173L55.0102 56.1984C53.8483 54.98 52.6289 53.8525 51.3794 52.7091C51.1162 52.4685 50.884 51.9228 50.8902 51.566C50.9295 49.5209 50.9631 47.4739 50.9947 45.4273C50.9982 45.2273 51.1302 45.0858 51.3725 45.0858H51.382L52.4721 45.2392C53.041 45.3203 53.5852 45.3979 54.0908 45.4582C55.7164 45.6529 56.707 44.34 56.7799 43.1131C56.8383 42.1044 56.2813 41.0128 54.9007 40.8471C54.4508 40.7938 53.9384 40.7213 53.3804 40.642L53.3102 40.6322C52.7628 40.5555 52.1741 40.473 51.5587 40.3955C51.2981 40.3627 51.0831 40.1153 51.0873 39.8557L51.1197 38.1339C51.1325 37.5204 50.9415 36.9933 50.5687 36.6104C50.1848 36.2163 49.6355 36 49.0192 36C47.8106 36 46.509 36.8484 46.4759 38.4218L46.4537 39.6484C46.4494 39.9005 46.2317 40.1213 45.9695 40.1406C43.0949 40.3523 41.1887 41.2558 40.1429 42.9027C38.1668 46.017 41.4801 49.4682 43.461 51.5288L43.6812 51.759C44.2698 52.3736 44.9323 53.0288 45.7061 53.7618C45.973 54.0134 46.1993 54.5523 46.1907 54.9164C46.1187 57.9323 46.0248 60.6402 45.9027 63.1949C45.8957 63.3175 45.818 63.4433 45.6438 63.3716C44.2487 62.8001 43.1211 62.1836 42.4209 61.7673C41.1316 61.0007 39.6469 61.7189 39.2487 63.1855C38.9481 64.2908 39.3754 65.3772 40.3371 65.9504ZM46.3618 45.241L46.3232 47.7878C45.9346 47.3595 45.5915 46.9601 45.2789 46.5723C44.9782 46.1981 44.6483 45.7601 44.4075 45.2772C44.8761 45.0979 45.3993 44.9702 45.9984 44.8875L46.0485 44.884C46.1539 44.884 46.2233 44.933 46.2636 44.9736C46.3289 45.04 46.3635 45.1358 46.3618 45.241ZM50.7198 58.4478C50.658 60.3531 50.5807 62.2576 50.4857 64.1605C50.4798 64.2881 50.5252 64.4141 50.6136 64.5097C50.6899 64.5934 50.7893 64.6416 50.8929 64.6452C51.882 64.6814 52.7749 64.5426 53.5118 64.2443C54.1872 63.9708 54.5795 63.6873 54.648 63.4209C54.7508 63.0173 54.1853 62.3191 53.5846 61.5809L53.4971 61.4741C52.7146 60.5066 51.8303 59.5436 50.7198 58.4478Z" fill="white"/>
</svg>
