<svg width="72" height="103" viewBox="0 0 72 103" fill="none" xmlns="http://www.w3.org/2000/svg">
<path fill-rule="evenodd" clip-rule="evenodd" d="M-55 22.0973C-55 9.99591 -46.4073 0 -35.9606 0V0.000344817H52.9728C63.4198 0.000344817 72 9.9966 72 22.0973V80.9031C72 93.0041 63.4198 103 52.9728 103H-35.9606C-46.4073 103 -55 93.0041 -55 80.9031V22.0973ZM-26.0748 23.2896C-27.1355 22.4393 -28.3944 21.9831 -29.6842 21.9821C-31.8752 21.9693 -33.917 23.2652 -35.0866 25.411C-36.9597 28.8464 -36.0735 33.39 -33.1076 35.5593L4.95859 64.9984C7.10043 66.6645 9.89957 66.6645 12.0411 64.9984L50.1573 35.5596C53.0824 33.2942 53.8683 28.7109 51.9125 25.3227C49.9567 21.9345 45.9999 21.0242 43.0748 23.2896L8.53111 49.9985L-26.0748 23.2896Z" fill="#11D4B3"/>
</svg>
