<svg width="91" height="72" viewBox="0 0 91 72" fill="none" xmlns="http://www.w3.org/2000/svg">
<g opacity="0.773542">
<path fill-rule="evenodd" clip-rule="evenodd" d="M86.9913 54.7525L86.9912 54.7524C86.6569 54.2942 86.3232 53.837 85.9974 53.3773C85.8415 53.1571 85.611 52.8596 85.3391 52.5088L85.3391 52.5087C83.9975 50.7773 81.6474 47.7443 82.2581 46.2625C82.5965 46.3598 82.9917 46.2988 83.2544 45.9533C99.9594 23.9966 72.9025 -12.2578 47.7672 5.95342C44.5296 8.29943 41.8414 11.6129 39.8712 15.3752C30.7016 8.36787 12.6061 6.68343 5.09767 17.0517C0.620538 23.2344 -0.162724 31.4308 2.62483 38.5079L2.7353 38.7887C4.04781 42.1279 6.64089 48.725 10.7196 49.5368C8.72339 56.4626 6.30687 63.2064 3.19844 69.7355C2.80326 70.5657 3.81038 71.4451 4.52975 70.7463C6.35363 68.9741 8.22132 67.2472 10.0887 65.5205C13.5019 62.3644 16.914 59.2094 20.0554 55.7815C20.0658 55.77 20.0717 55.7578 20.0776 55.7456C20.0827 55.7352 20.0877 55.7248 20.0956 55.7149C26.6816 58.4138 33.0835 58.4725 39.7429 55.836C42.1703 54.875 46.3909 52.7073 46.4898 49.7724C53.6376 55.6232 63.2469 57.4561 72.3682 52.1328C73.1689 53.1726 75.1913 54.0625 76.4492 54.6161C76.7966 54.7689 77.0857 54.8961 77.2746 54.9937L77.5516 55.1369L77.5517 55.1369C81.2297 57.0379 85.0264 59.0002 88.9478 60.3599C89.6889 60.6164 90.2285 59.7374 89.9033 59.1382C89.0707 57.6021 88.0278 56.1729 86.9913 54.7525ZM35.1593 55.6297C29.9519 57.1074 24.6783 55.7214 19.6058 54.3554C19.5938 54.3522 19.5837 54.3555 19.5734 54.3588C19.5645 54.3617 19.5555 54.3647 19.5452 54.3634C19.3156 54.3224 19.07 54.3764 18.8604 54.6059C15.6901 58.0637 12.2485 61.2476 8.80581 64.4326C8.0326 65.1479 7.25934 65.8632 6.48908 66.5818C8.94961 60.9912 11.0022 55.2377 12.1077 49.2244C12.2412 48.8938 12.1394 48.4632 11.7159 48.3198C7.73478 46.9676 5.5044 41.2595 4.03206 37.4915C3.9517 37.2858 3.8736 37.0859 3.7976 36.8929C1.18515 30.2557 2.83402 21.8685 7.68882 16.7402C15.7576 8.21702 30.3911 11.151 39.307 16.4665C38.0003 19.218 37.0926 22.1809 36.634 25.1731C36.5266 25.12 36.4035 25.0837 36.2535 25.0855C31.7475 25.1356 27.2527 24.9311 22.7585 24.7266C18.5975 24.5372 14.4371 24.3479 10.2686 24.3607C9.47731 24.363 9.50334 25.4855 10.2686 25.5506L11.178 25.6282L11.1781 25.6282C19.49 26.3378 27.9149 27.0571 36.2535 26.6964C36.317 26.6935 36.3699 26.6764 36.4227 26.6592L36.4229 26.6592C36.4381 26.6543 36.4534 26.6493 36.4688 26.6447C36.0874 30.3875 36.4187 34.1292 37.6548 37.5186C33.5935 37.4926 29.5325 37.4306 25.4715 37.3685C20.9322 37.2991 16.3929 37.2298 11.8531 37.2108C11.1574 37.2076 11.1716 38.2179 11.8531 38.263C20.6801 38.8455 29.5174 39.1872 38.3652 39.1909C39.981 42.6557 42.1774 45.7247 44.778 48.2397C44.7553 48.3291 44.7463 48.4236 44.7596 48.5214C45.3421 52.7533 38.7576 54.6132 35.4494 55.5476L35.1593 55.6297ZM74.4322 51.6901C76.0574 52.563 77.7091 53.394 79.3684 54.2023C79.9621 54.4914 80.5567 54.7855 81.1531 55.0803C83.1321 56.059 85.1293 57.0466 87.1707 57.8924C86.5183 56.907 85.819 55.9488 85.1196 54.9906C84.193 53.721 83.2664 52.4513 82.4489 51.1183C82.3664 50.9839 82.2719 50.835 82.1699 50.6744C81.2628 49.2455 79.7636 46.884 80.8757 45.4431C81.136 45.106 81.4834 45.0319 81.7773 45.1176C81.7801 45.1144 81.7801 45.1102 81.7834 45.1064C95.2158 27.453 75.9353 -9.12731 52.2595 5.00459C42.2754 10.9639 34.9676 24.3695 38.9743 35.9561C43.9294 50.2831 58.0504 58.1019 72.3308 50.528C72.9101 50.2203 73.4127 50.7114 73.3919 51.1998C73.8339 51.3944 74.3332 51.637 74.4322 51.6901Z" fill="#46E6C8"/>
<path d="M86.9912 54.7524L86.5873 55.0472L86.5939 55.0561L86.6008 55.0648L86.9912 54.7524ZM86.9913 54.7525L87.3952 54.4578L87.3887 54.4489L87.3818 54.4402L86.9913 54.7525ZM85.9974 53.3773L85.5894 53.6663L85.5895 53.6664L85.9974 53.3773ZM85.3391 52.5088L85.7344 52.2025L85.7295 52.1964L85.3391 52.5088ZM85.3391 52.5087L84.9438 52.815L84.9486 52.821L85.3391 52.5087ZM82.2581 46.2625L82.3963 45.7819L81.9663 45.6583L81.7959 46.0719L82.2581 46.2625ZM83.2544 45.9533L82.8564 45.6506L82.8564 45.6507L83.2544 45.9533ZM47.7672 5.95342L47.4738 5.54852L47.4738 5.54854L47.7672 5.95342ZM39.8712 15.3752L39.5676 15.7724L40.0389 16.1326L40.3141 15.6071L39.8712 15.3752ZM5.09767 17.0517L4.69271 16.7584L4.6927 16.7584L5.09767 17.0517ZM2.62483 38.5079L3.09013 38.3249L3.09005 38.3247L2.62483 38.5079ZM2.7353 38.7887L3.20064 38.6058L3.20059 38.6057L2.7353 38.7887ZM10.7196 49.5368L11.2001 49.6753L11.3507 49.1526L10.8172 49.0464L10.7196 49.5368ZM3.19844 69.7355L2.74699 69.5206L2.74698 69.5206L3.19844 69.7355ZM4.52975 70.7463L4.87814 71.1049L4.87818 71.1049L4.52975 70.7463ZM10.0887 65.5205L10.4281 65.8876L10.0887 65.5205ZM20.0554 55.7815L20.424 56.1193L20.4259 56.1172L20.0554 55.7815ZM20.0776 55.7456L19.6278 55.5273L19.6278 55.5274L20.0776 55.7456ZM20.0956 55.7149L20.2852 55.2523L19.9379 55.1099L19.7043 55.4036L20.0956 55.7149ZM39.7429 55.836L39.5589 55.3711L39.5588 55.3711L39.7429 55.836ZM46.4898 49.7724L46.8065 49.3855L46.0242 48.7451L45.9901 49.7555L46.4898 49.7724ZM72.3682 52.1328L72.7644 51.8278L72.496 51.4793L72.1162 51.701L72.3682 52.1328ZM76.4492 54.6161L76.2478 55.0737L76.4492 54.6161ZM77.2746 54.9937L77.5042 54.5496L77.5041 54.5495L77.2746 54.9937ZM77.5516 55.1369L77.7897 54.6971L77.7811 54.6927L77.5516 55.1369ZM77.5517 55.1369L77.3135 55.5767L77.3221 55.5811L77.5517 55.1369ZM88.9478 60.3599L88.784 60.8323L88.7843 60.8324L88.9478 60.3599ZM89.9033 59.1382L89.4638 59.3765L89.4639 59.3767L89.9033 59.1382ZM19.6058 54.3554L19.4745 54.8379L19.4757 54.8382L19.6058 54.3554ZM35.1593 55.6297L35.0232 55.1486L35.0228 55.1487L35.1593 55.6297ZM19.5734 54.3588L19.7279 54.8344H19.7279L19.5734 54.3588ZM19.5452 54.3634L19.4573 54.8556L19.4701 54.8579L19.4829 54.8595L19.5452 54.3634ZM18.8604 54.6059L19.2289 54.9438L19.2295 54.9431L18.8604 54.6059ZM8.80581 64.4326L9.14536 64.7996L8.80581 64.4326ZM6.48908 66.5818L6.03145 66.3804L6.83015 66.9474L6.48908 66.5818ZM12.1077 49.2244L11.6441 49.0372L11.6251 49.0842L11.616 49.134L12.1077 49.2244ZM11.7159 48.3198L11.5551 48.7932L11.5555 48.7934L11.7159 48.3198ZM4.03206 37.4915L3.56635 37.6734H3.56635L4.03206 37.4915ZM3.7976 36.8929L3.33234 37.076L3.33235 37.076L3.7976 36.8929ZM7.68882 16.7402L7.32572 16.3965L7.32572 16.3965L7.68882 16.7402ZM39.307 16.4665L39.7587 16.6809L39.9539 16.27L39.5631 16.037L39.307 16.4665ZM36.634 25.1731L36.4125 25.6213L37.0248 25.9238L37.1282 25.2488L36.634 25.1731ZM36.2535 25.0855L36.259 25.5855L36.2597 25.5855L36.2535 25.0855ZM22.7585 24.7266L22.7357 25.226L22.7585 24.7266ZM10.2686 24.3607L10.2701 24.8607H10.2701L10.2686 24.3607ZM10.2686 25.5506L10.3111 25.0525L10.311 25.0525L10.2686 25.5506ZM11.178 25.6282L11.2254 25.1305L11.2205 25.13L11.178 25.6282ZM11.1781 25.6282L11.1306 26.126L11.1355 26.1264L11.1781 25.6282ZM36.2535 26.6964L36.2751 27.1959L36.2762 27.1959L36.2535 26.6964ZM36.4227 26.6592L36.577 27.135L36.5879 27.1312L36.4227 26.6592ZM36.4229 26.6592L36.2687 26.1834L36.2577 26.1873L36.4229 26.6592ZM36.4688 26.6447L36.9663 26.6954L37.0419 25.9533L36.3267 26.1654L36.4688 26.6447ZM37.6548 37.5186L37.6516 38.0186L38.3711 38.0232L38.1246 37.3473L37.6548 37.5186ZM25.4715 37.3685L25.4639 37.8685L25.4715 37.3685ZM11.8531 37.2108L11.8508 37.7108H11.851L11.8531 37.2108ZM11.8531 38.263L11.8201 38.7619L11.8202 38.7619L11.8531 38.263ZM38.3652 39.1909L38.8184 38.9796L38.6838 38.691L38.3654 38.6909L38.3652 39.1909ZM44.778 48.2397L45.2626 48.3629L45.334 48.0819L45.1256 47.8803L44.778 48.2397ZM44.7596 48.5214L44.2641 48.5886L44.2642 48.5896L44.7596 48.5214ZM35.4494 55.5476L35.3135 55.0665L35.3133 55.0665L35.4494 55.5476ZM79.3684 54.2023L79.1494 54.6518L79.1495 54.6518L79.3684 54.2023ZM74.4322 51.6901L74.6687 51.2496L74.6686 51.2495L74.4322 51.6901ZM81.1531 55.0803L81.3747 54.6321L81.1531 55.0803ZM87.1707 57.8924L86.9793 58.3543L88.4907 58.9805L87.5876 57.6164L87.1707 57.8924ZM85.1196 54.9906L85.5235 54.6959V54.6959L85.1196 54.9906ZM82.4489 51.1183L82.8751 50.8569L82.8751 50.8569L82.4489 51.1183ZM82.1699 50.6744L81.7478 50.9424L81.7478 50.9424L82.1699 50.6744ZM80.8757 45.4431L80.48 45.1374L80.4799 45.1376L80.8757 45.4431ZM81.7773 45.1176L81.6374 45.5976L81.9445 45.6872L82.1545 45.4458L81.7773 45.1176ZM81.7834 45.1064L82.1571 45.4387L82.1698 45.4244L82.1814 45.4092L81.7834 45.1064ZM52.2595 5.00459L52.5157 5.43393L52.5157 5.43392L52.2595 5.00459ZM38.9743 35.9561L38.5018 36.1195L38.5018 36.1196L38.9743 35.9561ZM72.3308 50.528L72.5651 50.9697L72.5654 50.9696L72.3308 50.528ZM73.3919 51.1998L72.8924 51.1785L72.8778 51.5198L73.1904 51.6574L73.3919 51.1998ZM86.6008 55.0648L86.6009 55.0649L87.3818 54.4402L87.3817 54.4401L86.6008 55.0648ZM85.5895 53.6664C85.9176 54.1294 86.2533 54.5894 86.5873 55.0472L87.3951 54.4577C87.0604 53.999 86.7288 53.5445 86.4054 53.0882L85.5895 53.6664ZM84.9439 52.815C85.2187 53.1696 85.4412 53.457 85.5894 53.6663L86.4055 53.0883C86.2418 52.8572 86.0033 52.5496 85.7344 52.2025L84.9439 52.815ZM84.9486 52.821L84.9487 52.8211L85.7295 52.1964L85.7295 52.1963L84.9486 52.821ZM81.7959 46.0719C81.5789 46.5983 81.6457 47.1999 81.8142 47.7633C81.9858 48.3374 82.2861 48.9485 82.635 49.5446C83.3331 50.7373 84.2767 51.9539 84.9438 52.8149L85.7343 52.2024C85.0599 51.3321 84.1577 50.1665 83.498 49.0394C83.168 48.4756 82.9115 47.9424 82.7723 47.4769C82.6299 47.0007 82.632 46.6675 82.7204 46.453L81.7959 46.0719ZM82.8564 45.6507C82.7468 45.7948 82.5853 45.8363 82.3963 45.7819L82.12 46.743C82.6078 46.8832 83.2366 46.8027 83.6524 46.2559L82.8564 45.6507ZM48.0606 6.35832C54.2374 1.88302 60.5 0.77128 66.1656 1.92286C71.8434 3.07692 76.9644 6.51363 80.8143 11.2075C88.5277 20.6118 91.032 34.9048 82.8564 45.6506L83.6523 46.2561C92.1817 35.0451 89.5101 20.2326 81.5875 10.5733C77.6194 5.73535 72.3074 2.15077 66.3648 0.942896C60.41 -0.267463 53.8646 0.918211 47.4738 5.54852L48.0606 6.35832ZM40.3141 15.6071C42.255 11.9008 44.8959 8.65142 48.0606 6.3583L47.4738 5.54854C44.1632 7.94743 41.4278 11.3249 39.4282 15.1432L40.3141 15.6071ZM5.50263 17.3449C9.12978 12.3363 15.347 10.1966 21.8614 10.1976C28.3749 10.1986 35.0808 12.3437 39.5676 15.7724L40.1748 14.9779C35.4919 11.3993 28.5653 9.1986 21.8615 9.19759C15.1587 9.19659 8.57398 11.3988 4.69271 16.7584L5.50263 17.3449ZM3.09005 38.3247C0.360369 31.3945 1.13275 23.3796 5.50264 17.3449L4.6927 16.7584C0.108325 23.0893 -0.685816 31.4671 2.15962 38.6912L3.09005 38.3247ZM3.20059 38.6057L3.09013 38.3249L2.15954 38.691L2.27001 38.9718L3.20059 38.6057ZM10.8172 49.0464C9.00024 48.6848 7.4294 47.0023 6.11702 44.8502C4.82081 42.7246 3.85881 40.2803 3.20064 38.6058L2.26995 38.9716C2.9243 40.6364 3.9151 43.1601 5.26325 45.3709C6.59522 47.5551 8.36029 49.577 10.622 50.0272L10.8172 49.0464ZM3.64989 69.9505C6.77253 63.3915 9.19805 56.6211 11.2001 49.6753L10.2392 49.3983C8.24873 56.3041 5.84122 63.0213 2.74699 69.5206L3.64989 69.9505ZM4.18135 70.3877C4.08565 70.4806 4.00722 70.4992 3.95515 70.5C3.89609 70.5009 3.8266 70.4789 3.76045 70.4254C3.62319 70.3145 3.56475 70.1293 3.64989 69.9505L2.74698 69.5206C2.43695 70.1719 2.68448 70.8415 3.13182 71.2031C3.35797 71.3859 3.65044 71.5047 3.9702 71.4999C4.29693 71.4949 4.61416 71.3614 4.87814 71.1049L4.18135 70.3877ZM9.7492 65.1534C7.88262 66.8794 6.01038 68.6105 4.18131 70.3877L4.87818 71.1049C6.69689 69.3378 8.56001 67.615 10.4281 65.8876L9.7492 65.1534ZM19.6867 55.4437C16.5617 58.8538 13.165 61.995 9.7492 65.1534L10.4281 65.8876C13.8388 62.7339 17.2663 59.565 20.424 56.1193L19.6867 55.4437ZM19.6278 55.5274C19.6197 55.544 19.641 55.4941 19.6848 55.4458L20.4259 56.1172C20.4906 56.0458 20.5237 55.9715 20.5274 55.9639L19.6278 55.5274ZM19.7043 55.4036C19.6571 55.463 19.6303 55.5221 19.6278 55.5273L20.5274 55.964C20.5309 55.9567 20.5272 55.9646 20.5218 55.9744C20.5152 55.9861 20.5039 56.0048 20.4869 56.0262L19.7043 55.4036ZM39.5588 55.3711C33.0202 57.9598 26.7522 57.9024 20.2852 55.2523L19.906 56.1776C26.611 58.9252 33.1468 58.9852 39.927 56.3008L39.5588 55.3711ZM45.9901 49.7555C45.9487 50.9855 45.0313 52.1375 43.6894 53.1445C42.3687 54.1357 40.7525 54.8985 39.5589 55.3711L39.9269 56.3009C41.1607 55.8125 42.8685 55.011 44.2897 53.9443C45.6897 52.8936 46.9321 51.4942 46.9896 49.7892L45.9901 49.7555ZM72.1162 51.701C63.2017 56.9036 53.8178 55.1245 46.8065 49.3855L46.1731 50.1593C53.4575 56.1219 63.2921 58.0087 72.6203 52.5647L72.1162 51.701ZM76.6506 54.1584C76.019 53.8805 75.2192 53.5282 74.4791 53.1192C73.7255 52.7027 73.0981 52.2611 72.7644 51.8278L71.9721 52.4379C72.439 53.0443 73.2231 53.5676 73.9954 53.9944C74.7811 54.4286 75.6215 54.7981 76.2478 55.0737L76.6506 54.1584ZM77.5041 54.5495C77.2978 54.4429 76.991 54.3082 76.6506 54.1584L76.2478 55.0737C76.6022 55.2296 76.8735 55.3493 77.0451 55.438L77.5041 54.5495ZM77.7811 54.6927L77.5042 54.5496L77.0451 55.4379L77.322 55.5811L77.7811 54.6927ZM77.7898 54.6973L77.7897 54.6972L77.3134 55.5765L77.3135 55.5766L77.7898 54.6973ZM89.1116 59.8875C85.2299 58.5415 81.4651 56.5967 77.7812 54.6927L77.3221 55.5811C80.9943 57.4791 84.8229 59.4588 88.784 60.8323L89.1116 59.8875ZM89.4639 59.3767C89.5209 59.4817 89.5131 59.6466 89.4181 59.78C89.3747 59.8409 89.3251 59.8766 89.2812 59.8929C89.2427 59.9072 89.1895 59.9145 89.1114 59.8874L88.7843 60.8324C89.4001 61.0456 89.9404 60.7707 90.2328 60.3599C90.5116 59.9682 90.6109 59.3939 90.3428 58.8998L89.4639 59.3767ZM86.5874 55.0473C87.6274 56.4724 88.6497 57.8748 89.4638 59.3765L90.3429 58.9C89.4916 57.3294 88.4282 55.8734 87.3952 54.4578L86.5874 55.0473ZM19.4757 54.8382C24.525 56.198 29.9341 57.6322 35.2958 56.1107L35.0228 55.1487C29.9697 56.5826 24.8316 55.2449 19.7358 53.8727L19.4757 54.8382ZM19.7279 54.8344C19.7519 54.8266 19.6252 54.8789 19.4745 54.8379L19.737 53.873C19.65 53.8493 19.5716 53.8513 19.5113 53.8608C19.4832 53.8652 19.4604 53.871 19.4456 53.8752C19.4319 53.879 19.42 53.883 19.419 53.8833L19.7279 54.8344ZM19.4829 54.8595C19.554 54.8684 19.6145 54.8616 19.6578 54.853C19.6959 54.8454 19.7279 54.8344 19.7279 54.8344L19.419 53.8833C19.4101 53.8862 19.4331 53.8781 19.4618 53.8724C19.4959 53.8656 19.5467 53.8596 19.6074 53.8672L19.4829 54.8595ZM19.2295 54.9431C19.28 54.8879 19.3205 54.8681 19.3472 54.8596C19.3755 54.8506 19.4109 54.8473 19.4573 54.8556L19.633 53.8711C19.2487 53.8025 18.8258 53.9024 18.4912 54.2687L19.2295 54.9431ZM9.14536 64.7996C12.5855 61.617 16.0425 58.4193 19.2289 54.9438L18.4918 54.268C15.3378 57.7081 11.9115 60.8783 8.46627 64.0655L9.14536 64.7996ZM6.83015 66.9474C7.59952 66.2297 8.37202 65.515 9.14536 64.7996L8.46627 64.0655C7.69318 64.7807 6.91916 65.4968 6.14802 66.2162L6.83015 66.9474ZM11.616 49.134C10.5199 55.0958 8.48292 60.8104 6.03145 66.3804L6.94672 66.7832C9.4163 61.1721 11.4845 55.3796 12.5995 49.3148L11.616 49.134ZM11.5555 48.7934C11.5937 48.8063 11.6137 48.8216 11.6245 48.8322C11.6358 48.8432 11.6449 48.857 11.6517 48.8753C11.6668 48.916 11.6682 48.9775 11.6441 49.0372L12.5714 49.4116C12.7838 48.8856 12.6395 48.1046 11.8762 47.8462L11.5555 48.7934ZM3.56635 37.6734C4.30011 39.5513 5.23997 41.9597 6.50435 44.0687C7.76246 46.1671 9.39373 48.0591 11.5551 48.7932L11.8767 47.8464C10.0569 47.2283 8.58246 45.5901 7.36202 43.5545C6.14785 41.5293 5.23634 39.1997 4.49777 37.3095L3.56635 37.6734ZM3.33235 37.076C3.40808 37.2684 3.48594 37.4677 3.56635 37.6734L4.49777 37.3095C4.41746 37.104 4.33912 36.9035 4.26285 36.7097L3.33235 37.076ZM7.32572 16.3965C2.33763 21.6655 0.648756 30.2581 3.33234 37.076L4.26285 36.7097C1.72154 30.2533 3.33041 22.0714 8.05192 17.0839L7.32572 16.3965ZM39.5631 16.037C35.0452 13.3436 29.0807 11.2524 23.209 10.9147C17.3356 10.5769 11.4942 11.9933 7.32572 16.3965L8.05192 17.0839C11.9523 12.9639 17.4619 11.5858 23.1515 11.913C28.8427 12.2404 34.6529 14.2739 39.051 16.8959L39.5631 16.037ZM37.1282 25.2488C37.5795 22.3047 38.4728 19.3885 39.7587 16.6809L38.8554 16.252C37.5278 19.0474 36.6057 22.057 36.1398 25.0973L37.1282 25.2488ZM36.2597 25.5855C36.319 25.5848 36.3644 25.5976 36.4125 25.6213L36.8555 24.7248C36.6887 24.6424 36.488 24.5826 36.2473 24.5856L36.2597 25.5855ZM22.7357 25.226C27.2276 25.4304 31.7365 25.6357 36.259 25.5855L36.2479 24.5856C31.7584 24.6354 27.2778 24.4317 22.7812 24.2271L22.7357 25.226ZM10.2701 24.8607C14.4244 24.8479 18.5728 25.0366 22.7357 25.226L22.7812 24.2271C18.6223 24.0378 14.4497 23.8479 10.2671 23.8607L10.2701 24.8607ZM10.311 25.0525C10.2767 25.0495 10.2557 25.0416 10.2436 25.0355C10.2314 25.0293 10.2223 25.0217 10.2148 25.0129C10.1983 24.9936 10.1853 24.9622 10.1849 24.9265C10.1845 24.8906 10.1964 24.8755 10.1972 24.8747C10.1975 24.8743 10.1978 24.874 10.1985 24.8736C10.1991 24.8731 10.2009 24.872 10.2045 24.8704C10.2112 24.8676 10.2309 24.8608 10.2701 24.8607L10.2671 23.8607C9.94269 23.8616 9.65734 23.9819 9.45718 24.2021C9.26416 24.4144 9.18208 24.6845 9.18493 24.9377C9.19064 25.4457 9.55021 25.9913 10.2262 26.0488L10.311 25.0525ZM11.2205 25.13L10.3111 25.0525L10.2261 26.0488L11.1355 26.1264L11.2205 25.13ZM11.2255 25.1305L11.2254 25.1305L11.1306 26.126L11.1306 26.126L11.2255 25.1305ZM36.2319 26.1969C27.9308 26.556 19.5381 25.8401 11.2206 25.1301L11.1355 26.1264C19.4418 26.8356 27.899 27.5583 36.2751 27.1959L36.2319 26.1969ZM36.2686 26.1836C36.2547 26.1881 36.2459 26.1909 36.2378 26.1934C36.2302 26.1957 36.2258 26.1969 36.2234 26.1975C36.2193 26.1985 36.223 26.1973 36.2308 26.1969L36.2762 27.1959C36.4158 27.1895 36.5288 27.1505 36.5769 27.1349L36.2686 26.1836ZM36.2577 26.1873L36.2576 26.1873L36.5879 27.1312L36.588 27.1311L36.2577 26.1873ZM36.3267 26.1654C36.3042 26.172 36.2831 26.1789 36.2687 26.1836L36.577 27.1349C36.5932 27.1296 36.6025 27.1266 36.611 27.1241L36.3267 26.1654ZM38.1246 37.3473C36.9189 34.0415 36.591 30.3777 36.9663 26.6954L35.9714 26.594C35.5838 30.3972 35.9184 34.2169 37.1851 37.6899L38.1246 37.3473ZM25.4639 37.8685C29.5245 37.9305 33.5877 37.9926 37.6516 38.0186L37.658 37.0186C33.5992 36.9927 29.5405 36.9306 25.4792 36.8686L25.4639 37.8685ZM11.851 37.7108C16.3876 37.7297 20.9241 37.7991 25.4639 37.8685L25.4792 36.8686C20.9403 36.7992 16.3983 36.7298 11.8552 36.7108L11.851 37.7108ZM11.8862 37.7641C11.8633 37.7626 11.8534 37.7579 11.8515 37.757C11.8494 37.756 11.8488 37.7553 11.8479 37.7543C11.8467 37.7528 11.8438 37.7489 11.8411 37.7414C11.8384 37.7338 11.8367 37.7247 11.8367 37.7153C11.8365 37.6937 11.844 37.6926 11.8347 37.7028C11.8294 37.7087 11.8234 37.7124 11.82 37.7139C11.8169 37.7151 11.825 37.7107 11.8508 37.7108L11.8555 36.7108C11.5511 36.7094 11.2817 36.8234 11.0929 37.0322C10.9119 37.2324 10.8351 37.4861 10.8367 37.7222C10.8399 38.1965 11.1748 38.7192 11.8201 38.7619L11.8862 37.7641ZM38.3654 38.6909C29.5303 38.6872 20.704 38.346 11.886 37.7641L11.8202 38.7619C20.6561 39.345 29.5046 39.6872 38.365 39.6909L38.3654 38.6909ZM45.1256 47.8803C42.5697 45.4085 40.4087 42.3899 38.8184 38.9796L37.9121 39.4022C39.5532 42.9215 41.7851 46.0409 44.4304 48.5991L45.1256 47.8803ZM45.255 48.4542C45.2518 48.4302 45.2529 48.4009 45.2626 48.3629L44.2934 48.1166C44.2577 48.2573 44.2408 48.4171 44.2641 48.5886L45.255 48.4542ZM35.5853 56.0288C37.2294 55.5644 39.7606 54.8518 41.8075 53.7075C43.8307 52.5764 45.5914 50.8976 45.2549 48.4532L44.2642 48.5896C44.5103 50.3771 43.27 51.7442 41.3195 52.8347C39.3927 53.9118 36.9776 54.5964 35.3135 55.0665L35.5853 56.0288ZM35.2954 56.1108L35.5855 56.0288L35.3133 55.0665L35.0232 55.1486L35.2954 56.1108ZM79.5873 53.7528C77.9317 52.9463 76.2863 52.1184 74.6687 51.2496L74.1956 52.1305C75.8284 53.0076 77.4864 53.8418 79.1494 54.6518L79.5873 53.7528ZM81.3747 54.6321C80.7786 54.3374 80.1826 54.0426 79.5873 53.7527L79.1495 54.6518C79.7416 54.9402 80.3349 55.2335 80.9314 55.5285L81.3747 54.6321ZM87.3621 57.4305C85.3386 56.5921 83.3563 55.6121 81.3747 54.6321L80.9314 55.5285C82.9079 56.5059 84.92 57.5011 86.9793 58.3543L87.3621 57.4305ZM84.7158 55.2854C85.4162 56.2451 86.1087 57.1941 86.7538 58.1684L87.5876 57.6164C86.9278 56.6199 86.2217 55.6525 85.5235 54.6959L84.7158 55.2854ZM82.0226 51.3797C82.8524 52.7328 83.7912 54.0185 84.7158 55.2854L85.5235 54.6959C84.5949 53.4234 83.6803 52.1699 82.8751 50.8569L82.0226 51.3797ZM81.7478 50.9424C81.8503 51.1039 81.9426 51.2493 82.0227 51.3798L82.8751 50.8569C82.7902 50.7185 82.6935 50.5662 82.592 50.4064L81.7478 50.9424ZM80.4799 45.1376C79.7591 46.0715 79.932 47.2455 80.2964 48.2359C80.6672 49.2438 81.2996 50.2363 81.7478 50.9424L82.592 50.4064C82.1332 49.6836 81.5624 48.7809 81.2349 47.8906C80.9009 46.9828 80.8802 46.2556 81.2715 45.7485L80.4799 45.1376ZM81.9172 44.6376C81.43 44.4956 80.8685 44.6343 80.48 45.1375L81.2715 45.7486C81.3447 45.6538 81.4143 45.6147 81.4662 45.598C81.5204 45.5807 81.5786 45.5805 81.6374 45.5976L81.9172 44.6376ZM81.4098 44.7742C81.3938 44.7922 81.38 44.8103 81.368 44.8279C81.3562 44.8455 81.3467 44.8619 81.3392 44.8761C81.3318 44.8902 81.3263 44.9022 81.3226 44.9107C81.3191 44.9187 81.3165 44.9252 81.316 44.9264C81.3154 44.928 81.316 44.9265 81.3161 44.9262C81.3164 44.9254 81.3173 44.9233 81.3184 44.9206C81.3206 44.9153 81.3249 44.9053 81.331 44.8929C81.3437 44.8674 81.3653 44.8294 81.4001 44.7894L82.1545 45.4458C82.1907 45.4042 82.2134 45.3645 82.227 45.3371C82.2335 45.3239 82.2382 45.3129 82.2408 45.3067C82.2422 45.3035 82.2432 45.3009 82.2438 45.2996C82.244 45.2989 82.2448 45.2969 82.2444 45.298C82.2443 45.2982 82.2421 45.3038 82.239 45.3108C82.2357 45.3183 82.2307 45.3294 82.2238 45.3425C82.2168 45.3558 82.2079 45.3712 82.1966 45.3878C82.1854 45.4045 82.1723 45.4216 82.1571 45.4387L81.4098 44.7742ZM52.5157 5.43392C58.316 1.97181 63.8067 1.6321 68.5851 3.29821C73.3804 4.9702 77.5089 8.68101 80.5152 13.4045C86.5463 22.8806 87.9325 36.1993 81.3855 44.8037L82.1814 45.4092C89.0667 36.3601 87.5288 22.5619 81.3588 12.8675C78.2645 8.00573 73.9732 4.11785 68.9144 2.35396C63.8386 0.5842 58.0409 0.971422 52.0032 4.57526L52.5157 5.43392ZM39.4469 35.7927C37.4952 30.1489 38.2909 24.0367 40.8238 18.5807C43.3575 13.1232 47.6136 8.35993 52.5157 5.43393L52.0032 4.57525C46.9213 7.60854 42.5314 12.5278 39.9168 18.1596C37.3016 23.7928 36.4467 30.1767 38.5018 36.1195L39.4469 35.7927ZM72.0966 50.0863C65.0901 53.8023 58.1555 53.7317 52.3689 51.0027C46.5719 48.2688 41.8865 42.8466 39.4468 35.7927L38.5018 36.1196C41.0172 43.3926 45.8699 49.0433 51.9423 51.9071C58.025 54.7758 65.2912 54.8276 72.5651 50.9697L72.0966 50.0863ZM73.8915 51.2211C73.9091 50.8064 73.709 50.4053 73.3848 50.1642C73.0378 49.9061 72.5602 49.84 72.0963 50.0864L72.5654 50.9696C72.6327 50.9338 72.6779 50.9307 72.7035 50.9328C72.7309 50.935 72.7592 50.9451 72.788 50.9666C72.8547 51.0162 72.8955 51.1048 72.8924 51.1785L73.8915 51.2211ZM74.6686 51.2495C74.5534 51.1877 74.0409 50.9392 73.5934 50.7422L73.1904 51.6574C73.627 51.8496 74.1131 52.0863 74.1957 52.1306L74.6686 51.2495Z" fill="#00E0B5"/>
<path d="M75.8904 37.3872C72.9372 38.4668 66.0359 37.076 62.9166 36.8694C57.6235 36.5196 52.0093 35.7273 46.6902 36.0953C45.7866 36.1578 45.7535 37.1734 46.6902 37.1789C52.9254 37.2152 59.2086 37.9258 65.4145 38.3377C67.6651 38.4872 75.2008 39.8715 76.8694 38.1279C77.3296 37.6469 76.4706 37.1752 75.8904 37.3872Z" fill="white"/>
<path d="M76.3945 30.2399C76.1046 30.1773 75.8181 30.1084 75.533 30.0332C74.6919 29.822 74.3586 30.6741 74.9727 31.0081C73.2158 30.0521 66.2615 30.3944 62.4167 30.4088C57.1469 30.4283 51.877 30.4671 46.6086 30.5542C45.7971 30.5675 45.7971 31.4644 46.6086 31.4777C52.6261 31.5773 58.6459 31.6092 64.6648 31.6315C66.9867 31.6403 75.2769 32.6522 76.7702 31.2843C77.1683 30.9196 77.0529 30.3895 76.3945 30.2399Z" fill="white"/>
<path d="M77.1904 23.8947C71.5381 23.968 65.8942 23.2906 60.2559 23.0976C57.0986 22.9896 51.3118 22.6366 49.0666 24.5244C48.9087 24.6574 49.0455 24.8722 49.3305 24.8223C58.6642 23.1909 67.733 25.1166 77.1904 24.9944C78.2689 24.9805 78.2708 23.8806 77.1904 23.8947Z" fill="white"/>
<path d="M35.5805 30.3413C32.4144 29.6048 28.2723 30.2708 25.0142 30.3957C20.5283 30.5675 16.0358 30.7908 11.5593 31.0789C10.8244 31.1263 10.8028 32.0048 11.5593 32C16.0433 31.9728 20.5334 31.8367 25.0142 31.6984C28.3285 31.5963 32.3975 32.0134 35.5805 31.24C36.1349 31.105 36.1447 30.4725 35.5805 30.3413Z" fill="#00E6B9"/>
</g>
</svg>
