<svg width="57" height="42" viewBox="0 0 57 42" fill="none" xmlns="http://www.w3.org/2000/svg">
<path d="M12.5987 39.3756C19.5379 39.7393 25.4701 34.5634 25.8226 27.8378C25.9911 24.6217 24.8699 21.5199 22.6655 19.1037C20.466 16.693 17.4358 15.2348 14.1325 14.9974L14.0366 14.9901C12.8791 14.8955 11.8705 15.7359 11.7815 16.8566C11.6925 17.9774 12.558 18.9588 13.7144 19.0488L13.8304 19.0577C18.3603 19.3803 21.8581 23.2207 21.6277 27.6179C21.3927 32.1017 17.4379 35.5523 12.8117 35.3098C8.18561 35.0674 4.61313 31.2223 4.84811 26.7386C5.14162 21.1381 6.7867 16.0423 9.73798 11.5926C11.9437 8.26674 14.0988 6.56187 14.139 6.53035C15.0419 5.8323 15.1903 4.55502 14.4694 3.67463C14.0787 3.19764 13.5127 2.93467 12.9318 2.90423C12.4388 2.87849 11.9349 3.02006 11.5183 3.34018C11.4124 3.42167 8.89331 5.37858 6.31342 9.21698C3.96143 12.7161 1.0704 18.5583 0.653215 26.5187C0.300735 33.2444 5.65947 39.012 12.5987 39.3756Z" fill="white"/>
<path d="M42.5 39.3956C49.4392 39.7593 55.3715 34.5835 55.724 27.8578C55.8925 24.6416 54.7713 21.5398 52.5669 19.1235C50.3674 16.7128 47.3372 15.2546 44.0339 15.0172L43.938 15.0098C42.783 14.9153 41.7718 15.7556 41.6829 16.8764C41.5939 17.9972 42.4593 18.9786 43.6158 19.0686L43.7317 19.0775C48.2617 19.4003 51.7595 23.2407 51.5291 27.6379C51.2941 32.1217 47.3392 35.5723 42.7131 35.3298C38.087 35.0874 34.5145 31.2423 34.7495 26.7586C35.043 21.1581 36.6881 16.0623 39.6393 11.6126C41.845 8.28678 44.0002 6.5819 44.0404 6.55038C44.9434 5.85223 45.0916 4.57504 44.3707 3.69465C43.98 3.21755 43.4141 2.95469 42.8332 2.92425C42.3402 2.89841 41.8363 3.03997 41.4196 3.36009C41.3137 3.44159 38.7946 5.3985 36.2147 9.23691C33.8628 12.736 30.9718 18.5782 30.5546 26.5387C30.2021 33.2645 35.5608 39.032 42.5 39.3956Z" fill="white"/>
</svg>
