<svg width="43" height="43" viewBox="0 0 43 43" fill="none" xmlns="http://www.w3.org/2000/svg">
<path d="M3.16722 39.1528L3.16522 39.1504C2.07099 37.842 1.34491 35.9508 1.20045 34.0623C1.15812 33.1146 0.885775 25.3422 0.767036 20.2776H42.2284C42.1714 22.321 42.1024 25.0648 42.0394 27.5706C41.958 30.8066 41.8865 33.6456 41.8639 34.0666C41.7622 35.9271 41.0381 37.8402 39.9423 39.1504L39.9401 39.1531C38.4391 40.9652 36.526 41.8156 33.873 41.8156L33.8684 41.8156C30.3542 41.8371 26.1922 41.8371 21.9001 41.8371C17.6254 41.8371 13.2265 41.8371 9.23646 41.8156H9.23242C6.53932 41.8156 4.69024 40.9894 3.16722 39.1528Z" stroke="black" stroke-width="1.5"/>
<path d="M19.8867 28.7895V31.5729C19.8867 32.4635 20.6095 33.1863 21.5 33.1863C22.3906 33.1863 23.1133 32.4635 23.1133 31.5729V28.7895C23.1133 27.8989 22.3906 27.1761 21.5 27.1761C20.6095 27.1761 19.8867 27.8989 19.8867 28.7895Z" fill="#3D3A31"/>
<path d="M24.277 0C27.5058 0 30.1538 2.42856 30.5582 5.55193H34.8109C39.326 5.55193 43 9.22596 43 13.7432V21.1988C43 21.7409 42.7268 22.2464 42.2772 22.5454C37.8417 25.4816 32.5759 27.437 27.0519 28.2006C26.9766 28.2114 26.9035 28.2157 26.8304 28.2157C26.1011 28.2157 25.4494 27.7231 25.2665 27.0003C24.832 25.288 23.2768 24.0899 21.4892 24.0899C19.678 24.0899 18.14 25.2622 17.6625 27.0089C17.4474 27.7897 16.6966 28.2888 15.8835 28.1812C10.3961 27.4155 5.15183 25.4687 0.724912 22.5454C0.271036 22.2486 0 21.7409 0 21.1988V13.7432C0 9.22596 3.68264 5.55193 8.21066 5.55193H12.4418C12.8462 2.42856 15.492 0 18.723 0H24.277ZM24.277 3.22661H18.723C17.2753 3.22661 16.0664 4.21611 15.705 5.55193H27.2928C26.9315 4.21611 25.7226 3.22661 24.277 3.22661Z" fill="#FFCE4C"/>
</svg>
