<svg width="320" height="320" viewBox="0 0 320 320" fill="none" xmlns="http://www.w3.org/2000/svg">
<circle cx="160" cy="160" r="159.35" fill="#1C1C1C" stroke="#ECF0F2" stroke-width="1.3"/>
<mask id="mask0_950_1596" style="mask-type:alpha" maskUnits="userSpaceOnUse" x="0" y="0" width="320" height="320">
<circle cx="160" cy="160" r="159.35" fill="white" stroke="white" stroke-width="1.3"/>
</mask>
<g mask="url(#mask0_950_1596)">
<path fill-rule="evenodd" clip-rule="evenodd" d="M31.3444 131.671C38.3493 134.576 44.914 138.278 51.3276 142.228C51.2342 142.738 50.8915 142.32 50.7073 142.512C50.5962 142.805 51.3022 143.073 50.7197 143.481C50.1846 143.856 49.7506 143.686 49.3006 143.481C46.9317 142.398 44.8784 140.738 42.3961 139.824C41.5473 139.511 40.5284 139.42 39.8231 138.55C39.3891 138.015 38.4013 138.218 37.7096 137.767C37.2764 137.484 36.6887 137.352 36.2002 137.038C34.255 135.787 32.1088 135.139 29.7955 135.074C29.379 135.062 28.9922 134.916 28.9525 134.533C28.8437 133.49 28.3371 132.482 29.1802 131.392C29.7924 130.601 30.3893 130.489 31.2055 130.643C33.1717 131.015 34.9461 131.902 36.7179 132.77C38.7903 133.786 40.7797 134.965 42.8128 136.052C45.5473 137.514 48.1499 139.183 50.815 140.753C51.0683 140.902 51.5791 141.027 51.385 141.407C51.2389 141.693 50.8229 141.432 50.5712 141.292C48.9845 140.41 47.4444 139.455 45.9151 138.474C44.4495 137.533 42.8627 136.77 41.2905 136.009C38.7491 134.779 36.2795 133.401 33.6712 132.31C32.9276 131.999 32.175 131.692 31.3444 131.671Z" fill="white"/>
<path fill-rule="evenodd" clip-rule="evenodd" d="M1.76528 128.385C1.20994 127.786 1.9722 127.27 2.11945 127.058C2.51759 126.484 2.00747 125.664 2.50913 125.415C3.26878 125.039 3.88194 124.3 4.95011 124.513C7.01623 124.926 8.98357 125.633 10.9738 126.279C12.4166 126.748 13.8711 127.189 15.212 127.927C15.8098 128.257 16.344 128.646 16.6755 129.253C17.0159 129.875 17.0767 130.438 16.5901 131.095C16.2301 131.581 16.0141 132.191 15.5828 132.648C15.1729 133.082 14.7367 133.435 14.1056 133.001C13.663 132.696 13.1179 132.795 12.6282 132.661C10.6605 132.119 8.57455 132.007 6.72267 131.046C5.34902 130.333 3.88993 129.838 2.44006 129.316C2.02488 129.167 1.52622 129.029 1.76528 128.385Z" fill="white"/>
<path fill-rule="evenodd" clip-rule="evenodd" d="M18.9665 167.421C18.6192 167.295 18.3959 167.214 18.1801 167.136C18.0439 167.257 18.1369 167.353 18.1754 167.46C18.2547 167.68 18.6909 167.727 18.538 168.012C18.353 168.356 18.0739 167.95 17.8291 167.992C17.7706 168.359 18.2228 168.423 18.2559 168.717C17.5869 169.222 17.0057 169.022 16.3469 168.642C14.5568 167.609 12.6903 166.736 10.6774 166.202C9.9173 166 9.48777 165.075 8.62501 165.117C7.53067 165.171 6.54607 164.728 5.72444 164.21C4.30539 163.315 2.70291 163.215 1.19479 162.73C0.770429 162.593 0.278183 162.856 -0.0887036 162.472C-0.207248 162.348 -0.470767 162.159 -0.266966 162.058C0.429375 161.713 0.0433921 161.163 0.128856 160.679C0.287565 159.781 1.14079 159.546 1.89593 159.406C3.086 159.186 4.27058 159.451 5.37418 159.862C9.59988 161.437 13.6806 163.327 17.4927 165.753C18.0735 166.123 18.792 166.44 18.9665 167.421Z" fill="white"/>
<path fill-rule="evenodd" clip-rule="evenodd" d="M34.3554 153.929C33.7038 153.77 33.0229 153.619 32.3507 153.435C28.0899 152.272 23.9934 150.663 19.9544 148.892C18.4061 148.212 16.9096 147.41 15.2745 146.928C14.8061 146.791 14.4244 146.511 14.8715 145.932C14.9771 145.796 15.0155 145.602 15.0637 145.428C15.3838 144.271 16.2182 143.769 17.4177 144.04C18.6482 144.318 19.7508 144.915 20.8546 145.491C25.5232 147.929 30.2645 150.197 35.2865 151.83C35.923 152.037 35.9274 152.109 35.4872 152.582C35.4395 152.633 35.4092 152.733 35.4204 152.802C35.5514 153.616 34.9558 153.733 34.3554 153.929Z" fill="white"/>
<path fill-rule="evenodd" clip-rule="evenodd" d="M18.6768 192.759C19.9925 193.773 21.5465 194.353 22.8534 195.353C23.2382 195.648 23.5797 196.009 23.9919 196.255C24.673 196.661 24.2109 197.161 24.0274 197.474C23.8497 197.778 23.3988 197.946 22.9412 197.666C21.0723 196.521 19.0525 195.636 17.0098 194.918C15.5536 194.406 14.2443 193.478 12.585 193.382C11.9568 193.345 11.2084 192.97 10.4947 192.784C9.54056 192.534 10.2665 191.832 10.2654 191.329C10.2651 191.25 10.4921 191.164 10.4857 191.092C10.4597 190.784 9.66333 190.658 10.1816 190.26C10.885 189.718 11.5442 189.147 12.659 189.412C14.4286 189.834 16.0493 190.559 17.6464 191.365C19.8118 192.458 22.0437 193.449 23.8828 195.092C24.0182 195.213 24.1653 195.322 24.2907 195.453C24.4201 195.588 24.5356 195.774 24.3998 195.938C24.2267 196.146 23.9935 196.059 23.8411 195.897C22.5114 194.488 20.693 193.868 19.0727 192.929C18.9494 192.858 18.8091 192.815 18.6768 192.759Z" fill="white"/>
<path fill-rule="evenodd" clip-rule="evenodd" d="M-2.93098 173.333C-1.28754 174.238 0.354429 175.151 1.93243 176.176C0.874535 174.954 -1.47917 173.558 -2.93098 173.333ZM-5.17717 175.488C-5.29166 175.179 -4.13618 175.907 -4.87153 175.094C-4.8912 175.072 -4.92213 175.028 -4.91484 175.017C-4.51408 174.419 -4.57402 173.92 -5.14929 173.439C-5.30024 173.312 -4.18918 172.171 -3.84058 172.123C-3.31434 172.052 -2.80436 172.151 -2.32517 172.351C0.381077 173.479 2.68285 175.173 4.60453 177.382C5.54616 178.464 5.53672 179.67 4.97977 180.911C4.68052 181.578 4.26629 181.604 3.71304 181.106C3.13109 180.582 2.51832 180.088 1.88537 179.626C1.15507 179.094 0.363925 178.66 -0.337081 178.067C-1.25738 177.288 -2.49912 177.084 -3.56467 176.546C-4.15286 176.247 -4.74655 175.99 -5.17717 175.488Z" fill="white"/>
<path fill-rule="evenodd" clip-rule="evenodd" d="M-2.10312 147.043C-1.97762 146.836 -1.95865 146.724 -2.17355 146.653C-2.95646 146.394 -3.76778 146.189 -4.50329 145.831C-4.94774 145.614 -5.82483 145.729 -5.63448 144.765C-5.60431 144.612 -5.79161 144.656 -5.89407 144.732C-6.13346 144.909 -6.32422 144.823 -6.54724 144.665C-6.92722 144.395 -7.33159 144.342 -7.81875 144.454C-8.71832 144.66 -9.20633 144.058 -8.89169 143.2C-8.85362 143.097 -8.71441 142.908 -8.77787 142.904C-10.2752 142.796 -8.36624 141.854 -9.10744 141.577C-8.92026 141.316 -8.66809 141.182 -8.34861 141.132C-7.61631 141.016 -6.97187 141.273 -6.33595 141.572C-3.92666 142.704 -1.94574 144.429 -0.0109283 146.205C0.455415 146.632 0.527439 147.321 0.744033 147.902C0.871171 148.244 0.596935 148.469 0.330219 148.621C-0.0353124 148.828 -0.0887724 148.632 -0.00965436 148.315C-0.691224 148.322 -1.19231 147.911 -1.73324 147.583C-1.97143 147.439 -2.2531 147.354 -2.10312 147.043Z" fill="white"/>
<path fill-rule="evenodd" clip-rule="evenodd" d="M37.0657 171.504C37.1159 171.425 37.1661 171.347 37.2163 171.269C36.5054 170.887 35.7968 170.501 35.0802 170.13C34.9966 170.087 34.8452 170.001 34.7678 170.152C34.7141 170.258 34.7089 170.432 34.839 170.457C35.6681 170.618 36.2395 171.345 37.0657 171.504ZM28.5803 168.92C28.1776 168.681 27.5347 168.917 27.4229 168.083C27.3419 167.481 27.642 167.57 27.9534 167.547C27.8699 167.03 27.2664 167.282 27.1113 166.83C27.9343 166.581 28.7567 166.833 29.5577 166.739C29.5818 166.743 29.6082 166.745 29.6364 166.745C30.2366 167.353 31.0772 167.443 31.8155 167.751C32.1206 167.878 32.4758 167.905 32.7556 168.068C35.0068 169.377 37.4102 170.402 39.6025 171.828C41.3207 172.946 43.1345 173.915 44.7988 175.121C45.1813 175.398 45.5962 175.638 46.0205 176.261C45.0777 175.823 44.3604 175.49 43.6432 175.158C43.6712 175.165 43.6999 175.172 43.7295 175.177C42.8631 174.228 41.6059 173.905 40.6283 173.11C40.4001 173.421 40.666 173.491 40.7053 173.63C40.7722 173.869 40.631 174.029 40.4294 174.137C40.3307 174.19 40.1868 174.293 40.1336 174.133C39.8973 173.424 39.3107 173.64 38.8343 173.652C38.3077 173.666 37.9992 173.4 37.7358 173.007C37.33 172.4 36.7913 172.06 36.0311 172.182C35.8593 172.082 35.6871 171.983 35.5152 171.884C35.1277 171.217 33.4076 170.345 32.7152 170.464C32.667 170.071 31.9089 169.968 32.2807 169.402C32.7113 169.212 32.9141 169.107 32.335 168.733C31.6039 168.26 30.6641 168.41 29.9992 167.825C29.9007 167.738 29.7655 167.753 29.696 167.887C29.6055 168.061 29.6913 168.211 29.8568 168.225C30.5724 168.286 31.1097 168.816 31.7951 168.939C32.0842 168.992 32.3383 169.051 32.3083 169.426C31.0126 169.744 30.0456 168.797 28.9014 168.53C28.7498 168.495 29.1103 167.91 28.6253 168.147C28.3886 168.263 28.2937 168.642 28.5803 168.92Z" fill="white"/>
<path fill-rule="evenodd" clip-rule="evenodd" d="M0.514162 192.465C0.226638 192.126 -0.45207 192.598 -0.37539 192.041C-0.309722 191.567 0.271904 191.696 0.641726 191.788C2.93187 192.358 4.68973 193.677 5.92113 195.678C6.10771 195.982 6.39084 196.421 5.94586 196.744C5.5514 197.032 5.27227 196.65 4.99789 196.44C3.84649 195.56 2.67582 194.73 1.16497 194.596C0.785502 194.563 0.628723 194.268 0.479899 193.967C0.427829 193.862 0.347643 193.758 0.255013 193.687C-0.478128 193.129 -0.583246 192.676 0.514162 192.465Z" fill="white"/>
<path fill-rule="evenodd" clip-rule="evenodd" d="M39.368 170.899C38.2459 170.877 37.5632 169.967 36.6586 169.51C35.9886 169.171 35.2371 168.909 34.6833 168.332C34.5455 168.188 34.2612 168.147 34.3851 167.885C34.4839 167.676 34.7096 167.619 34.934 167.74C36.2836 168.464 37.6474 169.164 38.8992 170.054C39.1948 170.265 39.2126 170.628 39.3478 170.926L39.368 170.899Z" fill="white"/>
<path fill-rule="evenodd" clip-rule="evenodd" d="M39.3476 170.926C39.5865 170.795 39.8068 170.646 40.103 170.834C41.7833 171.895 43.4806 172.931 45.0264 174.189C45.1461 174.287 45.4162 174.326 45.2665 174.576C45.1716 174.734 45.0055 174.708 44.8676 174.614C43.0921 173.402 41.2906 172.232 39.4331 171.148C39.3809 171.118 39.3883 170.984 39.3678 170.899L39.3476 170.926Z" fill="white"/>
<path fill-rule="evenodd" clip-rule="evenodd" d="M29.6374 166.745C29.6092 166.745 29.5825 166.743 29.5584 166.739C29.1404 166.607 28.7865 166.28 28.3028 166.344C28.1305 166.367 27.8861 166.407 27.8903 166.142C27.8941 165.905 28.1152 165.921 28.3031 165.929C29.9739 165.997 31.5637 166.451 33.1347 166.971C33.4043 167.061 33.7079 167.357 33.5939 167.655C33.4589 168.007 33.1032 167.773 32.8969 167.666C31.8704 167.134 30.7529 166.949 29.6374 166.745Z" fill="white"/>
<path fill-rule="evenodd" clip-rule="evenodd" d="M43.7299 175.177C43.7006 175.172 43.6719 175.166 43.6439 175.158C44.0616 175.515 44.2243 176.175 44.9493 176.189C45.069 176.192 45.5254 176.464 45.2786 176.789C45.0442 177.098 44.753 176.806 44.5817 176.649C43.8073 175.938 42.9504 175.391 41.8327 175.123C42.1536 174.806 42.3457 174.354 42.8014 174.906C43.0462 175.203 43.4307 175.05 43.7299 175.177Z" fill="white"/>
<path fill-rule="evenodd" clip-rule="evenodd" d="M35.5158 171.884C35.6877 171.983 35.8599 172.083 36.0318 172.182C36.1461 172.308 36.2601 172.434 36.3744 172.559C36.3453 172.609 36.3162 172.657 36.287 172.706C35.7184 172.439 35.1502 172.17 34.5816 171.902C34.5983 171.835 34.6154 171.768 34.6325 171.701C34.9266 171.762 35.2214 171.823 35.5158 171.884Z" fill="white"/>
<path fill-rule="evenodd" clip-rule="evenodd" d="M29.078 169.242C29.6933 169.019 30.1422 169.447 30.6433 169.653C31.1347 169.855 31.6098 170.097 32.0924 170.321C31.8626 170.429 31.6519 170.422 31.4114 170.307C30.6405 169.937 29.8567 169.594 29.078 169.242Z" fill="white"/>
<path fill-rule="evenodd" clip-rule="evenodd" d="M324.92 69.4661H130.335C127.574 69.4661 125.335 71.7046 125.335 74.4661V238.749C125.335 242.615 128.469 245.749 132.335 245.749H324.92" fill="#FFED4E"/>
<path d="M125.335 105.938L300.605 106.952" stroke="black" stroke-width="3"/>
<path d="M95.6582 107.707V264.872C95.6582 270.395 100.135 274.872 105.658 274.872H273.309" stroke="#FFED4E" stroke-width="4"/>
<circle cx="179.03" cy="86.8448" r="3.03937" fill="black"/>
<circle cx="160.793" cy="86.8448" r="3.03937" fill="black"/>
<circle cx="145.596" cy="86.8448" r="3.03937" fill="black"/>
<path d="M251.183 169.201C251.183 185.341 238.294 198.388 222.441 198.388C206.588 198.388 193.699 185.341 193.699 169.201C193.699 153.061 206.588 140.014 222.441 140.014C238.294 140.014 251.183 153.061 251.183 169.201Z" stroke="black" stroke-width="3"/>
<path d="M245.567 186.546L271.362 205.225" stroke="black" stroke-width="3" stroke-linecap="round"/>
</g>
</svg>
