<svg width="113" height="98" viewBox="0 0 113 98" fill="none" xmlns="http://www.w3.org/2000/svg">
<mask id="mask0_0_9803" style="mask-type:alpha" maskUnits="userSpaceOnUse" x="1" y="0" width="112" height="97">
<path fill-rule="evenodd" clip-rule="evenodd" d="M112.319 48.3154L29.1809 96.3154L1.6809 48.684L84.8193 0.684033L112.319 48.3154Z" fill="white"/>
</mask>
<g mask="url(#mask0_0_9803)">
<path opacity="0.501282" fill-rule="evenodd" clip-rule="evenodd" d="M25.7941 81.7253C25.7983 81.6916 25.8066 81.6546 25.8261 81.6101C25.8886 81.5591 25.9403 81.5035 25.9886 81.4468C25.9855 81.4977 25.9811 81.5469 25.9865 81.6068C26.038 81.459 26.0734 81.635 26.133 81.7584C26.0745 81.805 26.0213 81.8611 25.9706 81.9211C25.9688 81.9187 25.9675 81.917 25.9658 81.9149C25.9788 81.9035 25.99 81.8896 26.004 81.8795C25.9886 81.8894 25.9711 81.895 25.9528 81.8986C25.9003 81.8332 25.8813 81.7831 26.0014 81.7768C25.8173 81.5165 25.8979 81.7919 25.8462 81.8779C25.8281 81.865 25.8129 81.8484 25.8029 81.8245C25.7999 81.792 25.7969 81.7604 25.7941 81.7253ZM26.6259 80.6639C26.661 80.7423 26.6954 80.8207 26.7325 80.904C26.6806 80.8758 26.6346 80.8319 26.5891 80.7496C26.5684 80.7516 26.5522 80.7635 26.5321 80.7681C26.5636 80.7321 26.5945 80.6979 26.6259 80.6639ZM21.6143 70.6033C21.6741 70.6942 21.7408 70.7915 21.8197 70.9043C21.8136 71.0382 21.6543 70.8556 21.4759 70.6398C21.5266 70.6176 21.5726 70.6055 21.6143 70.6033ZM11.3428 52.6129C11.2901 52.6507 11.2419 52.6873 11.1862 52.7263C11.1572 52.732 11.1316 52.7464 11.1157 52.7748C11.025 52.8372 10.9332 52.9008 10.8362 52.9669C10.4996 52.5543 10.2792 52.1457 10.0539 51.7032C10.0401 51.6644 10.0041 51.5966 9.9606 51.5213C9.95609 51.5124 9.9518 51.5039 9.94726 51.4955C10.0001 51.4939 10.0529 51.4918 10.1058 51.4952C10.3077 51.8164 10.5114 52.1557 10.6965 52.4355L10.789 52.2509C10.552 51.9538 10.4459 51.7379 10.3412 51.5231C10.4452 51.5397 10.551 51.5594 10.6577 51.5785C10.8745 51.9997 10.999 52.2994 10.8459 52.2245C11.1607 52.4767 11.1263 52.3961 11.1974 52.3207C11.2546 52.4409 11.3001 52.5321 11.3428 52.6129ZM10.4101 53.5688C10.2947 53.3268 10.3759 53.3271 10.5399 53.48C10.4966 53.509 10.4535 53.5393 10.4101 53.5688ZM9.56335 52.0225C9.54962 52.0037 9.53517 51.9807 9.52111 51.9606C9.54223 51.939 9.56275 51.9177 9.5854 51.8952L9.59658 51.9924L9.56335 52.0225ZM9.15849 52.264C9.22077 52.1839 9.29288 52.099 9.37554 52.0087C9.38686 52.0254 9.39364 52.0379 9.4059 52.0556L9.15849 52.264ZM14.0636 49.679C14.0807 49.7134 14.0935 49.7412 14.1121 49.7777C14.2334 50.267 14.0592 50.062 13.8463 49.7858L13.8479 49.7396C13.9233 49.7187 13.9938 49.699 14.0636 49.679ZM51.6045 22.9792C52.109 23.2141 52.3755 22.4672 52.7565 22.9383C53.0913 22.8709 53.35 22.7527 53.5691 22.6065C53.5279 22.7022 53.491 22.8009 53.457 22.902C52.7654 23.0746 52.0258 23.275 51.2545 23.5073C51.4021 23.3654 51.5241 23.1946 51.6045 22.9792ZM68.3605 12.5312C68.4131 12.6013 68.4601 12.666 68.5035 12.7264C68.3919 12.7483 68.2793 12.7708 68.1653 12.7949C68.0298 12.3912 68.154 12.3531 68.3605 12.5312ZM86.2972 9.15442C86.1595 9.3694 86.0605 9.34369 85.9765 9.30037C86.0722 9.2347 86.1671 9.16805 86.2599 9.09855L86.2972 9.15442ZM79.7156 15.2627C79.9313 15.3478 80.2232 15.3597 80.2831 15.592C79.9395 16.0224 79.5705 16.2781 79.186 16.4763C79.171 16.4473 79.1574 16.4192 79.1417 16.3899C79.1151 16.1079 79.0894 15.8371 79.0641 15.5739C79.2072 15.6376 79.2423 15.5594 79.2612 15.4464C79.409 15.3763 79.5589 15.3054 79.7156 15.2627ZM89.0724 35.3255C89.0939 35.3598 89.1143 35.387 89.1311 35.3994L89.0904 35.3254L89.1943 35.3244C89.2366 35.3919 89.2786 35.4582 89.3293 35.5409C89.3663 35.5737 89.3962 35.5949 89.4216 35.6077C89.5412 35.9918 89.4583 36.0778 89.4526 36.2119L89.3569 36.0339C89.7318 37.2025 89.3587 36.3256 89.3604 36.9044L88.8725 35.7911C88.9215 35.8673 88.9776 35.9494 89.046 36.0407C88.8598 35.7217 88.7375 35.4971 88.6522 35.3286L89.0724 35.3255ZM88.8282 36.5006C88.7444 36.3434 88.441 35.8393 88.3251 35.5495L88.887 37.3264C89.2142 38.102 89.31 38.0229 89.558 38.4239C89.6022 38.5104 89.6312 38.5777 89.6519 38.6328C89.6228 38.6358 89.5962 38.6624 89.5903 38.7563C89.5619 38.7342 89.5287 38.7023 89.4911 38.6607L89.0256 37.6948C88.9475 37.6079 88.9214 37.5983 88.9237 37.6316C88.8705 37.5251 88.8084 37.4155 88.7165 37.2984L89.2277 38.389C89.1243 38.2141 88.8298 37.749 88.7043 37.4795L88.9486 38.0987C88.5838 37.3941 88.3764 36.648 88.2155 36.2275C87.9714 36.1433 88.3163 36.881 88.3086 37.1633C88.2248 37.0195 88.1396 36.8791 88.0534 36.7449C88.1277 36.644 87.9091 36.113 87.6184 35.4683C87.6791 35.4189 87.7446 35.3734 87.8036 35.3224L88.4217 35.2786C88.4814 35.4198 88.5501 35.5659 88.6628 35.7424C88.3173 35.3778 88.9739 36.5814 88.8282 36.5006ZM89.3191 38.4559L89.4388 38.7664C89.4464 38.8293 89.427 38.8554 89.3962 38.8672C89.2198 38.4671 89.0316 38.0751 88.8332 37.7049C88.9327 37.8351 89.0408 37.988 89.1406 38.13C89.2166 38.2609 89.2748 38.3672 89.3191 38.4559ZM91.061 44.3253C91.0031 44.3698 90.9464 44.415 90.8867 44.4579C90.8126 44.3091 90.7362 44.1624 90.6592 44.0175C90.7133 44.033 90.692 43.9381 90.6224 43.7711L90.8198 43.8083L90.9135 43.6889C90.9135 43.6889 90.7875 43.2375 90.5654 42.5423C90.7006 42.7546 90.8306 42.9378 90.947 43.0525C90.7949 42.7877 90.6735 42.5426 90.5611 42.3074L90.5036 42.3504C90.4479 42.1802 90.3884 41.9989 90.3229 41.8065C90.3481 41.8595 90.3741 41.9111 90.3993 41.9655C90.411 42.0032 90.4439 42.0696 90.4835 42.1441C90.5098 42.1996 90.5349 42.2518 90.5611 42.3074L90.5724 42.2986C90.6462 42.4214 90.7377 42.5669 90.8695 42.7642C90.7784 42.4558 91.1959 43.0137 91.3715 43.1933C91.2464 43.5233 91.1799 43.9614 91.061 44.3253ZM92.8679 48.5704C92.9148 48.4391 92.998 48.3657 93.14 48.381C93.0382 48.4368 92.9476 48.5 92.8679 48.5704ZM93.1091 50.121C93.1389 50.0459 93.2326 49.9853 93.2542 49.9093C93.0822 49.7002 93.0238 50.2306 92.6229 50.2706C92.644 50.2326 92.6621 50.1908 92.678 50.1467L92.9791 49.6723L92.7719 49.6525C92.7842 49.5165 92.7916 49.3765 92.7993 49.2408L92.8894 49.1322C92.8894 49.1322 92.8872 49.1238 92.8837 49.1111L93.25 48.5512C93.361 49.3846 93.4164 49.9487 93.1091 50.121ZM93.1052 50.4045C93.0864 50.3687 93.0829 50.338 93.088 50.3102L93.3926 50.2009C93.3487 50.2922 93.2925 50.3703 93.1052 50.4045ZM93.5834 52.328C93.5121 52.3572 93.441 52.3868 93.3692 52.4167C93.1632 52.1129 92.9205 52.1981 92.83 51.604C92.6438 51.6536 92.5378 51.8126 92.7938 52.2894C92.7713 52.3002 92.7473 52.3074 92.7257 52.3199C92.6078 52.2281 92.4573 51.9839 92.2965 51.731C92.3183 51.6896 92.3482 51.652 92.3693 51.6106C92.3364 51.6345 92.2993 51.6573 92.2643 51.6806C92.1821 51.5522 92.098 51.426 92.0149 51.3216C92.2048 51.1713 92.4342 51.003 92.6595 50.8184C92.6878 50.9964 92.693 51.1484 92.7942 51.121L92.6778 50.8039C92.9916 50.5457 93.2866 50.2532 93.4534 49.9223L93.6047 49.8668C93.7652 50.8498 92.8187 50.9359 93.5834 52.328ZM96.7048 54.4842L96.5192 54.1284C96.5991 54.0773 96.6766 54.0237 96.7544 53.9704C96.8617 54.2018 96.9551 54.4078 96.7048 54.4842ZM97.7419 55.4169C97.8439 55.4721 97.9349 55.4766 98.0161 55.4531C98.0362 55.5059 98.0756 55.5542 98.1274 55.5962C98.0315 55.6625 97.9352 55.728 97.8368 55.7943C97.7892 55.6833 97.7442 55.5634 97.7419 55.4169ZM97.4065 56.4518C97.4951 56.1188 97.7228 56.1843 97.8655 55.9288L97.9806 56.0434C97.8002 56.1644 97.6104 56.2978 97.4065 56.4518ZM14.5099 49.8958C14.5764 49.9983 14.631 50.0719 14.682 50.1377C14.6481 50.1807 14.6142 50.2245 14.5804 50.2669C14.5591 50.1487 14.5404 50.0314 14.5099 49.8958ZM14.6146 49.7306C14.5693 49.6521 14.5091 49.5578 14.4439 49.4581C14.5652 49.4565 14.679 49.4691 14.7896 49.4936C14.7316 49.5728 14.6753 49.6499 14.6146 49.7306ZM60.0377 19.3046C59.9895 19.3523 59.9739 19.399 59.9738 19.4451C59.9672 19.4336 59.9587 19.4246 59.9533 19.4124C59.9776 19.3696 60.0055 19.338 60.0303 19.2974C60.0323 19.3002 60.0354 19.3014 60.0377 19.3046ZM60.5272 18.82L60.773 19.5586C60.6952 19.0251 60.9585 19.0526 61.2406 19.0607C61.2303 19.187 61.1913 19.3013 61.1342 19.4054C61.0959 19.4463 61.0563 19.4868 61.0185 19.5287C60.9425 19.5709 60.8657 19.6118 60.7847 19.6418C60.6148 19.5887 60.4116 19.5774 60.2714 19.4861C60.2781 19.391 60.26 19.2948 60.2365 19.2021C60.328 19.0593 60.4245 18.932 60.5272 18.82ZM89.1181 59.3715C89.361 59.4776 89.6471 59.5565 89.962 59.6895L90.002 59.8323L90.0172 59.8447C89.8054 59.9485 89.605 59.9962 89.383 59.7672C89.327 59.7811 89.277 59.7985 89.2237 59.8135C89.1796 59.6492 89.1379 59.4955 89.1181 59.3715ZM87.3985 60.8605C87.2889 60.5411 87.3462 60.3973 87.4715 60.3222C87.5754 60.4435 87.6281 60.5514 87.6544 60.655C87.5666 60.7225 87.4812 60.7907 87.3985 60.8605ZM86.4874 61.3865C86.4181 61.1984 86.4135 61.0266 86.5618 60.8948C86.5747 60.8977 86.5883 60.9022 86.602 60.907L86.7455 61.1367L86.7343 60.9748C86.7608 60.9929 86.7873 61.0123 86.8135 61.035C86.7896 60.9608 86.7542 60.8944 86.7238 60.8247L86.7191 60.7566L87.0377 60.937C86.8518 61.0849 86.6711 61.2355 86.4874 61.3865ZM78.4776 65.7777C78.4307 65.7537 78.3923 65.7362 78.353 65.7177C78.4978 65.6073 78.6134 65.5187 78.6813 65.4904C78.7603 65.5326 78.7965 65.5837 78.809 65.6395L78.6461 65.735C78.6644 65.7567 78.6756 65.776 78.6914 65.7972C78.5484 65.8802 78.3845 65.9555 78.2216 66.0074C78.2398 65.8371 78.3122 65.7417 78.4776 65.7777ZM55.7054 22.2593L55.8009 22.2637C55.7585 22.3835 55.6449 22.4625 55.5266 22.5402C55.4155 22.5562 55.2982 22.5738 55.1803 22.5917C55.3764 22.5078 55.5584 22.4033 55.7054 22.2593ZM89.1516 53.2191C89.1524 53.1706 89.154 53.1235 89.1544 53.0751L89.3212 53.1257C89.2645 53.1564 89.2074 53.1874 89.1516 53.2191ZM80.7563 64.253L80.8289 64.5996C80.751 64.5314 80.6831 64.458 80.6202 64.3827C80.666 64.3394 80.71 64.2956 80.7563 64.253ZM82.2926 58.3293L82.3126 57.9014C82.5975 57.7776 82.9134 57.4682 83.3026 57.315L83.3484 57.3525C83.0372 57.682 82.7068 58.0122 82.2926 58.3293ZM82.835 55.0605L82.8531 54.8201C82.8602 54.8177 82.8662 54.8162 82.8733 54.8138C82.8639 54.8036 82.8631 54.7907 82.8563 54.78L82.874 54.5418C82.9413 54.5186 83.0244 54.6772 83.1092 54.8535C83.0231 54.9205 82.9312 54.9896 82.835 55.0605ZM81.9202 57.6843C82.0183 57.6231 82.1194 57.5638 82.2351 57.5283L82.252 57.6852C82.2609 57.684 82.2697 57.6765 82.2786 57.6743C82.2387 57.8744 82.0911 57.8178 81.9202 57.6843ZM81.4354 58.1804C81.4095 58.1398 81.3799 58.1004 81.347 58.0623C81.4502 58.032 81.5497 57.9919 81.6458 57.9424C81.6422 58.0442 81.5841 58.1293 81.4354 58.1804ZM81.0174 58.2275C80.9926 58.3599 80.9337 58.4936 80.8246 58.5894C80.8242 58.5613 80.8241 58.5346 80.8237 58.5065C80.879 58.4136 80.931 58.3206 80.9809 58.2282C80.9931 58.2276 81.0049 58.2277 81.0174 58.2275ZM86.3772 54.927C86.4342 54.8122 86.3692 54.7197 86.2866 54.6214C86.3816 54.6171 86.4673 54.5767 86.5524 54.5193C86.6061 54.6066 86.6656 54.6933 86.7203 54.776C86.522 54.9007 86.3397 55.0403 86.168 55.1077C86.119 54.9988 86.059 54.915 85.9788 54.8945C86.0567 54.7983 86.1291 54.7033 86.188 54.6131C86.1889 54.6134 86.1897 54.6129 86.1905 54.6132C86.231 54.8496 85.9805 54.5719 86.3772 54.927ZM81.4912 63.9553C81.5621 64.4383 81.1309 64.4919 80.8417 64.2329C81.0194 64.0982 81.2065 63.9654 81.3916 63.8324C81.4275 63.865 81.462 63.9023 81.4912 63.9553ZM89.5629 52.6805C90.0103 52.8365 90.2246 52.4111 90.6729 52.5041C90.3689 52.6349 90.0557 52.7691 89.7476 52.9142C89.7032 52.8431 89.5995 52.7745 89.5629 52.6805ZM59.8818 19.5331C59.8809 19.6427 59.9797 19.748 59.8954 19.8765C59.9462 19.8227 59.9714 19.7661 59.9859 19.7083C60.0082 19.7444 60.0291 19.7813 60.0563 19.815C59.8058 20.0404 59.5514 20.2573 59.3052 20.4892L59.5111 20.4614C59.3393 20.5597 59.1706 20.6627 59.0062 20.7743L58.8518 20.7329L58.7354 20.9646C58.4319 21.1884 58.1407 21.4304 57.8617 21.6889C57.5786 21.8932 57.3014 22.1056 57.0306 22.3273C56.6203 22.4082 56.2621 22.4823 55.9653 22.5485C56.6543 22.1657 57.4821 21.9047 57.8046 21.2714C57.4044 21.2997 57.0243 21.6059 56.5917 21.7324C56.4792 21.6947 56.3508 21.6726 56.2351 21.6389C56.2411 21.6174 56.2501 21.5985 56.2557 21.5763C56.7348 21.746 56.9094 21.0048 57.2972 21.4153C58.5462 21.0219 58.5369 19.911 59.6409 19.3341C59.7536 19.3373 59.8187 19.4239 59.8818 19.5331ZM79.219 65.5521C79.2079 65.5286 79.1978 65.5024 79.1864 65.4795L79.1456 65.5035C79.2409 65.295 79.3284 65.095 79.5635 64.8878C79.6651 65.0037 79.7433 65.1231 79.8014 65.2467C79.6086 65.3428 79.4144 65.4451 79.219 65.5521ZM91.8496 52.4381L91.9851 52.6957C91.9118 52.7766 91.8423 52.8592 91.7747 52.9423C91.1789 53.296 90.6555 53.7037 90.3265 54.2084C90.2517 54.2091 90.1785 54.223 90.1061 54.2423C90.3391 54.1124 90.5348 53.9693 90.5135 53.7584C90.2869 53.9735 90.0034 54.1532 89.694 54.3155L89.6715 54.1929C90.3719 53.6544 91.0191 53.0939 91.5624 52.5025C91.6502 52.4613 91.7443 52.4331 91.8496 52.4381ZM14.3617 49.5227C14.4095 49.6258 14.4552 49.7267 14.4876 49.8102C14.4476 49.8525 14.4072 49.894 14.3668 49.9362C14.2954 49.8033 14.2184 49.682 14.1428 49.5693C14.2189 49.551 14.2922 49.5355 14.3617 49.5227ZM13.6322 50.3351C13.6665 50.4182 13.6997 50.4859 13.7329 50.5551C13.6095 50.7168 13.4649 50.8827 13.298 51.0494L12.9032 50.2851C13.1072 50.1843 13.3421 50.122 13.5545 50.0908L13.6322 50.3351ZM13.3057 51.5411C13.1855 51.2971 13.054 51.0477 12.9223 50.8125C12.9427 50.7853 12.9618 50.7574 12.9866 50.7331C13.1375 51.0036 13.274 51.2387 13.3988 51.4519C13.3674 51.4818 13.3375 51.5114 13.3057 51.5411ZM12.6988 51.2674C12.5381 50.9118 12.366 50.6432 12.1599 50.3304C12.1839 50.2851 12.2085 50.233 12.2342 50.1751C12.3057 50.2933 12.3846 50.3999 12.4727 50.49L12.6389 50.7561C12.7729 51.092 12.9357 51.4982 12.6988 51.2674ZM11.8389 50.5211C11.8812 50.4752 11.9254 50.4121 11.972 50.3265C12.2376 50.7747 12.4961 51.1796 12.645 51.4264C12.4067 51.1882 12.1213 50.856 11.8389 50.5211ZM12.8411 51.7169C12.7069 51.8286 12.5769 51.9342 12.4543 52.0327L11.803 51.2656L11.8963 51.1804L11.7017 50.9787C11.8426 50.9046 11.9503 50.9036 12.0695 50.8054C12.253 50.9503 12.4844 51.185 12.779 51.5533C12.8033 51.6121 12.8236 51.6659 12.8411 51.7169ZM11.9653 52.1221C11.9953 52.0352 12.0062 51.9173 12.1391 51.9736C12.0778 52.0258 12.0209 52.0746 11.9653 52.1221ZM11.2411 51.4359C11.2614 51.4073 11.2809 51.3792 11.3 51.3548C11.3109 51.4299 11.3193 51.4984 11.325 51.5482C11.3011 51.5139 11.2704 51.4741 11.2411 51.4359ZM8.12422 55.525L7.79771 55.5504C7.62911 55.1082 7.85367 55.1454 8.16097 55.4782C8.14951 55.4945 8.13546 55.5089 8.12422 55.525ZM89.4866 35.42C89.4996 35.404 89.5042 35.3756 89.5018 35.3343C89.5639 35.4739 89.6791 35.712 89.8781 36.1094L89.4866 35.42ZM84.3166 23.4806C84.3634 23.5975 84.4083 23.7124 84.4516 23.8239C84.4192 23.8168 84.3853 23.8086 84.353 23.801C84.3474 23.7065 84.3364 23.6012 84.3166 23.4806ZM85.5355 24.8326C85.5791 24.9151 85.6213 24.9959 85.6612 25.0741C85.5911 25.0341 85.5002 24.9889 85.3812 24.9385C85.3856 24.8695 85.4431 24.8373 85.5355 24.8326ZM89.7599 28.3443C89.7571 28.3344 89.7582 28.3315 89.756 28.3234C89.7665 28.3431 89.7757 28.3583 89.7863 28.3794C89.7845 28.3392 89.776 28.2901 89.7645 28.2364C89.8253 28.2338 90.0133 28.4506 90.0349 28.3864C90.0814 28.4613 90.1692 28.6205 90.24 28.7465C90.2473 28.8146 90.2512 28.8789 90.2567 28.9445C90.2312 28.9046 90.2067 28.8656 90.1757 28.8168C90.0948 28.7756 90.1178 28.9929 89.7599 28.3443ZM90.7963 36.7977C90.794 36.8864 90.7745 36.9452 90.7456 36.9877C90.637 36.7126 90.6832 36.6874 90.7963 36.7977ZM91.404 36.7169C91.5301 36.7649 91.6306 36.8731 91.7348 37.022C91.6731 37.0062 91.6014 36.9782 91.5494 36.9757C91.5061 36.9 91.4597 36.8175 91.404 36.7169ZM17.4474 84.4614C17.5122 84.5788 17.4248 84.603 17.4285 84.6818C17.5708 84.8862 17.4909 84.4493 17.7301 84.5202L17.6308 84.9237L17.886 85.0421L17.6494 85.9404C18.2023 85.8176 17.9528 84.8896 18.4999 84.9559C18.4781 85.0577 18.5704 85.0807 18.6161 85.1257C18.6762 84.9496 18.8216 84.8661 18.8148 84.6819L19.0107 84.5754C19.0755 84.6928 19.1646 85.0188 18.9638 85.1268C19.1434 85.0302 19.2892 84.8993 19.4215 84.7562C19.7277 85.1747 20.0108 85.556 20.2527 85.8756C20.1829 85.8875 20.122 85.8814 20.0795 85.8196C20.0155 85.8883 19.9748 85.8988 20.0577 86.0653C20.139 86.0443 20.2657 85.906 20.2846 86.1413C20.1865 86.2988 20.0404 86.2017 19.9362 86.2811C19.9183 86.2322 19.9181 86.0458 19.8944 86.1054C19.6803 86.3717 19.1645 86.6607 19.1552 87.2484C19.2303 87.1496 19.148 86.9835 19.3288 86.9913C19.3933 87.1084 19.3121 87.1295 19.3183 87.2068C19.4587 87.4123 19.3689 86.9807 19.5971 87.0583L19.517 87.4508L19.7613 87.5755L19.5677 88.4489C20.0851 88.3467 19.8189 87.4279 20.3373 87.5111C20.3202 87.6103 20.4079 87.636 20.4525 87.6816C20.5029 87.5118 20.6351 87.4343 20.6245 87.2561C20.6632 87.2429 20.7084 87.216 20.7564 87.1815L20.8063 87.1548C20.8712 87.2717 20.9662 87.5948 20.7802 87.6942C21.4298 87.3455 21.5829 86.4816 22.3447 86.3188C22.4032 86.3576 22.2987 86.4371 22.3684 86.4461C22.4147 86.3276 22.5126 86.1697 22.4659 86.1019C22.4836 86.151 22.5186 86.2484 22.467 86.2886C22.5518 86.1909 22.6483 86.1522 22.7443 86.1323C22.7063 86.1638 22.6797 86.2025 22.6744 86.2532L22.6624 86.2009L22.52 86.3936C22.6291 86.3227 22.824 86.2197 22.9581 86.1035C23.0769 86.0908 23.1771 86.0664 23.2271 85.9386C23.3211 86.0746 23.1173 86.1259 23.1752 86.1638C23.5702 86.0917 23.4871 85.5545 23.8182 85.3658C23.8249 85.6293 24.0105 85.5305 24.1677 85.597C24.3351 85.2622 24.886 84.8866 25.2157 84.5106C25.3987 85.0769 25.6804 84.262 25.9606 84.6704C26.054 84.621 26.1521 84.4635 26.0696 84.2975C26.0644 84.4056 25.866 84.3475 25.8315 84.2502C25.9472 84.1421 26.1441 84.013 26.0443 83.7986L26.3302 83.9131C26.2487 83.7482 26.1902 83.5267 26.2802 83.4747L26.2822 83.4736C26.5296 83.6369 26.4363 83.5273 26.3851 83.4117C26.4306 83.3866 26.4768 83.3621 26.5242 83.3389C26.5468 83.501 26.5633 83.6395 26.6079 83.764C26.7714 83.723 26.6953 83.6359 26.7705 83.5374C26.8753 83.6438 26.8711 83.9378 26.8136 84.0849L27.0638 84.1027C27.0913 83.7498 27.1875 83.2199 27.5131 83.1387C27.5545 83.3151 27.4619 83.3644 27.6549 83.5291C27.6862 83.4826 27.7062 83.4035 27.7298 83.324C27.9398 83.8113 28.1531 84.3051 28.36 84.7805C28.2749 84.9501 28.2443 85.0938 28.4649 85.0215C28.4692 85.0315 28.4736 85.0411 28.4777 85.0508C28.2487 85.3211 27.9727 85.0896 27.8056 85.2933C27.7002 85.1647 27.885 85.0034 27.7084 84.9606C27.4711 85.0572 27.3134 85.1215 27.1727 85.2941C27.3753 85.2405 27.1995 85.4563 27.5247 85.3804C27.4637 85.5207 27.2008 85.7138 27.2528 85.778C27.3239 85.6928 27.3502 85.595 27.5603 85.5951C27.3065 85.8434 26.9989 86.0268 26.6291 86.0914C26.6211 86.0518 26.6325 86.0018 26.6496 85.9507C26.396 86.4274 25.7628 86.7071 25.6636 87.1482L25.8141 87.138C25.864 87.0028 26.0532 86.8819 26.1733 86.911C25.9188 87.1589 26.5351 87.0504 26.2895 87.3524C25.9295 87.7292 25.3666 87.6433 25.3131 88.0963C25.7439 87.891 26.3972 87.7395 26.4835 87.5023L26.2102 87.6431L26.5961 86.9101C26.7018 87.0393 27.0799 86.5111 27.2029 86.7479C27.0178 86.9098 26.8255 87.0175 26.6758 87.1356C26.7721 87.2123 27.266 86.8662 27.5028 86.7695L27.1779 86.8453C27.5634 86.3712 28.2309 86.0688 28.6275 85.6484C28.4881 85.8528 28.6413 85.8169 28.7982 85.7822C28.8319 85.8595 28.865 85.9347 28.8982 86.0093C28.7966 86.0497 28.6739 86.0213 28.734 86.0353C28.7712 86.1411 28.8434 86.119 28.9279 86.0765C29.0031 86.2462 29.075 86.4083 29.1435 86.5618C29.0828 86.6415 29.0278 86.7125 28.9823 86.7679L29.0361 86.5738C28.8256 87.0916 28.2615 87.0056 27.9982 87.4579C27.989 87.4044 28.0241 87.3612 27.945 87.3939C27.4343 87.6313 27.4812 88.1585 26.9796 88.1912L26.9522 88.0306C26.9279 88.0655 26.7608 88.3075 26.8916 88.428C27.1905 88.1908 27.217 88.0941 27.5324 87.965C27.4821 88.1547 27.2795 88.4055 27.0881 88.5173L27.2012 88.7619C27.0967 89.1497 26.6377 88.9346 26.5339 89.3211L26.9122 89.3109C26.9095 89.3258 26.8899 89.3446 26.8765 89.3628C26.9934 89.264 27.0877 89.1683 27.0869 89.0953C27.4474 88.7187 27.8621 88.9226 28.0041 89.0075C28.2505 88.9654 28.1007 89.3426 28.2077 89.4714C28.5058 89.2347 28.3378 88.9871 28.6366 88.7503C28.7608 88.7274 28.7334 88.8246 28.6981 88.8687L28.864 88.599C28.9176 88.6636 29.5075 88.3931 29.2712 88.7493C29.218 88.7709 29.1306 88.8306 29.0537 88.8612C29.6064 88.7656 30.5019 88.4943 30.6269 88.7688C30.9094 88.6833 30.7672 88.5968 31.2081 88.4457C31.2855 88.1549 30.9774 88.0796 31.3371 87.703L30.9426 87.8082C30.8928 87.8844 30.8608 87.9638 30.8007 88.0373L31.1439 87.8104C30.9687 88.0258 31.0658 88.1012 31.102 88.3172C30.5659 88.6505 30.2297 88.4154 29.9037 88.4901C29.9776 88.2919 30.2055 88.1691 30.142 88.0406C30.4313 87.8973 30.7157 87.794 30.7475 87.5625C30.794 87.514 30.8398 87.4908 30.884 87.4745C31.0796 87.4746 30.9623 87.7588 31.3467 87.6032C31.4765 87.4599 31.6039 87.2537 31.7598 87.0811C31.7801 87.1156 31.8032 87.1444 31.8377 87.1529C31.3205 87.8532 32.068 87.5196 31.4629 88.1977C31.6399 88.4984 31.9566 88.369 32.3344 88.1C31.9994 88.1215 32.2444 87.5613 31.7769 87.5513C32.0385 87.2968 32.0648 87.0268 32.1386 86.8086C32.1602 86.8007 32.181 86.7899 32.2039 86.7842L32.2237 86.8258C32.7427 86.6437 32.9825 86.3001 33.2458 85.9854L33.3312 85.9669C33.2802 86.4198 32.9018 86.4305 32.8232 86.7212C33.4673 86.7735 33.261 86.0525 33.8076 85.772C33.9779 85.8 34.0281 85.8495 34.0159 85.912C33.9539 85.9841 33.8922 86.0593 33.8306 86.1387C33.6974 86.2606 33.5463 86.3946 33.5451 86.5175C33.4446 86.6539 33.3426 86.7896 33.2391 86.9227C33.2022 86.8944 33.0697 86.9325 33.0525 86.8278C33.0346 86.9795 32.5426 87.3249 32.1473 87.4859C32.1915 87.7558 32.5707 87.486 32.8603 87.453C32.8912 87.4019 32.9286 87.3615 32.9671 87.323C33.2441 87.2194 33.436 87.1178 33.5895 87.0133C33.7782 86.9469 33.9445 86.8642 34.0252 86.6783C34.0503 86.6588 34.0755 86.6392 34.1029 86.6189C34.4538 86.4179 34.2002 86.8492 34.242 86.8593C34.727 86.7186 34.3199 86.5686 34.4255 86.4392C34.4696 86.3959 34.51 86.3671 34.5511 86.3351C34.5879 86.3146 34.6179 86.2956 34.6586 86.2747C35.3904 86.0691 35.9125 86.475 36.6549 86.5107L36.1375 86.2254C36.847 85.415 36.8753 86.1407 37.3506 85.3377L37.6898 86.0534C37.7492 85.5657 38.5272 85.5369 38.8792 85.5856L38.855 84.9814C39.5566 84.9556 39.9825 84.8786 40.3853 85.2283L40.0965 84.8136C40.4556 84.9825 42.2333 83.6462 41.9648 84.7456C42.075 84.561 42.1032 84.2553 42.4866 84.1198L42.7748 84.5328C43.229 84.1509 43.7576 83.7656 44.0378 83.9367C43.8149 84.1872 43.8242 84.4301 43.8351 84.6719C45.2518 83.9954 44.7356 83.4959 44.6731 82.9509C45.1242 82.6137 45.6374 82.2899 45.898 82.4744C45.6709 82.7064 45.6703 82.9466 45.6713 83.1864C46.8824 82.699 46.6933 82.2392 46.5915 81.7749L46.5944 81.7753C46.6353 81.4589 46.8128 81.2192 47.0675 81.0204L47.237 81.3205C47.2293 80.8481 47.915 80.8147 48.2326 80.8591L48.1668 80.4583L48.4788 80.5226C48.4915 80.4473 48.5139 80.3776 48.5413 80.3113C48.5971 80.2895 48.6531 80.2681 48.7087 80.246C49.0169 80.2419 49.263 80.2855 49.5215 80.5029L49.2154 80.1036C49.5533 80.2647 50.9629 78.9578 50.8594 80.0254C50.934 79.8455 50.922 79.5492 51.2458 79.4181L51.5505 79.817C51.9073 79.4466 52.3297 79.0735 52.598 79.2389C52.4306 79.4816 52.4676 79.7167 52.5059 79.9507C53.7317 79.2664 53.1153 78.7697 53.0322 78.214C53.0395 78.2123 53.0468 78.211 53.0543 78.2096C53.3951 78.1981 53.7763 78.1594 54.1533 77.9797C55.1918 77.7681 56.3191 77.6011 56.979 77.9668C57.4508 77.276 56.8602 77.9115 56.6864 77.5559C56.8059 77.4235 56.9174 77.3174 57.023 77.2289C57.7073 77.1942 58.3468 77.2476 58.7696 77.5236C59.2591 76.8773 58.656 77.4603 58.5012 77.0967C58.5521 77.0456 58.6004 77.0023 58.6489 76.9593C58.7582 76.9692 58.8717 76.9717 58.9936 76.9567C59.3101 76.6539 59.1716 76.6725 58.9643 76.7171C59.7016 76.2476 60.1094 76.7092 60.7784 76.6775C61.4588 76.0949 60.0948 76.7793 60.3568 76.2473C61.7252 76.0421 61.0714 75.2465 62.7012 74.8666C62.9697 75.0528 62.4016 75.2185 62.3276 75.4565C63.155 74.517 65.2413 73.9111 66.7518 73.1032C68.6847 72.6071 71.3709 71.5226 73.6439 70.9665L73.6038 70.7853C74.6702 70.8069 75.4153 69.9784 76.5151 69.698L75.9067 69.688C76.0044 69.577 76.0997 69.4923 76.1941 69.417C76.2923 69.4128 76.3771 69.3605 76.4435 69.2426C76.5877 69.1576 76.7319 69.0898 76.8798 69.0198C77.138 69.2842 77.3698 69.4719 77.446 69.2027L77.2366 68.8347C77.3058 68.7935 77.3767 68.748 77.4492 68.6953L78.0251 69.0043C78.1052 68.9418 78.1648 68.8865 78.2106 68.8363C78.4808 68.8551 78.503 68.5228 78.4483 68.0688C78.4639 68.0452 78.4809 68.0208 78.5013 67.9944C79.0361 68.0026 79.7692 67.569 80.2623 67.2709C80.2797 67.2813 80.2949 67.2959 80.3133 67.3041C80.307 67.2852 80.3057 67.2672 80.3001 67.2483C80.4897 67.1334 80.6413 67.0417 80.7252 67.01C81.0331 67.1329 80.6192 67.4282 80.5851 67.6064C80.8475 67.4119 80.9754 67.2317 81.0822 67.0583C81.2415 67.1757 81.3889 67.2875 81.4685 67.2611C81.3645 67.0788 81.2928 66.933 81.2397 66.8076C81.3773 66.6013 81.5609 66.3998 82.0029 66.1901L82.081 66.3102C82.1905 66.2144 82.3136 66.1258 82.4287 66.0331C82.4476 66.1527 82.4597 66.2855 82.456 66.4487C82.4435 66.1535 82.7031 66.0369 82.7389 65.786C83.0675 65.5383 83.4091 65.2973 83.7703 65.0662C83.8103 65.1111 83.8517 65.1631 83.8969 65.2301C83.8888 65.1484 83.8697 65.0818 83.8467 65.0196C84.057 64.8861 84.2739 64.7559 84.4918 64.6263L88.2907 62.9937C88.1425 62.9653 87.972 62.8627 87.7981 62.7554C88.2577 62.49 88.7047 62.2153 89.1383 61.9312C89.1693 61.9587 89.1992 61.9861 89.2333 62.0135L89.9124 61.6043L89.9392 61.8316C89.9945 61.7926 89.9857 61.6963 89.9602 61.5772L92.2477 60.1901C92.2832 60.0774 92.286 59.9724 92.2694 59.8706C92.624 59.6655 92.9742 59.4558 93.3161 59.2404C93.5033 59.5266 93.6794 59.6705 93.8216 59.4834L93.6118 59.0497C94.2087 58.6617 94.7746 58.2549 95.2853 57.8228L95.4816 58.326C95.5455 58.1493 95.5324 57.9096 95.4777 57.655C95.6581 57.4953 95.8335 57.3336 95.9975 57.1664C96.1559 57.1396 96.3141 57.117 96.4716 57.1083L96.391 56.945C96.9275 57.1595 97.0252 56.5947 97.4794 56.5614L97.1729 56.4369C97.1748 56.4232 97.1783 56.4141 97.1811 56.4012L97.7379 55.9976L98.0016 56.2525C98.0844 56.0862 98.0295 55.9635 97.9747 55.8258L98.2825 55.6027C98.3561 55.6507 98.4524 55.6827 98.5474 55.6833C98.5108 55.5259 98.728 55.2333 98.5837 55.1597C98.6305 55.1098 98.6685 55.0711 98.6957 55.0617C98.8894 55.2281 98.7785 55.401 98.8198 55.5482C99.0033 55.2328 98.7294 54.8136 99.0672 54.6048L99.1449 54.7243C99.5837 53.5996 100.723 53.1608 101.407 52.2283C101.331 52.2404 101.292 52.1361 101.216 52.0587C102.093 51.3376 103.203 50.6839 103.378 49.1711C102.967 49.5327 101.903 49.4082 101.602 50.1378C101.589 50.1341 101.577 50.1299 101.565 50.1256L101.556 50.2749C101.541 50.3373 101.529 50.4039 101.524 50.4775C101.141 50.2667 101.1 50.9087 100.756 50.4974C100.088 50.6816 100.013 51.291 99.7014 51.768C99.6895 51.7311 99.6619 51.7016 99.6074 51.6842C99.3169 51.7406 99.3364 51.9191 99.4454 52.0539C99.4003 52.0929 99.3589 52.1343 99.3048 52.1676C99.1522 52.1473 99.0737 51.8948 98.9187 51.6994L99.3755 51.1432L98.9153 51.1695C98.9511 50.8769 99.4123 50.807 99.2199 50.375C99.0914 50.8108 98.7142 51.0361 98.3855 51.2935C98.3585 51.0171 97.9321 50.8791 97.935 50.6071L97.3611 51.6893L97.8521 51.0404C98.3244 50.9692 98.3621 51.1589 98.2634 51.3911C98.0562 51.5708 97.8878 51.7782 97.8477 52.0875C98.1163 52.0675 98.3058 51.7946 98.5737 51.6858C98.7661 51.7666 98.996 51.774 99.1125 51.9996C98.7764 53.0425 98.0137 53.0741 97.4132 53.7031C97.2728 53.8505 97.0347 53.9459 96.8763 53.8004C97.4305 53.4207 97.9197 52.9811 98.292 52.4454C97.4282 52.8327 95.805 52.755 94.8601 53.4615C94.8094 53.4224 94.7629 53.3879 94.7258 53.3664C94.7425 53.4005 94.7746 53.447 94.8102 53.4987C94.6882 53.5958 94.5804 53.709 94.4869 53.8372C94.4795 53.821 94.4772 53.8052 94.4682 53.7883C94.4272 53.8199 94.3905 53.8503 94.3521 53.8745C94.4472 53.7487 94.5391 53.6218 94.6245 53.4928C94.3862 53.6567 94.1024 53.813 93.7941 53.9681C93.6989 53.7711 93.5953 53.5581 93.4404 53.4023C94.0776 52.8204 94.6381 52.2011 95.0397 51.5183C94.6193 51.8082 94.0332 52.0577 93.414 52.3247C93.757 51.5285 94.2665 50.3901 94.3253 49.0939C94.6558 49.5433 94.8037 49.4575 94.9355 49.2755L94.5797 50.0632L94.992 49.4535C95.7937 49.3619 95.2552 50.0949 95.0763 50.3401C95.987 49.627 95.1587 49.4661 95.0551 49.0972C95.1651 48.9352 95.2964 48.7944 95.5369 48.902C95.6906 49.109 95.9393 49.3338 96.0375 49.8118L95.9267 49.892C96.6076 49.8956 96.9933 48.9275 97.1917 47.9229L97.8812 48.87C98.9413 48.9337 97.0346 47.2464 97.8445 46.6178C98.5156 47.6552 99.1935 46.7321 99.5963 47.6349C99.7285 47.4693 99.8232 47.4822 99.5717 46.7874C99.3825 46.7602 99.1197 47.0942 99.0016 46.2334C99.1886 45.7938 99.5709 46.3218 99.7978 46.1696C99.856 46.3658 99.9143 47.0296 99.9526 46.8473C100.386 46.1661 101.54 45.7805 101.387 43.6955C101.236 43.9549 101.483 44.6497 101.046 44.3961C100.855 43.8973 101.045 43.9243 101.007 43.6404C100.607 42.7332 100.952 44.3833 100.379 43.8221L100.455 42.5217L99.8287 41.7736L100.041 38.8965C98.8176 38.6182 99.7325 42.2271 98.4548 41.2846C98.4666 40.9532 98.2462 40.7517 98.1251 40.5347C98.0528 41.0803 97.7505 41.1873 97.8365 41.8492L97.4266 41.9725C97.2331 41.4743 96.9054 40.2049 97.3259 40.0809C96.4179 40.349 96.0309 41.5469 95.4492 42.3466C95.3423 42.3357 95.2797 42.6876 94.9771 42.6851L95.2731 42.1679L94.9071 42.114L95.5917 40.9566C94.6689 41.293 94.7489 42.3188 93.8997 42.4269C93.969 42.2977 93.8303 42.3014 93.7728 42.2637C93.6169 42.4947 93.3567 42.6445 93.3051 42.8628L92.9562 43.0576C92.8927 42.9391 92.8625 42.579 93.2194 42.3809C92.8863 42.5662 92.5998 42.7829 92.3312 43.0101C92.1441 42.9788 91.9992 43.0349 91.94 43.3289C91.666 42.7293 92.1455 42.7957 91.9917 42.5892C91.6716 42.5128 91.5064 42.6988 91.3966 42.9849C90.4316 41.4843 91.378 42.5698 91.1329 42.0309L91.1043 41.8235L91.1286 41.8031C91.2458 41.9837 91.3772 42.216 91.5375 42.5699C91.3714 42.2211 91.5544 42.2664 91.2184 41.7396L91.4609 41.5566C91.5104 41.6194 91.57 41.6989 91.649 41.8147C91.5943 41.7049 91.5431 41.6181 91.4903 41.5346L92.5419 40.7307C92.4064 40.6354 92.1249 40.2873 91.9553 40.1395C91.5363 39.327 91.5999 39.5885 91.4585 39.4448L91.6314 39.3279C91.729 39.5431 91.8746 39.8136 92.1385 40.2023L91.9688 39.7079L92.1775 40.0634L92.2263 39.8738C92.0101 39.5552 91.8992 39.4019 91.7809 39.2266L91.873 39.1638C92.0353 39.4101 92.2329 39.7194 92.5257 40.0655L92.6332 39.8387L92.7359 40.0363C92.7423 40.013 92.6999 39.9299 92.6416 39.8242L92.9982 39.0544C92.8911 38.755 92.6833 38.4662 92.4384 38.1195L92.5795 37.9017L92.6706 38.1048C92.6819 38.0803 92.6441 37.9945 92.5909 37.8859L92.6298 37.825C93.0175 38.4209 93.3677 38.9374 93.3349 38.7207L92.691 37.7297L92.7167 37.6894L92.7781 37.7248C92.7611 37.7105 92.7427 37.6911 92.7256 37.6759L93.0182 37.2179L93.5185 38.0194C93.4502 37.8203 93.269 37.4886 93.062 37.1492L93.1104 37.0738L93.1752 37.1999L93.2793 36.9954L92.7493 36.1301C92.8608 36.3356 93.0449 36.7349 92.9064 36.5738C92.8476 36.4713 92.7806 36.3652 92.7086 36.255L92.5093 35.9091L92.6076 36.0997C92.3978 35.7804 92.1603 35.4132 91.9552 34.9368C91.806 35.025 91.2413 34.5401 91.7787 35.5734C91.6827 35.3961 91.5648 35.1905 91.4814 35.096L91.9871 36.206L92.2658 36.4935C92.6003 37.2294 92.5208 37.4442 92.3056 37.324C92.155 37.0914 92.0133 36.875 91.903 36.7155L92.1903 37.2387C92.1045 37.1618 92.0089 37.0515 91.9126 36.9102C91.8793 36.4547 91.0755 35.2348 91.7039 35.7905C91.5089 35.4706 91.1408 34.9218 91.0939 34.7136C91.0266 35.2447 90.444 34.8006 90.7783 36.0609C91.2612 36.6001 91.2946 36.8348 91.4105 37.2013C91.3897 37.1733 91.3671 37.1413 91.3495 37.1214L91.441 37.2942C91.5225 37.5341 91.6514 37.8369 91.9516 38.3055L91.9266 38.2056L92.194 38.4834C92.2649 38.6168 92.3205 38.7328 92.3633 38.8319L92.3474 38.8424C92.3567 38.8487 92.3648 38.8515 92.3728 38.8557C92.6233 39.4473 92.3897 39.4136 92.069 39.0311L92.3474 38.8424C92.2029 38.7481 91.9244 38.3959 91.7471 38.2492C91.5698 37.8547 91.4854 37.7099 91.43 37.6493C91.459 37.6522 91.5192 37.6934 91.6262 37.7913C91.4467 37.5199 91.1355 37.0794 91.0134 36.837C91.04 36.8654 91.0681 36.8976 91.0987 36.9354C91.0576 36.8578 91.0139 36.7854 90.9713 36.7116C90.9717 36.6951 90.9729 36.6794 90.9712 36.6595C90.9609 36.6633 90.9583 36.6753 90.9599 36.6911C90.7047 36.2511 90.424 35.8484 90.122 35.3036C89.5614 34.7292 90.9953 37.3121 90.601 37.0192C90.2417 36.3724 89.9749 35.7802 89.9113 35.9312L89.8614 35.7769C90.0029 36.285 89.5996 35.6411 89.4811 35.5063C89.4553 35.3827 89.3901 35.198 89.2924 34.9662C89.2365 34.8083 89.1591 34.594 89.0595 34.3327C89.3645 34.7623 88.845 33.81 88.9918 33.9051C89.1901 34.307 89.508 35.0036 89.5819 35.1061C88.8165 33.6304 90.4613 35.7309 89.8815 34.7049C89.7001 34.3487 89.5423 34.0169 89.3897 33.69C89.6166 33.7746 89.5501 33.3174 89.2088 32.4567C89.2521 32.6928 89.165 32.5412 89.0385 32.2951C89.0728 32.2553 89.0997 32.2013 89.2004 32.2646C89.2078 32.2754 89.2123 32.2811 89.2185 32.29L89.4446 32.6909C89.5075 32.7485 89.532 32.7376 89.5448 32.704C89.616 32.8798 89.6746 33.0174 89.7032 33.0585C89.6234 32.8788 89.578 32.7541 89.5552 32.6646C89.5644 32.5959 89.562 32.5009 89.619 32.4989C89.6402 32.5067 89.6652 32.5198 89.6924 32.5374L90.1888 33.282C90.1391 33.1196 90.1399 32.9928 90.1688 32.9048C90.2223 32.9331 90.2438 32.9157 90.2154 32.8244C90.2291 32.8107 90.2423 32.7947 90.2599 32.7883C90.1986 32.6907 90.1505 32.6238 90.1069 32.568C90.0534 32.4425 90.0066 32.3239 89.9574 32.2026C90.027 32.3179 90.1096 32.4471 90.2095 32.5959C90.0137 31.9844 89.7334 31.1051 89.2064 30.0141C89.6277 30.5918 89.5276 30.3204 89.4869 30.127C89.5236 30.1083 89.5499 30.0698 89.5857 30.0475C89.5881 30.0498 89.5897 30.0506 89.5927 30.053C89.7397 30.2538 89.9308 30.4848 90.1713 30.9053L90.1622 30.9547C90.3323 31.0284 90.2852 30.7436 90.138 30.3163C90.1623 30.2827 90.198 30.2683 90.2621 30.3056L90.7354 31.086C90.6838 30.8046 90.7712 30.6027 90.9081 30.5571C90.6481 30.0898 90.5826 30.2419 90.3207 29.6482C90.251 29.6696 90.2549 29.7987 90.5592 30.2896C90.5473 30.294 90.5218 30.2682 90.4911 30.2314C90.3496 29.9831 90.0388 29.5493 89.8039 29.1673L89.777 28.8492C89.904 28.9948 89.9897 29.0605 90.0599 29.1005C90.0978 29.1845 90.1286 29.2418 90.1528 29.2345L90.0901 29.1172C90.1845 29.1657 90.2598 29.1857 90.3921 29.3379C90.4556 29.5648 90.5806 29.861 90.8818 30.3545C90.756 29.713 90.5806 28.791 90.1507 27.6552C90.7865 28.5979 90.2398 27.3301 90.6135 27.6767C90.7528 27.8832 90.9401 28.1201 91.1505 28.5563L91.13 28.6094C91.4289 28.7201 91.2586 27.9287 90.9939 27.075L91.6265 28.0174C92.1116 28.2396 90.6894 26.4561 90.8223 26.0274C91.4773 27.0449 91.4478 26.3328 91.9388 27.1906C91.9384 27.0648 91.9839 27.0903 91.6308 26.4386C91.5394 26.3863 91.5426 26.641 91.1893 25.8634C91.1168 25.5036 91.4676 26.0277 91.5126 25.9275C91.6067 26.1096 91.8644 26.7046 91.8171 26.5496C91.7666 26.0136 92.1317 25.8483 91.3354 23.9838C91.3608 24.1902 91.7114 24.8408 91.4327 24.5508C91.1753 24.0812 91.2668 24.1339 91.151 23.8775C90.6602 23.0154 91.3875 24.5251 90.9426 23.9432L90.5202 22.8059L89.986 22.0503L89.0714 19.5416C88.4424 19.111 90.1029 22.4362 89.218 21.4112C89.1073 21.1202 88.941 20.9092 88.8123 20.6986C88.9718 21.1696 88.8782 21.2186 89.147 21.8164L89.0126 21.8631C88.7539 21.3939 88.1666 20.2234 88.306 20.1775C87.8189 20.3419 88.7872 22.8754 87.8781 22.282C87.737 22.0731 87.7819 21.9713 87.6659 21.8414C87.7612 22.1518 87.8351 22.5133 87.9988 22.7967C87.9044 22.6155 87.7163 22.2523 87.7377 22.1999C87.7668 22.7888 86.851 21.4334 87.0896 22.2071C86.7599 21.6362 86.9931 21.7697 86.8534 21.5639C86.5639 21.3597 86.7497 21.9157 86.9026 22.4298C86.9083 22.4527 86.916 22.4779 86.925 22.5061C87.0207 22.8329 87.0924 23.1261 87.0048 23.1716C86.752 22.603 86.6059 22.4346 86.4388 22.2537C86.3407 22.0333 86.6854 22.4204 86.3796 21.8895L86.4873 22.0643L86.3238 21.6956C86.3074 21.7723 86.1819 21.7813 86.4319 22.2464C86.3509 22.1588 86.2653 22.0677 86.1594 21.9257C86.3765 22.7489 86.0778 23.145 86.1111 23.8624C85.0431 21.7935 85.7645 23.9795 84.771 22.2718C84.7005 22.2937 84.774 22.6526 85.1316 23.3008C84.9868 22.9639 85.3666 23.4375 85.5546 23.7974C85.5442 23.8839 85.5118 23.9594 85.5354 24.1114C85.3827 24.0093 85.4417 24.2155 85.5596 24.5103C85.5588 24.5104 85.558 24.5109 85.5569 24.511L85.2814 24.147C85.3497 24.2711 85.419 24.4004 85.4876 24.529C85.476 24.5327 85.4629 24.5323 85.4517 24.538C84.8925 24.2072 85.6091 24.2786 84.9189 23.8958C84.8529 23.8801 84.7769 23.8677 84.706 23.854C84.5322 23.48 84.3803 23.1089 84.3144 22.8988L84.1482 22.7248C84.0852 22.5209 84.0066 22.2914 83.9038 22.0246C83.914 22.1776 84.0915 22.5673 84.0801 22.654L83.9136 22.4794C83.747 22.1351 83.8118 22.1519 83.7153 21.9165C83.2468 21.0424 83.9265 22.5742 83.4902 21.9835L83.1113 20.8295L82.5902 20.0637L81.7818 17.5134C81.1318 17.0819 82.6898 20.4559 81.8099 19.4184C81.7098 19.1234 81.5456 18.9094 81.421 18.6969C81.5614 19.1748 81.4572 19.2258 81.7079 19.831L81.5601 19.8801C81.3123 19.405 80.7568 18.2199 80.9107 18.1715C80.3692 18.3448 81.2569 20.9103 80.3204 20.3234C80.1811 20.1136 80.2351 20.0086 80.1177 19.8782C80.1785 20.1038 80.2275 20.3558 80.3083 20.5858C80.3038 20.5858 80.3 20.5859 80.2952 20.5862C80.2227 20.4303 80.1585 20.2764 80.1745 20.2429C80.1741 20.5185 79.9817 20.3793 79.7947 20.2244C79.7796 20.1364 79.7648 20.0469 79.7494 19.9552C79.9665 19.9918 80.3732 20.3556 79.5827 18.9595C79.5585 18.8149 79.5342 18.6684 79.5096 18.5211C79.5344 18.5786 79.5631 18.6421 79.6007 18.7184C79.5718 18.6387 79.5355 18.5562 79.5018 18.4748L79.501 18.4681C79.9053 17.9819 80.4388 17.6539 81.0044 17.3578C81.0223 17.4125 81.044 17.4717 81.0735 17.5406C80.9378 17.1977 81.2192 17.5174 81.1638 17.2754C81.735 16.9831 82.3234 16.706 82.8262 16.3097C82.7327 16.312 82.7157 16.2025 82.647 16.115C83.0412 15.9211 83.4616 15.7372 83.8723 15.5298C83.9274 15.6252 84.0641 15.7055 84.2043 15.7247C84.1914 15.5899 84.3792 15.3852 84.3534 15.2695C85.0545 14.8601 85.6815 14.3342 86.0381 13.5018C85.3672 13.8491 83.8737 13.46 83.4611 14.5671C83.0646 14.3058 82.8345 14.9443 82.5417 14.4872C81.4267 14.6208 81.3282 15.6275 80.3455 15.9838C80.1705 15.9443 80.1481 15.6806 80.0198 15.4643L80.7187 14.9611L80.1649 14.9305C80.2897 14.6395 80.8576 14.6282 80.7511 14.1695C80.3611 14.7651 79.5021 14.8806 78.977 15.3056C78.9434 15.106 78.9112 14.9173 78.8804 14.7377C78.8832 14.7366 78.8862 14.7352 78.8885 14.7339C79.1863 14.65 79.4812 14.5544 79.7744 14.4527C79.7533 14.5541 79.6921 14.6579 79.6985 14.7447C79.8028 14.6361 79.8561 14.5244 79.8933 14.414C81.8831 13.7062 83.7654 12.6194 85.4246 11.5501C85.5323 11.5071 85.6331 11.4022 85.7314 11.2699C86.3241 10.9774 86.9009 10.6736 87.4562 10.3721C87.7945 10.2703 88.1001 9.54407 88.462 9.17454C87.8929 9.16021 87.9189 9.45054 87.3966 9.57108C87.0969 9.53344 86.8565 9.26303 86.591 9.00837C87.4253 8.41613 88.1645 7.7241 88.5791 6.79433C87.7484 7.32316 85.8807 7.28691 85.3894 8.55084C84.8911 8.37634 84.6163 9.10314 84.2436 8.69763C84.1721 8.71974 84.117 8.74989 84.0522 8.77518C84.0293 8.74004 84.006 8.70506 83.9834 8.6639L84.029 8.78438C83.799 8.87589 83.5969 8.98217 83.4299 9.10733C83.3484 9.10939 83.2727 9.1026 83.2086 9.07911C83.6232 8.61615 83.9534 8.06932 84.0707 7.34666C83.5481 7.80527 82.1592 7.68695 81.9811 8.79963C81.9099 8.79276 81.845 8.76183 81.7932 8.68994C81.8944 8.56602 81.9102 8.40259 81.9071 8.23085C81.9444 8.21264 81.9856 8.1964 82.0353 8.18521L81.7461 7.85456L81.3122 8.39077C81.3383 8.40368 81.358 8.40896 81.3805 8.41766C81.2982 8.59534 81.3289 8.81494 81.3726 9.03918C81.3036 9.05063 81.2271 9.0247 81.129 8.91325C80.3209 9.16418 80.2475 9.89397 79.7884 10.4239C79.6327 10.4955 79.486 10.5059 79.3801 10.3777C79.5062 10.2139 79.4926 9.99903 79.4736 9.78266L79.5763 9.66789L79.0694 9.72112C79.1275 9.41729 79.6367 9.31682 79.4512 8.88041C79.154 9.70523 78.0105 9.86068 77.8377 10.7292C77.9823 10.7121 78.1101 10.6329 78.2384 10.5421L78.074 10.8164L78.3857 10.4375C78.4734 10.3756 78.5629 10.3156 78.6612 10.2742C78.7354 10.3007 78.8148 10.3186 78.8927 10.3391C78.8894 10.434 78.9028 10.5335 78.9238 10.6349C78.6198 10.6752 78.3399 10.7567 78.177 11.0072C77.9407 11.1766 77.3698 10.6765 76.8856 10.9098L77.0388 11.256C77.0348 11.2562 77.0331 11.2547 77.0285 11.2552C76.9964 11.2713 76.9769 11.2863 76.9496 11.302C76.8236 11.2534 76.6701 11.2177 76.4978 11.1863L76.4542 11.1213L76.4175 11.1721C76.1048 11.1186 75.7423 11.0727 75.3826 10.9875L75.386 10.983L75.3821 10.9874C74.8923 10.871 74.41 10.6801 74.0764 10.2884C73.8285 10.7836 74.1548 10.3716 74.287 10.7432C73.7225 11.4905 73.3889 10.7779 72.8853 10.6428C72.5126 11.0369 73.3093 10.6945 73.1969 11.1319C72.7965 11.0828 72.6967 11.2526 72.5987 11.4472C72.4639 11.3728 72.3554 11.2862 72.4344 11.0666C71.8207 11.1452 71.3561 11.692 70.9729 12.1707C70.6104 12.3082 70.214 12.4265 69.8517 12.5769C69.7109 12.3416 69.5684 12.1035 69.4241 11.8607C69.3319 11.9114 69.2377 11.9595 69.1454 12.0099C69.3626 12.3053 69.4436 12.5443 69.5222 12.7317C69.5143 12.7358 69.5055 12.7388 69.4973 12.7431C69.4241 12.7491 69.3448 12.7598 69.2685 12.7684C69.1732 12.5665 69.0669 12.3488 68.9593 12.1098C68.6228 12.2932 68.2832 12.4705 67.9461 12.6526C67.9648 12.7416 67.9914 12.8476 68.0262 12.9697L68.0062 12.9738L67.8655 12.6958C67.8189 12.7211 67.772 12.7457 67.7254 12.7709C67.7102 12.8452 67.659 12.8663 67.5831 12.8472C67.5058 12.8889 67.4278 12.9302 67.3505 12.9719C67.3661 13.0693 67.3295 13.0749 67.262 13.0192C67.1507 13.0789 67.0392 13.1383 66.928 13.1983C66.4062 13.3052 65.8802 13.3978 65.3771 13.4351L65.4304 13.6091C65.2406 13.5506 65.0782 13.5593 64.927 13.5999C64.8917 13.5493 64.861 13.4961 64.8445 13.4373C64.8693 13.5072 64.885 13.562 64.8969 13.6097C64.5084 13.7272 64.1956 14.0626 63.7233 14.1121L64.1187 14.2242C63.878 14.6798 63.582 14.5953 63.2852 14.8777L62.8597 14.4964C62.5503 14.8273 62.8813 14.9699 62.7243 15.3463C62.3661 15.2507 61.9552 15.555 61.6897 15.7509C61.5886 15.7671 61.492 15.797 61.3974 15.8358C61.2909 15.6862 61.4537 15.5117 61.4448 15.3734C61.267 15.554 61.2351 15.748 61.1872 15.9313C60.9238 16.0625 60.6579 16.216 60.3258 16.24L60.6889 16.352C60.5988 16.4721 60.4985 16.5838 60.3968 16.6938C60.2113 16.7967 60.0175 16.826 59.8137 16.995L59.395 16.5981C59.047 16.92 59.3844 17.0768 59.1902 17.4467C58.6822 17.2929 58.0068 17.8935 57.818 17.9432C57.5985 17.7709 57.8415 17.5743 57.8441 17.4151C57.428 17.7721 57.6594 18.2171 57.0594 18.4642L56.9932 18.3377C55.851 19.6028 53.9564 20.1677 52.5584 21.2627C52.6774 21.2432 52.6947 21.3546 52.7788 21.4333C51.2112 22.2891 49.3383 23.123 48.5128 24.7572C48.2795 24.8522 48.0455 24.9461 47.8125 25.0468C47.6767 25.1043 47.5444 25.1665 47.4098 25.2259C47.3727 25.1998 47.3342 25.1786 47.2976 25.1685C47.3068 25.1995 47.3085 25.2347 47.3081 25.2708C46.9544 25.4275 46.6062 25.5881 46.2629 25.7529C46.3095 25.6159 46.3909 25.4854 46.4373 25.4132C46.2428 25.5505 46.171 25.6779 46.165 25.7998C43.9302 26.8803 41.9471 28.097 40.629 29.0691C39.9618 29.1814 39.2639 29.6949 38.6808 29.9903C39.0414 29.8818 39.0312 30.0975 38.7885 30.2414C37.1371 31.3104 38.7601 30.4526 37.1836 31.656C36.9077 31.8883 36.4969 32.2047 35.9982 32.5786C36.1403 32.3906 36.012 32.3032 35.8955 32.1982C36.0419 31.9368 36.3622 31.8241 36.5087 31.5793L35.8516 32.1564C35.8025 32.1042 35.7652 32.0448 35.7695 31.9648C35.778 32.0788 35.7715 32.1676 35.7578 32.2385L35.6845 32.3029L35.7432 32.2961C35.632 32.6632 35.2763 32.4001 35.8714 32.6726C35.6249 32.8567 35.36 33.0522 35.0791 33.2581L35.2713 32.6032C34.7723 32.9142 34.1121 33.4944 34.1363 32.9298C33.5337 33.9393 31.8616 34.6456 30.9178 35.5756L30.7734 35.1579C30.4641 35.9447 28.6529 36.3634 28.4733 37.1979L28.3002 37.0947L27.4552 38.2663C26.9139 38.5242 26.7587 37.8583 26.8086 38.0394C25.7359 38.8047 24.868 39.3592 24.0282 39.5979C24.1417 40.2069 23.0335 41.0456 22.1295 41.6736C19.7696 42.8808 17.4499 44.3528 15.2534 45.9325C13.5915 47.124 11.9785 48.4002 10.566 49.7634C10.4008 49.5838 10.2885 49.4906 10.3426 49.6684L10.4749 49.8535C10.3989 49.9278 10.3254 50.0024 10.251 50.0766C10.2238 50.021 10.2007 49.9672 10.1867 49.9173C9.99658 49.7814 10.0215 49.9218 10.141 50.186C9.87965 50.4495 9.62491 50.7159 9.38029 50.986C9.26969 50.8793 9.17188 50.7868 9.14606 50.798C9.21359 50.89 9.27152 50.9712 9.32416 51.046C9.30773 51.0642 9.28952 51.0827 9.2731 51.1009C9.18035 51.1849 9.09551 51.2931 9.01366 51.4104C9.00659 51.3949 8.99965 51.3822 8.99222 51.3661C9.00102 51.384 9.00486 51.3972 9.01182 51.4132C8.69801 51.8646 8.45392 52.5191 8.20268 53.123L7.6013 53.6228C7.75893 53.6966 8.07379 54.017 8.26911 54.1416C8.53702 54.6247 8.6222 54.7157 8.68334 54.74C8.6383 54.7811 8.59251 54.8221 8.54848 54.8642C8.4464 54.667 8.29762 54.4284 8.04993 54.1138L8.21711 54.6217L7.99156 54.2764L7.91718 54.4975C8.12601 54.7632 8.24596 54.9058 8.36017 55.0497C8.32499 55.0854 8.29361 55.1231 8.25908 55.1593C8.08729 54.9315 7.87848 54.652 7.56788 54.3554L7.41902 54.6316L7.30939 54.4371C7.29998 54.4642 7.34505 54.5462 7.40813 54.6495L6.91395 55.5843C6.91817 55.5969 6.92579 55.6088 6.93076 55.6213L6.77669 55.6465L6.69606 55.7981C6.69606 55.7981 6.88811 56.1886 7.21381 56.781C6.8106 56.2484 6.4585 55.8135 6.48178 56.0353L7.25432 57.063L7.39624 57.1095C7.75718 57.7492 8.23568 58.5503 8.78528 59.3497C9.13928 59.8648 9.52259 60.3769 9.92055 60.8445C10.1448 61.2106 10.3798 61.5604 10.624 61.8787C10.6094 61.9718 10.5938 62.0738 10.4698 62.022L9.91093 61.3027C9.99261 61.5796 9.92771 61.796 9.79523 61.8625C10.108 62.2951 10.1562 62.1326 10.4851 62.6931C10.5517 62.6617 10.5337 62.5319 10.1742 62.0809C10.2389 62.0464 10.7469 62.7413 11.0431 63.0492L11.175 63.7059C11.1203 63.6683 11.0699 63.6126 11.0215 63.5484L11.587 64.3603C11.523 64.3947 11.3594 64.2055 11.1305 63.8701C11.1734 64.0464 11.3375 64.3542 11.4835 64.634C11.4375 64.6589 11.391 64.6849 11.3445 64.7109C11.0853 64.2778 10.9391 63.9969 10.9993 63.9342L10.8524 64.0519C10.3708 63.2488 10.7663 63.234 9.84363 62.0627C10.0408 62.6897 10.3251 63.5938 10.8945 64.6721C10.1483 63.8202 10.8491 65.0124 10.4378 64.7201C10.2733 64.5339 10.0577 64.3243 9.79396 63.918L9.80728 63.8615C9.49723 63.7973 9.76686 64.5669 10.1433 65.3807L9.39278 64.5338C9.06242 64.4384 9.63762 65.0644 10.0636 65.6386C9.9861 65.7167 9.91116 65.7967 9.84229 65.8819C9.65818 65.8188 9.55709 65.8772 9.20022 65.4163C9.2159 65.5223 9.18805 65.5313 9.43694 65.8815L8.85091 65.8411L8.80196 65.9582C8.80196 65.9582 9.3667 67.0429 10.1849 68.3779C10.2138 68.4259 10.2398 68.4709 10.2708 68.5214C10.27 68.5186 10.2676 68.5145 10.2665 68.5114C10.461 68.8258 10.6683 69.152 10.8851 69.4807C11.5242 70.449 12.2435 71.4299 12.9396 72.1613L13.1671 72.5739C13.2697 72.6265 13.3051 72.5977 13.2959 72.5154C13.4885 72.6945 13.6772 72.8484 13.861 72.9746L13.9374 73.1307C13.9439 73.1044 13.962 73.0819 13.9767 73.0521C14.1906 73.1864 14.3963 73.2791 14.5897 73.3181L14.7029 73.513L14.9184 73.3127C15.2624 73.1891 15.2385 72.8813 15.351 73.0762L14.9531 73.3452C15.2714 73.1843 15.1457 73.4288 15.1133 73.6127C15.2431 73.541 15.3726 73.4767 15.5062 73.4613C15.5104 73.3496 15.4111 73.417 15.3385 73.4109C15.4427 73.2323 15.5286 72.9024 15.773 72.8463C16.0723 72.6452 16.0042 73.1258 16.3531 72.891C17.6869 72.0359 19.0206 71.2446 20.3254 70.3736L20.6552 71.4571C21.0821 71.5928 20.8567 70.8269 20.6664 70.1429C20.8323 70.0297 20.9955 69.9079 21.1604 69.791C21.215 69.8587 21.2691 69.9247 21.3169 69.9905C21.2886 69.8822 21.275 69.7949 21.2661 69.7158C21.3873 69.6291 21.5091 69.5454 21.6295 69.4567C21.6888 69.5305 21.7495 69.6053 21.8114 69.6809C21.9069 69.8964 21.9789 70.0947 21.9996 70.2325C21.9922 70.2414 21.9841 70.2498 21.9765 70.2583C21.7837 69.9526 21.7194 69.6952 21.5836 69.5796C21.7389 70.023 21.0514 69.4431 21.7201 70.5061C21.6783 70.5448 21.6451 70.5799 21.627 70.6124C21.5939 70.5702 21.5602 70.5283 21.5279 70.4874C21.5605 70.5432 21.59 70.595 21.6171 70.644C21.6126 70.6637 21.6131 70.683 21.6251 70.7019C21.6323 70.6978 21.6378 70.6975 21.6445 70.6941C22.0078 71.3561 21.8486 71.3296 21.6846 71.2791C21.6721 71.2475 21.6639 71.2201 21.6476 71.1853C21.6636 71.2236 21.6721 71.2521 21.6769 71.2769C21.5588 71.24 21.4442 71.1981 21.525 71.3979C21.4825 71.4162 21.4621 71.4651 21.5139 71.6087C21.5125 71.6175 21.5115 71.6264 21.5101 71.6351L21.4682 71.5592L21.5 71.709C21.4617 71.9826 21.3741 72.361 20.9493 72.7018C19.8823 73.7387 18.8515 74.9975 17.8106 76.0757C17.7302 75.9653 17.8848 75.6761 18.0407 75.3864C17.9003 75.5313 17.7196 75.7832 17.5261 75.8545C17.9386 75.749 17.2169 76.4322 17.4785 76.2903C17.1408 77.4856 15.9095 78.2832 15.561 79.2824C15.7049 79.4875 16.9568 81.2796 18.2142 83.0794C18.264 83.1499 18.3143 83.2206 18.3644 83.2909C18.3348 83.283 18.3077 83.269 18.2864 83.2387C18.2163 83.3113 18.1729 83.3235 18.2547 83.4902C18.3416 83.4659 18.4815 83.3201 18.4927 83.5597C18.3832 83.7239 18.2314 83.6301 18.1178 83.7148C18.1007 83.6655 18.1071 83.4753 18.08 83.5369C17.8433 83.8166 17.2848 84.1298 17.2539 84.73C17.3373 84.6264 17.2562 84.4597 17.4474 84.4614Z" fill="black"/>
</g>
<path fill-rule="evenodd" clip-rule="evenodd" d="M82.3089 23.3316C87.1009 23.2439 91.7316 23.1592 96.0988 23.0923C97.1052 22.7707 98.4209 23.2896 98.4209 24.6537C98.4219 33.5497 98.4546 50.1456 98.9963 59.0291C99.056 60.0228 98.3889 60.5619 97.6249 60.658C97.3665 60.8644 97.0338 61.0015 96.6244 61.0256C95.1697 61.1093 93.6869 61.1957 92.1796 61.2835C69.8849 62.5828 42.2229 64.195 20.726 61.6674C19.8643 61.5661 19.345 60.9687 19.1613 60.3008C19.0554 60.0828 18.9942 59.8278 19.001 59.5278C19.0638 56.8231 19.0924 53.2808 19.1233 49.4537C19.186 41.6718 19.2582 32.7121 19.6478 27.2208C19.6478 26.4418 19.7072 25.6798 19.8538 24.9117C19.8617 24.8692 19.8766 24.8298 19.8917 24.7903C19.8983 24.7728 19.905 24.7553 19.9111 24.7374C20.066 24.0542 20.5949 23.4818 21.5168 23.5128C39.67 24.1117 62.3839 23.6961 82.3089 23.3316ZM22.5719 49.6081C22.5444 52.9692 22.5191 56.0521 22.4715 58.4274C43.7042 60.706 71.4693 59.0775 93.171 57.8047C93.9491 57.759 94.7194 57.7138 95.4814 57.6693C95.0502 49.864 94.9837 34.3499 94.9752 26.5348C91.202 26.5951 87.2158 26.6674 83.091 26.7421C63.5738 27.0958 40.9519 27.5057 23.1018 26.9744C23.1015 27.0113 23.1007 27.048 23.0998 27.0848C23.0987 27.1301 23.0977 27.1755 23.0977 27.221C22.7105 32.675 22.6352 41.8777 22.5719 49.6081Z" fill="white"/>
<path fill-rule="evenodd" clip-rule="evenodd" d="M66.1412 43.2577C64.4119 41.8762 62.273 41.2638 60.0901 40.8169C60.0173 38.9903 59.9437 37.1631 59.8622 35.3363C60.8128 35.5454 61.7236 35.8508 62.4971 36.2087C64.3893 37.0819 65.4096 34.017 63.5424 33.155C62.4343 32.6438 61.1074 32.2458 59.7168 32.0318L59.7132 31.9531L59.7132 31.9531C59.7085 31.8525 59.7039 31.7521 59.7005 31.6523C59.6114 29.5951 56.3888 29.3786 56.4787 31.457C56.4826 31.5578 56.4869 31.6583 56.4913 31.7587L56.4975 31.9039C54.4304 32.0703 52.4779 32.7592 51.1421 34.2238C48.6811 36.9217 50.5053 41.5805 53.6887 42.733C54.7428 43.1147 55.8561 43.3442 56.9821 43.5427C57.0679 46.009 57.1209 48.4766 57.1532 50.9451C55.6774 50.2511 54.3344 49.2266 53.4998 48.3166C52.0922 46.7841 49.6739 48.9198 51.0833 50.4561C52.4952 51.9945 54.7617 53.5284 57.1782 54.3546C57.1774 54.5207 57.1793 54.6863 57.1812 54.8518C57.183 55.0146 57.1849 55.1772 57.1842 55.3401C57.1728 57.4127 60.3942 57.6192 60.4068 55.535C60.4071 55.4492 60.406 55.3634 60.4048 55.2775V55.2775V55.2774C60.4034 55.1744 60.402 55.0713 60.4033 54.9682C62.0614 55.0026 63.6445 54.5535 64.9238 53.3715C67.658 50.8481 69.6055 46.0263 66.1412 43.2577ZM55.4508 39.8897C53.3984 39.3759 52.2717 36.831 54.5578 35.6828C55.1903 35.3651 55.9002 35.1909 56.6403 35.1127C56.7147 36.809 56.784 38.5044 56.8527 40.2007C56.3773 40.1062 55.9083 40.0048 55.4508 39.8897ZM60.3806 51.7478C61.159 51.7403 61.9033 51.5555 62.5537 51.1148C63.9027 50.1973 65.9764 47.0153 64.0323 45.689C62.8666 44.8931 61.5647 44.4528 60.2159 44.1423C60.3007 46.6763 60.3537 49.2121 60.3806 51.7478Z" fill="white"/>
<path d="M96.3333 62.0067C71.1683 63.8773 45.8758 64.8401 20.6675 63.01C18.4351 62.8483 18.4533 65.8596 20.6675 66.0206C45.8758 67.8499 71.1683 66.887 96.3333 65.0172C98.5467 64.8525 98.5644 61.8399 96.3333 62.0067Z" fill="white"/>
<path d="M96.3333 67.0067C71.1683 68.8773 45.8758 69.8399 20.6675 68.01C18.4351 67.8483 18.4533 70.8596 20.6675 71.0206C45.8758 72.8499 71.1683 71.887 96.3333 70.0172C98.5467 69.8525 98.5644 66.8399 96.3333 67.0067Z" fill="white"/>
<path d="M96.3333 73.0067C71.1683 74.8773 45.8758 75.8399 20.6675 74.01C18.4351 73.8483 18.4533 76.8596 20.6675 77.0204C45.8758 78.8499 71.1683 77.887 96.3333 76.0173C98.5467 75.8525 98.5644 72.8398 96.3333 73.0067Z" fill="white"/>
<path fill-rule="evenodd" clip-rule="evenodd" d="M33.9824 33.8884C33.9813 33.8999 33.9802 33.9114 33.9802 33.9232C33.9806 33.9274 33.9814 33.9313 33.9823 33.9353C33.9831 33.9391 33.9839 33.943 33.9844 33.9474C34.0915 35.0848 33.6418 36.2177 32.833 36.9662C32.8268 36.9717 32.8204 36.9764 32.8138 36.9813C32.8101 36.984 32.8064 36.9868 32.8026 36.9898C32.7186 37.0925 32.6193 37.1894 32.4896 37.2705C31.3464 37.9854 30.0501 38.1861 28.7651 37.8227C28.6481 37.7896 28.549 37.7412 28.4587 37.6861C28.3962 37.6595 28.3345 37.6289 28.2779 37.5883C27.4663 37.0077 26.7525 36.3354 26.247 35.4368C26.118 35.209 26.0708 34.9521 26.0906 34.7012C25.9155 33.7959 25.9942 32.8812 26.3262 32.0197C26.373 31.8968 26.4347 31.7843 26.5027 31.6791C26.5606 31.567 26.6323 31.4561 26.7348 31.3526C27.4891 30.589 28.4159 30.1878 29.4281 30.0753C29.5106 30.0524 29.5962 30.0344 29.6833 30.026C30.7834 29.9158 31.9118 30.1449 32.7709 30.9168C33.5946 31.6562 33.9039 32.7382 33.9841 33.8409C33.9855 33.8571 33.984 33.8727 33.9824 33.8884ZM31.4104 34.8652C31.4596 34.7709 31.5225 34.6504 31.5235 34.6766C31.5272 34.6599 31.5313 34.6409 31.5355 34.6209C31.5578 34.5172 31.5859 34.3859 31.5935 34.4061C31.5998 34.2519 31.5991 34.1011 31.5838 33.9467C31.582 33.929 31.5835 33.9121 31.585 33.8949C31.586 33.8833 31.5871 33.8716 31.5871 33.8595C31.5867 33.8572 31.5862 33.8548 31.5858 33.8523C31.585 33.8486 31.5843 33.8448 31.5838 33.8409C31.5638 33.5594 31.4981 33.2679 31.395 33.0887C31.311 32.9439 31.2364 32.8363 31.1036 32.7568C30.8292 32.5911 30.4682 32.5378 30.0721 32.5456C30.0619 32.5473 30.0517 32.549 30.0415 32.5507C29.9907 32.5593 29.9401 32.5678 29.8841 32.5693C29.3451 32.5797 28.8863 32.7366 28.5015 33.0933C28.3831 33.4832 28.3425 33.835 28.4405 34.2444C28.447 34.27 28.4499 34.2955 28.4527 34.321C28.4541 34.3336 28.4555 34.3461 28.4573 34.3587C28.7383 34.7702 29.1161 35.1208 29.4794 35.3828C30.0834 35.5348 30.6292 35.4379 31.1707 35.1295C31.1822 35.1172 31.196 35.1022 31.2109 35.086C31.2852 35.0055 31.3882 34.894 31.3807 34.922C31.3702 34.9418 31.3618 34.957 31.357 34.9643C31.3716 34.9418 31.379 34.9283 31.3807 34.922C31.3894 34.9056 31.3996 34.886 31.4104 34.8652Z" fill="white"/>
<path fill-rule="evenodd" clip-rule="evenodd" d="M91.9827 31.8882C91.9816 31.8997 91.9805 31.9113 91.9805 31.9232C91.9809 31.9271 91.9816 31.9307 91.9824 31.9344C91.9832 31.9385 91.9841 31.9427 91.9844 31.9473C92.0915 33.0848 91.6414 34.2179 90.8326 34.9662C90.8263 34.9721 90.8196 34.977 90.8125 34.9822C90.8092 34.9846 90.8057 34.9871 90.8023 34.9898C90.7186 35.0925 90.6195 35.1893 90.4897 35.2705C89.3464 35.9854 88.0503 36.1861 86.7648 35.8227C86.6483 35.7896 86.5492 35.7412 86.4585 35.6861C86.3961 35.6597 86.3342 35.629 86.2779 35.5884C85.4662 35.0077 84.7526 34.3356 84.2471 33.4368C84.1182 33.209 84.0705 32.9521 84.0908 32.7012C83.9157 31.796 83.9938 30.8813 84.3259 30.0198C84.3727 29.8969 84.4345 29.7843 84.5024 29.6791C84.5603 29.5669 84.6323 29.4561 84.7346 29.3526C85.4894 28.5889 86.4162 28.1879 87.4281 28.0752C87.5109 28.0526 87.5962 28.0343 87.6836 28.026C88.7837 27.9159 89.9121 28.1448 90.7709 28.9168C91.5944 29.6561 91.9039 30.7381 91.9844 31.8409C91.9857 31.857 91.9842 31.8726 91.9827 31.8882ZM89.4111 32.8646C89.4602 32.7705 89.5227 32.6505 89.5238 32.6766C89.5276 32.6595 89.5318 32.6399 89.5362 32.6193C89.5584 32.5158 89.5862 32.3858 89.5934 32.4061C89.5997 32.2519 89.5989 32.1011 89.584 31.9467C89.5822 31.9289 89.5837 31.9119 89.5852 31.8947C89.5862 31.8831 89.5872 31.8714 89.5872 31.8593C89.5869 31.8567 89.5864 31.8541 89.5858 31.8514C89.5851 31.848 89.5844 31.8444 89.584 31.8407C89.5637 31.5593 89.498 31.268 89.3949 31.0887C89.3112 30.9437 89.2361 30.8361 89.1033 30.7567C88.8291 30.5911 88.4681 30.5378 88.0718 30.5456C88.0616 30.5473 88.0514 30.549 88.0411 30.5507C87.9907 30.5593 87.9402 30.5679 87.8842 30.5692C87.3452 30.5795 86.8865 30.7365 86.5013 31.0932C86.3833 31.4832 86.3427 31.835 86.4404 32.2444C86.4474 32.2708 86.4503 32.2971 86.4532 32.3234C86.4545 32.3352 86.4558 32.3469 86.4575 32.3587C86.7381 32.7701 87.1164 33.1208 87.4797 33.3828C88.0837 33.5348 88.629 33.4379 89.1705 33.1295C89.1828 33.1165 89.1975 33.1005 89.2136 33.0832C89.2877 33.0032 89.388 32.8949 89.3811 32.9218C89.3705 32.9417 89.3621 32.957 89.3573 32.9643C89.3721 32.9415 89.3795 32.928 89.3811 32.9218C89.3899 32.9053 89.4001 32.8856 89.4111 32.8646Z" fill="white"/>
</svg>
