<svg width="28" height="31" viewBox="0 0 28 31" fill="none" xmlns="http://www.w3.org/2000/svg">
<path d="M16.308 30.0769C16.0417 30.0769 15.7826 29.9905 15.5695 29.8308L10.6465 26.1385C10.4936 26.0238 10.3695 25.8752 10.2841 25.7043C10.1986 25.5334 10.1542 25.3449 10.1542 25.1538V18.2369L1.51908 8.52245C0.905816 7.83061 0.505396 6.97638 0.365951 6.06243C0.226506 5.14849 0.353968 4.21371 0.73302 3.37047C1.11207 2.52722 1.72658 1.81139 2.50269 1.30899C3.2788 0.806603 4.18348 0.539036 5.10801 0.538452L22.5849 0.538452C23.5094 0.539537 24.4138 0.807547 25.1896 1.31028C25.9654 1.813 26.5795 2.52906 26.9582 3.3724C27.3368 4.21574 27.4639 5.15048 27.3241 6.06429C27.1843 6.97811 26.7836 7.83211 26.1702 8.52368L17.5388 18.2369V28.8461C17.5388 29.1726 17.4091 29.4856 17.1783 29.7164C16.9475 29.9472 16.6344 30.0769 16.308 30.0769Z" fill="#FF5A0F"/>
</svg>
