<svg width="50" height="46" viewBox="0 0 50 46" fill="none" xmlns="http://www.w3.org/2000/svg">
<path fill-rule="evenodd" clip-rule="evenodd" d="M49.3439 14.4687L41.4679 2.01491C40.6733 0.758875 39.2787 -0.00295538 37.7795 8.61729e-06H12.2205C10.7213 -0.00295538 9.32667 0.758875 8.53206 2.01491L0.656087 14.4687C-0.346051 16.0583 -0.187925 18.1064 1.04663 19.5274L23.351 45.2496C23.7633 45.7258 24.3657 46 25 46C25.6343 46 26.2367 45.7258 26.649 45.2496L48.9534 19.5274C50.1879 18.1064 50.3461 16.0583 49.3439 14.4687ZM26.9122 41.8142C26.4416 42.1894 25.8363 42.3675 25.23 42.3091C24.6236 42.2508 24.0662 41.9607 23.681 41.5032L13.4831 29.3964C12.6794 28.4456 12.823 27.0432 13.8039 26.2642C14.7848 25.4851 16.2315 25.6243 17.0351 26.5752L27.233 38.6819C27.6347 39.1405 27.8273 39.7374 27.7669 40.3361C27.7064 40.9349 27.398 41.4842 26.9122 41.8586V41.8142Z" fill="#FF35B7"/>
</svg>
