<svg width="42" height="42" viewBox="0 0 42 42" fill="none" xmlns="http://www.w3.org/2000/svg">
<path d="M30.114 0C37.233 0 42 4.998 42 12.432V29.589C42 37.002 37.233 42 30.114 42H11.907C4.788 42 0 37.002 0 29.589V12.432C0 4.998 4.788 0 11.907 0H30.114ZM30.408 18.4821C29.022 18.4821 27.888 19.614 27.888 21C27.888 22.386 29.022 23.52 30.408 23.52C31.794 23.52 32.907 22.386 32.907 21C32.907 19.614 31.794 18.4821 30.408 18.4821ZM21 18.4821C19.614 18.4821 18.48 19.614 18.48 21C18.48 22.386 19.614 23.52 21 23.52C22.386 23.52 23.52 22.386 23.52 21C23.52 19.614 22.386 18.4821 21 18.4821ZM11.592 18.4821C10.206 18.4821 9.072 19.614 9.072 21C9.072 22.386 10.206 23.52 11.592 23.52C12.978 23.52 14.112 22.386 14.112 21C14.112 19.614 12.978 18.4821 11.592 18.4821Z" fill="#9B6CFF"/>
</svg>
