<svg width="25" height="20" viewBox="0 0 25 20" fill="none" xmlns="http://www.w3.org/2000/svg">
<path fill-rule="evenodd" clip-rule="evenodd" d="M21.875 19.0352H3.125C1.39911 19.0352 0 17.66 0 15.9637V5.72536C0 5.15991 0.46637 4.70152 1.04167 4.70152C1.61696 4.70152 2.08333 5.15991 2.08333 5.72536V15.9637C2.08333 16.5291 2.5497 16.9875 3.125 16.9875H21.875C22.4503 16.9875 22.9167 16.5291 22.9167 15.9637V3.67769C22.9167 3.11225 22.4503 2.65386 21.875 2.65386H11.4583C10.883 2.65386 10.4167 2.19548 10.4167 1.63003C10.4167 1.06459 10.883 0.606201 11.4583 0.606201H21.875C23.6009 0.606201 25 1.98136 25 3.67769V15.9637C25 17.66 23.6009 19.0352 21.875 19.0352ZM1.04169 0.606201C0.466379 0.606201 0 1.06498 0 1.63092C0 2.19686 0.466379 2.65564 1.04169 2.65564C1.61699 2.65564 2.08337 2.19686 2.08337 1.63092C2.08337 1.06498 1.61699 0.606201 1.04169 0.606201ZM4.16669 0.606201C3.59138 0.606201 3.125 1.06498 3.125 1.63092C3.125 2.19686 3.59138 2.65564 4.16669 2.65564C4.74199 2.65564 5.20837 2.19686 5.20837 1.63092C5.20837 1.06498 4.74199 0.606201 4.16669 0.606201ZM7.29169 0.606201C6.71638 0.606201 6.25 1.06498 6.25 1.63092C6.25 2.19686 6.71638 2.65564 7.29169 2.65564C7.86699 2.65564 8.33337 2.19686 8.33337 1.63092C8.33337 1.06498 7.86699 0.606201 7.29169 0.606201Z" fill="white"/>
</svg>
