<svg width="24" height="25" viewBox="0 0 24 25" fill="none" xmlns="http://www.w3.org/2000/svg">
<g clip-path="url(#clip0_1322_583)">
<path d="M22.5406 6.42146C22.4218 5.94687 22.1799 5.51204 21.8392 5.16087C21.4986 4.80971 21.0713 4.55465 20.6006 4.42146C18.8806 4.00146 12.0006 4.00146 12.0006 4.00146C12.0006 4.00146 5.12057 4.00146 3.40057 4.46146C2.92982 4.59465 2.50255 4.84971 2.16192 5.20087C1.82129 5.55204 1.57936 5.98687 1.46057 6.46146C1.14579 8.20702 0.991808 9.97777 1.00057 11.7515C0.989351 13.5385 1.14334 15.3228 1.46057 17.0815C1.59153 17.5413 1.83888 17.9596 2.17872 18.2959C2.51855 18.6323 2.93939 18.8753 3.40057 19.0015C5.12057 19.4615 12.0006 19.4615 12.0006 19.4615C12.0006 19.4615 18.8806 19.4615 20.6006 19.0015C21.0713 18.8683 21.4986 18.6132 21.8392 18.2621C22.1799 17.9109 22.4218 17.4761 22.5406 17.0015C22.8529 15.2691 23.0069 13.5118 23.0006 11.7515C23.0118 9.96442 22.8578 8.18016 22.5406 6.42146V6.42146Z" stroke="black" stroke-width="2" stroke-linecap="round" stroke-linejoin="round"/>
<path d="M9.75 15.0214L15.5 11.7514L9.75 8.48145V15.0214Z" stroke="black" stroke-width="2" stroke-linecap="round" stroke-linejoin="round"/>
</g>
<defs>
<clipPath id="clip0_1322_583">
<rect width="24" height="24" fill="white" transform="translate(0 0.00146484)"/>
</clipPath>
</defs>
</svg>
