<svg width="25" height="24" viewBox="0 0 25 24" fill="none" xmlns="http://www.w3.org/2000/svg">
<path fill-rule="evenodd" clip-rule="evenodd" d="M19.2273 23.7614C18.9601 23.7625 18.6966 23.7014 18.4597 23.5834L12.977 20.8502C12.6577 20.69 12.2765 20.69 11.9572 20.8502L10.7072 21.4785C10.1736 21.7312 9.52635 21.5309 9.24933 21.0274C8.97231 20.5239 9.16678 19.9013 9.68738 19.625L10.9374 18.9967C11.8952 18.5162 13.039 18.5162 13.9968 18.9967L18.4487 21.2376L17.5934 16.5043C17.4117 15.4876 17.7641 14.4504 18.5364 13.7293L22.1441 10.3783L17.1658 9.68711C16.0941 9.53906 15.1673 8.89681 14.6876 7.96972L12.4945 3.66576L10.3014 7.96972C9.8217 8.89681 8.89495 9.53906 7.82326 9.68711L2.84497 10.3783L6.45259 13.7293C7.22841 14.4526 7.58117 15.4946 7.39561 16.5148L6.3539 22.2953C6.2873 22.6694 6.01676 22.9812 5.64419 23.1132C5.27162 23.2452 4.85362 23.1773 4.54765 22.9352C4.24168 22.693 4.09422 22.3134 4.16082 21.9393L5.20253 16.1588C5.26473 15.817 5.14564 15.4679 4.88454 15.2268L0.49838 11.1322C0.0491359 10.7152 -0.112999 10.0906 0.0802289 9.52146C0.273457 8.9523 0.788487 8.5374 1.40851 8.45143L7.48333 7.6032C7.83996 7.55205 8.14746 7.3367 8.30574 7.02725L11.0252 1.79128C11.3023 1.25524 11.874 0.915894 12.5 0.915894C13.126 0.915894 13.6977 1.25524 13.9748 1.79128L16.6943 7.02725C16.8525 7.3367 17.16 7.55205 17.5167 7.6032L23.5915 8.45143C24.2115 8.5374 24.7265 8.9523 24.9198 9.52146C25.113 10.0906 24.9509 10.7152 24.5016 11.1322L20.1155 15.2268C19.8579 15.4657 19.7391 15.8099 19.7975 16.1483L20.8392 21.9288C20.9235 22.3865 20.7913 22.8563 20.4781 23.212C20.165 23.5677 19.7029 23.7727 19.2163 23.7718L19.2273 23.7614Z" fill="white"/>
</svg>
