<svg width="49" height="40" viewBox="0 0 49 40" fill="none" xmlns="http://www.w3.org/2000/svg">
<path d="M32.427 40H43.0395C44.5136 40 45.7664 39.4696 46.7983 38.4092C47.8298 37.3486 48.3457 36.0608 48.3457 34.5453V23.6363C48.3457 22.121 47.8301 20.8334 46.7983 19.7729C45.7665 18.7126 44.5133 18.182 43.0395 18.182H36.849C36.1123 18.182 35.4857 17.9168 34.9698 17.3866C34.4539 16.8567 34.196 16.2124 34.196 15.4545V14.5459C34.196 12.5382 34.887 10.8247 36.2687 9.40396C37.6505 7.98392 39.3177 7.27365 41.271 7.27365H43.0395C43.5188 7.27365 43.9332 7.09325 44.2834 6.73363C44.6333 6.37402 44.8085 5.94774 44.8085 5.45529V1.81846C44.8085 1.32681 44.6333 0.899727 44.2834 0.540012C43.9329 0.1805 43.5189 0 43.0395 0H41.2709C39.3546 0 37.526 0.38409 35.7848 1.15088C34.0438 1.91777 32.5377 2.95501 31.2664 4.26192C29.9953 5.56892 28.9865 7.11683 28.2404 8.90673C27.4944 10.6965 27.1212 12.5762 27.1212 14.5458L27.1212 34.5457C27.1212 36.0612 27.6371 37.3489 28.6687 38.4093C29.7003 39.4697 30.9533 40 32.427 40Z" fill="white"/>
<path d="M2.54032 38.4092C3.57181 39.4696 4.82467 40 6.29882 40H16.9111C18.3852 40 19.638 39.4696 20.6696 38.4092C21.7011 37.3485 22.2168 36.0608 22.2168 34.5453L22.2168 23.6363C22.2168 22.121 21.7011 20.8334 20.6696 19.7729C19.638 18.7126 18.3851 18.182 16.9111 18.182H10.7205C9.98376 18.182 9.35669 17.9168 8.84085 17.3866C8.3255 16.8564 8.06704 16.2124 8.06704 15.4545V14.5459C8.06704 12.5382 8.75809 10.8247 10.1401 9.40396C11.5218 7.98392 13.1887 7.27365 15.1422 7.27365H16.9111C17.39 7.27365 17.8048 7.09325 18.1546 6.73363C18.5048 6.37402 18.6801 5.94774 18.6801 5.45529V1.81846C18.6801 1.32681 18.5048 0.899727 18.1546 0.540012C17.8049 0.1805 17.3901 0 16.9111 0H15.1422C13.2261 0 11.3976 0.38409 9.65619 1.15088C7.91536 1.91777 6.40946 2.95501 5.13801 4.26192C3.86666 5.56892 2.85724 7.11723 2.1116 8.90673C1.36567 10.6961 0.992313 12.5762 0.992313 14.5458L0.992313 34.5457C0.992605 36.0612 1.50806 37.3489 2.54032 38.4092Z" fill="white"/>
</svg>
