<svg width="48" height="48" viewBox="0 0 48 48" fill="none" xmlns="http://www.w3.org/2000/svg">
<path d="M35.2409 47.2267L35.2177 47.2253H35.1944H12.8037H12.7804L12.7572 47.2267C9.49979 47.4292 6.30076 46.3045 3.88839 44.1119C1.69547 41.697 0.570877 38.4978 0.77332 35.243L0.774767 35.2198V35.1965V12.8036V12.7803L0.77332 12.757C0.570859 9.50192 1.69329 6.30291 3.88587 3.88824C6.30077 1.69548 9.49991 0.57087 12.7572 0.773322L12.7804 0.774767H12.8037H35.1944H35.2177L35.241 0.773318C38.4935 0.570881 41.69 1.69314 44.1023 3.88546C46.2934 6.30326 47.4206 9.50101 47.2271 12.7591L47.2257 12.7813V12.8036V35.1965V35.2195L47.2272 35.2425C47.4274 38.498 46.3048 41.6971 44.1122 44.1118C41.6973 46.3046 38.4982 47.4292 35.2409 47.2267Z" stroke="black" stroke-width="1.5"/>
<path d="M36.1317 20.1542L20.405 35.9591C19.5872 36.7552 18.5122 37.2001 17.3906 37.2001H11.8991C11.5953 37.2001 11.3149 37.083 11.1046 36.8722C10.8943 36.6615 10.8008 36.3805 10.8008 36.0762L10.941 30.5269C10.9644 29.4264 11.4083 28.3961 12.1795 27.6235L23.326 16.4547C23.513 16.2674 23.8401 16.2674 24.0271 16.4547L27.9365 20.3485C28.1936 20.6038 28.5675 20.77 28.9647 20.77C29.8293 20.77 30.507 20.0676 30.507 19.2246C30.507 18.8032 30.3434 18.4285 30.0864 18.1476C30.0163 18.0539 26.2938 14.3474 26.2938 14.3474C26.0601 14.1132 26.0601 13.7152 26.2938 13.481L27.8594 11.8888C29.3082 10.4371 31.645 10.4371 33.0939 11.8888L36.1317 14.9327C37.5571 16.361 37.5571 18.7025 36.1317 20.1542Z" fill="#FFCE4C"/>
</svg>
