<svg width="22" height="23" viewBox="0 0 22 23" fill="none" xmlns="http://www.w3.org/2000/svg">
<g clip-path="url(#clip0_1322_586)">
<path fill-rule="evenodd" clip-rule="evenodd" d="M13.5506 10.4218C13.3276 9.90619 13.0952 9.39143 12.8472 8.88225C14.9643 7.96529 16.6659 6.72006 17.9334 5.14096C19.1701 6.60232 19.9465 8.45814 20.0608 10.4893C17.7005 10.103 15.5298 10.0815 13.5506 10.4218ZM16.0437 18.5545C15.6423 16.3983 15.0532 14.2899 14.2841 12.2329C16.0033 11.9897 17.8961 12.0529 19.9659 12.413C19.5654 14.9666 18.1079 17.1726 16.0437 18.5545ZM5.42352 18.1609C7.2282 15.3297 9.53262 13.4868 12.3879 12.636C13.2374 14.8549 13.863 17.1365 14.2609 19.474C11.2866 20.6235 7.94449 20.1297 5.42352 18.1609ZM1.92543 10.7673C5.45273 10.7621 8.49578 10.3569 11.0455 9.55471C11.2591 9.98998 11.4636 10.4274 11.6591 10.8678C8.56238 11.8355 6.00918 13.8202 4.01801 16.8078C2.58457 15.0874 1.87086 13.0008 1.92543 10.7673ZM6.90035 2.90271C8.12109 4.49986 9.20176 6.14643 10.1423 7.83596C7.91441 8.49166 5.25594 8.82854 2.18152 8.84959C2.8166 6.25084 4.56629 4.08951 6.90035 2.90271ZM16.5395 3.81451C15.4352 5.2385 13.9107 6.36471 11.9681 7.18713C11.0374 5.4817 9.97348 3.81795 8.77164 2.20318C11.4924 1.50924 14.3069 2.09018 16.5395 3.81451ZM10.9996 0.00146484C4.92465 0.00146484 0 4.92654 0 11.0015C0 17.0764 4.92465 22.0015 10.9996 22.0015C17.0754 22.0015 22 17.0764 22 11.0015C22 4.92654 17.0749 0.00146484 10.9996 0.00146484V0.00146484Z" fill="black"/>
</g>
<defs>
<clipPath id="clip0_1322_586">
<rect width="22" height="22" fill="white" transform="translate(0 0.00146484)"/>
</clipPath>
</defs>
</svg>
