<svg width="28" height="27" viewBox="0 0 28 27" fill="none" xmlns="http://www.w3.org/2000/svg">
<path opacity="0.4" d="M19.0032 0H23.5742C25.4673 0 27.0012 1.5469 27.0012 3.45595V8.06561C27.0012 9.97466 25.4673 11.5216 23.5742 11.5216H19.0032C17.1101 11.5216 15.5762 9.97466 15.5762 8.06561V3.45595C15.5762 1.5469 17.1101 0 19.0032 0Z" fill="#FFCE4C"/>
<path d="M7.99806 15.4784C9.89112 15.4784 11.4251 17.0253 11.4251 18.9344V23.5441C11.4251 25.4518 9.89112 27 7.99806 27H3.42701C1.53395 27 0 25.4518 0 23.5441V18.9344C0 17.0253 1.53395 15.4784 3.42701 15.4784H7.99806ZM23.573 15.4784C25.4661 15.4784 27 17.0253 27 18.9344V23.5441C27 25.4518 25.4661 27 23.573 27H19.0019C17.1089 27 15.5749 25.4518 15.5749 23.5441V18.9344C15.5749 17.0253 17.1089 15.4784 19.0019 15.4784H23.573ZM7.99806 0C9.89112 0 11.4251 1.5469 11.4251 3.45595V8.06561C11.4251 9.97466 9.89112 11.5216 7.99806 11.5216H3.42701C1.53395 11.5216 0 9.97466 0 8.06561V3.45595C0 1.5469 1.53395 0 3.42701 0H7.99806Z" fill="#FFCE4C"/>
</svg>
