<svg width="73" height="61" viewBox="0 0 73 61" fill="none" xmlns="http://www.w3.org/2000/svg">
<path fill-rule="evenodd" clip-rule="evenodd" d="M5.76318 47.0656C5.76318 42.8287 9.21056 39.3813 13.4474 39.3813C17.6842 39.3813 21.1316 42.8287 21.1316 47.0656C21.1316 51.3024 17.6842 54.7498 13.4474 54.7498C9.21056 54.7498 5.76318 51.3024 5.76318 47.0656ZM9.12976 47.0656C9.12976 49.4466 11.0664 51.3832 13.4474 51.3832C15.8284 51.3832 17.765 49.4466 17.765 47.0656C17.765 44.6845 15.8284 42.7479 13.4474 42.7479C11.0664 42.7479 9.12976 44.6845 9.12976 47.0656Z" fill="#FFBD1F"/>
<path d="M9.3295 16.3288H18.526C19.4341 16.3288 20.1712 15.6834 20.1712 14.8881C20.1712 14.0927 19.4341 13.4473 18.526 13.4473H9.3295C8.42136 13.4473 7.68433 14.0927 7.68433 14.8881C7.68433 15.6834 8.42136 16.3288 9.3295 16.3288Z" fill="#FFBD1F"/>
<path fill-rule="evenodd" clip-rule="evenodd" d="M28.8157 47.0656C28.8157 42.8287 32.263 39.3813 36.4999 39.3813C40.7367 39.3813 44.1841 42.8287 44.1841 47.0656C44.1841 51.3024 40.7367 54.7498 36.4999 54.7498C32.263 54.7498 28.8157 51.3024 28.8157 47.0656ZM32.1823 47.0656C32.1823 49.4466 34.1189 51.3832 36.4999 51.3832C38.8809 51.3832 40.8175 49.4466 40.8175 47.0656C40.8175 44.6845 38.8809 42.7479 36.4999 42.7479C34.1189 42.7479 32.1823 44.6845 32.1823 47.0656Z" fill="#14C4ED"/>
<path d="M32.382 16.3288H41.5785C42.4866 16.3288 43.2237 15.6834 43.2237 14.8881C43.2237 14.0927 42.4866 13.4473 41.5785 13.4473H32.382C31.4739 13.4473 30.7368 14.0927 30.7368 14.8881C30.7368 15.6834 31.4739 16.3288 32.382 16.3288Z" fill="#14C4ED"/>
<path fill-rule="evenodd" clip-rule="evenodd" d="M58.926 0H60.5531C67.4161 0 73 5.61558 73 12.5174V47.9958C73 54.8976 67.4161 60.5132 60.5531 60.5132H58.926C54.3018 60.5132 50.2661 57.958 48.1202 54.1835C45.9743 57.958 41.9386 60.5132 37.3144 60.5132H35.6865C31.0622 60.5132 27.0273 57.958 24.8814 54.1835C22.7347 57.958 18.6999 60.5132 14.0756 60.5132H12.4469C5.58394 60.5132 0 54.8976 0 47.9958V12.5174C0 5.61558 5.58394 0 12.4469 0H14.0748C18.699 0 22.7347 2.55516 24.8806 6.3297C27.0265 2.55516 31.0622 0 35.6865 0H37.3144C41.9386 0 45.9743 2.55516 48.1202 6.3297C50.2661 2.55516 54.3018 0 58.926 0ZM12.4469 57.2108H14.0756C19.1284 57.2108 23.2388 53.078 23.2388 47.9958L23.2379 12.5174C23.2379 7.43597 19.1276 3.30231 14.0748 3.30231H12.4469C7.39408 3.30231 3.2837 7.43597 3.2837 12.5174V47.9958C3.2837 53.0772 7.39408 57.2108 12.4469 57.2108ZM46.4775 47.9958C46.4775 53.0772 42.3672 57.2108 37.3144 57.2108H35.6865C30.6337 57.2108 26.5233 53.0772 26.5233 47.9958V12.5174C26.5233 7.43597 30.6337 3.30231 35.6865 3.30231H37.3144C42.3672 3.30231 46.4775 7.43597 46.4775 12.5174V47.9958ZM60.5531 57.2108C65.6059 57.2108 69.7163 53.0772 69.7163 47.9958V12.5174C69.7163 7.43597 65.6059 3.30231 60.5531 3.30231H58.926C53.8732 3.30231 49.7629 7.43597 49.7629 12.5174V47.9958C49.7629 53.0772 53.8732 57.2108 58.926 57.2108H60.5531Z" fill="#E4E9EA"/>
<path fill-rule="evenodd" clip-rule="evenodd" d="M52.0159 47.1055C52.0159 42.932 55.4085 39.5361 59.578 39.5361C63.7484 39.5361 67.141 42.932 67.141 47.1055C67.141 51.2791 63.7484 54.675 59.578 54.675C55.4085 54.675 52.0159 51.2791 52.0159 47.1055ZM55.329 47.1055C55.329 49.451 57.2348 51.3587 59.578 51.3587C61.9212 51.3587 63.8279 49.451 63.8279 47.1055C63.8279 44.7601 61.9212 42.8524 59.578 42.8524C57.2348 42.8524 55.329 44.7601 55.329 47.1055Z" fill="#EA075F"/>
<path d="M54.9481 15.9501H64.209C65.1234 15.9501 65.8656 15.2072 65.8656 14.2919C65.8656 13.3766 65.1234 12.6338 64.209 12.6338H54.9481C54.0336 12.6338 53.2915 13.3766 53.2915 14.2919C53.2915 15.2072 54.0328 15.9501 54.9481 15.9501Z" fill="#EA075F"/>
</svg>
