<svg width="34" height="33" viewBox="0 0 34 33" fill="none" xmlns="http://www.w3.org/2000/svg">
<path opacity="0.4" d="M18.4864 1.11683L22.2363 8.65245C22.5125 9.19841 23.0398 9.57755 23.6479 9.66181L32.0708 10.8885C32.5627 10.9576 33.0091 11.2171 33.3106 11.6131C33.6088 12.004 33.7368 12.4995 33.6644 12.9864C33.6054 13.3909 33.4151 13.7649 33.1236 14.0514L27.0204 19.9677C26.574 20.3805 26.3719 20.9922 26.4797 21.5904L27.9823 29.9079C28.1424 30.9122 27.477 31.8592 26.4797 32.0496C26.0687 32.1153 25.6475 32.0462 25.2769 31.8575L17.7637 27.9431C17.2061 27.6617 16.5475 27.6617 15.9899 27.9431L8.47667 31.8575C7.55353 32.3479 6.4097 32.0142 5.89591 31.1043C5.70555 30.742 5.63817 30.3292 5.7005 29.9264L7.20314 21.6072C7.31095 21.0107 7.10712 20.3957 6.66239 19.9828L0.559186 14.0699C-0.166864 13.369 -0.188764 12.2147 0.510333 11.4884C0.525495 11.4733 0.54234 11.4564 0.559186 11.4396C0.848932 11.1447 1.22965 10.9576 1.64068 10.9088L10.0635 9.68034C10.67 9.5944 11.1973 9.21863 11.4752 8.6693L15.0903 1.11683C15.4121 0.469763 16.0791 0.0670323 16.8035 0.083883H17.0292C17.6576 0.159711 18.2051 0.548962 18.4864 1.11683Z" fill="#FFCE4C"/>
<path d="M16.8287 27.7333C16.5024 27.7434 16.1846 27.831 15.8987 27.9878L8.42227 31.8933C7.50747 32.3299 6.41274 31.9911 5.89985 31.1162C5.70982 30.7589 5.64088 30.3493 5.70478 29.9481L7.19805 21.6466C7.29895 21.0431 7.09715 20.4296 6.65825 20.0048L0.552315 14.0934C-0.17246 13.3838 -0.185913 12.2191 0.523728 11.4926C0.533818 11.4825 0.542226 11.474 0.552315 11.4656C0.841553 11.1791 1.21487 10.9903 1.61678 10.9313L10.0467 9.69067C10.6571 9.61314 11.1868 9.23219 11.4559 8.67932L15.1201 1.03178C15.4682 0.414857 16.1358 0.0473976 16.8421 0.0861662C16.8287 0.586787 16.8287 27.3928 16.8287 27.7333Z" fill="#FFCE4C"/>
</svg>
