<svg width="42" height="43" viewBox="0 0 42 43" fill="none" xmlns="http://www.w3.org/2000/svg">
<circle cx="21" cy="21.0015" r="21" fill="black"/>
<g clip-path="url(#clip0_1322_596)">
<path d="M28.3125 13.251H13.6875C12.757 13.251 12 14.0079 12 14.9385V25.0635C12 25.994 12.757 26.751 13.6875 26.751H28.3125C29.243 26.751 30 25.994 30 25.0635V14.9385C30 14.0079 29.243 13.251 28.3125 13.251ZM28.3125 14.376C28.3889 14.376 28.4616 14.3918 28.5281 14.4195L21 20.9442L13.4719 14.4195C13.5383 14.3919 13.611 14.376 13.6875 14.376H28.3125ZM28.3125 25.626H13.6875C13.3772 25.626 13.125 25.3738 13.125 25.0634V15.6081L20.6314 22.1136C20.7374 22.2054 20.8687 22.251 21 22.251C21.1313 22.251 21.2626 22.2054 21.3686 22.1136L28.875 15.6081V25.0635C28.875 25.3738 28.6228 25.626 28.3125 25.626Z" fill="white" stroke="white"/>
</g>
<defs>
<clipPath id="clip0_1322_596">
<rect width="18" height="18" fill="white" transform="translate(12 11.0015)"/>
</clipPath>
</defs>
</svg>
