<svg width="321" height="320" viewBox="0 0 321 320" fill="none" xmlns="http://www.w3.org/2000/svg">
<circle cx="160.998" cy="160" r="160" fill="#1C1C1C"/>
<mask id="mask0_950_2376" style="mask-type:alpha" maskUnits="userSpaceOnUse" x="0" y="0" width="321" height="320">
<circle cx="160.998" cy="160" r="159.35" fill="white" stroke="white" stroke-width="1.3"/>
</mask>
<g mask="url(#mask0_950_2376)">
<mask id="path-3-inside-1_950_2376" fill="white">
<path fill-rule="evenodd" clip-rule="evenodd" d="M154.14 243.253C195.798 243.253 229.568 209.482 229.568 167.824C229.568 126.166 195.798 92.3958 154.14 92.3958C112.481 92.3958 78.7109 126.166 78.7109 167.824C78.7109 188.431 86.9742 207.108 100.368 220.721L96.9958 240.858L115.813 232.804C127.044 239.443 140.147 243.253 154.14 243.253Z"/>
</mask>
<path fill-rule="evenodd" clip-rule="evenodd" d="M154.14 243.253C195.798 243.253 229.568 209.482 229.568 167.824C229.568 126.166 195.798 92.3958 154.14 92.3958C112.481 92.3958 78.7109 126.166 78.7109 167.824C78.7109 188.431 86.9742 207.108 100.368 220.721L96.9958 240.858L115.813 232.804C127.044 239.443 140.147 243.253 154.14 243.253Z" fill="#FFED4E"/>
<path d="M100.368 220.721L102.341 221.052L102.509 220.046L101.794 219.319L100.368 220.721ZM96.9958 240.858L95.0233 240.528L94.4189 244.137L97.7829 242.697L96.9958 240.858ZM115.813 232.804L116.83 231.082L115.958 230.566L115.026 230.965L115.813 232.804ZM227.568 167.824C227.568 208.378 194.693 241.253 154.14 241.253V245.253C196.902 245.253 231.568 210.587 231.568 167.824H227.568ZM154.14 94.3958C194.693 94.3958 227.568 127.271 227.568 167.824H231.568C231.568 125.062 196.902 90.3958 154.14 90.3958V94.3958ZM80.7109 167.824C80.7109 127.271 113.586 94.3958 154.14 94.3958V90.3958C111.377 90.3958 76.7109 125.062 76.7109 167.824H80.7109ZM101.794 219.319C88.753 206.064 80.7109 187.885 80.7109 167.824H76.7109C76.7109 188.977 85.1955 208.151 98.9423 222.124L101.794 219.319ZM98.3955 220.391L95.0233 240.528L98.9684 241.189L102.341 221.052L98.3955 220.391ZM97.7829 242.697L116.6 234.642L115.026 230.965L96.2088 239.02L97.7829 242.697ZM154.14 241.253C140.515 241.253 127.762 237.544 116.83 231.082L114.795 234.525C126.326 241.342 139.779 245.253 154.14 245.253V241.253Z" fill="black" mask="url(#path-3-inside-1_950_2376)"/>
<path d="M123.283 140.396H149.569" stroke="black" stroke-width="4" stroke-linecap="round"/>
<path d="M123.283 164.396H191.855" stroke="black" stroke-width="4" stroke-linecap="round"/>
<path d="M123.283 187.253H191.855" stroke="black" stroke-width="4" stroke-linecap="round"/>
<circle cx="265.569" cy="56.3958" r="67.1429" stroke="#FFED4E" stroke-width="4"/>
<path d="M232.998 45.2886L259.032 77.5386L309.569 28.3958" stroke="#FFED4E" stroke-width="4" stroke-linecap="round"/>
<path fill-rule="evenodd" clip-rule="evenodd" d="M271.607 269.434C265.702 267.155 260.147 264.201 254.714 261.038C254.781 260.611 255.076 260.952 255.226 260.788C255.312 260.541 254.718 260.332 255.195 259.98C255.634 259.656 256 259.789 256.38 259.951C258.379 260.805 260.126 262.148 262.216 262.86C262.931 263.103 263.783 263.158 264.39 263.869C264.763 264.307 265.583 264.117 266.169 264.479C266.537 264.706 267.03 264.804 267.444 265.056C269.093 266.059 270.897 266.556 272.829 266.562C273.177 266.564 273.502 266.677 273.544 266.996C273.656 267.864 274.099 268.695 273.419 269.622C272.924 270.295 272.428 270.4 271.744 270.288C270.096 270.019 268.597 269.316 267.1 268.628C265.35 267.823 263.666 266.881 261.947 266.016C259.635 264.852 257.429 263.513 255.172 262.258C254.958 262.139 254.529 262.046 254.683 261.724C254.799 261.482 255.152 261.692 255.364 261.804C256.707 262.506 258.012 263.271 259.308 264.059C260.55 264.814 261.89 265.418 263.218 266.02C265.364 266.994 267.453 268.093 269.652 268.949C270.279 269.193 270.913 269.433 271.607 269.434Z" fill="white"/>
<path fill-rule="evenodd" clip-rule="evenodd" d="M296.356 271.564C296.832 272.053 296.206 272.499 296.088 272.679C295.768 273.166 296.21 273.84 295.797 274.057C295.171 274.387 294.674 275.017 293.779 274.861C292.046 274.559 290.39 274.01 288.716 273.511C287.502 273.15 286.279 272.813 285.145 272.224C284.64 271.962 284.186 271.648 283.897 271.148C283.6 270.636 283.537 270.167 283.93 269.609C284.22 269.196 284.388 268.683 284.738 268.293C285.071 267.922 285.428 267.618 285.963 267.968C286.339 268.213 286.792 268.119 287.203 268.221C288.856 268.632 290.599 268.683 292.164 269.446C293.325 270.012 294.553 270.396 295.774 270.801C296.123 270.917 296.542 271.022 296.356 271.564Z" fill="white"/>
<path fill-rule="evenodd" clip-rule="evenodd" d="M281.197 239.347C281.489 239.445 281.677 239.508 281.859 239.568C281.97 239.465 281.89 239.387 281.856 239.298C281.785 239.116 281.42 239.086 281.542 238.845C281.689 238.554 281.93 238.887 282.134 238.847C282.175 238.54 281.796 238.495 281.763 238.251C282.31 237.816 282.8 237.97 283.357 238.274C284.872 239.099 286.448 239.788 288.138 240.193C288.777 240.345 289.154 241.108 289.873 241.055C290.785 240.988 291.616 241.337 292.313 241.753C293.515 242.47 294.854 242.52 296.123 242.894C296.48 242.999 296.885 242.77 297.199 243.082C297.301 243.183 297.524 243.336 297.356 243.424C296.783 243.727 297.116 244.178 297.055 244.583C296.941 245.336 296.234 245.549 295.607 245.682C294.618 245.89 293.624 245.694 292.695 245.373C289.136 244.146 285.692 242.654 282.461 240.708C281.969 240.412 281.362 240.162 281.197 239.347Z" fill="white"/>
<path fill-rule="evenodd" clip-rule="evenodd" d="M268.634 250.923C269.181 251.043 269.753 251.154 270.317 251.293C273.897 252.176 277.348 253.434 280.755 254.828C282.061 255.363 283.327 256.002 284.701 256.37C285.095 256.475 285.419 256.7 285.058 257.193C284.972 257.308 284.944 257.471 284.908 257.617C284.665 258.59 283.979 259.026 282.972 258.824C281.94 258.618 281.007 258.142 280.074 257.684C276.128 255.747 272.125 253.952 267.901 252.694C267.366 252.534 267.36 252.474 267.718 252.071C267.757 252.027 267.78 251.943 267.769 251.886C267.643 251.209 268.137 251.099 268.634 250.923Z" fill="white"/>
<path fill-rule="evenodd" clip-rule="evenodd" d="M309.731 270.204C311.329 270.683 312.604 271.592 314.054 272.055C315.52 272.523 316.947 273.122 318.486 273.357C317.229 272.924 315.97 272.494 314.714 272.057C313.273 271.555 311.913 270.874 310.543 270.208C309.855 269.874 309.846 269.426 310.161 268.945C310.469 268.476 311.049 268.33 311.499 268.701C312.414 269.457 313.527 269.825 314.605 270.031C316.483 270.388 318.266 271.161 320.201 271.261C320.647 271.284 321.052 271.566 321.548 271.585C322.106 271.605 322.581 271.589 323.068 271.267C323.352 271.08 323.707 270.652 324.073 270.967C324.373 271.225 324.612 271.622 324.409 272.119C324.332 272.308 324.419 272.566 324.432 272.792C324.514 274.116 323.728 274.977 322.378 274.908C320.568 274.814 318.834 274.303 317.117 273.752C314.868 273.03 312.653 272.224 310.597 271.034C310.294 270.859 309.964 270.719 309.731 270.204Z" fill="white"/>
<path fill-rule="evenodd" clip-rule="evenodd" d="M323.134 232.61C323.301 234.398 322.569 235.011 321.029 234.547C319.825 234.185 318.793 233.472 317.762 232.786C315.356 231.187 313.006 229.507 310.751 227.695C310.199 227.252 309.962 226.673 309.716 226.078C309.63 225.87 309.456 225.406 309.644 225.407C310.029 225.408 310.338 224.993 310.778 225.298C312.745 226.661 314.823 227.846 316.868 229.085C317.77 229.631 318.63 230.248 319.545 230.769C320.164 231.122 320.831 231.479 321.572 230.991C321.661 230.932 321.908 230.935 321.926 230.977C322.229 231.661 323.022 232.016 323.134 232.61Z" fill="white"/>
<path fill-rule="evenodd" clip-rule="evenodd" d="M280.915 218.199C279.796 217.379 278.487 216.928 277.376 216.12C277.049 215.882 276.757 215.588 276.408 215.391C275.831 215.066 276.206 214.64 276.353 214.375C276.495 214.117 276.868 213.967 277.255 214.192C278.838 215.109 280.542 215.805 282.261 216.362C283.487 216.76 284.599 217.507 285.985 217.553C286.51 217.57 287.142 217.867 287.742 218.009C288.543 218.197 287.952 218.798 287.963 219.217C287.965 219.283 287.778 219.36 287.784 219.42C287.812 219.676 288.48 219.765 288.055 220.108C287.48 220.574 286.941 221.065 286.006 220.866C284.52 220.551 283.153 219.98 281.804 219.34C279.974 218.473 278.091 217.692 276.523 216.36C276.407 216.261 276.282 216.173 276.175 216.066C276.064 215.957 275.964 215.804 276.074 215.664C276.214 215.487 276.41 215.555 276.541 215.686C277.68 216.835 279.21 217.315 280.581 218.065C280.685 218.122 280.803 218.154 280.915 218.199Z" fill="white"/>
<path fill-rule="evenodd" clip-rule="evenodd" d="M309.464 246.481C309.065 246.131 308.7 245.728 308.259 245.446C307.743 245.116 307.598 244.709 307.757 244.16C307.851 243.834 308.187 243.869 308.4 243.88C308.949 243.906 309.396 244.187 309.638 244.691C309.696 244.812 309.62 245.009 309.846 244.987C310.949 244.879 311.63 245.791 312.554 246.123C312.837 246.225 313.117 246.438 313.411 246.579C314.27 246.991 315.19 247.307 315.6 248.315C315.696 248.549 315.948 248.912 316.303 248.746C317.385 248.241 318.208 248.954 319.08 249.32C320.514 249.921 321.856 250.73 323.318 251.275C323.483 251.336 323.712 251.362 323.678 251.587C323.636 251.868 323.357 251.528 323.232 251.732C323.447 252.057 323.968 252.311 323.432 252.843C323.241 253.034 323.616 253.25 323.848 253.352C324.024 253.429 324.191 253.516 324.088 253.738C323.963 254.007 323.787 253.802 323.644 253.748C321.036 252.764 318.575 251.475 316.143 250.125C314.001 248.937 311.859 247.749 309.718 246.561C309.634 246.535 309.549 246.508 309.464 246.481Z" fill="white"/>
<path fill-rule="evenodd" clip-rule="evenodd" d="M299.346 233.963C297.956 233.241 296.567 232.513 295.229 231.691C296.137 232.688 298.13 233.805 299.346 233.963ZM301.176 232.117C301.278 232.373 300.299 231.789 300.929 232.453C300.946 232.47 300.973 232.506 300.967 232.515C300.645 233.023 300.705 233.438 301.195 233.828C301.324 233.93 300.42 234.905 300.13 234.952C299.693 235.023 299.265 234.951 298.861 234.794C296.579 233.908 294.624 232.543 292.975 230.739C292.166 229.856 292.149 228.849 292.588 227.802C292.824 227.239 293.169 227.209 293.641 227.613C294.138 228.038 294.659 228.438 295.197 228.81C295.817 229.239 296.487 229.584 297.084 230.065C297.868 230.696 298.908 230.84 299.808 231.268C300.305 231.504 300.806 231.707 301.176 232.117Z" fill="white"/>
<path fill-rule="evenodd" clip-rule="evenodd" d="M300.368 209.814C300.759 209.889 300.994 209.935 301.352 210.004C301.205 209.846 301.155 209.747 301.08 209.722C300.477 209.524 300.583 209.045 300.735 208.66C300.898 208.249 301.341 208.103 301.746 208.223C302.407 208.419 303.066 208.655 303.683 208.96C304.535 209.382 305.365 209.872 306.276 210.128C307.226 210.395 308.168 210.827 309.225 210.503C309.724 210.35 310.063 210.747 309.899 211.231C309.81 211.495 309.844 211.721 309.88 211.969C310.11 213.544 309.066 214.468 307.497 213.997C305.285 213.334 303.352 212.107 301.463 210.818C301.102 210.571 300.638 210.422 300.368 209.814Z" fill="white"/>
<path fill-rule="evenodd" clip-rule="evenodd" d="M299.199 255.915C299.099 256.09 299.086 256.184 299.266 256.239C299.925 256.439 300.606 256.593 301.227 256.877C301.603 257.049 302.332 256.935 302.193 257.743C302.171 257.871 302.327 257.831 302.411 257.765C302.607 257.613 302.768 257.68 302.957 257.808C303.28 258.025 303.618 258.061 304.022 257.958C304.769 257.767 305.188 258.259 304.944 258.982C304.914 259.069 304.802 259.228 304.855 259.231C306.106 259.29 304.533 260.115 305.157 260.331C305.006 260.553 304.799 260.67 304.533 260.719C303.924 260.831 303.381 260.629 302.845 260.393C300.811 259.498 299.122 258.1 297.471 256.658C297.073 256.311 296.999 255.738 296.806 255.257C296.693 254.975 296.917 254.781 297.136 254.649C297.437 254.468 297.486 254.631 297.426 254.897C297.995 254.877 298.421 255.209 298.88 255.472C299.081 255.587 299.318 255.652 299.199 255.915Z" fill="white"/>
<path fill-rule="evenodd" clip-rule="evenodd" d="M266.009 236.313C265.969 236.38 265.929 236.446 265.889 236.513C266.49 236.817 267.089 237.124 267.695 237.419C267.765 237.453 267.893 237.521 267.955 237.393C267.997 237.305 267.998 237.159 267.889 237.14C267.194 237.023 266.702 236.428 266.009 236.313ZM273.143 238.295C273.484 238.486 274.016 238.276 274.126 238.969C274.207 239.47 273.954 239.402 273.695 239.427C273.775 239.857 274.274 239.634 274.412 240.008C273.731 240.233 273.039 240.039 272.373 240.134C272.353 240.132 272.331 240.131 272.307 240.131C271.794 239.637 271.09 239.579 270.468 239.337C270.211 239.237 269.914 239.222 269.677 239.092C267.772 238.046 265.745 237.241 263.886 236.096C262.429 235.199 260.896 234.428 259.482 233.456C259.157 233.232 258.806 233.041 258.439 232.53C259.235 232.875 259.84 233.138 260.445 233.401C260.422 233.395 260.398 233.391 260.373 233.387C261.116 234.161 262.171 234.404 263.004 235.048C263.188 234.783 262.964 234.73 262.929 234.615C262.868 234.417 262.982 234.281 263.148 234.186C263.23 234.14 263.347 234.051 263.395 234.184C263.607 234.77 264.092 234.578 264.489 234.558C264.928 234.536 265.191 234.751 265.419 235.074C265.77 235.572 266.227 235.844 266.859 235.727C267.004 235.806 267.15 235.885 267.295 235.965C267.633 236.513 269.086 237.206 269.661 237.092C269.709 237.419 270.344 237.489 270.046 237.968C269.69 238.136 269.523 238.228 270.014 238.528C270.634 238.908 271.415 238.763 271.982 239.238C272.066 239.308 272.179 239.292 272.234 239.179C272.306 239.032 272.231 238.909 272.093 238.901C271.494 238.865 271.035 238.434 270.46 238.345C270.218 238.307 270.005 238.263 270.022 237.949C271.097 237.657 271.923 238.427 272.883 238.627C273.011 238.653 272.722 239.148 273.122 238.94C273.317 238.839 273.388 238.521 273.143 238.295Z" fill="white"/>
<path fill-rule="evenodd" clip-rule="evenodd" d="M321.962 216.265C322.401 216.379 322.773 216.223 323.128 216.052C323.315 215.962 323.457 215.894 323.56 216.118C323.653 216.323 323.517 216.467 323.362 216.558C322.969 216.789 322.505 216.785 322.101 216.709C320.561 216.418 319.182 215.728 317.9 214.838C317.519 214.574 317.167 214.251 316.754 214.055C316.004 213.699 315.733 212.997 315.443 212.331C315.307 212.019 315.732 211.917 315.958 211.829C316.087 211.779 316.354 211.852 316.443 211.963C317.299 213.034 318.71 213.085 319.786 213.765C320.14 213.989 320.798 213.808 321.268 214.097C321.639 214.324 322.085 214.424 322.297 214.893C322.418 215.164 322.758 214.917 322.984 215.023C323.1 215.078 323.236 215.105 323.267 215.241C323.298 215.377 323.197 215.562 323.107 215.545C322.5 215.435 322.416 216.147 321.962 216.265Z" fill="white"/>
<path fill-rule="evenodd" clip-rule="evenodd" d="M309.465 246.48C309.55 246.507 309.635 246.534 309.719 246.561C310.699 247.48 311.844 248.188 312.98 248.873C314.544 249.815 316.18 250.646 317.827 251.439C319.22 252.11 320.501 253.014 322.022 253.433C322.639 253.603 323.219 253.927 323.688 254.545C322.806 254.786 322.177 254.269 321.513 254C319.765 253.292 318.134 252.342 316.499 251.411C313.55 249.73 310.518 248.177 307.892 245.982C307.742 245.857 307.543 245.764 307.613 245.421C308.359 245.569 308.806 246.229 309.465 246.48Z" fill="white"/>
<path fill-rule="evenodd" clip-rule="evenodd" d="M296.076 218.069C296.322 218.346 296.879 217.938 296.827 218.404C296.782 218.801 296.294 218.706 295.983 218.637C294.06 218.208 292.566 217.144 291.497 215.499C291.335 215.25 291.09 214.89 291.455 214.61C291.778 214.362 292.019 214.675 292.252 214.845C293.231 215.556 294.225 216.224 295.488 216.304C295.806 216.324 295.943 216.567 296.073 216.815C296.119 216.902 296.188 216.987 296.267 217.044C296.89 217.495 296.987 217.87 296.076 218.069Z" fill="white"/>
<path fill-rule="evenodd" clip-rule="evenodd" d="M264.102 236.867C265.039 236.862 265.627 237.607 266.392 237.97C266.958 238.239 267.59 238.442 268.064 238.912C268.182 239.029 268.42 239.058 268.322 239.279C268.244 239.455 268.057 239.507 267.867 239.412C266.726 238.835 265.574 238.279 264.511 237.562C264.26 237.393 264.237 237.09 264.118 236.844L264.102 236.867Z" fill="white"/>
<path fill-rule="evenodd" clip-rule="evenodd" d="M264.118 236.844C263.921 236.958 263.741 237.087 263.49 236.937C262.066 236.086 260.628 235.257 259.312 234.239C259.21 234.16 258.984 234.133 259.104 233.921C259.18 233.787 259.319 233.805 259.436 233.881C260.942 234.855 262.47 235.795 264.042 236.66C264.086 236.685 264.083 236.796 264.102 236.867L264.118 236.844Z" fill="white"/>
<path fill-rule="evenodd" clip-rule="evenodd" d="M272.307 240.131C272.331 240.131 272.353 240.132 272.373 240.134C272.725 240.236 273.027 240.502 273.429 240.438C273.572 240.416 273.775 240.377 273.777 240.598C273.779 240.796 273.594 240.787 273.437 240.785C272.042 240.763 270.706 240.416 269.384 240.015C269.157 239.946 268.898 239.705 268.987 239.454C269.092 239.157 269.394 239.345 269.568 239.43C270.436 239.853 271.372 239.984 272.307 240.131Z" fill="white"/>
<path fill-rule="evenodd" clip-rule="evenodd" d="M260.374 233.387C260.398 233.391 260.423 233.396 260.446 233.402C260.09 233.113 259.941 232.565 259.335 232.568C259.236 232.569 258.849 232.351 259.048 232.075C259.238 231.812 259.487 232.049 259.633 232.177C260.294 232.754 261.02 233.192 261.958 233.394C261.697 233.664 261.546 234.046 261.154 233.594C260.944 233.352 260.626 233.487 260.374 233.387Z" fill="white"/>
<path fill-rule="evenodd" clip-rule="evenodd" d="M267.295 235.965C267.15 235.886 267.004 235.806 266.859 235.727C266.761 235.624 266.663 235.522 266.565 235.419C266.588 235.377 266.612 235.336 266.635 235.295C267.115 235.506 267.595 235.718 268.075 235.93C268.062 235.986 268.049 236.043 268.036 236.099C267.79 236.054 267.542 236.01 267.295 235.965Z" fill="white"/>
<path fill-rule="evenodd" clip-rule="evenodd" d="M272.721 238.038C272.213 238.236 271.829 237.888 271.407 237.727C270.992 237.569 270.591 237.377 270.184 237.199C270.373 237.105 270.549 237.106 270.752 237.197C271.403 237.49 272.064 237.759 272.721 238.038Z" fill="white"/>
</g>
</svg>
