<svg width="60" height="56" viewBox="0 0 60 56" fill="none" xmlns="http://www.w3.org/2000/svg">
<g id="Icon">
<path id="Shape" fill-rule="evenodd" clip-rule="evenodd" d="M20.5703 52.7137C23.3484 54.905 26.6745 56.0002 30.0013 56C33.3309 55.9999 36.6611 54.902 39.4391 52.7065C48.6468 45.4293 59.688 33.3396 59.9995 17.0703C59.9999 17.0549 60 17.0394 60 17.0239C60 7.63693 52.7453 0 43.8281 0C38.0967 0 32.8339 2.95745 29.9528 7.18094C29.2698 6.19998 28.4503 5.26966 27.5078 4.41669C24.3604 1.56853 20.3345 0 16.1719 0C7.25473 0 0 7.63681 0 17.0239C0 24.0063 2.10691 30.8551 6.26191 37.3801C9.68637 42.7574 14.4971 47.914 20.5609 52.7063L20.5703 52.7137ZM23.4333 48.9391L23.4325 48.9385C14.8799 42.178 4.6875 31.1545 4.6875 17.0239C4.6875 10.2656 9.83941 4.76719 16.1719 4.76719C19.1844 4.76719 22.1037 5.90751 24.3919 7.97802C26.4359 9.82769 27.6562 12.1916 27.6562 14.3016C27.6562 15.618 28.7055 16.6852 30 16.6852C31.2945 16.6852 32.3438 15.618 32.3438 14.3016C32.3438 9.80088 37.2552 4.76719 43.8281 4.76719C50.1537 4.76719 55.3011 10.2529 55.3125 17.0011C55.0263 31.3784 44.9598 42.3058 36.5629 48.9423C32.6984 51.9964 27.2994 51.9951 23.4333 48.9391Z" fill="#FFCBCB"/>
<path id="Path" d="M46.6871 23.9972C42.8528 23.9972 39.3733 26.8788 38.4134 30.849C38.397 30.9166 37.6064 36.0727 37.6064 36.0727C37.5726 36.1729 37.5013 36.2793 37.2758 36.2696C37.0088 36.2589 36.9689 36.1044 36.9496 35.9909L35.1054 23.0669C35.1032 23.0517 35.1009 23.0365 35.0984 23.0212C34.7044 20.5899 32.7572 18.9378 30.3594 19.0018C28.0034 19.0654 26.1642 20.7636 25.847 23.1485C25.847 23.1485 24.0922 31.8981 24.0874 31.9281C24.0689 32.0424 24.0409 32.3077 23.7581 32.3191C23.476 32.3326 23.4342 32.0681 23.407 31.9556C23.3891 31.8814 22.9959 30.7276 22.9959 30.7276C22.0166 26.9437 18.2283 23.9973 14.313 23.9973C13.0355 23.9973 12 25.0621 12 26.3757C12 27.6892 13.0355 28.754 14.313 28.754C16.1455 28.754 18.1194 30.2693 18.5369 31.9967C18.5549 32.0709 18.95 33.2304 18.95 33.2304C19.5489 35.4711 21.5435 36.9571 23.7962 36.957C26.161 36.8615 28.2309 35.1527 28.6418 32.7617C28.6418 32.7617 30.4329 23.7737 30.4352 23.7626C30.4626 23.7563 30.4988 23.7553 30.5264 23.7601C30.5284 23.7682 32.3808 36.7382 32.3832 36.7534C32.7753 39.1708 34.7829 41 37.2116 41C39.5245 41 41.5576 39.4566 42.1161 37.1462C42.1325 37.0787 42.9254 31.9066 42.9254 31.9066C43.4026 30.1029 45.0044 28.7539 46.687 28.7539C47.9645 28.7539 49 27.6891 49 26.3756C49 25.062 47.9645 23.9972 46.6871 23.9972Z" fill="#FF3294"/>
</g>
</svg>
