<svg width="56" height="56" viewBox="0 0 56 56" fill="none" xmlns="http://www.w3.org/2000/svg">
<g id="Icon">
<path id="Shape" fill-rule="evenodd" clip-rule="evenodd" d="M51.2701 11.1996L55.8694 42.2038C56.3833 45.6679 55.3658 49.1755 53.0778 51.8273C50.7897 54.4791 47.4684 56 43.9654 56H40.4719C39.2635 56 38.2839 55.0207 38.2839 53.8125C38.2839 52.6043 39.2635 51.625 40.4719 51.625H43.9654C46.1945 51.625 48.3081 50.6571 49.7642 48.9697C51.2202 47.2823 51.8677 45.05 51.5407 42.8457L46.9414 11.8414C46.31 7.58483 42.5881 4.375 38.2839 4.375H17.7161C13.4119 4.375 9.68999 7.58483 9.05863 11.8414L4.45933 42.8456C4.13221 45.05 4.77977 47.2823 6.23581 48.9697C7.69185 50.6571 9.80552 51.625 12.0346 51.625H15.7469C16.9553 51.625 17.9349 52.6043 17.9349 53.8125C17.9349 55.0207 16.9553 56 15.7469 56H12.0346C8.53163 56 5.21027 54.4791 2.92232 51.8272C0.63427 49.1755 -0.383286 45.6679 0.130579 42.2037L4.72988 11.1997C5.19145 8.08752 6.75799 5.2418 9.1409 3.18675C11.5237 1.13181 14.5691 0 17.7161 0H38.2839C41.4309 0 44.4763 1.13181 46.8591 3.18664C49.2419 5.24169 50.8084 8.08741 51.2701 11.1996ZM36.9795 47.2242C37.2284 47.316 37.4841 47.3597 37.7364 47.3597C38.535 47.3597 39.2969 46.9203 39.6818 46.1741C40.1881 45.1921 39.8826 43.9868 38.9695 43.3645L30.2975 37.4533V32.4844C30.2975 31.2762 29.3179 30.2969 28.1094 30.2969C26.9009 30.2969 25.9213 31.2762 25.9213 32.4844V37.4533L17.2493 43.3645C16.3362 43.9868 16.0307 45.192 16.537 46.1741C17.0434 47.156 18.2026 47.6063 19.2393 47.2241L25.9213 44.7592V51.625H24.4991C23.2906 51.625 22.311 52.6043 22.311 53.8125C22.311 55.0207 23.2906 56 24.4991 56H31.7197C32.9282 56 33.9078 55.0207 33.9078 53.8125C33.9078 52.6043 32.9282 51.625 31.7197 51.625H30.2975V44.7592L36.9795 47.2242Z" fill="#FFD0D0"/>
<path id="Shape_2" fill-rule="evenodd" clip-rule="evenodd" d="M25.1035 12.4139C25.1035 10.8904 26.4004 9.65527 28.0001 9.65527C29.5998 9.65527 30.8966 10.8904 30.8966 12.4139C30.8966 13.9374 29.5998 15.1725 28.0001 15.1725C26.4004 15.1725 25.1035 13.9374 25.1035 12.4139ZM28.0001 25.1035C29.5998 25.1035 30.8966 23.8685 30.8966 22.3449C30.8966 20.8214 29.5998 19.5863 28.0001 19.5863C26.4004 19.5863 25.1035 20.8214 25.1035 22.3449C25.1035 23.8685 26.4004 25.1035 28.0001 25.1035Z" fill="#FF3294"/>
</g>
</svg>
