<svg width="22" height="23" viewBox="0 0 22 23" fill="none" xmlns="http://www.w3.org/2000/svg">
<g clip-path="url(#clip0_1322_590)">
<path d="M19.4219 0.00146484H2.57812C1.15655 0.00146484 0 1.15801 0 2.57959V19.4233C0 20.8449 1.15655 22.0015 2.57812 22.0015H19.4219C20.8435 22.0015 22 20.8449 22 19.4233V2.57959C22 1.15801 20.8435 0.00146484 19.4219 0.00146484ZM20.2812 19.4233C20.2812 19.8972 19.8957 20.2827 19.4219 20.2827H14.5234V13.2788H17.1785L17.6172 10.6147H14.5234V8.76709C14.5234 8.03769 15.0831 7.47803 15.8125 7.47803H17.5742V4.81396H15.8125C13.6244 4.81396 11.8603 6.58643 11.8603 8.77457V10.6147H9.28125V13.2788H11.8603V20.2827H2.57812C2.10427 20.2827 1.71875 19.8972 1.71875 19.4233V2.57959C1.71875 2.10573 2.10427 1.72021 2.57812 1.72021H19.4219C19.8957 1.72021 20.2812 2.10573 20.2812 2.57959V19.4233Z" fill="black"/>
</g>
<defs>
<clipPath id="clip0_1322_590">
<rect width="22" height="22" fill="white" transform="translate(0 0.00146484)"/>
</clipPath>
</defs>
</svg>
