<svg width="60" height="61" viewBox="0 0 60 61" fill="none" xmlns="http://www.w3.org/2000/svg">
<g id="Icon">
<path id="Combined Shape" fill-rule="evenodd" clip-rule="evenodd" d="M4.94097 36.047L4.64789 35.9241L9.51881 24.1677C10.5713 21.6341 13.0043 20 15.7164 20H24.0141V23.697H15.7164C14.5072 23.697 13.3764 24.4585 12.9064 25.5947L9.01739 34.982C9.06692 34.9812 9.11654 34.9808 9.16626 34.9808H34.4651V38.7654H9.16626C6.13284 38.7654 3.6665 41.3112 3.6665 44.4423V46.9654C3.6665 48.7038 5.03778 50.1192 6.72192 50.1192H48.2756C49.9598 50.1192 51.3311 48.7038 51.3311 46.9654V44.4423C51.3311 43.0218 50.8177 41.6694 49.8889 40.6299L52.5801 38.0589C54.1396 39.7973 55 42.0656 55 44.4398V46.8077V46.9629V55.4465C55 58.5096 52.5683 61 49.5775 61C46.5866 61 44.1549 58.5096 44.1549 55.4465V53.9038H10.8451V55.4465C10.8451 58.5096 8.41337 61 5.42254 61C2.43171 61 0 58.5096 0 55.4465V46.9654V46.8077V44.4423C0 40.7966 2.00719 37.6264 4.94097 36.047ZM47.77 55.4465V53.9038H48.2756C49.3969 53.9038 50.4547 53.6194 51.385 53.1166V55.4465C51.385 56.4683 50.5752 57.2977 49.5775 57.2977C48.5797 57.2977 47.77 56.4683 47.77 55.4465ZM7.23005 53.9038H6.72192C5.6016 53.9038 4.54464 53.6199 3.61502 53.1179V55.4465C3.61502 56.4683 4.42479 57.2977 5.42254 57.2977C6.42028 57.2977 7.23005 56.4683 7.23005 55.4465V53.9038ZM9.29577 42.0769H16.2676V46.0192H9.29577V42.0769ZM44.9296 42.0769H37.9577V46.0192H44.9296V42.0769Z" fill="#FFBBBB"/>
<path id="Shape" fill-rule="evenodd" clip-rule="evenodd" d="M43.777 35.8535C44.0102 35.9503 44.2557 36 44.5012 36C44.7468 36 44.9923 35.9503 45.223 35.8535C45.8257 35.6003 60 29.4653 60 16.8477V6.47204C60 5.67506 59.4916 4.96498 58.7351 4.70925L45.094 0.0986914C44.7096 -0.0328971 44.2904 -0.0328971 43.906 0.0986914L30.2649 4.70925C29.5084 4.96498 29 5.67258 29 6.47204V16.8477C29 29.4653 43.1719 35.5978 43.777 35.8535ZM32.7203 16.8477V7.81027L44.5012 3.82786L56.2822 7.81027V16.8477C56.2822 25.5449 47.165 30.7464 44.4988 32.0821C41.8301 30.7538 32.7203 25.5772 32.7203 16.8477Z" fill="#FF3294"/>
<path id="Path" d="M43.253 24C43.2191 24 43.1853 24 43.1514 23.9975C42.6364 23.9674 42.1576 23.7113 41.836 23.2946L37 17.0184L39.8315 14.6636L43.4029 19.2979L50.4345 12L53 14.6636L44.537 23.4502C44.1936 23.8017 43.7318 24 43.253 24Z" fill="#FF3294"/>
</g>
</svg>
