<svg width="32" height="29" viewBox="0 0 32 29" fill="none" xmlns="http://www.w3.org/2000/svg">
<path fill-rule="evenodd" clip-rule="evenodd" d="M30.9802 8.98086L26.1335 1.31697C25.6445 0.544026 24.7863 0.0752077 23.8636 0.0770317H8.13507C7.21245 0.0752077 6.35423 0.544026 5.86524 1.31697L1.01849 8.98086C0.401792 9.95903 0.4991 11.2195 1.25883 12.0939L14.9846 27.9229C15.2383 28.216 15.6091 28.3847 15.9994 28.3847C16.3897 28.3847 16.7604 28.216 17.0141 27.9229L30.7399 12.0939C31.4996 11.2195 31.5969 9.95903 30.9802 8.98086ZM17.176 25.8088C16.8864 26.0398 16.5139 26.1494 16.1408 26.1134C15.7676 26.0775 15.4246 25.8991 15.1875 25.6175L8.91189 18.1671C8.41731 17.582 8.50571 16.719 9.10933 16.2396C9.71294 15.7602 10.6032 15.8459 11.0978 16.431L17.3734 23.8813C17.6206 24.1635 17.7391 24.5309 17.7019 24.8993C17.6647 25.2677 17.4749 25.6058 17.176 25.8362V25.8088Z" fill="#FF35B7"/>
</svg>
