<svg width="76" height="57" viewBox="0 0 76 57" fill="none" xmlns="http://www.w3.org/2000/svg">
<path fill-rule="evenodd" clip-rule="evenodd" d="M75.1972 46.6926C74.9599 46.0331 74.3361 45.5932 73.636 45.5932H71.3375V7.89146C71.3375 3.54031 67.8063 0 63.4663 0H37.9996H12.5329C8.19291 0 4.6617 3.54031 4.6617 7.89146V45.5924H2.36396C1.66469 45.5924 1.04007 46.0323 0.802833 46.6918C0.609558 47.2299 -1.02789 52.0376 1.0185 54.9558C1.67216 55.8881 2.96619 57 5.42153 57H37.9996H70.5785C73.0338 57 74.3287 55.8889 74.9815 54.9567C77.0279 52.0384 75.3904 47.2307 75.1972 46.6926ZM7.97973 7.89146C7.97973 5.37408 10.022 3.32657 12.5329 3.32657H37.9996H63.4663C65.9764 3.32657 68.0194 5.37408 68.0194 7.89146V45.5924H37.9996H7.97973V7.89146ZM32.1424 53.6743H37.9996H43.8559V48.9198H37.9996H32.1424V53.6743ZM3.73431 53.0464C3.09891 52.1432 3.29467 50.2836 3.61071 48.9198H6.32071H28.8244V53.6743H5.42153C4.17875 53.6743 3.84504 53.2028 3.73492 53.0472L3.73431 53.0464ZM70.5793 53.6743C71.826 53.6743 72.1462 53.2169 72.2673 53.0439C72.8961 52.1457 72.6987 50.2728 72.3876 48.9198H69.6785H47.1739V53.6743H70.5793Z" fill="#E4E9EA"/>
<path d="M57.7973 9H64.2027C65.1948 9 66 8.328 66 7.5C66 6.672 65.1948 6 64.2027 6H57.7973C56.8052 6 56 6.672 56 7.5C56 8.328 56.8052 9 57.7973 9Z" fill="#EA075F"/>
<path d="M47.6574 19.4863H52.4653C53.3805 19.4863 54.1232 18.7395 54.1232 17.8193C54.1232 16.8991 53.3805 16.1523 52.4653 16.1523H47.6574C46.7423 16.1523 45.9995 16.8991 45.9995 17.8193C45.9995 18.7395 46.7414 19.4863 47.6574 19.4863Z" fill="#E4E9EA"/>
<path d="M47.6574 25.3066H61.2937C62.2088 25.3066 62.9516 24.5598 62.9516 23.6396C62.9516 22.7195 62.2088 21.9727 61.2937 21.9727H47.6574C46.7423 21.9727 45.9995 22.7195 45.9995 23.6396C45.9995 24.5598 46.7414 25.3066 47.6574 25.3066Z" fill="#E4E9EA"/>
<path d="M47.6574 31.1259H61.2937C62.2088 31.1259 62.9516 30.3791 62.9516 29.459C62.9516 28.5388 62.2088 27.792 61.2937 27.792H47.6574C46.7423 27.792 45.9995 28.5388 45.9995 29.459C45.9995 30.3791 46.7414 31.1259 47.6574 31.1259Z" fill="#E4E9EA"/>
<path d="M47.6574 36.9458H61.2937C62.2088 36.9458 62.9516 36.199 62.9516 35.2788C62.9516 34.3586 62.2088 33.6118 61.2937 33.6118H47.6574C46.7423 33.6118 45.9995 34.3586 45.9995 35.2788C45.9995 36.199 46.7414 36.9458 47.6574 36.9458Z" fill="#E4E9EA"/>
<path fill-rule="evenodd" clip-rule="evenodd" d="M27 10C35.2711 10 42 16.7289 42 25C42 33.2711 35.2711 40 27 40C18.7289 40 12 33.2711 12 25C12 16.7289 18.7289 10 27 10ZM15.3636 25C15.3636 31.4161 20.5839 36.6364 27 36.6364C33.4161 36.6364 38.6364 31.4161 38.6364 25C38.6364 18.5839 33.4161 13.3636 27 13.3636C20.5839 13.3636 15.3636 18.5839 15.3636 25Z" fill="#15EA84"/>
<path d="M35.5121 19.5051C34.8631 18.8316 33.808 18.8316 33.159 19.5051L24.8434 28.1223L21.8413 25.0122C21.1914 24.3396 20.1381 24.3388 19.4874 25.0122C18.8375 25.6856 18.8375 26.7772 19.4874 27.4515L24.8425 33L35.5113 21.9443C36.1628 21.2701 36.1628 20.1785 35.5121 19.5051Z" fill="#15EA84"/>
</svg>
