<svg width="45" height="42" viewBox="0 0 45 42" fill="none" xmlns="http://www.w3.org/2000/svg">
<path fill-rule="evenodd" clip-rule="evenodd" d="M44.4095 13.0219L37.3211 1.81342C36.606 0.682988 35.3509 -0.00265984 34.0015 7.75557e-06H10.9985C9.64914 -0.00265984 8.394 0.682988 7.67885 1.81342L0.590478 13.0219C-0.311446 14.4524 -0.169133 16.2958 0.941968 17.5747L21.0159 40.7246C21.3869 41.1532 21.9292 41.4 22.5 41.4C23.0708 41.4 23.6131 41.1532 23.9841 40.7246L44.058 17.5747C45.1691 16.2958 45.3114 14.4524 44.4095 13.0219ZM24.2218 37.6327C23.7983 37.9704 23.2535 38.1307 22.7078 38.0782C22.1621 38.0256 21.6604 37.7646 21.3137 37.3528L12.1356 26.4567C11.4123 25.6009 11.5416 24.3388 12.4243 23.6377C13.3071 22.9365 14.6091 23.0619 15.3325 23.9176L24.5106 34.8137C24.8721 35.2264 25.0454 35.7636 24.991 36.3025C24.9366 36.8413 24.659 37.3357 24.2218 37.6727V37.6327Z" fill="#FFA551"/>
</svg>
