<svg width="41" height="40" viewBox="0 0 41 40" fill="none" xmlns="http://www.w3.org/2000/svg">
<path d="M28.1552 0H34.9271C37.7316 0 40.0042 2.2917 40.0042 5.11993V11.949C40.0042 14.7773 37.7316 17.069 34.9271 17.069H28.1552C25.3506 17.069 23.0781 14.7773 23.0781 11.949V5.11993C23.0781 2.2917 25.3506 0 28.1552 0Z" fill="#FFCE4C"/>
<path d="M11.849 23.681C14.2334 23.681 16.176 25.631 16.176 28.051V34.8801C16.176 37.2983 14.2332 39.25 11.849 39.25H5.07705C2.69284 39.25 0.75 37.2983 0.75 34.8801V28.051C0.75 25.631 2.69266 23.681 5.07705 23.681H11.849ZM34.923 23.681C37.3073 23.681 39.25 25.631 39.25 28.051V34.8801C39.25 37.2983 37.3072 39.25 34.923 39.25H28.151C25.7668 39.25 23.824 37.2983 23.824 34.8801V28.051C23.824 25.631 25.7666 23.681 28.151 23.681H34.923ZM11.849 0.75C14.2334 0.75 16.176 2.69996 16.176 5.11993V11.949C16.176 14.369 14.2334 16.319 11.849 16.319H5.07705C2.69266 16.319 0.75 14.369 0.75 11.949V5.11993C0.75 2.69996 2.69266 0.75 5.07705 0.75H11.849Z" stroke="black" stroke-width="1.5"/>
</svg>
