<svg width="48" height="48" viewBox="0 0 48 48" fill="none" xmlns="http://www.w3.org/2000/svg">
<path d="M18.88 8.83494L18.8864 8.84955L18.8935 8.86388C18.9766 9.03313 19.0324 9.21353 19.0592 9.39871L19.7256 19.3078L19.7257 19.3084L20.0559 24.2802C20.0621 24.8611 20.1543 25.438 20.3297 25.9925L20.3401 26.0255L20.3536 26.0574C20.8782 27.3036 22.1337 28.0846 23.4879 28.0301L23.4973 28.0297L23.5067 28.0291L39.4644 26.9853C39.9558 26.9815 40.4268 27.1673 40.7763 27.499C41.0647 27.7727 41.251 28.1271 41.3139 28.5065L41.3349 28.7563C40.6742 37.5452 34.2072 44.8834 25.4075 46.7819C16.5871 48.685 7.55113 44.663 3.20029 36.9176C1.9482 34.6706 1.16648 32.2017 0.900456 29.6555L0.898808 29.6397L0.896495 29.624C0.786924 28.8809 0.738681 28.1303 0.752228 27.3795L0.75236 27.3722L0.752349 27.3649C0.738621 17.9211 7.4603 9.7397 16.8955 7.75725C17.7383 7.63403 18.55 8.08415 18.88 8.83494Z" stroke="black" stroke-width="1.5"/>
<path d="M26.0788 0.00196605C37.0225 0.280384 46.2203 8.14989 47.9908 18.7495L47.9739 18.8277L47.9256 18.9414L47.9323 19.2537C47.9072 19.6673 47.7475 20.0653 47.4723 20.3868C47.1856 20.7216 46.7939 20.9497 46.3626 21.0382L46.0996 21.0743L27.6657 22.2687C27.0525 22.3291 26.442 22.1314 25.986 21.7247C25.606 21.3857 25.3631 20.9282 25.2945 20.4352L24.0572 2.02815C24.0356 1.96591 24.0356 1.89844 24.0572 1.83619C24.0741 1.32881 24.2974 0.849215 24.6773 0.504551C25.0572 0.159887 25.5619 -0.0211209 26.0788 0.00196605Z" fill="#FFCE4C"/>
</svg>
