<svg width="47" height="44" viewBox="0 0 47 44" fill="none" xmlns="http://www.w3.org/2000/svg">
<path d="M24.7467 1.75394L24.7473 1.75513L29.9034 12.1166L29.9034 12.1166L29.9057 12.1211C30.3954 13.0889 31.3299 13.7622 32.4101 13.9128C32.411 13.913 32.412 13.9131 32.413 13.9132L43.9892 15.5993L43.993 15.5998C44.4753 15.6675 44.9115 15.9218 45.2054 16.3078L45.2058 16.3082C45.4932 16.685 45.6165 17.1625 45.5467 17.6314L45.5464 17.6335C45.4892 18.0261 45.3044 18.3902 45.0209 18.6695C45.0204 18.6701 45.0198 18.6706 45.0193 18.6712L36.637 26.7966C35.8383 27.5397 35.4788 28.636 35.6715 29.7052L35.6715 29.7055L37.7362 41.1338C37.8876 42.1082 37.2446 43.0245 36.28 43.2147C35.8794 43.2763 35.466 43.2088 35.099 43.0226C35.098 43.0221 35.0971 43.0216 35.0961 43.0211L24.7717 37.642L24.7717 37.6419L24.763 37.6376C23.7838 37.1434 22.6274 37.1434 21.6482 37.6376L21.6481 37.6375L21.6395 37.642L11.3089 43.0243L11.3036 43.0271C10.3964 43.509 9.27454 43.184 8.76558 42.2949C8.58457 41.9452 8.51954 41.5474 8.57806 41.1575L10.6424 29.7287C10.8354 28.6607 10.4726 27.5602 9.67728 26.8179L1.29075 18.6929L1.28982 18.692C0.590093 18.0164 0.568452 16.9069 1.23757 16.2067L1.2993 16.145L1.29932 16.145L1.30385 16.1404C1.58277 15.8565 1.94881 15.6767 2.34448 15.6297L2.35434 15.6285L2.36417 15.627L13.9426 13.9384C13.9431 13.9383 13.9436 13.9383 13.9441 13.9382C15.0193 13.7854 15.9546 13.1186 16.4476 12.1443L16.4514 12.1369L16.4549 12.1295L21.423 1.75029C21.7366 1.12416 22.3836 0.734126 23.0874 0.750497L23.0961 0.7507H23.1048H23.3662C23.9603 0.836085 24.4775 1.21053 24.7467 1.75394Z" stroke="black" stroke-width="1.5"/>
<path d="M23.1408 36.0537C22.7514 36.0658 22.3721 36.1704 22.0309 36.3575L13.1072 41.019C12.0154 41.5401 10.7087 41.1357 10.0965 40.0916C9.86974 39.6651 9.78745 39.1762 9.86372 38.6973L11.646 28.7889C11.7665 28.0686 11.5256 27.3363 11.0018 26.8293L3.71391 19.7737C2.84884 18.9267 2.83279 17.5365 3.67979 16.6694C3.69183 16.6573 3.70187 16.6473 3.71391 16.6372C4.05914 16.2952 4.50472 16.0699 4.98442 15.9994L15.0461 14.5187C15.7747 14.4262 16.4069 13.9715 16.7281 13.3116L21.1016 4.18375C21.5171 3.4474 22.3139 3.00882 23.1569 3.05509C23.1408 3.65262 23.1408 35.6474 23.1408 36.0537Z" fill="#FFCE4C"/>
</svg>
