<svg width="85" height="103" viewBox="0 0 85 103" fill="none" xmlns="http://www.w3.org/2000/svg">
<path fill-rule="evenodd" clip-rule="evenodd" d="M-7.85569 8.18248L-39.2402 0.143626C-40.6288 -0.211093 -42.1022 0.0993695 -43.2329 0.984902C-44.3936 1.90675 -45.0488 3.32998 -44.9972 4.81738V88.945C-45.0608 91.1449 -43.5913 93.0914 -41.4687 93.6187L-7.85569 101.938V8.18248ZM38.5712 94.6469L1.42968 102.125V8.64986L38.5712 1.17185V94.6469ZM47.8565 1.17185L81.4696 9.49114C83.5921 10.0184 85.0617 11.965 84.998 14.1649V98.2925C84.998 100.874 82.9194 102.966 80.3553 102.966C79.9853 103.011 79.6111 103.011 79.2411 102.966L47.8565 94.9274V1.17185Z" fill="#FF43A1"/>
</svg>
