<svg width="36" height="35" viewBox="0 0 36 35" fill="none" xmlns="http://www.w3.org/2000/svg">
<path fill-rule="evenodd" clip-rule="evenodd" d="M35.9998 21.5337V26.0224C36.014 27.5294 34.8691 28.8116 33.3274 29.015C33.0922 32.3781 30.2115 34.992 26.7316 35H19.0081C17.8991 35 17 34.1291 17 33.0549V30.5112C17 29.437 17.8991 28.5661 19.0081 28.5661C20.1172 28.5661 21.0162 29.437 21.0162 30.5112V31.1097H26.7316C28.016 31.1036 29.1073 30.1984 29.3112 28.9701C27.8065 28.7264 26.7107 27.4552 26.7316 25.9776V21.4888C26.7316 19.0097 28.8063 17 31.3657 17C32.6028 16.9999 33.7886 17.479 34.659 18.3306C35.5294 19.1821 36.0121 20.3354 35.9998 21.5337ZM18.159 3.90067C23.2256 3.97097 27.6855 7.30724 29.2495 12.1971C29.4661 12.8591 30.0143 13.3535 30.6877 13.4941C31.361 13.6348 32.0572 13.4003 32.5139 12.879C32.9706 12.3577 33.1186 11.6288 32.902 10.9669C30.8295 4.45123 24.8629 0.026081 18.1146 0C9.4353 0.115295 2.47774 7.32161 2.54357 16.1278V16.9979C1.07366 17.2087 -0.0144647 18.4924 0.000145387 19.9984V24.4992C0.000145387 26.9849 1.9863 29 4.43634 29C6.88639 29 8.87254 26.9849 8.87254 24.4992V19.9984C8.8914 18.512 7.83464 17.2357 6.38827 16.9979V16.2028C6.34086 12.9877 7.55443 9.88524 9.76194 7.57807C11.9695 5.27089 14.99 3.94807 18.159 3.90067Z" fill="#00DDC1"/>
</svg>
