<svg width="72" height="72" viewBox="0 0 72 72" fill="none" xmlns="http://www.w3.org/2000/svg">
<path d="M63.6307 47.6699C61.7222 52.1833 58.7371 56.1605 54.9364 59.2538C51.1356 62.347 46.635 64.4621 41.828 65.4142C37.021 66.3663 32.054 66.1263 27.3612 64.7153C22.6683 63.3042 18.3926 60.7651 14.9078 57.3198C11.423 53.8746 8.83516 49.6281 7.37063 44.9517C5.90609 40.2753 5.60941 35.3113 6.50651 30.4938C7.40362 25.6762 9.46721 21.1518 12.5169 17.316C15.5665 13.4802 19.5094 10.4498 24.0007 8.48987" stroke="black" stroke-width="4" stroke-linecap="round" stroke-linejoin="round"/>
<path d="M66 36C66 32.0603 65.224 28.1593 63.7164 24.5195C62.2087 20.8797 59.999 17.5726 57.2132 14.7868C54.4274 12.001 51.1203 9.79126 47.4805 8.28361C43.8407 6.77597 39.9397 6 36 6V36H66Z" stroke="black" stroke-width="4" stroke-linecap="round" stroke-linejoin="round"/>
</svg>
