<svg width="76" height="63" viewBox="0 0 76 63" fill="none" xmlns="http://www.w3.org/2000/svg">
<path d="M76 33.8502C76 26.639 70.1012 20.7004 62.7492 20.7004C62.4072 20.7004 62.0652 20.7004 61.7233 20.7004C61.8943 19.7671 61.9798 18.7491 61.9798 17.731C61.9798 7.97473 53.9438 0 44.1125 0C35.3926 0 28.2115 6.1083 26.5872 14.2527C23.937 12.7256 20.8594 11.8773 17.6963 11.8773C7.95051 11.8773 0 19.7671 0 29.4386C0 38.0072 6.15523 45.3032 14.7042 46.7455H14.9606C15.8155 46.7455 16.4994 46.1516 16.6704 45.3032C16.8414 44.37 16.243 43.5217 15.3026 43.352C8.46344 42.1643 3.50506 36.3105 3.50506 29.4386C3.50506 21.6336 9.91676 15.2708 17.7818 15.2708C21.1159 15.2708 24.3645 16.4585 26.9291 18.5794C27.784 19.343 29.4938 19.0884 29.7503 17.3069C30.0067 9.50181 36.333 3.3935 44.198 3.3935C52.1485 3.3935 58.6457 9.84116 58.6457 17.731C58.6457 19.343 58.3892 20.87 57.8763 22.3123C57.5343 23.4152 58.3892 24.8574 60.0135 24.5181C60.9539 24.2635 61.8943 24.0939 62.8346 24.0939C68.2205 24.0939 72.6659 28.5054 72.6659 33.8502C72.6659 39.1949 68.306 43.6065 62.8346 43.6065H59.5861C58.6457 43.6065 57.8763 44.37 57.8763 45.3032C57.8763 46.2365 58.6457 47 59.5861 47H62.8346C70.1012 47 76 41.1462 76 33.8502Z" fill="#E4E9EA"/>
<path fill-rule="evenodd" clip-rule="evenodd" d="M21.0161 45.9914C21.0161 36.5726 28.894 29.0039 38.5033 29.0039C48.1125 29.0039 55.9904 36.6567 55.9904 45.9914C55.9904 55.3261 48.1991 62.9789 38.5033 62.9789C28.8074 62.9789 21.0161 55.4102 21.0161 45.9914ZM24.4789 45.9914C24.4789 53.476 30.7985 59.6151 38.5033 59.6151C46.208 59.6151 52.5276 53.476 52.5276 45.9914C52.5276 38.5068 46.208 32.3678 38.5033 32.3678C30.7985 32.3678 24.4789 38.5068 24.4789 45.9914Z" fill="#15EA84"/>
<path d="M45.4289 39.2636L35.3002 49.1029L31.5777 45.4867C30.8851 44.8139 29.8463 44.8139 29.1537 45.4867C28.4611 46.1595 28.4611 47.1686 29.1537 47.8414L35.3867 53.8964L47.9394 41.7024C48.632 41.0296 48.632 40.0204 47.9394 39.3476C47.2468 38.6749 46.1214 38.6749 45.4289 39.2636Z" fill="#15EA84"/>
</svg>
