<svg width="28" height="17" viewBox="0 0 28 17" fill="none" xmlns="http://www.w3.org/2000/svg">
<path fill-rule="evenodd" clip-rule="evenodd" d="M5.94126 2.98764C6.44238 1.65555 7.76835 0.823884 9.18657 0.825075L9.18489 2.82507C8.51285 2.82451 7.98249 3.22009 7.80695 3.70881L7.79692 3.73673L7.78525 3.76402C7.41289 4.63461 6.51944 5.12547 5.61703 5.08156H0.638672V3.08156H5.64481H5.67719L5.70951 3.08366C5.77612 3.08798 5.83485 3.07159 5.87801 3.04646C5.91305 3.02606 5.93175 3.00398 5.94126 2.98764ZM12.6932 3.08189H27.5007V5.08189H12.6654H12.633L12.6007 5.07979C12.5342 5.07548 12.4756 5.09185 12.4324 5.11697C12.3974 5.13738 12.3786 5.15952 12.3691 5.17597C11.8681 6.50841 10.5422 7.34067 9.12367 7.33948L9.12535 5.33948C9.79709 5.34004 10.3276 4.94444 10.5033 4.45513L10.5133 4.42722L10.5249 4.39994C10.8972 3.52922 11.7905 3.03795 12.6932 3.08189ZM20.2713 12.7364C20.0958 12.2474 19.5654 11.8519 18.8934 11.8524L18.8917 9.85242C20.3101 9.85123 21.636 10.6831 22.1371 12.0153C22.1466 12.0317 22.1653 12.0538 22.2003 12.0742C22.2435 12.0993 22.3022 12.1157 22.3688 12.1114L22.4011 12.1093H22.4335H27.5007V14.1093H22.4613C21.5588 14.1532 20.6653 13.6622 20.293 12.7916L20.2814 12.7643L20.2713 12.7364ZM15.3851 12.1092C16.2876 12.0653 17.181 12.5563 17.5533 13.4269L17.565 13.4542L17.575 13.4821C17.7506 13.9709 18.281 14.3665 18.953 14.366L18.9546 16.366C17.5363 16.3672 16.2104 15.5354 15.7093 14.2032C15.6998 14.1868 15.6811 14.1647 15.646 14.1443C15.6029 14.1192 15.5442 14.1028 15.4776 14.1071L15.4453 14.1092H15.4129H0.638672V12.1092H15.3851Z" fill="white"/>
</svg>
