<svg width="67" height="80" viewBox="0 0 67 80" fill="none" xmlns="http://www.w3.org/2000/svg">
<path fill-rule="evenodd" clip-rule="evenodd" d="M47.3737 4.27785C53.417 2.74596 59.5086 1.20186 65.5416 1.00065C66.1539 0.980141 66.1514 1.92165 65.5425 1.94312C65.4967 1.94479 65.4511 1.94872 65.4055 1.95265C65.3635 1.95626 65.3216 1.95987 65.2796 1.96171C65.2585 2.00561 65.2307 2.04823 65.189 2.08701C65.1507 2.12274 65.1126 2.15863 65.0745 2.19452C65.0364 2.23041 64.9983 2.26631 64.96 2.30204C59.9048 10.859 55.1289 19.555 50.7926 28.4933C50.0102 30.106 49.1525 31.7798 48.2711 33.5001C44.0861 41.6677 39.3644 50.8829 39.6084 59.5827C39.6161 59.867 39.2419 60.1246 38.9889 59.9349C36.7869 58.2839 34.5898 56.5989 32.4341 54.8604C32.3545 54.8581 32.2744 54.8564 32.1944 54.8547C32.1276 54.8533 32.0607 54.8519 31.9942 54.8502C31.847 54.8463 31.8473 54.6284 31.9942 54.6236C32.0173 54.6228 32.0405 54.6221 32.0637 54.6215C32.0867 54.6209 32.1096 54.6202 32.1326 54.6194C28.1896 51.4241 24.3997 48.0352 21.0215 44.2875C20.819 44.0628 21.1254 43.7632 21.3531 43.9587C22.0056 44.5182 22.6432 45.0939 23.2808 45.6697C23.4821 45.8514 23.6833 46.0332 23.885 46.2144C26.4616 46.1955 29.0006 46.0183 31.5649 45.7561C31.7917 45.7327 31.8395 46.109 31.6186 46.1481C29.2086 46.573 26.745 46.689 24.2988 46.5826C24.6308 46.8821 24.9625 47.1821 25.2942 47.482C26.9245 48.9561 28.5549 50.4303 30.2247 51.8619C30.246 51.8802 30.268 51.9 30.2901 51.9198C30.312 51.9393 30.3338 51.9589 30.3551 51.9772C31.7402 52.0415 33.1228 52.0457 34.5077 52.0499C34.8823 52.051 35.2571 52.0521 35.6321 52.0545C35.8194 52.0554 35.8165 52.3307 35.6321 52.3403C33.9671 52.4275 32.2973 52.349 30.6352 52.2249C30.8756 52.436 31.1182 52.6521 31.3631 52.8702C32.0084 53.4447 32.6696 54.0336 33.3489 54.5838C35.1782 54.5258 37.0121 54.4755 38.8375 54.5377C39.0701 54.5454 39.0694 54.8857 38.8375 54.895C37.1402 54.9626 35.4354 54.9315 33.7332 54.8896C34.0836 55.1607 34.4368 55.4228 34.7946 55.6535C35.4522 56.3496 36.2632 56.7755 37.2278 56.9309C38.8466 58.0493 39.4224 57.527 38.9552 55.3638C39.5874 54.2024 39.9312 52.7237 40.2737 51.2507C40.5297 50.1495 40.785 49.0515 41.1595 48.0916C42.1396 45.5792 43.2101 43.0995 44.2856 40.6262C49.7044 28.1673 55.8917 16.0434 62.7975 4.32959C51.6466 14.7218 40.5824 25.2031 29.558 35.726C31.2812 35.4748 33.0322 35.288 34.7739 35.3937C35.021 35.4088 35.022 35.7626 34.7739 35.7751C34.3835 35.7946 33.9938 35.8116 33.6045 35.8286C32.2057 35.8898 30.8126 35.9506 29.4169 36.1266C29.3325 36.1372 29.2827 36.0811 29.2555 36.0135C28.9613 36.2944 28.6663 36.5743 28.3713 36.8542C28.0642 37.1456 27.7572 37.4369 27.4511 37.7292C28.7972 37.7302 30.1377 37.6716 31.4827 37.6128C31.8686 37.596 32.2549 37.5791 32.6418 37.5636C32.9206 37.5523 32.9009 37.9462 32.6418 37.9805C30.7901 38.2269 28.9078 38.2125 27.0416 38.1189C26.3875 38.7441 25.7315 39.3674 25.0755 39.9906C24.3156 40.7125 23.5557 41.4345 22.7988 42.1596C25.7308 42.0343 28.6438 41.8532 31.5652 41.4988C31.8179 41.4684 31.8732 41.8975 31.6251 41.9378C28.5772 42.4352 25.4788 42.6717 22.3889 42.5502C22.2175 42.7146 22.0453 42.8782 21.8732 43.0417C21.7108 43.196 21.5485 43.3503 21.3867 43.5052C21.0163 43.8603 20.4522 43.3024 20.821 42.9451C20.9232 42.846 21.0262 42.7479 21.1292 42.6497C21.2128 42.57 21.2964 42.4903 21.3796 42.4102C21.3547 42.3234 21.3935 42.2195 21.5152 42.215C21.5391 42.2141 21.5627 42.2128 21.5867 42.2118C22.2535 41.5707 22.9225 40.9318 23.5915 40.2927C24.3501 39.5681 25.1088 38.8435 25.8644 38.1157C25.8602 38.1146 25.8567 38.1157 25.8531 38.1168C25.8493 38.118 25.8455 38.1191 25.8408 38.1176C21.8989 36.8835 18.0251 34.6908 14.4267 32.654L14.3069 32.5862L14.2451 32.59C14.1491 32.5958 14.1035 32.5339 14.0899 32.4634C14.0847 32.4604 14.0793 32.4574 14.074 32.4545C14.0687 32.4515 14.0633 32.4485 14.0582 32.4455C14.024 32.4262 14.0099 32.3999 13.9956 32.3734C13.9904 32.3637 13.9851 32.354 13.9789 32.3445C13.9779 32.3449 13.9763 32.3458 13.9754 32.3465C13.8421 32.4192 13.7314 32.2279 13.857 32.1459C13.8896 32.1244 13.9223 32.1036 13.955 32.0827C13.965 32.0645 13.98 32.052 13.9956 32.039C14.0032 32.0327 14.011 32.0262 14.0184 32.019C14.0158 32.0183 14.0132 32.0177 14.0107 32.017C13.9854 32.0108 13.9602 32.0047 13.9388 31.9805C9.30098 26.7849 4.94266 20.5599 1.92518 14.1812C1.86437 14.1354 1.83331 14.0697 1.83913 13.9937C1.79102 13.891 1.74271 13.7883 1.69439 13.6856C1.4695 13.2077 1.24457 12.7296 1.0398 12.2501C0.82436 11.7457 1.54153 11.2935 1.80323 11.8082C2.05986 12.3129 2.33686 12.8028 2.61379 13.2925C2.6978 13.4411 2.78181 13.5897 2.86523 13.7386C6.3013 13.5778 9.73672 13.4255 13.1767 13.3768C13.4617 13.3727 13.4562 13.795 13.1767 13.8117C9.82697 14.0107 6.47372 14.111 3.11982 14.2014C3.8551 15.4883 4.61594 16.7564 5.41268 17.9975C5.71289 17.9744 6.01308 17.9511 6.31326 17.9278C8.74274 17.7391 11.1717 17.5505 13.6069 17.4444C13.8657 17.4332 13.857 17.8149 13.6069 17.8376C11.1882 18.0581 8.76464 18.1968 6.34042 18.3354C6.11183 18.3485 5.88324 18.3616 5.65465 18.3747C6.36082 19.4659 7.07669 20.5497 7.80292 21.6258C10.0262 21.6434 12.236 21.5306 14.4573 21.4149C14.6987 21.4024 14.6848 21.7505 14.4573 21.7783C12.3385 22.0379 10.197 22.0655 8.063 22.0119C8.20838 22.227 8.35385 22.442 8.49932 22.6569C9.83797 24.635 11.1765 26.6129 12.4407 28.6461C13.6904 28.6083 14.9085 28.4399 16.1445 28.269C16.2792 28.2503 16.4141 28.2317 16.5493 28.2132C16.7683 28.1834 16.8712 28.4929 16.6438 28.5522C15.3469 28.8909 13.9799 28.9669 12.6368 28.9557C13.198 29.8671 13.7463 30.7881 14.2691 31.728C14.2953 31.7754 14.2969 31.8241 14.2865 31.8693C26.214 24.0866 38.5263 16.8332 50.8219 9.58964C55.0584 7.09382 59.293 4.59917 63.5091 2.08445C59.9399 2.43327 56.408 3.33086 52.898 4.22288C51.1164 4.67565 49.3404 5.12699 47.5681 5.5044C42.4547 6.59332 37.3094 7.5233 32.1417 8.31868C22.1841 9.85144 12.1056 10.9904 2.0219 11.0913C1.65701 11.0948 1.66801 10.5651 2.0219 10.5372L2.35994 10.5105C13.8579 9.60214 25.2959 8.6985 36.6731 6.71157C40.208 6.09424 43.7823 5.1882 47.3737 4.27785ZM26.282 37.7155C31.7037 32.4958 37.1266 27.2774 42.5896 22.1001C43.0982 21.6181 44.9458 19.9329 47.3326 17.7558C53.4072 12.215 62.9746 3.48818 62.8518 3.30252C62.9226 3.40955 21.2777 28.2263 14.5321 32.0359C14.5903 32.0636 14.6498 32.0903 14.7093 32.1169C14.7641 32.1415 14.8189 32.166 14.8727 32.1914C15.2538 32.159 15.6349 32.1262 16.0159 32.0933C18.2751 31.8986 20.5347 31.7039 22.8 31.6049C23.0556 31.594 23.0452 31.9677 22.8 31.9924C20.5496 32.2198 18.2909 32.3517 16.0327 32.4836C15.8791 32.4926 15.7256 32.5015 15.5721 32.5105C16.474 32.9278 17.3762 33.3444 18.2916 33.752C18.5734 33.7458 18.8553 33.739 19.1372 33.7322C20.6429 33.696 22.1503 33.6597 23.6537 33.7094C23.8902 33.7171 23.8899 34.0651 23.6537 34.0728C22.1594 34.1222 20.6613 34.086 19.1647 34.0497C19.0893 34.0479 19.014 34.0461 18.9386 34.0443C19.0158 34.0786 19.093 34.113 19.1702 34.1473C20.1662 34.5904 21.1633 35.034 22.1489 35.4944C22.4439 35.4801 22.7933 35.45 23.0795 35.4255C23.3132 35.4054 23.5048 35.3889 23.59 35.3876C24.4679 35.3742 25.3426 35.3992 26.2199 35.4296C26.4179 35.4363 26.4169 35.7254 26.2199 35.7334C25.0913 35.7789 23.9682 35.7953 22.8389 35.7792C22.8268 35.7791 22.8133 35.7799 22.7999 35.7807C22.7892 35.7813 22.7785 35.782 22.7687 35.7821C23.9047 36.3237 25.0269 36.8826 26.1074 37.4915C26.2021 37.545 26.2371 37.6277 26.25 37.7151C26.2554 37.7153 26.2607 37.7153 26.266 37.7153C26.2714 37.7153 26.2767 37.7153 26.282 37.7155Z" fill="#FFD171"/>
<path d="M65.5416 1.00065L65.5583 1.50037L65.5583 1.50037L65.5416 1.00065ZM47.3737 4.27785L47.4966 4.76252L47.3737 4.27785ZM65.5425 1.94312L65.5249 1.44343L65.5244 1.44345L65.5425 1.94312ZM65.4055 1.95265L65.3626 1.45449L65.3626 1.45449L65.4055 1.95265ZM65.2796 1.96171L65.2576 1.46219L64.9581 1.47533L64.8286 1.74574L65.2796 1.96171ZM65.189 2.08701L64.8486 1.72072L64.848 1.72127L65.189 2.08701ZM65.0745 2.19452L64.7316 1.8306L64.7316 1.83061L65.0745 2.19452ZM64.96 2.30204L64.619 1.93629L64.5662 1.98554L64.5295 2.04772L64.96 2.30204ZM50.7926 28.4933L51.2424 28.7115V28.7115L50.7926 28.4933ZM48.2711 33.5001L47.8261 33.2721L48.2711 33.5001ZM39.6084 59.5827L40.1082 59.5691L40.1082 59.5687L39.6084 59.5827ZM38.9889 59.9349L39.2889 59.5349L39.2888 59.5349L38.9889 59.9349ZM32.4341 54.8604L32.748 54.4712L32.6168 54.3654L32.4483 54.3606L32.4341 54.8604ZM32.1944 54.8547L32.1838 55.3546L32.1838 55.3546L32.1944 54.8547ZM31.9942 54.8502L32.0073 54.3503H32.0072L31.9942 54.8502ZM31.9942 54.6236L32.0105 55.1233L32.0116 55.1233L31.9942 54.6236ZM32.0637 54.6215L32.0776 55.1213L32.0776 55.1213L32.0637 54.6215ZM32.1326 54.6194L32.15 55.1191L33.4862 55.0727L32.4474 54.231L32.1326 54.6194ZM21.0215 44.2875L21.3929 43.9527L21.3929 43.9527L21.0215 44.2875ZM21.3531 43.9587L21.0274 44.3381L21.0276 44.3382L21.3531 43.9587ZM23.2808 45.6697L22.9457 46.0408L22.9457 46.0408L23.2808 45.6697ZM23.885 46.2144L23.5509 46.5863L23.695 46.7158L23.8887 46.7144L23.885 46.2144ZM31.5649 45.7561L31.6157 46.2535L31.6162 46.2535L31.5649 45.7561ZM31.6186 46.1481L31.7054 46.6405L31.7057 46.6404L31.6186 46.1481ZM24.2988 46.5826L24.3205 46.0831L22.9317 46.0227L23.9638 46.9538L24.2988 46.5826ZM25.2942 47.482L24.9588 47.8529L25.2942 47.482ZM30.2247 51.8619L30.5512 51.4832L30.5501 51.4823L30.2247 51.8619ZM30.2901 51.9198L30.6238 51.5474L30.6237 51.5473L30.2901 51.9198ZM30.3551 51.9772L30.0284 52.3558L30.1592 52.4687L30.3319 52.4767L30.3551 51.9772ZM34.5077 52.0499L34.5092 51.5499H34.5092L34.5077 52.0499ZM35.6321 52.0545L35.629 52.5544H35.6295L35.6321 52.0545ZM35.6321 52.3403L35.606 51.841L35.6059 51.841L35.6321 52.3403ZM30.6352 52.2249L30.6724 51.7263L29.1829 51.6152L30.3053 52.6007L30.6352 52.2249ZM31.3631 52.8702L31.0306 53.2436L31.0306 53.2436L31.3631 52.8702ZM33.3489 54.5838L33.0342 54.9724L33.1788 55.0895L33.3648 55.0836L33.3489 54.5838ZM38.8375 54.5377L38.8205 55.0374L38.821 55.0374L38.8375 54.5377ZM38.8375 54.895L38.8574 55.3946L38.8575 55.3946L38.8375 54.895ZM33.7332 54.8896L33.7455 54.3897L32.2218 54.3521L33.4272 55.285L33.7332 54.8896ZM34.7946 55.6535L35.158 55.3102L35.1164 55.2662L35.0656 55.2333L34.7946 55.6535ZM37.2278 56.9309L37.5121 56.5195L37.419 56.4553L37.3074 56.4373L37.2278 56.9309ZM38.9552 55.3638L38.5161 55.1248L38.4273 55.2879L38.4665 55.4694L38.9552 55.3638ZM40.2737 51.2507L39.7867 51.1374L40.2737 51.2507ZM41.1595 48.0916L40.6937 47.9099L40.6937 47.9099L41.1595 48.0916ZM44.2856 40.6262L43.8271 40.4268L43.8271 40.4268L44.2856 40.6262ZM62.7975 4.32959L63.2282 4.58352L62.4566 3.96381L62.7975 4.32959ZM29.558 35.726L29.2128 35.3644L28.0785 36.447L29.6301 36.2208L29.558 35.726ZM34.7739 35.3937L34.8043 34.8947L34.8042 34.8946L34.7739 35.3937ZM34.7739 35.7751L34.7989 36.2744L34.799 36.2744L34.7739 35.7751ZM33.6045 35.8286L33.5827 35.3291L33.6045 35.8286ZM29.4169 36.1266L29.4791 36.6227L29.4795 36.6227L29.4169 36.1266ZM29.2555 36.0135L29.7195 35.8271L29.4442 35.142L28.9102 35.6519L29.2555 36.0135ZM28.3713 36.8542L28.0271 36.4915V36.4915L28.3713 36.8542ZM27.4511 37.7292L27.1057 37.3677L26.2049 38.2283L27.4508 38.2292L27.4511 37.7292ZM31.4827 37.6128L31.4609 37.1133H31.4609L31.4827 37.6128ZM32.6418 37.5636L32.6618 38.0632L32.6619 38.0632L32.6418 37.5636ZM32.6418 37.9805L32.5762 37.4848L32.5758 37.4849L32.6418 37.9805ZM27.0416 38.1189L27.0666 37.6195L26.8517 37.6088L26.6961 37.7575L27.0416 38.1189ZM25.0755 39.9906L24.7311 39.6281L25.0755 39.9906ZM22.7988 42.1596L22.4529 41.7985L21.4954 42.7158L22.8201 42.6591L22.7988 42.1596ZM31.5652 41.4988L31.5054 41.0024L31.505 41.0025L31.5652 41.4988ZM31.6251 41.9378L31.5447 41.4443L31.5445 41.4444L31.6251 41.9378ZM22.3889 42.5502L22.4085 42.0506L22.1962 42.0423L22.0428 42.1894L22.3889 42.5502ZM21.8732 43.0417L22.2176 43.4042L22.2176 43.4042L21.8732 43.0417ZM21.3867 43.5052L21.0409 43.1442L21.0407 43.1443L21.3867 43.5052ZM20.821 42.9451L20.4732 42.5858L20.473 42.586L20.821 42.9451ZM21.1292 42.6497L20.7842 42.2878L20.7842 42.2878L21.1292 42.6497ZM21.3796 42.4102L21.7265 42.7704L21.9432 42.5616L21.8602 42.2724L21.3796 42.4102ZM21.5152 42.215L21.5336 42.7147L21.5352 42.7146L21.5152 42.215ZM21.5867 42.2118L21.6067 42.7114L21.7964 42.7038L21.9332 42.5723L21.5867 42.2118ZM23.5915 40.2927L23.9369 40.6543L23.5915 40.2927ZM25.8644 38.1157L26.2113 38.4758L26.8564 37.8545L25.9889 37.6315L25.8644 38.1157ZM25.8531 38.1168L25.7072 37.6386L25.707 37.6386L25.8531 38.1168ZM25.8408 38.1176L25.9924 37.6412L25.9902 37.6405L25.8408 38.1176ZM14.4267 32.654L14.673 32.2189L14.673 32.2189L14.4267 32.654ZM14.3069 32.5862L14.5532 32.151L14.424 32.0779L14.2759 32.0871L14.3069 32.5862ZM14.2451 32.59L14.2751 33.0891L14.2762 33.0891L14.2451 32.59ZM14.0899 32.4634L14.5808 32.3688L14.5381 32.147L14.3434 32.0325L14.0899 32.4634ZM14.074 32.4545L13.8312 32.8916L13.8313 32.8916L14.074 32.4545ZM14.0582 32.4455L14.3117 32.0145L14.3038 32.01L14.0582 32.4455ZM13.9956 32.3734L14.4359 32.1364L14.4358 32.1364L13.9956 32.3734ZM13.9789 32.3445L14.3961 32.0689L14.1853 31.7499L13.8222 31.8697L13.9789 32.3445ZM13.9754 32.3465L14.2149 32.7854L14.2333 32.7753L14.2508 32.7638L13.9754 32.3465ZM13.857 32.1459L14.1305 32.5644L14.1316 32.5637L13.857 32.1459ZM13.955 32.0827L14.2238 32.5043L14.3321 32.4352L14.3938 32.3224L13.955 32.0827ZM13.9956 32.039L13.6764 31.6542L13.6764 31.6542L13.9956 32.039ZM14.0184 32.019L14.3703 32.3742L14.9985 31.7518L14.1413 31.5343L14.0184 32.019ZM14.0107 32.017L13.8914 32.5026L13.8915 32.5026L14.0107 32.017ZM13.9388 31.9805L14.3127 31.6485L14.3118 31.6475L13.9388 31.9805ZM1.92518 14.1812L2.37716 13.9674L2.32448 13.856L2.22608 13.7819L1.92518 14.1812ZM1.83913 13.9937L2.33767 14.0319L2.34773 13.9007L2.29191 13.7816L1.83913 13.9937ZM1.69439 13.6856L1.24197 13.8985H1.24197L1.69439 13.6856ZM1.0398 12.2501L1.49964 12.0537L1.49961 12.0537L1.0398 12.2501ZM1.80323 11.8082L2.24893 11.5816L2.24892 11.5815L1.80323 11.8082ZM2.61379 13.2925L3.04903 13.0464H3.04903L2.61379 13.2925ZM2.86523 13.7386L2.42899 13.983L2.57997 14.2525L2.88862 14.2381L2.86523 13.7386ZM13.1767 13.3768L13.1837 13.8768L13.184 13.8768L13.1767 13.3768ZM13.1767 13.8117L13.2063 14.3108L13.2064 14.3108L13.1767 13.8117ZM3.11982 14.2014L3.10635 13.7016L2.27126 13.7241L2.68568 14.4494L3.11982 14.2014ZM5.41268 17.9975L4.99192 18.2676L5.15329 18.519L5.45113 18.4961L5.41268 17.9975ZM6.31326 17.9278L6.35197 18.4263H6.35197L6.31326 17.9278ZM13.6069 17.4444L13.5852 16.9449L13.5851 16.9449L13.6069 17.4444ZM13.6069 17.8376L13.5616 17.3397L13.5615 17.3397L13.6069 17.8376ZM6.34042 18.3354L6.31187 17.8362H6.31187L6.34042 18.3354ZM5.65465 18.3747L5.62595 17.8755L4.76795 17.9249L5.23489 18.6464L5.65465 18.3747ZM7.80292 21.6258L7.38847 21.9055L7.53572 22.1237L7.79896 22.1258L7.80292 21.6258ZM14.4573 21.4149L14.4315 20.9156L14.4313 20.9156L14.4573 21.4149ZM14.4573 21.7783L14.5181 22.2746L14.5182 22.2746L14.4573 21.7783ZM8.063 22.0119L8.07554 21.5121L7.10508 21.4878L7.64878 22.292L8.063 22.0119ZM8.49932 22.6569L8.91342 22.3767V22.3767L8.49932 22.6569ZM12.4407 28.6461L12.0161 28.9101L12.1681 29.1546L12.4559 29.1459L12.4407 28.6461ZM16.1445 28.269L16.0761 27.7737H16.0761L16.1445 28.269ZM16.5493 28.2132L16.4819 27.7177L16.4815 27.7178L16.5493 28.2132ZM16.6438 28.5522L16.5177 28.0684L16.5174 28.0685L16.6438 28.5522ZM12.6368 28.9557L12.6409 28.4557L11.737 28.4482L12.211 29.2179L12.6368 28.9557ZM14.2691 31.728L14.7067 31.4862L14.706 31.485L14.2691 31.728ZM14.2865 31.8693L13.7992 31.7577L13.5226 32.9648L14.5598 32.288L14.2865 31.8693ZM50.8219 9.58964L50.5681 9.15884L50.8219 9.58964ZM63.5091 2.08445L63.7652 2.51386L63.4605 1.58682L63.5091 2.08445ZM52.898 4.22288L53.0211 4.70748L52.898 4.22288ZM47.5681 5.5044L47.4639 5.01536L47.4639 5.01537L47.5681 5.5044ZM32.1417 8.31868L32.0656 7.8245L32.0656 7.8245L32.1417 8.31868ZM2.0219 11.0913L2.02674 11.5913L2.02691 11.5913L2.0219 11.0913ZM2.0219 10.5372L2.06117 11.0357L2.06128 11.0357L2.0219 10.5372ZM2.35994 10.5105L2.32056 10.0121H2.32056L2.35994 10.5105ZM36.6731 6.71157L36.587 6.21903V6.21903L36.6731 6.71157ZM42.5896 22.1001L42.2457 21.7371L42.2457 21.7372L42.5896 22.1001ZM26.282 37.7155L26.267 38.2152L26.4773 38.2215L26.6288 38.0757L26.282 37.7155ZM47.3326 17.7558L47.6695 18.1252V18.1252L47.3326 17.7558ZM62.8518 3.30252L63.2687 3.02655L62.4348 3.57843L62.8518 3.30252ZM14.5321 32.0359L14.2862 31.6006L13.4477 32.0741L14.3174 32.4875L14.5321 32.0359ZM14.7093 32.1169L14.5049 32.5732L14.5049 32.5732L14.7093 32.1169ZM14.8727 32.1914L14.6596 32.6437L14.7812 32.7009L14.915 32.6896L14.8727 32.1914ZM16.0159 32.0933L16.0589 32.5915H16.0589L16.0159 32.0933ZM22.8 31.6049L22.7787 31.1054L22.7782 31.1054L22.8 31.6049ZM22.8 31.9924L22.75 31.4949L22.7498 31.4949L22.8 31.9924ZM16.0327 32.4836L16.0618 32.9828H16.0618L16.0327 32.4836ZM15.5721 32.5105L15.5428 32.0114L15.3621 32.9643L15.5721 32.5105ZM18.2916 33.752L18.0882 34.2088L18.1906 34.2544L18.3027 34.2519L18.2916 33.752ZM19.1372 33.7322L19.1493 34.2321H19.1493L19.1372 33.7322ZM23.6537 33.7094L23.6372 34.2091L23.6375 34.2091L23.6537 33.7094ZM23.6537 34.0728L23.6374 33.5731L23.6372 33.5731L23.6537 34.0728ZM19.1647 34.0497L19.1768 33.5499H19.1768L19.1647 34.0497ZM18.9386 34.0443L18.9506 33.5444L18.7353 34.5011L18.9386 34.0443ZM19.1702 34.1473L19.3734 33.6905L19.3734 33.6905L19.1702 34.1473ZM22.1489 35.4944L21.9373 35.9474L22.0494 35.9998L22.1731 35.9938L22.1489 35.4944ZM23.0795 35.4255L23.0367 34.9273H23.0367L23.0795 35.4255ZM23.59 35.3876L23.5976 35.8876H23.5977L23.59 35.3876ZM26.2199 35.4296L26.2026 35.9293L26.203 35.9293L26.2199 35.4296ZM26.2199 35.7334L26.2401 36.233L26.2403 36.233L26.2199 35.7334ZM22.8389 35.7792L22.8314 36.2792L22.8318 36.2792L22.8389 35.7792ZM22.7999 35.7807L22.7697 35.2816L22.7696 35.2816L22.7999 35.7807ZM22.7687 35.7821L22.7615 35.2822L22.5535 36.2335L22.7687 35.7821ZM26.1074 37.4915L26.3532 37.0561L26.3528 37.0559L26.1074 37.4915ZM26.25 37.7151L25.7554 37.7883L25.8166 38.2024L26.235 38.2149L26.25 37.7151ZM65.5249 0.500928C59.4285 0.704251 53.2837 2.26394 47.2508 3.79318L47.4966 4.76252C53.5504 3.22798 59.5887 1.69947 65.5583 1.50037L65.5249 0.500928ZM65.5602 2.44281C66.1962 2.42038 66.4996 1.89372 66.5 1.45657C66.5002 1.23632 66.4296 0.99516 66.259 0.803659C66.0786 0.601067 65.8181 0.491108 65.5248 0.50093L65.5583 1.50037C65.5699 1.49998 65.565 1.50209 65.5506 1.49612C65.536 1.49008 65.5224 1.48012 65.5123 1.46882C65.503 1.45839 65.5 1.45052 65.4995 1.44903C65.499 1.44775 65.5 1.45018 65.5 1.45571C65.5 1.4612 65.499 1.46575 65.4982 1.46819C65.4974 1.47046 65.4978 1.46791 65.5022 1.46263C65.5072 1.45669 65.5149 1.45027 65.5239 1.44589C65.5332 1.44139 65.5355 1.44306 65.5249 1.44343L65.5602 2.44281ZM65.4483 2.4508C65.496 2.4467 65.5293 2.44394 65.5607 2.44279L65.5244 1.44345C65.4641 1.44565 65.4062 1.45074 65.3626 1.45449L65.4483 2.4508ZM65.3015 2.46123C65.3557 2.45885 65.4081 2.45427 65.4483 2.4508L65.3626 1.45449C65.3189 1.45825 65.2874 1.46089 65.2576 1.46219L65.3015 2.46123ZM65.5293 2.4533C65.6266 2.36294 65.6886 2.26512 65.7305 2.17768L64.8286 1.74574C64.828 1.74696 64.8295 1.74371 64.8334 1.73817C64.8375 1.73235 64.8427 1.72621 64.8486 1.72072L65.5293 2.4533ZM65.4173 2.55844C65.4556 2.52237 65.4927 2.48741 65.5299 2.45275L64.848 1.72127C64.8086 1.75807 64.7695 1.79489 64.7316 1.8306L65.4173 2.55844ZM65.3009 2.66778C65.3404 2.63098 65.3794 2.59415 65.4174 2.55843L64.7316 1.83061C64.6933 1.86667 64.6562 1.90164 64.619 1.93629L65.3009 2.66778ZM51.2424 28.7115C55.5715 19.7882 60.3405 11.1044 65.3904 2.55636L64.5295 2.04772C59.4691 10.6135 54.6863 19.3217 50.3427 28.275L51.2424 28.7115ZM48.716 33.7281C49.597 32.0089 50.4572 30.33 51.2424 28.7115L50.3427 28.275C49.5631 29.882 48.708 31.5508 47.8261 33.2721L48.716 33.7281ZM40.1082 59.5687C39.9888 55.3103 41.0849 50.901 42.7464 46.5191C44.4079 42.1373 46.6213 37.8163 48.716 33.7281L47.8261 33.2721C45.7359 37.3515 43.4959 41.7219 41.8114 46.1645C40.1268 50.6071 38.984 55.1553 39.1086 59.5967L40.1082 59.5687ZM38.6889 60.3349C39.0244 60.5865 39.4122 60.5135 39.6579 60.3627C39.8939 60.2178 40.1181 59.9328 40.1082 59.5691L39.1086 59.5964C39.1074 59.5545 39.1206 59.5288 39.1256 59.5207C39.1302 59.5132 39.1333 59.5114 39.1349 59.5104C39.1364 59.5095 39.1506 59.5009 39.1799 59.5001C39.2145 59.4991 39.2559 59.5102 39.2889 59.5349L38.6889 60.3349ZM32.1202 55.2496C34.2821 56.9931 36.4842 58.6819 38.6889 60.3349L39.2888 59.5349C37.0896 57.8859 34.8975 56.2047 32.748 54.4712L32.1202 55.2496ZM32.1838 55.3546C32.2641 55.3563 32.3423 55.358 32.4199 55.3602L32.4483 54.3606C32.3666 54.3583 32.2847 54.3565 32.205 54.3549L32.1838 55.3546ZM31.981 55.35C32.0491 55.3518 32.1172 55.3532 32.1838 55.3546L32.205 54.3549C32.138 54.3534 32.0724 54.352 32.0073 54.3503L31.981 55.35ZM31.9778 54.1239C31.8077 54.1294 31.6473 54.2022 31.534 54.3326C31.4279 54.4548 31.384 54.6029 31.3839 54.7369C31.3838 54.8708 31.4275 55.0198 31.5348 55.1426C31.6493 55.2739 31.8111 55.3455 31.9811 55.35L32.0072 54.3503C32.1036 54.3528 32.2103 54.3958 32.2881 54.485C32.3586 54.5657 32.3839 54.6592 32.3839 54.7376C32.3838 54.816 32.3583 54.9085 32.289 54.9883C32.2125 55.0764 32.1072 55.1202 32.0105 55.1233L31.9778 54.1239ZM32.0499 54.1217C32.0269 54.1223 32.0019 54.123 31.9768 54.1239L32.0116 55.1233C32.0326 55.1225 32.0541 55.122 32.0776 55.1213L32.0499 54.1217ZM32.1153 54.1197C32.0943 54.1204 32.0731 54.121 32.0499 54.1217L32.0776 55.1213C32.1003 55.1207 32.125 55.12 32.15 55.1191L32.1153 54.1197ZM20.6501 44.6222C24.0518 48.3961 27.8631 51.8031 31.8178 55.0079L32.4474 54.231C28.5162 51.0452 24.7476 47.6744 21.3929 43.9527L20.6501 44.6222ZM21.6788 43.5793C21.3427 43.2908 20.9157 43.3723 20.6751 43.6093C20.5576 43.7251 20.4698 43.889 20.457 44.0803C20.4435 44.2808 20.5151 44.4724 20.6501 44.6222L21.3929 43.9527C21.4267 43.9902 21.4606 44.0601 21.4548 44.1473C21.4495 44.2254 21.4146 44.2845 21.3769 44.3217C21.3391 44.3589 21.2831 44.3897 21.2123 44.3947C21.1333 44.4004 21.0665 44.3716 21.0274 44.3381L21.6788 43.5793ZM23.6159 45.2986C22.9791 44.7236 22.3368 44.1435 21.6785 43.5791L21.0276 44.3382C21.6745 44.8929 22.3073 45.4643 22.9457 46.0408L23.6159 45.2986ZM24.2192 45.8424C24.018 45.6617 23.8172 45.4804 23.6159 45.2986L22.9457 46.0408C23.1469 46.2224 23.3486 46.4046 23.5509 46.5863L24.2192 45.8424ZM31.514 45.2587C28.9601 45.5198 26.4375 45.6956 23.8813 45.7144L23.8887 46.7144C26.4856 46.6953 29.0412 46.5167 31.6157 46.2535L31.514 45.2587ZM31.7057 46.6404C31.9151 46.6034 32.077 46.4772 32.1697 46.3147C32.2553 46.1646 32.2736 46.0012 32.2553 45.8631C32.2371 45.7251 32.1767 45.5703 32.0518 45.4467C31.916 45.3123 31.7239 45.2371 31.5136 45.2588L31.6162 46.2535C31.5192 46.2635 31.4182 46.2265 31.3483 46.1573C31.2892 46.0989 31.2695 46.0362 31.2639 45.9942C31.2584 45.9521 31.2614 45.8887 31.301 45.8194C31.3475 45.7377 31.4326 45.6732 31.5315 45.6557L31.7057 46.6404ZM24.277 47.0821C26.7531 47.1898 29.2537 47.0727 31.7054 46.6405L31.5318 45.6556C29.1635 46.0732 26.7369 46.1882 24.3205 46.0831L24.277 47.0821ZM25.6295 47.1111C25.2979 46.8112 24.966 46.5111 24.6337 46.2114L23.9638 46.9538C24.2956 47.2532 24.6271 47.5529 24.9588 47.8529L25.6295 47.1111ZM30.5501 51.4823C28.8862 50.0557 27.2606 48.586 25.6295 47.1111L24.9588 47.8529C26.5883 49.3262 28.2237 50.8049 29.8993 52.2415L30.5501 51.4823ZM30.6237 51.5473C30.6024 51.5282 30.5767 51.5052 30.5512 51.4832L29.8982 52.2406C29.9153 52.2553 29.9337 52.2718 29.9565 52.2922L30.6237 51.5473ZM30.6817 51.5987C30.6646 51.5839 30.6463 51.5675 30.6238 51.5474L29.9565 52.2921C29.9776 52.3111 30.003 52.3339 30.0284 52.3558L30.6817 51.5987ZM34.5092 51.5499C33.1226 51.5457 31.7507 51.5415 30.3783 51.4778L30.3319 52.4767C31.7296 52.5416 33.1231 52.5457 34.5062 52.5499L34.5092 51.5499ZM35.6352 51.5545C35.2592 51.5521 34.8837 51.551 34.5092 51.5499L34.5062 52.5499C34.8809 52.551 35.2549 52.5521 35.629 52.5544L35.6352 51.5545ZM35.6581 52.8396C36.0627 52.8185 36.27 52.4813 36.2715 52.1967C36.2722 52.0555 36.2266 51.8964 36.1108 51.7661C35.9872 51.6269 35.8139 51.5554 35.6346 51.5545L35.6295 52.5544C35.5439 52.554 35.4405 52.5172 35.3633 52.4303C35.2938 52.3522 35.2711 52.2627 35.2715 52.1915C35.2718 52.1202 35.2953 52.0379 35.3565 51.9665C35.4243 51.8872 35.5186 51.8455 35.606 51.841L35.6581 52.8396ZM30.598 52.7236C32.2675 52.8481 33.9618 52.9284 35.6582 52.8396L35.6059 51.841C33.9724 51.9265 32.3271 51.8498 30.6724 51.7263L30.598 52.7236ZM31.6957 52.4968C31.451 52.2789 31.207 52.0617 30.9651 51.8492L30.3053 52.6007C30.5442 52.8104 30.7855 53.0253 31.0306 53.2436L31.6957 52.4968ZM33.6637 54.1953C32.995 53.6536 32.3424 53.0726 31.6957 52.4968L31.0306 53.2436C31.6744 53.8168 32.3443 54.4135 33.0342 54.9724L33.6637 54.1953ZM38.8545 54.038C37.0107 53.9752 35.1617 54.0261 33.3331 54.0841L33.3648 55.0836C35.1948 55.0256 37.0135 54.9759 38.8205 55.0374L38.8545 54.038ZM38.8575 55.3946C39.0469 55.387 39.2217 55.3064 39.345 55.1648C39.4616 55.031 39.5116 54.8671 39.5117 54.7162C39.5118 54.5654 39.4622 54.4005 39.3443 54.266C39.2196 54.1236 39.0433 54.0442 38.854 54.038L38.821 55.0374C38.748 55.035 38.6588 55.0011 38.5921 54.9249C38.5323 54.8567 38.5116 54.7789 38.5117 54.7153C38.5118 54.6516 38.5326 54.5751 38.5911 54.5079C38.6564 54.433 38.7441 54.3984 38.8175 54.3954L38.8575 55.3946ZM33.7209 55.3894C35.4235 55.4314 37.1424 55.4629 38.8574 55.3946L38.8176 54.3954C37.1379 54.4623 35.4473 54.4317 33.7455 54.3897L33.7209 55.3894ZM35.0656 55.2333C34.7255 55.0141 34.3854 54.762 34.0392 54.4941L33.4272 55.285C33.7817 55.5593 34.1481 55.8316 34.5236 56.0737L35.0656 55.2333ZM37.3074 56.4373C36.449 56.299 35.7385 55.9246 35.158 55.3102L34.4311 55.9969C35.1659 56.7746 36.0774 57.252 37.1483 57.4245L37.3074 56.4373ZM38.4665 55.4694C38.5793 55.9918 38.6216 56.3832 38.6104 56.6583C38.5986 56.9511 38.5309 57.0139 38.5378 57.0076C38.5724 56.9762 38.5692 57.0316 38.3774 56.9795C38.1837 56.9269 37.899 56.7869 37.5121 56.5195L36.9436 57.3423C37.3661 57.6341 37.7603 57.8482 38.1153 57.9446C38.4721 58.0415 38.8872 58.0408 39.2097 57.7483C39.5045 57.4808 39.5943 57.0774 39.6096 56.6988C39.6257 56.3025 39.5647 55.8175 39.444 55.2583L38.4665 55.4694ZM39.7867 51.1374C39.44 52.6287 39.1093 54.0348 38.5161 55.1248L39.3944 55.6029C40.0655 54.3699 40.4225 52.8186 40.7607 51.3639L39.7867 51.1374ZM40.6937 47.9099C40.3037 48.9096 40.0408 50.0445 39.7867 51.1374L40.7607 51.3639C41.0187 50.2545 41.2664 49.1935 41.6253 48.2734L40.6937 47.9099ZM43.8271 40.4268C42.7516 42.8999 41.6777 45.3876 40.6937 47.9099L41.6253 48.2734C42.6016 45.7709 43.6685 43.2992 44.7442 40.8256L43.8271 40.4268ZM62.3667 4.07566C55.4507 15.8069 49.2541 27.9491 43.8271 40.4268L44.7442 40.8256C50.1547 28.3856 56.3327 16.2798 63.2282 4.58352L62.3667 4.07566ZM29.9032 36.0877C40.9268 25.5656 51.9894 15.0858 63.1383 4.69537L62.4566 3.96381C51.3037 14.3578 40.238 24.8406 29.2128 35.3644L29.9032 36.0877ZM34.8042 34.8946C33.0101 34.7857 31.2182 34.9787 29.4859 35.2313L29.6301 36.2208C31.3442 35.9709 33.0544 35.7902 34.7436 35.8928L34.8042 34.8946ZM34.799 36.2744C34.9877 36.2649 35.1633 36.1851 35.2887 36.0426C35.408 35.907 35.4598 35.7399 35.4596 35.5847C35.4592 35.2642 35.2255 34.9203 34.8043 34.8947L34.7435 35.8928C34.6785 35.8888 34.5977 35.857 34.5363 35.7867C34.4808 35.723 34.4597 35.6493 34.4596 35.586C34.4595 35.5227 34.4805 35.4473 34.5379 35.382C34.6014 35.3099 34.6841 35.279 34.7487 35.2757L34.799 36.2744ZM33.6264 36.3282C34.0154 36.3112 34.4067 36.2941 34.7989 36.2744L34.7489 35.2757C34.3604 35.2951 33.9722 35.3121 33.5827 35.3291L33.6264 36.3282ZM29.4795 36.6227C30.8515 36.4497 32.2242 36.3894 33.6264 36.3282L33.5827 35.3291C32.1871 35.3901 30.7737 35.4516 29.3544 35.6306L29.4795 36.6227ZM28.7916 36.1999C28.8241 36.2807 28.8856 36.3962 29.0022 36.4896C29.133 36.5944 29.3015 36.645 29.4791 36.6227L29.3548 35.6305C29.448 35.6188 29.5493 35.6466 29.6274 35.7091C29.6912 35.7603 29.7142 35.8139 29.7195 35.8271L28.7916 36.1999ZM28.7154 37.217C29.0103 36.9372 29.306 36.6567 29.6008 36.3751L28.9102 35.6519C28.6167 35.9322 28.3222 36.2115 28.0271 36.4915L28.7154 37.217ZM27.7965 38.0908C28.1018 37.7991 28.4082 37.5084 28.7154 37.217L28.0271 36.4915C27.7202 36.7827 27.4125 37.0746 27.1057 37.3677L27.7965 38.0908ZM31.4609 37.1133C30.114 37.1722 28.7846 37.2302 27.4515 37.2292L27.4508 38.2292C28.8098 38.2302 30.1613 38.1711 31.5046 38.1123L31.4609 37.1133ZM32.6218 37.064C32.2338 37.0795 31.8466 37.0964 31.4609 37.1133L31.5046 38.1123C31.8906 38.0955 32.276 38.0786 32.6618 38.0632L32.6218 37.064ZM32.7074 38.4762C33.1209 38.4214 33.3359 38.072 33.3434 37.7671C33.3472 37.6106 33.2997 37.427 33.1623 37.279C33.0163 37.1218 32.8167 37.0561 32.6217 37.064L32.6619 38.0632C32.6063 38.0654 32.5087 38.0448 32.4294 37.9594C32.3587 37.8831 32.3423 37.798 32.3437 37.7428C32.3461 37.6406 32.4218 37.5052 32.5762 37.4848L32.7074 38.4762ZM27.0166 38.6183C28.8945 38.7125 30.8119 38.7284 32.7077 38.4761L32.5758 37.4849C30.7684 37.7254 28.921 37.7125 27.0666 37.6195L27.0166 38.6183ZM25.4199 40.3531C26.0758 39.7299 26.7324 39.1062 27.3871 38.4804L26.6961 37.7575C26.0427 38.3821 25.3873 39.0048 24.7311 39.6281L25.4199 40.3531ZM23.1446 42.5207C23.9007 41.7964 24.6599 41.0752 25.4199 40.3531L24.7311 39.6281C23.9714 40.3499 23.2107 41.0726 22.4529 41.7985L23.1446 42.5207ZM31.505 41.0025C28.6022 41.3546 25.7038 41.535 22.7774 41.6601L22.8201 42.6591C25.7578 42.5336 28.6855 42.3519 31.6254 41.9952L31.505 41.0025ZM31.7054 42.4314C31.9258 42.3955 32.095 42.2637 32.1909 42.0945C32.2792 41.9387 32.2975 41.7689 32.2786 41.626C32.2597 41.4833 32.1975 41.3223 32.0683 41.1941C31.9275 41.0542 31.7265 40.9758 31.5054 41.0024L31.625 41.9952C31.5303 42.0066 31.431 41.9704 31.3637 41.9037C31.3083 41.8486 31.2918 41.7917 31.2873 41.7575C31.2827 41.7232 31.2841 41.6663 31.321 41.6013C31.3653 41.5231 31.4483 41.46 31.5447 41.4443L31.7054 42.4314ZM22.3693 43.0499C25.4975 43.1728 28.6297 42.9332 31.7056 42.4313L31.5445 41.4444C28.5246 41.9372 25.4601 42.1706 22.4085 42.0506L22.3693 43.0499ZM22.2176 43.4042C22.3896 43.2408 22.5625 43.0765 22.735 42.9111L22.0428 42.1894C21.8724 42.3528 21.7011 42.5156 21.5288 42.6793L22.2176 43.4042ZM21.7326 43.8663C21.8935 43.7122 22.0551 43.5586 22.2176 43.4042L21.5288 42.6793C21.3666 42.8334 21.2035 42.9884 21.0409 43.1442L21.7326 43.8663ZM20.473 42.586C20.2795 42.7735 20.1853 43.0178 20.2029 43.2683C20.2195 43.5043 20.3318 43.706 20.475 43.8477C20.6185 43.9897 20.8191 44.0976 21.0502 44.1161C21.294 44.1357 21.5386 44.0523 21.7327 43.8662L21.0407 43.1443C21.0418 43.1433 21.0519 43.1344 21.0718 43.1272C21.0916 43.1201 21.1121 43.1179 21.1302 43.1193C21.1629 43.122 21.1761 43.1346 21.1783 43.1369C21.1803 43.1388 21.1975 43.1562 21.2005 43.1982C21.2021 43.2209 21.1987 43.2459 21.1896 43.269C21.1805 43.2921 21.1698 43.3033 21.1689 43.3041L20.473 42.586ZM20.7842 42.2878C20.6815 42.3857 20.5771 42.4852 20.4732 42.5858L21.1687 43.3043C21.2694 43.2068 21.371 43.11 21.4742 43.0117L20.7842 42.2878ZM21.0328 42.0501C20.9507 42.1292 20.868 42.208 20.7842 42.2878L21.4742 43.0117C21.5576 42.9321 21.6422 42.8515 21.7265 42.7704L21.0328 42.0501ZM21.4967 41.7154C21.2781 41.7234 21.0751 41.8333 20.9605 42.0299C20.8587 42.2044 20.8556 42.3967 20.899 42.5481L21.8602 42.2724C21.8787 42.3369 21.8825 42.4338 21.8244 42.5336C21.7533 42.6554 21.6305 42.7111 21.5336 42.7147L21.4967 41.7154ZM21.5666 41.7122C21.5526 41.7128 21.5389 41.7135 21.5273 41.714C21.5151 41.7146 21.505 41.715 21.4951 41.7155L21.5352 42.7146C21.5493 42.7141 21.5629 42.7134 21.5745 42.7129C21.5867 42.7123 21.5968 42.7118 21.6067 42.7114L21.5666 41.7122ZM23.2462 39.9312C22.5772 40.5701 21.9077 41.2096 21.2401 41.8514L21.9332 42.5723C22.5993 41.9318 23.2677 41.2934 23.9369 40.6543L23.2462 39.9312ZM25.5176 37.7556C24.7628 38.4825 24.0049 39.2065 23.2462 39.9312L23.9369 40.6543C24.6954 39.9298 25.4548 39.2045 26.2113 38.4758L25.5176 37.7556ZM25.9991 38.595C26.0136 38.5906 25.8889 38.6383 25.7399 38.6L25.9889 37.6315C25.9108 37.6114 25.8405 37.6128 25.7863 37.6207C25.761 37.6244 25.7408 37.6293 25.728 37.6326C25.7216 37.6343 25.7163 37.6358 25.713 37.6368C25.7099 37.6377 25.7072 37.6386 25.7072 37.6386L25.9991 38.595ZM25.6892 38.5941C25.7705 38.6199 25.8466 38.6222 25.909 38.6144C25.9376 38.6108 25.9606 38.6055 25.9753 38.6017C25.9827 38.5998 25.9887 38.5981 25.9926 38.597C25.9961 38.5959 25.9992 38.595 25.9993 38.595L25.707 37.6386C25.6962 37.6419 25.8323 37.5902 25.9924 37.6412L25.6892 38.5941ZM14.1805 33.0891C17.7691 35.1204 21.6898 37.3419 25.6914 38.5948L25.9902 37.6405C22.1081 36.425 18.2811 34.2611 14.673 32.2189L14.1805 33.0891ZM14.0606 33.0213L14.1805 33.0891L14.673 32.2189L14.5532 32.151L14.0606 33.0213ZM14.2762 33.0891L14.338 33.0852L14.2759 32.0871L14.2141 32.091L14.2762 33.0891ZM13.5989 32.5581C13.619 32.6624 13.6705 32.8037 13.7945 32.92C13.9305 33.0476 14.1051 33.0993 14.2751 33.0891L14.2152 32.0909C14.2891 32.0865 14.3929 32.1102 14.4786 32.1907C14.5525 32.2599 14.5743 32.335 14.5808 32.3688L13.5989 32.5581ZM13.8313 32.8916C13.8342 32.8932 13.8355 32.8939 13.8366 32.8945C13.8375 32.8951 13.8373 32.8949 13.8363 32.8944L14.3434 32.0325C14.3319 32.0257 14.3211 32.0197 14.3167 32.0173L13.8313 32.8916ZM13.8046 32.8764C13.8161 32.8832 13.827 32.8892 13.8312 32.8916L14.3168 32.0173C14.3138 32.0157 14.3125 32.015 14.3114 32.0144C14.3104 32.0138 14.3107 32.014 14.3117 32.0145L13.8046 32.8764ZM13.5553 32.6104C13.57 32.6376 13.6411 32.7843 13.8125 32.881L14.3038 32.01C14.3504 32.0363 14.3873 32.0708 14.4137 32.1047C14.4342 32.131 14.4458 32.155 14.4359 32.1364L13.5553 32.6104ZM13.5617 32.6202C13.5569 32.6128 13.5538 32.6074 13.5529 32.6059C13.5524 32.605 13.5523 32.6048 13.5527 32.6056C13.5533 32.6066 13.5539 32.6077 13.5553 32.6104L14.4358 32.1364C14.4323 32.1297 14.4167 32.1002 14.3961 32.0689L13.5617 32.6202ZM14.2508 32.7638C14.2423 32.7694 14.2322 32.7756 14.2205 32.7821C14.2145 32.7855 14.2054 32.7904 14.194 32.7959C14.1844 32.8005 14.1634 32.8102 14.1356 32.8194L13.8222 31.8697C13.7744 31.8855 13.7394 31.9055 13.7337 31.9086C13.7208 31.9159 13.7094 31.9229 13.6999 31.9292L14.2508 32.7638ZM13.5834 31.7273C13.26 31.9387 13.2483 32.3183 13.3874 32.5565C13.4557 32.6733 13.5699 32.7804 13.7259 32.832C13.8918 32.887 14.067 32.8661 14.2149 32.7854L13.7358 31.9076C13.8171 31.8632 13.9284 31.8457 14.0401 31.8827C14.1417 31.9163 14.2111 31.9841 14.2508 32.0519C14.2905 32.1198 14.3141 32.211 14.2956 32.3122C14.2752 32.4234 14.2097 32.5126 14.1305 32.5644L13.5834 31.7273ZM13.6862 31.6611C13.654 31.6817 13.6184 31.7043 13.5824 31.728L14.1316 32.5637C14.1609 32.5444 14.1906 32.5255 14.2238 32.5043L13.6862 31.6611ZM13.6764 31.6542C13.6715 31.6582 13.5792 31.7277 13.5162 31.843L14.3938 32.3224C14.3704 32.3652 14.3445 32.3945 14.3283 32.4109C14.3152 32.4241 14.3037 32.4331 14.3148 32.4239L13.6764 31.6542ZM13.6665 31.6638C13.6728 31.6575 13.6776 31.6533 13.6793 31.6518C13.6801 31.6511 13.6804 31.6508 13.6799 31.6513C13.6793 31.6518 13.6785 31.6525 13.6764 31.6542L14.3148 32.4239C14.3201 32.4195 14.3448 32.3994 14.3703 32.3742L13.6665 31.6638ZM13.8915 32.5026C13.8941 32.5033 13.8949 32.5035 13.8954 32.5036L14.1413 31.5343C14.1367 31.5331 14.1324 31.5321 14.1299 31.5315L13.8915 32.5026ZM13.5649 32.3125C13.7007 32.4654 13.8721 32.4979 13.8914 32.5026L14.13 31.5315C14.1108 31.5268 14.1406 31.5328 14.1748 31.5479C14.2188 31.5673 14.2691 31.5994 14.3127 31.6485L13.5649 32.3125ZM1.4732 14.395C4.51471 20.8245 8.90212 27.0889 13.5658 32.3135L14.3118 31.6475C9.69985 26.4809 5.37061 20.2953 2.37716 13.9674L1.4732 14.395ZM1.3406 13.9555C1.32122 14.2082 1.43279 14.4362 1.62428 14.5805L2.22608 13.7819C2.25559 13.8041 2.28806 13.8393 2.31097 13.8888C2.33412 13.9389 2.34093 13.9894 2.33767 14.0319L1.3406 13.9555ZM1.24197 13.8985C1.29032 14.0013 1.33845 14.1036 1.38636 14.2058L2.29191 13.7816C2.24359 13.6785 2.1951 13.5754 2.14681 13.4728L1.24197 13.8985ZM0.579965 12.4464C0.788894 12.9357 1.01776 13.422 1.24197 13.8985L2.14681 13.4728C1.92124 12.9934 1.70024 12.5236 1.49964 12.0537L0.579965 12.4464ZM2.24892 11.5815C2.12366 11.3352 1.91404 11.1587 1.65046 11.1008C1.40162 11.0462 1.1643 11.1102 0.984122 11.219C0.6323 11.4314 0.354383 11.9183 0.579988 12.4465L1.49961 12.0537C1.49813 12.0502 1.49993 12.0532 1.5 12.061C1.50006 12.0682 1.49856 12.0741 1.49727 12.0774C1.49583 12.0811 1.4971 12.0774 1.50105 12.075C1.50594 12.072 1.48352 12.088 1.43602 12.0775C1.41107 12.0721 1.38833 12.0607 1.37134 12.0469C1.35495 12.0336 1.35269 12.0253 1.35754 12.0348L2.24892 11.5815ZM3.04903 13.0464C2.77122 12.5551 2.49972 12.0748 2.24893 11.5816L1.35752 12.0348C1.62 12.551 1.90251 13.0505 2.17856 13.5387L3.04903 13.0464ZM3.30147 13.4943C3.21746 13.3443 3.13295 13.1949 3.04903 13.0464L2.17856 13.5387C2.26265 13.6874 2.34615 13.835 2.42899 13.983L3.30147 13.4943ZM13.1696 12.8769C9.72057 12.9257 6.27778 13.0783 2.84185 13.2392L2.88862 14.2381C6.32482 14.0772 9.75286 13.9254 13.1837 13.8768L13.1696 12.8769ZM13.2064 14.3108C13.6598 14.2838 13.8863 13.9061 13.8883 13.5897C13.8894 13.431 13.8386 13.2521 13.7086 13.107C13.5699 12.9522 13.3745 12.8739 13.1694 12.8769L13.184 13.8768C13.1213 13.8777 13.0322 13.8506 12.9638 13.7744C12.9042 13.7078 12.888 13.6348 12.8884 13.5832C12.8887 13.5313 12.9054 13.4694 12.9527 13.4135C13.0065 13.3498 13.0816 13.3165 13.1469 13.3126L13.2064 14.3108ZM3.13328 14.7012C6.48727 14.6108 9.84773 14.5103 13.2063 14.3108L13.147 13.3126C9.80621 13.511 6.46016 13.6112 3.10635 13.7016L3.13328 14.7012ZM5.83345 17.7274C5.04213 16.4947 4.28575 15.2342 3.55396 13.9533L2.68568 14.4494C3.42445 15.7425 4.18975 17.0181 4.99192 18.2676L5.83345 17.7274ZM6.27456 17.4293C5.97435 17.4526 5.67429 17.4759 5.37423 17.499L5.45113 18.4961C5.75149 18.4729 6.05181 18.4496 6.35197 18.4263L6.27456 17.4293ZM13.5851 16.9449C11.1401 17.0514 8.70262 17.2407 6.27456 17.4293L6.35197 18.4263C8.78285 18.2375 11.2034 18.0496 13.6287 17.944L13.5851 16.9449ZM13.6522 18.3356C14.082 18.2965 14.2943 17.9344 14.2977 17.6339C14.2994 17.4811 14.2515 17.3038 14.1199 17.1602C13.9787 17.0061 13.7826 16.9363 13.5852 16.9449L13.6286 17.944C13.5606 17.9469 13.4604 17.9206 13.3826 17.8357C13.3143 17.7612 13.2971 17.6786 13.2978 17.6227C13.2984 17.566 13.3168 17.5031 13.3627 17.4473C13.4145 17.3843 13.4892 17.3463 13.5616 17.3397L13.6522 18.3356ZM6.36897 18.8346C8.79179 18.696 11.2238 18.557 13.6523 18.3356L13.5615 17.3397C11.1526 17.5593 8.7375 17.6975 6.31187 17.8362L6.36897 18.8346ZM5.68335 18.8739C5.91186 18.8608 6.14037 18.8477 6.36897 18.8346L6.31187 17.8362C6.08329 17.8493 5.85463 17.8624 5.62595 17.8755L5.68335 18.8739ZM8.21737 21.3461C7.49299 20.2727 6.77889 19.1916 6.07441 18.1031L5.23489 18.6464C5.94275 19.7402 6.66039 20.8266 7.38847 21.9055L8.21737 21.3461ZM14.4313 20.9156C12.208 21.0314 10.0129 21.1433 7.80688 21.1258L7.79896 22.1258C10.0396 22.1435 12.2639 22.0298 14.4833 21.9143L14.4313 20.9156ZM14.5182 22.2746C14.9233 22.2249 15.1273 21.8816 15.133 21.5913C15.1359 21.4421 15.0904 21.2653 14.9575 21.1222C14.8152 20.9691 14.6203 20.9058 14.4315 20.9156L14.4832 21.9143C14.415 21.9178 14.3089 21.8934 14.2248 21.8028C14.15 21.7223 14.132 21.6319 14.1332 21.5717C14.1354 21.4593 14.2188 21.3038 14.3965 21.282L14.5182 22.2746ZM8.05047 22.5118C10.1956 22.5656 12.3646 22.5384 14.5181 22.2746L14.3965 21.282C12.3124 21.5374 10.1984 21.5653 8.07554 21.5121L8.05047 22.5118ZM8.91342 22.3767C8.76794 22.1617 8.62253 21.9468 8.47722 21.7319L7.64878 22.292C7.79423 22.5071 7.93977 22.7222 8.08523 22.9371L8.91342 22.3767ZM12.8653 28.3821C11.5951 26.3394 10.2512 24.3535 8.91342 22.3767L8.08523 22.9371C9.42477 24.9166 10.7578 26.8865 12.0161 28.9101L12.8653 28.3821ZM16.0761 27.7737C14.8358 27.9452 13.6441 28.1094 12.4256 28.1463L12.4559 29.1459C13.7367 29.1071 14.9812 28.9346 16.213 28.7643L16.0761 27.7737ZM16.4815 27.7178C16.3459 27.7364 16.2107 27.7551 16.0761 27.7737L16.213 28.7643C16.3478 28.7456 16.4824 28.727 16.6172 28.7085L16.4815 27.7178ZM16.7699 29.036C16.9456 28.9902 17.1084 28.8783 17.2007 28.6981C17.2881 28.5276 17.286 28.3475 17.2423 28.2038C17.1565 27.9217 16.868 27.6652 16.4819 27.7177L16.6168 28.7086C16.4497 28.7313 16.3221 28.6147 16.2856 28.4948C16.2666 28.4322 16.2612 28.3387 16.3108 28.2419C16.3653 28.1356 16.4556 28.0846 16.5177 28.0684L16.7699 29.036ZM12.6326 29.4557C13.9934 29.467 15.4111 29.391 16.7701 29.036L16.5174 28.0685C15.2828 28.3909 13.9663 28.4668 12.6409 28.4557L12.6326 29.4557ZM14.706 31.485C14.1786 30.5367 13.6263 29.609 13.0625 28.6935L12.211 29.2179C12.7697 30.1251 13.314 31.0395 13.8321 31.971L14.706 31.485ZM14.7739 31.981C14.8051 31.8449 14.8054 31.6648 14.7067 31.4862L13.8314 31.9698C13.8105 31.9319 13.7981 31.8904 13.794 31.8495C13.7901 31.8101 13.7944 31.7784 13.7992 31.7577L14.7739 31.981ZM50.5681 9.15884C38.2742 16.4014 25.9519 23.6605 14.0133 31.4506L14.5598 32.288C26.476 24.5126 38.7784 17.265 51.0757 10.0204L50.5681 9.15884ZM63.253 1.65503C59.0382 4.16894 54.8048 6.6629 50.5681 9.15884L51.0757 10.0204C55.312 7.52473 59.5478 5.0294 63.7652 2.51386L63.253 1.65503ZM53.0211 4.70748C56.5377 3.81377 60.0327 2.92658 63.5578 2.58208L63.4605 1.58682C59.8471 1.93996 56.2782 2.84794 52.7748 3.73828L53.0211 4.70748ZM47.6722 5.99343C49.4557 5.61364 51.2412 5.15982 53.0211 4.70748L52.7748 3.73828C50.9915 4.19148 49.2251 4.64033 47.4639 5.01536L47.6722 5.99343ZM32.2177 8.81286C37.394 8.01616 42.5488 7.08451 47.6722 5.99343L47.4639 5.01537C42.3607 6.10214 37.2247 7.03044 32.0656 7.8245L32.2177 8.81286ZM2.02691 11.5913C12.1437 11.49 22.2481 10.3475 32.2177 8.81286L32.0656 7.8245C22.1201 9.3554 12.0675 10.4907 2.0169 10.5913L2.02691 11.5913ZM1.98263 10.0388C1.50284 10.0766 1.25591 10.4739 1.25239 10.821C1.25062 10.995 1.30614 11.189 1.44697 11.3451C1.59589 11.5101 1.80507 11.5934 2.02674 11.5913L2.01707 10.5913C2.05629 10.5909 2.13002 10.6093 2.18943 10.6752C2.24076 10.7321 2.25273 10.7925 2.25233 10.8311C2.25194 10.87 2.23932 10.9159 2.20368 10.9582C2.16209 11.0076 2.10528 11.0322 2.06117 11.0357L1.98263 10.0388ZM2.32056 10.0121L1.98252 10.0388L2.06128 11.0357L2.39932 11.009L2.32056 10.0121ZM36.587 6.21903C25.2369 8.20124 13.8224 9.10339 2.32056 10.0121L2.39932 11.009C13.8935 10.1009 25.3549 9.19577 36.7591 7.20412L36.587 6.21903ZM47.2508 3.79318C43.656 4.70441 40.1002 5.6055 36.587 6.21903L36.7591 7.20412C40.3158 6.58298 43.9086 5.672 47.4966 4.76252L47.2508 3.79318ZM42.2457 21.7372C36.781 26.9161 31.3567 32.1357 25.9353 37.3553L26.6288 38.0757C32.0506 32.8559 37.4722 27.6388 42.9336 22.463L42.2457 21.7372ZM46.9956 17.3864C44.6121 19.5605 42.7589 21.2508 42.2457 21.7371L42.9335 22.463C43.4376 21.9853 45.2795 20.3053 47.6695 18.1252L46.9956 17.3864ZM62.4348 3.57843C62.351 3.45182 62.3494 3.32659 62.3548 3.26501C62.3603 3.2017 62.3771 3.15505 62.3852 3.13453C62.3945 3.11081 62.4036 3.09377 62.4082 3.08544C62.4134 3.07631 62.4173 3.0703 62.4187 3.06809C62.4215 3.06394 62.4139 3.07532 62.3852 3.10881C62.3313 3.17148 62.2412 3.268 62.1122 3.39974C61.8565 3.66078 61.474 4.03387 60.9876 4.49841C60.0162 5.42625 58.6444 6.70536 57.0769 8.15375C53.9425 11.0499 50.0332 14.6157 46.9956 17.3864L47.6695 18.1252C50.7065 15.3551 54.6183 11.787 57.7555 8.88821C59.3239 7.43909 60.7006 6.15537 61.6783 5.22157C62.1665 4.75529 62.5588 4.37285 62.8266 4.09946C62.9593 3.96398 63.068 3.84857 63.1438 3.7603C63.1799 3.71832 63.2198 3.66949 63.2519 3.62108C63.2662 3.59954 63.2939 3.55613 63.3159 3.50033C63.3267 3.47279 63.3451 3.42013 63.351 3.35185C63.3568 3.28528 63.3545 3.15611 63.2688 3.0266L62.4348 3.57843ZM14.7779 32.4713C18.1571 30.5629 30.261 23.4026 41.5039 16.7104C47.127 13.3633 52.5373 10.1318 56.5377 7.73022C58.5377 6.52951 60.186 5.53587 61.3323 4.83886C61.9053 4.49051 62.3541 4.21544 62.6593 4.0254C62.8113 3.9307 62.9303 3.85547 63.0119 3.80225C63.0516 3.77628 63.0877 3.75215 63.1157 3.73219C63.1278 3.72353 63.1488 3.7083 63.1699 3.69034C63.1774 3.68389 63.2041 3.66124 63.2321 3.62829C63.2484 3.60809 63.2871 3.54936 63.3074 3.50916C63.3368 3.42489 63.3354 3.17508 63.2687 3.02655L62.4348 3.57848C62.3685 3.43037 62.367 3.18116 62.396 3.09769C62.416 3.05828 62.4541 3.00053 62.4694 2.9815C62.4953 2.9509 62.5188 2.93133 62.5218 2.92872C62.5339 2.91842 62.5409 2.91382 62.534 2.91873C62.524 2.92589 62.5024 2.94061 62.4653 2.96485C62.393 3.01205 62.2813 3.08271 62.1306 3.17658C61.8302 3.36368 61.385 3.63649 60.8128 3.98441C59.6689 4.67993 58.0226 5.67242 56.023 6.87286C52.024 9.27358 46.6148 12.5044 40.9924 15.8511C29.7441 22.5465 17.6527 29.6993 14.2862 31.6006L14.7779 32.4713ZM14.9137 31.6606C14.8534 31.6336 14.799 31.6092 14.7467 31.5844L14.3174 32.4875C14.3817 32.5181 14.4463 32.547 14.5049 32.5732L14.9137 31.6606ZM15.0858 31.739C15.0269 31.7113 14.9678 31.6848 14.9137 31.6606L14.5049 32.5732C14.5605 32.5981 14.6109 32.6207 14.6596 32.6437L15.0858 31.739ZM15.973 31.5952C15.5919 31.628 15.2111 31.6608 14.8304 31.6932L14.915 32.6896C15.2965 32.6572 15.6778 32.6243 16.0589 32.5915L15.973 31.5952ZM22.7782 31.1054C20.5006 31.2049 18.2304 31.4006 15.973 31.5952L16.0589 32.5915C18.3198 32.3966 20.5689 32.2029 22.8219 32.1044L22.7782 31.1054ZM22.8501 32.4898C23.2728 32.4473 23.4837 32.0909 23.4878 31.7921C23.4899 31.6399 23.4424 31.4626 23.3105 31.3191C23.1693 31.1654 22.9738 31.0971 22.7787 31.1054L22.8213 32.1045C22.754 32.1073 22.6531 32.0816 22.5742 31.9957C22.5045 31.9199 22.4871 31.8356 22.4879 31.7785C22.4887 31.7207 22.5076 31.6579 22.5529 31.6027C22.6039 31.5406 22.6774 31.5022 22.75 31.4949L22.8501 32.4898ZM16.0618 32.9828C18.3182 32.851 20.5875 32.7185 22.8503 32.4898L22.7498 31.4949C20.5116 31.7211 18.2635 31.8525 16.0035 31.9845L16.0618 32.9828ZM15.6013 33.0097C15.7548 33.0007 15.9083 32.9917 16.0618 32.9828L16.0035 31.9845C15.85 31.9934 15.6964 32.0024 15.5428 32.0114L15.6013 33.0097ZM18.495 33.2952C17.5833 32.8893 16.6841 32.4741 15.782 32.0568L15.3621 32.9643C16.2638 33.3815 17.1691 33.7995 18.0882 34.2088L18.495 33.2952ZM19.1252 33.2324C18.8432 33.2392 18.5618 33.2459 18.2806 33.2521L18.3027 34.2519C18.585 34.2457 18.8674 34.2389 19.1493 34.2321L19.1252 33.2324ZM23.6702 33.2097C22.1501 33.1594 20.6285 33.1962 19.1252 33.2324L19.1493 34.2321C20.6573 34.1958 22.1504 34.16 23.6372 34.2091L23.6702 33.2097ZM23.67 34.5725C24.5414 34.5441 24.5612 33.2386 23.67 33.2097L23.6375 34.2091C23.5645 34.2068 23.476 34.1727 23.41 34.0972C23.3512 34.0297 23.3309 33.9532 23.331 33.8909C23.331 33.8285 23.3513 33.7522 23.41 33.6849C23.4758 33.6096 23.5642 33.5754 23.6374 33.5731L23.67 34.5725ZM19.1526 34.5496C20.6468 34.5858 22.1593 34.6225 23.6703 34.5725L23.6372 33.5731C22.1596 33.6219 20.6758 33.5862 19.1768 33.5499L19.1526 34.5496ZM18.9266 34.5441C19.0019 34.5459 19.0772 34.5478 19.1526 34.5496L19.1768 33.5499C19.1014 33.548 19.026 33.5462 18.9506 33.5444L18.9266 34.5441ZM19.3734 33.6905C19.2962 33.6561 19.219 33.6218 19.1419 33.5875L18.7353 34.5011C18.8125 34.5354 18.8898 34.5698 18.967 34.6041L19.3734 33.6905ZM22.3605 35.0413C21.37 34.5787 20.3688 34.1333 19.3734 33.6905L18.967 34.6041C19.9637 35.0476 20.9565 35.4893 21.9373 35.9474L22.3605 35.0413ZM23.0367 34.9273C22.7482 34.9521 22.4086 34.9812 22.1247 34.9949L22.1731 35.9938C22.4792 35.9789 22.8384 35.948 23.1223 35.9236L23.0367 34.9273ZM23.5824 34.8877C23.4744 34.8893 23.2577 34.9083 23.0367 34.9273L23.1223 35.9236C23.3688 35.9025 23.5352 35.8885 23.5976 35.8876L23.5824 34.8877ZM26.2373 34.9299C25.3591 34.8994 24.4737 34.874 23.5823 34.8877L23.5977 35.8876C24.4622 35.8743 25.3262 35.8989 26.2026 35.9293L26.2373 34.9299ZM26.2403 36.233C26.6503 36.2163 26.8676 35.8777 26.8681 35.5819C26.8683 35.4375 26.8209 35.279 26.7073 35.1494C26.5869 35.0119 26.4172 34.936 26.2369 34.9299L26.203 35.9293C26.1217 35.9266 26.0261 35.8894 25.955 35.8082C25.8908 35.7349 25.8679 35.6505 25.8681 35.5802C25.8682 35.5099 25.8913 35.4269 25.954 35.3549C26.0235 35.2752 26.1176 35.2372 26.1996 35.2338L26.2403 36.233ZM22.8318 36.2792C23.9706 36.2953 25.1029 36.2789 26.2401 36.233L26.1998 35.2338C25.0797 35.279 23.9657 35.2952 22.846 35.2793L22.8318 36.2792ZM22.8301 36.2798C22.8336 36.2796 22.8359 36.2794 22.838 36.2793C22.84 36.2792 22.841 36.2791 22.8414 36.2791C22.8428 36.2791 22.8387 36.2793 22.8314 36.2792L22.8463 35.2793C22.8118 35.2788 22.7784 35.2811 22.7697 35.2816L22.8301 36.2798ZM22.7758 36.2821C22.7994 36.2817 22.822 36.2803 22.8302 36.2798L22.7696 35.2816C22.7638 35.282 22.7612 35.2821 22.7592 35.2822C22.7573 35.2823 22.7585 35.2822 22.7615 35.2822L22.7758 36.2821ZM26.3528 37.0559C25.2581 36.4389 24.1244 35.8745 22.9838 35.3308L22.5535 36.2335C23.6851 36.7729 24.7957 37.3262 25.8619 37.9271L26.3528 37.0559ZM26.7446 37.642C26.7181 37.4623 26.6279 37.2112 26.3532 37.0561L25.8615 37.9268C25.8308 37.9095 25.799 37.8796 25.7768 37.8413C25.7575 37.8081 25.7548 37.7845 25.7554 37.7883L26.7446 37.642ZM26.266 37.2153C26.2631 37.2153 26.2623 37.2153 26.2618 37.2153C26.2615 37.2153 26.2628 37.2153 26.265 37.2154L26.235 38.2149C26.2491 38.2153 26.2619 38.2153 26.266 38.2153V37.2153ZM26.2971 37.2157C26.283 37.2153 26.2701 37.2153 26.266 37.2153V38.2153C26.269 38.2153 26.2698 38.2153 26.2703 38.2153C26.2706 38.2153 26.2693 38.2153 26.267 38.2152L26.2971 37.2157Z" fill="#FFB721"/>
<path fill-rule="evenodd" clip-rule="evenodd" d="M14.4973 56.8182C9.57791 57.0518 5.78152 62.6357 5.15126 67.3293C5.14531 67.3238 5.13912 67.3187 5.13292 67.3137C5.12672 67.3086 5.12053 67.3036 5.11458 67.298C1.0204 63.4515 0.881924 55.8891 4.68262 51.863C5.84299 53.1906 7.44589 54.0891 9.39284 54.1236C12.6218 54.181 17.9028 49.6773 13.8532 46.9447C10.8156 44.8948 5.77391 47.001 4.74079 50.3129C4.72457 50.289 4.70688 50.2652 4.68919 50.2415C4.66433 50.2081 4.6395 50.1748 4.61883 50.1409C0.726591 43.7396 7.70467 37.2268 14.2534 38.9369C14.5165 39.0056 14.615 38.628 14.3645 38.5398C9.41035 36.7955 4.0484 39.4031 2.83515 44.5677C2.29083 46.8844 2.88803 49.518 4.32998 51.4346C-0.624473 55.5538 0.226552 64.6918 5.05277 68.6044C5.05277 68.6186 5.05169 68.6332 5.05061 68.6477C5.04946 68.6632 5.04831 68.6787 5.04848 68.6937C5.07525 75.1915 10.2881 78.1287 16.1568 78.9943C16.6974 79.0742 16.9489 78.2848 16.3888 78.1649C11.6881 77.1595 7.25156 75.6143 6.25181 70.3708C6.18835 70.0372 6.14572 69.6958 6.12193 69.3492C7.46341 70.1304 9.04416 70.5429 10.8374 70.4233C14.9531 70.149 19.5361 66.9553 19.9697 62.6879C20.3041 59.389 17.8327 56.3953 14.4973 56.8182ZM10.4405 47.3877C12.1799 47.2708 15.2201 47.4236 13.6932 50.9316C12.1498 54.4781 7.63824 53.2639 5.43119 51.1333C6.16125 48.8241 7.98691 47.5526 10.4405 47.3877ZM15.6504 67.4684C17.0018 66.4852 18.3076 65.1596 18.7154 63.4805C19.5172 60.1777 17.2266 57.6216 14.0845 57.6705C13.9596 57.6724 13.8704 57.6161 13.8046 57.5388C9.4791 58.8609 6.39293 63.6897 6.12655 68.0907C9.05077 70.0255 12.824 69.5244 15.6504 67.4684Z" fill="#FFD171"/>
<path d="M5.15126 67.3293L4.81055 67.6953L5.51814 68.3541L5.64681 67.3959L5.15126 67.3293ZM14.4973 56.8182L14.5211 57.3176L14.5407 57.3167L14.5602 57.3142L14.4973 56.8182ZM5.13292 67.3137L4.81702 67.7012L4.81709 67.7013L5.13292 67.3137ZM5.11458 67.298L4.77221 67.6624L4.77392 67.664L5.11458 67.298ZM4.68262 51.863L5.05908 51.534L4.69687 51.1196L4.31904 51.5198L4.68262 51.863ZM9.39284 54.1236L9.40171 53.6237L9.4017 53.6237L9.39284 54.1236ZM13.8532 46.9447L13.5735 47.3591L13.5735 47.3591L13.8532 46.9447ZM4.74079 50.3129L4.32661 50.5931L4.90869 51.4537L5.2181 50.4618L4.74079 50.3129ZM4.68919 50.2415L5.0901 49.9427L5.0901 49.9427L4.68919 50.2415ZM4.61883 50.1409L4.19161 50.4007L4.19194 50.4013L4.61883 50.1409ZM14.2534 38.9369L14.3798 38.4531L14.3798 38.4531L14.2534 38.9369ZM14.3645 38.5398L14.5307 38.0682L14.5305 38.0681L14.3645 38.5398ZM2.83515 44.5677L3.3219 44.6821L3.3219 44.6821L2.83515 44.5677ZM4.32998 51.4346L4.64964 51.8191L5.01586 51.5146L4.72953 51.134L4.32998 51.4346ZM5.05277 68.6044H5.55277V68.3661L5.36765 68.216L5.05277 68.6044ZM5.05061 68.6477L5.54924 68.6848H5.54924L5.05061 68.6477ZM5.04848 68.6937L5.54849 68.6916L5.54844 68.688L5.04848 68.6937ZM16.1568 78.9943L16.2298 78.4997L16.2297 78.4997L16.1568 78.9943ZM16.3888 78.1649L16.4934 77.676L16.4933 77.676L16.3888 78.1649ZM6.25181 70.3708L5.76062 70.4643L5.76066 70.4645L6.25181 70.3708ZM6.12193 69.3492L6.37355 68.9171L5.5585 68.4424L5.6231 69.3834L6.12193 69.3492ZM10.8374 70.4233L10.8042 69.9244L10.8042 69.9244L10.8374 70.4233ZM19.9697 62.6879L20.4671 62.7384L20.4671 62.7383L19.9697 62.6879ZM13.6932 50.9316L13.2348 50.7321L13.2348 50.7321L13.6932 50.9316ZM10.4405 47.3877L10.474 47.8866L10.474 47.8866L10.4405 47.3877ZM5.43119 51.1333L4.95445 50.9825L4.86108 51.2779L5.08392 51.493L5.43119 51.1333ZM18.7154 63.4805L19.2013 63.5985L19.2013 63.5984L18.7154 63.4805ZM15.6504 67.4684L15.9446 67.8728L15.9446 67.8727L15.6504 67.4684ZM14.0845 57.6705L14.0768 57.1705H14.0767L14.0845 57.6705ZM13.8046 57.5388L14.1852 57.2146L13.9724 56.9647L13.6585 57.0607L13.8046 57.5388ZM6.12655 68.0907L5.62747 68.0605L5.61003 68.3485L5.85065 68.5077L6.12655 68.0907ZM5.64681 67.3959C5.9492 65.1439 7.01674 62.6603 8.60315 60.7175C10.1912 58.7727 12.2502 57.4255 14.5211 57.3176L14.4736 56.3188C11.8251 56.4445 9.52612 58.0061 7.82857 60.085C6.12937 62.166 4.98357 64.8211 4.65571 67.2628L5.64681 67.3959ZM4.81709 67.7013C4.82073 67.7043 4.82058 67.7042 4.81993 67.7036C4.81889 67.7027 4.81537 67.6997 4.81055 67.6953L5.49198 66.9634C5.47197 66.9447 5.45295 66.9295 5.44875 66.9261L4.81709 67.7013ZM4.77392 67.664C4.79385 67.6826 4.81281 67.6978 4.81702 67.7012L5.44882 66.9261C5.44519 66.9231 5.44531 66.9232 5.44594 66.9238C5.44696 66.9246 5.45045 66.9276 5.45523 66.932L4.77392 67.664ZM4.31904 51.5198C2.31119 53.6467 1.36427 56.6806 1.43818 59.6602C1.5121 62.6404 2.60886 65.6299 4.77222 67.6624L5.45694 66.9336C3.52612 65.1196 2.50656 62.4047 2.43787 59.6355C2.36917 56.8657 3.25335 54.1054 5.0462 52.2063L4.31904 51.5198ZM9.4017 53.6237C7.61627 53.5921 6.14084 52.7716 5.05908 51.534L4.30615 52.1921C5.54514 53.6096 7.27551 54.5862 9.38397 54.6236L9.4017 53.6237ZM13.5735 47.3591C14.4841 47.9736 14.8008 48.632 14.819 49.2421C14.8379 49.8809 14.5335 50.5825 13.9684 51.2602C13.4079 51.9325 12.6269 52.5356 11.7923 52.966C10.9534 53.3986 10.1008 53.6361 9.40171 53.6237L9.38396 54.6236C10.2993 54.6398 11.3177 54.3359 12.2506 53.8548C13.1878 53.3715 14.0793 52.6887 14.7365 51.9006C15.389 51.118 15.8474 50.1849 15.8185 49.2124C15.7888 48.2113 15.2471 47.2821 14.1329 46.5302L13.5735 47.3591ZM5.2181 50.4618C5.67691 48.991 7.05486 47.7307 8.72569 47.0845C10.3944 46.439 12.2309 46.4531 13.5735 47.3591L14.1329 46.5302C12.438 45.3864 10.2347 45.4286 8.36496 46.1518C6.49726 46.8742 4.83779 48.323 4.26347 50.1641L5.2181 50.4618ZM4.28828 50.5403C4.30722 50.5657 4.31792 50.5802 4.32661 50.5931L5.15496 50.0328C5.13122 49.9977 5.10653 49.9648 5.0901 49.9427L4.28828 50.5403ZM4.19194 50.4013C4.22686 50.4585 4.26623 50.5107 4.28828 50.5403L5.0901 49.9427C5.06243 49.9056 5.05213 49.8911 5.04572 49.8806L4.19194 50.4013ZM14.3798 38.4531C10.9134 37.5479 7.34718 38.8183 5.15602 41.1551C2.94728 43.5107 2.11331 46.9826 4.19161 50.4007L5.04606 49.8812C3.23211 46.8979 3.94107 43.9128 5.88549 41.8391C7.8475 39.7467 11.0447 38.6158 14.1271 39.4207L14.3798 38.4531ZM14.1983 39.0113C14.1375 38.9899 14.0733 38.9383 14.037 38.8607C14.0045 38.7915 14.0038 38.7225 14.0189 38.6667C14.034 38.6109 14.072 38.5435 14.1473 38.4953C14.2315 38.4413 14.3213 38.4378 14.3798 38.4531L14.127 39.4206C14.3171 39.4703 14.5179 39.4454 14.6867 39.3372C14.8466 39.2348 14.9429 39.0803 14.9842 38.9277C15.0675 38.6197 14.9412 38.2129 14.5307 38.0682L14.1983 39.0113ZM3.3219 44.6821C4.46078 39.834 9.49801 37.3565 14.1984 39.0114L14.5305 38.0681C9.3227 36.2346 3.63601 38.9722 2.3484 44.4534L3.3219 44.6821ZM4.72953 51.134C3.37246 49.3302 2.8131 46.8475 3.3219 44.6821L2.34841 44.4534C1.76855 46.9213 2.4036 49.7058 3.93043 51.7352L4.72953 51.134ZM5.36765 68.216C3.08572 66.366 1.71295 63.2468 1.52273 60.0671C1.33259 56.8887 2.32797 53.7494 4.64964 51.8191L4.01032 51.0501C1.37754 53.2391 0.321205 56.7283 0.524516 60.1268C0.727751 63.5241 2.19361 66.9301 4.7379 68.9928L5.36765 68.216ZM5.54924 68.6848C5.55006 68.6737 5.55277 68.6404 5.55277 68.6044H4.55277C4.55277 68.5992 4.55297 68.5964 4.55288 68.5979C4.55277 68.5999 4.55258 68.6026 4.55199 68.6107L5.54924 68.6848ZM5.54844 68.688C5.54852 68.6948 5.54827 68.6987 5.54834 68.6976C5.54836 68.6972 5.54842 68.696 5.54858 68.6938C5.54874 68.6914 5.54893 68.6889 5.54924 68.6848L4.55199 68.6107C4.55114 68.622 4.54805 68.6593 4.54851 68.6994L5.54844 68.688ZM16.2297 78.4997C13.3457 78.0743 10.6724 77.1457 8.72689 75.5678C6.8001 74.005 5.56122 71.7865 5.54847 68.6916L4.54848 68.6958C4.5625 72.0986 5.94346 74.5977 8.09696 76.3444C10.2318 78.0759 13.0992 79.0488 16.0838 79.489L16.2297 78.4997ZM16.2841 78.6538C16.2951 78.6562 16.2867 78.6563 16.2696 78.6439C16.2518 78.6311 16.2341 78.6116 16.2216 78.5876C16.2096 78.5646 16.2058 78.5445 16.205 78.5317C16.2043 78.5194 16.2061 78.5127 16.2065 78.5114C16.2065 78.5114 16.2055 78.5111 16.21 78.5079C16.2134 78.5054 16.2188 78.5027 16.2253 78.5011C16.2322 78.4994 16.2346 78.5004 16.2298 78.4997L16.0837 79.489C16.6434 79.5716 17.0465 79.1933 17.1647 78.7976C17.2248 78.5962 17.226 78.3508 17.1082 78.125C16.9839 77.8868 16.7597 77.733 16.4934 77.676L16.2841 78.6538ZM5.76066 70.4645C6.28853 73.2331 7.73606 75.0435 9.66268 76.2781C11.5654 77.4975 13.9262 78.1495 16.2842 78.6538L16.4933 77.676C14.1507 77.1749 11.9429 76.5516 10.2022 75.4362C8.48547 74.336 7.21484 72.7521 6.74296 70.2772L5.76066 70.4645ZM5.6231 69.3834C5.64815 69.7483 5.69315 70.1096 5.76062 70.4643L6.743 70.2774C6.68356 69.9649 6.64329 69.6433 6.62075 69.3149L5.6231 69.3834ZM10.8042 69.9244C9.11142 70.0373 7.62974 69.6487 6.37355 68.9171L5.8703 69.7812C7.29707 70.6121 8.97691 71.0484 10.8707 70.9222L10.8042 69.9244ZM19.4722 62.6373C19.2725 64.6027 18.1125 66.3553 16.4727 67.662C14.8326 68.9689 12.7538 69.7944 10.8042 69.9244L10.8707 70.9222C13.0367 70.7778 15.3072 69.8694 17.0959 68.444C18.885 67.0184 20.2332 65.0405 20.4671 62.7384L19.4722 62.6373ZM14.5602 57.3142C17.5071 56.9406 19.7817 59.5851 19.4722 62.6374L20.4671 62.7383C20.8266 59.1929 18.1583 55.8501 14.4344 56.3222L14.5602 57.3142ZM14.1517 51.1312C14.5542 50.2065 14.6888 49.4309 14.5647 48.7869C14.436 48.1189 14.0424 47.6614 13.545 47.3692C13.0643 47.0868 12.4887 46.9577 11.9491 46.9015C11.4037 46.8447 10.8562 46.8587 10.407 46.8889L10.474 47.8866C10.8945 47.8583 11.3793 47.8475 11.8455 47.8961C12.3174 47.9453 12.7325 48.0517 13.0385 48.2314C13.3276 48.4013 13.5166 48.6325 13.5828 48.9761C13.6536 49.3437 13.5958 49.9027 13.2348 50.7321L14.1517 51.1312ZM5.08392 51.493C6.26138 52.6297 8.04683 53.5231 9.77157 53.6598C10.6404 53.7287 11.5165 53.6069 12.2927 53.2023C13.0755 52.7942 13.7234 52.1153 14.1517 51.1311L13.2348 50.7321C12.8914 51.5211 12.3966 52.0204 11.8304 52.3155C11.2576 52.6141 10.5785 52.7206 9.85059 52.6629C8.38192 52.5465 6.80805 51.7675 5.77846 50.7735L5.08392 51.493ZM10.407 46.8889C7.77499 47.0657 5.75429 48.4527 4.95445 50.9825L5.90793 51.284C6.56822 49.1955 8.19883 48.0395 10.474 47.8866L10.407 46.8889ZM18.2296 63.3625C17.864 64.8678 16.6758 66.1041 15.3563 67.0641L15.9446 67.8727C17.3279 66.8663 18.7513 65.4514 19.2013 63.5985L18.2296 63.3625ZM14.0923 58.1704C15.5238 58.1481 16.7327 58.7176 17.4937 59.6373C18.2513 60.5531 18.5959 61.8535 18.2296 63.3625L19.2013 63.5984C19.6368 61.8047 19.2369 60.1756 18.2642 58.9999C17.2947 57.8281 15.7873 57.1439 14.0768 57.1705L14.0923 58.1704ZM13.424 57.8631C13.5634 58.0267 13.7859 58.1752 14.0924 58.1704L14.0767 57.1705C14.095 57.1702 14.1221 57.1749 14.1493 57.1888C14.1738 57.2013 14.185 57.2143 14.1852 57.2146L13.424 57.8631ZM6.62564 68.1209C6.7528 66.0199 7.556 63.8001 8.85305 61.9468C10.1502 60.0933 11.9182 58.6382 13.9508 58.017L13.6585 57.0607C11.3655 57.7615 9.42763 59.3818 8.03376 61.3734C6.63976 63.3653 5.76668 65.7604 5.62747 68.0605L6.62564 68.1209ZM15.3563 67.0641C12.6561 69.0283 9.11253 69.4668 6.40245 67.6737L5.85065 68.5077C8.98902 70.5842 12.992 70.0206 15.9446 67.8728L15.3563 67.0641Z" fill="#FFB721"/>
<path d="M16.7706 26.0002C14.5906 26.0789 12.4156 26.2203 10.2375 26.3692C9.92263 26.391 9.91903 27.0147 10.2375 26.9997C12.417 26.8957 14.5933 26.7836 16.7706 26.6089C17.0738 26.5847 17.0792 25.9887 16.7706 26.0002Z" fill="#FFD171" stroke="#FFB721"/>
<path d="M34.7954 49.0002C32.5726 49.1162 30.3916 49.4897 28.1584 49.4211C27.946 49.4145 27.9484 49.8506 28.1584 49.8664C30.3543 50.0303 32.6843 50.1495 34.8512 49.5572C35.0817 49.4935 35.0299 48.9877 34.7954 49.0002Z" fill="#FFD171" stroke="#FFB721"/>
</svg>
