<svg width="65" height="65" viewBox="0 0 65 65" fill="none" xmlns="http://www.w3.org/2000/svg">
<path fill-rule="evenodd" clip-rule="evenodd" d="M11.3703 53.5922C18.4951 60.7331 27.4955 64.9998 35.077 64.9998C36.0327 64.9998 36.9662 64.9318 37.8703 64.7938C42.2008 64.1309 45.4583 61.9151 47.2901 58.3867C48.3469 56.3515 47.9476 53.8715 46.2956 52.2155L40.6323 46.5452C39.5023 45.4121 37.9416 44.8417 36.3524 44.9811C34.7823 45.1181 33.3675 45.9341 32.4707 47.2199C32.4442 47.2575 32.4197 47.2962 32.3961 47.3353L31.465 48.8994C29.3425 48.329 24.9501 46.8172 21.5994 43.4591C18.2707 40.1229 16.7719 35.7266 16.2061 33.6038L17.7796 32.6919C17.8209 32.6679 17.8611 32.643 17.9004 32.6161C19.1959 31.7305 20.0234 30.3259 20.1708 28.7628C20.3196 27.1796 19.7568 25.6224 18.6258 24.4888L12.9629 18.8185C11.3114 17.163 8.82448 16.7505 6.77464 17.7911C3.22205 19.5945 0.978238 22.8254 0.286775 27.1341C-1.00235 35.166 3.34827 45.5515 11.3703 53.5922ZM8.5146 21.1913C8.70907 21.0925 8.92368 21.0446 9.14025 21.0446C9.53853 21.0446 9.94369 21.2065 10.2462 21.5098L15.9095 27.1801C16.2361 27.5074 16.3991 27.9541 16.3564 28.4062C16.3333 28.6518 16.2268 29.1048 15.7794 29.4355L13.0636 31.0094C12.3766 31.4071 12.0073 32.1865 12.1359 32.9678C12.188 33.2819 13.4653 40.7203 18.8826 46.1494C24.2989 51.5785 31.7611 52.9004 32.0759 52.9537C32.8582 53.0868 33.6415 52.7257 34.0462 52.0462L35.6491 49.3529C35.9836 48.9082 36.4398 48.8045 36.6873 48.783C37.1416 48.7429 37.5885 48.9082 37.9155 49.2365L43.5788 54.9068C44.0454 55.3745 44.1721 56.0844 43.8873 56.6333C42.6232 59.0678 40.4024 60.5443 37.2884 61.0213C30.4897 62.0624 21.1652 57.9953 14.0876 50.9014C7.01037 43.8084 2.98486 34.4991 4.07018 27.7369C4.56717 24.6385 6.06255 22.4365 8.5146 21.1913Z" fill="#00DD7C"/>
<path d="M45.6356 29.7946C46.6374 29.7946 47.5975 28.9169 47.5508 27.8865C47.5047 26.8528 46.7091 25.978 45.6356 25.978C44.6332 25.978 43.6736 26.8557 43.7198 27.8865C43.7665 28.9203 44.5615 29.7946 45.6356 29.7946Z" fill="#FF4FA1"/>
<path d="M45.6351 24.2975C44.5773 24.2975 43.7193 23.4428 43.7193 22.389V19.4188C43.7193 18.365 44.5773 17.5108 45.6351 17.5108C46.8653 17.5108 47.8666 16.5137 47.8666 15.2877C47.8666 14.0622 46.8658 13.0646 45.6351 13.0646C44.4049 13.0646 43.4035 14.0622 43.4035 15.2877C43.4035 16.3415 42.5461 17.1962 41.4883 17.1962C40.4305 17.1962 39.5725 16.3415 39.5725 15.2877C39.5725 11.9575 42.2922 9.24805 45.6351 9.24805C48.978 9.24805 51.6977 11.9575 51.6977 15.2877C51.6977 17.9516 49.9577 20.2178 47.5509 21.0187V22.389C47.5509 23.4433 46.6934 24.2975 45.6351 24.2975Z" fill="#FF4FA1"/>
<path fill-rule="evenodd" clip-rule="evenodd" d="M27.423 37.5769C28.0864 38.2403 28.9606 38.5938 29.86 38.5938C30.2386 38.5938 30.6211 38.5311 30.9948 38.4027L38.0499 35.9781C40.5471 37.1554 43.3054 37.7768 46.0795 37.7808H46.1096C51.0788 37.7808 55.776 35.8552 59.3383 32.356C62.9086 28.8489 64.9186 24.1755 64.9976 19.1965C65.079 14.0333 63.1149 9.18115 59.4667 5.5329C55.8184 1.88465 50.9652 -0.0804047 45.8031 0.0025214C40.824 0.0814986 36.1505 2.09098 32.6434 5.66173C29.1373 9.23101 27.2108 13.94 27.2187 18.9205C27.2231 21.6946 27.8441 24.4529 29.0213 26.9495L26.5972 34.0052C26.1638 35.2658 26.4802 36.6346 27.423 37.5769ZM45.8643 3.85266C45.9467 3.85167 46.0292 3.85069 46.1111 3.85069C50.13 3.85069 53.8978 5.4095 56.7439 8.25564C59.6488 11.16 61.2126 15.024 61.1474 19.1352C61.0181 27.298 54.2744 33.9301 46.1091 33.9301H46.0854C43.6485 33.9262 41.2288 33.326 39.088 32.1931C38.6176 31.9444 38.0652 31.9014 37.5618 32.0742L30.4982 34.5013L32.9253 27.4377C33.0985 26.9342 33.0551 26.3819 32.8063 25.9115C31.674 23.7707 31.0733 21.351 31.0693 18.9146C31.057 10.739 37.6941 3.98248 45.8643 3.85266L45.8643 3.85266Z" fill="#FFE32D"/>
</svg>
