<svg width="46" height="55" viewBox="0 0 46 55" fill="none" xmlns="http://www.w3.org/2000/svg">
<path fill-rule="evenodd" clip-rule="evenodd" d="M22.92 0C25.9812 0 42.0441 5.51459 44.1705 7.64099C45.9429 9.41344 45.9159 10.8455 45.7916 17.7083C45.743 20.4588 45.6754 24.2064 45.6754 29.394C45.6754 47.9886 24.4114 54.6406 23.5063 54.9135C23.3144 54.973 23.1172 55 22.92 55C22.7227 55 22.5255 54.973 22.3337 54.9135C21.4285 54.6406 0.164521 47.9886 0.164521 29.394C0.164521 24.2145 0.0969731 20.4669 0.0483388 17.7164C0.0261446 16.4894 0.00705201 15.4359 0.000769265 14.5229L0 13.4927C0.0231773 10.1082 0.34082 8.97033 1.67218 7.64099C3.79318 5.51459 19.856 0 22.92 0ZM22.92 4.05286C20.6288 4.05286 6.17356 9.14325 4.50648 10.5347C4.01474 11.0292 3.99582 11.8884 4.1012 17.6407C4.14983 20.4129 4.21738 24.1794 4.21738 29.394C4.21738 43.4466 19.6777 49.6853 22.9173 50.8337C26.1542 49.6799 41.6226 43.4061 41.6226 29.394C41.6226 24.174 41.6901 20.4048 41.7414 17.6326C41.8441 11.8857 41.8252 11.0265 41.3037 10.5077C39.6691 9.14325 25.2112 4.05286 22.92 4.05286ZM32.9751 19.8306C33.7668 20.6223 33.7668 21.9057 32.9751 22.6974L22.4431 33.2321C22.1405 33.5369 21.7497 33.7344 21.3302 33.8013L21.0111 33.8265C20.4734 33.8265 19.9573 33.6131 19.5764 33.2321L14.4644 28.1147C13.6754 27.323 13.6754 26.0369 14.4671 25.248C15.256 24.4563 16.5421 24.4563 17.3338 25.248L21.0111 28.9307L30.1111 19.8306C30.9028 19.039 32.1835 19.039 32.9751 19.8306Z" fill="#FFD0D0"/>
<path d="M15.5 26.5L21 32L32.5 20.5" stroke="#FF3294" stroke-width="4" stroke-linecap="round"/>
</svg>
