<svg width="32" height="32" viewBox="0 0 32 32" fill="none" xmlns="http://www.w3.org/2000/svg">
<path d="M22.944 0C28.368 0 32 3.808 32 9.472V22.544C32 28.192 28.368 32 22.944 32H9.072C3.648 32 0 28.192 0 22.544V9.472C0 3.808 3.648 0 9.072 0H22.944ZM23.168 14.0816C22.112 14.0816 21.248 14.944 21.248 16C21.248 17.056 22.112 17.92 23.168 17.92C24.224 17.92 25.072 17.056 25.072 16C25.072 14.944 24.224 14.0816 23.168 14.0816ZM16 14.0816C14.944 14.0816 14.08 14.944 14.08 16C14.08 17.056 14.944 17.92 16 17.92C17.056 17.92 17.92 17.056 17.92 16C17.92 14.944 17.056 14.0816 16 14.0816ZM8.832 14.0816C7.776 14.0816 6.912 14.944 6.912 16C6.912 17.056 7.776 17.92 8.832 17.92C9.888 17.92 10.752 17.056 10.752 16C10.752 14.944 9.888 14.0816 8.832 14.0816Z" fill="#9B6CFF"/>
</svg>
