<svg width="65" height="64" viewBox="0 0 65 64" fill="none" xmlns="http://www.w3.org/2000/svg">
<path d="M32.4998 40.1249C29.5519 40.125 26.605 39.4043 23.9177 37.963L4.54065 27.5693C1.73081 26.0623 -0.00874544 23.1479 0.000385743 19.9635C0.00963867 16.7792 1.76611 13.875 4.5846 12.384L24.0105 2.10876C29.3263 -0.702918 35.6734 -0.702918 40.9892 2.10876L60.4151 12.384C63.2336 13.8748 64.99 16.779 64.9993 19.9635C65.0084 23.1479 63.2689 26.0623 60.4592 27.5693L41.0818 37.963C38.3954 39.4043 35.4471 40.1247 32.4998 40.1249ZM32.4998 5.07858C30.3995 5.07858 28.2994 5.58494 26.3849 6.59764L6.9592 16.873C5.78554 17.4938 5.08244 18.6548 5.07866 19.9784C5.07489 21.3019 5.77105 22.4669 6.94118 23.0945L26.3184 33.4881C30.1894 35.5644 34.811 35.5644 38.6819 33.4881L58.0592 23.0945C59.2294 22.4669 59.9255 21.302 59.9218 19.9784C59.918 18.6547 59.2149 17.4938 58.0412 16.873L38.6148 6.59764C36.7003 5.58506 34.6001 5.07858 32.4998 5.07858ZM25.1978 4.3532H25.199H25.1978ZM41.0819 60.9412L63.6605 48.8308C64.8963 48.168 65.3608 46.6289 64.698 45.3932C64.0352 44.1575 62.4961 43.693 61.2604 44.3558L38.6817 56.4662C34.811 58.5425 30.1893 58.5425 26.3084 56.461L3.7298 44.4776C2.49089 43.8201 0.954046 44.2914 0.296845 45.53C-0.3606 46.7686 0.110569 48.3055 1.34924 48.9629L23.9179 60.9411C26.6051 62.3825 29.5521 63.103 32.5 63.103C35.4471 63.1031 38.3954 62.3824 41.0819 60.9412ZM41.0819 49.5157L63.6605 37.4053C64.8963 36.7425 65.3608 35.2033 64.698 33.9677C64.0352 32.7318 62.4961 32.2676 61.2604 32.9303L38.6817 45.0407C34.811 47.1171 30.1893 47.1168 26.3084 45.0354L3.7298 33.052C2.49089 32.3946 0.954046 32.8659 0.296845 34.1044C-0.3606 35.3431 0.110569 36.8799 1.34924 37.5374L23.9179 49.5155C26.6051 50.9569 29.5521 51.6774 32.5 51.6774C35.4471 51.6774 38.3954 50.9568 41.0819 49.5157Z" fill="#262626"/>
</svg>
