<svg width="80" height="80" viewBox="0 0 80 80" fill="none" xmlns="http://www.w3.org/2000/svg">
<path d="M50.8332 20C50.8332 25.9831 45.9828 30.8333 39.9998 30.8333C34.0168 30.8333 29.1665 25.9831 29.1665 20C29.1665 14.0169 34.0168 9.16663 39.9998 9.16663C45.9828 9.16663 50.8332 14.0169 50.8332 20Z" stroke="#FF3294" stroke-width="4"/>
<path d="M60.8332 56.6667C60.8332 60.252 58.8028 63.734 55.0458 66.4173C51.2938 69.0977 45.9822 70.8333 39.9998 70.8333C34.0175 70.8333 28.7059 69.0977 24.9538 66.4173C21.1969 63.734 19.1665 60.252 19.1665 56.6667C19.1665 53.0813 21.1969 49.5993 24.9538 46.916C28.7059 44.2357 34.0175 42.5 39.9998 42.5C45.9822 42.5 51.2938 44.2357 55.0458 46.916C58.8028 49.5993 60.8332 53.0813 60.8332 56.6667Z" stroke="#FFD0D0" stroke-width="4"/>
</svg>
