<svg width="45" height="44" viewBox="0 0 45 44" fill="none" xmlns="http://www.w3.org/2000/svg">
<path d="M3.24564 40.9455L3.24561 40.9455L3.23468 40.9489C2.91217 41.0501 2.66151 40.9636 2.51887 40.8321C2.38546 40.7092 2.28218 40.4885 2.3734 40.1529L3.84216 35.2424C4.13847 34.3919 4.09985 33.4392 3.6245 32.653C1.78577 29.2693 0.75 25.5858 0.75 22.0331C0.75 10.8328 9.7148 0.75 22.0771 0.75C34.1611 0.75 43.3161 10.6428 43.3161 21.967C43.3161 35.0891 32.6077 43.25 22.0331 43.25C18.5408 43.25 14.6689 42.3103 11.5798 40.4919C10.4764 39.8226 9.25237 39.1189 7.68694 39.6263L3.24564 40.9455Z" stroke="black" stroke-width="1.5"/>
<path d="M11.8319 19.2351C13.3963 19.2351 14.6522 20.491 14.6522 22.0554C14.6522 23.5977 13.3963 24.8536 11.8319 24.8756C10.2896 24.8756 9.01172 23.5977 9.01172 22.0554C9.01172 20.491 10.2676 19.2351 11.8319 19.2351ZM21.9901 19.2351C23.5544 19.2351 24.8103 20.491 24.8103 22.0554C24.8103 23.5977 23.5544 24.8756 21.9901 24.8756C20.4257 24.8536 19.1698 23.5977 19.1698 22.0333C19.1698 20.491 20.4478 19.2131 21.9901 19.2351ZM32.1469 19.2351C33.7112 19.2351 34.9671 20.491 34.9671 22.0554C34.9671 23.5977 33.7112 24.8756 32.1469 24.8756C30.5825 24.8756 29.3266 23.5977 29.3266 22.0554C29.3266 20.491 30.5825 19.2351 32.1469 19.2351Z" fill="#FFCE4C"/>
</svg>
