<svg width="59" height="68" viewBox="0 0 59 68" fill="none" xmlns="http://www.w3.org/2000/svg">
<path fill-rule="evenodd" clip-rule="evenodd" d="M51.1499 59.6843C51.209 59.7813 51.2491 59.8962 51.2341 60.0499C51.2308 60.082 51.224 60.1115 51.2172 60.141C51.211 60.168 51.2048 60.195 51.2012 60.2239C51.2253 60.6105 51.2348 60.9889 51.2223 61.3528C51.2141 61.5817 51.0138 61.7091 50.8216 61.7149C48.9142 66.6594 41.085 66.997 36.5348 66.5524C25.5032 65.4747 18.9561 56.138 12.9677 47.5981C12.8689 47.4572 12.7703 47.3165 12.6717 47.176C6.66914 38.6197 -1.37361 26.2127 1.66284 15.0302C3.55153 8.07506 7.94593 1.25149 15.5024 1.20384C15.6107 1.07749 15.7737 0.994975 15.9928 1.0005C20.1352 1.10511 23.1506 8.14203 23.9187 11.5623C23.9475 11.6904 23.9779 11.823 24.0093 11.9592C24.3874 13.6035 24.8897 15.7882 24.007 17.2783C23.3712 18.3518 22.1426 19.1992 20.8981 20.0576C18.9343 21.4122 16.9307 22.7942 17.1537 25.1352C17.6481 30.3235 20.4448 34.4996 23.2364 38.6681C24.4677 40.5067 25.698 42.3438 26.7293 44.2657C29.196 48.8622 32.8316 48.2011 36.5127 47.5317C38.2031 47.2243 39.9032 46.9151 41.5041 47.1125C46.9399 47.7833 50.6107 54.4446 51.1499 59.6843ZM14.16 47.0604C18.5301 53.4855 24.2127 61.8402 31.2392 64.0121C35.6454 65.3741 49.0874 67.5132 49.9475 60.0502C49.9662 59.8876 50.0385 59.7654 50.1302 59.666C49.4368 56.553 48.2205 53.3616 45.8577 51.2153C41.1603 46.948 39.6703 47.658 37.119 48.8737C36.304 49.262 35.3807 49.7019 34.2101 50.0477C31.9835 50.7057 30.7186 50.945 28.7926 49.6514C27.3427 48.6776 26.4398 46.7477 25.6341 45.0257C25.3612 44.4424 25.0995 43.883 24.8315 43.3926C23.935 41.7527 22.8667 40.2386 21.7988 38.725C20.8798 37.4226 19.9612 36.1205 19.1525 34.739C16.8206 30.7556 13.7 24.4092 17.6787 20.4559C18.2359 19.9022 18.8018 19.3981 19.3446 18.9145C21.9009 16.6373 23.9452 14.8162 22.1624 10.4185C22.125 10.3262 22.0858 10.229 22.0449 10.1275C21.037 7.6281 18.9615 2.48148 15.9921 2.36901C15.6542 2.35624 15.4518 2.14012 15.3774 1.88396C-5.13742 6.59434 4.03067 32.5605 12.3159 44.3752C12.9022 45.2112 13.5169 46.1149 14.16 47.0604Z" fill="#FF4E4E"/>
<path d="M51.2341 60.0499L51.7314 60.102L51.7318 60.0983L51.2341 60.0499ZM51.1499 59.6843L50.6526 59.7354L50.6641 59.8478L50.7229 59.9443L51.1499 59.6843ZM51.2172 60.141L51.7045 60.2531L51.2172 60.141ZM51.2012 60.2239L50.705 60.1625L50.6993 60.2086L50.7022 60.255L51.2012 60.2239ZM51.2223 61.3528L51.7219 61.3706L51.722 61.37L51.2223 61.3528ZM50.8216 61.7149L50.8063 61.2152L50.4745 61.2253L50.3551 61.535L50.8216 61.7149ZM36.5348 66.5524L36.5834 66.0547L36.5834 66.0547L36.5348 66.5524ZM12.9677 47.5981L12.5584 47.8852L12.5584 47.8852L12.9677 47.5981ZM12.6717 47.176L12.2624 47.4632H12.2624L12.6717 47.176ZM1.66284 15.0302L1.18031 14.8991L1.18031 14.8991L1.66284 15.0302ZM15.5024 1.20384L15.5056 1.70383L15.7336 1.7024L15.882 1.52927L15.5024 1.20384ZM15.9928 1.0005L16.0054 0.500658L16.0054 0.500658L15.9928 1.0005ZM23.9187 11.5623L24.4065 11.4528L24.4065 11.4527L23.9187 11.5623ZM24.0093 11.9592L24.4965 11.8472V11.8472L24.0093 11.9592ZM24.007 17.2783L23.5768 17.0235L23.5768 17.0235L24.007 17.2783ZM20.8981 20.0576L21.182 20.4692L20.8981 20.0576ZM17.1537 25.1352L16.656 25.1826L16.656 25.1826L17.1537 25.1352ZM23.2364 38.6681L22.8209 38.9463L23.2364 38.6681ZM26.7293 44.2657L26.2887 44.5021L26.2888 44.5021L26.7293 44.2657ZM36.5127 47.5317L36.4233 47.0397L36.5127 47.5317ZM41.5041 47.1125L41.5653 46.6163L41.5653 46.6163L41.5041 47.1125ZM31.2392 64.0121L31.0915 64.4898H31.0915L31.2392 64.0121ZM14.16 47.0604L13.7465 47.3416L14.16 47.0604ZM49.9475 60.0502L50.4442 60.1075L50.4442 60.1073L49.9475 60.0502ZM50.1302 59.666L50.4978 60.0049L50.6751 59.8126L50.6182 59.5573L50.1302 59.666ZM45.8577 51.2153L45.5215 51.5854L45.5215 51.5854L45.8577 51.2153ZM37.119 48.8737L37.334 49.3251L37.119 48.8737ZM34.2101 50.0477L34.0684 49.5682L34.0684 49.5682L34.2101 50.0477ZM28.7926 49.6514L29.0713 49.2363H29.0713L28.7926 49.6514ZM25.6341 45.0257L25.1812 45.2376L25.6341 45.0257ZM24.8315 43.3926L25.2702 43.1528L25.2702 43.1528L24.8315 43.3926ZM21.7988 38.725L21.3903 39.0133L21.7988 38.725ZM19.1525 34.739L19.584 34.4864L19.584 34.4864L19.1525 34.739ZM17.6787 20.4559L18.0311 20.8106L18.0312 20.8106L17.6787 20.4559ZM19.3446 18.9145L19.012 18.5412L19.3446 18.9145ZM22.1624 10.4185L21.6991 10.6064V10.6064L22.1624 10.4185ZM22.0449 10.1275L22.5086 9.94045L22.5086 9.94045L22.0449 10.1275ZM15.9921 2.36901L16.011 1.86937L16.011 1.86937L15.9921 2.36901ZM15.3774 1.88396L15.8576 1.74456L15.7259 1.29093L15.2656 1.39664L15.3774 1.88396ZM12.3159 44.3752L11.9065 44.6622L11.9065 44.6623L12.3159 44.3752ZM51.7318 60.0983C51.759 59.8181 51.6817 59.5961 51.577 59.4242L50.7229 59.9443C50.7326 59.9603 50.7349 59.968 50.7357 59.971C50.7363 59.9731 50.7384 59.9814 50.7365 60.0015L51.7318 60.0983ZM51.7045 60.2531C51.7104 60.2272 51.7244 60.169 51.7314 60.102L50.7369 59.9977C50.7372 59.9949 50.7373 59.995 50.7364 59.9999C50.7352 60.0059 50.7336 60.013 50.7299 60.0289L51.7045 60.2531ZM51.6974 60.2852C51.6972 60.2869 51.6973 60.286 51.6983 60.2808C51.6995 60.2747 51.7011 60.2677 51.7045 60.2531L50.7299 60.0289C50.7245 60.0527 50.7122 60.1041 50.705 60.1625L51.6974 60.2852ZM51.722 61.37C51.7352 60.9861 51.7251 60.591 51.7002 60.1927L50.7022 60.255C50.7256 60.6301 50.7344 60.9918 50.7226 61.3355L51.722 61.37ZM50.8368 62.2147C51.1969 62.2037 51.7014 61.9483 51.7219 61.3706L50.7226 61.335C50.7231 61.3192 50.7277 61.2974 50.7394 61.2749C50.7506 61.2533 50.7644 61.2386 50.7752 61.2298C50.7933 61.2151 50.8036 61.2153 50.8063 61.2152L50.8368 62.2147ZM36.4862 67.05C38.7911 67.2752 41.9458 67.3054 44.7832 66.6414C47.606 65.9809 50.2449 64.599 51.2881 61.8949L50.3551 61.535C49.4908 63.7754 47.2615 65.0345 44.5553 65.6677C41.8637 66.2976 38.8287 66.2742 36.5834 66.0547L36.4862 67.05ZM12.5584 47.8852C15.5466 52.1466 18.7093 56.6602 22.5177 60.238C26.3356 63.8248 30.8287 66.4973 36.4862 67.05L36.5834 66.0547C31.2092 65.5298 26.9129 62.9951 23.2024 59.5092C19.4822 56.0143 16.3773 51.5895 13.3771 47.311L12.5584 47.8852ZM12.2624 47.4632C12.3609 47.6036 12.4595 47.7442 12.5584 47.8852L13.3771 47.311C13.2783 47.1701 13.1796 47.0294 13.0811 46.8889L12.2624 47.4632ZM1.18031 14.8991C-0.379945 20.6452 0.915613 26.6667 3.31792 32.2845C5.72151 37.9054 9.25957 43.1828 12.2624 47.4632L13.0811 46.8889C10.0813 42.613 6.5967 37.4087 4.23738 31.8913C1.87677 26.371 0.669174 20.5977 2.14537 15.1612L1.18031 14.8991ZM15.4993 0.703853C11.5519 0.72874 8.43649 2.52976 6.08241 5.19576C3.73683 7.85212 2.13752 11.3742 1.18031 14.8991L2.14536 15.1612C3.07685 11.731 4.61909 8.36377 6.832 5.85765C9.03641 3.36117 11.8964 1.72659 15.5056 1.70383L15.4993 0.703853ZM16.0054 0.500658C15.6405 0.491456 15.3319 0.634566 15.1228 0.878416L15.882 1.52927C15.8897 1.52029 15.8972 1.51484 15.9065 1.51079C15.9157 1.50676 15.9377 1.49927 15.9801 1.50034L16.0054 0.500658ZM24.4065 11.4527C24.0116 9.69417 23.0462 7.02658 21.6457 4.77403C20.9449 3.64677 20.1225 2.60285 19.19 1.82915C18.2565 1.05457 17.1869 0.530495 16.0054 0.500658L15.9801 1.50034C16.8698 1.52281 17.7306 1.91758 18.5515 2.59873C19.3735 3.28075 20.1296 4.22944 20.7965 5.30202C22.1314 7.44915 23.0577 10.0101 23.4308 11.6718L24.4065 11.4527ZM24.4965 11.8472C24.4652 11.7107 24.435 11.5794 24.4065 11.4528L23.4308 11.6718C23.4599 11.8014 23.4907 11.9353 23.522 12.0713L24.4965 11.8472ZM24.4372 17.5332C24.9531 16.6622 25.0452 15.6245 24.9798 14.6433C24.9142 13.6589 24.6841 12.6628 24.4965 11.8472L23.522 12.0713C23.7125 12.8999 23.9226 13.8183 23.982 14.7098C24.0417 15.6046 23.9436 16.4044 23.5768 17.0235L24.4372 17.5332ZM21.182 20.4692C22.3973 19.6309 23.7337 18.7208 24.4372 17.5331L23.5768 17.0235C23.0086 17.9828 21.888 18.7675 20.6142 19.646L21.182 20.4692ZM17.6515 25.0878C17.5568 24.0934 17.9246 23.2947 18.5794 22.5589C19.2502 21.8051 20.1877 21.1551 21.182 20.4692L20.6142 19.646C19.6448 20.3147 18.5986 21.033 17.8323 21.8941C17.0501 22.7732 16.5277 23.836 16.656 25.1826L17.6515 25.0878ZM23.6518 38.3899C20.8484 34.2038 18.132 30.1303 17.6515 25.0878L16.656 25.1826C17.1643 30.5168 20.0411 34.7954 22.8209 38.9463L23.6518 38.3899ZM27.1699 44.0293C26.1251 42.0822 24.8807 40.2249 23.6518 38.3899L22.8209 38.9463C24.0547 40.7885 25.2709 42.6054 26.2887 44.5021L27.1699 44.0293ZM36.4233 47.0397C34.5598 47.3786 32.8286 47.6869 31.2609 47.3826C29.7461 47.0885 28.3398 46.2093 27.1699 44.0293L26.2888 44.5021C27.5856 46.9186 29.2304 48.0071 31.0703 48.3642C32.8573 48.7111 34.7845 48.3541 36.6022 48.0236L36.4233 47.0397ZM41.5653 46.6163C39.8748 46.4078 38.0966 46.7354 36.4233 47.0397L36.6022 48.0236C38.3096 47.7131 39.9315 47.4224 41.4429 47.6088L41.5653 46.6163ZM51.6473 59.6331C51.3692 56.9304 50.2874 53.8747 48.5743 51.4005C46.8638 48.93 44.4762 46.9755 41.5653 46.6163L41.4428 47.6088C43.9678 47.9203 46.1335 49.6319 47.7522 51.9697C49.3682 54.3037 50.3915 57.1985 50.6526 59.7354L51.6473 59.6331ZM31.3868 63.5344C28.0018 62.4881 24.8984 59.9357 22.0752 56.7968C19.2564 53.6629 16.7618 49.9966 14.5734 46.7792L13.7465 47.3416C15.9283 50.5493 18.46 54.2729 21.3317 57.4656C24.1989 60.6533 27.45 63.3642 31.0915 64.4898L31.3868 63.5344ZM49.4508 59.993C49.2564 61.6799 48.3641 62.8153 47.0332 63.575C45.6792 64.3479 43.8688 64.7294 41.8948 64.8413C37.95 65.065 33.5488 64.2027 31.3868 63.5344L31.0915 64.4898C33.3358 65.1835 37.8587 66.0718 41.9514 65.8397C43.9963 65.7238 45.983 65.3259 47.529 64.4435C49.098 63.5478 50.2086 62.152 50.4442 60.1075L49.4508 59.993ZM49.7626 59.327C49.6176 59.4843 49.4843 59.7011 49.4508 59.9932L50.4442 60.1073C50.4466 60.0864 50.4517 60.0719 50.4581 60.0593C50.465 60.0455 50.4767 60.0278 50.4978 60.0049L49.7626 59.327ZM45.5215 51.5854C47.7696 53.6275 48.9564 56.6961 49.6422 59.7747L50.6182 59.5573C49.9172 56.4099 48.6713 53.0957 46.1939 50.8452L45.5215 51.5854ZM37.334 49.3251C38.6325 48.7063 39.5033 48.3064 40.6048 48.4821C41.7296 48.6615 43.1836 49.4615 45.5215 51.5854L46.1939 50.8452C43.8345 48.7018 42.1948 47.7231 40.7623 47.4946C39.3067 47.2624 38.1567 47.8253 36.9039 48.4223L37.334 49.3251ZM34.3517 50.5272C35.5642 50.1691 36.5192 49.7133 37.334 49.3251L36.9039 48.4223C36.0888 48.8107 35.1973 49.2348 34.0684 49.5682L34.3517 50.5272ZM28.5138 50.0665C29.5373 50.7539 30.4261 51.0589 31.3769 51.0813C32.3009 51.103 33.2445 50.8544 34.3518 50.5272L34.0684 49.5682C32.9491 49.899 32.147 50.0991 31.4004 50.0815C30.6805 50.0646 29.9739 49.8425 29.0713 49.2363L28.5138 50.0665ZM25.1812 45.2376C25.5817 46.0936 26.0209 47.0338 26.5467 47.8825C27.0722 48.7306 27.7052 49.5234 28.5138 50.0665L29.0713 49.2363C28.43 48.8056 27.8867 48.1465 27.3968 47.3558C26.9072 46.5656 26.4922 45.6798 26.087 44.8138L25.1812 45.2376ZM24.3927 43.6324C24.6518 44.1064 24.9067 44.6507 25.1812 45.2376L26.087 44.8138C25.8158 44.2341 25.5472 43.6596 25.2702 43.1528L24.3927 43.6324ZM21.3903 39.0133C22.4608 40.5306 23.5122 42.0217 24.3927 43.6325L25.2702 43.1528C24.3577 41.4836 23.2726 39.9466 22.2074 38.4368L21.3903 39.0133ZM18.721 34.9915C19.5422 36.3944 20.4733 37.7137 21.3903 39.0133L22.2074 38.4368C21.2864 37.1315 20.3802 35.8466 19.584 34.4864L18.721 34.9915ZM17.3263 20.1012C15.1675 22.2462 14.9669 25.0269 15.5611 27.6948C16.1534 30.3543 17.5512 32.9934 18.721 34.9916L19.584 34.4864C18.4219 32.5012 17.0935 29.9754 16.5372 27.4775C15.9827 24.988 16.2112 22.6189 18.0311 20.8106L17.3263 20.1012ZM19.012 18.5412C18.4706 19.0236 17.8947 19.5364 17.3263 20.1012L18.0312 20.8106C18.5772 20.2679 19.1331 19.7726 19.6772 19.2879L19.012 18.5412ZM21.6991 10.6064C22.5527 12.7121 22.4618 14.1166 21.9284 15.2486C21.3726 16.4279 20.3108 17.3843 19.012 18.5412L19.6772 19.2879C20.9348 18.1676 22.1732 17.0748 22.833 15.6748C23.5151 14.2275 23.555 12.5226 22.6258 10.2307L21.6991 10.6064ZM21.5811 10.3144C21.6221 10.4159 21.6614 10.5136 21.6991 10.6064L22.6258 10.2307C22.5886 10.1389 22.5496 10.0421 22.5086 9.94045L21.5811 10.3144ZM15.9731 2.86865C16.5672 2.89115 17.1496 3.16583 17.7237 3.65712C18.2989 4.14939 18.8372 4.83561 19.331 5.61962C20.3194 7.18894 21.0749 9.05909 21.5811 10.3145L22.5086 9.94045C22.0069 8.69646 21.2207 6.74362 20.1771 5.08668C19.6549 4.25755 19.0545 3.47982 18.3739 2.89736C17.6922 2.31393 16.9017 1.9031 16.011 1.86937L15.9731 2.86865ZM14.8973 2.02335C15.0208 2.4488 15.3832 2.84635 15.9732 2.86865L16.011 1.86937C15.9508 1.86709 15.9249 1.84975 15.9116 1.83833C15.8939 1.82316 15.8719 1.79384 15.8576 1.74456L14.8973 2.02335ZM12.7252 44.0881C8.61694 38.2297 4.29804 28.8669 3.54466 20.421C3.16835 16.2025 3.68565 12.2603 5.51219 9.09911C7.32917 5.95444 10.4762 3.52234 15.4893 2.37128L15.2656 1.39664C10.0213 2.60077 6.62123 5.18083 4.64633 8.59882C2.681 12.0003 2.1616 16.1713 2.54861 20.5099C3.32186 29.1784 7.7296 38.706 11.9065 44.6622L12.7252 44.0881ZM14.5734 46.7792C13.9308 45.8344 13.314 44.9276 12.7252 44.0881L11.9065 44.6623C12.4904 45.4948 13.103 46.3954 13.7465 47.3416L14.5734 46.7792Z" fill="#FF8787"/>
<path fill-rule="evenodd" clip-rule="evenodd" d="M32.9589 15.6354C38.9351 14.831 44.5124 17.3937 46.2279 23.5246C47.2544 27.1925 49.018 36.0934 43.8961 37.5868C43.8898 37.5886 43.884 37.5888 43.8781 37.589C43.873 37.5891 43.8679 37.5893 43.8622 37.5906C43.7502 37.6698 43.6227 37.7191 43.4824 37.7106C43.2594 37.724 43.0467 37.6353 42.9244 37.4224C42.9209 37.4176 42.9187 37.4118 42.9166 37.4061C42.9147 37.4011 42.9128 37.3961 42.9099 37.3918C42.9032 37.3787 42.896 37.3661 42.8888 37.3536C42.8709 37.3227 42.8531 37.2919 42.8435 37.2518C42.8423 37.2463 42.8418 37.2408 42.8414 37.2353C42.841 37.2298 42.8405 37.2243 42.8393 37.219C42.8341 37.1951 42.8319 37.1703 42.8296 37.1452L42.829 37.1385C42.704 36.5278 42.7337 35.8932 42.7634 35.2596C42.7853 34.792 42.8072 34.325 42.7668 33.8685C42.4605 30.3924 41.882 26.8829 39.9273 23.8955C38.7086 22.0334 37.2765 20.1917 35.6168 18.6913C34.981 18.1168 34.269 17.7476 33.5712 17.3857C33.0035 17.0914 32.4452 16.8018 31.9448 16.4105C31.92 16.3915 31.908 16.3437 31.9193 16.3152C31.9373 16.271 31.9554 16.2267 31.9735 16.1826C31.9842 16.1565 31.9949 16.1304 32.0055 16.1044C32.0836 15.9133 32.2271 15.7652 32.45 15.7673C32.5038 15.7677 32.5577 15.7743 32.6115 15.7809C32.6458 15.7851 32.6801 15.7893 32.7144 15.7919C32.7681 15.7152 32.8423 15.6512 32.9589 15.6354ZM41.411 23.6953C43.1739 26.9659 44.7195 31.7056 44.346 35.7215C46.8039 32.7556 46.0979 27.2203 44.9046 23.8878C43.187 19.0904 39.6846 16.8275 35.021 16.5453C37.7425 18.0703 40.2312 21.506 41.411 23.6953Z" fill="#FF4E4E"/>
<path d="M46.2279 23.5246L45.7464 23.6594L45.7464 23.6594L46.2279 23.5246ZM32.9589 15.6354L32.8922 15.1398L32.8916 15.1399L32.9589 15.6354ZM43.8961 37.5868L43.7562 37.1067L43.7556 37.1069L43.8961 37.5868ZM43.8781 37.589L43.8626 37.0892L43.8625 37.0892L43.8781 37.589ZM43.8622 37.5906L43.7482 37.1038L43.6533 37.126L43.5736 37.1823L43.8622 37.5906ZM43.4824 37.7106L43.5124 37.2115L43.4824 37.2097L43.4524 37.2115L43.4824 37.7106ZM42.9244 37.4224L43.358 37.1734L43.3441 37.1492L43.3275 37.1266L42.9244 37.4224ZM42.9166 37.4061L43.3843 37.2295L43.3843 37.2295L42.9166 37.4061ZM42.9099 37.3918L42.4645 37.6189L42.4769 37.6433L42.492 37.6662L42.9099 37.3918ZM42.8888 37.3536L43.3217 37.1035L43.3217 37.1034L42.8888 37.3536ZM42.8435 37.2518L42.3559 37.3623L42.3572 37.3678L42.8435 37.2518ZM42.8414 37.2353L42.343 37.2754V37.2754L42.8414 37.2353ZM42.8393 37.219L42.3506 37.3251L42.3525 37.3332L42.8393 37.219ZM42.8296 37.1452L43.3277 37.1008L43.3276 37.1006L42.8296 37.1452ZM42.829 37.1385L43.327 37.0939L43.3245 37.0658L43.3189 37.0382L42.829 37.1385ZM42.7634 35.2596L43.2629 35.283L43.2629 35.283L42.7634 35.2596ZM42.7668 33.8685L42.2688 33.9124L42.2688 33.9126L42.7668 33.8685ZM39.9273 23.8955L40.3457 23.6217L40.3457 23.6217L39.9273 23.8955ZM35.6168 18.6913L35.9521 18.3204L35.952 18.3204L35.6168 18.6913ZM33.5712 17.3857L33.341 17.8296L33.5712 17.3857ZM31.9448 16.4105L32.2528 16.0166L32.2494 16.014L31.9448 16.4105ZM31.9193 16.3152L31.4561 16.1268L31.4546 16.1308L31.9193 16.3152ZM31.9735 16.1826L31.5109 15.993L31.5109 15.993L31.9735 16.1826ZM32.0055 16.1044L32.4684 16.2936L32.4684 16.2936L32.0055 16.1044ZM32.45 15.7673L32.4453 16.2673L32.446 16.2673L32.45 15.7673ZM32.6115 15.7809L32.5507 16.2772H32.5507L32.6115 15.7809ZM32.7144 15.7919L32.6765 16.2905L32.9605 16.3121L33.1239 16.0787L32.7144 15.7919ZM44.346 35.7215L43.8481 35.6752L43.6982 37.2867L44.7309 36.0405L44.346 35.7215ZM41.411 23.6953L40.9709 23.9325L40.9709 23.9325L41.411 23.6953ZM44.9046 23.8878L44.4339 24.0563L44.4339 24.0563L44.9046 23.8878ZM35.021 16.5453L35.0512 16.0462L34.7766 16.9815L35.021 16.5453ZM46.7094 23.3899C44.9095 16.9572 39.0464 14.3115 32.8922 15.1398L33.0256 16.1309C38.8238 15.3505 44.1153 17.8301 45.7464 23.6594L46.7094 23.3899ZM44.0361 38.0668C46.9424 37.2194 47.7957 34.2839 47.8675 31.3835C47.9403 28.4393 47.2274 25.2409 46.7094 23.3899L45.7464 23.6594C46.2549 25.4762 46.937 28.5622 46.8678 31.3588C46.7975 34.1991 45.9717 36.4608 43.7562 37.1067L44.0361 38.0668ZM43.8937 38.0887C43.895 38.0887 43.9611 38.0887 44.0367 38.0666L43.7556 37.1069C43.8184 37.0885 43.8729 37.0889 43.8626 37.0892L43.8937 38.0887ZM43.9762 38.0774C43.9267 38.0891 43.8843 38.089 43.8937 38.0887L43.8625 37.0892C43.8617 37.0893 43.809 37.0895 43.7482 37.1038L43.9762 38.0774ZM43.4523 38.2097C43.7354 38.2267 43.9732 38.1245 44.1508 37.9989L43.5736 37.1823C43.5503 37.1988 43.5339 37.2061 43.5247 37.2092C43.5167 37.2118 43.5136 37.2116 43.5124 37.2115L43.4523 38.2097ZM42.4908 37.6714C42.7227 38.0752 43.1322 38.2325 43.5123 38.2097L43.4524 37.2115C43.4157 37.2137 43.3945 37.2067 43.3853 37.2022C43.3807 37.1999 43.3771 37.1974 43.3736 37.1942C43.3702 37.191 43.3646 37.1849 43.358 37.1734L42.4908 37.6714ZM42.4488 37.5828C42.4488 37.5829 42.4557 37.6016 42.465 37.6221C42.4752 37.6444 42.4929 37.6795 42.5213 37.7182L43.3275 37.1266C43.3524 37.1605 43.3672 37.1903 43.3749 37.2071C43.3817 37.2221 43.3864 37.235 43.3843 37.2295L42.4488 37.5828ZM42.492 37.6662C42.4732 37.6376 42.4616 37.6131 42.4559 37.6C42.4507 37.5881 42.447 37.578 42.4488 37.5828L43.3843 37.2295C43.3842 37.2292 43.3786 37.2141 43.3713 37.1974C43.3634 37.1795 43.3496 37.1504 43.3279 37.1174L42.492 37.6662ZM42.4559 37.6038C42.4598 37.6105 42.4617 37.6139 42.4633 37.6169C42.4648 37.6195 42.465 37.6199 42.4645 37.6189L43.3554 37.1647C43.3418 37.138 43.3279 37.1142 43.3217 37.1035L42.4559 37.6038ZM42.3572 37.3678C42.3858 37.4879 42.4404 37.577 42.4559 37.6038L43.3217 37.1034C43.3168 37.095 43.3149 37.0917 43.3134 37.089C43.3123 37.087 43.313 37.0882 43.3146 37.0915C43.3182 37.0991 43.3249 37.1147 43.3299 37.1358L42.3572 37.3678ZM42.343 37.2754C42.3431 37.2767 42.344 37.2883 42.3455 37.3015C42.3472 37.3156 42.3501 37.337 42.3559 37.3623L43.3311 37.1412C43.3357 37.1611 43.3378 37.177 43.3388 37.1857C43.3397 37.1933 43.3401 37.1995 43.3398 37.1953L42.343 37.2754ZM42.3525 37.3332C42.3475 37.3118 42.3451 37.2947 42.3441 37.2856C42.3431 37.2775 42.3427 37.271 42.343 37.2754L43.3398 37.1953C43.3397 37.1942 43.3388 37.1821 43.3372 37.1686C43.3355 37.1541 43.3323 37.1316 43.3261 37.1049L42.3525 37.3332ZM42.3316 37.1896C42.3333 37.209 42.3377 37.2654 42.3507 37.3251L43.3279 37.113C43.3297 37.1212 43.3301 37.1255 43.3298 37.1229C43.3296 37.1217 43.3294 37.1196 43.329 37.1158C43.3286 37.1118 43.3282 37.1074 43.3277 37.1008L42.3316 37.1896ZM42.331 37.1831L42.3316 37.1898L43.3276 37.1006L43.327 37.0939L42.331 37.1831ZM42.264 35.2362C42.2348 35.8581 42.1995 36.5564 42.3392 37.2388L43.3189 37.0382C43.2085 36.4993 43.2326 35.9283 43.2629 35.283L42.264 35.2362ZM42.2688 33.9126C42.3057 34.3296 42.2862 34.7624 42.264 35.2362L43.2629 35.283C43.2845 34.8216 43.3087 34.3204 43.2649 33.8245L42.2688 33.9126ZM39.5089 24.1693C41.3919 27.0471 41.9636 30.45 42.2688 33.9124L43.2649 33.8246C42.9573 30.3348 42.3721 26.7187 40.3457 23.6217L39.5089 24.1693ZM35.2815 19.0623C36.8987 20.5242 38.3041 22.3284 39.5089 24.1693L40.3457 23.6217C39.1131 21.7384 37.6543 19.8592 35.9521 18.3204L35.2815 19.0623ZM33.341 17.8296C34.0457 18.195 34.7007 18.5374 35.2816 19.0623L35.952 18.3204C35.2613 17.6962 34.4924 17.3002 33.8014 16.9419L33.341 17.8296ZM31.6368 16.8044C32.1798 17.229 32.7802 17.5388 33.341 17.8296L33.8014 16.9419C33.2268 16.6439 32.7105 16.3746 32.2527 16.0166L31.6368 16.8044ZM31.4546 16.1308C31.3972 16.2753 31.4132 16.4102 31.4348 16.4929C31.4563 16.575 31.5099 16.707 31.6402 16.807L32.2494 16.014C32.3549 16.0951 32.3902 16.1936 32.4023 16.2399C32.4145 16.2868 32.4301 16.3835 32.3841 16.4996L31.4546 16.1308ZM31.5109 15.993C31.4928 16.037 31.4744 16.0819 31.4562 16.1268L32.3825 16.5035C32.4002 16.4601 32.418 16.4165 32.4362 16.3722L31.5109 15.993ZM31.5427 15.9152C31.5322 15.941 31.5216 15.9669 31.5109 15.993L32.4361 16.3722C32.4468 16.3462 32.4576 16.3199 32.4684 16.2936L31.5427 15.9152ZM32.4548 15.2673C31.9503 15.2626 31.6645 15.6173 31.5427 15.9152L32.4684 16.2936C32.4764 16.274 32.4838 16.2611 32.489 16.2535C32.4941 16.2461 32.4956 16.2458 32.4917 16.2491C32.4872 16.2527 32.4787 16.2584 32.4669 16.2626C32.4549 16.267 32.4465 16.2673 32.4453 16.2673L32.4548 15.2673ZM32.6723 15.2846C32.6234 15.2787 32.5411 15.268 32.454 15.2673L32.446 16.2673C32.4665 16.2675 32.4919 16.27 32.5507 16.2772L32.6723 15.2846ZM32.7522 15.2934C32.7314 15.2918 32.7086 15.2891 32.6723 15.2846L32.5507 16.2772C32.5831 16.2812 32.6288 16.2869 32.6765 16.2905L32.7522 15.2934ZM32.8916 15.1399C32.5977 15.1798 32.4127 15.3511 32.3048 15.5052L33.1239 16.0787C33.1267 16.0748 33.1189 16.0872 33.0976 16.1019C33.0735 16.1186 33.0469 16.128 33.0262 16.1308L32.8916 15.1399ZM44.8438 35.7678C45.2299 31.6161 43.6389 26.7748 41.8512 23.4581L40.9709 23.9325C42.7089 27.157 44.209 31.7951 43.8481 35.6752L44.8438 35.7678ZM44.4339 24.0563C45.0142 25.6769 45.4766 27.8383 45.4945 29.9464C45.5125 32.0657 45.0812 34.0508 43.961 35.4024L44.7309 36.0405C46.0687 34.4263 46.5133 32.1608 46.4945 29.9379C46.4755 27.7037 45.9883 25.4311 45.3753 23.7192L44.4339 24.0563ZM34.9908 17.0444C37.2494 17.1811 39.1948 17.7949 40.776 18.9296C42.3551 20.0627 43.6041 21.7387 44.4339 24.0563L45.3753 23.7192C44.4875 21.2394 43.1264 19.3853 41.359 18.1171C39.5938 16.8504 37.4562 16.1917 35.0512 16.0462L34.9908 17.0444ZM41.8512 23.4581C41.2458 22.3346 40.3097 20.9 39.1772 19.5499C38.0483 18.2038 36.7004 16.9132 35.2654 16.1091L34.7766 16.9815C36.0632 17.7024 37.3204 18.8921 38.4111 20.1925C39.4983 21.4887 40.3965 22.8666 40.9709 23.9325L41.8512 23.4581Z" fill="#FF8787"/>
<path fill-rule="evenodd" clip-rule="evenodd" d="M33.0716 5.90107C38.7484 0.0343237 51.0003 8.37827 54.08 13.9862C58.942 22.8405 60.281 35.9153 52.2404 43.3179C51.7346 43.7834 50.9102 43.3345 51.0874 42.6371C55.3854 25.7742 49.028 14.2385 33.8056 7.0315C33.7865 7.02262 33.7728 7.01014 33.759 6.99762C33.7519 6.99116 33.7447 6.98469 33.7369 6.9787C33.1736 7.17435 32.5642 6.42557 33.0716 5.90107ZM53.9107 35.0554C53.6746 37.0491 53.4274 39.0402 52.9311 40.9908C52.5221 42.5976 54.0594 39.1727 54.9339 37.2244C55.2891 36.4331 55.5349 35.8855 55.4966 36.0174C56.7659 31.6393 57.0315 26.9088 55.9112 22.4461C54.7052 17.6397 52.7386 12.6898 48.4774 9.86101C45.1881 7.67745 38.6828 3.39454 34.5895 6.3393C46.7601 10.9659 55.551 21.2039 53.9107 35.0554Z" fill="#FF4E4E"/>
<path d="M54.08 13.9862L54.5183 13.7456L54.5183 13.7455L54.08 13.9862ZM33.0716 5.90107L32.7123 5.55338L32.7123 5.55341L33.0716 5.90107ZM52.2404 43.3179L52.579 43.6858L52.579 43.6857L52.2404 43.3179ZM51.0874 42.6371L50.6029 42.5136L50.6028 42.514L51.0874 42.6371ZM33.8056 7.0315L34.0195 6.57957L34.0166 6.5782L33.8056 7.0315ZM33.759 6.99762L33.4228 7.36775L33.4228 7.36775L33.759 6.99762ZM33.7369 6.9787L34.0396 6.58079L33.8262 6.41837L33.5728 6.50639L33.7369 6.9787ZM52.9311 40.9908L53.4157 41.1141L53.4157 41.1141L52.9311 40.9908ZM53.9107 35.0554L53.4141 34.9966L53.4141 34.9966L53.9107 35.0554ZM54.9339 37.2244L55.3901 37.4292L54.9339 37.2244ZM55.4966 36.0174L55.0164 35.8782L55.9768 36.1568L55.4966 36.0174ZM55.9112 22.4461L55.4262 22.5678L55.4263 22.5679L55.9112 22.4461ZM48.4774 9.86101L48.2008 10.2776L48.2008 10.2776L48.4774 9.86101ZM34.5895 6.3393L34.2975 5.93342L33.5429 6.47633L34.4119 6.80667L34.5895 6.3393ZM54.5183 13.7455C52.9169 10.8294 48.9946 7.27855 44.7712 5.19234C40.5804 3.1223 35.7977 2.36472 32.7123 5.55338L33.4309 6.24876C36.0223 3.57067 40.204 4.05169 44.3283 6.08893C48.4199 8.11 52.1635 11.5351 53.6418 14.2269L54.5183 13.7455ZM52.579 43.6857C56.7261 39.8677 58.4349 34.602 58.4986 29.2023C58.5623 23.8065 56.9862 18.24 54.5183 13.7456L53.6418 14.2269C56.0358 18.5867 57.5601 23.9847 57.4987 29.1905C57.4373 34.3925 55.7953 39.3654 51.9017 42.95L52.579 43.6857ZM50.6028 42.514C50.2923 43.7357 51.7397 44.4582 52.579 43.6858L51.9018 42.95C51.8252 43.0204 51.7336 43.0239 51.6558 42.9794C51.617 42.9572 51.5908 42.927 51.577 42.8966C51.565 42.87 51.5548 42.8277 51.572 42.7602L50.6028 42.514ZM33.5916 7.48341C41.1364 11.0554 46.4296 15.6741 49.3197 21.4375C52.2076 27.1966 52.7302 34.1672 50.6029 42.5136L51.5719 42.7606C53.7426 34.2442 53.2355 27.0154 50.2136 20.9892C47.1939 14.9673 41.6972 10.2145 34.0195 6.57958L33.5916 7.48341ZM33.4228 7.36775C33.4319 7.37604 33.4974 7.43955 33.5946 7.48479L34.0166 6.5782C34.0476 6.59265 34.0707 6.6085 34.0849 6.61943C34.0963 6.62818 34.1043 6.63583 34.0951 6.62748L33.4228 7.36775ZM33.4341 7.37661C33.427 7.37119 33.4221 7.36699 33.4203 7.36547C33.4194 7.3647 33.4191 7.36436 33.4195 7.36478C33.4201 7.3653 33.4209 7.36598 33.4228 7.36775L34.0951 6.62749C34.0904 6.62317 34.0676 6.60205 34.0396 6.58079L33.4341 7.37661ZM32.7123 5.55341C32.268 6.0126 32.3174 6.6016 32.5927 6.99611C32.8484 7.3625 33.3597 7.63902 33.9009 7.45102L33.5728 6.50639C33.5573 6.51178 33.5376 6.51344 33.5081 6.50178C33.4751 6.48869 33.4389 6.46131 33.4127 6.42377C33.3871 6.38698 33.3812 6.35579 33.3819 6.33746C33.3823 6.32614 33.385 6.29622 33.4309 6.24874L32.7123 5.55341ZM53.4157 41.1141C53.9211 39.1273 54.1715 37.1053 54.4072 35.1142L53.4141 34.9966C53.1778 36.993 52.9336 38.9531 52.4466 40.8675L53.4157 41.1141ZM54.4778 37.0197C54.0392 37.9968 53.4403 39.3308 53.0026 40.2199C52.8935 40.4417 52.7964 40.6316 52.7157 40.7792C52.6296 40.9369 52.5776 41.0174 52.5578 41.0422C52.5544 41.0465 52.5629 41.035 52.5821 41.0178C52.5896 41.0111 52.6596 40.9459 52.78 40.9189C52.8511 40.903 52.9502 40.8985 53.0569 40.939C53.1644 40.9798 53.2372 41.0502 53.2814 41.1133C53.3557 41.2193 53.3615 41.3199 53.3622 41.3295C53.3655 41.3693 53.3591 41.3783 53.3691 41.3211C53.3771 41.2756 53.3917 41.2082 53.4157 41.1141L52.4466 40.8675C52.4194 40.9742 52.3982 41.0684 52.3841 41.1483C52.3722 41.2165 52.3577 41.3148 52.3656 41.4109C52.3686 41.4487 52.3798 41.5692 52.4626 41.6873C52.511 41.7564 52.5889 41.8309 52.7021 41.8739C52.8145 41.9166 52.9201 41.9123 52.9983 41.8948C53.133 41.8646 53.2201 41.7887 53.2475 41.7643C53.2866 41.7295 53.3176 41.6932 53.3393 41.6662C53.4198 41.5653 53.5085 41.4138 53.5933 41.2586C53.6836 41.0933 53.7877 40.8893 53.8998 40.6616C54.3471 39.7529 54.9542 38.4002 55.3901 37.4292L54.4778 37.0197ZM55.9768 36.1568C55.9776 36.1541 55.9947 36.0998 55.9992 36.0361C56.0005 36.0182 56.0033 35.9708 55.9929 35.9118C55.9867 35.877 55.953 35.6909 55.7643 35.5734C55.5402 35.4339 55.3286 35.5226 55.2656 35.5559C55.1955 35.5929 55.1515 35.6379 55.1379 35.6521C55.1044 35.6868 55.0831 35.7193 55.0776 35.7276C55.0684 35.7414 55.0611 35.7537 55.0563 35.762C55.0466 35.7789 55.0375 35.7961 55.0301 35.8105C55.0013 35.8666 54.9588 35.9568 54.9087 36.0655C54.8064 36.2876 54.6549 36.6251 54.4778 37.0197L55.3901 37.4292C55.5682 37.0324 55.7172 36.7005 55.8169 36.4839C55.868 36.3732 55.9019 36.3018 55.9195 36.2676C55.9237 36.2594 55.9244 36.2585 55.9224 36.2619C55.9215 36.2635 55.9176 36.2703 55.9113 36.2797C55.9087 36.2837 55.8897 36.313 55.8581 36.3458C55.8454 36.359 55.8023 36.4033 55.7329 36.44C55.6705 36.4729 55.4595 36.5616 55.2358 36.4223C55.0475 36.3051 55.0141 36.1196 55.0081 36.0856C54.9978 36.0275 55.0006 35.9813 55.0018 35.9649C55.0045 35.9273 55.0111 35.8994 55.0122 35.8947C55.0143 35.8853 55.0161 35.8791 55.0164 35.878L55.9768 36.1568ZM55.4263 22.5679C56.5219 26.9324 56.2648 31.572 55.0164 35.8782L55.9768 36.1566C57.267 31.7065 57.5411 26.8852 56.3962 22.3244L55.4263 22.5679ZM48.2008 10.2776C52.2968 12.9966 54.2257 17.7835 55.4262 22.5678L56.3962 22.3244C55.1846 17.496 53.1805 12.383 48.7539 9.44444L48.2008 10.2776ZM34.8815 6.74518C36.714 5.42686 39.147 5.6837 41.6562 6.64401C44.1461 7.59689 46.5509 9.18229 48.2008 10.2776L48.7539 9.44444C47.1146 8.35617 44.6221 6.70834 42.0137 5.71006C39.4246 4.71922 36.5583 4.30698 34.2975 5.93342L34.8815 6.74518ZM54.4072 35.1142C56.0821 20.971 47.0855 10.5547 34.7672 5.87193L34.4119 6.80667C46.4347 11.3771 55.02 21.4367 53.4141 34.9966L54.4072 35.1142Z" fill="#FF8787"/>
</svg>
