<svg width="30" height="32" viewBox="0 0 30 32" fill="none" xmlns="http://www.w3.org/2000/svg">
<path fill-rule="evenodd" clip-rule="evenodd" d="M3.75 12.3018C3.51151 12.3018 3.27821 12.324 3.05209 12.3666C4.62477 7.26175 9.37913 3.55176 15 3.55176C20.6209 3.55176 25.3752 7.26175 26.9479 12.3666C26.7218 12.324 26.4885 12.3018 26.25 12.3018C24.1789 12.3018 22.5 13.9807 22.5 16.0518V22.3018C22.5 22.9921 23.0596 23.5518 23.75 23.5518H24.375C27.4816 23.5518 30 21.0334 30 17.9268V16.0518C30 7.76749 23.2843 1.05176 15 1.05176C6.71573 1.05176 0 7.76749 0 16.0518C0 24.336 6.71573 31.0518 15 31.0518C17.0711 31.0518 18.75 29.3728 18.75 27.3018C18.75 25.2307 17.0711 23.5518 15 23.5518C12.9289 23.5518 11.25 25.2307 11.25 27.3018C11.25 27.5403 11.2723 27.7735 11.3148 27.9997C8.74933 27.2093 6.53613 25.6153 4.96908 23.5116C5.17793 23.5381 5.39649 23.5518 5.625 23.5518H6.25C6.94036 23.5518 7.5 22.9921 7.5 22.3018V16.0518C7.5 13.9807 5.82107 12.3018 3.75 12.3018ZM13.75 27.3018C13.75 26.6114 14.3096 26.0518 15 26.0518C15.6904 26.0518 16.25 26.6114 16.25 27.3018C16.25 27.9921 15.6904 28.5518 15 28.5518C14.3096 28.5518 13.75 27.9921 13.75 27.3018ZM27.5 17.9268V16.0518C27.5 15.3614 26.9404 14.8018 26.25 14.8018C25.5596 14.8018 25 15.3614 25 16.0518V20.9892C26.4264 20.6997 27.5 19.4386 27.5 17.9268ZM5 16.0518V20.9892C3.5736 20.6997 2.5 19.4386 2.5 17.9268V16.0518C2.5 15.3614 3.05964 14.8018 3.75 14.8018C4.44036 14.8018 5 15.3614 5 16.0518Z" fill="white"/>
<path d="M11.696 10.4417C11.1007 10.8896 10.2852 10.7263 9.87457 10.0769C9.46392 9.42742 9.61364 8.5378 10.209 8.08983C13.1878 5.84831 17.8836 5.84831 20.8625 8.08983C21.4578 8.5378 21.6076 9.42742 21.1969 10.0769C20.7863 10.7263 19.9708 10.8896 19.3754 10.4417C17.2918 8.87377 13.7797 8.87377 11.696 10.4417Z" fill="white"/>
</svg>
