<svg width="67" height="72" viewBox="0 0 67 72" fill="none" xmlns="http://www.w3.org/2000/svg">
<path fill-rule="evenodd" clip-rule="evenodd" d="M65.675 16.2441C62.9082 15.1285 60.1289 14.0286 57.3155 13.0308C57.573 12.4363 57.7993 11.8336 57.9476 11.2123C57.9953 11.0131 57.8855 10.7356 57.6547 10.7005C41.7442 8.27892 25.9856 5.05744 10.4126 1.01517C10.0632 0.924569 9.8576 1.25828 9.9197 1.52418C9.83463 1.53938 9.75381 1.57793 9.71326 1.67472C4.08175 15.0624 1.28287 29.3026 1.16405 43.6477L1.15526 43.648C0.948815 43.6551 0.947681 43.9623 1.15526 43.9671H1.16008C1.13994 47.6515 1.2874 51.342 1.62004 55.0272C1.56049 55.0838 1.57069 55.1881 1.64045 55.2447C1.74793 56.4127 1.87128 57.5798 2.01392 58.7462C1.91694 58.8097 1.92828 58.9611 2.04511 59.0056C2.27509 60.8506 2.53258 62.6936 2.85018 64.5316C2.88648 64.7417 3.12894 64.8245 3.31156 64.7915C5.23703 64.4438 7.16165 64.1517 9.08656 63.8864C9.25245 66.2221 9.66051 68.421 10.3042 70.6912C10.3499 70.8524 10.5291 71.0179 10.7109 70.9984C21.5216 69.8428 32.3533 69.2291 43.2267 69.1822C43.3489 69.1816 43.4405 69.1377 43.5159 69.0789C43.6521 69.1177 43.8083 69.0659 43.8568 68.8845C44.4602 66.6168 45.0303 64.3422 45.6 62.0688L45.6 62.0687C47.2096 55.6459 48.8168 49.2323 51.1691 43.0116C53.8078 36.0328 57.637 29.9669 61.5279 23.8032L61.528 23.8032L61.528 23.8031C62.8229 21.752 64.1245 19.6899 65.3915 17.5798C65.495 17.4074 65.4507 17.2515 65.3458 17.1488L65.4156 17.1769C65.9997 17.4093 66.249 16.4754 65.675 16.2441ZM9.08656 63.5434C7.60261 63.7924 6.22813 63.9035 5.24412 63.6573C4.29897 63.4207 3.63909 62.6702 3.17459 61.632C4.50098 61.8374 5.87004 61.8914 7.21955 61.9447H7.21959C7.57434 61.9587 7.92774 61.9727 8.27866 61.9893C8.47064 61.9983 8.46525 61.713 8.27866 61.6964C7.91518 61.6639 7.54938 61.6279 7.18214 61.5918C5.816 61.4573 4.42985 61.3209 3.06854 61.3559C2.79574 60.6705 2.60206 59.8742 2.45913 59.0287C7.43927 59.1381 12.401 58.8444 17.3295 58.124C17.5476 58.0922 17.4982 57.7104 17.2768 57.7385C12.3284 58.3714 7.39135 58.6958 2.4044 58.7079C2.2388 57.6105 2.15741 56.4391 2.11544 55.3097C4.35965 55.4766 6.59507 55.4929 8.84212 55.3271C9.05678 55.3114 9.06019 54.9796 8.84212 54.9923C6.59649 55.1237 4.352 55.1268 2.10693 55.003C2.07982 54.1346 2.07263 53.3029 2.06616 52.5553C2.06208 52.083 2.05828 51.6442 2.04994 51.2508C5.30906 51.4244 8.58974 51.2981 11.8415 51.071C12.0862 51.0539 12.091 50.6785 11.8415 50.6892C9.52098 50.7873 7.20203 50.8077 4.88233 50.828H4.88225H4.88165C3.93395 50.8364 2.98613 50.8447 2.03803 50.8583C2.03666 50.8194 2.03566 50.7774 2.03466 50.7355C2.03316 50.6729 2.03167 50.6102 2.02895 50.557C1.98131 49.6098 1.94983 48.6636 1.92686 47.7181C3.68701 47.9058 5.42873 47.8909 7.18718 47.6349C7.33265 47.6138 7.29976 47.3588 7.1523 47.378C5.40689 47.6039 3.66603 47.638 1.91807 47.4719C1.89255 46.3048 1.8917 45.139 1.90304 43.9744C5.65417 44.0377 9.41636 43.9201 13.1525 43.6005C13.3822 43.5808 13.3895 43.2316 13.1525 43.2395C10.5751 43.325 7.99774 43.4135 5.42038 43.5019C4.25002 43.5421 3.07965 43.5822 1.90928 43.6221C1.92573 42.3723 1.97082 41.1249 2.02895 39.879C2.03602 39.8817 2.04226 39.8854 2.04848 39.8891C2.06123 39.8967 2.07388 39.9042 2.09332 39.9035C2.4164 39.8899 2.73948 39.8766 3.06255 39.8632L3.06395 39.8631L3.06503 39.8631C5.11659 39.7783 7.16789 39.6934 9.21729 39.5607C9.48243 39.5436 9.48697 39.137 9.21729 39.1474C7.16545 39.2271 5.11656 39.3545 3.06735 39.482L3.06721 39.482C2.74259 39.5022 2.41797 39.5224 2.09332 39.5425C2.08026 39.5433 2.07158 39.5494 2.06279 39.5556C2.05707 39.5596 2.05131 39.5637 2.04426 39.5664C2.09511 38.5386 2.17726 37.5143 2.2594 36.4901L2.28644 36.1524C5.66098 36.075 9.03183 35.9926 12.403 35.8184C12.6588 35.8052 12.6624 35.4155 12.403 35.4208C9.03523 35.4906 5.67402 35.6516 2.31026 35.8176C2.37542 35.0296 2.46116 34.2442 2.54689 33.4589C2.56525 33.2907 2.58362 33.1225 2.60177 32.9543C2.60779 32.9568 2.6131 32.9603 2.6184 32.9637C2.62882 32.9704 2.63919 32.9771 2.6548 32.9771L3.29768 32.9812H3.29781C4.89602 32.9918 6.49318 33.0023 8.09121 32.9639C8.271 32.9594 8.27128 32.6909 8.09121 32.6867C6.49831 32.6484 4.9065 32.6589 3.31386 32.6695L2.6548 32.6738C2.64852 32.6738 2.64449 32.6765 2.64042 32.6793C2.63714 32.6816 2.63383 32.6839 2.62928 32.6847C2.72913 31.7795 2.85107 30.877 2.973 29.9747L2.973 29.9747L2.99367 29.8217C6.12802 29.945 9.26663 29.9976 12.4033 30.0108C12.6415 30.0119 12.6403 29.6526 12.4033 29.6447C9.28336 29.5387 6.15978 29.472 3.03763 29.4751C3.17544 28.4767 3.33254 27.4815 3.49532 26.4871C6.21934 26.5628 8.93371 26.5209 11.6529 26.3149C11.8908 26.2969 11.8948 25.9289 11.6529 25.9435C8.95328 26.107 6.2511 26.1818 3.54693 26.1506C3.74798 24.944 3.97257 23.7414 4.20992 22.5411C8.00189 22.6778 11.7944 22.7727 15.5884 22.8374C15.8331 22.8416 15.8322 22.4688 15.5884 22.4606C11.8205 22.3371 8.0518 22.2439 4.28224 22.1916C4.4697 21.2574 4.68482 20.3283 4.89991 19.3994L4.89992 19.3993C4.94707 19.1957 4.99422 18.992 5.04108 18.7884C5.04636 18.7912 5.05114 18.7947 5.05591 18.7981C5.06652 18.8056 5.07704 18.8132 5.09269 18.8145C7.72058 19.0453 10.3488 18.9696 12.9664 18.664C13.1618 18.6412 13.1669 18.3351 12.9664 18.3553C10.3408 18.6204 7.73079 18.657 5.0961 18.5424C5.34791 17.4574 5.62638 16.3781 5.90627 15.299C10.3825 15.5444 14.8565 15.685 19.3395 15.6921C19.5465 15.6924 19.5468 15.3753 19.3395 15.373C14.8854 15.324 10.4318 15.2056 5.98283 14.9929C6.49582 13.0339 7.06127 11.0873 7.66613 9.15035C10.2504 9.17933 12.8292 9.29779 15.4029 9.53696C15.5957 9.55469 15.5935 9.25755 15.4029 9.2387C12.8536 8.98743 10.3039 8.8746 7.74355 8.89626C8.06768 7.86614 8.41023 6.84052 8.76045 5.81715C11.3452 5.96291 13.9249 6.20348 16.4904 6.54761C16.662 6.57068 16.7388 6.31182 16.5633 6.28537C13.9995 5.89735 11.4348 5.66212 8.84609 5.55772C9.27882 4.30278 9.72914 3.05262 10.2064 1.81006C10.2067 1.80922 10.2065 1.80859 10.2063 1.80795C10.206 1.80732 10.2058 1.80669 10.2061 1.80584C18.6841 4.04532 27.2135 6.06786 35.8149 7.78595C40.1167 8.64499 44.4316 9.43988 48.7595 10.158C48.9722 10.1932 49.4551 10.2396 50.0675 10.2983C51.8822 10.4724 54.8341 10.7555 55.2613 11.1839C56.848 12.775 55.2672 14.8267 54.1562 16.2685C53.9623 16.5202 53.7827 16.7534 53.6367 16.9622C45.4669 28.6509 39.5782 41.897 36.464 55.7855C36.3787 56.1663 36.3261 56.6847 36.2693 57.245V57.2451C36.1514 58.4087 36.0151 59.753 35.5288 60.4204C34.2986 62.1083 32.4233 61.936 30.6075 61.7691C30.1132 61.7236 29.6233 61.6786 29.152 61.6716C24.8045 61.6072 20.4494 61.7701 16.1198 62.168C15.1079 62.2608 13.7762 62.557 12.3615 62.8717L12.3614 62.8717L12.3613 62.8717C11.4055 63.0843 10.4118 63.3053 9.45322 63.4778C9.35851 63.3545 9.13987 63.3897 9.08656 63.5434ZM43.3966 68.2314C46.9699 49.4213 53.3801 32.7871 64.7316 17.1972C64.8198 17.0759 64.9417 17.0323 65.0605 17.0345C62.3609 15.9602 59.6641 14.8648 57.0127 13.6774C56.1359 15.4491 54.8828 17.1215 53.6518 18.7643C52.802 19.8984 51.9627 21.0184 51.2652 22.1472C48.943 25.9058 46.8494 29.815 44.9905 33.8184C40.7397 42.9738 37.8495 52.6096 36.1237 62.5341C36.0905 62.7254 35.8572 62.8903 35.6683 62.8782C26.878 62.3191 18.2046 62.6593 9.53943 63.8247C10.0947 67.8251 10.3748 69.6476 15.0314 69.6951C16.8057 69.7132 18.6271 69.4982 20.4367 69.2847C21.53 69.1557 22.619 69.0272 23.6907 68.9509C30.1944 68.4877 36.707 68.2654 43.2267 68.1987C43.2913 68.1982 43.3449 68.2137 43.3966 68.2314Z" fill="#0052CC"/>
<path d="M57.3155 13.0308L56.8567 12.8321L56.644 13.3232L57.1484 13.5021L57.3155 13.0308ZM65.675 16.2441L65.4881 16.7079L65.4881 16.7079L65.675 16.2441ZM57.9476 11.2123L57.4613 11.096L57.4613 11.0962L57.9476 11.2123ZM57.6547 10.7005L57.73 10.2062L57.7299 10.2061L57.6547 10.7005ZM10.4126 1.01517L10.5382 0.53121L10.5381 0.531183L10.4126 1.01517ZM9.9197 1.52418L10.0076 2.01639L10.5265 1.92372L10.4066 1.41047L9.9197 1.52418ZM9.71326 1.67472L10.1741 1.86859L10.1744 1.86792L9.71326 1.67472ZM1.16405 43.6477L1.1801 44.1475L1.66005 44.1321L1.66403 43.6519L1.16405 43.6477ZM1.15526 43.648L1.13921 43.1483L1.13823 43.1483L1.15526 43.648ZM1.15526 43.9671L1.14373 44.4671H1.15526V43.9671ZM1.16008 43.9671L1.66007 43.9698L1.66282 43.4671H1.16008V43.9671ZM1.62004 55.0272L1.96436 55.3897L2.13976 55.2232L2.11801 54.9822L1.62004 55.0272ZM1.64045 55.2447L2.13835 55.1989L2.11904 54.989L1.95534 54.8563L1.64045 55.2447ZM2.01392 58.7462L2.28809 59.1643L2.54795 58.9939L2.51022 58.6855L2.01392 58.7462ZM2.04511 59.0056L2.54128 58.9437L2.50407 58.6453L2.22293 58.5383L2.04511 59.0056ZM2.85018 64.5316L3.34289 64.4465L3.34288 64.4464L2.85018 64.5316ZM3.31156 64.7915L3.40026 65.2836L3.40043 65.2836L3.31156 64.7915ZM9.08656 63.8864L9.5853 63.8509L9.54746 63.3181L9.01828 63.391L9.08656 63.8864ZM10.3042 70.6912L10.7853 70.555L10.7853 70.5548L10.3042 70.6912ZM10.7109 70.9984L10.764 71.4956H10.764L10.7109 70.9984ZM43.2267 69.1822L43.2289 69.6821H43.229L43.2267 69.1822ZM43.5159 69.0789L43.6531 68.5981L43.4088 68.5284L43.2085 68.6846L43.5159 69.0789ZM43.8568 68.8845L44.3399 69.0135L44.34 69.013L43.8568 68.8845ZM45.6 62.0688L46.085 62.1903L46.0851 62.1901L45.6 62.0688ZM45.6 62.0687L45.115 61.9471L45.115 61.9474L45.6 62.0687ZM51.1691 43.0116L51.6367 43.1884L51.6367 43.1884L51.1691 43.0116ZM61.5279 23.8032L61.1118 23.5258L61.1051 23.5363L61.5279 23.8032ZM61.528 23.8031L61.9442 24.0806L61.9508 24.07L61.528 23.8031ZM65.3915 17.5798L65.8201 17.8372L65.8202 17.8371L65.3915 17.5798ZM65.3458 17.1488L65.5328 16.6851L64.996 17.5061L65.3458 17.1488ZM65.4156 17.1769L65.2285 17.6406L65.2307 17.6415L65.4156 17.1769ZM5.24412 63.6573L5.12268 64.1423L5.12276 64.1424L5.24412 63.6573ZM9.08656 63.5434L9.16931 64.0365L9.46173 63.9874L9.55893 63.7073L9.08656 63.5434ZM3.17459 61.632L3.25112 61.1379L2.34286 60.9972L2.71818 61.8361L3.17459 61.632ZM7.21955 61.9447L7.19982 62.4443L7.20968 62.4447H7.21955V61.9447ZM7.21959 61.9447L7.23931 61.4451L7.22945 61.4447H7.21959V61.9447ZM8.27866 61.9893L8.25498 62.4888L8.25523 62.4888L8.27866 61.9893ZM8.27866 61.6964L8.23414 62.1944L8.23434 62.1944L8.27866 61.6964ZM7.18214 61.5918L7.23111 61.0942H7.23111L7.18214 61.5918ZM3.06854 61.3559L2.60398 61.5408L2.73289 61.8647L3.0814 61.8558L3.06854 61.3559ZM2.45913 59.0287L2.47012 58.5288L1.8653 58.5155L1.96613 59.112L2.45913 59.0287ZM17.3295 58.124L17.2574 57.6293L17.2572 57.6293L17.3295 58.124ZM17.2768 57.7385L17.2137 57.2425L17.2133 57.2426L17.2768 57.7385ZM2.4044 58.7079L1.91 58.7825L1.97436 59.2089L2.40562 59.2079L2.4044 58.7079ZM2.11544 55.3097L2.15251 54.8111L1.59503 54.7696L1.61579 55.3283L2.11544 55.3097ZM8.84212 55.3271L8.80551 54.8285L8.80534 54.8285L8.84212 55.3271ZM8.84212 54.9923L8.81313 54.4931L8.81291 54.4932L8.84212 54.9923ZM2.10693 55.003L1.60718 55.0186L1.62149 55.477L2.0794 55.5022L2.10693 55.003ZM2.06616 52.5553L1.56618 52.5596L2.06616 52.5553ZM2.04994 51.2508L2.07653 50.7515L1.53862 50.7229L1.55005 51.2614L2.04994 51.2508ZM11.8415 51.071L11.8763 51.5698L11.8765 51.5698L11.8415 51.071ZM11.8415 50.6892L11.8626 51.1888L11.8629 51.1887L11.8415 50.6892ZM4.88233 50.828V51.328L4.88672 51.328L4.88233 50.828ZM4.88165 50.828V50.328L4.87725 50.328L4.88165 50.828ZM2.03803 50.8583L1.53833 50.8758L1.55549 51.3653L2.04521 51.3583L2.03803 50.8583ZM2.03466 50.7355L2.53452 50.7235V50.7235L2.03466 50.7355ZM2.02895 50.557L1.52958 50.5821L1.5296 50.5824L2.02895 50.557ZM1.92686 47.7181L1.97988 47.221L1.41317 47.1605L1.42701 47.7303L1.92686 47.7181ZM7.18718 47.6349L7.1154 47.14L7.11513 47.1401L7.18718 47.6349ZM7.1523 47.378L7.21649 47.8738L7.21664 47.8738L7.1523 47.378ZM1.91807 47.4719L1.41819 47.4829L1.42792 47.9276L1.8708 47.9697L1.91807 47.4719ZM1.90304 43.9744L1.91148 43.4745L1.40797 43.466L1.40307 43.9696L1.90304 43.9744ZM13.1525 43.6005L13.1951 44.0987L13.1952 44.0986L13.1525 43.6005ZM13.1525 43.2395L13.169 43.7392H13.1691L13.1525 43.2395ZM5.42038 43.5019L5.40323 43.0022H5.40323L5.42038 43.5019ZM1.90928 43.6221L1.40933 43.6156L1.40243 44.1397L1.92632 44.1218L1.90928 43.6221ZM2.02895 39.879L2.2112 39.4134L1.56199 39.1593L1.52949 39.8557L2.02895 39.879ZM2.04848 39.8891L2.30369 39.4592L2.30356 39.4591L2.04848 39.8891ZM2.09332 39.9035L2.11273 40.4031L2.11427 40.403L2.09332 39.9035ZM3.06255 39.8632L3.04221 39.3636L3.04189 39.3636L3.06255 39.8632ZM3.06395 39.8631L3.08429 40.3627L3.08525 40.3627L3.06395 39.8631ZM3.06503 39.8631L3.04437 39.3635L3.04373 39.3635L3.06503 39.8631ZM9.21729 39.5607L9.24959 40.0597L9.21729 39.5607ZM9.21729 39.1474L9.19799 38.6478L9.19789 38.6478L9.21729 39.1474ZM3.06735 39.482L3.0363 38.9829L3.02787 38.9836L3.06735 39.482ZM3.06721 39.482L3.09826 39.9812L3.10669 39.9805L3.06721 39.482ZM2.09332 39.5425L2.06257 39.0434L2.06082 39.0435L2.09332 39.5425ZM2.06279 39.5556L2.35073 39.9644L2.35079 39.9643L2.06279 39.5556ZM2.04426 39.5664L1.54488 39.5417L1.50716 40.3041L2.22113 40.034L2.04426 39.5664ZM2.2594 36.4901L2.7578 36.5301L2.7578 36.53L2.2594 36.4901ZM2.28644 36.1524L2.27497 35.6525L1.82404 35.6629L1.78803 36.1125L2.28644 36.1524ZM12.403 35.8184L12.4288 36.3178H12.4288L12.403 35.8184ZM12.403 35.4208L12.3927 34.9209H12.3926L12.403 35.4208ZM2.31026 35.8176L1.81196 35.7764L1.76492 36.3451L2.3349 36.317L2.31026 35.8176ZM2.54689 33.4589L2.04985 33.4046L2.54689 33.4589ZM2.60177 32.9543L2.79746 32.4942L2.17702 32.2303L2.10466 32.9006L2.60177 32.9543ZM2.6184 32.9637L2.88923 32.5434L2.88919 32.5434L2.6184 32.9637ZM2.6548 32.9771L2.65801 32.4771H2.6548V32.9771ZM3.29768 32.9812L3.29447 33.4812H3.29768V32.9812ZM3.29781 32.9812L3.30111 32.4812H3.29781V32.9812ZM8.09121 32.9639L8.10324 33.4637L8.10373 33.4637L8.09121 32.9639ZM8.09121 32.6867L8.07919 33.1866L8.07949 33.1866L8.09121 32.6867ZM3.31386 32.6695L3.31708 33.1695H3.31718L3.31386 32.6695ZM2.6548 32.6738V33.1738L2.65802 33.1737L2.6548 32.6738ZM2.64042 32.6793L2.35719 32.2673L2.35708 32.2673L2.64042 32.6793ZM2.62928 32.6847L2.13229 32.6299L2.05794 33.3041L2.72391 33.1757L2.62928 32.6847ZM2.973 29.9747L3.46852 30.0417L3.46914 30.0367L2.973 29.9747ZM2.973 29.9747L2.47748 29.9077L2.47687 29.9127L2.973 29.9747ZM2.99367 29.8217L3.01332 29.3221L2.55904 29.3042L2.49817 29.7548L2.99367 29.8217ZM12.4033 30.0108L12.4056 29.5108L12.4054 29.5108L12.4033 30.0108ZM12.4033 29.6447L12.3863 30.1444L12.3866 30.1445L12.4033 29.6447ZM3.03763 29.4751L2.54232 29.4067L2.46378 29.9756L3.03812 29.9751L3.03763 29.4751ZM3.49532 26.4871L3.5092 25.9873L3.07246 25.9752L3.00188 26.4063L3.49532 26.4871ZM11.6529 26.3149L11.6152 25.8163L11.6151 25.8163L11.6529 26.3149ZM11.6529 25.9435L11.6227 25.4444L11.6227 25.4444L11.6529 25.9435ZM3.54693 26.1506L3.05373 26.0684L2.95784 26.6438L3.54115 26.6506L3.54693 26.1506ZM4.20992 22.5411L4.22794 22.0414L3.80208 22.026L3.71942 22.4441L4.20992 22.5411ZM15.5884 22.8374L15.597 22.3374L15.5969 22.3374L15.5884 22.8374ZM15.5884 22.4606L15.6051 21.9609L15.6047 21.9609L15.5884 22.4606ZM4.28224 22.1916L3.79201 22.0932L3.67362 22.6832L4.27529 22.6916L4.28224 22.1916ZM4.89991 19.3994L5.38706 19.5122L5.38836 19.5062L4.89991 19.3994ZM4.89992 19.3993L4.41277 19.2865L4.41147 19.2925L4.89992 19.3993ZM5.04108 18.7884L5.28061 18.3495L4.70167 18.0335L4.55381 18.6763L5.04108 18.7884ZM5.05591 18.7981L4.76516 19.2048H4.76516L5.05591 18.7981ZM5.09269 18.8145L5.13643 18.3164L5.13591 18.3164L5.09269 18.8145ZM12.9664 18.664L12.9085 18.1674L12.9085 18.1674L12.9664 18.664ZM12.9664 18.3553L13.0167 18.8528L13.0167 18.8528L12.9664 18.3553ZM5.0961 18.5424L4.60904 18.4294L4.47294 19.0158L5.07438 19.042L5.0961 18.5424ZM5.90627 15.299L5.93363 14.7997L5.52503 14.7774L5.42228 15.1735L5.90627 15.299ZM19.3395 15.6921L19.3387 16.1921L19.3388 16.1921L19.3395 15.6921ZM19.3395 15.373L19.334 15.873L19.3341 15.873L19.3395 15.373ZM5.98283 14.9929L5.49914 14.8662L5.3429 15.4628L5.95895 15.4923L5.98283 14.9929ZM7.66613 9.15035L7.67174 8.65038L7.29975 8.64621L7.18886 9.00131L7.66613 9.15035ZM15.4029 9.53696L15.3566 10.0348L15.3571 10.0349L15.4029 9.53696ZM15.4029 9.2387L15.4521 8.74113L15.4519 8.74111L15.4029 9.2387ZM7.74355 8.89626L7.2666 8.74619L7.06023 9.40206L7.74778 9.39625L7.74355 8.89626ZM8.76045 5.81715L8.7886 5.31795L8.41012 5.29661L8.28738 5.65526L8.76045 5.81715ZM16.4904 6.54761L16.5571 6.05207L16.5569 6.05205L16.4904 6.54761ZM16.5633 6.28537L16.4885 6.77974L16.4888 6.77978L16.5633 6.28537ZM8.84609 5.55772L8.3734 5.39473L8.15426 6.03023L8.82594 6.05732L8.84609 5.55772ZM10.2064 1.81006L10.6732 1.98934L10.677 1.97932L10.6804 1.96915L10.2064 1.81006ZM10.2063 1.80795L9.73227 1.96714L9.73229 1.96719L10.2063 1.80795ZM10.2061 1.80584L10.3338 1.32242L9.88149 1.20294L9.73224 1.64633L10.2061 1.80584ZM35.8149 7.78595L35.717 8.27626L35.717 8.27627L35.8149 7.78595ZM48.7595 10.158L48.8414 9.6647L48.8414 9.6647L48.7595 10.158ZM50.0675 10.2983L50.1152 9.80059L50.0675 10.2983ZM55.2613 11.1839L55.6154 10.8308L55.6153 10.8308L55.2613 11.1839ZM54.1562 16.2685L54.5523 16.5737L54.1562 16.2685ZM53.6367 16.9622L54.0465 17.2487L54.0466 17.2486L53.6367 16.9622ZM36.464 55.7855L35.9761 55.6761L35.9761 55.6762L36.464 55.7855ZM36.2693 57.245L35.7719 57.1946L35.7693 57.2198V57.245H36.2693ZM36.2693 57.2451L36.7668 57.2955L36.7693 57.2703V57.2451H36.2693ZM35.5288 60.4204L35.9328 60.7148L35.9329 60.7148L35.5288 60.4204ZM30.6075 61.7691L30.6533 61.2712H30.6533L30.6075 61.7691ZM29.152 61.6716L29.1446 62.1716L29.152 61.6716ZM16.1198 62.168L16.1655 62.6659L16.1655 62.6659L16.1198 62.168ZM12.3615 62.8717L12.2529 62.3836L12.2447 62.3855L12.2365 62.3876L12.3615 62.8717ZM12.3614 62.8717L12.2364 62.3876L12.2054 62.3956L12.1757 62.4075L12.3614 62.8717ZM12.3613 62.8717L12.4699 63.3598L12.5094 63.351L12.547 63.336L12.3613 62.8717ZM9.45322 63.4778L9.05677 63.7825L9.24222 64.0238L9.54175 63.9699L9.45322 63.4778ZM64.7316 17.1972L65.1358 17.4915L65.136 17.4912L64.7316 17.1972ZM43.3966 68.2314L43.2342 68.7043L43.78 68.8917L43.8878 68.3247L43.3966 68.2314ZM65.0605 17.0345L65.0511 17.5344L65.2454 16.57L65.0605 17.0345ZM57.0127 13.6774L57.217 13.2211L56.7779 13.0244L56.5645 13.4557L57.0127 13.6774ZM53.6518 18.7643L54.0519 19.0641L53.6518 18.7643ZM51.2652 22.1472L50.8398 21.8843L50.8398 21.8844L51.2652 22.1472ZM44.9905 33.8184L44.537 33.6078L44.537 33.6078L44.9905 33.8184ZM36.1237 62.5341L35.6311 62.4484L35.6311 62.4486L36.1237 62.5341ZM35.6683 62.8782L35.7002 62.3792L35.7 62.3792L35.6683 62.8782ZM9.53943 63.8247L9.47278 63.3292L8.97515 63.3961L9.04418 63.8935L9.53943 63.8247ZM15.0314 69.6951L15.0263 70.1951H15.0263L15.0314 69.6951ZM20.4367 69.2847L20.4953 69.7812H20.4953L20.4367 69.2847ZM23.6907 68.9509L23.7262 69.4496L23.7262 69.4496L23.6907 68.9509ZM43.2267 68.1987L43.2223 67.6988L43.2216 67.6988L43.2267 68.1987ZM57.1484 13.5021C59.9512 14.4961 62.7224 15.5927 65.4881 16.7079L65.862 15.7804C63.094 14.6643 60.3065 13.5611 57.4827 12.5596L57.1484 13.5021ZM57.4613 11.0962C57.3224 11.6781 57.1083 12.2512 56.8567 12.8321L57.7744 13.2295C58.0377 12.6214 58.2762 11.9891 58.434 11.3284L57.4613 11.0962ZM57.5794 11.1947C57.5428 11.1892 57.5114 11.1733 57.4896 11.1556C57.4697 11.1395 57.462 11.1256 57.4602 11.1221C57.4591 11.1199 57.4587 11.1188 57.4587 11.1187C57.4587 11.1187 57.4587 11.1187 57.4587 11.1186C57.4587 11.1184 57.4585 11.1169 57.4586 11.1138C57.4587 11.1108 57.4592 11.1047 57.4613 11.096L58.4339 11.3286C58.4875 11.1047 58.4512 10.8642 58.351 10.6676C58.2477 10.4652 58.044 10.254 57.73 10.2062L57.5794 11.1947ZM10.2869 1.49913C25.8769 5.54578 41.6523 8.77069 57.5795 11.1948L57.7299 10.2061C41.8361 7.78715 26.0944 4.56909 10.5382 0.53121L10.2869 1.49913ZM10.4066 1.41047C10.41 1.425 10.4084 1.43302 10.4078 1.43544C10.4072 1.43786 10.4053 1.4448 10.3968 1.45505C10.3873 1.46648 10.3683 1.48307 10.3389 1.49296C10.3076 1.50352 10.2865 1.49902 10.287 1.49916L10.5381 0.531183C10.1664 0.434794 9.83172 0.569747 9.62686 0.816929C9.44084 1.04138 9.36582 1.35108 9.43281 1.6379L10.4066 1.41047ZM10.1744 1.86792C10.1552 1.9137 10.1195 1.95701 10.0747 1.9865C10.0551 1.99941 10.038 2.00684 10.0266 2.01094C10.0154 2.01497 10.0085 2.01624 10.0076 2.01639L9.83179 1.03197C9.65517 1.06352 9.38321 1.16854 9.2521 1.48152L10.1744 1.86792ZM1.66403 43.6519C1.78233 29.3691 4.56896 15.1936 10.1741 1.86859L9.25238 1.48085C3.59454 14.9311 0.7834 29.236 0.664065 43.6436L1.66403 43.6519ZM1.17131 44.1478L1.1801 44.1475L1.148 43.148L1.13921 43.1483L1.17131 44.1478ZM1.16678 43.4672C1.24817 43.4691 1.34422 43.506 1.41514 43.5872C1.47862 43.6598 1.50012 43.7424 1.5 43.8093C1.49988 43.8763 1.47815 43.9569 1.41678 44.0277C1.34826 44.1067 1.25448 44.1449 1.17228 44.1477L1.13823 43.1483C0.952809 43.1546 0.781476 43.2339 0.661172 43.3727C0.548011 43.5032 0.500264 43.6623 0.500001 43.8075C0.499738 43.9527 0.54697 44.1134 0.662169 44.2452C0.784809 44.3856 0.958558 44.4627 1.14374 44.467L1.16678 43.4672ZM1.16008 43.4671H1.15526V44.4671H1.16008V43.4671ZM2.11801 54.9822C1.78688 51.3136 1.64002 47.639 1.66007 43.9698L0.660086 43.9644C0.639869 47.6639 0.78793 51.3704 1.12206 55.0721L2.11801 54.9822ZM1.95534 54.8563C2.02821 54.9154 2.07105 54.9998 2.07951 55.0886C2.08801 55.178 2.06195 55.2971 1.96436 55.3897L1.27571 54.6646C0.957502 54.9669 1.06607 55.4227 1.32557 55.6331L1.95534 54.8563ZM2.51022 58.6855C2.36825 57.5246 2.24541 56.3624 2.13835 55.1989L1.14256 55.2905C1.25045 56.463 1.37432 57.6351 1.51762 58.8069L2.51022 58.6855ZM2.22293 58.5383C2.49474 58.6417 2.52606 59.0083 2.28809 59.1643L1.73976 58.328C1.30782 58.6112 1.36182 59.2806 1.8673 59.4729L2.22293 58.5383ZM3.34288 64.4464C3.02706 62.6188 2.77068 60.7841 2.54128 58.9437L1.54895 59.0674C1.77951 60.9171 2.0381 62.7684 2.35749 64.6167L3.34288 64.4464ZM3.22286 64.2995C3.22732 64.2987 3.22996 64.2986 3.23091 64.2985C3.23189 64.2985 3.23229 64.2986 3.23242 64.2986C3.23254 64.2986 3.23333 64.2987 3.23497 64.2992C3.23659 64.2997 3.23998 64.3008 3.2449 64.3032C3.25411 64.3077 3.27448 64.3196 3.2959 64.3452C3.31911 64.3731 3.3364 64.4089 3.34289 64.4465L2.35748 64.6166C2.40913 64.9158 2.61043 65.1065 2.8071 65.2023C2.99503 65.2938 3.20957 65.318 3.40026 65.2836L3.22286 64.2995ZM9.01828 63.391C7.08906 63.657 5.15715 63.9501 3.22269 64.2995L3.40043 65.2836C5.31692 64.9374 7.23425 64.6464 9.15484 64.3817L9.01828 63.391ZM10.7853 70.5548C10.15 68.3143 9.74853 66.1492 9.5853 63.8509L8.58782 63.9218C8.75637 66.2949 9.17107 68.5278 9.82319 70.8276L10.7853 70.5548ZM10.6578 70.5013C10.6967 70.4971 10.7268 70.5039 10.7444 70.5101C10.7612 70.5161 10.7691 70.5223 10.7705 70.5234C10.772 70.5247 10.7725 70.5252 10.7734 70.5265C10.774 70.5274 10.7799 70.5359 10.7853 70.555L9.82314 70.8274C9.87763 71.0198 9.99926 71.1861 10.1425 71.3017C10.286 71.4175 10.5044 71.5233 10.764 71.4956L10.6578 70.5013ZM43.2245 68.6822C32.3337 68.7292 21.485 69.3439 10.6577 70.5013L10.764 71.4956C21.5582 70.3418 32.3729 69.7291 43.2289 69.6821L43.2245 68.6822ZM43.2085 68.6846C43.2008 68.6906 43.2013 68.6888 43.2086 68.686C43.2122 68.6846 43.216 68.6835 43.2197 68.6828C43.2233 68.6821 43.2251 68.6822 43.2244 68.6822L43.229 69.6821C43.4854 69.681 43.6813 69.5839 43.8234 69.4732L43.2085 68.6846ZM43.3737 68.7554C43.3836 68.7186 43.4204 68.6543 43.4973 68.6162C43.563 68.5837 43.6204 68.5888 43.6531 68.5981L43.3788 69.5597C43.5476 69.6079 43.7511 69.6065 43.9411 69.5123C44.1423 69.4127 44.2815 69.2318 44.3399 69.0135L43.3737 68.7554ZM45.115 61.9473C44.5451 64.2213 43.976 66.4924 43.3736 68.7559L44.34 69.013C44.9445 66.7413 45.5154 64.4632 46.085 62.1903L45.115 61.9473ZM45.115 61.9474L45.1149 61.9475L46.0851 62.1901L46.0851 62.1899L45.115 61.9474ZM50.7014 42.8347C48.3372 49.0871 46.7234 55.5289 45.115 61.9471L46.085 62.1902C47.6958 55.7628 49.2965 49.3775 51.6367 43.1884L50.7014 42.8347ZM61.1051 23.5363C57.2181 29.6938 53.3608 35.8012 50.7014 42.8347L51.6367 43.1884C54.2548 36.2644 58.0559 30.2401 61.9507 24.0701L61.1051 23.5363ZM61.1119 23.5259L61.1119 23.5259L61.944 24.0806L61.944 24.0806L61.1119 23.5259ZM61.112 23.5258L61.1119 23.5259L61.944 24.0806L61.944 24.0805L61.112 23.5258ZM64.9628 17.3225C63.6992 19.427 62.4005 21.4843 61.1052 23.5362L61.9508 24.07C63.2452 22.0196 64.5499 19.9529 65.8201 17.8372L64.9628 17.3225ZM64.996 17.5061C64.9839 17.4942 64.9602 17.4639 64.9526 17.4139C64.9488 17.3894 64.9501 17.3667 64.9541 17.3483C64.958 17.3303 64.9633 17.3217 64.9627 17.3226L65.8202 17.8371C65.9248 17.6628 65.9719 17.4641 65.941 17.2624C65.9109 17.0656 65.8127 16.9061 65.6956 16.7915L64.996 17.5061ZM65.6026 16.7132L65.5328 16.6851L65.1588 17.6125L65.2285 17.6406L65.6026 16.7132ZM65.4881 16.7079C65.4988 16.7122 65.5002 16.7149 65.4982 16.7128C65.4965 16.7111 65.4962 16.71 65.4968 16.7114C65.4994 16.7176 65.5022 16.7346 65.4972 16.7529C65.4916 16.7733 65.489 16.7554 65.5242 16.7341C65.5435 16.7224 65.5664 16.7153 65.5876 16.714C65.6081 16.7127 65.6137 16.7176 65.6004 16.7123L65.2307 17.6415C65.5066 17.7512 65.7979 17.7375 66.0423 17.5894C66.2706 17.4511 66.404 17.2289 66.462 17.0159C66.5757 16.5989 66.4383 16.0127 65.8619 15.7804L65.4881 16.7079ZM5.12276 64.1424C6.21723 64.4162 7.68386 64.2857 9.16931 64.0365L9.00381 63.0503C7.52136 63.299 6.23903 63.3908 5.36548 63.1723L5.12276 64.1424ZM2.71818 61.8361C3.21342 62.9431 3.96653 63.8529 5.12268 64.1423L5.36556 63.1723C4.6314 62.9885 4.06476 62.3973 3.631 61.4278L2.71818 61.8361ZM7.23927 61.4451C5.88463 61.3916 4.54444 61.3382 3.25112 61.1379L3.09807 62.1261C4.45752 62.3366 5.85546 62.3913 7.19982 62.4443L7.23927 61.4451ZM7.21959 61.4447H7.21955V62.4447H7.21959V61.4447ZM8.30233 61.4899C7.9491 61.4731 7.59372 61.4591 7.23931 61.4451L7.19986 62.4443C7.55496 62.4584 7.90637 62.4722 8.25498 62.4888L8.30233 61.4899ZM8.23434 62.1944C8.02066 62.1754 7.92186 61.9876 7.92064 61.8571C7.92001 61.7894 7.941 61.6951 8.01717 61.612C8.10309 61.5182 8.21611 61.4858 8.30208 61.4899L8.25523 62.4888C8.43719 62.4973 8.62153 62.4327 8.75461 62.2874C8.87793 62.1527 8.9219 61.9878 8.9206 61.8478C8.91804 61.5728 8.72324 61.234 8.32297 61.1984L8.23434 62.1944ZM7.13317 62.0894C7.50003 62.1255 7.86806 62.1617 8.23414 62.1944L8.32317 61.1984C7.9623 61.1661 7.59874 61.1303 7.23111 61.0942L7.13317 62.0894ZM3.0814 61.8558C4.40642 61.8217 5.76142 61.9544 7.13317 62.0894L7.23111 61.0942C5.87058 60.9603 4.45327 60.8201 3.05567 60.8561L3.0814 61.8558ZM1.96613 59.112C2.11228 59.9767 2.31336 60.8106 2.60398 61.5408L3.5331 61.171C3.27811 60.5304 3.09183 59.7717 2.95214 58.9453L1.96613 59.112ZM17.2572 57.6293C12.357 58.3455 7.42322 58.6376 2.47012 58.5288L2.44815 59.5285C7.45532 59.6386 12.4449 59.3433 17.4018 58.6188L17.2572 57.6293ZM17.3398 58.2346C17.2344 58.2479 17.1273 58.2077 17.0557 58.1361C16.9962 58.0767 16.9776 58.0142 16.9723 57.9748C16.9671 57.9353 16.9689 57.8714 17.0094 57.7998C17.0581 57.714 17.1496 57.645 17.2574 57.6293L17.4016 58.6188C17.6185 58.5872 17.7855 58.4585 17.8794 58.293C17.9651 58.1418 17.9816 57.9783 17.9636 57.8429C17.9456 57.7075 17.8867 57.5528 17.7625 57.4287C17.6262 57.2925 17.4298 57.2151 17.2137 57.2425L17.3398 58.2346ZM2.40562 59.2079C7.41364 59.1957 12.3715 58.8699 17.3402 58.2345L17.2133 57.2426C12.2853 57.8728 7.36906 58.1958 2.40319 58.2079L2.40562 59.2079ZM1.61579 55.3283C1.65811 56.4671 1.74048 57.6592 1.91 58.7825L2.89881 58.6333C2.73712 57.5619 2.65672 56.4112 2.6151 55.2911L1.61579 55.3283ZM8.80534 54.8285C6.58514 54.9922 4.37451 54.9763 2.15251 54.8111L2.07837 55.8083C4.34479 55.9768 6.60501 55.9935 8.8789 55.8258L8.80534 54.8285ZM8.87111 55.4915C8.78776 55.4963 8.67778 55.4648 8.59505 55.3742C8.52291 55.2952 8.50409 55.2073 8.5044 55.1465C8.50472 55.0847 8.52422 55.0135 8.57638 54.9498C8.63518 54.8779 8.72085 54.8347 8.80551 54.8285L8.87872 55.8258C9.30353 55.7946 9.50294 55.4343 9.50439 55.1516C9.50512 55.0075 9.45969 54.8381 9.33356 54.6999C9.19684 54.5502 9.00551 54.482 8.81313 54.4931L8.87111 55.4915ZM2.0794 55.5022C4.34327 55.6271 6.60671 55.624 8.87133 55.4915L8.81291 54.4932C6.58627 54.6235 4.36072 54.6265 2.13447 54.5038L2.0794 55.5022ZM1.56618 52.5596C1.57264 53.3067 1.57987 54.1437 1.60718 55.0186L2.60669 54.9874C2.57978 54.1254 2.57262 53.2992 2.56614 52.551L1.56618 52.5596ZM1.55005 51.2614C1.55831 51.651 1.56209 52.0865 1.56618 52.5596L2.56614 52.551C2.56206 52.0795 2.55825 51.6374 2.54982 51.2402L1.55005 51.2614ZM11.8067 50.5723C8.564 50.7987 5.30632 50.9236 2.07653 50.7515L2.02334 51.7501C5.3118 51.9253 8.61547 51.7975 11.8763 51.5698L11.8067 50.5723ZM11.8629 51.1887C11.7891 51.1919 11.6878 51.1627 11.6109 51.078C11.5439 51.0041 11.5265 50.9226 11.5268 50.8665C11.5272 50.8096 11.5453 50.7434 11.5946 50.6839C11.6503 50.6165 11.7305 50.5776 11.8065 50.5723L11.8765 51.5698C12.3142 51.5391 12.5249 51.1702 12.5268 50.8729C12.5278 50.7221 12.4801 50.5477 12.3514 50.4059C12.2129 50.2533 12.0186 50.1812 11.8201 50.1897L11.8629 51.1887ZM4.88672 51.328C7.20504 51.3076 9.53234 51.2872 11.8626 51.1888L11.8204 50.1897C9.50961 50.2873 7.19903 50.3077 4.87794 50.328L4.88672 51.328ZM4.88225 51.328H4.88233V50.328H4.88225V51.328ZM4.88165 51.328H4.88225V50.328H4.88165V51.328ZM2.04521 51.3583C2.99169 51.3447 3.93812 51.3363 4.88604 51.328L4.87725 50.328C3.92979 50.3364 2.98058 50.3447 2.03084 50.3584L2.04521 51.3583ZM1.5348 50.7474C1.53579 50.7888 1.53685 50.8336 1.53833 50.8758L2.53772 50.8408C2.53647 50.8051 2.53553 50.7661 2.53452 50.7235L1.5348 50.7474ZM1.5296 50.5824C1.5319 50.6275 1.53326 50.6829 1.5348 50.7474L2.53452 50.7235C2.53307 50.6629 2.53143 50.5929 2.5283 50.5315L1.5296 50.5824ZM1.42701 47.7303C1.45005 48.6786 1.48166 49.6294 1.52958 50.5821L2.52832 50.5318C2.48096 49.5903 2.44962 48.6485 2.42672 47.706L1.42701 47.7303ZM7.11513 47.1401C5.40147 47.3896 3.70192 47.4046 1.97988 47.221L1.87385 48.2153C3.6721 48.4071 5.45599 48.3922 7.25922 48.1296L7.11513 47.1401ZM7.21664 47.8738C7.09229 47.8899 6.96967 47.8434 6.88693 47.7607C6.81648 47.6903 6.79123 47.6122 6.78391 47.557C6.77658 47.5016 6.78086 47.4212 6.82892 47.3364C6.88513 47.2374 6.98925 47.1583 7.1154 47.14L7.25896 48.1297C7.45784 48.1008 7.6124 47.982 7.69875 47.8298C7.77695 47.6919 7.79106 47.545 7.77526 47.4257C7.75947 47.3064 7.70744 47.1669 7.59389 47.0534C7.46806 46.9277 7.28603 46.8564 7.08795 46.8821L7.21664 47.8738ZM1.8708 47.9697C3.65675 48.1393 5.43501 48.1044 7.21649 47.8738L7.08811 46.8821C5.37878 47.1034 3.67531 47.1366 1.96535 46.9742L1.8708 47.9697ZM1.40307 43.9696C1.39169 45.1375 1.39252 46.3088 1.41819 47.4829L2.41795 47.461C2.39258 46.3007 2.39171 45.1406 2.40302 43.9793L1.40307 43.9696ZM13.1098 43.1023C9.3917 43.4204 5.64659 43.5375 1.91148 43.4745L1.89461 44.4743C5.66175 44.5379 9.44102 44.4198 13.1951 44.0987L13.1098 43.1023ZM13.1691 43.7392C13.0957 43.7416 12.9935 43.7126 12.9149 43.6263C12.8455 43.55 12.8269 43.4647 12.8275 43.4044C12.8282 43.3435 12.848 43.2757 12.8975 43.2158C12.953 43.1488 13.0325 43.1089 13.1097 43.1023L13.1952 44.0986C13.6157 44.0626 13.8244 43.7088 13.8275 43.4148C13.829 43.2658 13.7821 43.0934 13.6546 42.9533C13.5179 42.8031 13.3278 42.7334 13.1358 42.7397L13.1691 43.7392ZM5.43753 44.0016C8.01494 43.9132 10.592 43.8247 13.169 43.7392L13.1359 42.7397C10.5582 42.8253 7.98054 42.9137 5.40323 43.0022L5.43753 44.0016ZM1.92632 44.1218C3.09675 44.082 4.26718 44.0418 5.43754 44.0016L5.40323 43.0022C4.23286 43.0424 3.06255 43.0825 1.89225 43.1224L1.92632 44.1218ZM1.52949 39.8557C1.47121 41.1049 1.42587 42.3582 1.40933 43.6156L2.40924 43.6287C2.42559 42.3863 2.47043 41.1449 2.52841 39.9023L1.52949 39.8557ZM2.30356 39.4591C2.30213 39.4583 2.26202 39.4333 2.2112 39.4134L1.8467 40.3446C1.82635 40.3366 1.81092 40.3288 1.80216 40.324C1.79465 40.32 1.78883 40.3165 1.7934 40.3192L2.30356 39.4591ZM2.07391 39.4038C2.13798 39.4013 2.1968 39.4133 2.24585 39.432C2.28551 39.447 2.31528 39.4661 2.30369 39.4592L1.79327 40.3191C1.80746 40.3275 1.93302 40.4101 2.11273 40.4031L2.07391 39.4038ZM3.04189 39.3636C2.71884 39.377 2.39562 39.3903 2.07238 39.4039L2.11427 40.403C2.43718 40.3895 2.76011 40.3761 3.0832 40.3628L3.04189 39.3636ZM3.04361 39.3635L3.04221 39.3636L3.08289 40.3628L3.08429 40.3627L3.04361 39.3635ZM3.04373 39.3635L3.04265 39.3636L3.08525 40.3627L3.08632 40.3626L3.04373 39.3635ZM9.18498 39.0618C7.14237 39.194 5.0969 39.2786 3.04437 39.3635L3.08568 40.3627C5.13628 40.2779 7.1934 40.1928 9.24959 40.0597L9.18498 39.0618ZM9.23658 39.647C9.16735 39.6497 9.07069 39.6216 8.99733 39.5404C8.93372 39.4699 8.91756 39.3931 8.91785 39.341C8.91815 39.2881 8.9349 39.2253 8.98229 39.1682C9.03642 39.1029 9.11382 39.0664 9.18498 39.0618L9.24959 40.0597C9.69965 40.0306 9.91615 39.652 9.91784 39.3465C9.91869 39.1918 9.86968 39.0143 9.73936 38.87C9.59929 38.715 9.40206 38.6399 9.19799 38.6478L9.23658 39.647ZM3.0984 39.9811C5.14858 39.8535 7.19164 39.7264 9.23669 39.647L9.19789 38.6478C7.13925 38.7277 5.08454 38.8556 3.0363 38.983L3.0984 39.9811ZM3.10669 39.9805L3.10683 39.9805L3.02787 38.9836L3.02773 38.9836L3.10669 39.9805ZM2.12408 40.0415C2.4489 40.0215 2.77367 40.0013 3.09826 39.9811L3.03616 38.983C2.71152 39.0032 2.38704 39.0234 2.06257 39.0434L2.12408 40.0415ZM2.35079 39.9643C2.36458 39.9546 2.26871 40.0321 2.12583 40.0414L2.06082 39.0435C1.89182 39.0545 1.77857 39.1442 1.77478 39.1469L2.35079 39.9643ZM2.22113 40.034C2.26126 40.0189 2.29277 40.0015 2.31432 39.9884C2.33378 39.9765 2.34996 39.9649 2.35073 39.9644L1.77484 39.1469C1.76989 39.1503 1.78034 39.1428 1.79372 39.1346C1.8092 39.1252 1.83431 39.1112 1.8674 39.0987L2.22113 40.034ZM1.761 36.4501C1.67896 37.4731 1.59616 38.505 1.54488 39.5417L2.54365 39.5911C2.59406 38.5722 2.67556 37.5555 2.7578 36.5301L1.761 36.4501ZM1.78803 36.1125L1.76099 36.4502L2.7578 36.53L2.78484 36.1923L1.78803 36.1125ZM12.3772 35.3191C9.01412 35.4928 5.64996 35.5752 2.27497 35.6525L2.2979 36.6523C5.672 36.5749 9.04954 36.4924 12.4288 36.3178L12.3772 35.3191ZM12.4133 35.9207C12.342 35.9222 12.247 35.8919 12.1755 35.8119C12.1131 35.7421 12.0959 35.6652 12.0962 35.6103C12.0965 35.5549 12.1141 35.4882 12.1649 35.4279C12.2227 35.3593 12.3041 35.3229 12.3771 35.3191L12.4288 36.3178C12.8765 36.2946 13.0948 35.9199 13.0962 35.615C13.0969 35.4617 13.048 35.2876 12.9213 35.1458C12.7855 34.9938 12.5937 34.9168 12.3927 34.9209L12.4133 35.9207ZM2.3349 36.317C5.69914 36.1509 9.05367 35.9903 12.4133 35.9207L12.3926 34.9209C9.01679 34.9909 5.64891 35.1522 2.28561 35.3182L2.3349 36.317ZM2.04985 33.4046C1.96423 34.1889 1.87775 34.9808 1.81196 35.7764L2.80856 35.8588C2.87309 35.0785 2.95809 34.2995 3.04394 33.5131L2.04985 33.4046ZM2.10466 32.9006C2.08654 33.0685 2.06821 33.2364 2.04985 33.4046L3.04394 33.5131C3.0623 33.345 3.08069 33.1765 3.09888 33.0079L2.10466 32.9006ZM2.88919 32.5434C2.88906 32.5433 2.84893 32.5161 2.79746 32.4942L2.40609 33.4144C2.38417 33.4051 2.3676 33.3959 2.35813 33.3904C2.34991 33.3856 2.34346 33.3813 2.3476 33.384L2.88919 32.5434ZM2.6548 32.4771C2.72366 32.4771 2.78411 32.4929 2.8319 32.5135C2.87062 32.5301 2.89967 32.5501 2.88923 32.5434L2.34757 33.384C2.35509 33.3888 2.4772 33.4771 2.6548 33.4771V32.4771ZM3.30089 32.4812L2.65801 32.4771L2.65159 33.4771L3.29447 33.4812L3.30089 32.4812ZM3.29781 32.4812H3.29768V33.4812H3.29781V32.4812ZM8.07918 32.464C6.49009 32.5022 4.9006 32.4918 3.30111 32.4812L3.29451 33.4812C4.89145 33.4917 6.49627 33.5024 8.10324 33.4637L8.07918 32.464ZM8.07949 33.1866C7.99011 33.1845 7.88906 33.1441 7.81535 33.0595C7.74916 32.9834 7.72612 32.8965 7.72616 32.8249C7.7262 32.7533 7.74931 32.6668 7.81511 32.5911C7.88839 32.5069 7.98905 32.4663 8.0787 32.464L8.10373 33.4637C8.28327 33.4592 8.45138 33.3834 8.56965 33.2474C8.68045 33.12 8.72609 32.9652 8.72616 32.8254C8.72623 32.6856 8.68074 32.5305 8.56958 32.4028C8.45089 32.2665 8.28235 32.191 8.10293 32.1868L8.07949 33.1866ZM3.31718 33.1695C4.91109 33.1589 6.49523 33.1484 8.07919 33.1866L8.10324 32.1868C6.50139 32.1483 4.90191 32.159 3.31054 32.1695L3.31718 33.1695ZM2.65802 33.1737L3.31708 33.1695L3.31064 32.1695L2.65158 32.1738L2.65802 33.1737ZM2.92365 33.0914C2.93126 33.0861 2.89764 33.1108 2.85301 33.131C2.7984 33.1557 2.73096 33.1738 2.6548 33.1738V32.1738C2.47829 32.1738 2.3592 32.2659 2.35719 32.2673L2.92365 33.0914ZM2.72391 33.1757C2.78516 33.1639 2.83437 33.143 2.8701 33.124C2.8871 33.115 2.90056 33.1066 2.90923 33.101C2.9136 33.0982 2.91718 33.0958 2.91952 33.0942C2.92169 33.0927 2.92359 33.0914 2.92376 33.0913L2.35708 32.2673C2.34741 32.274 2.4235 32.2152 2.53465 32.1938L2.72391 33.1757ZM2.47751 29.9078C2.35571 30.8091 2.23292 31.7176 2.13229 32.6299L3.12627 32.7395C3.22533 31.8414 3.34643 30.945 3.4685 30.0417L2.47751 29.9078ZM2.47687 29.9127L2.47686 29.9127L3.46914 30.0367L3.46914 30.0367L2.47687 29.9127ZM2.49817 29.7548L2.47751 29.9078L3.4685 30.0416L3.48917 29.8887L2.49817 29.7548ZM12.4054 29.5108C9.2728 29.4976 6.14028 29.4451 3.01332 29.3221L2.97403 30.3213C6.11577 30.4449 9.26046 30.4976 12.4011 30.5108L12.4054 29.5108ZM12.3866 30.1445C12.309 30.1419 12.2204 30.1048 12.1567 30.0303C12.1004 29.9645 12.0816 29.8913 12.0815 29.8319C12.0814 29.7728 12.1001 29.6947 12.1621 29.6244C12.2327 29.5444 12.3284 29.5104 12.4056 29.5108L12.4009 30.5108C12.5973 30.5117 12.782 30.4333 12.912 30.286C13.0334 30.1483 13.0817 29.9801 13.0815 29.8304C13.081 29.53 12.8635 29.1597 12.4199 29.145L12.3866 30.1445ZM3.03812 29.9751C6.15295 29.972 9.27047 30.0385 12.3863 30.1444L12.4202 29.145C9.29625 29.0388 6.16662 28.972 3.03713 28.9751L3.03812 29.9751ZM3.00188 26.4063C2.83886 27.4023 2.68098 28.4023 2.54232 29.4067L3.53293 29.5434C3.66991 28.5512 3.82623 27.5607 3.98875 26.5679L3.00188 26.4063ZM11.6151 25.8163C8.91583 26.0208 6.21893 26.0626 3.5092 25.9873L3.48143 26.9869C6.21975 27.063 8.9516 27.021 11.6907 26.8135L11.6151 25.8163ZM11.6831 26.4426C11.6057 26.4473 11.4997 26.418 11.4194 26.3302C11.3498 26.2541 11.3325 26.1704 11.3328 26.1143C11.3332 26.0571 11.3511 25.9909 11.4 25.931C11.4554 25.8631 11.5363 25.8223 11.6152 25.8163L11.6906 26.8135C12.1265 26.7805 12.3313 26.4109 12.3328 26.1196C12.3336 25.9711 12.2868 25.797 12.1574 25.6554C12.0173 25.5022 11.821 25.4324 11.6227 25.4444L11.6831 26.4426ZM3.54115 26.6506C6.25838 26.6819 8.97262 26.6067 11.6831 26.4426L11.6227 25.4444C8.93394 25.6072 6.24381 25.6817 3.5527 25.6506L3.54115 26.6506ZM3.71942 22.4441C3.48141 23.6478 3.25583 24.8556 3.05373 26.0684L4.04013 26.2328C4.24013 25.0325 4.46374 23.8351 4.70043 22.6381L3.71942 22.4441ZM15.5969 22.3374C11.8056 22.2728 8.01625 22.178 4.22794 22.0414L4.19191 23.0408C7.98753 23.1776 11.7833 23.2725 15.5798 23.3373L15.5969 22.3374ZM15.5716 22.9603C15.4943 22.9577 15.4067 22.9204 15.3443 22.8469C15.2896 22.7823 15.2717 22.7112 15.2716 22.6542C15.2715 22.5975 15.2893 22.5203 15.3515 22.45C15.4228 22.3695 15.5196 22.3361 15.597 22.3374L15.5797 23.3373C15.7795 23.3407 15.968 23.2624 16.1003 23.1128C16.2235 22.9736 16.2718 22.8034 16.2716 22.6531C16.2712 22.3532 16.0553 21.976 15.6051 21.9609L15.5716 22.9603ZM4.27529 22.6916C8.04126 22.7439 11.8068 22.8369 15.572 22.9603L15.6047 21.9609C11.8342 21.8373 8.06233 21.744 4.28918 21.6917L4.27529 22.6916ZM4.4128 19.2866C4.19799 20.2143 3.98116 21.1506 3.79201 22.0932L4.77246 22.29C4.95823 21.3642 5.17166 20.4423 5.38703 19.5122L4.4128 19.2866ZM4.41147 19.2925L4.41146 19.2925L5.38836 19.5062L5.38837 19.5062L4.41147 19.2925ZM4.55381 18.6763C4.50704 18.8795 4.45997 19.0828 4.4128 19.2866L5.38703 19.5121C5.43417 19.3085 5.4814 19.1045 5.52835 18.9005L4.55381 18.6763ZM5.34665 18.3913C5.34565 18.3906 5.31676 18.3692 5.28061 18.3495L4.80156 19.2272C4.78712 19.2194 4.77633 19.2124 4.77056 19.2085C4.76557 19.2052 4.76174 19.2024 4.76516 19.2048L5.34665 18.3913ZM5.13591 18.3164C5.27211 18.3282 5.36307 18.403 5.34665 18.3913L4.76516 19.2048C4.76996 19.2083 4.88196 19.2981 5.04948 19.3127L5.13591 18.3164ZM12.9085 18.1674C10.3196 18.4696 7.7258 18.5438 5.13643 18.3164L5.04896 19.3126C7.71536 19.5467 10.3779 19.4696 13.0244 19.1606L12.9085 18.1674ZM13.0167 18.8528C12.93 18.8615 12.808 18.8339 12.7144 18.7344C12.6332 18.6482 12.6144 18.5515 12.6149 18.4894C12.6159 18.3744 12.7001 18.1917 12.9085 18.1674L13.0244 19.1606C13.4282 19.1135 13.6126 18.7663 13.6149 18.4977C13.616 18.3587 13.5731 18.1879 13.4426 18.0491C13.2997 17.8973 13.1031 17.839 12.9162 17.8579L13.0167 18.8528ZM5.07438 19.042C7.72799 19.1573 10.3626 19.1207 13.0167 18.8528L12.9162 17.8578C10.3191 18.12 7.73359 18.1566 5.11781 18.0429L5.07438 19.042ZM5.42228 15.1735C5.14251 16.2521 4.8625 17.3373 4.60904 18.4294L5.58315 18.6555C5.83332 17.5776 6.11025 16.504 6.39025 15.4245L5.42228 15.1735ZM19.3403 15.1921C14.8672 15.1851 10.4021 15.0447 5.93363 14.7997L5.8789 15.7983C10.3629 16.044 14.8457 16.185 19.3387 16.1921L19.3403 15.1921ZM19.3341 15.873C19.2468 15.872 19.1481 15.8324 19.0773 15.7503C19.0149 15.6778 18.9948 15.5971 18.9949 15.5333C18.9949 15.4696 19.015 15.3876 19.079 15.3142C19.1517 15.2308 19.2525 15.192 19.3402 15.1921L19.3388 16.1921C19.53 16.1923 19.7085 16.114 19.833 15.9711C19.9487 15.8382 19.9948 15.677 19.9949 15.5337C19.9949 15.3904 19.949 15.2299 19.8348 15.0974C19.7122 14.9552 19.5358 14.8751 19.3449 14.873L19.3341 15.873ZM5.95895 15.4923C10.415 15.7053 14.8747 15.824 19.334 15.873L19.345 14.873C14.896 14.8241 10.4487 14.7058 6.00671 14.4934L5.95895 15.4923ZM7.18886 9.00131C6.58203 10.9446 6.01437 12.8987 5.49914 14.8662L6.46652 15.1195C6.97727 13.1691 7.54051 11.2301 8.14341 9.29939L7.18886 9.00131ZM15.4492 9.0391C12.86 8.7985 10.2674 8.67949 7.67174 8.65038L7.66053 9.65032C10.2333 9.67917 12.7984 9.79708 15.3566 10.0348L15.4492 9.0391ZM15.3537 9.73627C15.1362 9.71476 15.0471 9.52298 15.0467 9.40345C15.0464 9.33985 15.0661 9.24455 15.1454 9.15949C15.2368 9.06145 15.3578 9.03071 15.4487 9.03906L15.3571 10.0349C15.5444 10.0521 15.7375 9.99083 15.8767 9.84149C16.0039 9.7051 16.0472 9.53766 16.0467 9.39964C16.0457 9.13126 15.8602 8.78149 15.4521 8.74113L15.3537 9.73627ZM7.74778 9.39625C10.2906 9.37473 12.8224 9.48678 15.3539 9.73629L15.4519 8.74111C12.8847 8.48807 10.3173 8.37447 7.73932 8.39628L7.74778 9.39625ZM8.28738 5.65526C7.93643 6.68079 7.59243 7.71066 7.2666 8.74619L8.2205 9.04633C8.54292 8.02162 8.88404 7.00026 9.23351 5.97905L8.28738 5.65526ZM16.5569 6.05205C13.9781 5.70614 11.3856 5.46439 8.7886 5.31795L8.7323 6.31636C11.3049 6.46143 13.8718 6.70083 16.4239 7.04317L16.5569 6.05205ZM16.4888 6.77978C16.397 6.76595 16.2782 6.70542 16.2093 6.57684C16.1496 6.46526 16.1583 6.36014 16.1765 6.29698C16.2099 6.18058 16.3426 6.02323 16.5571 6.05207L16.4238 7.04315C16.8097 7.09506 17.0667 6.81981 17.1376 6.57313C17.1744 6.44484 17.1802 6.27148 17.0908 6.10465C16.9924 5.92082 16.8174 5.81801 16.6378 5.79095L16.4888 6.77978ZM8.82594 6.05732C11.3977 6.16102 13.944 6.39464 16.4885 6.77974L16.6381 5.791C14.055 5.40005 11.472 5.16321 8.86623 5.05813L8.82594 6.05732ZM9.73964 1.63079C9.2599 2.87981 8.80761 4.13553 8.3734 5.39473L9.31878 5.72072C9.75004 4.47004 10.1984 3.22544 10.6732 1.98934L9.73964 1.63079ZM9.73229 1.96719C9.73466 1.97424 9.71788 1.92903 9.71064 1.87306C9.70184 1.80498 9.70637 1.72847 9.73238 1.65097L10.6804 1.96915C10.7385 1.79597 10.6809 1.65085 10.6802 1.64871L9.73229 1.96719ZM9.73224 1.64633C9.6738 1.81994 9.73175 1.96559 9.73227 1.96714L10.6802 1.64877C10.6778 1.64141 10.6946 1.68673 10.7018 1.74269C10.7107 1.81091 10.7061 1.88764 10.68 1.96535L9.73224 1.64633ZM35.9128 7.29564C27.323 5.57986 18.8037 3.55976 10.3338 1.32242L10.0784 2.28926C18.5646 4.53089 27.104 6.55586 35.717 8.27626L35.9128 7.29564ZM48.8414 9.6647C44.5193 8.94759 40.2098 8.1537 35.9128 7.29563L35.717 8.27627C40.0237 9.13629 44.3439 9.93217 48.6777 10.6512L48.8414 9.6647ZM50.1152 9.80059C49.4903 9.74064 49.032 9.69634 48.8414 9.6647L48.6777 10.6512C48.9123 10.6901 49.4199 10.7385 50.0198 10.796L50.1152 9.80059ZM55.6153 10.8308C55.486 10.7011 55.3125 10.6194 55.1725 10.5645C55.0186 10.5042 54.8376 10.4511 54.6438 10.4036C54.2551 10.3084 53.7707 10.2247 53.2557 10.1508C52.2238 10.0027 51.0201 9.88738 50.1152 9.80059L50.0198 10.796C50.9297 10.8833 52.1092 10.9965 53.1137 11.1407C53.6169 11.2129 54.064 11.2911 54.4057 11.3749C54.5771 11.4169 54.7109 11.4576 54.8074 11.4955C54.9177 11.5387 54.9298 11.5595 54.9073 11.537L55.6153 10.8308ZM54.5523 16.5737C55.0968 15.867 55.8214 14.9334 56.1883 13.9583C56.3749 13.4627 56.4815 12.9266 56.41 12.3818C56.3373 11.8276 56.0848 11.3015 55.6154 10.8308L54.9073 11.5369C55.2312 11.8618 55.3761 12.1889 55.4185 12.5119C55.4621 12.8444 55.4016 13.2096 55.2524 13.6061C54.9479 14.4151 54.3266 15.2282 53.7602 15.9634L54.5523 16.5737ZM54.0466 17.2486C54.1845 17.0513 54.3563 16.8281 54.5523 16.5737L53.7602 15.9634C53.5683 16.2124 53.3809 16.4555 53.2269 16.6758L54.0466 17.2486ZM36.9519 55.8949C40.0516 42.071 45.9134 28.8849 54.0465 17.2487L53.2269 16.6758C45.0204 28.4169 39.1048 41.723 35.9761 55.6761L36.9519 55.8949ZM36.7668 57.2954C36.8247 56.7234 36.8746 56.2397 36.9519 55.8949L35.9761 55.6762C35.8827 56.0929 35.8275 56.646 35.7719 57.1946L36.7668 57.2954ZM36.7693 57.2451V57.245H35.7693V57.2451H36.7693ZM35.9329 60.7148C36.2443 60.2874 36.4159 59.6921 36.5281 59.114C36.6428 58.5228 36.7083 57.8724 36.7668 57.2955L35.7719 57.1946C35.7124 57.7814 35.6509 58.3849 35.5464 58.9236C35.4393 59.4754 35.2996 59.8859 35.1247 60.1259L35.9329 60.7148ZM30.5617 62.267C32.3187 62.4285 34.5112 62.6655 35.9328 60.7148L35.1247 60.1259C34.086 61.5511 32.528 61.4435 30.6533 61.2712L30.5617 62.267ZM29.1446 62.1716C29.5933 62.1782 30.0636 62.2212 30.5617 62.267L30.6533 61.2712C30.1628 61.2261 29.6533 61.179 29.1594 61.1717L29.1446 62.1716ZM16.1655 62.6659C20.4771 62.2697 24.8145 62.1074 29.1446 62.1716L29.1594 61.1717C24.7945 61.107 20.4217 61.2706 16.074 61.6701L16.1655 62.6659ZM12.47 63.3598C13.897 63.0424 15.1927 62.7552 16.1655 62.6659L16.0741 61.6701C15.0231 61.7665 13.6554 62.0717 12.2529 62.3836L12.47 63.3598ZM12.4863 63.3559L12.4864 63.3558L12.2365 62.3876L12.2364 62.3876L12.4863 63.3559ZM12.547 63.336L12.5471 63.336L12.1757 62.4075L12.1757 62.4075L12.547 63.336ZM9.54175 63.9699C10.5121 63.7953 11.516 63.572 12.4699 63.3598L12.2528 62.3837C11.2951 62.5967 10.3115 62.8154 9.36469 62.9857L9.54175 63.9699ZM9.55893 63.7073C9.51575 63.8317 9.41269 63.8868 9.33918 63.8995C9.26826 63.9117 9.14464 63.8968 9.05677 63.7825L9.84967 63.1731C9.66709 62.9355 9.38679 62.8766 9.16955 62.914C8.94971 62.9518 8.71068 63.1014 8.61419 63.3794L9.55893 63.7073ZM64.3274 16.9029C52.9249 32.5629 46.4899 49.269 42.9053 68.1381L43.8878 68.3247C47.4499 49.5736 53.8353 33.0114 65.1358 17.4915L64.3274 16.9029ZM65.07 16.5346C64.8131 16.5298 64.5254 16.6306 64.3272 16.9031L65.136 17.4912C65.1304 17.4989 65.1158 17.5136 65.0926 17.5242C65.0715 17.5338 65.0558 17.5345 65.0511 17.5344L65.07 16.5346ZM56.8083 14.1338C59.4697 15.3256 62.1746 16.4242 64.8757 17.4991L65.2454 16.57C62.5472 15.4963 59.8585 14.404 57.217 13.2211L56.8083 14.1338ZM54.0519 19.0641C55.2772 17.429 56.56 15.7195 57.4608 13.8992L56.5645 13.4557C55.7119 15.1787 54.4884 16.814 53.2516 18.4645L54.0519 19.0641ZM51.6905 22.41C52.3742 21.3037 53.1993 20.202 54.0519 19.0641L53.2516 18.4645C52.4047 19.5948 51.5513 20.733 50.8398 21.8843L51.6905 22.41ZM45.444 34.029C47.2949 30.0428 49.3792 26.1511 51.6906 22.41L50.8398 21.8844C48.5068 25.6605 46.4039 29.5872 44.537 33.6078L45.444 34.029ZM36.6163 62.6197C38.3354 52.7344 41.2133 43.1411 45.444 34.029L44.537 33.6078C40.2661 42.8066 37.3637 52.4848 35.6311 62.4484L36.6163 62.6197ZM35.6363 63.3772C35.8773 63.3926 36.0968 63.2989 36.2515 63.1845C36.4057 63.0706 36.5713 62.8795 36.6164 62.6195L35.6311 62.4486C35.6375 62.4115 35.6508 62.3902 35.6554 62.3837C35.66 62.377 35.6614 62.3772 35.6572 62.3803C35.6532 62.3833 35.6506 62.384 35.6526 62.3833C35.6539 62.3829 35.6702 62.3773 35.7002 62.3792L35.6363 63.3772ZM9.60608 64.3203C18.2399 63.159 26.8804 62.8202 35.6366 63.3772L35.7 62.3792C26.8757 61.8179 18.1693 62.1595 9.47278 63.3292L9.60608 64.3203ZM15.0365 69.1951C12.7512 69.1718 11.7241 68.7108 11.1474 67.9421C10.8447 67.5388 10.6327 67.0089 10.463 66.3057C10.2929 65.6003 10.1744 64.7627 10.0347 63.756L9.04418 63.8935C9.18207 64.8869 9.30685 65.7772 9.49091 66.5402C9.67546 67.3052 9.92861 67.984 10.3475 68.5423C11.2138 69.6969 12.6551 70.1709 15.0263 70.1951L15.0365 69.1951ZM20.3781 68.7881C18.5624 69.0024 16.7733 69.2128 15.0365 69.1951L15.0263 70.1951C16.8381 70.2135 18.6918 69.9941 20.4953 69.7812L20.3781 68.7881ZM23.6551 68.4521C22.5699 68.5294 21.4693 68.6594 20.3781 68.7881L20.4953 69.7812C21.5907 69.652 22.6681 69.5249 23.7262 69.4496L23.6551 68.4521ZM43.2216 67.6988C36.6941 67.7655 30.1711 67.9881 23.6551 68.4521L23.7262 69.4496C30.2178 68.9873 36.72 68.7653 43.2318 68.6987L43.2216 67.6988ZM43.5589 67.7585C43.4912 67.7352 43.3731 67.6974 43.2223 67.6988L43.2311 68.6987C43.2265 68.6988 43.2222 68.6985 43.2183 68.6981C43.2146 68.6977 43.2121 68.6972 43.2113 68.697C43.2106 68.6968 43.2117 68.6971 43.2154 68.6982C43.2193 68.6993 43.225 68.7011 43.2342 68.7043L43.5589 67.7585Z" fill="#5699FB"/>
<path d="M12.855 11.2804C10.618 11.6626 8.41057 11.5928 6.19119 11.0041C5.99973 10.9534 5.91682 11.3899 6.11007 11.4428C8.3548 12.0573 10.5888 12.1765 12.8547 11.7356C13.0458 11.6987 13.0509 11.247 12.855 11.2804Z" fill="#0052CC"/>
</svg>
