<svg width="26" height="25" viewBox="0 0 26 25" fill="none" xmlns="http://www.w3.org/2000/svg">
<path fill-rule="evenodd" clip-rule="evenodd" d="M6.44195 24.1009C5.99337 24.1034 5.5878 23.8507 5.41579 23.4615C5.24377 23.0724 5.3395 22.6241 5.658 22.3274L8.41836 19.7346C8.87994 19.2999 9.52281 19.0796 10.1739 19.133L17.2184 19.7346C17.5458 19.7628 17.8696 19.6526 18.1017 19.4338L22.8826 14.943C23.1156 14.725 23.2329 14.4208 23.2028 14.1132L22.728 9.21793L18.9298 12.7857C18.5176 13.1752 17.9577 13.3953 17.373 13.3976C16.7844 13.3981 16.22 13.1778 15.8051 12.7857L12.6803 9.85059C12.2657 9.46152 12.0327 8.93356 12.0327 8.38303C12.0327 7.83249 12.2657 7.30454 12.6803 6.91547L16.6884 3.15064L12.062 2.27944C11.7018 2.21169 11.3293 2.31666 11.0683 2.55947L5.61384 7.68296C5.3809 7.90095 5.26352 8.20511 5.29364 8.51267L5.93404 15.1296C5.9909 15.7413 5.75639 16.3451 5.29364 16.7787L2.53328 19.3716C2.0952 19.724 1.44217 19.7003 1.03434 19.3172C0.626501 18.9341 0.601278 18.3207 0.97644 17.9092L3.7368 15.3163L3.09639 8.69936C3.00942 7.78018 3.36131 6.87215 4.057 6.22058L9.51146 1.0971C10.2948 0.361526 11.4176 0.0423813 12.5037 0.246638L18.1348 1.28378C18.7337 1.39563 19.2185 1.80795 19.3963 2.35666C19.5741 2.90538 19.416 3.50147 18.985 3.90775L14.2482 8.3571L17.373 11.2922L22.0104 6.93621C22.4659 6.51197 23.1413 6.37297 23.7439 6.57943C24.3466 6.78588 24.7681 7.30065 24.8259 7.90076L25.4111 13.8954C25.4981 14.8146 25.1462 15.7226 24.4505 16.3742L19.6696 20.865C18.9759 21.5185 18.0092 21.8491 17.0307 21.7674L9.98624 21.1658L7.22589 23.7587C7.02496 23.9681 6.74192 24.0917 6.44195 24.1009Z" fill="white"/>
</svg>
