<svg width="31" height="29" viewBox="0 0 31 29" fill="none" xmlns="http://www.w3.org/2000/svg">
<path fill-rule="evenodd" clip-rule="evenodd" d="M30.3655 8.90384L25.5187 1.23995C25.0297 0.467 24.1715 -0.00181869 23.2489 5.30295e-06H7.52033C6.5977 -0.00181869 5.73949 0.467 5.2505 1.23995L0.403746 8.90384C-0.212954 9.882 -0.115646 11.1424 0.64408 12.0169L14.3699 27.8459C14.6235 28.139 14.9943 28.3077 15.3846 28.3077C15.7749 28.3077 16.1457 28.139 16.3994 27.8459L30.1251 12.0169C30.8849 11.1424 30.9822 9.882 30.3655 8.90384ZM16.5612 25.7318C16.2717 25.9627 15.8991 26.0723 15.526 26.0364C15.1529 26.0005 14.8099 25.822 14.5728 25.5404L8.29714 18.0901C7.80257 17.505 7.89096 16.642 8.49458 16.1626C9.0982 15.6832 9.98846 15.7689 10.483 16.354L16.7587 23.8043C17.0059 24.0865 17.1244 24.4538 17.0872 24.8223C17.05 25.1907 16.8602 25.5288 16.5612 25.7592V25.7318Z" fill="#FF9051"/>
</svg>
