<svg width="65" height="67" viewBox="0 0 65 67" fill="none" xmlns="http://www.w3.org/2000/svg">
<path fill-rule="evenodd" clip-rule="evenodd" d="M63.4393 0H1.56068C0.699185 0 0 0.695031 0 1.55141V65.1591C0 66.0155 0.699185 66.7105 1.56068 66.7105H63.4393C64.3008 66.7105 65 66.0155 65 65.1591V1.55141C65 0.695031 64.3016 0 63.4393 0ZM61.8786 63.6077H3.12136V14.2869H61.8786V63.6077ZM3.12136 11.1841H61.8786V3.10282H3.12136V11.1841Z" fill="#E4E9EA"/>
<path d="M53.7385 9.40787H57.4459C58.3111 9.40787 59.0132 8.64155 59.0132 7.69734C59.0132 6.75313 58.3111 5.98682 57.4459 5.98682H53.7385C52.8733 5.98682 52.1711 6.75313 52.1711 7.69734C52.1711 8.64155 52.8725 9.40787 53.7385 9.40787Z" fill="#EA075F"/>
<path d="M45.1029 9.17988H48.7903C49.651 9.17988 50.3495 8.49154 50.3495 7.64341C50.3495 6.79527 49.651 6.10693 48.7903 6.10693H45.1029C44.2422 6.10693 43.5437 6.79527 43.5437 7.64341C43.5437 8.49154 44.2422 9.17988 45.1029 9.17988Z" fill="#E4E9EA"/>
<path d="M36.2779 9.17988H39.9654C40.826 9.17988 41.5245 8.49154 41.5245 7.64341C41.5245 6.79527 40.826 6.10693 39.9654 6.10693H36.2779C35.4173 6.10693 34.7188 6.79527 34.7188 7.64341C34.7188 8.49154 35.4173 9.17988 36.2779 9.17988Z" fill="#E4E9EA"/>
<path fill-rule="evenodd" clip-rule="evenodd" d="M20.3574 57.2548H11.8529C10.9922 57.2548 10.2937 56.5665 10.2937 55.7184V47.4598C10.2937 46.6117 10.9922 45.9233 11.8529 45.9233H20.3574C21.218 45.9233 21.9165 46.6117 21.9165 47.4598V55.7184C21.9165 56.5665 21.218 57.2548 20.3574 57.2548ZM18.7982 48.9963H13.412V54.1819H18.7982V48.9963Z" fill="#E4E9EA"/>
<path fill-rule="evenodd" clip-rule="evenodd" d="M36.8806 57.3024H28.1194C27.232 57.3024 26.5132 56.6212 26.5132 55.7819V39.1518C26.5132 38.3125 27.2328 37.6313 28.1194 37.6313H36.8806C37.7673 37.6313 38.4869 38.3125 38.4869 39.1518V55.7819C38.4869 56.6212 37.7673 57.3024 36.8806 57.3024ZM35.2744 40.6723H29.7257V54.2615H35.2744V40.6723Z" fill="#FFBD1F"/>
<path fill-rule="evenodd" clip-rule="evenodd" d="M53.1306 57.3025H44.3694C43.482 57.3025 42.7632 56.6034 42.7632 55.742V25.5077C42.7632 24.6464 43.4828 23.9473 44.3694 23.9473H53.1306C54.0173 23.9473 54.7369 24.6464 54.7369 25.5077V55.742C54.7369 56.6034 54.0173 57.3025 53.1306 57.3025ZM51.5244 27.0682H45.9757V54.1816H51.5244V27.0682Z" fill="#15EA84"/>
</svg>
