<svg width="24" height="20" viewBox="0 0 24 20" fill="none" xmlns="http://www.w3.org/2000/svg">
<path d="M23 1.01152C22.0424 1.687 20.9821 2.20363 19.86 2.54152C19.2577 1.84903 18.4573 1.35821 17.567 1.13545C16.6767 0.912681 15.7395 0.968716 14.8821 1.29597C14.0247 1.62323 13.2884 2.20592 12.773 2.96524C12.2575 3.72455 11.9877 4.62386 12 5.54152V6.54152C10.2426 6.58709 8.50127 6.19733 6.93101 5.40697C5.36074 4.6166 4.01032 3.45016 3 2.01152C3 2.01152 -1 11.0115 8 15.0115C5.94053 16.4095 3.48716 17.1104 1 17.0115C10 22.0115 21 17.0115 21 5.51152C20.9991 5.23297 20.9723 4.95512 20.92 4.68152C21.9406 3.67501 22.6608 2.40423 23 1.01152V1.01152Z" stroke="black" stroke-width="2" stroke-linecap="round" stroke-linejoin="round"/>
</svg>
