<svg width="73" height="73" viewBox="0 0 73 73" fill="none" xmlns="http://www.w3.org/2000/svg">
<circle cx="36.5" cy="36.5" r="35" stroke="#E6EEF0" stroke-width="3"/>
<path fill-rule="evenodd" clip-rule="evenodd" d="M54.1818 24.1719C53.8297 23.9653 53.3943 23.9601 53.0373 24.1581L44.3764 28.9583V28.7743C44.3732 26.1457 42.2379 24.0158 39.6034 24.0132H24.9442C22.3092 24.0158 20.1737 26.1464 20.1711 28.7755V44.5514C20.1737 47.1805 22.3092 49.3111 24.9442 49.3137H39.6034C42.2384 49.3111 44.3739 47.1805 44.3764 44.5514V44.3686L53.0373 49.1699C53.3945 49.3681 53.8301 49.3627 54.1823 49.1558C54.5345 48.9489 54.7505 48.5714 54.7501 48.1636V25.1633C54.7501 24.7557 54.5339 24.3786 54.1818 24.1719ZM42.0711 44.5514C42.0699 45.9107 40.9657 47.0123 39.6034 47.0136H24.9442C23.5818 47.0123 22.4777 45.9107 22.4764 44.5514V28.7755C22.4777 27.4162 23.5818 26.3145 24.9442 26.3133H39.6034C40.9657 26.3145 42.0699 27.4162 42.0711 28.7755V44.5514ZM44.3764 41.735L52.4448 46.2086V27.1183L44.3764 31.5907V41.735Z" fill="#8F40FF"/>
</svg>
