<svg width="103" height="76" viewBox="0 0 103 76" fill="none" xmlns="http://www.w3.org/2000/svg">
<g opacity="0.410937">
<mask id="mask0_0_9896" style="mask-type:alpha" maskUnits="userSpaceOnUse" x="0" y="1" width="102" height="74">
<path fill-rule="evenodd" clip-rule="evenodd" d="M101.196 51.4673L14.263 74.761L0.804376 24.5329L87.7377 1.23914L101.196 51.4673Z" fill="white"/>
</mask>
<g mask="url(#mask0_0_9896)">
<path fill-rule="evenodd" clip-rule="evenodd" d="M13.925 60.1955C13.937 60.1658 13.9535 60.134 13.9821 60.0982C14.0512 60.067 14.1117 60.0289 14.1693 59.9891C14.1542 60.0348 14.1383 60.0786 14.1287 60.1346C14.2113 60.0123 14.2008 60.1817 14.2251 60.309C14.1607 60.3371 14.0987 60.3752 14.0381 60.4175C14.0369 60.4149 14.0362 60.413 14.0352 60.4107C14.0497 60.4035 14.0633 60.3935 14.0785 60.3878C14.0621 60.393 14.0448 60.3938 14.0273 60.3926C13.9955 60.32 13.9903 60.2697 14.101 60.2934C13.9967 60.0105 14.0032 60.2818 13.9354 60.3475C13.922 60.3313 13.9123 60.3124 13.909 60.2881C13.9141 60.2577 13.919 60.2282 13.925 60.1955ZM14.9385 59.4312C14.9514 59.5114 14.9637 59.5914 14.9772 59.6765C14.9369 59.6381 14.9057 59.5868 14.8843 59.5004C14.865 59.4972 14.8473 59.504 14.828 59.5033C14.8653 59.4781 14.9017 59.4545 14.9385 59.4312ZM12.8204 49.0181C12.8527 49.1157 12.8897 49.2209 12.9341 49.3432C12.8961 49.4639 12.7955 49.2581 12.6856 49.0173C12.7371 49.0095 12.7819 49.0098 12.8204 49.0181ZM7.84178 30.0752C7.78469 30.0967 7.73204 30.1182 7.67192 30.1402C7.64417 30.1383 7.61744 30.1451 7.5961 30.1671C7.49854 30.2018 7.3996 30.2373 7.29544 30.2737C7.08934 29.8144 6.98801 29.3874 6.89038 28.9282C6.8873 28.8894 6.87099 28.8187 6.8497 28.7392C6.84775 28.73 6.84591 28.7212 6.84382 28.7124C6.89223 28.7239 6.94077 28.735 6.98804 28.7512C7.09374 29.0938 7.19668 29.4536 7.29722 29.7545L7.42606 29.6087C7.28252 29.2793 7.23846 29.0562 7.19528 28.8345C7.2858 28.8751 7.37721 28.9191 7.46958 28.9628C7.56461 29.4005 7.60523 29.7046 7.48411 29.5986C7.70926 29.9062 7.69751 29.8242 7.78039 29.7728C7.80333 29.8965 7.8226 29.9909 7.84178 30.0752ZM6.76218 30.7183C6.71589 30.4691 6.78961 30.4893 6.90166 30.6692C6.85535 30.6849 6.80871 30.7021 6.76218 30.7183ZM6.36705 29.099C6.35915 29.0784 6.35156 29.054 6.34366 29.0321C6.3681 29.0176 6.39191 29.0032 6.41796 28.9882L6.40457 29.0797L6.36705 29.099ZM5.94045 29.2198C6.01649 29.162 6.10261 29.1024 6.19967 29.0402C6.20588 29.0583 6.20904 29.0713 6.21589 29.0905L5.94045 29.2198ZM11.0265 28.0664C11.0337 28.102 11.0386 28.1306 11.0467 28.1684C11.0384 28.6448 10.9297 28.4149 10.803 28.1104L10.8158 28.0687C10.8894 28.0681 10.9582 28.0675 11.0265 28.0664ZM51.6285 12.9272C52.0302 13.2655 52.4536 12.6494 52.6858 13.1729C53.0065 13.1938 53.2704 13.1494 53.505 13.0699C53.4443 13.1471 53.3869 13.2281 53.3314 13.312C52.6608 13.2996 51.9399 13.3006 51.1823 13.3231C51.3509 13.2298 51.5032 13.104 51.6285 12.9272ZM69.3947 7.51069C69.4255 7.58752 69.4527 7.65814 69.4775 7.72396C69.3706 7.71653 69.2628 7.70936 69.1533 7.70336C69.128 7.30163 69.2501 7.29739 69.3947 7.51069ZM86.5207 8.83766C86.3433 9 86.2596 8.95221 86.1938 8.89203C86.2967 8.85563 86.399 8.8181 86.5003 8.77751L86.5207 8.83766ZM79.0565 12.7944C79.232 12.9252 79.4945 13.0077 79.4927 13.2344C79.0759 13.5428 78.6784 13.6855 78.2808 13.7718C78.2743 13.7417 78.2687 13.7127 78.2616 13.6821C78.3057 13.4181 78.3479 13.1647 78.3887 12.9183C78.5034 13.0116 78.5542 12.9489 78.5988 12.8504C78.7502 12.8227 78.9037 12.7949 79.0565 12.7944ZM82.7011 33.4038C82.7124 33.4404 82.7243 33.4702 82.7366 33.4857L82.7175 33.4081L82.8122 33.4327C82.8343 33.5047 82.8564 33.5756 82.8825 33.6635C82.9082 33.7025 82.9302 33.7292 82.9502 33.7472C82.9659 34.1271 82.8697 34.1852 82.832 34.3061L82.7881 34.1201C82.8457 35.2788 82.719 34.3868 82.5803 34.9155L82.4066 33.7795C82.4327 33.8612 82.4637 33.9498 82.5038 34.05C82.4118 33.7131 82.3551 33.4781 82.3184 33.3033L82.7011 33.4038ZM82.1943 34.4162C82.1562 34.252 82.0026 33.7175 81.9674 33.4245L82.0476 35.1842C82.1572 35.9725 82.2635 35.9238 82.3917 36.3507C82.411 36.4406 82.421 36.5091 82.4265 36.5645C82.3993 36.5601 82.3686 36.5778 82.3405 36.662C82.3201 36.6349 82.2976 36.5976 82.2735 36.5505L82.0844 35.5546C82.0344 35.456 82.013 35.4409 82.0071 35.4718C81.9844 35.3615 81.9546 35.2462 81.8994 35.1168L82.0999 36.2377C82.0482 36.0527 81.8932 35.5559 81.8444 35.2791L81.9165 35.9041C81.7555 35.1715 81.7478 34.4396 81.7034 34.0163C81.502 33.8795 81.6367 34.6375 81.5613 34.8933C81.5199 34.7414 81.4765 34.5923 81.4307 34.4486C81.5227 34.3748 81.4527 33.8365 81.3446 33.1767C81.4118 33.1466 81.4823 33.1211 81.5483 33.0891L82.1209 33.201C82.141 33.3446 82.1681 33.4948 82.2277 33.6836C82.0019 33.2659 82.3072 34.5257 82.1943 34.4162ZM82.1667 36.3212L82.2003 36.634C82.192 36.6933 82.1681 36.7123 82.1371 36.7155C82.0738 36.307 81.9976 35.903 81.907 35.5165C81.9659 35.6597 82.0271 35.8258 82.0835 35.9799C82.1208 36.1181 82.1479 36.2294 82.1667 36.3212ZM82.328 42.1058C82.2646 42.1322 82.2021 42.1595 82.1374 42.184C82.106 42.03 82.0722 41.8774 82.0373 41.7262C82.0827 41.7536 82.0863 41.6618 82.0635 41.4923L82.234 41.5748L82.3481 41.4888C82.3481 41.4888 82.3429 41.0458 82.3096 40.3568C82.3809 40.5838 82.4548 40.783 82.5328 40.9162C82.4587 40.6372 82.4077 40.3837 82.3625 40.1414L82.2998 40.1665C82.2905 39.9975 82.2803 39.8175 82.2674 39.6257C82.2774 39.6803 82.2886 39.7338 82.2982 39.7897C82.2998 39.8269 82.3136 39.8956 82.3316 39.9733C82.342 40.0305 82.3521 40.0843 82.3625 40.1414L82.3749 40.1362C82.4122 40.2664 82.4602 40.4216 82.5323 40.6341C82.5242 40.3302 82.7685 40.942 82.8846 41.1491C82.6909 41.4195 82.5243 41.803 82.328 42.1058ZM82.9419 46.4241C83.0164 46.3158 83.1098 46.2693 83.2352 46.3181C83.1292 46.344 83.0314 46.3795 82.9419 46.4241ZM82.7854 47.8985C82.8307 47.8372 82.9306 47.805 82.9686 47.7409C82.863 47.5079 82.6813 47.9775 82.3072 47.9155C82.3356 47.886 82.3621 47.8524 82.3872 47.816L82.776 47.457L82.5924 47.388C82.6365 47.267 82.6772 47.141 82.7171 47.0191L82.8254 46.9421C82.8254 46.9421 82.8253 46.9339 82.8253 46.9214L83.294 46.5005C83.1929 47.2884 83.1066 47.8167 82.7854 47.8985ZM82.7132 48.1562C82.7048 48.1189 82.709 48.0901 82.7204 48.066L83.0238 48.041C82.9618 48.1136 82.8918 48.171 82.7132 48.1562ZM82.6818 50.0292C82.6099 50.0383 82.5381 50.0478 82.4655 50.0575C82.3519 49.7296 82.1106 49.7477 82.1723 49.1833C81.9909 49.1827 81.8561 49.3018 81.9733 49.7999C81.9502 49.8042 81.9266 49.8049 81.904 49.8109C81.819 49.6983 81.7414 49.4384 81.6565 49.168C81.6863 49.1357 81.7226 49.1087 81.7518 49.0761C81.7161 49.0898 81.6769 49.1014 81.6394 49.1141C81.5958 48.9768 81.5499 48.8409 81.4997 48.7252C81.7087 48.6347 81.9581 48.5375 82.2077 48.4245C82.1903 48.5938 82.1582 48.7338 82.2568 48.7336L82.2278 48.4157C82.5757 48.2572 82.9148 48.0627 83.1466 47.8017L83.2976 47.7883C83.2053 48.7249 82.3239 48.5708 82.6818 50.0292ZM84.9971 52.7642L84.9146 52.3938C84.9996 52.3668 85.0831 52.3369 85.1667 52.3074C85.2082 52.545 85.2432 52.7559 84.9971 52.7642ZM85.714 53.8702C85.7934 53.9457 85.875 53.9722 85.9545 53.9707C85.96 54.0239 85.9841 54.0776 86.021 54.1287C85.9177 54.1656 85.8143 54.2017 85.7088 54.238C85.6924 54.125 85.6806 54.0045 85.714 53.8702ZM85.1582 54.7323C85.3195 54.4501 85.5106 54.5659 85.7023 54.3678L85.7792 54.5007C85.5858 54.5668 85.3809 54.6419 85.1582 54.7323ZM11.3797 28.3739C11.4153 28.4838 11.4472 28.5645 11.4776 28.6371C11.4363 28.6679 11.3949 28.6996 11.3539 28.7299C11.3632 28.6168 11.3746 28.5052 11.3797 28.3739ZM11.515 28.249C11.4928 28.1662 11.461 28.0653 11.4258 27.9582C11.5365 27.9866 11.6369 28.0262 11.7315 28.0757C11.6596 28.1336 11.5897 28.1902 11.515 28.249ZM60.1863 11.6465C60.1309 11.6781 60.1054 11.7169 60.0942 11.759C60.0909 11.7469 60.0854 11.7366 60.0834 11.7241C60.1159 11.691 60.149 11.6691 60.1813 11.6381C60.1825 11.6412 60.185 11.643 60.1863 11.6465ZM60.7487 11.3246L60.7933 12.059C60.8518 11.553 61.0845 11.6428 61.3391 11.7195C61.2991 11.8323 61.2359 11.927 61.1588 12.0079C61.114 12.0359 61.0682 12.0631 61.0237 12.092C60.9444 12.1119 60.8646 12.1303 60.7837 12.1378C60.6421 12.0476 60.4601 11.9874 60.3548 11.8696C60.3839 11.7844 60.3908 11.6922 60.3919 11.6018C60.5097 11.4939 60.6283 11.4015 60.7487 11.3246ZM76.915 55.3596C77.1102 55.5161 77.3512 55.6585 77.6052 55.8573L77.607 55.9974L77.6178 56.0125C77.4 56.0552 77.2063 56.0494 77.06 55.7858C77.0057 55.7847 76.956 55.7884 76.9039 55.7889C76.9037 55.6282 76.903 55.4776 76.915 55.3596ZM74.9907 56.2958C74.9685 55.9774 75.0555 55.8603 75.1876 55.8225C75.2526 55.9587 75.2744 56.0702 75.2732 56.1712C75.177 56.2112 75.0828 56.2524 74.9907 56.2958ZM74.0349 56.5519C74.0175 56.3632 74.055 56.2053 74.2217 56.1215C74.2328 56.1273 74.244 56.1347 74.2553 56.1425L74.3301 56.3874L74.3592 56.2369C74.3789 56.2599 74.3983 56.2841 74.4166 56.3113C74.4129 56.2377 74.3968 56.1684 74.386 56.0974L74.3982 56.034L74.6442 56.2769C74.4393 56.3663 74.2385 56.4592 74.0349 56.5519ZM65.6885 58.5906C65.6515 58.5572 65.6209 58.5318 65.5897 58.5052C65.7481 58.4401 65.8746 58.3877 65.9432 58.3785C66.0049 58.4365 66.0254 58.4919 66.0232 58.5459L65.8519 58.5931C65.8633 58.6174 65.8688 58.6378 65.8781 58.661C65.7279 58.7016 65.5607 58.73 65.4 58.7373C65.4578 58.5864 65.5467 58.5172 65.6885 58.5906ZM55.5314 13.2781L55.6171 13.3056C55.5496 13.4045 55.4271 13.4486 55.3008 13.4905C55.1959 13.4778 55.0849 13.4651 54.9735 13.4524C55.1721 13.424 55.3628 13.3733 55.5314 13.2781ZM78.4366 49.7531C78.449 49.709 78.4619 49.6664 78.474 49.6224L78.6134 49.7095C78.5544 49.7237 78.495 49.7379 78.4366 49.7531ZM68.1297 57.7593L68.1116 58.0934C68.0574 58.0121 68.0134 57.9284 67.9745 57.8442C68.0267 57.8159 68.0773 57.7868 68.1297 57.7593ZM70.962 52.7308L71.084 52.3453C71.373 52.3023 71.7352 52.0976 72.1261 52.0534L72.1587 52.0989C71.7959 52.3231 71.4155 52.5433 70.962 52.7308ZM72.2474 49.881L72.3221 49.6661C72.3291 49.6657 72.335 49.6658 72.342 49.6653C72.336 49.6536 72.3383 49.6417 72.3347 49.6302L72.4086 49.4172C72.4754 49.4126 72.5125 49.5778 72.5469 49.7595C72.4523 49.7995 72.352 49.84 72.2474 49.881ZM70.7798 52.0506C70.8838 52.019 70.9901 51.9897 71.1039 51.9857L71.0812 52.1331C71.0896 52.1342 71.0994 52.1294 71.1081 52.1296C71.0233 52.3025 70.9028 52.2145 70.7798 52.0506ZM70.2188 52.3843C70.2051 52.3409 70.1877 52.2976 70.167 52.2548C70.2682 52.2525 70.3684 52.2404 70.4678 52.2188C70.4399 52.3108 70.3664 52.3742 70.2188 52.3843ZM69.8273 52.3245C69.7727 52.4393 69.6868 52.5468 69.5643 52.6074C69.5708 52.5817 69.5772 52.5572 69.5836 52.5315C69.6564 52.4603 69.7262 52.3882 69.794 52.3162C69.8052 52.3187 69.816 52.3217 69.8273 52.3245ZM75.5002 50.6298C75.5799 50.5391 75.5432 50.4387 75.4919 50.3287C75.5793 50.3481 75.6671 50.3323 75.7583 50.3008C75.786 50.3937 75.8191 50.4875 75.8487 50.5764C75.6383 50.6414 75.4387 50.724 75.2663 50.7433C75.2481 50.6318 75.2138 50.5407 75.1459 50.5023C75.24 50.4336 75.3289 50.3647 75.4043 50.2969C75.405 50.2973 75.4059 50.2971 75.4066 50.2975C75.3861 50.5233 75.2256 50.2083 75.5002 50.6298ZM68.8699 57.6682C68.8173 58.1264 68.4124 58.0694 68.2121 57.7619C68.4064 57.6827 68.6087 57.6075 68.8092 57.5316C68.834 57.5702 68.8562 57.6127 68.8699 57.6682ZM78.9411 49.3627C79.31 49.615 79.608 49.2794 79.9929 49.4745C79.6849 49.5192 79.3676 49.5647 79.0523 49.6214C79.0291 49.5456 78.9515 49.4574 78.9411 49.3627ZM59.9892 11.8166C59.9618 11.9164 60.0261 12.0368 59.9183 12.1334C59.9775 12.0968 60.0141 12.0513 60.0414 12.0022C60.0529 12.0406 60.063 12.0794 60.0795 12.1168C59.7971 12.261 59.5132 12.3964 59.2333 12.5475L59.4271 12.5727C59.2472 12.6202 59.0688 12.6727 58.8923 12.7342L58.762 12.6585L58.5999 12.8413C58.2698 12.9709 57.9464 13.1202 57.6301 13.2876C57.3232 13.4044 57.0197 13.5302 56.7198 13.6659C56.3271 13.6389 55.9835 13.6185 55.6976 13.6059C56.4168 13.4259 57.2327 13.3912 57.6793 12.8925C57.3087 12.82 56.8889 13.006 56.4649 13.0151C56.3718 12.953 56.2603 12.9013 56.1634 12.8421C56.174 12.824 56.1868 12.8089 56.1973 12.7901C56.5917 13.0627 56.9301 12.4291 57.1832 12.8991C58.4141 12.8471 58.6748 11.8309 59.8184 11.5759C59.9201 11.6065 59.9583 11.7015 59.9892 11.8166ZM66.4171 58.567C66.4128 58.5428 66.4099 58.5164 66.4051 58.4927L66.3622 58.5046C66.4994 58.3377 66.6274 58.1767 66.8914 58.0455C66.9556 58.1761 66.9978 58.3044 67.0207 58.4314C66.8221 58.4717 66.6208 58.5174 66.4171 58.567ZM81.0788 49.7035L81.1396 49.9719C81.0533 50.0277 80.9701 50.0861 80.8885 50.1452C80.2611 50.3216 79.6864 50.565 79.265 50.9447C79.1968 50.9269 79.1269 50.9216 79.0563 50.9214C79.2997 50.8602 79.5123 50.7777 79.544 50.58C79.2859 50.7207 78.9846 50.8149 78.6639 50.887L78.6733 50.7696C79.4405 50.4503 80.1647 50.0979 80.8021 49.6917C80.8919 49.6757 80.9843 49.6731 81.0788 49.7035ZM11.3354 27.997C11.3539 28.1029 11.371 28.2062 11.3802 28.2903C11.3336 28.3191 11.2868 28.3471 11.2398 28.3757C11.2071 28.2368 11.1665 28.1072 11.1251 27.9858C11.1987 27.9877 11.2691 27.9917 11.3354 27.997ZM10.4753 28.5591C10.4864 28.6434 10.5001 28.7134 10.5135 28.7847C10.3621 28.9019 10.1905 29.0177 9.99834 29.1289L9.82459 28.3343C10.0345 28.2924 10.2632 28.2934 10.4638 28.3171L10.4753 28.5591ZM9.88619 29.5795C9.83601 29.3273 9.77695 29.0673 9.71419 28.8204C9.73927 28.8005 9.76341 28.7798 9.79188 28.7636C9.86353 29.0476 9.93069 29.2957 9.9924 29.5209C9.95668 29.5406 9.92233 29.5602 9.88619 29.5795ZM9.40074 29.1806C9.34076 28.8165 9.24939 28.5291 9.13781 28.193C9.17066 28.1575 9.20564 28.116 9.24305 28.0695C9.2794 28.195 9.32533 28.3116 9.38357 28.4155L9.47016 28.6992C9.51059 29.0387 9.5602 29.4494 9.40074 29.1806ZM8.7998 28.2881C8.84941 28.2566 8.90484 28.2099 8.96793 28.1433C9.10082 28.6176 9.23769 29.0506 9.31331 29.3125C9.15434 29.0365 8.97542 28.6632 8.7998 28.2881ZM9.4212 29.6257C9.27208 29.6947 9.12827 29.7591 8.99294 29.8189L8.58676 28.9587L8.69224 28.9039L8.56418 28.672C8.71025 28.639 8.80834 28.6645 8.9406 28.6042C9.07225 28.7816 9.22575 29.0527 9.40439 29.4612C9.41224 29.5208 9.41764 29.5749 9.4212 29.6257ZM8.52667 29.7802C8.57504 29.7084 8.61352 29.6034 8.72071 29.6874C8.65228 29.7201 8.58874 29.7506 8.52667 29.7802ZM8.03459 28.9761C8.06 28.9549 8.08447 28.9341 8.10776 28.9165C8.09952 28.9877 8.09054 29.0523 8.08363 29.0992C8.07025 29.062 8.05199 29.0181 8.03459 28.9761ZM4.2098 31.9417L3.90678 31.8846C3.86068 31.4396 4.05583 31.5287 4.25455 31.908C4.24019 31.92 4.22393 31.9297 4.2098 31.9417ZM83.0548 33.5918C83.0705 33.5805 83.0816 33.5556 83.0895 33.5173C83.112 33.66 83.159 33.9056 83.2437 34.3171L83.0548 33.5918ZM81.248 21.4251C81.2622 21.5432 81.2752 21.6592 81.2875 21.7715C81.2597 21.7571 81.2309 21.7413 81.2034 21.7264C81.2212 21.6387 81.2367 21.5399 81.248 21.4251ZM82.0285 22.9585C82.0481 23.0445 82.0669 23.1286 82.0842 23.2098C82.0302 23.1561 81.9585 23.0925 81.8626 23.0172C81.8832 22.9553 81.9433 22.9401 82.0285 22.9585ZM85.0182 27.2016C85.0179 27.1919 85.0197 27.1896 85.0196 27.1816C85.0244 27.2021 85.0291 27.2183 85.0336 27.2402C85.0417 27.203 85.0459 27.1562 85.0484 27.1043C85.1044 27.1169 85.2227 27.361 85.2579 27.3077C85.282 27.3874 85.3233 27.5543 85.3571 27.6866C85.3473 27.7506 85.3353 27.8103 85.3243 27.8715C85.3108 27.8288 85.298 27.7871 85.2816 27.7351C85.2181 27.6776 85.1863 27.8815 85.0182 27.2016ZM83.9116 35.171C83.8881 35.2514 83.8561 35.3003 83.8195 35.332C83.7874 35.0542 83.8355 35.0425 83.9116 35.171ZM84.4837 35.2466C84.5868 35.3214 84.652 35.4449 84.7106 35.6064C84.6583 35.5768 84.5999 35.5336 84.5532 35.5186C84.5322 35.4388 84.51 35.3522 84.4837 35.2466ZM5.67334 60.6409C5.70375 60.764 5.61841 60.7646 5.6027 60.8374C5.68255 61.0589 5.71582 60.6405 5.91605 60.764L5.72802 61.1079L5.93131 61.2786L5.49852 62.0403C6.03099 62.0641 6.02906 61.1559 6.51035 61.3508C6.46593 61.4384 6.54425 61.4821 6.5749 61.5344C6.67219 61.3885 6.82464 61.348 6.86305 61.1782L7.06701 61.1292C7.09742 61.2522 7.09944 61.5717 6.89073 61.6209C7.07746 61.5769 7.24172 61.4933 7.39667 61.3952C7.57359 61.8523 7.73864 62.2699 7.88107 62.621C7.81471 62.6148 7.76086 62.5942 7.73718 62.5273C7.66234 62.5743 7.62286 62.5739 7.65784 62.7463C7.7368 62.747 7.88553 62.652 7.84567 62.8713C7.71829 62.991 7.60904 62.8665 7.4951 62.9133C7.49062 62.8643 7.53564 62.6941 7.49966 62.7427C7.2404 62.9331 6.70141 63.0701 6.55057 63.6041C6.64277 63.5324 6.60826 63.3606 6.77066 63.4122C6.80098 63.5349 6.722 63.5341 6.70898 63.6062C6.78674 63.8283 6.80976 63.4123 6.99843 63.5392L6.83041 63.8777L7.02236 64.0515L6.63467 64.8011C7.1298 64.8349 7.11046 63.9311 7.56166 64.1344C7.52203 64.2207 7.59556 64.2657 7.62501 64.3183C7.71203 64.1758 7.85098 64.1375 7.8845 63.9722C7.9229 63.9697 7.97053 63.9562 8.02259 63.9366L8.07441 63.9245C8.10502 64.0471 8.11312 64.3653 7.91994 64.4104C8.59499 64.2518 8.94361 63.501 9.67567 63.5397C9.71943 63.5895 9.6052 63.6363 9.66642 63.6617C9.73719 63.5649 9.86448 63.4449 9.83844 63.3716C9.84262 63.4207 9.85082 63.5182 9.79418 63.5422C9.89497 63.4738 9.9921 63.4623 10.0842 63.4677C10.042 63.4871 10.0084 63.5159 9.99128 63.5608L9.99307 63.5101L9.81693 63.651C9.93326 63.6131 10.1355 63.5671 10.2856 63.494C10.3966 63.5116 10.4936 63.5139 10.57 63.4096C10.6226 63.5568 10.4248 63.5536 10.4683 63.6024C10.8449 63.6337 10.8995 63.123 11.2463 63.0322C11.1886 63.2743 11.3812 63.2297 11.5081 63.3291C11.7414 63.0646 12.3333 62.8573 12.7241 62.5952C12.7533 63.157 13.2068 62.4825 13.3626 62.9241C13.4595 62.902 13.5869 62.7823 13.5521 62.6106C13.5212 62.708 13.3549 62.6061 13.3471 62.5089C13.4785 62.4387 13.6888 62.3692 13.65 62.1491L13.8822 62.3238C13.848 62.1533 13.8486 61.9368 13.943 61.9115L13.9451 61.9109C14.1304 62.1208 14.0721 61.9978 14.0536 61.8797C14.1011 61.868 14.149 61.857 14.1977 61.8475C14.179 62.001 14.1605 62.1315 14.1708 62.256C14.3294 62.2588 14.2813 62.1606 14.3736 62.0892C14.443 62.212 14.368 62.4793 14.2801 62.5994L14.5033 62.6771C14.6138 62.3618 14.8296 61.902 15.1453 61.9079C15.1403 62.079 15.0441 62.1012 15.1797 62.2989C15.2194 62.2643 15.2568 62.197 15.2975 62.1302C15.3703 62.6266 15.4445 63.1296 15.5174 63.6143C15.399 63.7482 15.3363 63.8718 15.5544 63.86C15.5559 63.8702 15.5576 63.8801 15.5589 63.8899C15.2853 64.0803 15.0904 63.8012 14.8891 63.946C14.8244 63.8028 15.0315 63.701 14.8814 63.6186C14.6422 63.6483 14.4833 63.6683 14.3135 63.7912C14.5107 63.7921 14.2986 63.9458 14.6126 63.9564C14.5232 64.0695 14.2374 64.1811 14.269 64.2525C14.3543 64.1922 14.402 64.1094 14.5929 64.1612C14.302 64.3254 13.9779 64.4172 13.6261 64.3852C13.6284 64.3471 13.6508 64.3043 13.6788 64.2618C13.3327 64.6346 12.6892 64.7342 12.4921 65.1123L12.6314 65.14C12.7096 65.0289 12.9109 64.9651 13.013 65.0212C12.7216 65.1848 13.3081 65.2373 13.0117 65.4526C12.5931 65.7079 12.1021 65.4912 11.9436 65.8915C12.3851 65.81 13.0158 65.8323 13.1517 65.6371L12.8691 65.6983L13.3976 65.1243C13.4624 65.2681 13.9342 64.879 13.9887 65.1254C13.781 65.2277 13.5802 65.2787 13.4154 65.3497C13.4844 65.4433 14.0173 65.2489 14.2561 65.2188L13.9423 65.2081C14.4076 64.8702 15.0878 64.7584 15.5503 64.4721C15.374 64.6244 15.522 64.6293 15.6731 64.6362C15.6849 64.715 15.6968 64.7918 15.7089 64.8681C15.6068 64.8799 15.5021 64.8238 15.5534 64.8514C15.5615 64.9571 15.6326 64.9547 15.7196 64.9366C15.7469 65.11 15.773 65.2756 15.7981 65.4326C15.7236 65.4904 15.6563 65.5416 15.6016 65.581L15.6976 65.4171C15.3806 65.8379 14.8886 65.6208 14.5397 65.9688C14.5442 65.9177 14.5866 65.887 14.5067 65.8974C13.9849 65.9884 13.8998 66.4811 13.4358 66.3877L13.4498 66.2343C13.4192 66.2602 13.2087 66.44 13.2984 66.5822C13.6276 66.4391 13.6752 66.3574 13.9932 66.3171C13.9015 66.4778 13.6565 66.657 13.4554 66.7119L13.499 66.963C13.31 67.2912 12.9447 66.9821 12.7567 67.3093L13.1032 67.3929C13.0971 67.4059 13.0747 67.4182 13.0581 67.4315C13.1883 67.3701 13.2973 67.3059 13.3143 67.2391C13.7333 66.984 14.0608 67.2721 14.1694 67.3844C14.4036 67.4065 14.176 67.714 14.2421 67.8579C14.5705 67.7151 14.4778 67.4478 14.8068 67.3052C14.9253 67.3148 14.8768 67.3968 14.834 67.4284L15.0502 67.223C15.0833 67.2951 15.6852 67.1933 15.384 67.4603C15.3304 67.4669 15.2365 67.4998 15.1592 67.5089C15.6848 67.5576 16.5647 67.5301 16.6119 67.8113C16.8894 67.8027 16.7811 67.6888 17.2186 67.6593C17.3594 67.4129 17.0975 67.2685 17.5158 67.0132L17.1316 67.0122C17.0679 67.0696 17.0196 67.1341 16.9472 67.1864L17.3142 67.0637C17.1027 67.2172 17.1727 67.3099 17.1533 67.5159C16.585 67.6883 16.3363 67.3911 16.0219 67.3792C16.1371 67.2164 16.3741 67.1604 16.3474 67.0275C16.6452 66.9678 16.9288 66.9435 17.0139 66.74C17.0678 66.7072 17.1152 66.6973 17.1592 66.6933C17.337 66.7415 17.1616 66.972 17.5487 66.9245C17.7015 66.8255 17.8673 66.6687 18.0509 66.5495C18.061 66.586 18.075 66.618 18.1043 66.6342C17.4644 67.1461 18.2248 67.0255 17.5103 67.4956C17.5984 67.8135 17.9177 67.7732 18.3263 67.6206C18.0166 67.5579 18.375 67.1069 17.9524 66.9828C18.252 66.8149 18.3414 66.5749 18.4613 66.3939C18.4829 66.392 18.5043 66.3873 18.5265 66.3877L18.5345 66.4305C19.0505 66.3919 19.3518 66.1373 19.6675 65.9148L19.7496 65.9189C19.5934 66.3197 19.2468 66.2365 19.1049 66.4824C19.6778 66.6885 19.665 65.9798 20.2299 65.8581C20.378 65.9256 20.4116 65.983 20.3854 66.0371C20.3116 66.0876 20.2372 66.1412 20.162 66.1984C20.0114 66.277 19.8414 66.3621 19.8106 66.474C19.6862 66.5738 19.5606 66.6725 19.4342 66.7686C19.4076 66.7337 19.2778 66.7359 19.2876 66.636C19.2345 66.7701 18.7035 66.9644 18.3051 67.0142C18.2798 67.2713 18.69 67.1183 18.9613 67.1594C19.0017 67.1203 19.0456 67.0927 19.0899 67.067C19.3668 67.0405 19.5659 66.995 19.7308 66.9374C19.9184 66.9231 20.0898 66.8885 20.2081 66.7387C20.2357 66.7271 20.2634 66.7155 20.2931 66.7036C20.661 66.6064 20.3258 66.9377 20.3614 66.9572C20.8364 66.948 20.5026 66.7111 20.6301 66.619C20.6806 66.5902 20.7243 66.5739 20.7694 66.5547C20.8078 66.5452 20.8397 66.5352 20.8818 66.526C21.597 66.5183 21.9733 67.0171 22.6396 67.2321L22.2383 66.8446C23.0798 66.2794 22.9296 66.9486 23.5564 66.3327L23.6913 67.0691C23.8635 66.6386 24.5779 66.8036 24.8861 66.9346L25.0105 66.3773C25.6546 66.5261 26.0605 66.5605 26.342 66.9787L26.1799 66.5293C26.4655 66.7717 28.4056 65.9891 27.895 66.9264C28.0399 66.7851 28.1396 66.513 28.5211 66.4836L28.683 66.9313C29.1885 66.6944 29.7625 66.4727 29.9758 66.6977C29.7124 66.8715 29.6619 67.0955 29.6133 67.3189C31.0653 67.0497 30.717 66.4669 30.7922 65.9542C31.2841 65.7574 31.8292 65.588 32.0214 65.8204C31.7587 65.9764 31.6999 66.1954 31.6427 66.4144C32.862 66.2674 32.8014 65.8013 32.8214 65.3525L32.824 65.3536C32.9379 65.0749 33.1573 64.8997 33.4371 64.7809L33.5184 65.0965C33.6259 64.6635 34.2575 64.8016 34.5355 64.9201L34.5727 64.5382L34.8408 64.6735C34.8706 64.6079 34.9079 64.5498 34.9489 64.4961C35.0049 64.4899 35.0609 64.4841 35.1168 64.4776C35.3981 64.5497 35.6113 64.6499 35.7935 64.9119L35.612 64.4722C35.8802 64.7023 37.4785 63.8561 37.1257 64.8049C37.2371 64.6591 37.298 64.3857 37.6241 64.3457L37.8045 64.7846C38.2187 64.5343 38.6932 64.2976 38.897 64.5145C38.6859 64.6948 38.6626 64.9185 38.6407 65.1415C39.921 64.8182 39.481 64.2134 39.5401 63.6859C39.5472 63.6861 39.5541 63.6868 39.5613 63.6873C39.8739 63.7605 40.2299 63.819 40.6162 63.7476C41.6117 63.8097 42.677 63.9344 43.1884 64.4303C43.7847 63.9159 43.0937 64.3507 43.0219 63.9835C43.1626 63.892 43.2897 63.8226 43.4073 63.7678C44.0378 63.9043 44.6062 64.1102 44.9238 64.466C45.5255 63.9965 44.8358 64.3803 44.7831 64.0105C44.8419 63.9763 44.8963 63.9487 44.9507 63.9213C45.0478 63.9572 45.1503 63.9874 45.2648 64.0037C45.626 63.8051 45.4956 63.7881 45.2962 63.7779C46.0804 63.5306 46.3392 64.0521 46.9551 64.1876C47.7149 63.8232 46.309 64.1125 46.6761 63.6913C47.9699 63.8404 47.5684 62.9537 49.1422 63.0076C49.3411 63.2435 48.7846 63.2551 48.6595 63.4541C49.6395 62.8001 51.6831 62.7599 53.2523 62.3939C55.1298 62.4162 57.8349 62.0867 60.0362 62.1379L60.0436 61.9627C61.008 62.2446 61.8861 61.6716 62.954 61.686L62.4033 61.5273C62.519 61.45 62.6263 61.3962 62.7303 61.3506C62.8206 61.371 62.9104 61.3441 62.9993 61.2527C63.151 61.2107 63.2986 61.1842 63.45 61.1567C63.6207 61.4614 63.7859 61.6897 63.9204 61.4628L63.8192 61.0755C63.8921 61.0549 63.9676 61.0308 64.0463 61.0005L64.495 61.4241C64.583 61.3867 64.6506 61.3509 64.7044 61.3163C64.9455 61.3999 65.0462 61.102 65.1065 60.6743C65.1264 60.6566 65.1478 60.6385 65.1728 60.6194C65.657 60.7584 66.4285 60.5429 66.9491 60.392C66.9624 60.4058 66.9727 60.4228 66.9875 60.4348C66.9863 60.416 66.9895 60.3993 66.989 60.3807C67.1892 60.3224 67.3493 60.276 67.4332 60.2676C67.6833 60.4555 67.2355 60.6233 67.1613 60.7775C67.447 60.6646 67.607 60.5315 67.7461 60.3995C67.8625 60.5458 67.9693 60.6841 68.0482 60.6796C67.9977 60.4876 67.9679 60.3369 67.9501 60.2094C68.1252 60.055 68.3409 59.9162 68.7936 59.8335L68.8355 59.9623C68.9582 59.9018 69.0916 59.8512 69.2187 59.7949C69.2069 59.9087 69.1858 60.0328 69.1428 60.1808C69.203 59.9083 69.4673 59.8658 69.5607 59.6456C69.9194 59.5003 70.2884 59.3643 70.6729 59.2422C70.6983 59.293 70.7234 59.3507 70.7482 59.4229C70.7606 59.3464 70.7594 59.2809 70.7536 59.2185C70.9772 59.1483 71.2059 59.0828 71.4354 59.0181L75.2849 58.4619C75.1571 58.3996 75.027 58.264 74.8948 58.1233C75.377 57.9941 75.8499 57.8533 76.313 57.7005C76.3346 57.7333 76.3551 57.7656 76.3794 57.7991L77.0961 57.5926L77.0654 57.8066C77.1251 57.7846 77.1404 57.6945 77.1461 57.5795L79.562 56.876C79.6216 56.7818 79.6496 56.6866 79.6591 56.5897C80.0313 56.4896 80.4004 56.3843 80.7635 56.2718C80.8644 56.579 80.9896 56.7537 81.1642 56.6178L81.0786 56.1704C81.7153 55.9631 82.3284 55.7309 82.8974 55.4621L82.9539 55.9696C83.0549 55.8241 83.101 55.602 83.113 55.3562C83.3157 55.2549 83.5144 55.1504 83.704 55.0381C83.8545 55.0525 84.0038 55.0709 84.1491 55.1016L84.1154 54.9328C84.5513 55.2605 84.7769 54.769 85.198 54.8503L84.9494 54.6612C84.9545 54.6492 84.9599 54.6418 84.9656 54.6307L85.5696 54.3992L85.7475 54.6966C85.8631 54.5652 85.843 54.4398 85.8265 54.3007L86.1604 54.1727C86.2158 54.2346 86.2956 54.2874 86.3817 54.3114C86.3866 54.1587 86.655 53.945 86.5417 53.8424C86.5963 53.8084 86.6402 53.7824 86.6673 53.7805C86.803 53.98 86.6603 54.1105 86.6621 54.255C86.9055 54.0123 86.758 53.5624 87.1157 53.4549L87.1574 53.5831C87.8289 52.6645 88.9711 52.5441 89.8188 51.8611C89.747 51.8535 89.7369 51.7487 89.6863 51.6594C90.6583 51.2168 91.8258 50.8931 92.3518 49.5556C91.8906 49.7845 90.9534 49.4095 90.5026 50.0012C90.4923 49.9948 90.4821 49.988 90.4722 49.9811L90.4281 50.1152C90.3988 50.1683 90.3724 50.2263 90.3497 50.2922C90.0523 50.0055 89.8599 50.5815 89.6463 50.1214C88.9948 50.1255 88.7783 50.663 88.3798 51.0219C88.378 50.9853 88.36 50.9515 88.3147 50.9223C88.0369 50.9024 88.0114 51.0701 88.0777 51.2199C88.0273 51.2444 87.9796 51.272 87.9224 51.2891C87.7886 51.233 87.7784 50.9833 87.6848 50.7668L88.235 50.3716L87.8102 50.2824C87.9136 50.0242 88.3499 50.0738 88.2796 49.6323C88.0572 49.9984 87.6597 50.1113 87.2985 50.2654C87.3409 50.0065 86.9867 49.7758 87.0552 49.5283L86.2712 50.3748L86.8749 49.9033C87.3215 49.9544 87.3098 50.1368 87.1638 50.3244C86.9319 50.4375 86.7285 50.5854 86.617 50.8578C86.8661 50.9056 87.1045 50.7031 87.3745 50.6697C87.5298 50.7907 87.737 50.854 87.7883 51.0885C87.23 51.9576 86.5289 51.799 85.8305 52.2255C85.6671 52.3255 85.4275 52.354 85.3188 52.1823C85.9147 51.972 86.466 51.691 86.9342 51.2936C86.055 51.4348 84.5981 50.9649 83.5678 51.3775C83.5312 51.3293 83.4973 51.2864 83.4688 51.2576C83.4757 51.2929 83.4936 51.3432 83.5134 51.3991C83.3789 51.4578 83.2535 51.5345 83.1375 51.6285C83.1347 51.612 83.1364 51.597 83.1323 51.5794C83.0874 51.5981 83.0466 51.6168 83.0058 51.6295C83.1229 51.538 83.2372 51.4448 83.346 51.3481C83.0896 51.4391 82.7938 51.512 82.4758 51.5778C82.4371 51.3746 82.3945 51.1547 82.2914 50.9744C83.0118 50.6 83.6715 50.1726 84.2021 49.6482C83.7496 49.8094 83.1563 49.893 82.5286 49.9845C83.0333 49.3422 83.7725 48.4285 84.1401 47.26C84.3317 47.7515 84.4869 47.7095 84.6509 47.5758L84.1365 48.2072L84.6591 47.7521C85.4102 47.8656 84.743 48.4022 84.5209 48.5819C85.5217 48.155 84.8076 47.8046 84.8028 47.4424C84.9421 47.3217 85.0956 47.2254 85.2882 47.3827C85.3778 47.6094 85.5493 47.8757 85.5228 48.3361L85.4026 48.3821C86.0208 48.5527 86.6061 47.764 87.0299 46.8959L87.4273 47.9297C88.3756 48.2484 87.0511 46.24 87.9398 45.8653C88.2985 46.9771 89.1385 46.3012 89.2859 47.2241C89.4462 47.1055 89.5293 47.1406 89.4689 46.4446C89.3035 46.3733 88.9836 46.6135 89.0849 45.7989C89.3615 45.4437 89.5811 46.0196 89.8243 45.9364C89.8297 46.1298 89.7217 46.7499 89.8007 46.593C90.3601 46.0778 91.5021 46.0094 91.8692 44.0692C91.6684 44.2687 91.7249 44.9636 91.3888 44.6247C91.3363 44.1226 91.502 44.1938 91.5364 43.9254C91.3929 42.9992 91.3065 44.5899 90.9218 43.937L91.3062 42.7689L90.9178 41.9321L91.8084 39.3588C90.7632 38.804 90.7204 42.3224 89.7871 41.1482C89.8782 40.8487 89.7267 40.6106 89.6691 40.3828C89.4712 40.863 89.1704 40.8863 89.0882 41.5115L88.6856 41.5232C88.6305 41.0211 88.6401 39.782 89.0525 39.7723C88.162 39.7938 87.5198 40.7918 86.7971 41.3786C86.7026 41.3425 86.5604 41.6482 86.2859 41.5715L86.6804 41.1723L86.3607 41.0331L87.2636 40.1452C86.343 40.2253 86.1672 41.1811 85.369 41.0711C85.4633 40.9702 85.3363 40.9395 85.2932 40.8909C85.0954 41.0635 84.8225 41.1362 84.7227 41.3228L84.3583 41.4148C84.3293 41.291 84.3891 40.955 84.7615 40.8619C84.4138 40.9491 84.1008 41.0764 83.8015 41.2178C83.6391 41.1432 83.4937 41.1588 83.3687 41.4126C83.2648 40.798 83.6847 40.9765 83.5949 40.7502C83.3224 40.6019 83.1271 40.7309 82.958 40.9651C82.4443 39.3585 83.0416 40.5816 82.9494 40.0296L82.9736 39.8333L83.0007 39.8207C83.0635 40.0143 83.1267 40.2586 83.1866 40.6209C83.1202 40.2618 83.2756 40.3482 83.0977 39.7848L83.3625 39.6774C83.3924 39.7469 83.4273 39.8341 83.471 39.9592C83.4479 39.8455 83.4224 39.7537 83.3946 39.6646L84.5455 39.1893C84.4454 39.0691 84.2739 38.6822 84.1555 38.5057C83.9715 37.6611 83.9659 37.9154 83.8722 37.7496L84.0577 37.6854C84.0943 37.9058 84.1611 38.1884 84.3068 38.608L84.2724 38.1151L84.376 38.4908L84.4663 38.3298C84.347 37.9859 84.2833 37.8187 84.2182 37.6297L84.3172 37.595C84.405 37.8597 84.5097 38.1905 84.6921 38.5783L84.8447 38.3977L84.8902 38.6034C84.9016 38.5837 84.8833 38.4974 84.8559 38.3866L85.3667 37.7717C85.3418 37.4722 85.2229 37.1575 85.0843 36.781L85.2654 36.6168L85.2989 36.8246C85.3152 36.805 85.3016 36.7174 85.2796 36.6052L85.3297 36.5593C85.5377 37.1983 85.731 37.7558 85.7536 37.5499L85.4084 36.4873L85.4415 36.4568L85.4888 36.5043C85.4768 36.487 85.4648 36.4647 85.4529 36.4467L85.8299 36.1006L86.0905 36.9551C86.0767 36.7565 85.9923 36.4093 85.8864 36.0487L85.9486 35.9917L85.977 36.1227L86.1212 35.9618L85.8491 35.0418C85.9006 35.2568 85.9713 35.6664 85.8843 35.4853C85.8557 35.3773 85.8206 35.2641 85.7818 35.1458L85.6844 34.7811L85.7276 34.9792C85.6142 34.6362 85.4874 34.2427 85.4163 33.7576C85.2593 33.8014 84.8634 33.2201 85.1015 34.2952C85.0572 34.1098 84.9999 33.8932 84.9469 33.7865L85.1377 34.9237L85.3214 35.2546C85.4472 36.0084 85.3229 36.1849 85.1563 36.0223C85.0758 35.773 84.9994 35.5407 84.9378 35.368L85.0722 35.9161C85.0128 35.8249 84.9526 35.7007 84.8993 35.5481C84.9794 35.1242 84.5443 33.8134 84.9809 34.475C84.8812 34.135 84.6795 33.5438 84.6873 33.3422C84.4974 33.8104 84.0754 33.2619 84.0738 34.4942C84.3822 35.105 84.3557 35.3274 84.3723 35.6903C84.3602 35.6596 84.3474 35.6249 84.3362 35.6024L84.3775 35.7826C84.3935 36.0216 84.4372 36.3295 84.5966 36.831L84.598 36.7337L84.7739 37.0529C84.806 37.1921 84.8285 37.3116 84.8434 37.4127L84.8263 37.4183C84.8333 37.4263 84.8399 37.4309 84.8463 37.4366C84.9306 38.0381 84.7264 37.95 84.5275 37.522L84.8263 37.4183C84.7178 37.2967 84.55 36.9068 84.4243 36.7294C84.3587 36.3258 84.3171 36.1729 84.2814 36.104C84.307 36.1137 84.3518 36.1661 84.4254 36.2818C84.328 35.99 84.1517 35.5115 84.0995 35.2603C84.1168 35.2928 84.1346 35.329 84.1532 35.3711C84.1347 35.2901 84.1125 35.2133 84.0917 35.1354C84.096 35.1205 84.1009 35.1064 84.1042 35.0879C84.0939 35.0889 84.0886 35.0991 84.0862 35.1139C83.9608 34.6496 83.8032 34.2131 83.6607 33.6417C83.2902 32.9797 83.9679 35.6894 83.6805 35.3252C83.5105 34.6466 83.4115 34.0405 83.3171 34.1627L83.3091 34.0096C83.3146 34.5081 83.104 33.8213 83.0289 33.6692C83.0354 33.5501 83.0209 33.3655 82.9882 33.13C82.9757 32.9721 82.9572 32.7574 82.93 32.4946C83.1032 32.9616 82.8617 31.9648 82.9721 32.0877C83.0549 32.5032 83.1751 33.2171 83.2176 33.3287C82.8793 31.7939 83.8656 34.1151 83.5871 33.0363C83.5086 32.6666 83.4455 32.325 83.386 31.9891C83.5718 32.1222 83.6221 31.6886 83.5204 30.8192C83.5026 31.0453 83.4601 30.8855 83.4047 30.6299C83.4456 30.602 83.4831 30.5594 83.5594 30.6418C83.5634 30.6535 83.5661 30.6598 83.5696 30.6695L83.6781 31.0909C83.7213 31.1589 83.7462 31.155 83.766 31.1274C83.7881 31.3054 83.808 31.4454 83.8241 31.4899C83.795 31.3064 83.784 31.1813 83.7849 31.0941C83.81 31.0336 83.8308 30.9464 83.8831 30.9585C83.9005 30.9708 83.92 30.9889 83.9406 31.0117L84.2114 31.8132C84.2055 31.6528 84.237 31.5373 84.2846 31.4641C84.3264 31.5031 84.3502 31.4925 84.3465 31.4022C84.3623 31.393 84.3781 31.3817 84.3957 31.3802C84.3636 31.276 84.336 31.2031 84.3099 31.1415C84.2917 31.0138 84.2779 30.8941 84.2626 30.7713C84.298 30.8937 84.3417 31.0319 84.3965 31.1922C84.3667 30.586 84.325 29.7147 84.1102 28.5894C84.3532 29.2202 84.328 28.948 84.3379 28.7615C84.3758 28.7534 84.409 28.7247 84.4469 28.7131C84.4486 28.7159 84.4499 28.717 84.452 28.7199C84.537 28.9394 84.6547 29.197 84.7715 29.6399L84.7513 29.6828C84.8881 29.7918 84.9142 29.5203 84.884 29.0942C84.9142 29.0695 84.9501 29.0652 84.9993 29.115L85.2406 29.9435C85.2618 29.674 85.3902 29.5113 85.5257 29.5032C85.4027 29.0129 85.3062 29.1356 85.2119 28.5294C85.1434 28.5318 85.1157 28.6506 85.2734 29.1734C85.2615 29.1745 85.2446 29.1447 85.2255 29.1035C85.1571 28.8421 84.9797 28.3699 84.8586 27.9636L84.9113 27.6666C84.9914 27.8307 85.0535 27.9117 85.1076 27.9654C85.1217 28.0515 85.1358 28.1113 85.1596 28.1106L85.131 27.9882C85.2051 28.0556 85.2687 28.0923 85.3521 28.2638C85.3548 28.4865 85.3967 28.7875 85.551 29.3119C85.592 28.6956 85.656 27.8111 85.5405 26.6688C85.89 27.6854 85.7003 26.394 85.9559 26.8022C86.0326 27.0249 86.1454 27.2871 86.2311 27.7369L86.1995 27.7804C86.4444 27.9548 86.4814 27.1907 86.4477 26.3465L86.7944 27.3621C87.1816 27.6841 86.3208 25.7069 86.5455 25.3483C86.8945 26.4379 87.0402 25.7808 87.2788 26.6843C87.3088 26.5694 87.344 26.6039 87.1809 25.9223C87.1105 25.8521 87.0517 26.0853 86.919 25.2889C86.9402 24.9427 87.1321 25.5072 87.1973 25.4268C87.2388 25.6162 87.3289 26.2225 87.3234 26.0694C87.4074 25.5678 87.7794 25.5067 87.5073 23.6094C87.4804 23.804 87.6414 24.484 87.4584 24.1508C87.3381 23.659 87.4086 23.7296 87.3655 23.4671C87.1281 22.5597 87.4235 24.1163 87.16 23.4758L87.0516 22.3341L86.7491 21.5132L86.5256 18.999C86.058 18.4514 86.7618 21.8941 86.2057 20.7412C86.1756 20.4484 86.0756 20.215 86.0095 19.9912C86.0404 20.4602 85.9435 20.482 86.043 21.0935L85.9095 21.1031C85.7879 20.6113 85.5376 19.3988 85.6755 19.3912C85.1928 19.4215 85.4592 21.9716 84.7765 21.2066C84.6988 20.9813 84.7643 20.8994 84.6903 20.7523C84.7017 21.059 84.6813 21.4071 84.7614 21.706C84.7195 21.5174 84.6366 21.1398 84.6687 21.0972C84.5524 21.6418 84.0483 20.1797 84.0777 20.9444C83.9164 20.3423 84.096 20.5216 84.0188 20.2993C83.8051 20.0419 83.8393 20.5949 83.8537 21.1017C83.8533 21.124 83.8542 21.1489 83.8556 21.1768C83.8634 21.4986 83.8575 21.7838 83.7668 21.8038C83.6749 21.2228 83.5828 21.0332 83.4747 20.827C83.439 20.6018 83.6585 21.0398 83.5092 20.4801L83.5648 20.666L83.5055 20.2894C83.4719 20.3554 83.3557 20.3328 83.4702 20.8187C83.4179 20.7188 83.3621 20.6146 83.3002 20.459C83.2981 21.2636 82.9305 21.5516 82.787 22.2145C82.3173 20.064 82.4434 22.2362 81.954 20.4336C81.8846 20.4363 81.8645 20.7818 82.0325 21.4613C81.9825 21.1183 82.213 21.6438 82.2967 22.0185C82.2663 22.0949 82.2186 22.1558 82.2032 22.3003C82.0891 22.1696 82.0928 22.3723 82.1285 22.6703C82.1278 22.6701 82.1269 22.6704 82.1259 22.6703L81.9637 22.2704C81.9956 22.4004 82.0273 22.5355 82.0585 22.6696C82.0471 22.6702 82.0353 22.6667 82.0237 22.669C81.5954 22.2297 82.2297 22.471 81.6949 21.952C81.6387 21.9215 81.5727 21.8914 81.5115 21.8615C81.4442 21.4775 81.3959 21.1015 81.3869 20.8935L81.2781 20.6939C81.2702 20.4924 81.2543 20.2636 81.2255 19.9948C81.1977 20.137 81.2646 20.5363 81.2332 20.6126L81.1242 20.4123C81.0562 20.0572 81.111 20.0884 81.0804 19.8498C80.8662 18.937 81.113 20.502 80.8594 19.8557L80.7946 18.7094L80.5065 17.8825L80.3896 15.3563C79.9032 14.8028 80.502 18.2648 79.9534 17.1018C79.9339 16.8079 79.8365 16.5723 79.7747 16.3477C79.7865 16.8184 79.6794 16.8393 79.7607 17.4532L79.6144 17.4617C79.5043 16.9672 79.2865 15.7491 79.4381 15.7428C78.9037 15.7678 79.0891 18.3273 78.3799 17.5616C78.304 17.3358 78.3786 17.2532 78.3035 17.1054C78.304 17.3263 78.2876 17.5683 78.3052 17.798C78.3011 17.797 78.2977 17.7961 78.2933 17.7952C78.2651 17.6351 78.2441 17.4788 78.2667 17.4522C78.1996 17.7036 78.0584 17.5293 77.926 17.342C77.9335 17.2579 77.9417 17.1726 77.95 17.0852C78.1385 17.1719 78.4201 17.6039 78.0397 16.1355C78.0527 15.9976 78.0662 15.8579 78.0795 15.7175C78.0881 15.776 78.0988 15.841 78.1145 15.9199C78.1076 15.8401 78.0946 15.7559 78.0837 15.6732L78.0845 15.667C78.5699 15.3227 79.1345 15.1544 79.7205 15.0232C79.7235 15.0776 79.7289 15.1369 79.739 15.2071C79.6987 14.8607 79.8771 15.2217 79.8853 14.9872C80.4755 14.8608 81.0776 14.7526 81.6309 14.5145C81.5452 14.4936 81.5564 14.3895 81.5151 14.2927C81.9205 14.2127 82.3473 14.1482 82.7709 14.0598C82.7979 14.1604 82.9027 14.2674 83.0255 14.3194C83.0465 14.1932 83.2668 14.0525 83.2714 13.9406C84.008 13.7393 84.7055 13.4134 85.2315 12.7414C84.5374 12.8935 83.2738 12.1713 82.6304 13.0802C82.3332 12.7444 81.9693 13.2704 81.8139 12.7813C80.7677 12.6292 80.4342 13.5237 79.4544 13.6073C79.3049 13.5282 79.3484 13.2821 79.2842 13.0532L80.0416 12.7658L79.5455 12.6017C79.7295 12.3668 80.2485 12.4961 80.2629 12.0513C79.7639 12.499 78.955 12.3933 78.3746 12.652C78.3924 12.4616 78.4089 12.2815 78.4244 12.1101C78.4272 12.1097 78.4303 12.1092 78.4326 12.1086C78.7238 12.1052 79.015 12.0904 79.3063 12.0697C79.2625 12.1571 79.1817 12.2367 79.1665 12.3175C79.2877 12.244 79.3631 12.1552 79.4238 12.0636C81.4044 11.9067 83.3791 11.3776 85.1467 10.8095C85.2551 10.7967 85.3721 10.7258 85.4935 10.6292C86.1033 10.5079 86.7013 10.3724 87.2793 10.2338C87.6116 10.224 88.0654 9.63639 88.4839 9.3881C87.97 9.23515 87.9233 9.5065 87.4192 9.48812C87.1559 9.38011 87.0028 9.07425 86.8232 8.77658C87.7253 8.44117 88.565 7.99129 89.1673 7.2447C88.2839 7.52313 86.5946 7.03099 85.8416 8.06369C85.4309 7.78197 85.0049 8.37771 84.7643 7.91603C84.6939 7.91863 84.6365 7.93259 84.5715 7.93976C84.5592 7.90205 84.5465 7.86442 84.5359 7.82129L84.5482 7.94246C84.3169 7.96944 84.1074 8.01674 83.9252 8.08994C83.8506 8.07176 83.7834 8.04697 83.7309 8.00978C84.22 7.68919 84.6527 7.27129 84.9345 6.64064C84.3482 6.9307 83.1142 6.48135 82.6826 7.45302C82.6195 7.42925 82.568 7.38507 82.5384 7.30674C82.6604 7.21852 82.7143 7.07324 82.7531 6.91575C82.7915 6.9083 82.8328 6.9036 82.8807 6.9056L82.6979 6.53276L82.1735 6.91548C82.1941 6.93366 82.2108 6.94333 82.2291 6.95681C82.1112 7.09872 82.0859 7.30669 82.0713 7.52206C82.0058 7.51556 81.9426 7.4731 81.8803 7.34728C81.0848 7.37764 80.8412 8.02562 80.2954 8.3964C80.1364 8.42343 80.0006 8.39689 79.9354 8.25384C80.0897 8.13541 80.1294 7.93595 80.1646 7.73382L80.2858 7.65432L79.812 7.5783C79.9385 7.3153 80.4258 7.34878 80.3629 6.90491C79.8928 7.58459 78.8155 7.44541 78.4478 8.19558C78.5835 8.21546 78.7189 8.17459 78.8575 8.12329L78.6416 8.33319L79.0168 8.064C79.1115 8.02908 79.2074 7.9963 79.3069 7.98273C79.3679 8.02509 79.4358 8.06099 79.5016 8.09886C79.4756 8.18468 79.4637 8.27875 79.4582 8.3764C79.172 8.33852 78.8978 8.3441 78.689 8.53265C78.4331 8.62915 78.0353 8.03246 77.5385 8.12632L77.5939 8.47992C77.5901 8.47915 77.589 8.47733 77.5847 8.47672C77.5516 8.48347 77.5303 8.49236 77.5016 8.50004C77.3988 8.4247 77.2679 8.3544 77.1189 8.28331L77.095 8.21333L77.0493 8.25069C76.778 8.12501 76.4595 7.99395 76.1531 7.82784L76.1574 7.82458L76.1527 7.82759C75.7356 7.60096 75.3434 7.30828 75.135 6.86874C74.7896 7.25972 75.1861 6.96394 75.2163 7.33562C74.5219 7.87879 74.3914 7.1465 73.9662 6.8994C73.5318 7.16748 74.3392 7.05087 74.131 7.4224C73.7788 7.27915 73.647 7.4096 73.5107 7.56315C73.4062 7.4621 73.3285 7.35633 73.4536 7.17537C72.8765 7.09627 72.3216 7.48114 71.8573 7.82373C71.4943 7.86017 71.1052 7.87072 70.7394 7.9189C70.6684 7.66955 70.5966 7.41722 70.5242 7.16012C70.4281 7.18376 70.3309 7.20451 70.2346 7.22781C70.3606 7.55084 70.3763 7.78883 70.4023 7.97915C70.3942 7.98098 70.3854 7.98158 70.3769 7.98349C70.3089 7.97096 70.2342 7.96126 70.1628 7.95035C70.1251 7.74264 70.0812 7.51786 70.0412 7.27327C69.6909 7.35794 69.3392 7.43627 68.9885 7.51963C68.9839 7.60536 68.9825 7.70865 68.9845 7.82867L68.9653 7.82745L68.9048 7.53925C68.8563 7.55082 68.8077 7.56172 68.7592 7.57329C68.7274 7.63733 68.6757 7.6441 68.6113 7.60798C68.5309 7.62704 68.4501 7.64552 68.3697 7.66459C68.3603 7.75728 68.3256 7.75348 68.2778 7.68603C68.1621 7.71314 68.0463 7.73992 67.9307 7.76736C67.4303 7.73666 66.9297 7.69188 66.4632 7.60226L66.4696 7.77417C66.3112 7.67412 66.1614 7.64212 66.0141 7.64199C65.9942 7.58719 65.9792 7.53111 65.9785 7.47332C65.9841 7.54325 65.985 7.59708 65.9844 7.64358C65.6027 7.65534 65.2369 7.88452 64.7956 7.81361L65.1279 8.01308C64.7986 8.3697 64.55 8.21991 64.2117 8.40461L63.9173 7.95207C63.5558 8.17799 63.8222 8.38948 63.5882 8.69439C63.2857 8.51909 62.8384 8.69588 62.5495 8.80933C62.4537 8.79931 62.3586 8.80287 62.2632 8.81499C62.2026 8.6523 62.3929 8.53308 62.4184 8.40462C62.2129 8.52579 62.1369 8.69501 62.0489 8.85049C61.7777 8.90547 61.4987 8.98024 61.191 8.92054L61.4939 9.11198C61.3829 9.19937 61.2646 9.27667 61.1455 9.35207C60.952 9.4004 60.7687 9.37951 60.5423 9.48364L60.2579 9.01851C59.8635 9.22673 60.1322 9.4528 59.866 9.74266C59.4414 9.47737 58.6819 9.85946 58.4981 9.85848C58.3403 9.64724 58.6089 9.52754 58.6499 9.3829C58.185 9.60647 58.2876 10.0694 57.6822 10.1475L57.6527 10.0157C56.3076 10.8895 54.4482 10.9394 52.9118 11.5951C53.0247 11.6065 53.0134 11.7125 53.0708 11.8049C51.4382 12.2007 49.5333 12.5014 48.3867 13.7898C48.1516 13.8192 47.9161 13.8473 47.6798 13.882C47.5424 13.9011 47.4071 13.9254 47.2703 13.9465C47.2429 13.9135 47.213 13.8847 47.1822 13.8665C47.183 13.897 47.1761 13.9296 47.167 13.9625C46.8074 14.0185 46.4519 14.0795 46.0998 14.1455C46.1754 14.0319 46.2811 13.9329 46.3407 13.8784C46.1307 13.9559 46.0344 14.0545 45.9995 14.1643C43.7058 14.601 41.608 15.224 40.1739 15.7871C39.5402 15.7257 38.7812 16.0228 38.1794 16.149C38.5336 16.1386 38.472 16.333 38.2165 16.4046C36.456 16.9743 38.1395 16.5904 36.4146 17.3011C36.1074 17.4453 35.6572 17.6331 35.1132 17.8517C35.2879 17.7151 35.1925 17.6038 35.1121 17.4794C35.3085 17.2768 35.627 17.2526 35.8195 17.0653L35.0823 17.4304C35.0503 17.3707 35.0308 17.3074 35.054 17.2354C35.0341 17.3415 35.0068 17.4209 34.9771 17.4823L34.8948 17.5231L34.9499 17.5313C34.7598 17.8389 34.5001 17.5114 34.9751 17.9064C34.7064 18.0138 34.4182 18.1271 34.1129 18.246L34.4464 17.6956C33.9174 17.8568 33.1765 18.2239 33.3353 17.7146C32.5428 18.4878 30.8514 18.7214 29.7679 19.3381L29.7379 18.9215C29.266 19.5635 27.5178 19.5004 27.1523 20.2179L27.0199 20.0811L25.9677 20.9426C25.413 21.0449 25.4334 20.3991 25.4348 20.5766C24.2741 21.0113 23.3506 21.304 22.5292 21.3155C22.4849 21.8992 21.2741 22.3923 20.2999 22.7431C17.8619 23.2648 15.3961 24.038 13.0163 24.9398C11.2165 25.6186 9.44069 26.3869 7.82613 27.2837C7.71948 27.0793 7.63997 26.9666 7.64602 27.1421L7.72146 27.3436C7.63441 27.3927 7.5495 27.4427 7.46382 27.4922C7.45258 27.4348 7.44462 27.38 7.44399 27.331C7.30409 27.1602 7.29268 27.2944 7.33732 27.565C7.03585 27.7412 6.73968 27.9217 6.45182 28.1081C6.37713 27.9835 6.31062 27.8751 6.28443 27.8789C6.32353 27.9795 6.35652 28.0679 6.38626 28.149C6.3669 28.1616 6.34587 28.174 6.32652 28.1866C6.22184 28.2405 6.11848 28.3184 6.01563 28.4053C6.01297 28.3894 6.00973 28.3761 6.00689 28.3596C6.01056 28.378 6.01084 28.391 6.0133 28.4074C5.61858 28.7422 5.23804 29.2795 4.86327 29.7688L4.19537 30.0772C4.32081 30.1833 4.52941 30.5531 4.6768 30.7148C4.80329 31.2215 4.85868 31.3255 4.90837 31.3628C4.85748 31.3891 4.8059 31.4153 4.75566 31.4429C4.71065 31.2379 4.63322 30.9835 4.48426 30.6356L4.51316 31.1402L4.39178 30.7696L4.2706 30.9531C4.39607 31.2469 4.47055 31.4065 4.53951 31.5659C4.49887 31.5899 4.4612 31.6166 4.42103 31.6411C4.32006 31.391 4.19794 31.0846 3.98744 30.7376L3.78517 30.953L3.73263 30.7486C3.7175 30.771 3.73861 30.8569 3.77092 30.9667L3.09507 31.6984C3.09586 31.7109 3.09991 31.7236 3.10139 31.7363L2.95522 31.7213L2.84515 31.8399C2.84515 31.8399 2.92512 32.2435 3.07766 32.8642C2.84017 32.279 2.62545 31.7955 2.59285 32.0037L3.04617 33.1315L3.16391 33.2088C3.33705 33.8813 3.57793 34.73 3.88388 35.5946C4.08087 36.1518 4.30529 36.7132 4.55376 37.2379C4.66893 37.6271 4.79782 38.0041 4.94265 38.3546C4.90682 38.436 4.86797 38.5252 4.76772 38.4474L4.43398 37.6536C4.44112 37.9264 4.32967 38.108 4.19311 38.1361C4.37265 38.6077 4.45582 38.4712 4.61903 39.0636C4.68716 39.0514 4.70227 38.9285 4.48472 38.4285C4.55196 38.413 4.84532 39.172 5.04001 39.5258L5.00083 40.1575C4.96017 40.1097 4.92789 40.0466 4.89939 39.9761L5.2168 40.856C5.15025 40.8717 5.04742 40.6588 4.92054 40.2964C4.91685 40.4678 4.99139 40.7891 5.05632 41.0803C5.00846 41.0918 4.95989 41.1041 4.91132 41.1164C4.78065 40.6574 4.71576 40.3651 4.78572 40.3226L4.62362 40.394C4.38046 39.5427 4.74358 39.6264 4.18859 38.3307C4.21593 38.9514 4.2553 39.8463 4.51164 40.9703C4.03966 40.0095 4.3879 41.2697 4.08474 40.9019C3.98035 40.6915 3.83515 40.4472 3.69379 40.0116L3.71959 39.9634C3.45326 39.8286 3.5119 40.5971 3.65693 41.4323L3.1798 40.475C2.90258 40.3067 3.27382 41.0195 3.52199 41.6481C3.43257 41.7004 3.34505 41.7549 3.26178 41.8158C3.10968 41.713 3.00362 41.7414 2.79087 41.233C2.77942 41.3337 2.75193 41.335 2.89334 41.7158L2.37033 41.5349L2.29745 41.6297C2.29745 41.6297 2.54801 42.7584 2.96838 44.1779C2.98298 44.2288 2.99571 44.2763 3.0117 44.33C3.01159 44.3272 3.01044 44.3229 3.01024 44.3197C3.11083 44.6545 3.22026 45.0032 3.33765 45.3564C3.68408 46.3972 4.10034 47.4691 4.55591 48.3077L4.66281 48.7402C4.74326 48.8134 4.78243 48.7958 4.79403 48.7185C4.92576 48.9293 5.06002 49.116 5.19649 49.2764L5.22817 49.4377C5.24043 49.4153 5.26236 49.3991 5.28294 49.3756C5.44482 49.5507 5.60943 49.6859 5.77578 49.769L5.83154 49.9747L6.07595 49.8448C6.41869 49.8166 6.47153 49.5299 6.5266 49.7354L6.09964 49.883C6.42804 49.8145 6.25444 50.0067 6.1804 50.1665C6.31585 50.1331 6.4492 50.1062 6.57432 50.125C6.60523 50.0241 6.49861 50.0611 6.43407 50.0378C6.57208 49.9004 6.73017 49.6204 6.96598 49.6293C7.2868 49.5193 7.10846 49.9412 7.48258 49.8127C8.9024 49.3601 10.3068 48.9658 11.7042 48.4916L11.7414 49.5615C12.0966 49.7902 12.0773 49.0359 12.0701 48.3649C12.2484 48.3023 12.4263 48.2313 12.6045 48.1652C12.6378 48.2404 12.6709 48.3139 12.6985 48.3857C12.6989 48.2799 12.7078 48.1969 12.7189 48.1225C12.8501 48.0732 12.9811 48.0268 13.1121 47.9754C13.1481 48.0573 13.1851 48.1404 13.223 48.2247C13.2577 48.4449 13.2751 48.6435 13.2605 48.7744C13.2516 48.7806 13.2422 48.7863 13.2333 48.7923C13.132 48.4658 13.1359 48.2151 13.0405 48.0763C13.0743 48.5191 12.5897 47.8208 12.9401 48.9553C12.8927 48.9804 12.854 49.0042 12.8297 49.0295C12.8098 48.9828 12.7893 48.9363 12.7698 48.891C12.786 48.95 12.8002 49.0045 12.813 49.0558C12.8041 49.0727 12.7999 49.0905 12.8063 49.1107C12.8137 49.1087 12.8189 49.1098 12.8258 49.1083C12.9956 49.8018 12.8573 49.7384 12.7205 49.652C12.7167 49.6202 12.7159 49.5932 12.7095 49.5574C12.7148 49.5963 12.7156 49.6243 12.714 49.6481C12.6155 49.5854 12.5215 49.519 12.5466 49.7213C12.5034 49.7275 12.4731 49.7671 12.4853 49.9109C12.4819 49.9186 12.4789 49.9264 12.4755 49.9341L12.4558 49.8545L12.4484 49.999C12.3473 50.2393 12.176 50.5631 11.7072 50.7697C10.4858 51.4537 9.24352 52.3491 8.03585 53.0772C7.98947 52.9567 8.20016 52.7309 8.41205 52.5048C8.24931 52.6025 8.024 52.788 7.8308 52.8055C8.23144 52.8106 7.40962 53.2567 7.68193 53.1915C7.0852 54.1993 5.77239 54.6246 5.21345 55.4508C5.29455 55.6734 5.99838 57.6166 6.70539 59.5681C6.7336 59.6447 6.7622 59.7216 6.79071 59.7981C6.76568 59.7836 6.74447 59.7642 6.73247 59.7313C6.65114 59.7803 6.60867 59.7807 6.64267 59.953C6.72761 59.9522 6.89008 59.8535 6.84216 60.0749C6.70282 60.1978 6.58759 60.0749 6.4638 60.1243C6.46021 60.0751 6.51212 59.9031 6.47255 59.9526C6.18948 60.1498 5.60588 60.2984 5.43233 60.8385C5.5332 60.7644 5.49989 60.5923 5.67334 60.6409Z" fill="white"/>
</g>
</g>
<path fill-rule="evenodd" clip-rule="evenodd" d="M74.9422 23.54C73.7022 23.4602 72.4544 23.6484 71.2158 23.8351C70.6668 23.9179 70.1196 24.0004 69.5757 24.0592C64.0881 24.6526 58.5393 25.0823 55.1922 19.9526C52.4633 15.7705 51.4857 11.09 51.353 6.16086C51.3477 5.95611 51.3079 5.77513 51.2554 5.60509C51.2763 4.82161 50.8951 4.01771 49.964 3.68964C37.9043 -0.555149 36.9365 15.8593 39.2654 23.8756C38.9317 23.9004 38.5989 23.9143 38.2649 23.9268C38.2531 23.626 38.2105 23.329 38.1677 23.0309L38.1483 22.8955C38.1415 22.8514 38.1343 22.8072 38.127 22.763L38.1127 22.6746C38.1188 22.6937 38.1174 22.6447 38.1087 22.509C38.1003 22.289 38.0514 22.0792 37.9805 21.8816C37.9529 21.3353 37.7114 20.7897 37.1713 20.3885C32.0665 16.5875 25.8612 16.0281 19.7882 17.3399C19.5268 17.3962 19.3131 17.4958 19.1309 17.6182C18.902 17.7228 18.6815 17.8917 18.4801 18.1467C15.4003 22.0585 15.325 26.6625 17.7506 30.7929C13.911 35.0808 14.1358 40.6995 18.1457 44.9333C17.2596 48.8792 18.5292 52.4247 21.5469 55.0904C21.2877 57.0795 21.4662 59.0634 22.539 60.8487C23.7675 62.8927 26.0524 63.9569 28.2977 64.4307C28.4762 64.5351 28.6816 64.619 28.9319 64.6605C32.8117 65.3003 36.701 65.808 40.6296 65.9978C40.8205 66.0073 40.9915 65.9855 41.152 65.9504L41.2 65.9489C41.2811 65.9466 41.3623 65.9443 41.448 65.9301C46.5538 65.0742 51.6597 64.1991 56.7136 63.07C58.3973 62.6936 60.0679 62.242 61.739 61.7901C64.8115 60.9595 67.8855 60.1284 71.0452 59.7644C71.377 59.726 71.778 59.7017 72.2174 59.6751C74.4953 59.5371 77.8045 59.3366 77.8418 56.7919C77.9899 46.7927 77.9993 36.7937 78 26.7943C78 26.5594 77.9562 26.3548 77.8935 26.1639L77.836 25.9885C77.2851 24.3061 77.0793 23.6778 74.9422 23.54ZM65.8293 56.702C57.6357 59.3061 49.2044 60.7849 40.7451 62.2055C40.7278 62.2037 40.7114 62.2006 40.6951 62.1975C40.6743 62.1936 40.6535 62.1897 40.6307 62.1885C37.1149 62.019 33.6386 61.5894 30.1659 61.0221C30.0073 60.9387 29.8325 60.8675 29.6231 60.8283C28.2233 60.5667 26.6743 60.1688 25.8067 58.9265C24.9621 57.716 25.1257 56.1198 25.4263 54.7595C25.6442 53.7714 25.1476 53.0252 24.4555 52.649L24.4236 52.617L24.4236 52.6169C24.3664 52.5592 24.3097 52.5018 24.2409 52.4498C21.66 50.4856 21.133 47.7549 22.1146 44.76C22.4502 43.7358 21.9396 42.97 21.1942 42.6264C17.9626 39.451 17.9219 35.7153 21.3121 32.585C21.7851 32.1485 21.9437 31.642 21.8955 31.1618C22.001 30.7473 21.9384 30.2779 21.6081 29.8005C19.7016 27.044 18.9169 23.807 21.0701 20.958C25.776 19.996 30.3506 20.4542 34.373 23.0629C34.3867 23.17 34.4019 23.277 34.4172 23.3841L34.4173 23.3848C34.4251 23.4401 34.433 23.4954 34.4407 23.5508C34.4466 23.5877 34.4526 23.6245 34.4587 23.6613L34.4587 23.6615C34.4648 23.6982 34.4708 23.7348 34.4767 23.7715C34.4723 23.7576 34.4717 23.7877 34.4767 23.8604C33.2274 23.7701 31.9773 23.6113 30.7273 23.3706C28.3431 22.9118 27.326 26.5825 29.7214 27.0435C34.7565 28.0124 39.7513 28.0102 44.7604 26.8845C47.1416 26.3495 46.1316 22.6773 43.7545 23.2117C43.6109 23.2439 43.467 23.2709 43.3232 23.2978C43.2356 23.3142 43.1481 23.3306 43.0606 23.3482C41.5541 18.6371 40.3842 5.83586 47.6022 7.01414C48.1234 17.9312 53.0365 28.709 64.8016 28.1838C64.0764 37.7148 64.9342 47.177 66.0647 56.6516C66.0414 56.6563 66.0183 56.6604 65.9951 56.6645L65.9951 56.6645C65.9411 56.674 65.8869 56.6835 65.8293 56.702ZM69.7278 55.6136C71.1762 55.5173 72.6239 55.4218 74.0722 55.3282C74.1969 46.0755 74.2144 36.8219 74.2148 27.5685C72.3356 27.589 70.4651 27.7473 68.5986 27.9862C67.8736 37.236 68.6491 46.4211 69.7278 55.6136Z" fill="black"/>
</svg>
