<svg width="1800" height="785" viewBox="0 0 1800 785" fill="none" xmlns="http://www.w3.org/2000/svg">
<g opacity="0.4">
<path opacity="0.795593" fill-rule="evenodd" clip-rule="evenodd" d="M1844 534C1844 518.175 1827.97 516.72 1818.28 521.849C1823.16 508.729 1807.36 499.861 1799.08 509.096C1800.59 498.38 1790.81 486.37 1774.25 489.507C1758.07 492.579 1755.58 506.284 1758.06 519.264C1745.62 506.771 1718.36 509.839 1719.01 534H1844Z" stroke="white" stroke-width="0.949"/>
<path opacity="0.795593" fill-rule="evenodd" clip-rule="evenodd" d="M1677 329C1677 314.934 1662.77 313.64 1654.16 318.199C1658.49 306.537 1644.46 298.654 1637.12 306.863C1638.45 297.338 1629.76 286.662 1615.06 289.451C1600.69 292.181 1598.49 304.364 1600.69 315.901C1589.64 304.796 1565.43 307.523 1566.01 329H1677Z" stroke="white" stroke-width="0.949"/>
<path opacity="0.795593" fill-rule="evenodd" clip-rule="evenodd" d="M198 694C198 680.989 185.178 679.789 177.424 684.012C181.328 673.22 168.694 665.929 162.071 673.527C163.274 664.71 155.442 654.834 142.2 657.419C129.257 659.94 127.267 671.21 129.252 681.886C119.295 671.615 97.4874 674.132 98.0092 694H198Z" stroke="white" stroke-width="0.949"/>
<path opacity="0.795593" fill-rule="evenodd" clip-rule="evenodd" d="M1616 710C1616 696.989 1603.18 695.789 1595.42 700.012C1599.32 689.22 1586.69 681.929 1580.07 689.527C1581.27 680.71 1573.44 670.834 1560.2 673.419C1547.25 675.94 1545.26 687.21 1547.25 697.886C1537.3 687.615 1515.48 690.132 1516.01 710H1616Z" stroke="white" stroke-width="0.949"/>
<path opacity="0.795593" fill-rule="evenodd" clip-rule="evenodd" d="M115 306C115 296.509 129.394 293.328 135.776 298.714C136.034 286.38 149.913 283.105 155.946 291.078C157.557 268.388 196.381 272.066 193.565 297.011C203.611 289.521 216.895 297.623 215.952 306H115Z" stroke="white" stroke-width="0.949"/>
<path opacity="0.795593" fill-rule="evenodd" clip-rule="evenodd" d="M-39 510C-39 497.347 -19.4723 493.105 -10.82 500.29C-10.4669 483.836 8.35459 479.474 16.5413 490.106C18.7244 459.853 71.3844 464.752 67.5639 498.005C81.2004 488.022 99.2192 498.822 97.935 510H-39Z" stroke="white" stroke-width="0.949"/>
<path fill-rule="evenodd" clip-rule="evenodd" d="M209.199 651.962C209.199 651.962 214.441 652.877 217.96 655.967C221.317 652.42 225.904 651.051 225.904 651.051" fill="white"/>
<path d="M209.199 651.962C209.199 651.962 214.441 652.877 217.96 655.967C221.317 652.42 225.904 651.051 225.904 651.051" stroke="#5C6680" stroke-width="0.949" stroke-linecap="round" stroke-linejoin="round"/>
<path opacity="0.679688" fill-rule="evenodd" clip-rule="evenodd" d="M687.67 706.748H671.109V686.019H660.146V664.953L640.97 609.083L621.846 664.953V686.019H611.758V706.748H594.957V935H687.67V706.748Z" fill="#6A45FF"/>
<path opacity="0.679688" fill-rule="evenodd" clip-rule="evenodd" d="M687.67 706.748H671.109V686.019H660.146V664.953L640.97 609.083L621.846 664.953V686.019H611.758V706.748H594.957V935H687.67V706.748Z" stroke="white" stroke-width="0.949"/>
<path opacity="0.679688" fill-rule="evenodd" clip-rule="evenodd" d="M1012.77 739.41V713.63H1019.46V702.842H1024.42V699.683H1035.06V702.842H1038.55V699.683H1049.19V702.842H1051.74V699.683H1062.97V702.842H1067.35V713.63H1084.16V702.842H1097.09V679.725H1101.34V702.842H1111.44V679.725H1115.69V702.842H1132.04V713.63H1140.49V739.41H1164.02V935H991.383V739.41H1012.77Z" fill="#6A45FF"/>
<path opacity="0.679688" fill-rule="evenodd" clip-rule="evenodd" d="M1012.77 739.41V713.63H1019.46V702.842H1024.42V699.683H1035.06V702.842H1038.55V699.683H1049.19V702.842H1051.74V699.683H1062.97V702.842H1067.35V713.63H1084.16V702.842H1097.09V679.725H1101.34V702.842H1111.44V679.725H1115.69V702.842H1132.04V713.63H1140.49V739.41H1164.02V935H991.383V739.41H1012.77Z" stroke="white" stroke-width="0.949"/>
<path opacity="0.679688" fill-rule="evenodd" clip-rule="evenodd" d="M1251.94 706.456H1238.52V662.034H1229.63V640.942L1214.09 585L1198.6 640.942V662.034H1190.42V706.456H1176.81V935H1251.94V706.456Z" fill="#6A45FF"/>
<path opacity="0.679688" fill-rule="evenodd" clip-rule="evenodd" d="M1251.94 706.456H1238.52V662.034H1229.63V640.942L1214.09 585L1198.6 640.942V662.034H1190.42V706.456H1176.81V935H1251.94V706.456Z" stroke="white" stroke-width="0.949"/>
<path opacity="0.679688" fill-rule="evenodd" clip-rule="evenodd" d="M956.438 750.1V720.08L931.471 710.952V687.752H927.78V709.595L904.007 700.901V730.917L893.875 727.214V933.394H965.807V753.528L956.438 750.1Z" fill="#6A45FF"/>
<path opacity="0.679688" fill-rule="evenodd" clip-rule="evenodd" d="M956.438 750.1V720.08L931.471 710.952V687.752H927.78V709.595L904.007 700.901V730.917L893.875 727.214V933.394H965.807V753.528L956.438 750.1Z" stroke="white" stroke-width="0.949"/>
<path opacity="0.679688" fill-rule="evenodd" clip-rule="evenodd" d="M416.931 775.384V766.422H378.155V775.384H361.577V935H433.509V775.384H416.931Z" fill="#6A45FF"/>
<path opacity="0.679688" fill-rule="evenodd" clip-rule="evenodd" d="M416.931 775.384V766.422H378.155V775.384H361.577V935H433.509V775.384H416.931Z" stroke="white"/>
<path opacity="0.679688" fill-rule="evenodd" clip-rule="evenodd" d="M1417.59 775.384V766.422H1378.82V775.384H1362.23V935H1434.17V775.384H1417.59Z" fill="#6A45FF"/>
<path opacity="0.679688" fill-rule="evenodd" clip-rule="evenodd" d="M1417.59 775.384V766.422H1378.82V775.384H1362.23V935H1434.17V775.384H1417.59Z" stroke="white"/>
<path opacity="0.679688" fill-rule="evenodd" clip-rule="evenodd" d="M250.864 792.041V779.223H234.218V771.063H224.897V761.605H220.742V771.063H212.942V761.605H208.791V771.063H201.207V779.223H184.561V792.041H174.553V935H260.872V792.041H250.864Z" fill="#6A45FF"/>
<path opacity="0.679688" fill-rule="evenodd" clip-rule="evenodd" d="M250.864 792.041V779.223H234.218V771.063H224.897V761.605H220.742V771.063H212.942V761.605H208.791V771.063H201.207V779.223H184.561V792.041H174.553V935H260.872V792.041H250.864Z" stroke="white" stroke-width="0.949"/>
<path opacity="0.679688" fill-rule="evenodd" clip-rule="evenodd" d="M1342.64 752.334V735.951H1325.99V725.523H1316.67V713.44H1312.51V725.523H1304.72V713.44H1300.57V725.523H1292.98V735.951H1276.33V752.334H1266.32V935H1352.64V752.334H1342.64Z" fill="#6A45FF"/>
<path opacity="0.679688" fill-rule="evenodd" clip-rule="evenodd" d="M1342.64 752.334V735.951H1325.99V725.523H1316.67V713.44H1312.51V725.523H1304.72V713.44H1300.57V725.523H1292.98V735.951H1276.33V752.334H1266.32V935H1352.64V752.334H1342.64Z" stroke="white" stroke-width="0.949"/>
<path fill-rule="evenodd" clip-rule="evenodd" d="M364.1 720.58V702.453H352.676V685.769H344.255V671.778H338.822V656.768H326.675V625.138H322.948V656.768H310.801V671.778H305.368V685.769H296.947V702.453H285.523V720.58H273.66V933.395H375.963V720.58H364.1Z" fill="#6A45FF"/>
<path opacity="0.679688" fill-rule="evenodd" clip-rule="evenodd" d="M364.1 720.58V702.453H352.676V685.769H344.255V671.778H338.822V656.768H326.675V625.138H322.948V656.768H310.801V671.778H305.368V685.769H296.947V702.453H285.523V720.58H273.66V933.395H375.963V720.58H364.1Z" stroke="white" stroke-width="0.949"/>
<path opacity="0.679688" fill-rule="evenodd" clip-rule="evenodd" d="M1078.28 752.484V734.509H1062.84V723.073H1044.61V734.509H1029.17V752.484H1021.75V935H1085.69V752.484H1078.28Z" fill="#6A45FF"/>
<path opacity="0.679688" fill-rule="evenodd" clip-rule="evenodd" d="M1078.28 752.484V734.509H1062.84V723.073H1044.61V734.509H1029.17V752.484H1021.75V935H1085.69V752.484H1078.28Z" stroke="white"/>
<path opacity="0.679688" fill-rule="evenodd" clip-rule="evenodd" d="M823.541 935H777.185V650.826L823.541 680.31V935Z" fill="#6A45FF"/>
<path opacity="0.679688" fill-rule="evenodd" clip-rule="evenodd" d="M823.541 935H777.185V650.826L823.541 680.31V935Z" stroke="white"/>
<path opacity="0.679688" fill-rule="evenodd" clip-rule="evenodd" d="M809.155 935H852.315V705.413L809.155 730.968V935Z" fill="#6A45FF"/>
<path opacity="0.679688" fill-rule="evenodd" clip-rule="evenodd" d="M809.155 935H852.315V705.413L809.155 730.968V935Z" stroke="white"/>
<path opacity="0.679688" fill-rule="evenodd" clip-rule="evenodd" d="M562.138 739.41V713.63H556.871V702.842H552.972V699.683H544.597V702.842H541.847V699.683H533.471V702.842H531.463V699.683H522.632V702.842H519.184V713.63H505.953V702.842H495.774V679.725H492.427V702.842H484.483V679.725H481.137V702.842H468.266V713.63H461.621V739.41H443.1V935H578.972V739.41H562.138Z" fill="#6A45FF"/>
<path opacity="0.679688" fill-rule="evenodd" clip-rule="evenodd" d="M562.138 739.41V713.63H556.871V702.842H552.972V699.683H544.597V702.842H541.847V699.683H533.471V702.842H531.463V699.683H522.632V702.842H519.184V713.63H505.953V702.842H495.774V679.725H492.427V702.842H484.483V679.725H481.137V702.842H468.266V713.63H461.621V739.41H443.1V935H578.972V739.41H562.138Z" stroke="white" stroke-width="0.949"/>
<path fill-rule="evenodd" clip-rule="evenodd" d="M682.874 786.373H715.245V766.422H762.357V786.373H792.337V766.422H838.768L838.507 786.373H871.496V935L682.874 934.582V786.373Z" fill="#6A45FF"/>
<path opacity="0.679688" fill-rule="evenodd" clip-rule="evenodd" d="M682.874 786.373H715.245V766.422H762.357V786.373H792.337V766.422H838.768L838.507 786.373H871.496V935L682.874 934.582V786.373Z" stroke="white" stroke-width="0.949"/>
<path fill-rule="evenodd" clip-rule="evenodd" d="M712.627 670.374C712.627 670.374 718.106 671.57 721.783 675.607C725.291 670.972 730.085 669.184 730.085 669.184" fill="white"/>
<path d="M712.627 670.374C712.627 670.374 718.106 671.57 721.783 675.607C725.291 670.972 730.085 669.184 730.085 669.184" stroke="#5C6680" stroke-width="0.949" stroke-linecap="round" stroke-linejoin="round"/>
</g>
<path opacity="0.289891" fill-rule="evenodd" clip-rule="evenodd" d="M1636 179.001C1636 181.76 1633.76 184 1631 184C1628.24 184 1626 181.76 1626 179.001C1626 176.24 1628.24 174 1631 174C1633.76 174 1636 176.24 1636 179.001Z" stroke="white" stroke-width="1.963" stroke-linecap="round" stroke-linejoin="round"/>
<path opacity="0.300108" d="M197.737 166.163L188.817 181.614" stroke="white" stroke-width="2.328" stroke-linecap="round" stroke-linejoin="round"/>
<path opacity="0.300108" d="M201.068 178.385L185.488 169.39" stroke="white" stroke-width="2.328" stroke-linecap="round" stroke-linejoin="round"/>
<path opacity="0.260982" d="M1420.25 373.995L1427.75 361.005" stroke="white" stroke-width="2.328" stroke-linecap="round" stroke-linejoin="round"/>
<path opacity="0.260982" d="M1429.99 370.75L1417 363.25" stroke="white" stroke-width="2.328" stroke-linecap="round" stroke-linejoin="round"/>
<rect opacity="0.289891" x="340.5" y="371.722" width="11" height="11" rx="3" transform="rotate(45 340.5 371.722)" stroke="white" stroke-width="2"/>
<rect opacity="0.289891" x="1497.5" y="2.30777" width="13" height="13" rx="3" transform="rotate(45 1497.5 2.30777)" stroke="white" stroke-width="2"/>
<path opacity="0.289891" fill-rule="evenodd" clip-rule="evenodd" d="M348 17.999C348 20.2097 346.211 22 344 22C341.791 22 340 20.2097 340 17.999C340 15.7903 341.791 14 344 14C346.211 14 348 15.7903 348 17.999Z" stroke="white" stroke-width="2.328" stroke-linecap="round" stroke-linejoin="round"/>
</svg>
