<svg width="506" height="577" viewBox="0 0 506 577" fill="none" xmlns="http://www.w3.org/2000/svg">
<path fill-rule="evenodd" clip-rule="evenodd" d="M397.35 242.736C403.503 256.043 419.979 305.13 427.229 342.109C429.624 354.25 431.021 365.087 430.712 372.929C430.688 373.77 430.651 374.58 430.573 375.359L401.961 387.732C401.409 381.983 400.812 376.096 400.161 370.061C399.041 359.847 397.746 349.263 396.155 338.438C391.88 309.299 385.457 278.476 374.616 248.817L397.35 242.736Z" fill="#FF5C33"/>
<path fill-rule="evenodd" clip-rule="evenodd" d="M430.568 374.239L401.668 370.018C400.365 361.11 398.923 351.916 397.275 342.517C399.185 341.713 400.41 341.062 400.41 341.062L400.896 337.918C409.517 337.718 417.884 339.368 425.928 343.223C428.719 355.486 430.513 366.4 430.568 374.239Z" fill="#C8482C"/>
<path fill-rule="evenodd" clip-rule="evenodd" d="M427.43 61.7668L486.311 248.508L294.859 308.726L273.996 242.553C269.872 247.334 264.38 251.086 257.867 253.135C239.621 258.873 220.293 249.109 214.683 231.313C209.069 213.518 219.307 194.453 237.557 188.713C244.066 186.666 250.713 186.583 256.844 188.155L235.978 121.984L303.502 100.746C298.886 96.8225 295.307 91.6273 293.371 85.4834C287.766 67.7026 298.014 48.6184 316.246 42.8842C334.495 37.1441 353.828 46.924 359.434 64.7048C361.37 70.8488 361.422 77.1531 359.903 83.0066L427.43 61.7668Z" fill="#007BFF"/>
<path fill-rule="evenodd" clip-rule="evenodd" d="M313.771 123.999C326.357 120.058 334.64 108.987 342.657 98.2744C344.395 95.9494 346.196 93.5429 347.997 91.275C350.421 88.2196 352.939 85.3639 355.529 82.6963C355.607 82.2498 355.662 81.7972 355.722 81.3469C352.844 84.2514 350.054 87.3826 347.373 90.7582C345.568 93.0338 343.762 95.4454 342.019 97.7762C334.08 108.39 325.871 119.367 313.52 123.226C299.205 127.703 283.908 120.675 273.433 110.031L272.58 110.295C276.933 114.802 281.993 118.562 287.404 121.202C296.427 125.604 305.544 126.571 313.771 123.999Z" fill="white"/>
<path fill-rule="evenodd" clip-rule="evenodd" d="M421.035 143.278C412.619 148.821 403.919 154.551 397.486 162.153C382.631 179.702 380.91 207.838 393.299 230.577C401.394 245.44 414.808 257.91 431.923 266.765L433.01 266.424C415.687 257.624 402.119 245.133 393.987 230.202C381.752 207.745 383.438 179.973 398.084 162.669C404.447 155.152 413.102 149.451 421.469 143.94C428.066 139.594 434.78 135.162 440.345 129.814L440.092 129.015C434.638 134.31 427.944 138.727 421.035 143.278Z" fill="white"/>
<path fill-rule="evenodd" clip-rule="evenodd" d="M251.409 251.827C256.662 238.286 265.996 227.63 277.677 222.679C284.707 219.699 292.56 218.672 300.151 217.681C309.628 216.44 319.42 215.163 327.624 210.05C339.675 202.535 345.776 188.312 350.676 176.885L397.383 67.9685L396.384 68.2817L349.948 176.566C343.982 190.476 338.154 202.545 327.199 209.375C319.166 214.389 309.441 215.661 300.045 216.89C292.4 217.889 284.493 218.924 277.365 221.945C265.402 227.018 255.849 237.979 250.539 251.885C250.829 251.871 251.119 251.849 251.409 251.827Z" fill="white"/>
<path fill-rule="evenodd" clip-rule="evenodd" d="M328.863 280.539C315.156 279.924 301.307 282.952 288.889 288.947L289.12 289.681C301.443 283.713 315.199 280.695 328.817 281.304C339.729 281.793 350.425 284.616 360.158 289.331L361.235 288.987C351.221 284.011 340.154 281.043 328.863 280.539Z" fill="white"/>
<path fill-rule="evenodd" clip-rule="evenodd" d="M316.958 558.161L319.216 569.6L304.374 592.847L347.944 580.193L334.964 550.267L316.958 558.161Z" fill="#001F40"/>
<path fill-rule="evenodd" clip-rule="evenodd" d="M329.871 576.339L320.457 570.971L321.129 569.661L330.543 575.029L329.871 576.339Z" fill="white"/>
<path fill-rule="evenodd" clip-rule="evenodd" d="M417.991 426.797C417.991 426.797 417.782 438.832 409.499 451.63C402.993 461.699 391.499 472.247 371.184 477.787L357.119 481.184L350.998 482.666L343.733 484.417L325.934 488.723L326.015 489.076L340.492 549.602L336.344 551.214L317.387 558.573L311.463 560.865L281.264 486.215L360.676 431.692L384.005 415.672L385.215 414.831L392.526 417.495L409.192 423.58L417.991 426.797Z" fill="#FFB900"/>
<path fill-rule="evenodd" clip-rule="evenodd" d="M411.281 422.607C411.281 422.607 411.297 423.504 411.16 425.096C410.786 429.572 409.318 439.483 403.533 450.115C396.635 462.75 383.628 476.405 359.02 483.097C357.053 483.633 355.009 484.123 352.872 484.571C352.054 484.751 351.21 484.912 350.367 485.069L345.575 486.314L327.78 490.957L293.876 499.796L290.152 506.069L247.98 577.066L220.072 559.297L259.964 481.396C262.517 476.412 266.233 472.138 270.792 468.954C272.955 467.441 275.273 466.187 277.73 465.227L335.896 442.161L353.182 429.294L373.345 414.28L385.811 417.019L394.384 418.89L411.281 422.607Z" fill="#FFB900"/>
<path fill-rule="evenodd" clip-rule="evenodd" d="M389.078 472.221C388.154 472.712 387.216 473.191 386.251 473.66C373.186 480.05 299.233 498.793 293.944 500.128L279.935 522.101L279.137 521.639L293.355 499.334L293.55 499.285C294.339 499.088 372.686 479.282 385.857 472.841C398.96 466.428 408.373 458.103 413.022 448.761L413.87 449.137C409.464 457.982 400.927 465.921 389.078 472.221Z" fill="#001F40"/>
<path fill-rule="evenodd" clip-rule="evenodd" d="M411.395 453.845C408.729 453.299 406.051 452.674 403.365 451.978C403.599 451.586 403.826 451.197 404.048 450.807C410.212 439.943 411.896 429.882 412.357 425.343L421.471 428.519C421.471 428.519 421.125 439.9 413.29 452.511C413.582 451.979 413.856 451.444 414.119 450.902L413.233 450.497C412.684 451.631 412.071 452.749 411.395 453.845ZM395.096 419.335L386.253 417.582L387.523 416.706L395.096 419.335Z" fill="#E5A907"/>
<path fill-rule="evenodd" clip-rule="evenodd" d="M401.763 451.401C385.915 446.828 369.679 439.483 353.063 429.442L372.666 414.774L384.863 417.551L393.25 419.449L409.78 423.218C409.78 423.218 409.801 424.102 409.677 425.67C409.34 430.078 407.968 439.835 402.383 450.276C402.182 450.651 401.976 451.024 401.763 451.401Z" fill="#E5A907"/>
<path fill-rule="evenodd" clip-rule="evenodd" d="M411.61 453.406C411.284 453.331 410.953 453.255 410.626 453.176C411.322 451.984 411.95 450.767 412.509 449.53L413.466 449.998C413.199 450.588 412.919 451.172 412.619 451.752C412.298 452.301 411.962 452.854 411.61 453.406Z" fill="#001F40"/>
<path fill-rule="evenodd" clip-rule="evenodd" d="M403.43 331.904L406.105 359.084L384.922 360.997L383.883 354.65L381.225 338.336L395.625 338.346L403.43 331.904Z" fill="#FFBA9A"/>
<path fill-rule="evenodd" clip-rule="evenodd" d="M395.471 338.381L396.445 340.962C393.494 346.692 389.236 351.193 383.574 354.348L381.217 338.613L395.471 338.381Z" fill="#001F40"/>
<path fill-rule="evenodd" clip-rule="evenodd" d="M371.086 318.274C371.086 318.274 370.792 342.514 378.181 345.229C385.572 347.946 398.068 341.302 398.068 341.302L401.722 319.977L387.633 313.902L371.086 318.274Z" fill="#FFBA9A"/>
<path fill-rule="evenodd" clip-rule="evenodd" d="M372.243 326.942C369.433 330.93 367.508 334.704 369.201 335.764C371.49 337.196 374.485 337.076 374.485 337.076L372.243 326.942Z" fill="#FFBA9A"/>
<path fill-rule="evenodd" clip-rule="evenodd" d="M360.896 311.495C365.227 319.131 369.572 324.538 381.448 318.648C383.148 318.806 388.971 325.893 388.466 327.983L401.824 339.566C408.413 327.086 411.029 312.946 397.782 308.749C397.782 308.749 388.369 298.08 378.232 304.864C368.26 311.531 360.896 311.495 360.896 311.495Z" fill="#001F40"/>
<path fill-rule="evenodd" clip-rule="evenodd" d="M395.222 329.037C394.42 332.01 391.883 333.958 389.552 333.384C387.219 332.813 385.978 329.939 386.778 326.964C387.579 323.988 390.118 322.043 392.447 322.614C394.78 323.185 396.02 326.063 395.222 329.037Z" fill="#FFBA9A"/>
<path fill-rule="evenodd" clip-rule="evenodd" d="M392.555 330.303L391.424 330.801C390.672 329.145 390.675 327.13 391.43 325.778C391.934 324.876 392.727 324.379 393.664 324.365L393.774 325.694C393.249 325.7 392.831 325.974 392.532 326.51C391.989 327.485 391.997 329.075 392.555 330.303Z" fill="#001F40"/>
<path fill-rule="evenodd" clip-rule="evenodd" d="M383.613 336.474C381.416 337.642 378.695 336.81 377.527 334.613C376.36 332.42 377.191 329.695 379.387 328.527C381.581 327.361 384.307 328.194 385.473 330.388C386.641 332.584 385.806 335.307 383.613 336.474Z" fill="#FFA785"/>
<path fill-rule="evenodd" clip-rule="evenodd" d="M353.456 413.789L366.279 364.64C366.757 362.798 367.941 361.208 369.567 360.232C381.159 353.256 387.445 352.685 398.197 351.688C402.861 351.253 407.575 351.769 412.042 353.203C423.258 356.804 430.616 367.617 429.866 379.391L426.586 430.656C426.249 435.918 421.167 439.507 416.106 438.054L359.033 422.438C355.249 421.403 352.841 417.666 353.456 413.789Z" fill="#FF5C33"/>
<path fill-rule="evenodd" clip-rule="evenodd" d="M322.446 248.516C322.278 248.707 322.114 248.912 321.954 249.135C320.599 247.719 316.349 248.357 315.331 252.46C314.588 250.003 310.381 251.315 308.112 254.357C301.348 262.938 300.501 277.118 304.052 293.142L329.067 280.774C326.516 270.527 325.958 260.53 328.477 251.687C329.481 248.157 324.938 245.704 322.446 248.516Z" fill="#FFBA9A"/>
<path fill-rule="evenodd" clip-rule="evenodd" d="M360.98 387.195L386.151 362.664C373.298 358.705 339.408 318.688 330.064 281.993L302.927 285.552C307.83 324.336 332.795 363.172 360.98 387.195Z" fill="#FF5C33"/>
<path fill-rule="evenodd" clip-rule="evenodd" d="M227.066 557.802L219.516 567.396L191.95 570.726L229.27 598.45L244.58 567.465L227.066 557.802Z" fill="#001F40"/>
</svg>
