<svg width="1195" height="794" viewBox="0 0 1195 794" fill="none" xmlns="http://www.w3.org/2000/svg">
<path d="M152.751 371.391L152.918 370.03L514.029 414.132L513.862 415.493L152.751 371.391Z" fill="#10100E"/>
<rect x="219" y="108" width="567" height="372" rx="15" fill="white" stroke="black" stroke-width="1.7"/>
<path d="M862.639 205.18C846.938 204.875 831.54 201.035 816.349 197.042C797.675 192.108 777.826 186.075 765.754 170.907C762.504 166.838 759.864 161.889 760.005 156.665C760.142 151.629 762.837 147 766.153 143.216C791.856 113.974 839.963 129.676 866.959 148.16C881.04 157.799 886.384 170.307 889.256 186.502C890.008 190.739 890.7 195.378 888.62 199.142C886.405 203.15 881.696 204.966 877.29 206.126C870.441 207.925 863.402 208.89 856.325 209L862.639 205.18Z" fill="#10100E"/>
<path d="M714 372.045L562.243 296.231C551.164 290.669 538.916 287.849 526.525 288.006C523.39 288.057 520.259 288.15 517.131 288.288C503.415 288.886 479.491 288.791 468.214 298.343C467.222 299.12 466.489 300.18 466.112 301.384C465.294 304.401 467.657 306.271 470.056 306.678C474.904 307.493 480.319 306.824 485.197 306.718C493.127 306.553 501.161 306.628 509.056 306.03C512.89 305.738 516.538 306.361 518.405 310.192C520.132 313.747 518.907 319.649 514.099 319.649L494.758 320.484C481.047 319.478 461.816 323.641 449.174 329.075C446.665 330.151 443.453 331.715 441.967 334.103C437.656 340.991 448.928 341.735 452.792 341.795C461.996 341.941 471.005 340.106 480.124 339.231C480.706 339.176 481.308 339.13 481.915 339.095L483.15 344.842C479.785 345.602 476.362 346.076 472.917 346.259C466.172 346.762 442.454 344.439 442.735 355.449C442.916 362.619 451.467 362.669 456.551 362.252L486.372 359.813L488.148 368.063L457.284 372.618C454.042 373.121 451.407 375.745 451.302 379.023C451.126 384.594 457.826 385.654 462.784 385.413L491.581 384.015L492.379 387.711C491.511 387.892 490.597 387.826 489.814 388.042C484.003 389.676 463.773 390.647 462.935 398.756C462.473 403.21 468.084 405.93 471.783 406.332C478.628 407.071 483.255 403.864 490.126 404.321C496.007 404.729 504.519 403.819 510.095 407.036L667.468 492L714 372.045Z" fill="white"/>
<path d="M713.685 372.148L579.309 305.046C573.595 302.196 567.91 299.271 562.161 296.516C540.607 286.068 515.644 287.037 492.341 289.992C484.321 291.021 473.544 292.637 467.449 298.658C465.634 300.46 464.171 302.934 465.594 305.478C467.664 309.156 474 308.449 477.273 308.393C484.652 308.278 492.05 308.032 499.429 307.826C502.938 307.726 507.053 306.863 510.567 307.324C519.644 308.519 520.557 317.862 512.737 319.789C507.273 321.129 500.095 320.547 494.436 320.572C481.965 320.622 470.161 322.002 458.171 325.716C453.749 327.081 438.466 330.824 440.125 338.206C441.338 343.59 450.922 343.138 454.952 343.063C462.025 342.933 469.018 341.733 476.005 340.915C476.973 340.8 480.416 339.791 480.988 340.238C481.202 340.865 481.341 341.515 481.404 342.175C483.554 346.626 478.717 345.718 475.093 346.079C467.855 346.791 438.682 343.369 441.95 357.62C443.389 363.903 451.133 363.762 456.181 363.496C464.291 363.06 472.471 362.312 480.552 361.489C479.81 361.565 485.414 360.817 485.424 360.827C485.805 361.128 485.674 362.458 485.875 362.934C486.126 363.522 487.379 367.576 487.028 368.284C486.827 368.71 478.827 369.363 477.298 369.588L465.739 371.289C461.559 371.907 455.369 371.56 452.206 375.048C447.088 380.713 452.757 385.756 458.486 386.469C464.832 387.262 471.714 386.148 478.08 385.837C480.456 385.721 487.369 384.271 489.609 385.235C490.491 385.616 491.389 385.32 491.113 387.141C490.867 388.682 491.524 387.066 490.517 387.834C488.562 389.309 482.998 389.169 480.632 389.585C476.491 390.313 472.181 391.051 468.311 392.762C463.298 394.965 459.348 399.862 464.386 404.504C467.128 407.013 471.073 407.71 474.657 407.515C481.063 407.199 487.013 405.452 493.534 405.608C499.735 405.758 505.514 406.15 511.078 409.015C514.055 410.556 516.983 412.202 519.935 413.797L662.818 490.915L666.552 492.922C666.718 493.013 666.916 493.025 667.091 492.954C667.266 492.883 667.399 492.736 667.455 492.556L708.202 387.643C710.116 382.702 712.035 377.763 713.956 372.825C714.242 372.082 713.054 371.766 712.768 372.499C704.44 393.936 696.113 415.375 687.785 436.815C682.439 450.635 677.072 464.454 671.685 478.274C670.181 482.133 668.357 486.002 667.144 489.961C667.013 490.393 666.678 491.798 666.312 492.109C666.648 491.823 667.605 491.898 666.407 491.447C659.434 488.817 652.668 484.03 646.121 480.497L607.68 459.748L526.978 416.206C520.852 412.904 514.727 408.829 508.256 406.21C502.782 403.997 496.446 404.464 490.672 404.303C484.286 404.128 472.446 409.236 467.203 404.935C465.238 403.325 463.193 398.206 464.907 396.249C466.005 394.97 468.622 393.936 470.09 393.384C472.438 392.557 474.846 391.913 477.293 391.457C482.11 390.453 487.123 389.45 492.005 388.893C492.195 388.888 492.372 388.797 492.487 388.646C492.602 388.495 492.642 388.299 492.597 388.115C492.329 386.884 492.065 385.654 491.805 384.427C491.731 384.158 491.487 383.971 491.208 383.97L472.907 384.858C468.281 385.084 460.877 386.68 456.366 384.858C450.381 379.506 450.627 375.826 457.103 373.819L459.669 373.442C462.958 372.604 466.587 372.439 469.945 371.937L487.93 369.287C488.255 369.19 488.445 368.853 488.361 368.525L486.587 360.29C486.511 360.023 486.267 359.839 485.99 359.838C475.875 360.666 465.729 361.775 455.594 362.312C452.692 362.468 448.441 362.814 445.96 361.048C439.709 356.531 444.291 351.107 449.148 349.416C459.739 345.728 471.985 348.442 482.938 346.104C483.262 346.009 483.452 345.674 483.369 345.346C482.958 343.436 482.545 341.524 482.131 339.611C482.058 339.343 481.816 339.158 481.539 339.159C470.406 340.002 457.624 344.036 446.521 341.256C441.81 340.077 440.005 336.971 444.556 332.881C446.937 330.734 450.571 329.665 453.549 328.586C459.352 326.493 465.308 324.852 471.364 323.678C485.444 320.903 499.805 323.452 513.79 320.989C518.652 320.131 520.762 315.133 518.537 310.631C517.294 308.122 515.028 306.778 512.376 306.271C505.94 305.041 498.025 306.662 491.459 306.772C488 306.823 484.552 306.878 481.093 307.028C478.587 307.134 474.416 308.157 472.176 307.124C461.865 302.387 469.9 298.041 473.509 296.245C476.624 294.761 479.896 293.633 483.263 292.883C493.223 290.484 503.569 290.223 513.76 289.837C531.715 289.154 547.625 290.685 563.925 298.789C571.013 302.311 578.092 305.846 585.163 309.392L660.171 346.837L713.054 373.236C713.771 373.553 714.397 372.489 713.685 372.148Z" fill="#10100E"/>
<path d="M974.142 295.369L962.622 297.479L895.624 211.023H895.675C900.98 211.029 905.402 206.962 905.84 201.673C906.278 196.384 902.586 191.644 897.352 190.777C892.118 189.91 887.095 193.205 885.805 198.353L870.808 179C824.626 191.559 842.337 245.983 842.337 245.983L860.963 231.269L890.523 310.689C882.715 305.758 874.398 301.684 865.716 298.539C865.555 334.595 897.507 365.997 934.076 354.639C961.83 345.629 973.264 321.88 975 295.218C974.712 295.273 974.445 295.314 974.142 295.369Z" fill="white"/>
<path fill-rule="evenodd" clip-rule="evenodd" d="M888.365 347.93C897.427 354.596 907.76 358 918.438 358C923.738 357.991 929.006 357.187 934.064 355.616C966.074 345.304 974.495 317.166 975.924 295.371L976 294.234L962.896 296.573L896.745 211.83C902.082 211.04 906.09 206.58 906.276 201.225C906.463 195.87 902.774 191.146 897.506 189.992C892.237 188.838 886.89 191.582 884.791 196.518L870.334 178L869.754 178.157C857.189 181.55 848.092 188.287 842.717 198.169C831.581 218.642 840.078 245.194 840.45 246.316L840.851 247.538L859.666 232.787L888.142 308.657C880.874 304.29 873.191 300.645 865.203 297.774L864.003 297.345V298.613C863.922 317.929 873.253 336.821 888.365 347.93ZM889.438 346.516C875.114 335.987 866.144 318.232 865.819 299.926V299.9C874.065 302.971 881.975 306.866 889.428 311.525L891.676 312.919L860.556 229.863L841.868 244.508C840.307 238.998 834.937 216.374 844.375 199.023C849.43 189.736 857.952 183.353 869.724 180.045L885.579 200.412L886.031 198.624C887.219 193.923 891.845 190.916 896.658 191.717C901.472 192.518 904.858 196.858 904.438 201.687C904.018 206.516 899.933 210.214 895.052 210.183H893.206L962.184 298.557L974.052 296.396C972.446 317.469 964.035 344.092 933.525 353.915C918.067 358.677 902.41 356.051 889.438 346.516Z" fill="#10100E"/>
<path d="M1143.39 403.757C1123.1 328.998 1049.17 282.158 973.052 295.672C971.321 322.266 959.973 345.956 932.255 354.943C895.785 366.272 863.948 334.949 864.109 298.985C777.848 268.115 718.852 366.715 718.852 366.715L667.583 346.263C679.409 405.982 605 471.547 605 471.547L877.193 584.083L1053.49 611L1160 464.946L1143.39 403.757Z" fill="#006BFF"/>
<path d="M912 607.428L1003.44 390L1186 444.695L1094.02 673L912 607.428Z" fill="#EBEBEB"/>
<path d="M165 420.442C156.768 411.701 149.406 407 149.406 407L140 429.755C149.116 431.059 157.872 427.049 165 420.442Z" fill="#10100E"/>
<path fill-rule="evenodd" clip-rule="evenodd" d="M139.895 430.748C141.047 430.916 142.209 431 143.373 431C150.883 431 158.607 427.605 165.492 421.157L166 420.664L165.492 420.14C160.755 414.99 155.481 410.397 149.764 406.446L149.073 406L139 430.622L139.895 430.748ZM163.992 420.58C156.802 427.107 148.692 430.229 140.988 429.426L149.714 408.109C154.857 411.774 159.639 415.951 163.992 420.58Z" fill="#10100E"/>
<path d="M165.123 421C158.144 427.414 149.551 431.291 140.613 430.027L137.971 436.351C136.369 430.768 131.459 426.809 125.713 426.467C119.968 426.126 114.632 429.477 112.393 434.832C110.154 440.187 111.497 446.387 115.745 450.308C119.994 454.23 126.227 455.024 131.307 452.291L96 536.779L155.717 563L165.267 473.84L186.821 475.889C188.651 451.319 176.094 432.53 165.123 421Z" fill="white"/>
<path fill-rule="evenodd" clip-rule="evenodd" d="M95 536.854L156.587 564L166.173 474.227L187.752 476.288L187.817 475.374C189.685 450.364 176.925 431.242 165.894 419.626L165.296 419L164.658 419.586C157.255 426.394 148.81 429.535 140.883 428.414L140.21 428.323L138.162 433.237C134.848 426.089 126.545 422.883 119.379 425.986C112.213 429.088 108.756 437.384 111.558 444.754C114.36 452.125 122.415 455.924 129.782 453.348L95 536.854ZM155.092 561.384L97.2969 535.919L133.2 449.652L130.998 450.843C126.248 453.411 120.418 452.668 116.444 448.988C112.47 445.308 111.214 439.489 113.308 434.463C115.402 429.437 120.392 426.292 125.765 426.614C131.138 426.935 135.729 430.653 137.226 435.894L137.923 438.323L141.271 430.278C149.318 431.182 157.748 428.061 165.187 421.495C175.709 432.768 187.533 450.864 186.113 474.328L164.599 472.278L155.092 561.384Z" fill="#10100E"/>
<circle cx="124.661" cy="370.445" r="49.1908" transform="rotate(-45 124.661 370.445)" fill="#10100E"/>
<path fill-rule="evenodd" clip-rule="evenodd" d="M78.7708 389.447C86.4339 407.943 104.485 420.002 124.506 420C151.829 419.967 173.97 397.824 174 370.501C174 350.48 161.939 332.43 143.442 324.769C124.945 317.108 103.654 321.343 89.4977 335.501C75.3414 349.659 71.1077 370.95 78.7708 389.447ZM80.0291 352.076C87.4814 334.088 105.036 322.361 124.506 322.363C151.077 322.396 172.608 343.93 172.638 370.501C172.638 389.971 160.909 407.524 142.921 414.974C124.933 422.425 104.228 418.305 90.4607 404.537C76.6939 390.769 72.5768 370.063 80.0291 352.076Z" fill="#10100E"/>
<path d="M165.047 434.248C165.781 436.534 167.024 438.682 168.709 440.576C169.618 441.599 171.694 440.576 170.767 439.558C169.195 437.812 168.035 435.827 167.35 433.712C166.948 432.463 164.645 432.994 165.047 434.248Z" fill="#10100E"/>
<path d="M178.702 438.937C182.189 440.034 185.431 441.755 188.26 444.01V442.633C186.41 444.053 184.353 445.2 182.155 446.037C180.953 446.515 181.477 448.394 182.69 447.926C185.213 446.966 187.574 445.648 189.695 444.015C189.89 443.834 190 443.585 190 443.324C190 443.063 189.89 442.813 189.695 442.633C186.605 440.153 183.059 438.26 179.241 437.053C178 436.661 177.465 438.55 178.702 438.942V438.937Z" fill="#10100E"/>
<path d="M176.466 459.672C179.466 461.922 183.36 461.259 185.734 458.093C186.588 456.915 185.186 455.23 184.332 456.39C182.594 458.777 179.685 459.277 177.47 457.569C176.383 456.744 175.384 458.83 176.466 459.649V459.672Z" fill="#10100E"/>
<path d="M119.261 436.803C121.692 439.697 124.365 442.358 127.248 444.754C128.217 445.582 129.671 444.12 128.653 443.287C125.771 440.89 123.097 438.231 120.661 435.341C119.818 434.325 118.417 435.808 119.261 436.808V436.803Z" fill="#10100E"/>
<path d="M410 613.968C369.026 581.391 324.329 553.811 276.85 531.807C263.056 548.554 247.82 567.173 235.769 582.194C205.664 544.967 168.737 516.83 124.913 513.339C-16.5556 502.06 0.659577 775.83 0.659577 775.83L0.0216074 793H336.086C336.086 793 334.077 785.313 330.058 772.5C338.874 750.269 369.597 675.911 410 613.968Z" fill="#FFC100"/>
<path d="M386.898 621C404.486 583.837 419.852 551.246 426.055 537.719C444.35 497.825 414.58 483.136 414.58 483.136C413.023 465.772 399.72 463.866 399.72 463.866C395.88 448.825 381.045 449.831 381.045 449.831C378.041 420.755 344.536 430.284 344.536 430.284L332.204 373.56C331.863 371.983 330.882 370.621 329.498 369.801C328.114 368.982 326.453 368.781 324.914 369.245C322.429 369.997 320.747 372.321 320.804 374.927L322.546 451.148C298.749 467.713 318.145 496.749 318.145 496.749C318.145 496.749 306.129 516.603 292 540.273C326.772 562.546 358.75 590.048 386.898 621Z" fill="white"/>
<path fill-rule="evenodd" clip-rule="evenodd" d="M386.083 620.992L386.98 622L387.55 620.805C408.219 577.328 421.485 549.239 426.973 537.324C444.281 499.743 419.186 483.791 415.457 481.684C413.859 466.321 403.048 462.803 400.377 462.163C396.733 449.184 384.939 448.035 381.648 447.97C380.701 440.399 377.571 434.744 372.339 431.216C362.531 424.568 348.51 427.3 344.775 428.192L332.563 372.245C331.816 368.893 328.656 366.648 325.245 367.045C321.835 367.443 319.275 370.353 319.318 373.787L321.057 449.709C298.956 465.459 314.066 491.956 316.48 495.877C316.261 496.24 315.92 496.804 315.467 497.55C311.969 503.325 301.847 520.037 290.449 539.032L290 539.778L290.736 540.247C325.028 562.107 357.108 589.274 386.083 620.992ZM386.507 618.835C357.864 587.62 326.228 560.867 292.429 539.234C306.31 516.104 318.179 496.553 318.315 496.371L318.612 495.867L318.295 495.394C317.519 494.234 299.546 466.825 322.488 450.923L322.886 450.651L321.122 373.772C321.073 371.562 322.504 369.591 324.62 368.953C325.93 368.563 327.343 368.735 328.521 369.428C329.698 370.121 330.535 371.273 330.829 372.608L343.429 430.394L344.342 430.137C344.508 430.087 360.853 425.581 371.336 432.693C376.291 436.054 379.194 441.528 379.96 448.958L380.05 449.814L380.912 449.759C381.492 449.719 395.15 448.983 398.789 463.146L398.94 463.72L399.53 463.806C400.044 463.887 412.236 465.868 413.718 482.314L413.763 482.818L414.217 483.04C415.406 483.65 443.167 497.883 425.35 536.573C419.912 548.372 406.848 576.043 386.507 618.835Z" fill="#10100E"/>
<path d="M889 389L1001 472.356L920.791 510L889 389Z" fill="#10100E"/>
<path d="M841 675.124L661.995 752L600 531.318L746.12 487L841 675.124Z" fill="#EBEBEB"/>
<path d="M526.619 443.889C521.052 449.571 515.41 459 521.192 464.462C523.25 466.406 526.317 467.117 528.13 469.292C533.862 476.151 521.423 485.575 523.291 494.313C524.927 501.979 537.13 507.15 533.465 514.089C531.171 518.438 524.139 518.233 521.674 522.492C517.879 529.045 528.667 535.173 529.384 542.709C530.147 550.725 519.159 557.469 522.131 564.97C523.777 569.118 529.159 570.982 530.439 575.271C532.833 583.238 519.33 588.879 520.63 597.096C521.483 602.502 528.295 605.008 530.213 610.123C532.948 617.433 524.812 626.833 529.947 632.71C535.012 638.502 547.922 633.637 550.292 640.952C550.914 642.871 550.392 644.96 550.794 646.965C551.828 652.286 558.996 654.225 564.051 652.235C569.105 650.246 572.689 645.807 576.705 642.155C580.721 638.502 586.167 635.386 591.373 636.934C595.389 638.121 599.244 641.944 603.029 640.18C607.185 638.262 606.372 631.703 609.735 628.597C615.804 622.98 628.037 633.467 633.082 626.918C635.089 624.298 634.301 620.405 635.802 617.463C639.562 610.063 652.262 614.908 658.366 609.277C662.261 605.684 661.573 598.9 658.024 594.967C654.476 591.034 648.989 589.455 643.683 589.035C646.193 580.722 647.297 569.138 639.251 565.837C636.555 564.729 633.343 564.955 630.918 563.331C622.957 558.005 633.804 543.706 627.685 536.34C624.076 531.996 616.542 532.908 612.892 528.599C607.436 522.141 614.684 509.239 607.34 505.051C604.956 503.693 601.774 503.998 599.68 502.235C593.868 497.325 604.63 488.406 602.692 481.066C601.036 474.853 592.121 474.628 587.367 470.284C579.336 462.969 585.158 446.164 575.47 441.279C570.953 439.014 564.337 440.387 561.696 436.098C559.613 432.721 561.757 428.207 560.602 424.409C558.935 418.897 551.782 417.735 546.045 417.559C550.176 411.412 546.381 401.657 539.173 399.903C537.085 399.402 534.806 399.447 532.933 398.4C528.893 396.115 528.757 389.972 525.037 387.197C519.285 382.903 511.283 391.009 512.051 398.139C512.819 405.269 518.075 410.976 521.122 417.474C524.996 425.916 525.093 435.603 521.388 444.119L526.619 443.889Z" fill="#10100E"/>
<path d="M560 551L532.891 437.472C538.576 440.555 545.679 438.58 548.961 433.003C552.243 427.426 550.528 420.249 545.079 416.764C539.631 413.279 532.405 414.737 528.73 420.063L527.494 414.89C514.387 414.915 501.36 403.775 498.646 391C464.672 407.021 469.201 458.268 469.201 458.268L496.721 449.714L482.881 546.643L560 551Z" fill="white"/>
<path fill-rule="evenodd" clip-rule="evenodd" d="M481.579 547.562L560 552L533.366 439.932C539.371 442.128 546.066 439.524 549.033 433.84C552 428.156 550.322 421.145 545.108 417.435C539.894 413.725 532.751 414.46 528.395 419.155L527.401 415.092H526.655C514.327 415.092 501.681 404.574 499.037 392.093L498.803 391L497.809 391.499C464.037 407.479 468.133 458.603 468.178 459.102L468.272 460.195L495.204 451.824L481.579 547.562ZM557.733 550.103L483.597 545.905L497.357 449.323L469.873 457.864C469.495 450.516 468.65 408.233 497.585 393.606C500.831 406.141 513.497 416.55 526.029 416.899L527.55 423.289L528.673 421.661C532.035 416.761 538.656 415.415 543.651 418.616C548.645 421.817 550.218 428.416 547.208 433.541C544.198 438.666 537.687 440.477 532.481 437.636L530.746 436.688L557.733 550.103Z" fill="#10100E"/>
<path d="M527 415L520.134 386C511.363 386.138 504.073 387.907 498 390.793C500.738 403.737 513.824 415.025 527 415Z" fill="#10100E"/>
<path fill-rule="evenodd" clip-rule="evenodd" d="M497.117 390.56C499.992 403.819 513.687 414.995 527.055 414.995L527.066 415H528L520.724 385H520.167C511.706 385.131 504.087 386.746 497.511 389.8L497 390.032L497.117 390.56ZM526.223 413.606C513.917 413.163 501.519 402.964 498.598 390.812C504.736 388.054 511.798 386.57 519.616 386.389L526.223 413.606Z" fill="#10100E"/>
<path d="M895 410.683L889.479 389C881.43 389.69 874.681 391.667 869 394.518C874.755 403.816 884.549 412.818 895 410.683Z" fill="#10100E"/>
<path fill-rule="evenodd" clip-rule="evenodd" d="M868.411 394.797C873.687 403.456 882.413 412 892.015 412C893.114 412.005 894.211 411.896 895.289 411.675L896 411.529L890.113 388L889.542 388.052C881.812 388.722 874.793 390.635 868.686 393.772L868 394.123L868.411 394.797ZM894.313 410.389C884.631 411.921 875.529 403.487 869.987 394.703H869.982C876.014 391.831 882.479 390.078 889.086 389.522L894.313 410.389Z" fill="#10100E"/>
<path d="M859.052 545L926 531.623L899.925 432.49C904.522 435.95 910.819 436.135 915.613 432.951C920.407 429.767 922.644 423.914 921.186 418.37C919.727 412.826 914.894 408.809 909.146 408.364C903.397 407.919 897.997 411.144 895.692 416.396L894.227 410.838C883.657 412.93 873.74 404.1 867.916 395C835.152 410.944 838.066 455.032 838.066 455.032L867.458 446.748L859.067 539.517L859.052 545Z" fill="white"/>
<path fill-rule="evenodd" clip-rule="evenodd" d="M858.043 539.413V546L927 532.157L901.25 433.806C903.322 434.909 905.634 435.484 907.982 435.48C914.899 435.49 920.851 430.598 922.172 423.817C923.494 417.036 919.812 410.272 913.396 407.691C906.98 405.11 899.632 407.437 895.877 413.239L894.78 409.031L893.954 409.197C883.818 411.213 874.181 402.504 868.561 393.674L868.133 393L867.413 393.352C834.483 409.453 837.026 454.116 837.056 454.568L837.127 455.669L866.331 447.393L858.043 539.413ZM859.825 539.488L868.34 444.954L838.803 453.346C838.657 446.482 839.216 409.745 867.504 395.318C873.34 404.173 883.023 412.651 893.481 411.102L895.384 418.384L896.391 416.025C898.537 411.087 903.582 408.05 908.957 408.461C914.332 408.873 918.854 412.643 920.22 417.851C921.587 423.058 919.496 428.558 915.014 431.549C910.532 434.54 904.644 434.364 900.349 431.11L898.289 429.547L924.779 530.744L859.825 543.818V539.488Z" fill="#10100E"/>
<path d="M1123 794L1066.46 594.446C1066.46 594.446 1050.3 503.353 952.831 512.669L873.704 529.34C809.842 553.693 781.982 587.171 763.835 634.211L695 794H1123Z" fill="#FF9F94"/>
<path d="M742 793C742 793 718.714 587.585 601.35 545.825C478.456 502.092 421.723 516.872 394.448 554.112C367.173 591.352 319 793 319 793H742Z" fill="#00C1AD"/>
<path d="M808 559.247C804.107 548.916 798.313 539.16 790.167 531.716C782.022 524.273 771.401 519.278 760.377 519.008C754.886 518.873 748.593 520.437 746.063 525.327C743.402 530.473 746.147 536.817 749.776 541.313C756.703 549.94 766.595 555.575 776.228 561L808 559.247Z" fill="white"/>
<path d="M776.23 561.98C776.112 561.982 775.996 561.953 775.893 561.896C766.637 556.786 756.141 551.002 748.958 542.212C744.174 536.364 742.747 530.169 745.137 525.638C747.415 521.32 753.087 518.849 760.22 519.007C771.018 519.27 781.861 523.806 790.759 531.783C798.462 538.716 804.582 547.961 808.952 559.336C809.092 559.686 808.915 560.081 808.559 560.217C808.203 560.354 807.801 560.181 807.662 559.831C803.372 548.659 797.373 539.568 789.831 532.803C781.181 525.044 770.675 520.631 760.189 520.379C757.704 520.319 749.366 520.572 746.357 526.277C743.201 532.268 748.373 539.355 750.032 541.385C757.049 549.962 767.418 555.686 776.568 560.737C776.843 560.886 776.979 561.2 776.899 561.498C776.82 561.796 776.544 562.003 776.23 562V561.98Z" fill="#10100E"/>
<path d="M1148.23 527.998C1145.61 519.388 1140.15 512.344 1134.74 505.652C1130.85 500.852 1126.87 495.37 1121.37 492.292C1118.11 490.465 1109.84 488 1107.68 492.749C1106.89 494.491 1107.24 496.575 1108.13 498.272C1109.93 501.691 1133.3 530.493 1133.82 530.202C1132.09 531.171 1130.53 532.412 1129.19 533.877C1122.9 525.636 1115.89 517.973 1108.24 510.979C1106.55 509.442 1104.8 507.911 1102.69 507.053C1099.92 505.851 1096.7 506.425 1094.51 508.51C1092.33 510.595 1091.6 513.787 1092.66 516.617C1094.13 520.633 1119.55 547.849 1119.33 548.06L1115.32 551.916C1111 544.777 1080.35 508.504 1078.05 529.941C1077.21 537.733 1096.84 555.47 1105.24 567.168C1105.42 567.414 1105.61 567.716 1105.8 568.047C1102.44 569.237 1101.98 567.716 1100.54 571.386C1095.48 564.859 1085.11 552.348 1077.13 551.379C1075.65 551.198 1074.52 554.471 1074.12 556.108C1072.7 562.133 1084.22 576.281 1088.56 579.127C1090.48 580.387 1093.07 587.516 1094.37 589.56C1095.23 590.925 1095.69 592.572 1096.19 594.164C1097.71 598.96 1099.83 603.543 1102.51 607.799C1103.05 608.795 1103.81 609.664 1104.71 610.35C1107.12 611.931 1110.14 610.35 1112.46 608.573C1118.51 603.951 1123.75 598.352 1127.97 592.005C1127.97 591.794 1127.97 591.588 1127.93 591.377C1129.94 589.173 1131.7 586.427 1133.2 584.298C1137.9 577.628 1141.9 570.491 1145.14 563.001C1149.74 552.162 1151.7 539.36 1148.23 527.998Z" fill="white"/>
<path d="M1149.33 527.915C1145.34 516.107 1136.34 503.992 1127.15 495.554C1123.22 491.933 1112.89 485.618 1108.01 491.232C1103.88 495.973 1110.38 502.328 1113.12 505.858C1118.56 512.854 1124.14 519.769 1129.9 526.512C1130.52 527.244 1133.55 529.756 1133.67 530.694C1133.56 529.821 1130.86 532.141 1130.5 532.146C1127.04 532.146 1123.56 525.645 1121.51 523.355C1116.49 517.741 1104.96 501.385 1095.53 506.958C1089.61 510.458 1091.45 516.576 1094.83 520.929C1100.25 527.915 1106.37 534.406 1112.3 540.963C1113.77 542.602 1117.74 545.537 1118.32 547.671C1118.59 548.649 1118.07 549.885 1116.42 550.369C1114.07 551.06 1116.95 551.444 1115.05 550.304C1114.52 549.981 1113.98 548.831 1113.62 548.352C1108.92 542.119 1103.64 536.355 1097.83 531.138C1092.8 526.649 1076.16 515.663 1077.28 531.037C1077.9 539.485 1088.21 548.367 1093.4 554.203C1095.15 556.17 1105.49 566.489 1104.27 568.118C1104.22 568.184 1101.74 568.89 1101.49 568.935C1099.26 569.339 1100.67 570.665 1098.07 567.528C1094.7 563.453 1082.65 547.857 1075.76 551.388C1069.36 554.661 1075.79 565.369 1078.05 568.693C1080.77 572.728 1084.05 575.936 1087.4 579.381C1091.31 583.386 1093.7 589.468 1095.62 594.694C1097.38 599.495 1099.66 608.458 1104.37 611.232C1108.15 613.456 1111.96 610.369 1114.85 608.059C1125.54 599.566 1134.01 586.326 1140.65 574.574C1148.74 560.245 1153.8 544.251 1149.33 527.899C1149.24 527.571 1148.9 527.378 1148.57 527.468C1148.24 527.559 1148.05 527.899 1148.14 528.227C1153.82 549.088 1143.75 569.324 1131.84 585.998C1127.09 592.646 1122.68 599.45 1116.53 604.973C1114.95 606.405 1112.51 609.078 1110.46 609.719C1104.5 611.56 1102.84 607.742 1100.98 604.216C1098.75 600.015 1097.64 595.496 1095.73 591.193C1094.09 587.471 1092.27 582.71 1089.63 579.593C1085.84 575.149 1081.48 571.81 1078.24 566.701C1076.67 564.209 1074.7 561.153 1074.56 558.172C1074.47 556.235 1075.64 552.624 1078.17 552.392C1079.76 552.251 1082.39 554.248 1083.77 555.181C1090.23 559.564 1095.4 565.985 1100.16 572.067C1100.3 572.203 1100.49 572.268 1100.68 572.243C1100.87 572.219 1101.04 572.107 1101.14 571.941C1102.23 569.556 1103.78 569.505 1106.08 568.87C1106.27 568.818 1106.42 568.683 1106.49 568.506C1106.56 568.328 1106.55 568.128 1106.45 567.962C1101.17 559.715 1093.62 552.861 1087.37 545.366C1084.39 541.795 1079.69 536.872 1078.74 532.071C1077.89 527.748 1080.06 523.108 1084.94 524.157C1091.8 525.625 1098.04 532.731 1102.69 537.528C1107.1 542.103 1111.59 546.99 1114.99 552.382C1115.09 552.544 1115.26 552.653 1115.44 552.678C1115.63 552.702 1115.82 552.64 1115.96 552.508L1120.01 548.634C1120.2 548.433 1120.25 548.128 1120.11 547.883C1118.94 545.361 1115.86 543.026 1114.01 540.983C1109.67 536.166 1105.31 531.359 1101.07 526.447C1099.25 524.339 1097.42 522.225 1095.71 520.021C1095.03 519.247 1094.42 518.415 1093.88 517.535C1089.98 509.465 1097.93 505.268 1104.47 508.597C1109.57 511.185 1114.39 517.444 1118.2 521.534C1122.01 525.625 1125.63 529.952 1129.09 534.386C1129.33 534.625 1129.72 534.625 1129.96 534.386C1131.27 532.95 1132.81 531.736 1134.51 530.79C1134.72 530.659 1134.84 530.419 1134.8 530.175C1134.77 529.932 1134.6 529.729 1134.37 529.655C1131.61 528.621 1128.03 522.336 1126.15 520.072C1121.47 514.392 1116.81 508.678 1112.35 502.822C1111.33 501.521 1109.47 499.766 1108.98 498.172C1105.89 488.18 1115.75 490.399 1119.24 491.771C1122.27 492.951 1124.73 494.924 1127.05 497.163C1135.75 505.576 1144.25 516.723 1148.15 528.222C1148.39 528.994 1149.59 528.671 1149.33 527.915Z" fill="#10100E"/>
<path d="M1131 590C1130.35 590.935 1129.68 591.843 1129 592.752C1129 592.83 1129 592.915 1129 593L1131 590Z" fill="white"/>
<path d="M1129.67 589.331C1129.33 589.857 1128.99 590.384 1128.65 590.905C1128.3 591.425 1127.97 591.74 1128 592.312C1128.01 592.625 1128.23 592.894 1128.53 592.975C1128.83 593.057 1129.15 592.932 1129.32 592.667C1129.84 591.79 1130.36 590.914 1130.89 590.041C1131.06 589.708 1130.94 589.301 1130.62 589.113C1130.29 588.924 1129.88 589.02 1129.67 589.331C1129.14 590.208 1128.62 591.084 1128.1 591.958L1129.42 592.312C1129.42 592.084 1130 591.454 1130.11 591.254C1130.37 590.853 1130.63 590.447 1130.89 590.041C1131.37 589.268 1130.15 588.564 1129.67 589.331Z" fill="#10100E"/>
<rect x="524" y="213" width="21" height="65" rx="10.5" fill="#C6D9F3"/>
<rect x="576" y="191" width="22" height="87" rx="11" fill="#C6D9F3"/>
<rect x="631" y="155" width="25" height="122" rx="12.5" fill="#C6D9F3"/>
<rect x="697" y="138" width="24" height="140" rx="12" fill="#C6D9F3"/>
<path d="M271.986 178H389.011C390.33 178 390.33 176 389.011 176H271.986C270.671 176 270.671 178 271.986 178Z" fill="#10100E"/>
<path d="M271.986 211H389.011C390.33 211 390.33 209 389.011 209H271.986C270.671 209 270.671 211 271.986 211Z" fill="#10100E"/>
<path d="M271.986 242H389.011C390.33 242 390.33 240 389.011 240H271.986C270.671 240 270.671 242 271.986 242Z" fill="#10100E"/>
<path d="M100.078 239.273C104.95 252.003 116.562 260.926 130.13 262.366C138.022 263.193 159.772 258.048 151.135 245.832C148.917 242.695 145.009 241.975 141.924 244.459C136.986 248.432 136.058 257.977 136.017 263.811C135.895 281.197 154.54 286.62 169.003 287.994C170.337 288.126 170.327 286.048 169.003 285.921C158.95 284.958 143.781 281.841 139.427 271.495C137.306 266.457 138.052 260.719 139.148 255.524C139.559 253.557 140.163 249.948 141.396 248.427C148.799 244.889 151.377 245.923 149.13 251.529C149.594 254.507 148.474 256.534 145.771 257.612C129.719 267.161 107.989 254.312 102.077 238.7C101.605 237.464 99.5957 238.001 100.073 239.253L100.078 239.273Z" fill="#10100E"/>
<path d="M47 413.999V431.998C47 433.334 49 433.334 49 431.998V413.999C49 412.667 47 412.667 47 413.999Z" fill="#10100E"/>
<path d="M39.0024 425H56.9995C58.331 425 58.336 423 56.9995 423H39.0024C37.6659 423 37.6659 425 39.0024 425Z" fill="#10100E"/>
<path d="M203 309.002V327C203 328.331 205 328.336 205 327V309.002C205 307.666 203 307.666 203 309.002Z" fill="#10100E"/>
<path d="M196.006 317H212.998C214.334 317 214.334 315 212.998 315H196.006C194.665 315 194.665 317 196.006 317Z" fill="#10100E"/>
<path d="M133.832 17.992C136.759 23.0718 139.212 28.4323 141.162 34.0143C141.613 35.2904 143.651 34.2885 143.228 33.0023C141.275 27.4214 138.823 22.0611 135.898 16.98C135.235 15.8346 133.189 16.8174 133.853 17.974L133.832 17.992Z" fill="#10100E"/>
<path d="M103.876 130.56L119.768 127.47C121.036 127.224 120.398 125.221 119.124 125.44L103.232 128.53C101.963 128.775 102.604 130.783 103.876 130.56Z" fill="#10100E"/>
<path d="M83.2472 91.9599L97.8073 91.2052C99.1746 91.1346 99.121 88.9698 97.7536 89.0404L83.1935 89.795C81.8262 89.8656 81.8771 92.0259 83.2472 91.9599Z" fill="#10100E"/>
<path d="M100.347 47.7171L111.203 56.7474C112.205 57.5886 113.674 56.1292 112.656 55.2829L101.795 46.2526C100.793 45.4114 99.3242 46.8708 100.347 47.7171Z" fill="#10100E"/>
<path d="M267.822 371.942C264.384 370.633 259.974 372.596 259.125 376.138C258.275 379.679 261.908 383.328 265.673 382.976C269.828 382.586 272.79 377.54 271.813 373.866C270.892 370.413 266.185 368.61 263.397 371.292C262.445 372.205 263.908 373.622 264.88 372.709C267.229 370.447 270.104 373.436 269.884 375.864C269.664 378.292 267.326 381.462 264.445 380.925C262.015 380.475 260.271 377.764 261.58 375.61C262.77 373.776 265.178 373.037 267.264 373.866C268.518 374.355 269.06 372.401 267.822 371.912V371.942Z" fill="#10100E"/>
<path d="M463.487 228.384C459.397 225.749 453.797 228.995 453.077 233.791C452.297 238.985 457.622 242.481 462.094 241.946C467.051 241.35 470.234 235.652 468.542 230.799C466.85 225.947 460.834 224.546 457.058 227.65C456.043 228.48 457.475 229.948 458.475 229.123C461.319 226.788 465.884 228.338 466.811 231.992C467.738 235.646 465.217 239.668 461.51 239.912C458.613 240.106 455.023 238.113 455.018 234.734C455.018 231.034 459.431 228.226 462.486 230.183C463.589 230.891 464.595 229.087 463.496 228.384H463.487Z" fill="#10100E"/>
<path d="M694 324.004V340.995C694 342.335 696 342.335 696 340.995V324.004C696 322.668 694 322.663 694 324.004Z" fill="#10100E"/>
<path d="M684 334H701.998C703.334 334 703.334 332 701.998 332H684C682.669 332 682.664 334 684 334Z" fill="#10100E"/>
<path d="M1161.65 164.63L1170.76 152.838C1171.56 151.815 1170.16 150.307 1169.35 151.355L1160.24 163.162C1159.44 164.185 1160.84 165.693 1161.65 164.645V164.63Z" fill="#10100E"/>
<path d="M1179.86 195.766L1193.27 194.192C1194.52 194.043 1194.4 192.084 1193.14 192.233L1179.73 193.81C1178.48 193.959 1178.6 195.915 1179.86 195.769L1179.86 195.766Z" fill="#10100E"/>
<path d="M1172.09 225.917L1185.21 233.005C1186.38 233.634 1187.06 231.702 1185.91 231.083L1172.79 223.995C1171.62 223.366 1170.94 225.298 1172.09 225.917Z" fill="#10100E"/>
<path d="M974.741 174.669C982.55 166.048 991.089 152.841 990.379 140.526C990.027 134.475 982.369 125.889 976.628 132.329C971.264 138.333 979.018 145.484 984.935 145.761C991.064 146.053 997.484 143.005 1002.97 140.541C1010.29 137.205 1017.21 133.001 1023.57 128.015C1024.61 127.211 1023.57 125.387 1022.53 126.207C1017.45 130.194 1012.01 133.689 1006.28 136.647C999.24 140.234 988.945 145.833 981.513 141.816C977.273 141.01 976.903 139.176 980.401 136.315C981.297 132.216 982.806 131.549 984.93 134.311C988.024 136.637 988.452 139.824 988.135 143.65C987.843 147.298 986.56 150.863 985.237 154.234C982.43 161.247 978.377 167.672 973.281 173.189C972.386 174.178 973.835 175.668 974.741 174.669Z" fill="#10100E"/>
<path d="M835 77.9959V97.0003C835 98.3332 837 98.3332 837 97.0003V77.9959C837 76.668 835 76.668 835 77.9959Z" fill="#10100E"/>
<path d="M828 88H847.002C848.33 88 848.335 86 847.002 86H828C826.667 86 826.667 88 828 88Z" fill="#10100E"/>
<path d="M543.032 71.9956C543.307 75.2319 543.582 78.4665 543.857 81.6995C544.015 83.5301 543.603 86.3669 544.693 88.0104C545.868 89.7853 548.579 89.0217 547.889 86.9181C547.74 86.4703 547.282 86.1624 546.76 86.1596H546.438C544.958 86.2102 544.947 88.2834 546.438 88.2329H546.76L545.63 87.4693C546.294 86.6902 546.574 85.7018 546.404 84.7336C546.348 84.1268 546.297 83.52 546.246 82.9131C546.144 81.6995 546.041 80.4859 545.935 79.2723C545.732 76.845 545.527 74.4194 545.32 71.9956C545.207 70.6757 542.891 70.6606 543.004 71.9956H543.032Z" fill="#10100E"/>
<path d="M537 81H554.998C556.334 81 556.334 79 554.998 79H537C535.669 79 535.664 81 537 81Z" fill="#10100E"/>
<path d="M664.254 543.973C680.434 538.75 696.772 534.131 713.27 530.116C714.549 529.808 714.007 527.744 712.727 528.026C696.229 532.027 679.891 536.647 663.712 541.884C662.462 542.286 662.995 544.355 664.254 543.947V543.973Z" fill="#10100E"/>
<path d="M691.531 550.878C698.427 546.845 706.124 544.535 714.019 544.13C715.322 544.057 715.332 541.929 714.019 542.002C705.766 542.419 697.717 544.823 690.502 549.025C689.353 549.684 690.382 551.522 691.531 550.857V550.878Z" fill="#10100E"/>
<path d="M523.171 329.533C528.693 338.493 537.555 344.787 547.725 346.973C549.004 347.252 549.552 345.256 548.268 344.972C538.609 342.934 530.184 336.98 524.933 328.484C524.231 327.359 522.444 328.398 523.171 329.533Z" fill="#10100E"/>
<path d="M487.277 413.422C488.132 411.858 488.99 410.298 489.852 408.742C490.574 407.426 488.451 406.262 487.723 407.578L485.148 412.258C484.426 413.574 486.549 414.738 487.277 413.422Z" fill="#10100E"/>
<path d="M475.264 411.328C472.001 414.727 468.393 417.738 464.506 420.305C464.011 420.633 463.769 421.536 464.298 421.984C466.671 424.025 469.494 425.399 472.505 425.98C473.781 426.225 474.324 424.165 473.044 423.893C470.372 423.413 467.857 422.231 465.732 420.456L465.524 422.136C469.561 419.472 473.308 416.348 476.698 412.82C477.627 411.855 476.203 410.342 475.264 411.312V411.328Z" fill="#10100E"/>
<path d="M476.691 438.386C479.501 439.725 482.721 438.828 484.727 436.148C485.611 434.941 484.14 433.204 483.246 434.405C481.772 436.457 479.326 437.109 477.248 436.003C476.007 435.4 475.465 437.782 476.691 438.386Z" fill="#10100E"/>
<path d="M856.062 415.406C856.847 413.618 858.066 412.057 859.605 410.865C860.753 409.971 859.142 408.372 858.01 409.26C856.319 410.575 854.978 412.292 854.108 414.257C853.523 415.584 855.472 416.744 856.062 415.406Z" fill="#10100E"/>
<path d="M844.264 416.306L839.099 422.079C838.081 423.217 836.262 424.612 836.032 426.294C835.621 429.268 839.314 429.416 840.923 430.75C841.902 431.59 843.345 430.114 842.337 429.268C841.817 428.824 841.243 428.455 840.63 428.17C839.162 427.478 837.695 427.499 838.923 425.371C839.666 424.063 841.163 422.874 842.161 421.782L845.722 417.808C846.602 416.823 845.189 415.336 844.303 416.326L844.264 416.306Z" fill="#10100E"/>
<path d="M848.42 438.713C850.654 440.658 853.754 440.371 855.706 438.039C856.614 436.947 855.215 435.262 854.283 436.354C852.975 437.92 850.876 438.051 849.436 436.656C848.41 435.721 847.41 437.818 848.42 438.713Z" fill="#10100E"/>
<path d="M747.851 533.852C753.445 531.093 755.57 525.338 752.772 520.527C752.083 519.335 749.911 520.376 750.594 521.563C752.734 525.384 751.017 529.903 746.602 532.075C745.212 532.756 746.479 534.528 747.875 533.847L747.851 533.852Z" fill="#10100E"/>
<path d="M1109.99 496.958C1114.69 497.411 1118.98 494.134 1119.98 489.321C1120.24 487.995 1118.29 487.428 1118 488.759C1117.24 492.652 1113.75 495.293 1109.97 494.844C1108.67 494.699 1108.68 496.814 1109.97 496.958H1109.99Z" fill="#10100E"/>
<path d="M1095.23 518.943C1099.54 517.546 1102.32 513.42 1101.97 508.953C1101.86 507.689 1099.84 507.675 1099.95 508.953C1100.31 512.521 1098.13 515.863 1094.7 517.023C1093.47 517.427 1093.99 519.352 1095.23 518.943H1095.23Z" fill="#10100E"/>
<path d="M1079.2 536.93C1083.7 535.238 1087.25 531.682 1088.93 527.178C1089.38 526.003 1087.5 525.493 1087.02 526.662C1085.55 530.518 1082.51 533.567 1078.66 535.045C1077.49 535.493 1078 537.384 1079.18 536.93H1079.2Z" fill="#10100E"/>
<path d="M1077.64 564.826C1081.55 562.417 1084.21 558.602 1084.98 554.294C1085.21 552.996 1083.08 552.438 1082.82 553.746C1082.2 557.533 1079.91 560.906 1076.5 563.045C1075.33 563.784 1076.43 565.56 1077.62 564.826H1077.64Z" fill="#10100E"/>
<path d="M468.69 305.832C472.162 303.838 473.759 300.155 472.654 296.692C472.265 295.479 470.072 295.994 470.433 297.212C471.29 299.823 470.115 302.613 467.513 304.147C466.308 304.849 467.446 306.534 468.662 305.832H468.69Z" fill="#10100E"/>
<path d="M854.331 201.457L857.849 195.628C858.589 194.398 856.411 193.31 855.664 194.54C854.492 196.485 853.322 198.428 852.153 200.369C851.407 201.599 853.591 202.692 854.331 201.457Z" fill="#10100E"/>
<path d="M845.23 201.259L835.29 209.823C835.039 210.08 834.942 210.452 835.034 210.8C835.127 211.149 835.395 211.422 835.741 211.521L843.773 212.981C845.047 213.21 845.597 211.253 844.313 211.02L836.276 209.559C836.43 210.125 836.579 210.692 836.727 211.263L846.667 202.7C847.658 201.846 846.216 200.41 845.23 201.259Z" fill="#10100E"/>
<path d="M847.979 221.989C851.271 221.55 854.193 219.267 855.852 215.839C856.521 214.469 854.741 213.224 854.077 214.595C852.801 217.288 850.545 219.114 847.979 219.53C846.681 219.722 846.666 222.187 847.979 221.989Z" fill="#10100E"/>
<path d="M532.31 429.939L542.249 427.246C543.563 426.888 543.009 424.681 541.694 425.039L531.75 427.732C530.435 428.089 530.995 430.296 532.31 429.967V429.939Z" fill="#10100E"/>
<path d="M902.254 423.941C906.147 422.865 909.918 421.26 913.49 419.16C914.649 418.485 913.627 416.461 912.473 417.136C909.054 419.145 905.445 420.681 901.718 421.71C900.461 422.054 900.991 424.312 902.254 423.964V423.941Z" fill="#10100E"/>
<path d="M377.635 448.74C376.786 452.795 375.271 456.734 373.134 460.445C372.451 461.623 374.566 462.661 375.249 461.478C377.491 457.614 379.082 453.511 379.978 449.284C380.253 447.996 377.892 447.442 377.617 448.74H377.635Z" fill="#10100E"/>
<path d="M397.751 464.047C397.699 469.197 395.765 474.169 392.282 478.108C391.349 479.166 392.949 480.71 393.892 479.636C397.77 475.275 399.93 469.762 400 464.047C400 462.651 397.751 462.651 397.729 464.047H397.751Z" fill="#10100E"/>
<path d="M414.729 484.013C415.003 488.964 414.434 493.924 413.045 498.697C412.668 500.006 414.766 500.561 415.17 499.257C416.617 494.303 417.212 489.153 416.933 484.013C416.859 482.668 414.686 482.657 414.755 484.013H414.729Z" fill="#10100E"/>
<path d="M320 452.019V469.98C320 471.34 322 471.34 322 469.98V452.019C322 450.663 320 450.658 320 452.019Z" fill="#10100E"/>
<path d="M318.068 370.347C319.539 375.428 325.382 378.408 330.295 376.333C331.542 375.81 330.997 373.719 329.733 374.242C327.873 375.028 325.77 374.988 323.94 374.134C322.11 373.279 320.724 371.687 320.121 369.751C319.737 368.434 317.683 368.993 318.042 370.321L318.068 370.347Z" fill="#10100E"/>
<path fill-rule="evenodd" clip-rule="evenodd" d="M269.256 132.049L180.351 178.193L132.595 86.5704L164.099 70.22C161.312 68.5512 158.921 66.1001 157.296 62.9835C152.745 54.2514 155.92 43.6146 164.393 39.2178C172.864 34.8194 183.414 38.3322 187.966 47.0658C189.59 50.1809 190.235 53.5378 189.998 56.7778L221.5 40.426L238.344 72.7407C239.905 70.0612 242.202 67.7956 245.128 66.2781C253.593 61.8846 264.154 65.4007 268.701 74.1261C273.254 82.8598 270.071 93.5 261.606 97.8934C258.681 99.4109 255.504 99.9889 252.412 99.7326L269.256 132.049Z" fill="#007BFF"/>
<path fill-rule="evenodd" clip-rule="evenodd" d="M229.37 138.462C225.862 134.765 222.236 130.943 217.854 128.433C207.735 122.636 193.359 124.417 182.893 132.763C176.052 138.217 170.866 146.112 167.818 155.522L168.081 156.035C171.084 146.526 176.267 138.552 183.14 133.073C193.477 124.831 207.665 123.066 217.642 128.781C221.977 131.264 225.584 135.066 229.071 138.742C231.821 141.64 234.624 144.589 237.794 146.876L238.177 146.674C235.043 144.438 232.249 141.498 229.37 138.462Z" fill="white"/>
<path fill-rule="evenodd" clip-rule="evenodd" d="M155.147 57.7133C162.476 59.2221 168.727 63.0533 172.314 68.567C174.472 71.8853 175.721 75.7895 176.928 79.5635C178.435 84.2749 179.991 89.1432 183.336 92.8754C188.252 98.357 196.005 100.239 202.233 101.75L261.594 116.154L261.343 115.673L202.326 101.353C194.745 99.5126 188.106 97.5846 183.638 92.6014C180.358 88.9477 178.811 84.1132 177.317 79.4418C176.102 75.6411 174.844 71.7101 172.655 68.3457C168.98 62.6989 162.556 58.7827 155.037 57.2755C155.071 57.4217 155.109 57.5675 155.147 57.7133Z" fill="white"/>
<path fill-rule="evenodd" clip-rule="evenodd" d="M149.761 101.996C148.646 94.9022 145.69 88.0096 141.395 82.0759L141.05 82.2502C145.322 88.1365 148.264 94.9824 149.372 102.03C150.259 107.677 149.954 113.389 148.601 118.748L148.885 119.276C150.34 113.752 150.68 107.839 149.761 101.996Z" fill="white"/>
<path fill-rule="evenodd" clip-rule="evenodd" d="M1076.21 238.655C1067.78 234.099 1057.17 237.47 1052.51 246.183C1050.84 249.296 1050.16 252.669 1050.36 255.929L1019.01 238.98L1067.98 147.507L1100.09 164.87C1099.54 161.143 1100.15 157.182 1102.09 153.571C1106.75 144.858 1117.36 141.487 1125.79 146.044C1134.21 150.6 1137.26 161.357 1132.6 170.07C1130.67 173.681 1127.71 176.375 1124.31 177.967L1156.43 195.33L1107.46 286.803L1076.12 269.857C1078.93 268.226 1081.36 265.795 1083.02 262.682C1087.69 253.969 1084.64 243.213 1076.21 238.655Z" fill="#FFB900"/>
<path fill-rule="evenodd" clip-rule="evenodd" d="M1067.75 146.821L1068.86 146.16L1068.38 145.899L1068.17 146.024L1067.75 146.821Z" fill="white"/>
<path fill-rule="evenodd" clip-rule="evenodd" d="M1101.39 163.167C1101.41 163.32 1101.42 163.474 1101.43 163.627L1115.83 153.87L1115.65 153.508L1101.39 163.167Z" fill="white"/>
<path fill-rule="evenodd" clip-rule="evenodd" d="M1128.74 146.953C1128.62 146.862 1128.51 146.771 1128.39 146.683L1115.68 153.668L1115.89 154.015L1128.74 146.953Z" fill="white"/>
<path fill-rule="evenodd" clip-rule="evenodd" d="M1040.51 196.126L1040.16 196.729L1063 185.077L1062.8 184.763L1040.51 196.126Z" fill="white"/>
<path fill-rule="evenodd" clip-rule="evenodd" d="M1099.86 163.617L1099.45 163.398L1090.04 168.832L1090.24 169.172L1099.86 163.617Z" fill="white"/>
<path fill-rule="evenodd" clip-rule="evenodd" d="M1090.71 169.207L1090.5 168.85L1063.4 183.903L1063.62 184.259L1090.71 169.207Z" fill="white"/>
<path fill-rule="evenodd" clip-rule="evenodd" d="M1051.53 226.67L1051.74 227.026L1078.84 211.974L1078.62 211.616L1051.53 226.67Z" fill="white"/>
<path fill-rule="evenodd" clip-rule="evenodd" d="M1024.95 240.006L1025.17 240.363L1052.27 225.31L1052.05 224.954L1024.95 240.006Z" fill="white"/>
<path fill-rule="evenodd" clip-rule="evenodd" d="M1105.82 195.179L1078.73 210.232L1078.94 210.588L1106.04 195.536L1105.82 195.179Z" fill="white"/>
<path fill-rule="evenodd" clip-rule="evenodd" d="M1133.49 181.021L1133.36 180.81L1133.18 180.715L1106.17 195.778L1106.39 196.136L1133.49 181.021Z" fill="white"/>
<path fill-rule="evenodd" clip-rule="evenodd" d="M1024.08 241.35L1025 241.999L1024.58 240.931L1024.08 241.35Z" fill="white"/>
<path fill-rule="evenodd" clip-rule="evenodd" d="M1119.39 221.358L1119.6 221.716L1146.7 206.663L1146.48 206.307L1119.39 221.358Z" fill="white"/>
<path fill-rule="evenodd" clip-rule="evenodd" d="M1151.56 203.947L1152.01 202.996L1145.3 207.666L1145.53 208.143L1151.56 203.947Z" fill="white"/>
<path fill-rule="evenodd" clip-rule="evenodd" d="M1081.5 244.478C1081.59 244.605 1081.67 244.736 1081.75 244.864L1094.54 237.929L1094.29 237.539L1081.5 244.478Z" fill="white"/>
<path fill-rule="evenodd" clip-rule="evenodd" d="M1093.06 236.681L1093.27 237.039L1120.37 221.987L1120.15 221.629L1093.06 236.681Z" fill="white"/>
<path fill-rule="evenodd" clip-rule="evenodd" d="M1124.09 253.281L1109.6 263.018L1109.78 263.388L1123.73 254.016L1124.09 253.281Z" fill="white"/>
<path fill-rule="evenodd" clip-rule="evenodd" d="M1088.39 275.591L1088.82 275.798L1108.96 265.785L1108.74 265.47L1088.39 275.591Z" fill="white"/>
<path fill-rule="evenodd" clip-rule="evenodd" d="M1020.55 233.659L1020.31 234.115L1025.14 242.764L1025.34 243.127L1026.06 243.522L1025.72 242.922L1025.51 242.54L1020.55 233.659Z" fill="white"/>
<path fill-rule="evenodd" clip-rule="evenodd" d="M1037.15 202.334L1036.92 202.739L1050.98 226.024L1051.19 226.363L1057.96 237.574C1058.08 237.506 1058.19 237.446 1058.31 237.38L1051.54 226.168L1051.33 225.828L1037.15 202.334Z" fill="white"/>
<path fill-rule="evenodd" clip-rule="evenodd" d="M1076.01 269.033L1076.75 270.337L1077.77 270.896L1076.53 268.702C1076.36 268.818 1076.18 268.924 1076.01 269.033Z" fill="white"/>
<path fill-rule="evenodd" clip-rule="evenodd" d="M1093.04 237.174L1092.83 236.822L1077.59 211.033L1077.39 210.684L1053.59 170.42L1053.37 170.839L1061.59 184.748L1061.79 185.099L1077.03 210.886L1077.24 211.238L1092.48 237.025L1092.69 237.377L1107.92 263.163L1108.13 263.515L1113.6 272.767L1113.83 272.348L1108.49 263.312L1108.28 262.96L1093.04 237.174Z" fill="white"/>
<path fill-rule="evenodd" clip-rule="evenodd" d="M1104.73 195.492L1104.94 195.846L1119.81 221.822L1120.02 222.176L1131.18 241.674L1131.41 241.25L1120.37 221.97L1120.16 221.615L1090.2 169.309L1090 168.955L1080.91 153.087L1080.23 152.717L1089.65 169.162L1089.85 169.515L1104.73 195.492Z" fill="white"/>
<path fill-rule="evenodd" clip-rule="evenodd" d="M1110.54 146.225L1127.19 176.614C1127.29 176.53 1127.4 176.453 1127.51 176.366L1110.89 146.049C1110.77 146.107 1110.65 146.164 1110.54 146.225Z" fill="white"/>
<path fill-rule="evenodd" clip-rule="evenodd" d="M1146.49 206.499L1148.57 210.29L1148.79 209.855L1132.5 180.039L1131.83 179.663L1131.94 179.875L1146.49 206.499Z" fill="white"/>
</svg>
