<svg width="320" height="518" viewBox="0 0 320 518" fill="none" xmlns="http://www.w3.org/2000/svg">
<path fill-rule="evenodd" clip-rule="evenodd" d="M8.98017 467.843L9.90554 474.645L92.5655 516.469L171.181 503.954L228.256 424.435L224.196 418.157L138.209 475.212L8.98017 467.843Z" fill="#BCD5FF"/>
<path fill-rule="evenodd" clip-rule="evenodd" d="M164.706 434.008L162.361 436.433L93.7569 507.342L92.2225 508.918L9.256 466.879L78.4128 394.141L164.706 434.008Z" fill="white"/>
<path fill-rule="evenodd" clip-rule="evenodd" d="M164.954 432.726L225.195 415.829L168.174 495.816L91.804 509.172L164.954 432.726Z" fill="#E2EDFF"/>
<path fill-rule="evenodd" clip-rule="evenodd" d="M225.195 415.829L164.954 432.726L91.804 509.172L168.174 495.816L225.195 415.829ZM216.653 421.834L166.183 492.636L101.626 503.925L166.799 435.816L216.653 421.834Z" fill="white"/>
<path fill-rule="evenodd" clip-rule="evenodd" d="M221.489 157.236C214.747 176.35 225.318 197.406 245.099 204.267C252.166 206.718 259.452 207.027 266.207 205.537L241.125 276.631L33.461 204.597L59.1568 131.758C51.5393 134.142 43.0475 134.18 34.85 131.337C15.0699 124.476 4.49868 103.42 11.2414 84.3064C17.9846 65.1923 39.4868 55.262 59.2669 62.1234C67.4643 64.9669 74.0804 70.2454 78.5379 76.8182L104.234 3.97869L311.897 76.012L286.819 147.106C282.474 141.766 276.583 137.504 269.516 135.054C249.735 128.192 228.236 138.123 221.489 157.236Z" fill="#FFB900"/>
<path fill-rule="evenodd" clip-rule="evenodd" d="M39.0255 206.974L36.5495 204.016L36.0001 205.544L36.4684 206.104L39.0255 206.974Z" fill="white"/>
<path fill-rule="evenodd" clip-rule="evenodd" d="M58.4045 132.812C58.692 132.73 58.9798 132.649 59.2648 132.56L36.3721 102.192L35.741 102.749L58.4045 132.812Z" fill="white"/>
<path fill-rule="evenodd" clip-rule="evenodd" d="M16.2624 80.1599C16.1112 80.4092 15.9587 80.6574 15.8138 80.9115L34.5362 102.844L35.1906 102.335L16.2624 80.1599Z" fill="white"/>
<path fill-rule="evenodd" clip-rule="evenodd" d="M149.821 246.15L151.381 246.682L115.296 203.306L114.627 203.84L149.821 246.15Z" fill="white"/>
<path fill-rule="evenodd" clip-rule="evenodd" d="M58.1912 133.135L57.8431 134.109L73.4666 152.872L74.1633 152.316L58.1912 133.135Z" fill="white"/>
<path fill-rule="evenodd" clip-rule="evenodd" d="M76.2463 155.341L75.5757 155.882L115.753 204.659L116.424 204.118L76.2463 155.341Z" fill="white"/>
<path fill-rule="evenodd" clip-rule="evenodd" d="M205.755 211.659L206.424 211.117L166.248 162.341L165.576 162.882L205.755 211.659Z" fill="white"/>
<path fill-rule="evenodd" clip-rule="evenodd" d="M247.751 262.659L248.424 262.117L208.244 213.341L207.576 213.883L247.751 262.659Z" fill="white"/>
<path fill-rule="evenodd" clip-rule="evenodd" d="M124.576 113.883L164.755 162.659L165.424 162.117L125.247 113.341L124.576 113.883Z" fill="white"/>
<path fill-rule="evenodd" clip-rule="evenodd" d="M85.113 63.343L84.7179 63.661L84.5786 64.0535L124.75 112.659L125.424 112.117L85.113 63.343Z" fill="white"/>
<path fill-rule="evenodd" clip-rule="evenodd" d="M248.502 263L248.982 260.991L248.002 262.132L248.502 263Z" fill="white"/>
<path fill-rule="evenodd" clip-rule="evenodd" d="M173.751 71.6587L174.424 71.1171L134.247 22.3407L133.576 22.8822L173.751 71.6587Z" fill="white"/>
<path fill-rule="evenodd" clip-rule="evenodd" d="M126.422 12.6307L124.904 12.0791L133.435 22.9319L134.085 22.3814L126.422 12.6307Z" fill="white"/>
<path fill-rule="evenodd" clip-rule="evenodd" d="M233.488 143.854C233.712 143.671 233.945 143.493 234.173 143.315L216.524 123.147L215.827 123.676L233.488 143.854Z" fill="white"/>
<path fill-rule="evenodd" clip-rule="evenodd" d="M214.751 121.659L215.424 121.118L175.248 72.3406L174.576 72.8822L214.751 121.659Z" fill="white"/>
<path fill-rule="evenodd" clip-rule="evenodd" d="M241.749 53.2031L264.599 81.8087L265.243 81.2741L243.248 53.7382L241.749 53.2031Z" fill="white"/>
<path fill-rule="evenodd" clip-rule="evenodd" d="M296.99 119.724L297.33 118.767L265.347 80.2701L264.663 80.8161L296.99 119.724Z" fill="white"/>
<path fill-rule="evenodd" clip-rule="evenodd" d="M230.134 274.76L231.109 275.139L246.653 261.184L247.307 260.6L247.859 258.844L246.78 259.814L246.095 260.429L230.134 274.76Z" fill="white"/>
<path fill-rule="evenodd" clip-rule="evenodd" d="M158.471 249.264L159.422 249.591L204.952 213.141L205.615 212.607L227.535 195.059C227.349 194.844 227.179 194.621 226.997 194.403L205.073 211.955L204.41 212.488L158.471 249.264Z" fill="white"/>
<path fill-rule="evenodd" clip-rule="evenodd" d="M287.626 147.015L289.385 145.62L289.973 143.974L287.014 146.326C287.225 146.552 287.423 146.785 287.626 147.015Z" fill="white"/>
<path fill-rule="evenodd" clip-rule="evenodd" d="M214.972 121.852L214.304 122.396L165.392 162.382L164.728 162.926L88.3611 225.357L89.3127 225.691L115.695 204.123L116.36 203.579L165.27 163.594L165.938 163.05L214.847 123.064L215.514 122.52L264.423 82.5347L265.09 81.9903L282.638 67.6437L281.686 67.3098L264.548 81.3226L263.881 81.867L214.972 121.852Z" fill="white"/>
<path fill-rule="evenodd" clip-rule="evenodd" d="M126.274 114.312L126.944 113.765L176.183 73.58L176.855 73.033L213.815 42.8707L212.857 42.5352L176.31 72.362L175.638 72.909L76.4866 153.826L75.8163 154.372L45.7372 178.92L45.191 180.482L76.3632 155.044L77.0332 154.496L126.274 114.312Z" fill="white"/>
<path fill-rule="evenodd" clip-rule="evenodd" d="M16.8694 117.503L74.6129 72.0935C74.4029 71.898 74.2072 71.6907 73.9917 71.4995L16.3843 116.802C16.5452 117.037 16.7026 117.272 16.8694 117.503Z" fill="white"/>
<path fill-rule="evenodd" clip-rule="evenodd" d="M133.658 23.373L140.617 17.8457L139.671 17.5226L84.9308 60.9855L84.388 62.4943L84.7785 62.1841L133.658 23.373Z" fill="white"/>
<path fill-rule="evenodd" clip-rule="evenodd" d="M124.4 299.843L126.29 333.997L106.6 335.159L104.711 301.004L124.4 299.843Z" fill="#974245"/>
<path fill-rule="evenodd" clip-rule="evenodd" d="M125.048 299.867L126.173 319.851C120.572 318.146 113.223 311.165 108.888 303.706L120.076 300.156L125.048 299.867Z" fill="#4A191B"/>
<path fill-rule="evenodd" clip-rule="evenodd" d="M133.433 290.991C137.052 296.949 137.201 301.787 132.008 299.317C126.816 296.848 133.433 290.991 133.433 290.991Z" fill="#974245"/>
<path fill-rule="evenodd" clip-rule="evenodd" d="M132.69 285.006C132.69 285.006 135.111 311.292 125.069 311.882C115.027 312.471 105.218 304.32 105.218 304.32L104.83 284.397L121.152 275.96L132.69 285.006Z" fill="#974245"/>
<path fill-rule="evenodd" clip-rule="evenodd" d="M116.555 290.867C117.6 286.973 120.485 284.032 125.713 282.309C125.713 282.309 132.9 291.015 138.067 287.29C145.365 282.03 137.511 269.344 125.834 271.894C119.766 265.253 113.285 267.538 106.592 274.397C94.114 276.702 92.7824 283.799 96.2442 292.958C88.7165 293.022 86.275 296.787 87.5076 303.227L109.566 309.081L114.089 292.741L116.555 290.867Z" fill="#4A191B"/>
<path fill-rule="evenodd" clip-rule="evenodd" d="M111.987 267.535C112.234 271.946 108.858 275.729 104.447 275.986C100.036 276.244 96.2601 272.876 96.0127 268.465C95.7656 264.054 99.1411 260.27 103.552 260.013C107.963 259.756 111.74 263.124 111.987 267.535Z" fill="#4A191B"/>
<path fill-rule="evenodd" clip-rule="evenodd" d="M126.575 301.999C124.173 302.041 122.146 300.177 122.007 297.757C121.865 295.275 123.762 293.149 126.244 293.007C126.304 293.004 126.365 293.002 126.425 293.001C128.827 292.959 130.854 294.822 130.992 297.244C131.134 299.724 129.238 301.851 126.757 301.993C126.696 301.996 126.635 301.998 126.575 301.999Z" fill="#803638"/>
<path fill-rule="evenodd" clip-rule="evenodd" d="M120.097 289.235C121.609 291.992 121.224 295.241 119.238 296.492C117.251 297.742 114.414 296.521 112.902 293.764C111.39 291.007 111.775 287.759 113.762 286.508C115.749 285.257 118.585 286.478 120.097 289.235Z" fill="#974245"/>
<path fill-rule="evenodd" clip-rule="evenodd" d="M117.218 293.988C117.027 291.731 115.997 290.401 113.979 289.803L114.499 288.034C117.261 288.852 118.793 290.803 119.05 293.831L117.218 293.988Z" fill="#4A191B"/>
<path fill-rule="evenodd" clip-rule="evenodd" d="M172.324 306.48C163.845 315.747 151.172 320.123 138.774 318.204C120.081 315.311 96.9937 316.74 84.1685 330.986L80.2442 409.257C80.0807 412.519 83.2247 414.931 86.3234 413.926L145.908 394.601C147.926 393.945 149.246 392.004 149.118 389.885L147.311 359.83C177.807 355.346 207.227 307.69 220.972 278.461L200.512 262.116C191.301 280.383 181.952 295.96 172.324 306.48Z" fill="#007BFF"/>
<path fill-rule="evenodd" clip-rule="evenodd" d="M227.992 249.162C229.358 247.36 225.73 243.87 223.555 246.236C225.528 242.665 221.398 239.878 219.247 240.954C218.931 236.972 217.021 235.989 213.52 238.006C209.726 246.405 205.916 254.49 202.078 262.1L221.865 277.901C229.334 262.024 232.156 249.698 227.992 249.162Z" fill="#974245"/>
<path fill-rule="evenodd" clip-rule="evenodd" d="M166.678 435.244L92.8563 510.605L86.3253 415.722L147.059 397.642L166.678 435.244Z" fill="#FF5C33"/>
<path fill-rule="evenodd" clip-rule="evenodd" d="M89.1183 430.533L88.0117 413.951L147.204 395.514L150.826 402.784L89.1183 430.533Z" fill="#C8482C"/>
<path fill-rule="evenodd" clip-rule="evenodd" d="M101.78 339.962L87.1375 376.766C85.1417 374.318 83.1788 371.83 81.2838 369.33C76.1734 362.615 71.3996 355.709 67.1129 348.519C45.6651 312.684 35.9054 270.205 54.1895 214.316L79.5733 219.75C67.8095 253.181 76.9979 290.136 87.809 314.999C89.4189 318.689 91.0576 322.105 92.6571 325.196C96.0137 331.632 99.2274 336.716 101.78 339.962Z" fill="#007BFF"/>
<path fill-rule="evenodd" clip-rule="evenodd" d="M77.4277 183.233C78.0098 180.989 83.1752 181.684 82.6565 184.939C84.2821 181.078 89.1997 182.624 89.7131 185.039C93.1447 182.757 95.1703 183.667 95.7891 187.767C90.3917 198.157 85.3915 208.27 81.0694 217.905L55.2142 212.478C64.1237 192.952 73.9413 179.869 77.4277 183.233Z" fill="#974245"/>
<path fill-rule="evenodd" clip-rule="evenodd" d="M83.2589 368.983C78.1552 362.294 73.3877 355.415 69.1066 348.252C73.5919 333.118 79.7367 320.737 89.7784 314.861C91.3861 318.537 93.0226 321.939 94.6199 325.018L94.7137 325.511C81.4698 332.536 82.8733 349.804 83.2589 368.983Z" fill="#005FC5"/>
</svg>
