<svg width="1000" height="1000" viewBox="0 0 1000 1000" fill="none" xmlns="http://www.w3.org/2000/svg">
<path d="M584.78,11c-71.26,0-137.32,26.53-185.21,73.64-47-42.82-110.55-74.32-182-74.32H21V516.11H217.61c70.76,0,134-30.7,181-73.37,47.55,47,113.49,73.41,185,73.41C729,516.15,843,405.21,843,263.58v-1.25C843,119.07,732,11,584.78,11ZM691.85,263.58v1.26c0,63.91-46,112.11-107.07,112.11C523,377,476.45,328.21,476.45,263.58v-1.25c0-63.91,46-112.1,107.08-112.1C645.28,150.23,691.85,199,691.85,263.58Zm-366.55,0v1.26c0,64.66-42.27,106.45-107.69,106.45H167.75V155.88h49.86C282,155.88,325.3,199.16,325.3,263.58Z" style="fill:#231f20"/>
</svg>
